<?xml version="1.0" encoding="UTF-8" standalone="no"?>
<!DOCTYPE svg PUBLIC "-//W3C//DTD SVG 1.1//EN"
 "http://www.w3.org/Graphics/SVG/1.1/DTD/svg11.dtd">
<!-- Generated by graphviz version 2.43.0 (0)
 -->
<!-- Title: it.unitn.healthcore.controller.UserController.recoverPassword Pages: 1 -->
<svg width="861pt" height="236pt"
 viewBox="0.00 0.00 861.00 236.00" xmlns="http://www.w3.org/2000/svg" xmlns:xlink="http://www.w3.org/1999/xlink">
<g id="graph0" class="graph" transform="scale(1 1) rotate(0) translate(4 232)">
<title>it.unitn.healthcore.controller.UserController.recoverPassword</title>
<polygon fill="white" stroke="transparent" points="-4,4 -4,-232 857,-232 857,4 -4,4"/>
<!-- Node1 -->
<g id="node1" class="node">
<title>Node1</title>
<g id="a_node1"><a xlink:title="handle the password recovery request by sending an OTP to the user&#39;s email and redirecting to the OTP...">
<polygon fill="#bfbfbf" stroke="black" points="0,-104.5 0,-134.5 172,-134.5 172,-104.5 0,-104.5"/>
<text text-anchor="start" x="8" y="-122.5" font-family="Helvetica,sans-Serif" font-size="10.00">it.unitn.healthcore.controller.</text>
<text text-anchor="middle" x="86" y="-111.5" font-family="Helvetica,sans-Serif" font-size="10.00">UserController.recoverPassword</text>
</a>
</g>
</g>
<!-- Node2 -->
<g id="node2" class="node">
<title>Node2</title>
<g id="a_node2"><a xlink:href="classit_1_1unitn_1_1healthcore_1_1business_1_1UserService.html#acc1ae5218e790edcc69ad692c84871a2" target="_top" xlink:title="Recovers the password for a user by verifying the OTP and updating the password in the database.">
<polygon fill="white" stroke="black" points="208,-104.5 208,-134.5 369,-134.5 369,-104.5 208,-104.5"/>
<text text-anchor="start" x="216" y="-122.5" font-family="Helvetica,sans-Serif" font-size="10.00">it.unitn.healthcore.business.</text>
<text text-anchor="middle" x="288.5" y="-111.5" font-family="Helvetica,sans-Serif" font-size="10.00">UserService.recoverPassword</text>
</a>
</g>
</g>
<!-- Node1&#45;&gt;Node2 -->
<g id="edge1" class="edge">
<title>Node1&#45;&gt;Node2</title>
<path fill="none" stroke="midnightblue" d="M172.03,-119.5C180.45,-119.5 189.02,-119.5 197.49,-119.5"/>
<polygon fill="midnightblue" stroke="midnightblue" points="197.76,-123 207.76,-119.5 197.76,-116 197.76,-123"/>
</g>
<!-- Node3 -->
<g id="node3" class="node">
<title>Node3</title>
<g id="a_node3"><a xlink:href="interfaceit_1_1unitn_1_1healthcore_1_1persistence_1_1UserRepository.html#a6a646ae44d01189ff44c81c03fc92fa8" target="_top" xlink:title=" ">
<polygon fill="white" stroke="black" points="416.5,-197.5 416.5,-227.5 590.5,-227.5 590.5,-197.5 416.5,-197.5"/>
<text text-anchor="start" x="424.5" y="-215.5" font-family="Helvetica,sans-Serif" font-size="10.00">it.unitn.healthcore.persistence.</text>
<text text-anchor="middle" x="503.5" y="-204.5" font-family="Helvetica,sans-Serif" font-size="10.00">UserRepository.findUserByEmail</text>
</a>
</g>
</g>
<!-- Node2&#45;&gt;Node3 -->
<g id="edge2" class="edge">
<title>Node2&#45;&gt;Node3</title>
<path fill="none" stroke="midnightblue" d="M310.62,-134.76C333.05,-150.31 370,-174.12 405,-188.5 410.14,-190.61 415.51,-192.57 420.98,-194.38"/>
<polygon fill="midnightblue" stroke="midnightblue" points="420.3,-197.84 430.89,-197.48 422.39,-191.15 420.3,-197.84"/>
</g>
<!-- Node4 -->
<g id="node4" class="node">
<title>Node4</title>
<g id="a_node4"><a xlink:href="classit_1_1unitn_1_1healthcore_1_1domain_1_1PasswordConfirmationForm.html#ad2a321af868704e56c42d5306a8acd91" target="_top" xlink:title="Email getter.">
<polygon fill="white" stroke="black" points="405,-148.5 405,-178.5 602,-178.5 602,-148.5 405,-148.5"/>
<text text-anchor="start" x="413" y="-166.5" font-family="Helvetica,sans-Serif" font-size="10.00">it.unitn.healthcore.domain.</text>
<text text-anchor="middle" x="503.5" y="-155.5" font-family="Helvetica,sans-Serif" font-size="10.00">PasswordConfirmationForm.getEmail</text>
</a>
</g>
</g>
<!-- Node2&#45;&gt;Node4 -->
<g id="edge3" class="edge">
<title>Node2&#45;&gt;Node4</title>
<path fill="none" stroke="midnightblue" d="M362.21,-134.52C380.78,-138.36 400.89,-142.51 419.92,-146.44"/>
<polygon fill="midnightblue" stroke="midnightblue" points="419.26,-149.88 429.76,-148.47 420.67,-143.02 419.26,-149.88"/>
</g>
<!-- Node5 -->
<g id="node5" class="node">
<title>Node5</title>
<g id="a_node5"><a xlink:href="classit_1_1unitn_1_1healthcore_1_1domain_1_1PasswordConfirmationForm.html#aa7de23a583db33eba13ddecad973ceca" target="_top" xlink:title="Password getter.">
<polygon fill="white" stroke="black" points="638,-104.5 638,-134.5 853,-134.5 853,-104.5 638,-104.5"/>
<text text-anchor="start" x="646" y="-122.5" font-family="Helvetica,sans-Serif" font-size="10.00">it.unitn.healthcore.domain.</text>
<text text-anchor="middle" x="745.5" y="-111.5" font-family="Helvetica,sans-Serif" font-size="10.00">PasswordConfirmationForm.getPassword</text>
</a>
</g>
</g>
<!-- Node2&#45;&gt;Node5 -->
<g id="edge4" class="edge">
<title>Node2&#45;&gt;Node5</title>
<path fill="none" stroke="midnightblue" d="M369.02,-119.5C440.47,-119.5 546.33,-119.5 627.45,-119.5"/>
<polygon fill="midnightblue" stroke="midnightblue" points="627.72,-123 637.72,-119.5 627.72,-116 627.72,-123"/>
</g>
<!-- Node6 -->
<g id="node6" class="node">
<title>Node6</title>
<g id="a_node6"><a xlink:href="classit_1_1unitn_1_1healthcore_1_1domain_1_1PasswordConfirmationForm.html#a181a1ca7ab3c4d07cb7f3817c1de6974" target="_top" xlink:title="Validates the password confirmation form by checking if the password and confirmation match,...">
<polygon fill="white" stroke="black" points="411,-50 411,-91 596,-91 596,-50 411,-50"/>
<text text-anchor="start" x="419" y="-79" font-family="Helvetica,sans-Serif" font-size="10.00">it.unitn.healthcore.domain.</text>
<text text-anchor="start" x="419" y="-68" font-family="Helvetica,sans-Serif" font-size="10.00">PasswordConfirmationForm.isValid</text>
<text text-anchor="middle" x="503.5" y="-57" font-family="Helvetica,sans-Serif" font-size="10.00">PasswordForm</text>
</a>
</g>
</g>
<!-- Node2&#45;&gt;Node6 -->
<g id="edge5" class="edge">
<title>Node2&#45;&gt;Node6</title>
<path fill="none" stroke="midnightblue" d="M354.85,-104.47C370.15,-100.95 386.78,-97.12 403.18,-93.35"/>
<polygon fill="midnightblue" stroke="midnightblue" points="404.39,-96.66 413.35,-91.01 402.82,-89.84 404.39,-96.66"/>
</g>
<!-- Node8 -->
<g id="node8" class="node">
<title>Node8</title>
<g id="a_node8"><a xlink:href="classit_1_1unitn_1_1healthcore_1_1domain_1_1User.html#aae0addd4b63049c29c751a6c03e17f2c" target="_top" xlink:title="Sets the password of the user.">
<polygon fill="white" stroke="black" points="429,-0.5 429,-30.5 578,-30.5 578,-0.5 429,-0.5"/>
<text text-anchor="start" x="437" y="-18.5" font-family="Helvetica,sans-Serif" font-size="10.00">it.unitn.healthcore.domain.</text>
<text text-anchor="middle" x="503.5" y="-7.5" font-family="Helvetica,sans-Serif" font-size="10.00">User.setPassword</text>
</a>
</g>
</g>
<!-- Node2&#45;&gt;Node8 -->
<g id="edge8" class="edge">
<title>Node2&#45;&gt;Node8</title>
<path fill="none" stroke="midnightblue" d="M307.49,-104.2C329.25,-86.45 367.6,-57.45 405,-40.5 410.4,-38.05 416.09,-35.81 421.89,-33.77"/>
<polygon fill="midnightblue" stroke="midnightblue" points="423.33,-36.98 431.72,-30.52 421.13,-30.34 423.33,-36.98"/>
</g>
<!-- Node6&#45;&gt;Node5 -->
<g id="edge6" class="edge">
<title>Node6&#45;&gt;Node5</title>
<path fill="none" stroke="midnightblue" d="M596.26,-89.23C617.41,-93.55 639.81,-98.13 660.6,-102.37"/>
<polygon fill="midnightblue" stroke="midnightblue" points="660.18,-105.86 670.67,-104.43 661.58,-99 660.18,-105.86"/>
</g>
<!-- Node7 -->
<g id="node7" class="node">
<title>Node7</title>
<g id="a_node7"><a xlink:href="classit_1_1unitn_1_1healthcore_1_1domain_1_1PasswordConfirmationForm.html#add77c52ff85c3a8caefe02af899fe10b" target="_top" xlink:title="Password confirmation getter.">
<polygon fill="white" stroke="black" points="638,-44 638,-85 853,-85 853,-44 638,-44"/>
<text text-anchor="start" x="646" y="-73" font-family="Helvetica,sans-Serif" font-size="10.00">it.unitn.healthcore.domain.</text>
<text text-anchor="start" x="646" y="-62" font-family="Helvetica,sans-Serif" font-size="10.00">PasswordConfirmationForm.getPassword</text>
<text text-anchor="middle" x="745.5" y="-51" font-family="Helvetica,sans-Serif" font-size="10.00">Confirmation</text>
</a>
</g>
</g>
<!-- Node6&#45;&gt;Node7 -->
<g id="edge7" class="edge">
<title>Node6&#45;&gt;Node7</title>
<path fill="none" stroke="midnightblue" d="M596.26,-68.21C606.59,-67.95 617.21,-67.68 627.81,-67.42"/>
<polygon fill="midnightblue" stroke="midnightblue" points="628.03,-70.91 637.94,-67.16 627.85,-63.92 628.03,-70.91"/>
</g>
</g>
</svg>
