<?xml version="1.0" encoding="UTF-8" standalone="no"?>
<!DOCTYPE svg PUBLIC "-//W3C//DTD SVG 1.1//EN"
 "http://www.w3.org/Graphics/SVG/1.1/DTD/svg11.dtd">
<!-- Generated by graphviz version 2.43.0 (0)
 -->
<!-- Title: it.unitn.healthcore.business.UserService.verifyOtp Pages: 1 -->
<svg width="379pt" height="88pt"
 viewBox="0.00 0.00 379.00 88.00" xmlns="http://www.w3.org/2000/svg" xmlns:xlink="http://www.w3.org/1999/xlink">
<g id="graph0" class="graph" transform="scale(1 1) rotate(0) translate(4 84)">
<title>it.unitn.healthcore.business.UserService.verifyOtp</title>
<polygon fill="white" stroke="transparent" points="-4,4 -4,-84 375,-84 375,4 -4,4"/>
<!-- Node1 -->
<g id="node1" class="node">
<title>Node1</title>
<g id="a_node1"><a xlink:title=" ">
<polygon fill="#bfbfbf" stroke="black" points="216,-24.5 216,-54.5 371,-54.5 371,-24.5 216,-24.5"/>
<text text-anchor="start" x="224" y="-42.5" font-family="Helvetica,sans-Serif" font-size="10.00">it.unitn.healthcore.business.</text>
<text text-anchor="middle" x="293.5" y="-31.5" font-family="Helvetica,sans-Serif" font-size="10.00">UserService.verifyOtp</text>
</a>
</g>
</g>
<!-- Node2 -->
<g id="node2" class="node">
<title>Node2</title>
<g id="a_node2"><a xlink:href="classit_1_1unitn_1_1healthcore_1_1controller_1_1UserController.html#a088a16bc769b401bec40c472fd6064f4" target="_top" xlink:title="verify the OTP code sent to the user&#39;s email.">
<polygon fill="white" stroke="black" points="11,-49.5 11,-79.5 169,-79.5 169,-49.5 11,-49.5"/>
<text text-anchor="start" x="19" y="-67.5" font-family="Helvetica,sans-Serif" font-size="10.00">it.unitn.healthcore.controller.</text>
<text text-anchor="middle" x="90" y="-56.5" font-family="Helvetica,sans-Serif" font-size="10.00">UserController.verifyOtp</text>
</a>
</g>
</g>
<!-- Node1&#45;&gt;Node2 -->
<g id="edge1" class="edge">
<title>Node1&#45;&gt;Node2</title>
<path fill="none" stroke="midnightblue" d="M205.65,-50.28C193.54,-51.78 181.15,-53.31 169.21,-54.8"/>
<polygon fill="midnightblue" stroke="midnightblue" points="206.25,-53.73 215.75,-49.02 205.39,-46.78 206.25,-53.73"/>
</g>
<!-- Node3 -->
<g id="node3" class="node">
<title>Node3</title>
<g id="a_node3"><a xlink:href="classit_1_1unitn_1_1healthcore_1_1controller_1_1UserController.html#a0e3c2fc11ceb432480c338e68e57d6c9" target="_top" xlink:title="handle the password recovery request by sending an OTP to the user&#39;s email and redirecting to the OTP...">
<polygon fill="white" stroke="black" points="0,-0.5 0,-30.5 180,-30.5 180,-0.5 0,-0.5"/>
<text text-anchor="start" x="8" y="-18.5" font-family="Helvetica,sans-Serif" font-size="10.00">it.unitn.healthcore.controller.</text>
<text text-anchor="middle" x="90" y="-7.5" font-family="Helvetica,sans-Serif" font-size="10.00">UserController.verifyRecoveryOtp</text>
</a>
</g>
</g>
<!-- Node1&#45;&gt;Node3 -->
<g id="edge2" class="edge">
<title>Node1&#45;&gt;Node3</title>
<path fill="none" stroke="midnightblue" d="M205.8,-29.17C197.26,-28.16 188.58,-27.12 180.02,-26.1"/>
<polygon fill="midnightblue" stroke="midnightblue" points="205.4,-32.65 215.75,-30.36 206.23,-25.7 205.4,-32.65"/>
</g>
</g>
</svg>
