<?xml version="1.0" encoding="UTF-8" standalone="no"?>
<!DOCTYPE svg PUBLIC "-//W3C//DTD SVG 1.1//EN"
 "http://www.w3.org/Graphics/SVG/1.1/DTD/svg11.dtd">
<!-- Generated by graphviz version 2.43.0 (0)
 -->
<!-- Title: it.unitn.healthcore.business.UserService.registerDoctor Pages: 1 -->
<svg width="435pt" height="235pt"
 viewBox="0.00 0.00 435.00 235.00" xmlns="http://www.w3.org/2000/svg" xmlns:xlink="http://www.w3.org/1999/xlink">
<g id="graph0" class="graph" transform="scale(1 1) rotate(0) translate(4 231)">
<title>it.unitn.healthcore.business.UserService.registerDoctor</title>
<polygon fill="white" stroke="transparent" points="-4,4 -4,-231 431,-231 431,4 -4,4"/>
<!-- Node1 -->
<g id="node1" class="node">
<title>Node1</title>
<g id="a_node1"><a xlink:title=" ">
<polygon fill="#bfbfbf" stroke="black" points="0,-98.5 0,-128.5 155,-128.5 155,-98.5 0,-98.5"/>
<text text-anchor="start" x="8" y="-116.5" font-family="Helvetica,sans-Serif" font-size="10.00">it.unitn.healthcore.business.</text>
<text text-anchor="middle" x="77.5" y="-105.5" font-family="Helvetica,sans-Serif" font-size="10.00">UserService.registerDoctor</text>
</a>
</g>
</g>
<!-- Node2 -->
<g id="node2" class="node">
<title>Node2</title>
<g id="a_node2"><a xlink:href="classit_1_1unitn_1_1healthcore_1_1domain_1_1EmployeeRegistrationForm.html#aacda9ff32f2f6c240f9f1ce7a746839a" target="_top" xlink:title=" ">
<polygon fill="white" stroke="black" points="191,-196.5 191,-226.5 427,-226.5 427,-196.5 191,-196.5"/>
<text text-anchor="start" x="199" y="-214.5" font-family="Helvetica,sans-Serif" font-size="10.00">it.unitn.healthcore.domain.</text>
<text text-anchor="middle" x="309" y="-203.5" font-family="Helvetica,sans-Serif" font-size="10.00">EmployeeRegistrationForm.getDepartmentId</text>
</a>
</g>
</g>
<!-- Node1&#45;&gt;Node2 -->
<g id="edge1" class="edge">
<title>Node1&#45;&gt;Node2</title>
<path fill="none" stroke="midnightblue" d="M96.76,-128.7C118.04,-145.64 154.92,-172.58 191,-187.5 196.34,-189.71 201.9,-191.72 207.58,-193.55"/>
<polygon fill="midnightblue" stroke="midnightblue" points="206.63,-196.92 217.22,-196.47 208.66,-190.22 206.63,-196.92"/>
</g>
<!-- Node3 -->
<g id="node3" class="node">
<title>Node3</title>
<g id="a_node3"><a xlink:href="classit_1_1unitn_1_1healthcore_1_1domain_1_1PasswordConfirmationForm.html#ad2a321af868704e56c42d5306a8acd91" target="_top" xlink:title=" ">
<polygon fill="white" stroke="black" points="210.5,-147.5 210.5,-177.5 407.5,-177.5 407.5,-147.5 210.5,-147.5"/>
<text text-anchor="start" x="218.5" y="-165.5" font-family="Helvetica,sans-Serif" font-size="10.00">it.unitn.healthcore.domain.</text>
<text text-anchor="middle" x="309" y="-154.5" font-family="Helvetica,sans-Serif" font-size="10.00">PasswordConfirmationForm.getEmail</text>
</a>
</g>
</g>
<!-- Node1&#45;&gt;Node3 -->
<g id="edge2" class="edge">
<title>Node1&#45;&gt;Node3</title>
<path fill="none" stroke="midnightblue" d="M145.38,-128.55C160.38,-131.87 176.23,-135.34 191,-138.5 201.56,-140.76 212.66,-143.09 223.65,-145.37"/>
<polygon fill="midnightblue" stroke="midnightblue" points="223.19,-148.85 233.69,-147.45 224.61,-141.99 223.19,-148.85"/>
</g>
<!-- Node4 -->
<g id="node4" class="node">
<title>Node4</title>
<g id="a_node4"><a xlink:href="classit_1_1unitn_1_1healthcore_1_1domain_1_1EmployeeRegistrationForm.html#ae00ab1333401d899f6e010a99e5afec8" target="_top" xlink:title=" ">
<polygon fill="white" stroke="black" points="210.5,-98.5 210.5,-128.5 407.5,-128.5 407.5,-98.5 210.5,-98.5"/>
<text text-anchor="start" x="218.5" y="-116.5" font-family="Helvetica,sans-Serif" font-size="10.00">it.unitn.healthcore.domain.</text>
<text text-anchor="middle" x="309" y="-105.5" font-family="Helvetica,sans-Serif" font-size="10.00">EmployeeRegistrationForm.getName</text>
</a>
</g>
</g>
<!-- Node1&#45;&gt;Node4 -->
<g id="edge3" class="edge">
<title>Node1&#45;&gt;Node4</title>
<path fill="none" stroke="midnightblue" d="M155.24,-113.5C169.53,-113.5 184.71,-113.5 199.74,-113.5"/>
<polygon fill="midnightblue" stroke="midnightblue" points="200.11,-117 210.11,-113.5 200.11,-110 200.11,-117"/>
</g>
<!-- Node5 -->
<g id="node5" class="node">
<title>Node5</title>
<g id="a_node5"><a xlink:href="classit_1_1unitn_1_1healthcore_1_1domain_1_1PasswordConfirmationForm.html#aa7de23a583db33eba13ddecad973ceca" target="_top" xlink:title=" ">
<polygon fill="white" stroke="black" points="201.5,-49.5 201.5,-79.5 416.5,-79.5 416.5,-49.5 201.5,-49.5"/>
<text text-anchor="start" x="209.5" y="-67.5" font-family="Helvetica,sans-Serif" font-size="10.00">it.unitn.healthcore.domain.</text>
<text text-anchor="middle" x="309" y="-56.5" font-family="Helvetica,sans-Serif" font-size="10.00">PasswordConfirmationForm.getPassword</text>
</a>
</g>
</g>
<!-- Node1&#45;&gt;Node5 -->
<g id="edge4" class="edge">
<title>Node1&#45;&gt;Node5</title>
<path fill="none" stroke="midnightblue" d="M148.92,-98.47C173.81,-93.15 201.99,-87.13 227.65,-81.66"/>
<polygon fill="midnightblue" stroke="midnightblue" points="228.67,-85.02 237.72,-79.51 227.21,-78.17 228.67,-85.02"/>
</g>
<!-- Node6 -->
<g id="node6" class="node">
<title>Node6</title>
<g id="a_node6"><a xlink:href="classit_1_1unitn_1_1healthcore_1_1domain_1_1EmployeeRegistrationForm.html#af1804bfdb0eb5dd711f6344f6c7e420c" target="_top" xlink:title=" ">
<polygon fill="white" stroke="black" points="203,-0.5 203,-30.5 415,-30.5 415,-0.5 203,-0.5"/>
<text text-anchor="start" x="211" y="-18.5" font-family="Helvetica,sans-Serif" font-size="10.00">it.unitn.healthcore.domain.</text>
<text text-anchor="middle" x="309" y="-7.5" font-family="Helvetica,sans-Serif" font-size="10.00">EmployeeRegistrationForm.getSurname</text>
</a>
</g>
</g>
<!-- Node1&#45;&gt;Node6 -->
<g id="edge5" class="edge">
<title>Node1&#45;&gt;Node6</title>
<path fill="none" stroke="midnightblue" d="M97.2,-98.27C118.59,-81.6 155.3,-55.3 191,-40.5 197.25,-37.91 203.81,-35.57 210.49,-33.46"/>
<polygon fill="midnightblue" stroke="midnightblue" points="211.75,-36.74 220.35,-30.54 209.77,-30.03 211.75,-36.74"/>
</g>
</g>
</svg>
