<?xml version="1.0" encoding="UTF-8" standalone="no"?>
<!DOCTYPE svg PUBLIC "-//W3C//DTD SVG 1.1//EN"
 "http://www.w3.org/Graphics/SVG/1.1/DTD/svg11.dtd">
<!-- Generated by graphviz version 2.43.0 (0)
 -->
<!-- Title: it.unitn.healthcore.domain.PasswordConfirmationForm.getPassword Pages: 1 -->
<svg width="843pt" height="230pt"
 viewBox="0.00 0.00 843.00 230.00" xmlns="http://www.w3.org/2000/svg" xmlns:xlink="http://www.w3.org/1999/xlink">
<g id="graph0" class="graph" transform="scale(1 1) rotate(0) translate(4 226)">
<title>it.unitn.healthcore.domain.PasswordConfirmationForm.getPassword</title>
<polygon fill="white" stroke="transparent" points="-4,4 -4,-226 839,-226 839,4 -4,4"/>
<!-- Node1 -->
<g id="node1" class="node">
<title>Node1</title>
<g id="a_node1"><a xlink:title="Password getter.">
<polygon fill="#bfbfbf" stroke="black" points="620,-98.5 620,-128.5 835,-128.5 835,-98.5 620,-98.5"/>
<text text-anchor="start" x="628" y="-116.5" font-family="Helvetica,sans-Serif" font-size="10.00">it.unitn.healthcore.domain.</text>
<text text-anchor="middle" x="727.5" y="-105.5" font-family="Helvetica,sans-Serif" font-size="10.00">PasswordConfirmationForm.getPassword</text>
</a>
</g>
</g>
<!-- Node2 -->
<g id="node2" class="node">
<title>Node2</title>
<g id="a_node2"><a xlink:href="classit_1_1unitn_1_1healthcore_1_1business_1_1UserService.html#acc1ae5218e790edcc69ad692c84871a2" target="_top" xlink:title=" ">
<polygon fill="white" stroke="black" points="412.5,-186.5 412.5,-216.5 573.5,-216.5 573.5,-186.5 412.5,-186.5"/>
<text text-anchor="start" x="420.5" y="-204.5" font-family="Helvetica,sans-Serif" font-size="10.00">it.unitn.healthcore.business.</text>
<text text-anchor="middle" x="493" y="-193.5" font-family="Helvetica,sans-Serif" font-size="10.00">UserService.recoverPassword</text>
</a>
</g>
</g>
<!-- Node1&#45;&gt;Node2 -->
<g id="edge1" class="edge">
<title>Node1&#45;&gt;Node2</title>
<path fill="none" stroke="midnightblue" d="M681.83,-132.55C653.89,-144.25 617.06,-159.28 584,-171.5 570.25,-176.58 555.18,-181.76 541.38,-186.35"/>
<polygon fill="midnightblue" stroke="midnightblue" points="683.46,-135.66 691.32,-128.56 680.74,-129.21 683.46,-135.66"/>
</g>
<!-- Node4 -->
<g id="node4" class="node">
<title>Node4</title>
<g id="a_node4"><a xlink:href="classit_1_1unitn_1_1healthcore_1_1business_1_1UserService.html#a114823fda5c213bb46bc935608bb8953" target="_top" xlink:title=" ">
<polygon fill="white" stroke="black" points="197.5,-142.5 197.5,-172.5 362.5,-172.5 362.5,-142.5 197.5,-142.5"/>
<text text-anchor="start" x="205.5" y="-160.5" font-family="Helvetica,sans-Serif" font-size="10.00">it.unitn.healthcore.business.</text>
<text text-anchor="middle" x="280" y="-149.5" font-family="Helvetica,sans-Serif" font-size="10.00">UserService.updateUserProfile</text>
</a>
</g>
</g>
<!-- Node1&#45;&gt;Node4 -->
<g id="edge12" class="edge">
<title>Node1&#45;&gt;Node4</title>
<path fill="none" stroke="midnightblue" d="M639.73,-130.3C621.39,-133.41 602.1,-136.35 584,-138.5 509.28,-147.37 423.68,-152.25 362.56,-154.84"/>
<polygon fill="midnightblue" stroke="midnightblue" points="640.56,-133.71 649.82,-128.56 639.37,-126.82 640.56,-133.71"/>
</g>
<!-- Node6 -->
<g id="node6" class="node">
<title>Node6</title>
<g id="a_node6"><a xlink:href="classit_1_1unitn_1_1healthcore_1_1business_1_1UserService.html#aebfef6bf9480fb24956dba8b10232d2f" target="_top" xlink:title=" ">
<polygon fill="white" stroke="black" points="402,-98.5 402,-128.5 584,-128.5 584,-98.5 402,-98.5"/>
<text text-anchor="start" x="410" y="-116.5" font-family="Helvetica,sans-Serif" font-size="10.00">it.unitn.healthcore.business.</text>
<text text-anchor="middle" x="493" y="-105.5" font-family="Helvetica,sans-Serif" font-size="10.00">UserService.registerAdministrator</text>
</a>
</g>
</g>
<!-- Node1&#45;&gt;Node6 -->
<g id="edge5" class="edge">
<title>Node1&#45;&gt;Node6</title>
<path fill="none" stroke="midnightblue" d="M609.68,-113.5C601.08,-113.5 592.48,-113.5 584.07,-113.5"/>
<polygon fill="midnightblue" stroke="midnightblue" points="609.78,-117 619.78,-113.5 609.78,-110 609.78,-117"/>
</g>
<!-- Node9 -->
<g id="node9" class="node">
<title>Node9</title>
<g id="a_node9"><a xlink:href="classit_1_1unitn_1_1healthcore_1_1business_1_1UserService.html#af71b0f13c31c938efe9fce54ab3d7f7d" target="_top" xlink:title=" ">
<polygon fill="white" stroke="black" points="415.5,-49.5 415.5,-79.5 570.5,-79.5 570.5,-49.5 415.5,-49.5"/>
<text text-anchor="start" x="423.5" y="-67.5" font-family="Helvetica,sans-Serif" font-size="10.00">it.unitn.healthcore.business.</text>
<text text-anchor="middle" x="493" y="-56.5" font-family="Helvetica,sans-Serif" font-size="10.00">UserService.registerDoctor</text>
</a>
</g>
</g>
<!-- Node1&#45;&gt;Node9 -->
<g id="edge8" class="edge">
<title>Node1&#45;&gt;Node9</title>
<path fill="none" stroke="midnightblue" d="M645.3,-96.39C619.21,-90.89 590.52,-84.84 565.2,-79.51"/>
<polygon fill="midnightblue" stroke="midnightblue" points="644.66,-99.83 655.16,-98.47 646.1,-92.98 644.66,-99.83"/>
</g>
<!-- Node10 -->
<g id="node10" class="node">
<title>Node10</title>
<g id="a_node10"><a xlink:href="classit_1_1unitn_1_1healthcore_1_1business_1_1UserService.html#a32dba226bff5fb3cd0caf79303b71d38" target="_top" xlink:title=" ">
<polygon fill="white" stroke="black" points="415.5,-0.5 415.5,-30.5 570.5,-30.5 570.5,-0.5 415.5,-0.5"/>
<text text-anchor="start" x="423.5" y="-18.5" font-family="Helvetica,sans-Serif" font-size="10.00">it.unitn.healthcore.business.</text>
<text text-anchor="middle" x="493" y="-7.5" font-family="Helvetica,sans-Serif" font-size="10.00">UserService.registerPatient</text>
</a>
</g>
</g>
<!-- Node1&#45;&gt;Node10 -->
<g id="edge10" class="edge">
<title>Node1&#45;&gt;Node10</title>
<path fill="none" stroke="midnightblue" d="M692.86,-93.35C664.58,-77.08 622.7,-54.5 584,-39.5 575.56,-36.23 566.5,-33.24 557.5,-30.56"/>
<polygon fill="midnightblue" stroke="midnightblue" points="691.14,-96.4 701.54,-98.4 694.65,-90.35 691.14,-96.4"/>
</g>
<!-- Node3 -->
<g id="node3" class="node">
<title>Node3</title>
<g id="a_node3"><a xlink:href="classit_1_1unitn_1_1healthcore_1_1controller_1_1UserController.html#a2405e7122fa835c28ee045e1339e0f7c" target="_top" xlink:title="handle the password recovery request by sending an OTP to the user&#39;s email and redirecting to the OTP...">
<polygon fill="white" stroke="black" points="194,-191.5 194,-221.5 366,-221.5 366,-191.5 194,-191.5"/>
<text text-anchor="start" x="202" y="-209.5" font-family="Helvetica,sans-Serif" font-size="10.00">it.unitn.healthcore.controller.</text>
<text text-anchor="middle" x="280" y="-198.5" font-family="Helvetica,sans-Serif" font-size="10.00">UserController.recoverPassword</text>
</a>
</g>
</g>
<!-- Node2&#45;&gt;Node3 -->
<g id="edge2" class="edge">
<title>Node2&#45;&gt;Node3</title>
<path fill="none" stroke="midnightblue" d="M401.9,-203.64C390.05,-203.92 377.93,-204.2 366.16,-204.48"/>
<polygon fill="midnightblue" stroke="midnightblue" points="402.32,-207.13 412.23,-203.39 402.15,-200.13 402.32,-207.13"/>
</g>
<!-- Node2&#45;&gt;Node4 -->
<g id="edge3" class="edge">
<title>Node2&#45;&gt;Node4</title>
<path fill="none" stroke="midnightblue" d="M409.97,-184.39C391.19,-180.48 371.38,-176.35 353.06,-172.53"/>
<polygon fill="midnightblue" stroke="midnightblue" points="409.47,-187.87 419.98,-186.48 410.9,-181.01 409.47,-187.87"/>
</g>
<!-- Node5 -->
<g id="node5" class="node">
<title>Node5</title>
<g id="a_node5"><a xlink:href="classit_1_1unitn_1_1healthcore_1_1controller_1_1UserController.html#a546d5ed79a6b2f6f15000d9ddb3b03ab" target="_top" xlink:title=" ">
<polygon fill="white" stroke="black" points="0,-142.5 0,-172.5 158,-172.5 158,-142.5 0,-142.5"/>
<text text-anchor="start" x="8" y="-160.5" font-family="Helvetica,sans-Serif" font-size="10.00">it.unitn.healthcore.controller.</text>
<text text-anchor="middle" x="79" y="-149.5" font-family="Helvetica,sans-Serif" font-size="10.00">UserController.updateProfile</text>
</a>
</g>
</g>
<!-- Node4&#45;&gt;Node5 -->
<g id="edge4" class="edge">
<title>Node4&#45;&gt;Node5</title>
<path fill="none" stroke="midnightblue" d="M187.37,-157.5C177.62,-157.5 167.76,-157.5 158.18,-157.5"/>
<polygon fill="midnightblue" stroke="midnightblue" points="187.48,-161 197.48,-157.5 187.48,-154 187.48,-161"/>
</g>
<!-- Node7 -->
<g id="node7" class="node">
<title>Node7</title>
<g id="a_node7"><a xlink:href="classit_1_1unitn_1_1healthcore_1_1business_1_1UserService.html#a8bb76a3af453837d334e1f5a9551ff56" target="_top" xlink:title=" ">
<polygon fill="white" stroke="black" points="198,-71.5 198,-101.5 362,-101.5 362,-71.5 198,-71.5"/>
<text text-anchor="start" x="206" y="-89.5" font-family="Helvetica,sans-Serif" font-size="10.00">it.unitn.healthcore.business.</text>
<text text-anchor="middle" x="280" y="-78.5" font-family="Helvetica,sans-Serif" font-size="10.00">UserService.registerEmployee</text>
</a>
</g>
</g>
<!-- Node6&#45;&gt;Node7 -->
<g id="edge6" class="edge">
<title>Node6&#45;&gt;Node7</title>
<path fill="none" stroke="midnightblue" d="M391.94,-100.7C381.95,-99.42 371.89,-98.13 362.12,-96.88"/>
<polygon fill="midnightblue" stroke="midnightblue" points="391.54,-104.17 401.9,-101.97 392.43,-97.23 391.54,-104.17"/>
</g>
<!-- Node8 -->
<g id="node8" class="node">
<title>Node8</title>
<g id="a_node8"><a xlink:href="classit_1_1unitn_1_1healthcore_1_1controller_1_1UserController.html#ac9a8c37503c4a708c85863870ee27da7" target="_top" xlink:title=" ">
<polygon fill="white" stroke="black" points="0,-71.5 0,-101.5 158,-101.5 158,-71.5 0,-71.5"/>
<text text-anchor="start" x="8" y="-89.5" font-family="Helvetica,sans-Serif" font-size="10.00">it.unitn.healthcore.controller.</text>
<text text-anchor="middle" x="79" y="-78.5" font-family="Helvetica,sans-Serif" font-size="10.00">UserController.addEmployee</text>
</a>
</g>
</g>
<!-- Node7&#45;&gt;Node8 -->
<g id="edge7" class="edge">
<title>Node7&#45;&gt;Node8</title>
<path fill="none" stroke="midnightblue" d="M187.56,-86.5C177.71,-86.5 167.75,-86.5 158.08,-86.5"/>
<polygon fill="midnightblue" stroke="midnightblue" points="187.77,-90 197.77,-86.5 187.77,-83 187.77,-90"/>
</g>
<!-- Node9&#45;&gt;Node7 -->
<g id="edge9" class="edge">
<title>Node9&#45;&gt;Node7</title>
<path fill="none" stroke="midnightblue" d="M405.04,-73.57C390.91,-75.04 376.32,-76.56 362.34,-78.02"/>
<polygon fill="midnightblue" stroke="midnightblue" points="405.64,-77.02 415.23,-72.5 404.92,-70.06 405.64,-77.02"/>
</g>
<!-- Node11 -->
<g id="node11" class="node">
<title>Node11</title>
<g id="a_node11"><a xlink:href="classit_1_1unitn_1_1healthcore_1_1controller_1_1UserController.html#a2afa05c30a08ef688e1e3b89ca1f8774" target="_top" xlink:title=" ">
<polygon fill="white" stroke="black" points="201,-0.5 201,-30.5 359,-30.5 359,-0.5 201,-0.5"/>
<text text-anchor="start" x="209" y="-18.5" font-family="Helvetica,sans-Serif" font-size="10.00">it.unitn.healthcore.controller.</text>
<text text-anchor="middle" x="280" y="-7.5" font-family="Helvetica,sans-Serif" font-size="10.00">UserController.addPatient</text>
</a>
</g>
</g>
<!-- Node10&#45;&gt;Node11 -->
<g id="edge11" class="edge">
<title>Node10&#45;&gt;Node11</title>
<path fill="none" stroke="midnightblue" d="M404.84,-15.5C389.69,-15.5 374.02,-15.5 359.13,-15.5"/>
<polygon fill="midnightblue" stroke="midnightblue" points="405.23,-19 415.23,-15.5 405.23,-12 405.23,-19"/>
</g>
</g>
</svg>
