<?xml version="1.0" encoding="UTF-8" standalone="no"?>
<!DOCTYPE svg PUBLIC "-//W3C//DTD SVG 1.1//EN"
 "http://www.w3.org/Graphics/SVG/1.1/DTD/svg11.dtd">
<!-- Generated by graphviz version 2.43.0 (0)
 -->
<!-- Title: it.unitn.healthcore.domain.Doctor.getShifts Pages: 1 -->
<svg width="632pt" height="235pt"
 viewBox="0.00 0.00 632.00 235.00" xmlns="http://www.w3.org/2000/svg" xmlns:xlink="http://www.w3.org/1999/xlink">
<g id="graph0" class="graph" transform="scale(1 1) rotate(0) translate(4 231)">
<title>it.unitn.healthcore.domain.Doctor.getShifts</title>
<polygon fill="white" stroke="transparent" points="-4,4 -4,-231 628,-231 628,4 -4,4"/>
<!-- Node1 -->
<g id="node1" class="node">
<title>Node1</title>
<g id="a_node1"><a xlink:title="Shift getter.">
<polygon fill="#bfbfbf" stroke="black" points="475,-98.5 475,-128.5 624,-128.5 624,-98.5 475,-98.5"/>
<text text-anchor="start" x="483" y="-116.5" font-family="Helvetica,sans-Serif" font-size="10.00">it.unitn.healthcore.domain.</text>
<text text-anchor="middle" x="549.5" y="-105.5" font-family="Helvetica,sans-Serif" font-size="10.00">Doctor.getShifts</text>
</a>
</g>
</g>
<!-- Node2 -->
<g id="node2" class="node">
<title>Node2</title>
<g id="a_node2"><a xlink:href="classit_1_1unitn_1_1healthcore_1_1business_1_1DoctorService.html#a8403efefc9eb75820f493a34d727ba00" target="_top" xlink:title=" ">
<polygon fill="white" stroke="black" points="262,-196.5 262,-226.5 417,-226.5 417,-196.5 262,-196.5"/>
<text text-anchor="start" x="270" y="-214.5" font-family="Helvetica,sans-Serif" font-size="10.00">it.unitn.healthcore.business.</text>
<text text-anchor="middle" x="339.5" y="-203.5" font-family="Helvetica,sans-Serif" font-size="10.00">DoctorService.addShift</text>
</a>
</g>
</g>
<!-- Node1&#45;&gt;Node2 -->
<g id="edge1" class="edge">
<title>Node1&#45;&gt;Node2</title>
<path fill="none" stroke="midnightblue" d="M522.43,-135.05C501.18,-151.61 469.75,-173.89 439,-187.5 431.27,-190.92 422.98,-193.9 414.61,-196.49"/>
<polygon fill="midnightblue" stroke="midnightblue" points="524.66,-137.75 530.33,-128.79 520.32,-132.26 524.66,-137.75"/>
</g>
<!-- Node4 -->
<g id="node4" class="node">
<title>Node4</title>
<g id="a_node4"><a xlink:href="classit_1_1unitn_1_1healthcore_1_1business_1_1PatientService.html#ac33e02f57cc7f1ef55dd59cb5673781a" target="_top" xlink:title=" ">
<polygon fill="white" stroke="black" points="251.5,-147.5 251.5,-177.5 427.5,-177.5 427.5,-147.5 251.5,-147.5"/>
<text text-anchor="start" x="259.5" y="-165.5" font-family="Helvetica,sans-Serif" font-size="10.00">it.unitn.healthcore.business.</text>
<text text-anchor="middle" x="339.5" y="-154.5" font-family="Helvetica,sans-Serif" font-size="10.00">PatientService.bookAppointment</text>
</a>
</g>
</g>
<!-- Node1&#45;&gt;Node4 -->
<g id="edge3" class="edge">
<title>Node1&#45;&gt;Node4</title>
<path fill="none" stroke="midnightblue" d="M474.93,-130.83C451.84,-136.27 426.55,-142.23 404.2,-147.49"/>
<polygon fill="midnightblue" stroke="midnightblue" points="475.75,-134.23 484.68,-128.53 474.14,-127.42 475.75,-134.23"/>
</g>
<!-- Node6 -->
<g id="node6" class="node">
<title>Node6</title>
<g id="a_node6"><a xlink:href="classit_1_1unitn_1_1healthcore_1_1business_1_1DoctorService.html#a96292ffc9ef487c31145d1cd00f22b4e" target="_top" xlink:title=" ">
<polygon fill="white" stroke="black" points="240,-98.5 240,-128.5 439,-128.5 439,-98.5 240,-98.5"/>
<text text-anchor="start" x="248" y="-116.5" font-family="Helvetica,sans-Serif" font-size="10.00">it.unitn.healthcore.business.</text>
<text text-anchor="middle" x="339.5" y="-105.5" font-family="Helvetica,sans-Serif" font-size="10.00">DoctorService.getCurrentDoctorShifts</text>
</a>
</g>
</g>
<!-- Node1&#45;&gt;Node6 -->
<g id="edge5" class="edge">
<title>Node1&#45;&gt;Node6</title>
<path fill="none" stroke="midnightblue" d="M464.72,-113.5C456.31,-113.5 447.71,-113.5 439.16,-113.5"/>
<polygon fill="midnightblue" stroke="midnightblue" points="464.87,-117 474.87,-113.5 464.87,-110 464.87,-117"/>
</g>
<!-- Node8 -->
<g id="node8" class="node">
<title>Node8</title>
<g id="a_node8"><a xlink:href="classit_1_1unitn_1_1healthcore_1_1business_1_1PatientService.html#ab163cba2913666d9f4505d4b6e7e1a69" target="_top" xlink:title=" ">
<polygon fill="white" stroke="black" points="243,-49.5 243,-79.5 436,-79.5 436,-49.5 243,-49.5"/>
<text text-anchor="start" x="251" y="-67.5" font-family="Helvetica,sans-Serif" font-size="10.00">it.unitn.healthcore.business.</text>
<text text-anchor="middle" x="339.5" y="-56.5" font-family="Helvetica,sans-Serif" font-size="10.00">PatientService.getDoctorDescription</text>
</a>
</g>
</g>
<!-- Node1&#45;&gt;Node8 -->
<g id="edge7" class="edge">
<title>Node1&#45;&gt;Node8</title>
<path fill="none" stroke="midnightblue" d="M474.93,-96.17C451.84,-90.73 426.55,-84.77 404.2,-79.51"/>
<polygon fill="midnightblue" stroke="midnightblue" points="474.14,-99.58 484.68,-98.47 475.75,-92.77 474.14,-99.58"/>
</g>
<!-- Node10 -->
<g id="node10" class="node">
<title>Node10</title>
<g id="a_node10"><a xlink:href="classit_1_1unitn_1_1healthcore_1_1business_1_1DoctorService.html#a0144281b10cf3bd09275e4f2898c3aea" target="_top" xlink:title=" ">
<polygon fill="white" stroke="black" points="262,-0.5 262,-30.5 417,-30.5 417,-0.5 262,-0.5"/>
<text text-anchor="start" x="270" y="-18.5" font-family="Helvetica,sans-Serif" font-size="10.00">it.unitn.healthcore.business.</text>
<text text-anchor="middle" x="339.5" y="-7.5" font-family="Helvetica,sans-Serif" font-size="10.00">DoctorService.modifyShift</text>
</a>
</g>
</g>
<!-- Node1&#45;&gt;Node10 -->
<g id="edge9" class="edge">
<title>Node1&#45;&gt;Node10</title>
<path fill="none" stroke="midnightblue" d="M522.35,-92.34C501.05,-76.05 469.6,-54.1 439,-40.5 430.46,-36.7 421.23,-33.4 411.96,-30.56"/>
<polygon fill="midnightblue" stroke="midnightblue" points="520.22,-95.12 530.27,-98.49 524.52,-89.59 520.22,-95.12"/>
</g>
<!-- Node3 -->
<g id="node3" class="node">
<title>Node3</title>
<g id="a_node3"><a xlink:href="classit_1_1unitn_1_1healthcore_1_1controller_1_1DoctorController.html#a0a872c9d094787a6992ab720f4b226df" target="_top" xlink:title="Adds a new shift for a doctor.">
<polygon fill="white" stroke="black" points="20,-196.5 20,-226.5 184,-226.5 184,-196.5 20,-196.5"/>
<text text-anchor="start" x="28" y="-214.5" font-family="Helvetica,sans-Serif" font-size="10.00">it.unitn.healthcore.controller.</text>
<text text-anchor="middle" x="102" y="-203.5" font-family="Helvetica,sans-Serif" font-size="10.00">DoctorController.addShiftTime</text>
</a>
</g>
</g>
<!-- Node2&#45;&gt;Node3 -->
<g id="edge2" class="edge">
<title>Node2&#45;&gt;Node3</title>
<path fill="none" stroke="midnightblue" d="M251.69,-211.5C229.59,-211.5 205.94,-211.5 184.14,-211.5"/>
<polygon fill="midnightblue" stroke="midnightblue" points="251.71,-215 261.71,-211.5 251.71,-208 251.71,-215"/>
</g>
<!-- Node5 -->
<g id="node5" class="node">
<title>Node5</title>
<g id="a_node5"><a xlink:href="classit_1_1unitn_1_1healthcore_1_1controller_1_1PatientController.html#a6c1b2c866308e0723c5b9157149ab47b" target="_top" xlink:title=" ">
<polygon fill="white" stroke="black" points="8,-147.5 8,-177.5 196,-177.5 196,-147.5 8,-147.5"/>
<text text-anchor="start" x="16" y="-165.5" font-family="Helvetica,sans-Serif" font-size="10.00">it.unitn.healthcore.controller.</text>
<text text-anchor="middle" x="102" y="-154.5" font-family="Helvetica,sans-Serif" font-size="10.00">PatientController.bookAppointment</text>
</a>
</g>
</g>
<!-- Node4&#45;&gt;Node5 -->
<g id="edge4" class="edge">
<title>Node4&#45;&gt;Node5</title>
<path fill="none" stroke="midnightblue" d="M241.28,-162.5C226.44,-162.5 211.15,-162.5 196.39,-162.5"/>
<polygon fill="midnightblue" stroke="midnightblue" points="241.48,-166 251.48,-162.5 241.48,-159 241.48,-166"/>
</g>
<!-- Node7 -->
<g id="node7" class="node">
<title>Node7</title>
<g id="a_node7"><a xlink:href="classit_1_1unitn_1_1healthcore_1_1controller_1_1DoctorController.html#a5a876b4fd08f941dc77ffca9e29608a3" target="_top" xlink:title="Retrieves the details of a specific appointment by its ID.">
<polygon fill="white" stroke="black" points="20,-98.5 20,-128.5 184,-128.5 184,-98.5 20,-98.5"/>
<text text-anchor="start" x="28" y="-116.5" font-family="Helvetica,sans-Serif" font-size="10.00">it.unitn.healthcore.controller.</text>
<text text-anchor="middle" x="102" y="-105.5" font-family="Helvetica,sans-Serif" font-size="10.00">DoctorController.viewMyShifts</text>
</a>
</g>
</g>
<!-- Node6&#45;&gt;Node7 -->
<g id="edge6" class="edge">
<title>Node6&#45;&gt;Node7</title>
<path fill="none" stroke="midnightblue" d="M229.95,-113.5C214.61,-113.5 199.06,-113.5 184.35,-113.5"/>
<polygon fill="midnightblue" stroke="midnightblue" points="229.99,-117 239.99,-113.5 229.99,-110 229.99,-117"/>
</g>
<!-- Node9 -->
<g id="node9" class="node">
<title>Node9</title>
<g id="a_node9"><a xlink:href="classit_1_1unitn_1_1healthcore_1_1controller_1_1PatientController.html#aaf7a71336886e01fdc45116e44bf67db" target="_top" xlink:title=" ">
<polygon fill="white" stroke="black" points="0,-49.5 0,-79.5 204,-79.5 204,-49.5 0,-49.5"/>
<text text-anchor="start" x="8" y="-67.5" font-family="Helvetica,sans-Serif" font-size="10.00">it.unitn.healthcore.controller.</text>
<text text-anchor="middle" x="102" y="-56.5" font-family="Helvetica,sans-Serif" font-size="10.00">PatientController.getDoctorDescription</text>
</a>
</g>
</g>
<!-- Node8&#45;&gt;Node9 -->
<g id="edge8" class="edge">
<title>Node8&#45;&gt;Node9</title>
<path fill="none" stroke="midnightblue" d="M232.5,-64.5C223.04,-64.5 213.48,-64.5 204.07,-64.5"/>
<polygon fill="midnightblue" stroke="midnightblue" points="232.71,-68 242.71,-64.5 232.71,-61 232.71,-68"/>
</g>
<!-- Node11 -->
<g id="node11" class="node">
<title>Node11</title>
<g id="a_node11"><a xlink:href="classit_1_1unitn_1_1healthcore_1_1controller_1_1DoctorController.html#aa8d0870dac3e5c366755771a799956bb" target="_top" xlink:title="Modifies an existing shift for a doctor.">
<polygon fill="white" stroke="black" points="23,-0.5 23,-30.5 181,-30.5 181,-0.5 23,-0.5"/>
<text text-anchor="start" x="31" y="-18.5" font-family="Helvetica,sans-Serif" font-size="10.00">it.unitn.healthcore.controller.</text>
<text text-anchor="middle" x="102" y="-7.5" font-family="Helvetica,sans-Serif" font-size="10.00">DoctorController.modifyShift</text>
</a>
</g>
</g>
<!-- Node10&#45;&gt;Node11 -->
<g id="edge10" class="edge">
<title>Node10&#45;&gt;Node11</title>
<path fill="none" stroke="midnightblue" d="M251.61,-15.5C228.58,-15.5 203.84,-15.5 181.3,-15.5"/>
<polygon fill="midnightblue" stroke="midnightblue" points="251.71,-19 261.71,-15.5 251.71,-12 251.71,-19"/>
</g>
</g>
</svg>
