<?xml version="1.0" encoding="UTF-8" standalone="no"?>
<!DOCTYPE svg PUBLIC "-//W3C//DTD SVG 1.1//EN"
 "http://www.w3.org/Graphics/SVG/1.1/DTD/svg11.dtd">
<!-- Generated by graphviz version 2.43.0 (0)
 -->
<!-- Title: it.unitn.healthcore.controller.PatientController.getDoctorDescription Pages: 1 -->
<svg width="631pt" height="480pt"
 viewBox="0.00 0.00 631.00 480.00" xmlns="http://www.w3.org/2000/svg" xmlns:xlink="http://www.w3.org/1999/xlink">
<g id="graph0" class="graph" transform="scale(1 1) rotate(0) translate(4 476)">
<title>it.unitn.healthcore.controller.PatientController.getDoctorDescription</title>
<polygon fill="white" stroke="transparent" points="-4,4 -4,-476 627,-476 627,4 -4,4"/>
<!-- Node1 -->
<g id="node1" class="node">
<title>Node1</title>
<g id="a_node1"><a xlink:title=" ">
<polygon fill="#bfbfbf" stroke="black" points="0,-220.5 0,-250.5 204,-250.5 204,-220.5 0,-220.5"/>
<text text-anchor="start" x="8" y="-238.5" font-family="Helvetica,sans-Serif" font-size="10.00">it.unitn.healthcore.controller.</text>
<text text-anchor="middle" x="102" y="-227.5" font-family="Helvetica,sans-Serif" font-size="10.00">PatientController.getDoctorDescription</text>
</a>
</g>
</g>
<!-- Node2 -->
<g id="node2" class="node">
<title>Node2</title>
<g id="a_node2"><a xlink:href="classit_1_1unitn_1_1healthcore_1_1business_1_1PatientService.html#ab163cba2913666d9f4505d4b6e7e1a69" target="_top" xlink:title=" ">
<polygon fill="white" stroke="black" points="240,-220.5 240,-250.5 433,-250.5 433,-220.5 240,-220.5"/>
<text text-anchor="start" x="248" y="-238.5" font-family="Helvetica,sans-Serif" font-size="10.00">it.unitn.healthcore.business.</text>
<text text-anchor="middle" x="336.5" y="-227.5" font-family="Helvetica,sans-Serif" font-size="10.00">PatientService.getDoctorDescription</text>
</a>
</g>
</g>
<!-- Node1&#45;&gt;Node2 -->
<g id="edge1" class="edge">
<title>Node1&#45;&gt;Node2</title>
<path fill="none" stroke="midnightblue" d="M204.3,-235.5C212.65,-235.5 221.11,-235.5 229.49,-235.5"/>
<polygon fill="midnightblue" stroke="midnightblue" points="229.68,-239 239.67,-235.5 229.67,-232 229.68,-239"/>
</g>
<!-- Node3 -->
<g id="node3" class="node">
<title>Node3</title>
<g id="a_node3"><a xlink:href="classit_1_1unitn_1_1healthcore_1_1domain_1_1Doctor.html#ab3cac7f0c22b3f39c4a5743a8422e1a3" target="_top" xlink:title="Appointment price getter.">
<polygon fill="white" stroke="black" points="469,-441.5 469,-471.5 623,-471.5 623,-441.5 469,-441.5"/>
<text text-anchor="start" x="477" y="-459.5" font-family="Helvetica,sans-Serif" font-size="10.00">it.unitn.healthcore.domain.</text>
<text text-anchor="middle" x="546" y="-448.5" font-family="Helvetica,sans-Serif" font-size="10.00">Doctor.getAppointmentPrice</text>
</a>
</g>
</g>
<!-- Node2&#45;&gt;Node3 -->
<g id="edge2" class="edge">
<title>Node2&#45;&gt;Node3</title>
<path fill="none" stroke="midnightblue" d="M343.38,-250.62C358.46,-287.41 402.08,-382.25 469,-432.5 470.84,-433.88 472.77,-435.19 474.76,-436.42"/>
<polygon fill="midnightblue" stroke="midnightblue" points="473.37,-439.65 483.82,-441.36 476.71,-433.5 473.37,-439.65"/>
</g>
<!-- Node4 -->
<g id="node4" class="node">
<title>Node4</title>
<g id="a_node4"><a xlink:href="classit_1_1unitn_1_1healthcore_1_1domain_1_1Doctor.html#ac03da7697c11c376768602fad6a43886" target="_top" xlink:title="Department getter.">
<polygon fill="white" stroke="black" points="471.5,-392.5 471.5,-422.5 620.5,-422.5 620.5,-392.5 471.5,-392.5"/>
<text text-anchor="start" x="479.5" y="-410.5" font-family="Helvetica,sans-Serif" font-size="10.00">it.unitn.healthcore.domain.</text>
<text text-anchor="middle" x="546" y="-399.5" font-family="Helvetica,sans-Serif" font-size="10.00">Doctor.getDepartment</text>
</a>
</g>
</g>
<!-- Node2&#45;&gt;Node4 -->
<g id="edge3" class="edge">
<title>Node2&#45;&gt;Node4</title>
<path fill="none" stroke="midnightblue" d="M347.06,-250.96C366.38,-280.94 413.05,-347.23 469,-383.5 471.45,-385.09 474.01,-386.58 476.65,-387.97"/>
<polygon fill="midnightblue" stroke="midnightblue" points="475.33,-391.22 485.87,-392.37 478.35,-384.9 475.33,-391.22"/>
</g>
<!-- Node5 -->
<g id="node5" class="node">
<title>Node5</title>
<g id="a_node5"><a xlink:href="classit_1_1unitn_1_1healthcore_1_1domain_1_1User.html#a5b48be6dca19b7d4d43ec2e6a3b91502" target="_top" xlink:title="Returns the email address of the user.">
<polygon fill="white" stroke="black" points="471.5,-343.5 471.5,-373.5 620.5,-373.5 620.5,-343.5 471.5,-343.5"/>
<text text-anchor="start" x="479.5" y="-361.5" font-family="Helvetica,sans-Serif" font-size="10.00">it.unitn.healthcore.domain.</text>
<text text-anchor="middle" x="546" y="-350.5" font-family="Helvetica,sans-Serif" font-size="10.00">User.getEmail</text>
</a>
</g>
</g>
<!-- Node2&#45;&gt;Node5 -->
<g id="edge4" class="edge">
<title>Node2&#45;&gt;Node5</title>
<path fill="none" stroke="midnightblue" d="M353.69,-250.62C377.35,-272.01 423.53,-311.08 469,-334.5 472.57,-336.34 476.3,-338.06 480.11,-339.69"/>
<polygon fill="midnightblue" stroke="midnightblue" points="479.14,-343.06 489.72,-343.49 481.72,-336.56 479.14,-343.06"/>
</g>
<!-- Node6 -->
<g id="node6" class="node">
<title>Node6</title>
<g id="a_node6"><a xlink:href="classit_1_1unitn_1_1healthcore_1_1domain_1_1Department.html#ae10adf6ab4ccadfca9bdbce8d1940c84" target="_top" xlink:title="Returns the hospital associated with the department.">
<polygon fill="white" stroke="black" points="471.5,-294.5 471.5,-324.5 620.5,-324.5 620.5,-294.5 471.5,-294.5"/>
<text text-anchor="start" x="479.5" y="-312.5" font-family="Helvetica,sans-Serif" font-size="10.00">it.unitn.healthcore.domain.</text>
<text text-anchor="middle" x="546" y="-301.5" font-family="Helvetica,sans-Serif" font-size="10.00">Department.getHospital</text>
</a>
</g>
</g>
<!-- Node2&#45;&gt;Node6 -->
<g id="edge5" class="edge">
<title>Node2&#45;&gt;Node6</title>
<path fill="none" stroke="midnightblue" d="M375.27,-250.52C401.44,-260.77 437.16,-274.43 469,-285.5 474.53,-287.42 480.3,-289.36 486.09,-291.26"/>
<polygon fill="midnightblue" stroke="midnightblue" points="485.21,-294.66 495.8,-294.42 487.37,-288 485.21,-294.66"/>
</g>
<!-- Node7 -->
<g id="node7" class="node">
<title>Node7</title>
<g id="a_node7"><a xlink:href="classit_1_1unitn_1_1healthcore_1_1domain_1_1Department.html#ad3dbd24db0898580a3a7ead8960abad7" target="_top" xlink:title="Returns the list of equipments associated with the department.">
<polygon fill="white" stroke="black" points="471.5,-245.5 471.5,-275.5 620.5,-275.5 620.5,-245.5 471.5,-245.5"/>
<text text-anchor="start" x="479.5" y="-263.5" font-family="Helvetica,sans-Serif" font-size="10.00">it.unitn.healthcore.domain.</text>
<text text-anchor="middle" x="546" y="-252.5" font-family="Helvetica,sans-Serif" font-size="10.00">Department.getName</text>
</a>
</g>
</g>
<!-- Node2&#45;&gt;Node7 -->
<g id="edge6" class="edge">
<title>Node2&#45;&gt;Node7</title>
<path fill="none" stroke="midnightblue" d="M433.05,-247.01C442.5,-248.15 452.05,-249.3 461.36,-250.42"/>
<polygon fill="midnightblue" stroke="midnightblue" points="461.02,-253.91 471.37,-251.63 461.86,-246.96 461.02,-253.91"/>
</g>
<!-- Node8 -->
<g id="node8" class="node">
<title>Node8</title>
<g id="a_node8"><a xlink:href="classit_1_1unitn_1_1healthcore_1_1domain_1_1Hospital.html#ac8fd4fe7bb42c1db18f0ef42446cf95b" target="_top" xlink:title="Returns the hospital name.">
<polygon fill="white" stroke="black" points="471.5,-196.5 471.5,-226.5 620.5,-226.5 620.5,-196.5 471.5,-196.5"/>
<text text-anchor="start" x="479.5" y="-214.5" font-family="Helvetica,sans-Serif" font-size="10.00">it.unitn.healthcore.domain.</text>
<text text-anchor="middle" x="546" y="-203.5" font-family="Helvetica,sans-Serif" font-size="10.00">Hospital.getName</text>
</a>
</g>
</g>
<!-- Node2&#45;&gt;Node8 -->
<g id="edge7" class="edge">
<title>Node2&#45;&gt;Node8</title>
<path fill="none" stroke="midnightblue" d="M433.05,-224.45C442.5,-223.36 452.05,-222.25 461.36,-221.17"/>
<polygon fill="midnightblue" stroke="midnightblue" points="461.84,-224.64 471.37,-220.02 461.03,-217.69 461.84,-224.64"/>
</g>
<!-- Node9 -->
<g id="node9" class="node">
<title>Node9</title>
<g id="a_node9"><a xlink:href="classit_1_1unitn_1_1healthcore_1_1domain_1_1User.html#a0c78137c0cf7b414cc88dcc41895d5a7" target="_top" xlink:title="Returns the first name of the user.">
<polygon fill="white" stroke="black" points="471.5,-147.5 471.5,-177.5 620.5,-177.5 620.5,-147.5 471.5,-147.5"/>
<text text-anchor="start" x="479.5" y="-165.5" font-family="Helvetica,sans-Serif" font-size="10.00">it.unitn.healthcore.domain.</text>
<text text-anchor="middle" x="546" y="-154.5" font-family="Helvetica,sans-Serif" font-size="10.00">User.getName</text>
</a>
</g>
</g>
<!-- Node2&#45;&gt;Node9 -->
<g id="edge8" class="edge">
<title>Node2&#45;&gt;Node9</title>
<path fill="none" stroke="midnightblue" d="M377.67,-220.46C403.65,-210.82 438.23,-198.17 469,-187.5 475.35,-185.3 482.01,-183.04 488.64,-180.81"/>
<polygon fill="midnightblue" stroke="midnightblue" points="489.91,-184.08 498.3,-177.6 487.7,-177.44 489.91,-184.08"/>
</g>
<!-- Node10 -->
<g id="node10" class="node">
<title>Node10</title>
<g id="a_node10"><a xlink:href="classit_1_1unitn_1_1healthcore_1_1domain_1_1Doctor.html#a1f74266b5c9953f4c861a1b2e66405a8" target="_top" xlink:title="Shift getter.">
<polygon fill="white" stroke="black" points="471.5,-98.5 471.5,-128.5 620.5,-128.5 620.5,-98.5 471.5,-98.5"/>
<text text-anchor="start" x="479.5" y="-116.5" font-family="Helvetica,sans-Serif" font-size="10.00">it.unitn.healthcore.domain.</text>
<text text-anchor="middle" x="546" y="-105.5" font-family="Helvetica,sans-Serif" font-size="10.00">Doctor.getShifts</text>
</a>
</g>
</g>
<!-- Node2&#45;&gt;Node10 -->
<g id="edge9" class="edge">
<title>Node2&#45;&gt;Node10</title>
<path fill="none" stroke="midnightblue" d="M354.19,-220.43C378.08,-199.51 424.13,-161.67 469,-138.5 473.25,-136.31 477.73,-134.25 482.31,-132.33"/>
<polygon fill="midnightblue" stroke="midnightblue" points="483.76,-135.52 491.78,-128.6 481.19,-129.01 483.76,-135.52"/>
</g>
<!-- Node11 -->
<g id="node11" class="node">
<title>Node11</title>
<g id="a_node11"><a xlink:href="classit_1_1unitn_1_1healthcore_1_1domain_1_1Doctor.html#a640b7f957294392023414c8b675304c9" target="_top" xlink:title="Specialization getter.">
<polygon fill="white" stroke="black" points="471.5,-49.5 471.5,-79.5 620.5,-79.5 620.5,-49.5 471.5,-49.5"/>
<text text-anchor="start" x="479.5" y="-67.5" font-family="Helvetica,sans-Serif" font-size="10.00">it.unitn.healthcore.domain.</text>
<text text-anchor="middle" x="546" y="-56.5" font-family="Helvetica,sans-Serif" font-size="10.00">Doctor.getSpecialization</text>
</a>
</g>
</g>
<!-- Node2&#45;&gt;Node11 -->
<g id="edge10" class="edge">
<title>Node2&#45;&gt;Node11</title>
<path fill="none" stroke="midnightblue" d="M347.15,-220.32C366.63,-190.85 413.56,-125.64 469,-89.5 472.09,-87.49 475.36,-85.62 478.73,-83.89"/>
<polygon fill="midnightblue" stroke="midnightblue" points="480.28,-87.04 487.87,-79.64 477.32,-80.69 480.28,-87.04"/>
</g>
<!-- Node12 -->
<g id="node12" class="node">
<title>Node12</title>
<g id="a_node12"><a xlink:href="classit_1_1unitn_1_1healthcore_1_1domain_1_1User.html#a1e52a76c1ad5fb44fe9c312e11203c9e" target="_top" xlink:title="Returns the last name of the user.">
<polygon fill="white" stroke="black" points="471.5,-0.5 471.5,-30.5 620.5,-30.5 620.5,-0.5 471.5,-0.5"/>
<text text-anchor="start" x="479.5" y="-18.5" font-family="Helvetica,sans-Serif" font-size="10.00">it.unitn.healthcore.domain.</text>
<text text-anchor="middle" x="546" y="-7.5" font-family="Helvetica,sans-Serif" font-size="10.00">User.getSurname</text>
</a>
</g>
</g>
<!-- Node2&#45;&gt;Node12 -->
<g id="edge11" class="edge">
<title>Node2&#45;&gt;Node12</title>
<path fill="none" stroke="midnightblue" d="M343.57,-220.32C358.94,-183.82 402.89,-90.51 469,-40.5 471.47,-38.63 474.08,-36.9 476.8,-35.3"/>
<polygon fill="midnightblue" stroke="midnightblue" points="478.54,-38.33 485.77,-30.59 475.29,-32.14 478.54,-38.33"/>
</g>
</g>
</svg>
