<?xml version="1.0" encoding="UTF-8" standalone="no"?>
<!DOCTYPE svg PUBLIC "-//W3C//DTD SVG 1.1//EN"
 "http://www.w3.org/Graphics/SVG/1.1/DTD/svg11.dtd">
<!-- Generated by graphviz version 2.43.0 (0)
 -->
<!-- Title: it.unitn.healthcore.business.UserService.updateUser Pages: 1 -->
<svg width="373pt" height="333pt"
 viewBox="0.00 0.00 373.00 333.00" xmlns="http://www.w3.org/2000/svg" xmlns:xlink="http://www.w3.org/1999/xlink">
<g id="graph0" class="graph" transform="scale(1 1) rotate(0) translate(4 329)">
<title>it.unitn.healthcore.business.UserService.updateUser</title>
<polygon fill="white" stroke="transparent" points="-4,4 -4,-329 369,-329 369,4 -4,4"/>
<!-- Node1 -->
<g id="node1" class="node">
<title>Node1</title>
<g id="a_node1"><a xlink:title=" ">
<polygon fill="#bfbfbf" stroke="black" points="0,-147.5 0,-177.5 155,-177.5 155,-147.5 0,-147.5"/>
<text text-anchor="start" x="8" y="-165.5" font-family="Helvetica,sans-Serif" font-size="10.00">it.unitn.healthcore.business.</text>
<text text-anchor="middle" x="77.5" y="-154.5" font-family="Helvetica,sans-Serif" font-size="10.00">UserService.updateUser</text>
</a>
</g>
</g>
<!-- Node2 -->
<g id="node2" class="node">
<title>Node2</title>
<g id="a_node2"><a xlink:href="interfaceit_1_1unitn_1_1healthcore_1_1persistence_1_1UserRepository.html#a6a646ae44d01189ff44c81c03fc92fa8" target="_top" xlink:title=" ">
<polygon fill="white" stroke="black" points="191,-294.5 191,-324.5 365,-324.5 365,-294.5 191,-294.5"/>
<text text-anchor="start" x="199" y="-312.5" font-family="Helvetica,sans-Serif" font-size="10.00">it.unitn.healthcore.persistence.</text>
<text text-anchor="middle" x="278" y="-301.5" font-family="Helvetica,sans-Serif" font-size="10.00">UserRepository.findUserByEmail</text>
</a>
</g>
</g>
<!-- Node1&#45;&gt;Node2 -->
<g id="edge1" class="edge">
<title>Node1&#45;&gt;Node2</title>
<path fill="none" stroke="midnightblue" d="M88.28,-177.9C105.7,-204.03 144.65,-257.01 191,-285.5 193.77,-287.2 196.67,-288.79 199.65,-290.27"/>
<polygon fill="midnightblue" stroke="midnightblue" points="198.26,-293.48 208.81,-294.37 201.12,-287.09 198.26,-293.48"/>
</g>
<!-- Node3 -->
<g id="node3" class="node">
<title>Node3</title>
<g id="a_node3"><a xlink:href="classit_1_1unitn_1_1healthcore_1_1domain_1_1User.html#a5b48be6dca19b7d4d43ec2e6a3b91502" target="_top" xlink:title=" ">
<polygon fill="white" stroke="black" points="203.5,-245.5 203.5,-275.5 352.5,-275.5 352.5,-245.5 203.5,-245.5"/>
<text text-anchor="start" x="211.5" y="-263.5" font-family="Helvetica,sans-Serif" font-size="10.00">it.unitn.healthcore.domain.</text>
<text text-anchor="middle" x="278" y="-252.5" font-family="Helvetica,sans-Serif" font-size="10.00">User.getEmail</text>
</a>
</g>
</g>
<!-- Node1&#45;&gt;Node3 -->
<g id="edge2" class="edge">
<title>Node1&#45;&gt;Node3</title>
<path fill="none" stroke="midnightblue" d="M97.34,-177.55C118.86,-194.09 155.68,-220.43 191,-236.5 195.36,-238.48 199.91,-240.34 204.56,-242.06"/>
<polygon fill="midnightblue" stroke="midnightblue" points="203.59,-245.43 214.18,-245.43 205.9,-238.82 203.59,-245.43"/>
</g>
<!-- Node4 -->
<g id="node4" class="node">
<title>Node4</title>
<g id="a_node4"><a xlink:href="classit_1_1unitn_1_1healthcore_1_1domain_1_1User.html#a0c78137c0cf7b414cc88dcc41895d5a7" target="_top" xlink:title=" ">
<polygon fill="white" stroke="black" points="203.5,-196.5 203.5,-226.5 352.5,-226.5 352.5,-196.5 203.5,-196.5"/>
<text text-anchor="start" x="211.5" y="-214.5" font-family="Helvetica,sans-Serif" font-size="10.00">it.unitn.healthcore.domain.</text>
<text text-anchor="middle" x="278" y="-203.5" font-family="Helvetica,sans-Serif" font-size="10.00">User.getName</text>
</a>
</g>
</g>
<!-- Node1&#45;&gt;Node4 -->
<g id="edge3" class="edge">
<title>Node1&#45;&gt;Node4</title>
<path fill="none" stroke="midnightblue" d="M139.41,-177.53C160.55,-182.76 184.45,-188.65 206.32,-194.05"/>
<polygon fill="midnightblue" stroke="midnightblue" points="205.66,-197.5 216.21,-196.49 207.34,-190.7 205.66,-197.5"/>
</g>
<!-- Node5 -->
<g id="node5" class="node">
<title>Node5</title>
<g id="a_node5"><a xlink:href="classit_1_1unitn_1_1healthcore_1_1domain_1_1User.html#a1e52a76c1ad5fb44fe9c312e11203c9e" target="_top" xlink:title=" ">
<polygon fill="white" stroke="black" points="203.5,-147.5 203.5,-177.5 352.5,-177.5 352.5,-147.5 203.5,-147.5"/>
<text text-anchor="start" x="211.5" y="-165.5" font-family="Helvetica,sans-Serif" font-size="10.00">it.unitn.healthcore.domain.</text>
<text text-anchor="middle" x="278" y="-154.5" font-family="Helvetica,sans-Serif" font-size="10.00">User.getSurname</text>
</a>
</g>
</g>
<!-- Node1&#45;&gt;Node5 -->
<g id="edge4" class="edge">
<title>Node1&#45;&gt;Node5</title>
<path fill="none" stroke="midnightblue" d="M155.25,-162.5C167.73,-162.5 180.71,-162.5 193.35,-162.5"/>
<polygon fill="midnightblue" stroke="midnightblue" points="193.39,-166 203.39,-162.5 193.39,-159 193.39,-166"/>
</g>
<!-- Node6 -->
<g id="node6" class="node">
<title>Node6</title>
<g id="a_node6"><a xlink:href="classit_1_1unitn_1_1healthcore_1_1domain_1_1User.html#a637da3e206f619ffbd1b1589367b2114" target="_top" xlink:title=" ">
<polygon fill="white" stroke="black" points="203.5,-98.5 203.5,-128.5 352.5,-128.5 352.5,-98.5 203.5,-98.5"/>
<text text-anchor="start" x="211.5" y="-116.5" font-family="Helvetica,sans-Serif" font-size="10.00">it.unitn.healthcore.domain.</text>
<text text-anchor="middle" x="278" y="-105.5" font-family="Helvetica,sans-Serif" font-size="10.00">User.setEmail</text>
</a>
</g>
</g>
<!-- Node1&#45;&gt;Node6 -->
<g id="edge5" class="edge">
<title>Node1&#45;&gt;Node6</title>
<path fill="none" stroke="midnightblue" d="M139.41,-147.47C160.55,-142.24 184.45,-136.35 206.32,-130.95"/>
<polygon fill="midnightblue" stroke="midnightblue" points="207.34,-134.3 216.21,-128.51 205.66,-127.5 207.34,-134.3"/>
</g>
<!-- Node7 -->
<g id="node7" class="node">
<title>Node7</title>
<g id="a_node7"><a xlink:href="classit_1_1unitn_1_1healthcore_1_1domain_1_1User.html#a91c87abb5e6a05b9a218ee0a9537d0fb" target="_top" xlink:title=" ">
<polygon fill="white" stroke="black" points="203.5,-49.5 203.5,-79.5 352.5,-79.5 352.5,-49.5 203.5,-49.5"/>
<text text-anchor="start" x="211.5" y="-67.5" font-family="Helvetica,sans-Serif" font-size="10.00">it.unitn.healthcore.domain.</text>
<text text-anchor="middle" x="278" y="-56.5" font-family="Helvetica,sans-Serif" font-size="10.00">User.setName</text>
</a>
</g>
</g>
<!-- Node1&#45;&gt;Node7 -->
<g id="edge6" class="edge">
<title>Node1&#45;&gt;Node7</title>
<path fill="none" stroke="midnightblue" d="M97.8,-147.45C119.43,-131.19 156.07,-105.49 191,-89.5 196.04,-87.19 201.34,-85.05 206.73,-83.06"/>
<polygon fill="midnightblue" stroke="midnightblue" points="208.21,-86.25 216.5,-79.65 205.91,-79.64 208.21,-86.25"/>
</g>
<!-- Node8 -->
<g id="node8" class="node">
<title>Node8</title>
<g id="a_node8"><a xlink:href="classit_1_1unitn_1_1healthcore_1_1domain_1_1User.html#aafba5fb3c10ba03d2e9121427365ec92" target="_top" xlink:title=" ">
<polygon fill="white" stroke="black" points="203.5,-0.5 203.5,-30.5 352.5,-30.5 352.5,-0.5 203.5,-0.5"/>
<text text-anchor="start" x="211.5" y="-18.5" font-family="Helvetica,sans-Serif" font-size="10.00">it.unitn.healthcore.domain.</text>
<text text-anchor="middle" x="278" y="-7.5" font-family="Helvetica,sans-Serif" font-size="10.00">User.setSurname</text>
</a>
</g>
</g>
<!-- Node1&#45;&gt;Node8 -->
<g id="edge7" class="edge">
<title>Node1&#45;&gt;Node8</title>
<path fill="none" stroke="midnightblue" d="M88.35,-147.28C105.86,-121.44 144.95,-69.01 191,-40.5 194.4,-38.4 197.98,-36.46 201.68,-34.69"/>
<polygon fill="midnightblue" stroke="midnightblue" points="203.29,-37.8 211.06,-30.59 200.49,-31.39 203.29,-37.8"/>
</g>
</g>
</svg>
