<?xml version="1.0" encoding="UTF-8" standalone="no"?>
<!DOCTYPE svg PUBLIC "-//W3C//DTD SVG 1.1//EN"
 "http://www.w3.org/Graphics/SVG/1.1/DTD/svg11.dtd">
<!-- Generated by graphviz version 2.43.0 (0)
 -->
<!-- Title: it.unitn.healthcore.domain.Appointment.getPatient Pages: 1 -->
<svg width="642pt" height="186pt"
 viewBox="0.00 0.00 642.00 186.00" xmlns="http://www.w3.org/2000/svg" xmlns:xlink="http://www.w3.org/1999/xlink">
<g id="graph0" class="graph" transform="scale(1 1) rotate(0) translate(4 182)">
<title>it.unitn.healthcore.domain.Appointment.getPatient</title>
<polygon fill="white" stroke="transparent" points="-4,4 -4,-182 638,-182 638,4 -4,4"/>
<!-- Node1 -->
<g id="node1" class="node">
<title>Node1</title>
<g id="a_node1"><a xlink:title="Returns the patient associated with the appointment.">
<polygon fill="#bfbfbf" stroke="black" points="485,-82.5 485,-112.5 634,-112.5 634,-82.5 485,-82.5"/>
<text text-anchor="start" x="493" y="-100.5" font-family="Helvetica,sans-Serif" font-size="10.00">it.unitn.healthcore.domain.</text>
<text text-anchor="middle" x="559.5" y="-89.5" font-family="Helvetica,sans-Serif" font-size="10.00">Appointment.getPatient</text>
</a>
</g>
</g>
<!-- Node2 -->
<g id="node2" class="node">
<title>Node2</title>
<g id="a_node2"><a xlink:href="classit_1_1unitn_1_1healthcore_1_1business_1_1PatientService.html#a7f10372a6537c0f235e585bdb8b87c30" target="_top" xlink:title="Cancels an existing appointment for the currently authenticated patient.">
<polygon fill="white" stroke="black" points="258.5,-142.5 258.5,-172.5 442.5,-172.5 442.5,-142.5 258.5,-142.5"/>
<text text-anchor="start" x="266.5" y="-160.5" font-family="Helvetica,sans-Serif" font-size="10.00">it.unitn.healthcore.business.</text>
<text text-anchor="middle" x="350.5" y="-149.5" font-family="Helvetica,sans-Serif" font-size="10.00">PatientService.cancelAppointment</text>
</a>
</g>
</g>
<!-- Node1&#45;&gt;Node2 -->
<g id="edge1" class="edge">
<title>Node1&#45;&gt;Node2</title>
<path fill="none" stroke="midnightblue" d="M496.69,-115.42C466.99,-124.02 431.79,-134.23 403.49,-142.43"/>
<polygon fill="midnightblue" stroke="midnightblue" points="497.9,-118.71 506.53,-112.56 495.95,-111.99 497.9,-118.71"/>
</g>
<!-- Node4 -->
<g id="node4" class="node">
<title>Node4</title>
<g id="a_node4"><a xlink:href="classit_1_1unitn_1_1healthcore_1_1business_1_1AppointmentService.html#a6df398766f183e79fe315aea5f1752a4" target="_top" xlink:title="Retrieves detailed information about a specific appointment based on the appointment ID.">
<polygon fill="white" stroke="black" points="252,-77 252,-118 449,-118 449,-77 252,-77"/>
<text text-anchor="start" x="260" y="-106" font-family="Helvetica,sans-Serif" font-size="10.00">it.unitn.healthcore.business.</text>
<text text-anchor="start" x="260" y="-95" font-family="Helvetica,sans-Serif" font-size="10.00">AppointmentService.getAppointment</text>
<text text-anchor="middle" x="350.5" y="-84" font-family="Helvetica,sans-Serif" font-size="10.00">Details</text>
</a>
</g>
</g>
<!-- Node1&#45;&gt;Node4 -->
<g id="edge3" class="edge">
<title>Node1&#45;&gt;Node4</title>
<path fill="none" stroke="midnightblue" d="M474.74,-97.5C466.29,-97.5 457.66,-97.5 449.08,-97.5"/>
<polygon fill="midnightblue" stroke="midnightblue" points="474.94,-101 484.94,-97.5 474.94,-94 474.94,-101"/>
</g>
<!-- Node7 -->
<g id="node7" class="node">
<title>Node7</title>
<g id="a_node7"><a xlink:href="classit_1_1unitn_1_1healthcore_1_1business_1_1PatientService.html#ab8266c492da03f9b5e38829e698129c6" target="_top" xlink:title="Modifies an existing appointment for the currently authenticated patient.">
<polygon fill="white" stroke="black" points="257.5,-18.5 257.5,-48.5 443.5,-48.5 443.5,-18.5 257.5,-18.5"/>
<text text-anchor="start" x="265.5" y="-36.5" font-family="Helvetica,sans-Serif" font-size="10.00">it.unitn.healthcore.business.</text>
<text text-anchor="middle" x="350.5" y="-25.5" font-family="Helvetica,sans-Serif" font-size="10.00">PatientService.modifyAppointment</text>
</a>
</g>
</g>
<!-- Node1&#45;&gt;Node7 -->
<g id="edge6" class="edge">
<title>Node1&#45;&gt;Node7</title>
<path fill="none" stroke="midnightblue" d="M500.4,-79.54C468.77,-69.76 430.09,-57.8 400.09,-48.52"/>
<polygon fill="midnightblue" stroke="midnightblue" points="499.38,-82.88 509.97,-82.49 501.45,-76.2 499.38,-82.88"/>
</g>
<!-- Node3 -->
<g id="node3" class="node">
<title>Node3</title>
<g id="a_node3"><a xlink:href="classit_1_1unitn_1_1healthcore_1_1controller_1_1PatientController.html#a3a3ac977996cfd51ff42b9386dccc075" target="_top" xlink:title="Cancels an existing appointment for the authenticated patient.">
<polygon fill="white" stroke="black" points="10.5,-147.5 10.5,-177.5 205.5,-177.5 205.5,-147.5 10.5,-147.5"/>
<text text-anchor="start" x="18.5" y="-165.5" font-family="Helvetica,sans-Serif" font-size="10.00">it.unitn.healthcore.controller.</text>
<text text-anchor="middle" x="108" y="-154.5" font-family="Helvetica,sans-Serif" font-size="10.00">PatientController.cancelAppointment</text>
</a>
</g>
</g>
<!-- Node2&#45;&gt;Node3 -->
<g id="edge2" class="edge">
<title>Node2&#45;&gt;Node3</title>
<path fill="none" stroke="midnightblue" d="M248.11,-159.61C234.1,-159.9 219.74,-160.2 205.81,-160.49"/>
<polygon fill="midnightblue" stroke="midnightblue" points="248.31,-163.1 258.23,-159.4 248.16,-156.11 248.31,-163.1"/>
</g>
<!-- Node5 -->
<g id="node5" class="node">
<title>Node5</title>
<g id="a_node5"><a xlink:href="classit_1_1unitn_1_1healthcore_1_1controller_1_1DoctorController.html#aaf741f63621b758e3aab2e1af0639398" target="_top" xlink:title="Retrieves the details of a specific appointment by its ID.">
<polygon fill="white" stroke="black" points="0.5,-98.5 0.5,-128.5 215.5,-128.5 215.5,-98.5 0.5,-98.5"/>
<text text-anchor="start" x="8.5" y="-116.5" font-family="Helvetica,sans-Serif" font-size="10.00">it.unitn.healthcore.controller.</text>
<text text-anchor="middle" x="108" y="-105.5" font-family="Helvetica,sans-Serif" font-size="10.00">DoctorController.viewAppointmentDetail</text>
</a>
</g>
</g>
<!-- Node4&#45;&gt;Node5 -->
<g id="edge4" class="edge">
<title>Node4&#45;&gt;Node5</title>
<path fill="none" stroke="midnightblue" d="M241.63,-104.68C233.03,-105.25 224.35,-105.83 215.76,-106.4"/>
<polygon fill="midnightblue" stroke="midnightblue" points="241.93,-108.16 251.68,-104.01 241.47,-101.18 241.93,-108.16"/>
</g>
<!-- Node6 -->
<g id="node6" class="node">
<title>Node6</title>
<g id="a_node6"><a xlink:href="classit_1_1unitn_1_1healthcore_1_1controller_1_1PatientController.html#ac6fe0b7997f8668f80b25419c0d686c6" target="_top" xlink:title="Retrieves the details of a specific appointment by its ID.">
<polygon fill="white" stroke="black" points="0,-49.5 0,-79.5 216,-79.5 216,-49.5 0,-49.5"/>
<text text-anchor="start" x="8" y="-67.5" font-family="Helvetica,sans-Serif" font-size="10.00">it.unitn.healthcore.controller.</text>
<text text-anchor="middle" x="108" y="-56.5" font-family="Helvetica,sans-Serif" font-size="10.00">PatientController.viewAppointmentDetail</text>
</a>
</g>
</g>
<!-- Node4&#45;&gt;Node6 -->
<g id="edge5" class="edge">
<title>Node4&#45;&gt;Node6</title>
<path fill="none" stroke="midnightblue" d="M241.74,-82.71C233.24,-81.55 224.65,-80.37 216.15,-79.2"/>
<polygon fill="midnightblue" stroke="midnightblue" points="241.3,-86.19 251.68,-84.08 242.25,-79.25 241.3,-86.19"/>
</g>
<!-- Node8 -->
<g id="node8" class="node">
<title>Node8</title>
<g id="a_node8"><a xlink:href="classit_1_1unitn_1_1healthcore_1_1controller_1_1PatientController.html#af370cd8f9baad62995675426371b349c" target="_top" xlink:title="Modifies the details of an existing appointment for the authenticated patient.">
<polygon fill="white" stroke="black" points="9.5,-0.5 9.5,-30.5 206.5,-30.5 206.5,-0.5 9.5,-0.5"/>
<text text-anchor="start" x="17.5" y="-18.5" font-family="Helvetica,sans-Serif" font-size="10.00">it.unitn.healthcore.controller.</text>
<text text-anchor="middle" x="108" y="-7.5" font-family="Helvetica,sans-Serif" font-size="10.00">PatientController.modifyAppointment</text>
</a>
</g>
</g>
<!-- Node7&#45;&gt;Node8 -->
<g id="edge7" class="edge">
<title>Node7&#45;&gt;Node8</title>
<path fill="none" stroke="midnightblue" d="M247.03,-25.83C233.64,-24.83 219.95,-23.8 206.64,-22.81"/>
<polygon fill="midnightblue" stroke="midnightblue" points="246.97,-29.34 257.2,-26.59 247.49,-22.36 246.97,-29.34"/>
</g>
</g>
</svg>
