<?xml version="1.0" encoding="UTF-8" standalone="no"?>
<!DOCTYPE svg PUBLIC "-//W3C//DTD SVG 1.1//EN"
 "http://www.w3.org/Graphics/SVG/1.1/DTD/svg11.dtd">
<!-- Generated by graphviz version 2.43.0 (0)
 -->
<!-- Title: it.unitn.healthcore.business.UserService.updateUserProfile Pages: 1 -->
<svg width="887pt" height="803pt"
 viewBox="0.00 0.00 887.00 803.00" xmlns="http://www.w3.org/2000/svg" xmlns:xlink="http://www.w3.org/1999/xlink">
<g id="graph0" class="graph" transform="scale(1 1) rotate(0) translate(4 799)">
<title>it.unitn.healthcore.business.UserService.updateUserProfile</title>
<polygon fill="white" stroke="transparent" points="-4,4 -4,-799 883,-799 883,4 -4,4"/>
<!-- Node1 -->
<g id="node1" class="node">
<title>Node1</title>
<g id="a_node1"><a xlink:title="Updates the profile of the currently authenticated user based on the provided object .">
<polygon fill="#bfbfbf" stroke="black" points="0,-343.5 0,-373.5 165,-373.5 165,-343.5 0,-343.5"/>
<text text-anchor="start" x="8" y="-361.5" font-family="Helvetica,sans-Serif" font-size="10.00">it.unitn.healthcore.business.</text>
<text text-anchor="middle" x="82.5" y="-350.5" font-family="Helvetica,sans-Serif" font-size="10.00">UserService.updateUserProfile</text>
</a>
</g>
</g>
<!-- Node2 -->
<g id="node2" class="node">
<title>Node2</title>
<g id="a_node2"><a xlink:href="interfaceit_1_1unitn_1_1healthcore_1_1persistence_1_1UserRepository.html#a6a646ae44d01189ff44c81c03fc92fa8" target="_top" xlink:title=" ">
<polygon fill="white" stroke="black" points="442.5,-715.5 442.5,-745.5 616.5,-745.5 616.5,-715.5 442.5,-715.5"/>
<text text-anchor="start" x="450.5" y="-733.5" font-family="Helvetica,sans-Serif" font-size="10.00">it.unitn.healthcore.persistence.</text>
<text text-anchor="middle" x="529.5" y="-722.5" font-family="Helvetica,sans-Serif" font-size="10.00">UserRepository.findUserByEmail</text>
</a>
</g>
</g>
<!-- Node1&#45;&gt;Node2 -->
<g id="edge1" class="edge">
<title>Node1&#45;&gt;Node2</title>
<path fill="none" stroke="midnightblue" d="M84.63,-373.74C89.14,-423.1 110.32,-579.9 201,-657.5 210.3,-665.46 348.64,-694.45 442.51,-713.41"/>
<polygon fill="midnightblue" stroke="midnightblue" points="442.09,-716.9 452.59,-715.45 443.48,-710.04 442.09,-716.9"/>
</g>
<!-- Node3 -->
<g id="node3" class="node">
<title>Node3</title>
<g id="a_node3"><a xlink:href="classit_1_1unitn_1_1healthcore_1_1business_1_1UserService.html#a33213d05bfda4e7384e17b18332d4bb5" target="_top" xlink:title="Retrieves the currently authenticated user from the database.">
<polygon fill="white" stroke="black" points="220.5,-715.5 220.5,-745.5 375.5,-745.5 375.5,-715.5 220.5,-715.5"/>
<text text-anchor="start" x="228.5" y="-733.5" font-family="Helvetica,sans-Serif" font-size="10.00">it.unitn.healthcore.business.</text>
<text text-anchor="middle" x="298" y="-722.5" font-family="Helvetica,sans-Serif" font-size="10.00">UserService.getCurrentUser</text>
</a>
</g>
</g>
<!-- Node1&#45;&gt;Node3 -->
<g id="edge2" class="edge">
<title>Node1&#45;&gt;Node3</title>
<path fill="none" stroke="midnightblue" d="M84.23,-373.78C87.58,-426.47 105.74,-602.48 201,-697.5 206.23,-702.72 212.33,-707.11 218.86,-710.82"/>
<polygon fill="midnightblue" stroke="midnightblue" points="217.5,-714.05 228,-715.44 220.66,-707.8 217.5,-714.05"/>
</g>
<!-- Node5 -->
<g id="node5" class="node">
<title>Node5</title>
<g id="a_node5"><a xlink:href="classit_1_1unitn_1_1healthcore_1_1domain_1_1PasswordConfirmationForm.html#ad2a321af868704e56c42d5306a8acd91" target="_top" xlink:title="Email getter.">
<polygon fill="white" stroke="black" points="431,-666.5 431,-696.5 628,-696.5 628,-666.5 431,-666.5"/>
<text text-anchor="start" x="439" y="-684.5" font-family="Helvetica,sans-Serif" font-size="10.00">it.unitn.healthcore.domain.</text>
<text text-anchor="middle" x="529.5" y="-673.5" font-family="Helvetica,sans-Serif" font-size="10.00">PasswordConfirmationForm.getEmail</text>
</a>
</g>
</g>
<!-- Node1&#45;&gt;Node5 -->
<g id="edge5" class="edge">
<title>Node1&#45;&gt;Node5</title>
<path fill="none" stroke="midnightblue" d="M85.43,-373.52C92.1,-418.74 118.45,-554.45 201,-619.5 234.6,-645.98 338.6,-662.55 420.5,-671.83"/>
<polygon fill="midnightblue" stroke="midnightblue" points="420.3,-675.33 430.62,-672.95 421.07,-668.37 420.3,-675.33"/>
</g>
<!-- Node6 -->
<g id="node6" class="node">
<title>Node6</title>
<g id="a_node6"><a xlink:href="classit_1_1unitn_1_1healthcore_1_1domain_1_1User.html#a5b48be6dca19b7d4d43ec2e6a3b91502" target="_top" xlink:title="Returns the email address of the user.">
<polygon fill="white" stroke="black" points="223.5,-392.5 223.5,-422.5 372.5,-422.5 372.5,-392.5 223.5,-392.5"/>
<text text-anchor="start" x="231.5" y="-410.5" font-family="Helvetica,sans-Serif" font-size="10.00">it.unitn.healthcore.domain.</text>
<text text-anchor="middle" x="298" y="-399.5" font-family="Helvetica,sans-Serif" font-size="10.00">User.getEmail</text>
</a>
</g>
</g>
<!-- Node1&#45;&gt;Node6 -->
<g id="edge6" class="edge">
<title>Node1&#45;&gt;Node6</title>
<path fill="none" stroke="midnightblue" d="M149.01,-373.53C171.96,-378.8 197.92,-384.76 221.61,-390.2"/>
<polygon fill="midnightblue" stroke="midnightblue" points="221.09,-393.67 231.62,-392.49 222.65,-386.85 221.09,-393.67"/>
</g>
<!-- Node7 -->
<g id="node7" class="node">
<title>Node7</title>
<g id="a_node7"><a xlink:href="classit_1_1unitn_1_1healthcore_1_1domain_1_1ProfileUpdateForm.html#a74ba2df0ee53889299dc64bd16a6c889" target="_top" xlink:title="Name getter.">
<polygon fill="white" stroke="black" points="220.5,-343.5 220.5,-373.5 375.5,-373.5 375.5,-343.5 220.5,-343.5"/>
<text text-anchor="start" x="228.5" y="-361.5" font-family="Helvetica,sans-Serif" font-size="10.00">it.unitn.healthcore.domain.</text>
<text text-anchor="middle" x="298" y="-350.5" font-family="Helvetica,sans-Serif" font-size="10.00">ProfileUpdateForm.getName</text>
</a>
</g>
</g>
<!-- Node1&#45;&gt;Node7 -->
<g id="edge7" class="edge">
<title>Node1&#45;&gt;Node7</title>
<path fill="none" stroke="midnightblue" d="M165.13,-358.5C179.86,-358.5 195.26,-358.5 210.14,-358.5"/>
<polygon fill="midnightblue" stroke="midnightblue" points="210.33,-362 220.33,-358.5 210.33,-355 210.33,-362"/>
</g>
<!-- Node8 -->
<g id="node8" class="node">
<title>Node8</title>
<g id="a_node8"><a xlink:href="classit_1_1unitn_1_1healthcore_1_1domain_1_1User.html#a0c78137c0cf7b414cc88dcc41895d5a7" target="_top" xlink:title="Returns the first name of the user.">
<polygon fill="white" stroke="black" points="223.5,-294.5 223.5,-324.5 372.5,-324.5 372.5,-294.5 223.5,-294.5"/>
<text text-anchor="start" x="231.5" y="-312.5" font-family="Helvetica,sans-Serif" font-size="10.00">it.unitn.healthcore.domain.</text>
<text text-anchor="middle" x="298" y="-301.5" font-family="Helvetica,sans-Serif" font-size="10.00">User.getName</text>
</a>
</g>
</g>
<!-- Node1&#45;&gt;Node8 -->
<g id="edge8" class="edge">
<title>Node1&#45;&gt;Node8</title>
<path fill="none" stroke="midnightblue" d="M149.01,-343.47C171.96,-338.2 197.92,-332.24 221.61,-326.8"/>
<polygon fill="midnightblue" stroke="midnightblue" points="222.65,-330.15 231.62,-324.51 221.09,-323.33 222.65,-330.15"/>
</g>
<!-- Node9 -->
<g id="node9" class="node">
<title>Node9</title>
<g id="a_node9"><a xlink:href="classit_1_1unitn_1_1healthcore_1_1domain_1_1PasswordConfirmationForm.html#aa7de23a583db33eba13ddecad973ceca" target="_top" xlink:title="Password getter.">
<polygon fill="white" stroke="black" points="664,-523.5 664,-553.5 879,-553.5 879,-523.5 664,-523.5"/>
<text text-anchor="start" x="672" y="-541.5" font-family="Helvetica,sans-Serif" font-size="10.00">it.unitn.healthcore.domain.</text>
<text text-anchor="middle" x="771.5" y="-530.5" font-family="Helvetica,sans-Serif" font-size="10.00">PasswordConfirmationForm.getPassword</text>
</a>
</g>
</g>
<!-- Node1&#45;&gt;Node9 -->
<g id="edge9" class="edge">
<title>Node1&#45;&gt;Node9</title>
<path fill="none" stroke="midnightblue" d="M96.07,-373.86C115.77,-396.7 156.3,-439.03 201,-458.5 376.17,-534.81 439.43,-477.68 628,-508.5 649.96,-512.09 673.67,-516.76 695.32,-521.34"/>
<polygon fill="midnightblue" stroke="midnightblue" points="694.6,-524.76 705.11,-523.43 696.07,-517.92 694.6,-524.76"/>
</g>
<!-- Node10 -->
<g id="node10" class="node">
<title>Node10</title>
<g id="a_node10"><a xlink:href="classit_1_1unitn_1_1healthcore_1_1domain_1_1PasswordConfirmationForm.html#add77c52ff85c3a8caefe02af899fe10b" target="_top" xlink:title="Password confirmation getter.">
<polygon fill="white" stroke="black" points="664,-447 664,-488 879,-488 879,-447 664,-447"/>
<text text-anchor="start" x="672" y="-476" font-family="Helvetica,sans-Serif" font-size="10.00">it.unitn.healthcore.domain.</text>
<text text-anchor="start" x="672" y="-465" font-family="Helvetica,sans-Serif" font-size="10.00">PasswordConfirmationForm.getPassword</text>
<text text-anchor="middle" x="771.5" y="-454" font-family="Helvetica,sans-Serif" font-size="10.00">Confirmation</text>
</a>
</g>
</g>
<!-- Node1&#45;&gt;Node10 -->
<g id="edge10" class="edge">
<title>Node1&#45;&gt;Node10</title>
<path fill="none" stroke="midnightblue" d="M101.59,-373.78C123.52,-391.28 162.34,-419.14 201,-431.5 282.32,-457.51 512.31,-464.81 653.9,-466.81"/>
<polygon fill="midnightblue" stroke="midnightblue" points="653.89,-470.31 663.94,-466.95 653.99,-463.31 653.89,-470.31"/>
</g>
<!-- Node11 -->
<g id="node11" class="node">
<title>Node11</title>
<g id="a_node11"><a xlink:href="classit_1_1unitn_1_1healthcore_1_1domain_1_1ProfileUpdateForm.html#a8bd433fb0c7bfbe8eac0149bbfa707f6" target="_top" xlink:title="Specialization getter.">
<polygon fill="white" stroke="black" points="201,-245.5 201,-275.5 395,-275.5 395,-245.5 201,-245.5"/>
<text text-anchor="start" x="209" y="-263.5" font-family="Helvetica,sans-Serif" font-size="10.00">it.unitn.healthcore.domain.</text>
<text text-anchor="middle" x="298" y="-252.5" font-family="Helvetica,sans-Serif" font-size="10.00">ProfileUpdateForm.getSpecialization</text>
</a>
</g>
</g>
<!-- Node1&#45;&gt;Node11 -->
<g id="edge11" class="edge">
<title>Node1&#45;&gt;Node11</title>
<path fill="none" stroke="midnightblue" d="M103.21,-343.32C125.72,-326.66 164.2,-300.21 201,-284.5 205.94,-282.39 211.1,-280.44 216.36,-278.64"/>
<polygon fill="midnightblue" stroke="midnightblue" points="217.46,-281.96 225.9,-275.56 215.31,-275.3 217.46,-281.96"/>
</g>
<!-- Node12 -->
<g id="node12" class="node">
<title>Node12</title>
<g id="a_node12"><a xlink:href="classit_1_1unitn_1_1healthcore_1_1domain_1_1ProfileUpdateForm.html#af0bb243e48137fe877431ee1062a7c41" target="_top" xlink:title="Surname getter.">
<polygon fill="white" stroke="black" points="213,-196.5 213,-226.5 383,-226.5 383,-196.5 213,-196.5"/>
<text text-anchor="start" x="221" y="-214.5" font-family="Helvetica,sans-Serif" font-size="10.00">it.unitn.healthcore.domain.</text>
<text text-anchor="middle" x="298" y="-203.5" font-family="Helvetica,sans-Serif" font-size="10.00">ProfileUpdateForm.getSurname</text>
</a>
</g>
</g>
<!-- Node1&#45;&gt;Node12 -->
<g id="edge12" class="edge">
<title>Node1&#45;&gt;Node12</title>
<path fill="none" stroke="midnightblue" d="M93.52,-343.4C111.7,-317.23 152.75,-263.55 201,-235.5 204.06,-233.72 207.26,-232.07 210.54,-230.54"/>
<polygon fill="midnightblue" stroke="midnightblue" points="212.14,-233.66 219.99,-226.55 209.41,-227.22 212.14,-233.66"/>
</g>
<!-- Node13 -->
<g id="node13" class="node">
<title>Node13</title>
<g id="a_node13"><a xlink:href="classit_1_1unitn_1_1healthcore_1_1domain_1_1User.html#a1e52a76c1ad5fb44fe9c312e11203c9e" target="_top" xlink:title="Returns the last name of the user.">
<polygon fill="white" stroke="black" points="223.5,-147.5 223.5,-177.5 372.5,-177.5 372.5,-147.5 223.5,-147.5"/>
<text text-anchor="start" x="231.5" y="-165.5" font-family="Helvetica,sans-Serif" font-size="10.00">it.unitn.healthcore.domain.</text>
<text text-anchor="middle" x="298" y="-154.5" font-family="Helvetica,sans-Serif" font-size="10.00">User.getSurname</text>
</a>
</g>
</g>
<!-- Node1&#45;&gt;Node13 -->
<g id="edge13" class="edge">
<title>Node1&#45;&gt;Node13</title>
<path fill="none" stroke="midnightblue" d="M89.39,-343.34C103.32,-309.56 141.64,-227.83 201,-186.5 205.02,-183.7 209.33,-181.23 213.82,-179.05"/>
<polygon fill="midnightblue" stroke="midnightblue" points="215.48,-182.14 223.26,-174.95 212.69,-175.72 215.48,-182.14"/>
</g>
<!-- Node14 -->
<g id="node14" class="node">
<title>Node14</title>
<g id="a_node14"><a xlink:href="classit_1_1unitn_1_1healthcore_1_1business_1_1UserService.html#acc1ae5218e790edcc69ad692c84871a2" target="_top" xlink:title="Recovers the password for a user by verifying the OTP and updating the password in the database.">
<polygon fill="white" stroke="black" points="217.5,-579.5 217.5,-609.5 378.5,-609.5 378.5,-579.5 217.5,-579.5"/>
<text text-anchor="start" x="225.5" y="-597.5" font-family="Helvetica,sans-Serif" font-size="10.00">it.unitn.healthcore.business.</text>
<text text-anchor="middle" x="298" y="-586.5" font-family="Helvetica,sans-Serif" font-size="10.00">UserService.recoverPassword</text>
</a>
</g>
</g>
<!-- Node1&#45;&gt;Node14 -->
<g id="edge14" class="edge">
<title>Node1&#45;&gt;Node14</title>
<path fill="none" stroke="midnightblue" d="M94.89,-373.86C115.19,-400.94 159.41,-458.55 201,-503.5 223.89,-528.24 252.09,-554.53 271.99,-572.45"/>
<polygon fill="midnightblue" stroke="midnightblue" points="269.92,-575.3 279.7,-579.36 274.59,-570.08 269.92,-575.3"/>
</g>
<!-- Node17 -->
<g id="node17" class="node">
<title>Node17</title>
<g id="a_node17"><a xlink:href="classit_1_1unitn_1_1healthcore_1_1domain_1_1User.html#a637da3e206f619ffbd1b1589367b2114" target="_top" xlink:title="Sets the email address of the user.">
<polygon fill="white" stroke="black" points="223.5,-98.5 223.5,-128.5 372.5,-128.5 372.5,-98.5 223.5,-98.5"/>
<text text-anchor="start" x="231.5" y="-116.5" font-family="Helvetica,sans-Serif" font-size="10.00">it.unitn.healthcore.domain.</text>
<text text-anchor="middle" x="298" y="-105.5" font-family="Helvetica,sans-Serif" font-size="10.00">User.setEmail</text>
</a>
</g>
</g>
<!-- Node1&#45;&gt;Node17 -->
<g id="edge22" class="edge">
<title>Node1&#45;&gt;Node17</title>
<path fill="none" stroke="midnightblue" d="M86.98,-343.4C97.05,-303.2 130.14,-192.9 201,-137.5 205.04,-134.34 209.45,-131.59 214.07,-129.2"/>
<polygon fill="midnightblue" stroke="midnightblue" points="215.57,-132.37 223.21,-125.03 212.66,-126 215.57,-132.37"/>
</g>
<!-- Node18 -->
<g id="node18" class="node">
<title>Node18</title>
<g id="a_node18"><a xlink:href="classit_1_1unitn_1_1healthcore_1_1domain_1_1User.html#a91c87abb5e6a05b9a218ee0a9537d0fb" target="_top" xlink:title="Sets the first name of the user.">
<polygon fill="white" stroke="black" points="223.5,-49.5 223.5,-79.5 372.5,-79.5 372.5,-49.5 223.5,-49.5"/>
<text text-anchor="start" x="231.5" y="-67.5" font-family="Helvetica,sans-Serif" font-size="10.00">it.unitn.healthcore.domain.</text>
<text text-anchor="middle" x="298" y="-56.5" font-family="Helvetica,sans-Serif" font-size="10.00">User.setName</text>
</a>
</g>
</g>
<!-- Node1&#45;&gt;Node18 -->
<g id="edge23" class="edge">
<title>Node1&#45;&gt;Node18</title>
<path fill="none" stroke="midnightblue" d="M85.44,-343.2C92.11,-297.08 118.49,-158.37 201,-88.5 204.99,-85.12 209.4,-82.2 214.06,-79.68"/>
<polygon fill="midnightblue" stroke="midnightblue" points="215.74,-82.76 223.29,-75.33 212.75,-76.43 215.74,-82.76"/>
</g>
<!-- Node19 -->
<g id="node19" class="node">
<title>Node19</title>
<g id="a_node19"><a xlink:href="classit_1_1unitn_1_1healthcore_1_1domain_1_1User.html#aafba5fb3c10ba03d2e9121427365ec92" target="_top" xlink:title="Sets the last name of the user.">
<polygon fill="white" stroke="black" points="223.5,-0.5 223.5,-30.5 372.5,-30.5 372.5,-0.5 223.5,-0.5"/>
<text text-anchor="start" x="231.5" y="-18.5" font-family="Helvetica,sans-Serif" font-size="10.00">it.unitn.healthcore.domain.</text>
<text text-anchor="middle" x="298" y="-7.5" font-family="Helvetica,sans-Serif" font-size="10.00">User.setSurname</text>
</a>
</g>
</g>
<!-- Node1&#45;&gt;Node19 -->
<g id="edge24" class="edge">
<title>Node1&#45;&gt;Node19</title>
<path fill="none" stroke="midnightblue" d="M84.28,-343.45C87.79,-292.43 106.34,-124.45 201,-39.5 204.97,-35.93 209.4,-32.88 214.1,-30.27"/>
<polygon fill="midnightblue" stroke="midnightblue" points="215.96,-33.25 223.46,-25.76 212.93,-26.95 215.96,-33.25"/>
</g>
<!-- Node3&#45;&gt;Node2 -->
<g id="edge3" class="edge">
<title>Node3&#45;&gt;Node2</title>
<path fill="none" stroke="midnightblue" d="M375.74,-730.5C393.85,-730.5 413.39,-730.5 432.25,-730.5"/>
<polygon fill="midnightblue" stroke="midnightblue" points="432.34,-734 442.34,-730.5 432.34,-727 432.34,-734"/>
</g>
<!-- Node4 -->
<g id="node4" class="node">
<title>Node4</title>
<g id="a_node4"><a xlink:href="classit_1_1unitn_1_1healthcore_1_1business_1_1UserService.html#a703ed9778e3ac6cd9741220089b5f48d" target="_top" xlink:title="Retrieves the email of the currently authenticated user.">
<polygon fill="white" stroke="black" points="439.5,-764.5 439.5,-794.5 619.5,-794.5 619.5,-764.5 439.5,-764.5"/>
<text text-anchor="start" x="447.5" y="-782.5" font-family="Helvetica,sans-Serif" font-size="10.00">it.unitn.healthcore.business.</text>
<text text-anchor="middle" x="529.5" y="-771.5" font-family="Helvetica,sans-Serif" font-size="10.00">UserService.getCurrentUserEmail</text>
</a>
</g>
</g>
<!-- Node3&#45;&gt;Node4 -->
<g id="edge4" class="edge">
<title>Node3&#45;&gt;Node4</title>
<path fill="none" stroke="midnightblue" d="M369.42,-745.53C394.31,-750.85 422.49,-756.87 448.15,-762.34"/>
<polygon fill="midnightblue" stroke="midnightblue" points="447.71,-765.83 458.22,-764.49 449.17,-758.98 447.71,-765.83"/>
</g>
<!-- Node14&#45;&gt;Node2 -->
<g id="edge15" class="edge">
<title>Node14&#45;&gt;Node2</title>
<path fill="none" stroke="midnightblue" d="M319.88,-609.53C339.77,-624.14 370.28,-647.33 395,-669.5 412.08,-684.82 411.09,-695.1 431,-706.5 434.21,-708.34 437.57,-710.04 441.01,-711.61"/>
<polygon fill="midnightblue" stroke="midnightblue" points="439.74,-714.88 450.32,-715.48 442.43,-708.41 439.74,-714.88"/>
</g>
<!-- Node14&#45;&gt;Node5 -->
<g id="edge16" class="edge">
<title>Node14&#45;&gt;Node5</title>
<path fill="none" stroke="midnightblue" d="M353.16,-609.56C367.11,-614.24 381.88,-619.93 395,-626.5 412.42,-635.22 413.48,-642.98 431,-651.5 439.96,-655.86 449.69,-659.75 459.42,-663.17"/>
<polygon fill="midnightblue" stroke="midnightblue" points="458.52,-666.56 469.11,-666.43 460.75,-659.92 458.52,-666.56"/>
</g>
<!-- Node14&#45;&gt;Node9 -->
<g id="edge17" class="edge">
<title>Node14&#45;&gt;Node9</title>
<path fill="none" stroke="midnightblue" d="M355.31,-609.55C421.65,-624.79 534.64,-642.91 628,-618.5 671.34,-607.17 715.44,-579.37 742.86,-559.74"/>
<polygon fill="midnightblue" stroke="midnightblue" points="745.14,-562.41 751.16,-553.69 741.02,-556.76 745.14,-562.41"/>
</g>
<!-- Node15 -->
<g id="node15" class="node">
<title>Node15</title>
<g id="a_node15"><a xlink:href="classit_1_1unitn_1_1healthcore_1_1domain_1_1PasswordConfirmationForm.html#a181a1ca7ab3c4d07cb7f3817c1de6974" target="_top" xlink:title="Validates the password confirmation form by checking if the password and confirmation match,...">
<polygon fill="white" stroke="black" points="437,-518 437,-559 622,-559 622,-518 437,-518"/>
<text text-anchor="start" x="445" y="-547" font-family="Helvetica,sans-Serif" font-size="10.00">it.unitn.healthcore.domain.</text>
<text text-anchor="start" x="445" y="-536" font-family="Helvetica,sans-Serif" font-size="10.00">PasswordConfirmationForm.isValid</text>
<text text-anchor="middle" x="529.5" y="-525" font-family="Helvetica,sans-Serif" font-size="10.00">PasswordForm</text>
</a>
</g>
</g>
<!-- Node14&#45;&gt;Node15 -->
<g id="edge18" class="edge">
<title>Node14&#45;&gt;Node15</title>
<path fill="none" stroke="midnightblue" d="M360.5,-579.49C383.24,-573.94 409.57,-567.52 434.53,-561.43"/>
<polygon fill="midnightblue" stroke="midnightblue" points="435.51,-564.79 444.39,-559.02 433.85,-557.99 435.51,-564.79"/>
</g>
<!-- Node16 -->
<g id="node16" class="node">
<title>Node16</title>
<g id="a_node16"><a xlink:href="classit_1_1unitn_1_1healthcore_1_1domain_1_1User.html#aae0addd4b63049c29c751a6c03e17f2c" target="_top" xlink:title="Sets the password of the user.">
<polygon fill="white" stroke="black" points="455,-578.5 455,-608.5 604,-608.5 604,-578.5 455,-578.5"/>
<text text-anchor="start" x="463" y="-596.5" font-family="Helvetica,sans-Serif" font-size="10.00">it.unitn.healthcore.domain.</text>
<text text-anchor="middle" x="529.5" y="-585.5" font-family="Helvetica,sans-Serif" font-size="10.00">User.setPassword</text>
</a>
</g>
</g>
<!-- Node14&#45;&gt;Node16 -->
<g id="edge21" class="edge">
<title>Node14&#45;&gt;Node16</title>
<path fill="none" stroke="midnightblue" d="M378.62,-594.15C399.97,-594.06 423.11,-593.96 444.68,-593.87"/>
<polygon fill="midnightblue" stroke="midnightblue" points="444.81,-597.36 454.79,-593.82 444.78,-590.36 444.81,-597.36"/>
</g>
<!-- Node15&#45;&gt;Node9 -->
<g id="edge19" class="edge">
<title>Node15&#45;&gt;Node9</title>
<path fill="none" stroke="midnightblue" d="M622.26,-538.5C632.59,-538.5 643.21,-538.5 653.81,-538.5"/>
<polygon fill="midnightblue" stroke="midnightblue" points="653.94,-542 663.94,-538.5 653.94,-535 653.94,-542"/>
</g>
<!-- Node15&#45;&gt;Node10 -->
<g id="edge20" class="edge">
<title>Node15&#45;&gt;Node10</title>
<path fill="none" stroke="midnightblue" d="M599.92,-517.96C628.4,-509.54 661.54,-499.73 690.99,-491.02"/>
<polygon fill="midnightblue" stroke="midnightblue" points="692.23,-494.31 700.82,-488.11 690.24,-487.59 692.23,-494.31"/>
</g>
</g>
</svg>
