<?xml version="1.0" encoding="UTF-8" standalone="no"?>
<!DOCTYPE svg PUBLIC "-//W3C//DTD SVG 1.1//EN"
 "http://www.w3.org/Graphics/SVG/1.1/DTD/svg11.dtd">
<!-- Generated by graphviz version 2.43.0 (0)
 -->
<!-- Title: it.unitn.healthcore.controller.PatientController.viewFutureAppointments Pages: 1 -->
<svg width="907pt" height="88pt"
 viewBox="0.00 0.00 907.00 88.00" xmlns="http://www.w3.org/2000/svg" xmlns:xlink="http://www.w3.org/1999/xlink">
<g id="graph0" class="graph" transform="scale(1 1) rotate(0) translate(4 84)">
<title>it.unitn.healthcore.controller.PatientController.viewFutureAppointments</title>
<polygon fill="white" stroke="transparent" points="-4,4 -4,-84 903,-84 903,4 -4,4"/>
<!-- Node1 -->
<g id="node1" class="node">
<title>Node1</title>
<g id="a_node1"><a xlink:title=" ">
<polygon fill="#bfbfbf" stroke="black" points="0,-24.5 0,-54.5 223,-54.5 223,-24.5 0,-24.5"/>
<text text-anchor="start" x="8" y="-42.5" font-family="Helvetica,sans-Serif" font-size="10.00">it.unitn.healthcore.controller.</text>
<text text-anchor="middle" x="111.5" y="-31.5" font-family="Helvetica,sans-Serif" font-size="10.00">PatientController.viewFutureAppointments</text>
</a>
</g>
</g>
<!-- Node2 -->
<g id="node2" class="node">
<title>Node2</title>
<g id="a_node2"><a xlink:href="classit_1_1unitn_1_1healthcore_1_1business_1_1AppointmentService.html#aed50e6f0cf3a16af4d8754c66060512d" target="_top" xlink:title=" ">
<polygon fill="white" stroke="black" points="259,-24.5 259,-54.5 492,-54.5 492,-24.5 259,-24.5"/>
<text text-anchor="start" x="267" y="-42.5" font-family="Helvetica,sans-Serif" font-size="10.00">it.unitn.healthcore.business.</text>
<text text-anchor="middle" x="375.5" y="-31.5" font-family="Helvetica,sans-Serif" font-size="10.00">AppointmentService.getFutureAppointments</text>
</a>
</g>
</g>
<!-- Node1&#45;&gt;Node2 -->
<g id="edge1" class="edge">
<title>Node1&#45;&gt;Node2</title>
<path fill="none" stroke="midnightblue" d="M223.23,-39.5C231.57,-39.5 240.02,-39.5 248.45,-39.5"/>
<polygon fill="midnightblue" stroke="midnightblue" points="248.7,-43 258.7,-39.5 248.7,-36 248.7,-43"/>
</g>
<!-- Node3 -->
<g id="node3" class="node">
<title>Node3</title>
<g id="a_node3"><a xlink:href="classit_1_1unitn_1_1healthcore_1_1business_1_1UserService.html#a33213d05bfda4e7384e17b18332d4bb5" target="_top" xlink:title=" ">
<polygon fill="white" stroke="black" points="528,-24.5 528,-54.5 683,-54.5 683,-24.5 528,-24.5"/>
<text text-anchor="start" x="536" y="-42.5" font-family="Helvetica,sans-Serif" font-size="10.00">it.unitn.healthcore.business.</text>
<text text-anchor="middle" x="605.5" y="-31.5" font-family="Helvetica,sans-Serif" font-size="10.00">UserService.getCurrentUser</text>
</a>
</g>
</g>
<!-- Node2&#45;&gt;Node3 -->
<g id="edge2" class="edge">
<title>Node2&#45;&gt;Node3</title>
<path fill="none" stroke="midnightblue" d="M492.17,-39.5C500.79,-39.5 509.4,-39.5 517.8,-39.5"/>
<polygon fill="midnightblue" stroke="midnightblue" points="517.92,-43 527.92,-39.5 517.92,-36 517.92,-43"/>
</g>
<!-- Node4 -->
<g id="node4" class="node">
<title>Node4</title>
<g id="a_node4"><a xlink:href="interfaceit_1_1unitn_1_1healthcore_1_1persistence_1_1UserRepository.html#a6a646ae44d01189ff44c81c03fc92fa8" target="_top" xlink:title=" ">
<polygon fill="white" stroke="black" points="722,-49.5 722,-79.5 896,-79.5 896,-49.5 722,-49.5"/>
<text text-anchor="start" x="730" y="-67.5" font-family="Helvetica,sans-Serif" font-size="10.00">it.unitn.healthcore.persistence.</text>
<text text-anchor="middle" x="809" y="-56.5" font-family="Helvetica,sans-Serif" font-size="10.00">UserRepository.findUserByEmail</text>
</a>
</g>
</g>
<!-- Node3&#45;&gt;Node4 -->
<g id="edge3" class="edge">
<title>Node3&#45;&gt;Node4</title>
<path fill="none" stroke="midnightblue" d="M683.25,-49.02C692.58,-50.18 702.2,-51.37 711.76,-52.56"/>
<polygon fill="midnightblue" stroke="midnightblue" points="711.34,-56.03 721.7,-53.79 712.2,-49.09 711.34,-56.03"/>
</g>
<!-- Node5 -->
<g id="node5" class="node">
<title>Node5</title>
<g id="a_node5"><a xlink:href="classit_1_1unitn_1_1healthcore_1_1business_1_1UserService.html#a703ed9778e3ac6cd9741220089b5f48d" target="_top" xlink:title=" ">
<polygon fill="white" stroke="black" points="719,-0.5 719,-30.5 899,-30.5 899,-0.5 719,-0.5"/>
<text text-anchor="start" x="727" y="-18.5" font-family="Helvetica,sans-Serif" font-size="10.00">it.unitn.healthcore.business.</text>
<text text-anchor="middle" x="809" y="-7.5" font-family="Helvetica,sans-Serif" font-size="10.00">UserService.getCurrentUserEmail</text>
</a>
</g>
</g>
<!-- Node3&#45;&gt;Node5 -->
<g id="edge4" class="edge">
<title>Node3&#45;&gt;Node5</title>
<path fill="none" stroke="midnightblue" d="M683.25,-30.36C691.65,-29.36 700.28,-28.33 708.89,-27.3"/>
<polygon fill="midnightblue" stroke="midnightblue" points="709.46,-30.76 718.98,-26.1 708.63,-23.81 709.46,-30.76"/>
</g>
</g>
</svg>
