<?xml version="1.0" encoding="UTF-8" standalone="no"?>
<!DOCTYPE svg PUBLIC "-//W3C//DTD SVG 1.1//EN"
 "http://www.w3.org/Graphics/SVG/1.1/DTD/svg11.dtd">
<!-- Generated by graphviz version 2.43.0 (0)
 -->
<!-- Title: it.unitn.healthcore.domain.User.getSurname Pages: 1 -->
<svg width="626pt" height="137pt"
 viewBox="0.00 0.00 626.00 137.00" xmlns="http://www.w3.org/2000/svg" xmlns:xlink="http://www.w3.org/1999/xlink">
<g id="graph0" class="graph" transform="scale(1 1) rotate(0) translate(4 133)">
<title>it.unitn.healthcore.domain.User.getSurname</title>
<polygon fill="white" stroke="transparent" points="-4,4 -4,-133 622,-133 622,4 -4,4"/>
<!-- Node1 -->
<g id="node1" class="node">
<title>Node1</title>
<g id="a_node1"><a xlink:title="Returns the last name of the user.">
<polygon fill="#bfbfbf" stroke="black" points="469,-49.5 469,-79.5 618,-79.5 618,-49.5 469,-49.5"/>
<text text-anchor="start" x="477" y="-67.5" font-family="Helvetica,sans-Serif" font-size="10.00">it.unitn.healthcore.domain.</text>
<text text-anchor="middle" x="543.5" y="-56.5" font-family="Helvetica,sans-Serif" font-size="10.00">User.getSurname</text>
</a>
</g>
</g>
<!-- Node2 -->
<g id="node2" class="node">
<title>Node2</title>
<g id="a_node2"><a xlink:href="classit_1_1unitn_1_1healthcore_1_1controller_1_1PatientController.html#a6c1b2c866308e0723c5b9157149ab47b" target="_top" xlink:title="Books an appointment with a specified doctor for the authenticated patient.">
<polygon fill="white" stroke="black" points="242.5,-98.5 242.5,-128.5 430.5,-128.5 430.5,-98.5 242.5,-98.5"/>
<text text-anchor="start" x="250.5" y="-116.5" font-family="Helvetica,sans-Serif" font-size="10.00">it.unitn.healthcore.controller.</text>
<text text-anchor="middle" x="336.5" y="-105.5" font-family="Helvetica,sans-Serif" font-size="10.00">PatientController.bookAppointment</text>
</a>
</g>
</g>
<!-- Node1&#45;&gt;Node2 -->
<g id="edge1" class="edge">
<title>Node1&#45;&gt;Node2</title>
<path fill="none" stroke="midnightblue" d="M469.69,-81.9C447.01,-87.32 422.21,-93.25 400.28,-98.49"/>
<polygon fill="midnightblue" stroke="midnightblue" points="470.69,-85.26 479.6,-79.53 469.06,-78.46 470.69,-85.26"/>
</g>
<!-- Node3 -->
<g id="node3" class="node">
<title>Node3</title>
<g id="a_node3"><a xlink:href="classit_1_1unitn_1_1healthcore_1_1business_1_1PatientService.html#ab163cba2913666d9f4505d4b6e7e1a69" target="_top" xlink:title="Retrieves detailed information about a doctor based on their ID.">
<polygon fill="white" stroke="black" points="240,-49.5 240,-79.5 433,-79.5 433,-49.5 240,-49.5"/>
<text text-anchor="start" x="248" y="-67.5" font-family="Helvetica,sans-Serif" font-size="10.00">it.unitn.healthcore.business.</text>
<text text-anchor="middle" x="336.5" y="-56.5" font-family="Helvetica,sans-Serif" font-size="10.00">PatientService.getDoctorDescription</text>
</a>
</g>
</g>
<!-- Node1&#45;&gt;Node3 -->
<g id="edge2" class="edge">
<title>Node1&#45;&gt;Node3</title>
<path fill="none" stroke="midnightblue" d="M458.61,-64.5C450.19,-64.5 441.59,-64.5 433.06,-64.5"/>
<polygon fill="midnightblue" stroke="midnightblue" points="458.78,-68 468.78,-64.5 458.78,-61 458.78,-68"/>
</g>
<!-- Node5 -->
<g id="node5" class="node">
<title>Node5</title>
<g id="a_node5"><a xlink:href="classit_1_1unitn_1_1healthcore_1_1business_1_1UserService.html#a114823fda5c213bb46bc935608bb8953" target="_top" xlink:title="Updates the profile of the currently authenticated user based on the provided object .">
<polygon fill="white" stroke="black" points="254,-0.5 254,-30.5 419,-30.5 419,-0.5 254,-0.5"/>
<text text-anchor="start" x="262" y="-18.5" font-family="Helvetica,sans-Serif" font-size="10.00">it.unitn.healthcore.business.</text>
<text text-anchor="middle" x="336.5" y="-7.5" font-family="Helvetica,sans-Serif" font-size="10.00">UserService.updateUserProfile</text>
</a>
</g>
</g>
<!-- Node1&#45;&gt;Node5 -->
<g id="edge4" class="edge">
<title>Node1&#45;&gt;Node5</title>
<path fill="none" stroke="midnightblue" d="M469.69,-47.1C447.01,-41.68 422.21,-35.75 400.28,-30.51"/>
<polygon fill="midnightblue" stroke="midnightblue" points="469.06,-50.54 479.6,-49.47 470.69,-43.74 469.06,-50.54"/>
</g>
<!-- Node4 -->
<g id="node4" class="node">
<title>Node4</title>
<g id="a_node4"><a xlink:href="classit_1_1unitn_1_1healthcore_1_1controller_1_1PatientController.html#aaf7a71336886e01fdc45116e44bf67db" target="_top" xlink:title="Retrieves the current insurance plan of the authenticated patient.">
<polygon fill="white" stroke="black" points="0,-49.5 0,-79.5 204,-79.5 204,-49.5 0,-49.5"/>
<text text-anchor="start" x="8" y="-67.5" font-family="Helvetica,sans-Serif" font-size="10.00">it.unitn.healthcore.controller.</text>
<text text-anchor="middle" x="102" y="-56.5" font-family="Helvetica,sans-Serif" font-size="10.00">PatientController.getDoctorDescription</text>
</a>
</g>
</g>
<!-- Node3&#45;&gt;Node4 -->
<g id="edge3" class="edge">
<title>Node3&#45;&gt;Node4</title>
<path fill="none" stroke="midnightblue" d="M229.66,-64.5C221.2,-64.5 212.66,-64.5 204.23,-64.5"/>
<polygon fill="midnightblue" stroke="midnightblue" points="229.93,-68 239.93,-64.5 229.93,-61 229.93,-68"/>
</g>
<!-- Node6 -->
<g id="node6" class="node">
<title>Node6</title>
<g id="a_node6"><a xlink:href="classit_1_1unitn_1_1healthcore_1_1controller_1_1UserController.html#a546d5ed79a6b2f6f15000d9ddb3b03ab" target="_top" xlink:title="handle the profile update request by updating the user&#39;s profile information and redirecting to the p...">
<polygon fill="white" stroke="black" points="23,-0.5 23,-30.5 181,-30.5 181,-0.5 23,-0.5"/>
<text text-anchor="start" x="31" y="-18.5" font-family="Helvetica,sans-Serif" font-size="10.00">it.unitn.healthcore.controller.</text>
<text text-anchor="middle" x="102" y="-7.5" font-family="Helvetica,sans-Serif" font-size="10.00">UserController.updateProfile</text>
</a>
</g>
</g>
<!-- Node5&#45;&gt;Node6 -->
<g id="edge5" class="edge">
<title>Node5&#45;&gt;Node6</title>
<path fill="none" stroke="midnightblue" d="M243.81,-15.5C223.14,-15.5 201.38,-15.5 181.32,-15.5"/>
<polygon fill="midnightblue" stroke="midnightblue" points="243.86,-19 253.86,-15.5 243.86,-12 243.86,-19"/>
</g>
</g>
</svg>
