<?xml version="1.0" encoding="UTF-8" standalone="no"?>
<!DOCTYPE svg PUBLIC "-//W3C//DTD SVG 1.1//EN"
 "http://www.w3.org/Graphics/SVG/1.1/DTD/svg11.dtd">
<!-- Generated by graphviz version 2.43.0 (0)
 -->
<!-- Title: it.unitn.healthcore.controller.DoctorController.viewPastAppointments Pages: 1 -->
<svg width="885pt" height="88pt"
 viewBox="0.00 0.00 885.00 88.00" xmlns="http://www.w3.org/2000/svg" xmlns:xlink="http://www.w3.org/1999/xlink">
<g id="graph0" class="graph" transform="scale(1 1) rotate(0) translate(4 84)">
<title>it.unitn.healthcore.controller.DoctorController.viewPastAppointments</title>
<polygon fill="white" stroke="transparent" points="-4,4 -4,-84 881,-84 881,4 -4,4"/>
<!-- Node1 -->
<g id="node1" class="node">
<title>Node1</title>
<g id="a_node1"><a xlink:title="Retrieves a list of past appointments for the currently authenticated doctor.">
<polygon fill="#bfbfbf" stroke="black" points="0,-24.5 0,-54.5 211,-54.5 211,-24.5 0,-24.5"/>
<text text-anchor="start" x="8" y="-42.5" font-family="Helvetica,sans-Serif" font-size="10.00">it.unitn.healthcore.controller.</text>
<text text-anchor="middle" x="105.5" y="-31.5" font-family="Helvetica,sans-Serif" font-size="10.00">DoctorController.viewPastAppointments</text>
</a>
</g>
</g>
<!-- Node2 -->
<g id="node2" class="node">
<title>Node2</title>
<g id="a_node2"><a xlink:href="classit_1_1unitn_1_1healthcore_1_1business_1_1AppointmentService.html#aaaacaf474fcb34004e52bafc3ade271d" target="_top" xlink:title=" ">
<polygon fill="white" stroke="black" points="247,-24.5 247,-54.5 470,-54.5 470,-24.5 247,-24.5"/>
<text text-anchor="start" x="255" y="-42.5" font-family="Helvetica,sans-Serif" font-size="10.00">it.unitn.healthcore.business.</text>
<text text-anchor="middle" x="358.5" y="-31.5" font-family="Helvetica,sans-Serif" font-size="10.00">AppointmentService.getPastAppointments</text>
</a>
</g>
</g>
<!-- Node1&#45;&gt;Node2 -->
<g id="edge1" class="edge">
<title>Node1&#45;&gt;Node2</title>
<path fill="none" stroke="midnightblue" d="M211.13,-39.5C219.64,-39.5 228.28,-39.5 236.89,-39.5"/>
<polygon fill="midnightblue" stroke="midnightblue" points="236.97,-43 246.97,-39.5 236.97,-36 236.97,-43"/>
</g>
<!-- Node3 -->
<g id="node3" class="node">
<title>Node3</title>
<g id="a_node3"><a xlink:href="classit_1_1unitn_1_1healthcore_1_1business_1_1UserService.html#a33213d05bfda4e7384e17b18332d4bb5" target="_top" xlink:title=" ">
<polygon fill="white" stroke="black" points="506,-24.5 506,-54.5 661,-54.5 661,-24.5 506,-24.5"/>
<text text-anchor="start" x="514" y="-42.5" font-family="Helvetica,sans-Serif" font-size="10.00">it.unitn.healthcore.business.</text>
<text text-anchor="middle" x="583.5" y="-31.5" font-family="Helvetica,sans-Serif" font-size="10.00">UserService.getCurrentUser</text>
</a>
</g>
</g>
<!-- Node2&#45;&gt;Node3 -->
<g id="edge2" class="edge">
<title>Node2&#45;&gt;Node3</title>
<path fill="none" stroke="midnightblue" d="M470.02,-39.5C478.66,-39.5 487.31,-39.5 495.76,-39.5"/>
<polygon fill="midnightblue" stroke="midnightblue" points="495.96,-43 505.96,-39.5 495.96,-36 495.96,-43"/>
</g>
<!-- Node4 -->
<g id="node4" class="node">
<title>Node4</title>
<g id="a_node4"><a xlink:href="interfaceit_1_1unitn_1_1healthcore_1_1persistence_1_1UserRepository.html#a6a646ae44d01189ff44c81c03fc92fa8" target="_top" xlink:title=" ">
<polygon fill="white" stroke="black" points="700,-49.5 700,-79.5 874,-79.5 874,-49.5 700,-49.5"/>
<text text-anchor="start" x="708" y="-67.5" font-family="Helvetica,sans-Serif" font-size="10.00">it.unitn.healthcore.persistence.</text>
<text text-anchor="middle" x="787" y="-56.5" font-family="Helvetica,sans-Serif" font-size="10.00">UserRepository.findUserByEmail</text>
</a>
</g>
</g>
<!-- Node3&#45;&gt;Node4 -->
<g id="edge3" class="edge">
<title>Node3&#45;&gt;Node4</title>
<path fill="none" stroke="midnightblue" d="M661.25,-49.02C670.58,-50.18 680.2,-51.37 689.76,-52.56"/>
<polygon fill="midnightblue" stroke="midnightblue" points="689.34,-56.03 699.7,-53.79 690.2,-49.09 689.34,-56.03"/>
</g>
<!-- Node5 -->
<g id="node5" class="node">
<title>Node5</title>
<g id="a_node5"><a xlink:href="classit_1_1unitn_1_1healthcore_1_1business_1_1UserService.html#a703ed9778e3ac6cd9741220089b5f48d" target="_top" xlink:title=" ">
<polygon fill="white" stroke="black" points="697,-0.5 697,-30.5 877,-30.5 877,-0.5 697,-0.5"/>
<text text-anchor="start" x="705" y="-18.5" font-family="Helvetica,sans-Serif" font-size="10.00">it.unitn.healthcore.business.</text>
<text text-anchor="middle" x="787" y="-7.5" font-family="Helvetica,sans-Serif" font-size="10.00">UserService.getCurrentUserEmail</text>
</a>
</g>
</g>
<!-- Node3&#45;&gt;Node5 -->
<g id="edge4" class="edge">
<title>Node3&#45;&gt;Node5</title>
<path fill="none" stroke="midnightblue" d="M661.25,-30.36C669.65,-29.36 678.28,-28.33 686.89,-27.3"/>
<polygon fill="midnightblue" stroke="midnightblue" points="687.46,-30.76 696.98,-26.1 686.63,-23.81 687.46,-30.76"/>
</g>
</g>
</svg>
