<?xml version="1.0" encoding="UTF-8" standalone="no"?>
<!DOCTYPE svg PUBLIC "-//W3C//DTD SVG 1.1//EN"
 "http://www.w3.org/Graphics/SVG/1.1/DTD/svg11.dtd">
<!-- Generated by graphviz version 2.43.0 (0)
 -->
<!-- Title: it.unitn.healthcore.domain.User.getEmail Pages: 1 -->
<svg width="626pt" height="186pt"
 viewBox="0.00 0.00 626.00 186.00" xmlns="http://www.w3.org/2000/svg" xmlns:xlink="http://www.w3.org/1999/xlink">
<g id="graph0" class="graph" transform="scale(1 1) rotate(0) translate(4 182)">
<title>it.unitn.healthcore.domain.User.getEmail</title>
<polygon fill="white" stroke="transparent" points="-4,4 -4,-182 622,-182 622,4 -4,4"/>
<!-- Node1 -->
<g id="node1" class="node">
<title>Node1</title>
<g id="a_node1"><a xlink:title="Returns the email address of the user.">
<polygon fill="#bfbfbf" stroke="black" points="469,-73.5 469,-103.5 618,-103.5 618,-73.5 469,-73.5"/>
<text text-anchor="start" x="477" y="-91.5" font-family="Helvetica,sans-Serif" font-size="10.00">it.unitn.healthcore.domain.</text>
<text text-anchor="middle" x="543.5" y="-80.5" font-family="Helvetica,sans-Serif" font-size="10.00">User.getEmail</text>
</a>
</g>
</g>
<!-- Node2 -->
<g id="node2" class="node">
<title>Node2</title>
<g id="a_node2"><a xlink:href="classit_1_1unitn_1_1healthcore_1_1controller_1_1PatientController.html#a6c1b2c866308e0723c5b9157149ab47b" target="_top" xlink:title=" ">
<polygon fill="white" stroke="black" points="242.5,-147.5 242.5,-177.5 430.5,-177.5 430.5,-147.5 242.5,-147.5"/>
<text text-anchor="start" x="250.5" y="-165.5" font-family="Helvetica,sans-Serif" font-size="10.00">it.unitn.healthcore.controller.</text>
<text text-anchor="middle" x="336.5" y="-154.5" font-family="Helvetica,sans-Serif" font-size="10.00">PatientController.bookAppointment</text>
</a>
</g>
</g>
<!-- Node1&#45;&gt;Node2 -->
<g id="edge1" class="edge">
<title>Node1&#45;&gt;Node2</title>
<path fill="none" stroke="midnightblue" d="M504.26,-108.04C483.54,-118.09 457.28,-129.98 433,-138.5 423.72,-141.75 413.8,-144.76 403.98,-147.46"/>
<polygon fill="midnightblue" stroke="midnightblue" points="505.92,-111.12 513.36,-103.57 502.84,-104.84 505.92,-111.12"/>
</g>
<!-- Node3 -->
<g id="node3" class="node">
<title>Node3</title>
<g id="a_node3"><a xlink:href="classit_1_1unitn_1_1healthcore_1_1business_1_1PatientService.html#ab163cba2913666d9f4505d4b6e7e1a69" target="_top" xlink:title=" ">
<polygon fill="white" stroke="black" points="240,-98.5 240,-128.5 433,-128.5 433,-98.5 240,-98.5"/>
<text text-anchor="start" x="248" y="-116.5" font-family="Helvetica,sans-Serif" font-size="10.00">it.unitn.healthcore.business.</text>
<text text-anchor="middle" x="336.5" y="-105.5" font-family="Helvetica,sans-Serif" font-size="10.00">PatientService.getDoctorDescription</text>
</a>
</g>
</g>
<!-- Node1&#45;&gt;Node3 -->
<g id="edge2" class="edge">
<title>Node1&#45;&gt;Node3</title>
<path fill="none" stroke="midnightblue" d="M458.61,-98.73C450.19,-99.76 441.59,-100.81 433.06,-101.85"/>
<polygon fill="midnightblue" stroke="midnightblue" points="459.28,-102.18 468.78,-97.49 458.43,-95.23 459.28,-102.18"/>
</g>
<!-- Node5 -->
<g id="node5" class="node">
<title>Node5</title>
<g id="a_node5"><a xlink:href="classit_1_1unitn_1_1healthcore_1_1domain_1_1SecurityUser.html#a454663d8a8a5b1688e949c20c90ee222" target="_top" xlink:title=" ">
<polygon fill="white" stroke="black" points="262,-49.5 262,-79.5 411,-79.5 411,-49.5 262,-49.5"/>
<text text-anchor="start" x="270" y="-67.5" font-family="Helvetica,sans-Serif" font-size="10.00">it.unitn.healthcore.domain.</text>
<text text-anchor="middle" x="336.5" y="-56.5" font-family="Helvetica,sans-Serif" font-size="10.00">SecurityUser.getUsername</text>
</a>
</g>
</g>
<!-- Node1&#45;&gt;Node5 -->
<g id="edge4" class="edge">
<title>Node1&#45;&gt;Node5</title>
<path fill="none" stroke="midnightblue" d="M458.58,-78.67C442.89,-76.84 426.6,-74.93 411.25,-73.13"/>
<polygon fill="midnightblue" stroke="midnightblue" points="458.44,-82.18 468.78,-79.87 459.25,-75.23 458.44,-82.18"/>
</g>
<!-- Node6 -->
<g id="node6" class="node">
<title>Node6</title>
<g id="a_node6"><a xlink:href="classit_1_1unitn_1_1healthcore_1_1business_1_1UserService.html#a114823fda5c213bb46bc935608bb8953" target="_top" xlink:title=" ">
<polygon fill="white" stroke="black" points="254,-0.5 254,-30.5 419,-30.5 419,-0.5 254,-0.5"/>
<text text-anchor="start" x="262" y="-18.5" font-family="Helvetica,sans-Serif" font-size="10.00">it.unitn.healthcore.business.</text>
<text text-anchor="middle" x="336.5" y="-7.5" font-family="Helvetica,sans-Serif" font-size="10.00">UserService.updateUserProfile</text>
</a>
</g>
</g>
<!-- Node1&#45;&gt;Node6 -->
<g id="edge5" class="edge">
<title>Node1&#45;&gt;Node6</title>
<path fill="none" stroke="midnightblue" d="M502.1,-68.97C481.69,-59.58 456.36,-48.62 433,-40.5 422.64,-36.9 411.49,-33.53 400.59,-30.52"/>
<polygon fill="midnightblue" stroke="midnightblue" points="500.86,-72.25 511.4,-73.3 503.81,-65.91 500.86,-72.25"/>
</g>
<!-- Node4 -->
<g id="node4" class="node">
<title>Node4</title>
<g id="a_node4"><a xlink:href="classit_1_1unitn_1_1healthcore_1_1controller_1_1PatientController.html#aaf7a71336886e01fdc45116e44bf67db" target="_top" xlink:title=" ">
<polygon fill="white" stroke="black" points="0,-98.5 0,-128.5 204,-128.5 204,-98.5 0,-98.5"/>
<text text-anchor="start" x="8" y="-116.5" font-family="Helvetica,sans-Serif" font-size="10.00">it.unitn.healthcore.controller.</text>
<text text-anchor="middle" x="102" y="-105.5" font-family="Helvetica,sans-Serif" font-size="10.00">PatientController.getDoctorDescription</text>
</a>
</g>
</g>
<!-- Node3&#45;&gt;Node4 -->
<g id="edge3" class="edge">
<title>Node3&#45;&gt;Node4</title>
<path fill="none" stroke="midnightblue" d="M229.66,-113.5C221.2,-113.5 212.66,-113.5 204.23,-113.5"/>
<polygon fill="midnightblue" stroke="midnightblue" points="229.93,-117 239.93,-113.5 229.93,-110 229.93,-117"/>
</g>
<!-- Node7 -->
<g id="node7" class="node">
<title>Node7</title>
<g id="a_node7"><a xlink:href="classit_1_1unitn_1_1healthcore_1_1controller_1_1UserController.html#a546d5ed79a6b2f6f15000d9ddb3b03ab" target="_top" xlink:title=" ">
<polygon fill="white" stroke="black" points="23,-0.5 23,-30.5 181,-30.5 181,-0.5 23,-0.5"/>
<text text-anchor="start" x="31" y="-18.5" font-family="Helvetica,sans-Serif" font-size="10.00">it.unitn.healthcore.controller.</text>
<text text-anchor="middle" x="102" y="-7.5" font-family="Helvetica,sans-Serif" font-size="10.00">UserController.updateProfile</text>
</a>
</g>
</g>
<!-- Node6&#45;&gt;Node7 -->
<g id="edge6" class="edge">
<title>Node6&#45;&gt;Node7</title>
<path fill="none" stroke="midnightblue" d="M243.81,-15.5C223.14,-15.5 201.38,-15.5 181.32,-15.5"/>
<polygon fill="midnightblue" stroke="midnightblue" points="243.86,-19 253.86,-15.5 243.86,-12 243.86,-19"/>
</g>
</g>
</svg>
