<?xml version="1.0" encoding="UTF-8" standalone="no"?>
<!DOCTYPE svg PUBLIC "-//W3C//DTD SVG 1.1//EN"
 "http://www.w3.org/Graphics/SVG/1.1/DTD/svg11.dtd">
<!-- Generated by graphviz version 2.43.0 (0)
 -->
<!-- Title: it.unitn.healthcore.controller.DoctorController.changeDepartment Pages: 1 -->
<svg width="639pt" height="137pt"
 viewBox="0.00 0.00 639.00 137.00" xmlns="http://www.w3.org/2000/svg" xmlns:xlink="http://www.w3.org/1999/xlink">
<g id="graph0" class="graph" transform="scale(1 1) rotate(0) translate(4 133)">
<title>it.unitn.healthcore.controller.DoctorController.changeDepartment</title>
<polygon fill="white" stroke="transparent" points="-4,4 -4,-133 635,-133 635,4 -4,4"/>
<!-- Node1 -->
<g id="node1" class="node">
<title>Node1</title>
<g id="a_node1"><a xlink:title="Changes the department assignment for a specific doctor.">
<polygon fill="#bfbfbf" stroke="black" points="0,-49.5 0,-79.5 193,-79.5 193,-49.5 0,-49.5"/>
<text text-anchor="start" x="8" y="-67.5" font-family="Helvetica,sans-Serif" font-size="10.00">it.unitn.healthcore.controller.</text>
<text text-anchor="middle" x="96.5" y="-56.5" font-family="Helvetica,sans-Serif" font-size="10.00">DoctorController.changeDepartment</text>
</a>
</g>
</g>
<!-- Node2 -->
<g id="node2" class="node">
<title>Node2</title>
<g id="a_node2"><a xlink:href="classit_1_1unitn_1_1healthcore_1_1business_1_1DoctorService.html#ab2c93c48b93c7f003012f699a06841cc" target="_top" xlink:title="Changes the department of a doctor to a new department.">
<polygon fill="white" stroke="black" points="229,-49.5 229,-79.5 411,-79.5 411,-49.5 229,-49.5"/>
<text text-anchor="start" x="237" y="-67.5" font-family="Helvetica,sans-Serif" font-size="10.00">it.unitn.healthcore.business.</text>
<text text-anchor="middle" x="320" y="-56.5" font-family="Helvetica,sans-Serif" font-size="10.00">DoctorService.changeDepartment</text>
</a>
</g>
</g>
<!-- Node1&#45;&gt;Node2 -->
<g id="edge1" class="edge">
<title>Node1&#45;&gt;Node2</title>
<path fill="none" stroke="midnightblue" d="M193.04,-64.5C201.45,-64.5 209.98,-64.5 218.42,-64.5"/>
<polygon fill="midnightblue" stroke="midnightblue" points="218.67,-68 228.67,-64.5 218.67,-61 218.67,-68"/>
</g>
<!-- Node3 -->
<g id="node3" class="node">
<title>Node3</title>
<g id="a_node3"><a xlink:href="classit_1_1unitn_1_1healthcore_1_1domain_1_1Department.html#ad38ac8809036af86857a94672fd341e0" target="_top" xlink:title=" ">
<polygon fill="white" stroke="black" points="464.5,-98.5 464.5,-128.5 613.5,-128.5 613.5,-98.5 464.5,-98.5"/>
<text text-anchor="start" x="472.5" y="-116.5" font-family="Helvetica,sans-Serif" font-size="10.00">it.unitn.healthcore.domain.</text>
<text text-anchor="middle" x="539" y="-105.5" font-family="Helvetica,sans-Serif" font-size="10.00">Department.getDoctors</text>
</a>
</g>
</g>
<!-- Node2&#45;&gt;Node3 -->
<g id="edge2" class="edge">
<title>Node2&#45;&gt;Node3</title>
<path fill="none" stroke="midnightblue" d="M387.58,-79.53C411.01,-84.83 437.53,-90.81 461.7,-96.27"/>
<polygon fill="midnightblue" stroke="midnightblue" points="461.02,-99.71 471.54,-98.49 462.56,-92.88 461.02,-99.71"/>
</g>
<!-- Node4 -->
<g id="node4" class="node">
<title>Node4</title>
<g id="a_node4"><a xlink:href="classit_1_1unitn_1_1healthcore_1_1domain_1_1Department.html#adb4a544815968649e801e2182b7069f0" target="_top" xlink:title="Returns the total staff positions within the department.">
<polygon fill="white" stroke="black" points="447,-49.5 447,-79.5 631,-79.5 631,-49.5 447,-49.5"/>
<text text-anchor="start" x="455" y="-67.5" font-family="Helvetica,sans-Serif" font-size="10.00">it.unitn.healthcore.domain.</text>
<text text-anchor="middle" x="539" y="-56.5" font-family="Helvetica,sans-Serif" font-size="10.00">Department.getTotalStaffPositions</text>
</a>
</g>
</g>
<!-- Node2&#45;&gt;Node4 -->
<g id="edge3" class="edge">
<title>Node2&#45;&gt;Node4</title>
<path fill="none" stroke="midnightblue" d="M411.14,-64.5C419.5,-64.5 428.01,-64.5 436.47,-64.5"/>
<polygon fill="midnightblue" stroke="midnightblue" points="436.74,-68 446.74,-64.5 436.74,-61 436.74,-68"/>
</g>
<!-- Node5 -->
<g id="node5" class="node">
<title>Node5</title>
<g id="a_node5"><a xlink:href="classit_1_1unitn_1_1healthcore_1_1domain_1_1Doctor.html#a38578f80c03e1b587010e19bbc37fa4d" target="_top" xlink:title="Department setter.">
<polygon fill="white" stroke="black" points="464.5,-0.5 464.5,-30.5 613.5,-30.5 613.5,-0.5 464.5,-0.5"/>
<text text-anchor="start" x="472.5" y="-18.5" font-family="Helvetica,sans-Serif" font-size="10.00">it.unitn.healthcore.domain.</text>
<text text-anchor="middle" x="539" y="-7.5" font-family="Helvetica,sans-Serif" font-size="10.00">Doctor.setDepartment</text>
</a>
</g>
</g>
<!-- Node2&#45;&gt;Node5 -->
<g id="edge4" class="edge">
<title>Node2&#45;&gt;Node5</title>
<path fill="none" stroke="midnightblue" d="M387.58,-49.47C411.01,-44.17 437.53,-38.19 461.7,-32.73"/>
<polygon fill="midnightblue" stroke="midnightblue" points="462.56,-36.12 471.54,-30.51 461.02,-29.29 462.56,-36.12"/>
</g>
</g>
</svg>
