<?xml version="1.0" encoding="UTF-8" standalone="no"?>
<!DOCTYPE svg PUBLIC "-//W3C//DTD SVG 1.1//EN"
 "http://www.w3.org/Graphics/SVG/1.1/DTD/svg11.dtd">
<!-- Generated by graphviz version 2.43.0 (0)
 -->
<!-- Title: it.unitn.healthcore.business.UserService.getCurrentUserEmail Pages: 1 -->
<svg width="907pt" height="639pt"
 viewBox="0.00 0.00 907.00 639.00" xmlns="http://www.w3.org/2000/svg" xmlns:xlink="http://www.w3.org/1999/xlink">
<g id="graph0" class="graph" transform="scale(1 1) rotate(0) translate(4 635)">
<title>it.unitn.healthcore.business.UserService.getCurrentUserEmail</title>
<polygon fill="white" stroke="transparent" points="-4,4 -4,-635 903,-635 903,4 -4,4"/>
<!-- Node1 -->
<g id="node1" class="node">
<title>Node1</title>
<g id="a_node1"><a xlink:title="Retrieves the email of the currently authenticated user.">
<polygon fill="#bfbfbf" stroke="black" points="719,-294.5 719,-324.5 899,-324.5 899,-294.5 719,-294.5"/>
<text text-anchor="start" x="727" y="-312.5" font-family="Helvetica,sans-Serif" font-size="10.00">it.unitn.healthcore.business.</text>
<text text-anchor="middle" x="809" y="-301.5" font-family="Helvetica,sans-Serif" font-size="10.00">UserService.getCurrentUserEmail</text>
</a>
</g>
</g>
<!-- Node2 -->
<g id="node2" class="node">
<title>Node2</title>
<g id="a_node2"><a xlink:href="classit_1_1unitn_1_1healthcore_1_1business_1_1UserService.html#a33213d05bfda4e7384e17b18332d4bb5" target="_top" xlink:title="Retrieves the currently authenticated user from the database.">
<polygon fill="white" stroke="black" points="528,-294.5 528,-324.5 683,-324.5 683,-294.5 528,-294.5"/>
<text text-anchor="start" x="536" y="-312.5" font-family="Helvetica,sans-Serif" font-size="10.00">it.unitn.healthcore.business.</text>
<text text-anchor="middle" x="605.5" y="-301.5" font-family="Helvetica,sans-Serif" font-size="10.00">UserService.getCurrentUser</text>
</a>
</g>
</g>
<!-- Node1&#45;&gt;Node2 -->
<g id="edge1" class="edge">
<title>Node1&#45;&gt;Node2</title>
<path fill="none" stroke="midnightblue" d="M708.67,-309.5C700.07,-309.5 691.45,-309.5 683.08,-309.5"/>
<polygon fill="midnightblue" stroke="midnightblue" points="708.74,-313 718.74,-309.5 708.74,-306 708.74,-313"/>
</g>
<!-- Node3 -->
<g id="node3" class="node">
<title>Node3</title>
<g id="a_node3"><a xlink:href="classit_1_1unitn_1_1healthcore_1_1business_1_1PatientService.html#ac33e02f57cc7f1ef55dd59cb5673781a" target="_top" xlink:title="Books an appointment with a specified doctor for the currently authenticated patient.">
<polygon fill="white" stroke="black" points="287.5,-600.5 287.5,-630.5 463.5,-630.5 463.5,-600.5 287.5,-600.5"/>
<text text-anchor="start" x="295.5" y="-618.5" font-family="Helvetica,sans-Serif" font-size="10.00">it.unitn.healthcore.business.</text>
<text text-anchor="middle" x="375.5" y="-607.5" font-family="Helvetica,sans-Serif" font-size="10.00">PatientService.bookAppointment</text>
</a>
</g>
</g>
<!-- Node2&#45;&gt;Node3 -->
<g id="edge2" class="edge">
<title>Node2&#45;&gt;Node3</title>
<path fill="none" stroke="midnightblue" d="M602.27,-334.61C595.93,-390.16 572.64,-523.85 492,-591.5 483.68,-598.48 473.86,-603.59 463.51,-607.32"/>
<polygon fill="midnightblue" stroke="midnightblue" points="605.76,-334.9 603.32,-324.59 598.8,-334.17 605.76,-334.9"/>
</g>
<!-- Node5 -->
<g id="node5" class="node">
<title>Node5</title>
<g id="a_node5"><a xlink:href="classit_1_1unitn_1_1healthcore_1_1business_1_1PatientService.html#a7f10372a6537c0f235e585bdb8b87c30" target="_top" xlink:title="Cancels an existing appointment for the currently authenticated patient.">
<polygon fill="white" stroke="black" points="283.5,-551.5 283.5,-581.5 467.5,-581.5 467.5,-551.5 283.5,-551.5"/>
<text text-anchor="start" x="291.5" y="-569.5" font-family="Helvetica,sans-Serif" font-size="10.00">it.unitn.healthcore.business.</text>
<text text-anchor="middle" x="375.5" y="-558.5" font-family="Helvetica,sans-Serif" font-size="10.00">PatientService.cancelAppointment</text>
</a>
</g>
</g>
<!-- Node2&#45;&gt;Node5 -->
<g id="edge4" class="edge">
<title>Node2&#45;&gt;Node5</title>
<path fill="none" stroke="midnightblue" d="M599.96,-334.56C589.83,-382.89 560.63,-488.91 492,-542.5 484.74,-548.17 476.46,-552.59 467.74,-556.02"/>
<polygon fill="midnightblue" stroke="midnightblue" points="603.42,-335.13 601.94,-324.63 596.55,-333.76 603.42,-335.13"/>
</g>
<!-- Node7 -->
<g id="node7" class="node">
<title>Node7</title>
<g id="a_node7"><a xlink:href="classit_1_1unitn_1_1healthcore_1_1controller_1_1UserController.html#aa9d85586ed83e4d9865621769e24fd81" target="_top" xlink:title="delete the current user&#39;s account and redirect to the login page.">
<polygon fill="white" stroke="black" points="296,-502.5 296,-532.5 455,-532.5 455,-502.5 296,-502.5"/>
<text text-anchor="start" x="304" y="-520.5" font-family="Helvetica,sans-Serif" font-size="10.00">it.unitn.healthcore.controller.</text>
<text text-anchor="middle" x="375.5" y="-509.5" font-family="Helvetica,sans-Serif" font-size="10.00">UserController.deleteAccount</text>
</a>
</g>
</g>
<!-- Node2&#45;&gt;Node7 -->
<g id="edge6" class="edge">
<title>Node2&#45;&gt;Node7</title>
<path fill="none" stroke="midnightblue" d="M596.52,-334.18C582.28,-374.11 548.55,-452.44 492,-492.5 481.12,-500.21 468.32,-505.62 455.27,-509.39"/>
<polygon fill="midnightblue" stroke="midnightblue" points="599.85,-335.27 599.8,-324.68 593.23,-332.99 599.85,-335.27"/>
</g>
<!-- Node8 -->
<g id="node8" class="node">
<title>Node8</title>
<g id="a_node8"><a xlink:href="classit_1_1unitn_1_1healthcore_1_1business_1_1AppointmentService.html#a6df398766f183e79fe315aea5f1752a4" target="_top" xlink:title="Retrieves detailed information about a specific appointment based on the appointment ID.">
<polygon fill="white" stroke="black" points="277,-442 277,-483 474,-483 474,-442 277,-442"/>
<text text-anchor="start" x="285" y="-471" font-family="Helvetica,sans-Serif" font-size="10.00">it.unitn.healthcore.business.</text>
<text text-anchor="start" x="285" y="-460" font-family="Helvetica,sans-Serif" font-size="10.00">AppointmentService.getAppointment</text>
<text text-anchor="middle" x="375.5" y="-449" font-family="Helvetica,sans-Serif" font-size="10.00">Details</text>
</a>
</g>
</g>
<!-- Node2&#45;&gt;Node8 -->
<g id="edge7" class="edge">
<title>Node2&#45;&gt;Node8</title>
<path fill="none" stroke="midnightblue" d="M589.39,-332.96C570.15,-360.91 534.28,-407.04 492,-432.5 486.14,-436.03 479.88,-439.14 473.4,-441.9"/>
<polygon fill="midnightblue" stroke="midnightblue" points="592.36,-334.82 595.04,-324.57 586.56,-330.91 592.36,-334.82"/>
</g>
<!-- Node11 -->
<g id="node11" class="node">
<title>Node11</title>
<g id="a_node11"><a xlink:href="classit_1_1unitn_1_1healthcore_1_1business_1_1DoctorService.html#a96292ffc9ef487c31145d1cd00f22b4e" target="_top" xlink:title="Retrieves the shifts of the currently authenticated doctor.">
<polygon fill="white" stroke="black" points="276,-392.5 276,-422.5 475,-422.5 475,-392.5 276,-392.5"/>
<text text-anchor="start" x="284" y="-410.5" font-family="Helvetica,sans-Serif" font-size="10.00">it.unitn.healthcore.business.</text>
<text text-anchor="middle" x="375.5" y="-399.5" font-family="Helvetica,sans-Serif" font-size="10.00">DoctorService.getCurrentDoctorShifts</text>
</a>
</g>
</g>
<!-- Node2&#45;&gt;Node11 -->
<g id="edge10" class="edge">
<title>Node2&#45;&gt;Node11</title>
<path fill="none" stroke="midnightblue" d="M578.14,-331.01C556.31,-347.75 523.83,-370.29 492,-383.5 483.68,-386.95 474.8,-389.93 465.81,-392.49"/>
<polygon fill="midnightblue" stroke="midnightblue" points="580.51,-333.6 586.24,-324.69 576.2,-328.08 580.51,-333.6"/>
</g>
<!-- Node13 -->
<g id="node13" class="node">
<title>Node13</title>
<g id="a_node13"><a xlink:href="classit_1_1unitn_1_1healthcore_1_1business_1_1PatientService.html#a9c5655c1b706c7dba40efb883c900a39" target="_top" xlink:title="Retrieves the current insurance plan for the authenticated patient.">
<polygon fill="white" stroke="black" points="271,-343.5 271,-373.5 480,-373.5 480,-343.5 271,-343.5"/>
<text text-anchor="start" x="279" y="-361.5" font-family="Helvetica,sans-Serif" font-size="10.00">it.unitn.healthcore.business.</text>
<text text-anchor="middle" x="375.5" y="-350.5" font-family="Helvetica,sans-Serif" font-size="10.00">PatientService.getCurrentInsurancePlan</text>
</a>
</g>
</g>
<!-- Node2&#45;&gt;Node13 -->
<g id="edge12" class="edge">
<title>Node2&#45;&gt;Node13</title>
<path fill="none" stroke="midnightblue" d="M527.67,-326.72C515.73,-329.35 503.54,-332.02 492,-334.5 478.28,-337.45 463.64,-340.54 449.54,-343.48"/>
<polygon fill="midnightblue" stroke="midnightblue" points="528.6,-330.1 537.61,-324.52 527.09,-323.27 528.6,-330.1"/>
</g>
<!-- Node15 -->
<g id="node15" class="node">
<title>Node15</title>
<g id="a_node15"><a xlink:href="classit_1_1unitn_1_1healthcore_1_1business_1_1AppointmentService.html#aed50e6f0cf3a16af4d8754c66060512d" target="_top" xlink:title="Retrieves a list of future appointments for the currently authenticated user.">
<polygon fill="white" stroke="black" points="259,-245.5 259,-275.5 492,-275.5 492,-245.5 259,-245.5"/>
<text text-anchor="start" x="267" y="-263.5" font-family="Helvetica,sans-Serif" font-size="10.00">it.unitn.healthcore.business.</text>
<text text-anchor="middle" x="375.5" y="-252.5" font-family="Helvetica,sans-Serif" font-size="10.00">AppointmentService.getFutureAppointments</text>
</a>
</g>
</g>
<!-- Node2&#45;&gt;Node15 -->
<g id="edge14" class="edge">
<title>Node2&#45;&gt;Node15</title>
<path fill="none" stroke="midnightblue" d="M524.54,-292.31C499.04,-286.84 471.04,-280.82 446.32,-275.51"/>
<polygon fill="midnightblue" stroke="midnightblue" points="524.03,-295.79 534.54,-294.47 525.5,-288.94 524.03,-295.79"/>
</g>
<!-- Node18 -->
<g id="node18" class="node">
<title>Node18</title>
<g id="a_node18"><a xlink:href="classit_1_1unitn_1_1healthcore_1_1business_1_1AppointmentService.html#aaaacaf474fcb34004e52bafc3ade271d" target="_top" xlink:title="Retrieves a list of past appointments for the currently authenticated user.">
<polygon fill="white" stroke="black" points="264,-196.5 264,-226.5 487,-226.5 487,-196.5 264,-196.5"/>
<text text-anchor="start" x="272" y="-214.5" font-family="Helvetica,sans-Serif" font-size="10.00">it.unitn.healthcore.business.</text>
<text text-anchor="middle" x="375.5" y="-203.5" font-family="Helvetica,sans-Serif" font-size="10.00">AppointmentService.getPastAppointments</text>
</a>
</g>
</g>
<!-- Node2&#45;&gt;Node18 -->
<g id="edge17" class="edge">
<title>Node2&#45;&gt;Node18</title>
<path fill="none" stroke="midnightblue" d="M577.67,-288.07C555.8,-271.63 523.5,-249.61 492,-236.5 482.72,-232.64 472.76,-229.34 462.72,-226.53"/>
<polygon fill="midnightblue" stroke="midnightblue" points="575.72,-290.99 585.79,-294.28 579.98,-285.43 575.72,-290.99"/>
</g>
<!-- Node21 -->
<g id="node21" class="node">
<title>Node21</title>
<g id="a_node21"><a xlink:href="classit_1_1unitn_1_1healthcore_1_1business_1_1PatientService.html#ab8266c492da03f9b5e38829e698129c6" target="_top" xlink:title="Modifies an existing appointment for the currently authenticated patient.">
<polygon fill="white" stroke="black" points="282.5,-147.5 282.5,-177.5 468.5,-177.5 468.5,-147.5 282.5,-147.5"/>
<text text-anchor="start" x="290.5" y="-165.5" font-family="Helvetica,sans-Serif" font-size="10.00">it.unitn.healthcore.business.</text>
<text text-anchor="middle" x="375.5" y="-154.5" font-family="Helvetica,sans-Serif" font-size="10.00">PatientService.modifyAppointment</text>
</a>
</g>
</g>
<!-- Node2&#45;&gt;Node21 -->
<g id="edge20" class="edge">
<title>Node2&#45;&gt;Node21</title>
<path fill="none" stroke="midnightblue" d="M589.52,-285.95C570.4,-257.93 534.65,-211.89 492,-187.5 484.7,-183.32 476.77,-179.84 468.61,-176.94"/>
<polygon fill="midnightblue" stroke="midnightblue" points="586.67,-287.98 595.13,-294.36 592.49,-284.1 586.67,-287.98"/>
</g>
<!-- Node23 -->
<g id="node23" class="node">
<title>Node23</title>
<g id="a_node23"><a xlink:href="classit_1_1unitn_1_1healthcore_1_1business_1_1PatientService.html#a541ee9273fd696797608c005eb4d2f78" target="_top" xlink:title="Updates the insurance plan for the currently authenticated patient.">
<polygon fill="white" stroke="black" points="280,-294.5 280,-324.5 471,-324.5 471,-294.5 280,-294.5"/>
<text text-anchor="start" x="288" y="-312.5" font-family="Helvetica,sans-Serif" font-size="10.00">it.unitn.healthcore.business.</text>
<text text-anchor="middle" x="375.5" y="-301.5" font-family="Helvetica,sans-Serif" font-size="10.00">PatientService.updateInsurancePlan</text>
</a>
</g>
</g>
<!-- Node2&#45;&gt;Node23 -->
<g id="edge22" class="edge">
<title>Node2&#45;&gt;Node23</title>
<path fill="none" stroke="midnightblue" d="M517.55,-309.5C502.35,-309.5 486.47,-309.5 471.08,-309.5"/>
<polygon fill="midnightblue" stroke="midnightblue" points="517.95,-313 527.95,-309.5 517.94,-306 517.95,-313"/>
</g>
<!-- Node24 -->
<g id="node24" class="node">
<title>Node24</title>
<g id="a_node24"><a xlink:href="classit_1_1unitn_1_1healthcore_1_1business_1_1UserService.html#a114823fda5c213bb46bc935608bb8953" target="_top" xlink:title="Updates the profile of the currently authenticated user based on the provided object .">
<polygon fill="white" stroke="black" points="293,-98.5 293,-128.5 458,-128.5 458,-98.5 293,-98.5"/>
<text text-anchor="start" x="301" y="-116.5" font-family="Helvetica,sans-Serif" font-size="10.00">it.unitn.healthcore.business.</text>
<text text-anchor="middle" x="375.5" y="-105.5" font-family="Helvetica,sans-Serif" font-size="10.00">UserService.updateUserProfile</text>
</a>
</g>
</g>
<!-- Node2&#45;&gt;Node24 -->
<g id="edge24" class="edge">
<title>Node2&#45;&gt;Node24</title>
<path fill="none" stroke="midnightblue" d="M595.31,-284.57C580.01,-246.71 545.58,-175.24 492,-138.5 481.85,-131.54 470.11,-126.47 458.09,-122.78"/>
<polygon fill="midnightblue" stroke="midnightblue" points="592.22,-286.27 599.12,-294.3 598.73,-283.71 592.22,-286.27"/>
</g>
<!-- Node26 -->
<g id="node26" class="node">
<title>Node26</title>
<g id="a_node26"><a xlink:href="classit_1_1unitn_1_1healthcore_1_1controller_1_1UserController.html#a72a0e87005b1b6a91822302d4888d3cf" target="_top" xlink:title="display the user&#39;s homepage after successful login and OTP verification.">
<polygon fill="white" stroke="black" points="293.5,-49.5 293.5,-79.5 457.5,-79.5 457.5,-49.5 293.5,-49.5"/>
<text text-anchor="start" x="301.5" y="-67.5" font-family="Helvetica,sans-Serif" font-size="10.00">it.unitn.healthcore.controller.</text>
<text text-anchor="middle" x="375.5" y="-56.5" font-family="Helvetica,sans-Serif" font-size="10.00">UserController.userHomepage</text>
</a>
</g>
</g>
<!-- Node2&#45;&gt;Node26 -->
<g id="edge26" class="edge">
<title>Node2&#45;&gt;Node26</title>
<path fill="none" stroke="midnightblue" d="M599.25,-284.41C588.14,-237.95 557.7,-138.69 492,-88.5 481.91,-80.79 469.93,-75.41 457.57,-71.68"/>
<polygon fill="midnightblue" stroke="midnightblue" points="595.86,-285.29 601.5,-294.26 602.68,-283.73 595.86,-285.29"/>
</g>
<!-- Node27 -->
<g id="node27" class="node">
<title>Node27</title>
<g id="a_node27"><a xlink:href="classit_1_1unitn_1_1healthcore_1_1controller_1_1UserController.html#a1e63710c7af819cd744147b3a65d3302" target="_top" xlink:title="Retrieves the profile information of the currently authenticated user.">
<polygon fill="white" stroke="black" points="296.5,-0.5 296.5,-30.5 454.5,-30.5 454.5,-0.5 296.5,-0.5"/>
<text text-anchor="start" x="304.5" y="-18.5" font-family="Helvetica,sans-Serif" font-size="10.00">it.unitn.healthcore.controller.</text>
<text text-anchor="middle" x="375.5" y="-7.5" font-family="Helvetica,sans-Serif" font-size="10.00">UserController.viewProfile</text>
</a>
</g>
</g>
<!-- Node2&#45;&gt;Node27 -->
<g id="edge27" class="edge">
<title>Node2&#45;&gt;Node27</title>
<path fill="none" stroke="midnightblue" d="M601.77,-284.34C594.51,-230.46 569.65,-103.64 492,-39.5 481.26,-30.63 468.08,-24.78 454.51,-20.97"/>
<polygon fill="midnightblue" stroke="midnightblue" points="598.31,-284.9 603.03,-294.39 605.26,-284.03 598.31,-284.9"/>
</g>
<!-- Node4 -->
<g id="node4" class="node">
<title>Node4</title>
<g id="a_node4"><a xlink:href="classit_1_1unitn_1_1healthcore_1_1controller_1_1PatientController.html#a6c1b2c866308e0723c5b9157149ab47b" target="_top" xlink:title="Books an appointment with a specified doctor for the authenticated patient.">
<polygon fill="white" stroke="black" points="17.5,-600.5 17.5,-630.5 205.5,-630.5 205.5,-600.5 17.5,-600.5"/>
<text text-anchor="start" x="25.5" y="-618.5" font-family="Helvetica,sans-Serif" font-size="10.00">it.unitn.healthcore.controller.</text>
<text text-anchor="middle" x="111.5" y="-607.5" font-family="Helvetica,sans-Serif" font-size="10.00">PatientController.bookAppointment</text>
</a>
</g>
</g>
<!-- Node3&#45;&gt;Node4 -->
<g id="edge3" class="edge">
<title>Node3&#45;&gt;Node4</title>
<path fill="none" stroke="midnightblue" d="M277.01,-615.5C253.66,-615.5 228.8,-615.5 205.66,-615.5"/>
<polygon fill="midnightblue" stroke="midnightblue" points="277.26,-619 287.26,-615.5 277.26,-612 277.26,-619"/>
</g>
<!-- Node6 -->
<g id="node6" class="node">
<title>Node6</title>
<g id="a_node6"><a xlink:href="classit_1_1unitn_1_1healthcore_1_1controller_1_1PatientController.html#a3a3ac977996cfd51ff42b9386dccc075" target="_top" xlink:title="Cancels an existing appointment for the authenticated patient.">
<polygon fill="white" stroke="black" points="14,-551.5 14,-581.5 209,-581.5 209,-551.5 14,-551.5"/>
<text text-anchor="start" x="22" y="-569.5" font-family="Helvetica,sans-Serif" font-size="10.00">it.unitn.healthcore.controller.</text>
<text text-anchor="middle" x="111.5" y="-558.5" font-family="Helvetica,sans-Serif" font-size="10.00">PatientController.cancelAppointment</text>
</a>
</g>
</g>
<!-- Node5&#45;&gt;Node6 -->
<g id="edge5" class="edge">
<title>Node5&#45;&gt;Node6</title>
<path fill="none" stroke="midnightblue" d="M273.03,-566.5C252.06,-566.5 230.03,-566.5 209.23,-566.5"/>
<polygon fill="midnightblue" stroke="midnightblue" points="273.23,-570 283.23,-566.5 273.23,-563 273.23,-570"/>
</g>
<!-- Node9 -->
<g id="node9" class="node">
<title>Node9</title>
<g id="a_node9"><a xlink:href="classit_1_1unitn_1_1healthcore_1_1controller_1_1DoctorController.html#aaf741f63621b758e3aab2e1af0639398" target="_top" xlink:title="Retrieves the details of a specific appointment by its ID.">
<polygon fill="white" stroke="black" points="4,-493.5 4,-523.5 219,-523.5 219,-493.5 4,-493.5"/>
<text text-anchor="start" x="12" y="-511.5" font-family="Helvetica,sans-Serif" font-size="10.00">it.unitn.healthcore.controller.</text>
<text text-anchor="middle" x="111.5" y="-500.5" font-family="Helvetica,sans-Serif" font-size="10.00">DoctorController.viewAppointmentDetail</text>
</a>
</g>
</g>
<!-- Node8&#45;&gt;Node9 -->
<g id="edge8" class="edge">
<title>Node8&#45;&gt;Node9</title>
<path fill="none" stroke="midnightblue" d="M266.84,-481.4C243.93,-485.42 220.03,-489.62 198.07,-493.48"/>
<polygon fill="midnightblue" stroke="midnightblue" points="267.7,-484.81 276.94,-479.63 266.49,-477.91 267.7,-484.81"/>
</g>
<!-- Node10 -->
<g id="node10" class="node">
<title>Node10</title>
<g id="a_node10"><a xlink:href="classit_1_1unitn_1_1healthcore_1_1controller_1_1PatientController.html#ac6fe0b7997f8668f80b25419c0d686c6" target="_top" xlink:title="Retrieves the details of a specific appointment by its ID.">
<polygon fill="white" stroke="black" points="3.5,-444.5 3.5,-474.5 219.5,-474.5 219.5,-444.5 3.5,-444.5"/>
<text text-anchor="start" x="11.5" y="-462.5" font-family="Helvetica,sans-Serif" font-size="10.00">it.unitn.healthcore.controller.</text>
<text text-anchor="middle" x="111.5" y="-451.5" font-family="Helvetica,sans-Serif" font-size="10.00">PatientController.viewAppointmentDetail</text>
</a>
</g>
</g>
<!-- Node8&#45;&gt;Node10 -->
<g id="edge9" class="edge">
<title>Node8&#45;&gt;Node10</title>
<path fill="none" stroke="midnightblue" d="M266.82,-461.27C251.3,-461.09 235.33,-460.91 219.82,-460.73"/>
<polygon fill="midnightblue" stroke="midnightblue" points="266.9,-464.77 276.94,-461.38 266.98,-457.77 266.9,-464.77"/>
</g>
<!-- Node12 -->
<g id="node12" class="node">
<title>Node12</title>
<g id="a_node12"><a xlink:href="classit_1_1unitn_1_1healthcore_1_1controller_1_1DoctorController.html#a5a876b4fd08f941dc77ffca9e29608a3" target="_top" xlink:title="Retrieves the details of a specific appointment by its ID.">
<polygon fill="white" stroke="black" points="29.5,-392.5 29.5,-422.5 193.5,-422.5 193.5,-392.5 29.5,-392.5"/>
<text text-anchor="start" x="37.5" y="-410.5" font-family="Helvetica,sans-Serif" font-size="10.00">it.unitn.healthcore.controller.</text>
<text text-anchor="middle" x="111.5" y="-399.5" font-family="Helvetica,sans-Serif" font-size="10.00">DoctorController.viewMyShifts</text>
</a>
</g>
</g>
<!-- Node11&#45;&gt;Node12 -->
<g id="edge11" class="edge">
<title>Node11&#45;&gt;Node12</title>
<path fill="none" stroke="midnightblue" d="M265.57,-407.5C241.47,-407.5 216.35,-407.5 193.59,-407.5"/>
<polygon fill="midnightblue" stroke="midnightblue" points="265.82,-411 275.82,-407.5 265.82,-404 265.82,-411"/>
</g>
<!-- Node14 -->
<g id="node14" class="node">
<title>Node14</title>
<g id="a_node14"><a xlink:href="classit_1_1unitn_1_1healthcore_1_1controller_1_1PatientController.html#a7ff985e6a5601dbbef79fd420d2e54b4" target="_top" xlink:title="Retrieves the current insurance plan of the authenticated patient.">
<polygon fill="white" stroke="black" points="10,-343.5 10,-373.5 213,-373.5 213,-343.5 10,-343.5"/>
<text text-anchor="start" x="18" y="-361.5" font-family="Helvetica,sans-Serif" font-size="10.00">it.unitn.healthcore.controller.</text>
<text text-anchor="middle" x="111.5" y="-350.5" font-family="Helvetica,sans-Serif" font-size="10.00">PatientController.updateInsurancePlan</text>
</a>
</g>
</g>
<!-- Node13&#45;&gt;Node14 -->
<g id="edge13" class="edge">
<title>Node13&#45;&gt;Node14</title>
<path fill="none" stroke="midnightblue" d="M260.63,-358.5C244.83,-358.5 228.69,-358.5 213.16,-358.5"/>
<polygon fill="midnightblue" stroke="midnightblue" points="260.95,-362 270.95,-358.5 260.95,-355 260.95,-362"/>
</g>
<!-- Node16 -->
<g id="node16" class="node">
<title>Node16</title>
<g id="a_node16"><a xlink:href="classit_1_1unitn_1_1healthcore_1_1controller_1_1DoctorController.html#a422bd25fb5f44b8f763d6a29787c46f0" target="_top" xlink:title="Retrieves a list of future appointments for the currently authenticated doctor.">
<polygon fill="white" stroke="black" points="1,-294.5 1,-324.5 222,-324.5 222,-294.5 1,-294.5"/>
<text text-anchor="start" x="9" y="-312.5" font-family="Helvetica,sans-Serif" font-size="10.00">it.unitn.healthcore.controller.</text>
<text text-anchor="middle" x="111.5" y="-301.5" font-family="Helvetica,sans-Serif" font-size="10.00">DoctorController.viewFutureAppointments</text>
</a>
</g>
</g>
<!-- Node15&#45;&gt;Node16 -->
<g id="edge15" class="edge">
<title>Node15&#45;&gt;Node16</title>
<path fill="none" stroke="midnightblue" d="M284.16,-277.39C254.45,-282.95 221.64,-289.09 192.74,-294.49"/>
<polygon fill="midnightblue" stroke="midnightblue" points="284.92,-280.81 294.11,-275.53 283.64,-273.93 284.92,-280.81"/>
</g>
<!-- Node17 -->
<g id="node17" class="node">
<title>Node17</title>
<g id="a_node17"><a xlink:href="classit_1_1unitn_1_1healthcore_1_1controller_1_1PatientController.html#a4207a6fab035c5242ecda1abdb49169e" target="_top" xlink:title="Retrieves a list of future appointments for the authenticated patient.">
<polygon fill="white" stroke="black" points="0,-245.5 0,-275.5 223,-275.5 223,-245.5 0,-245.5"/>
<text text-anchor="start" x="8" y="-263.5" font-family="Helvetica,sans-Serif" font-size="10.00">it.unitn.healthcore.controller.</text>
<text text-anchor="middle" x="111.5" y="-252.5" font-family="Helvetica,sans-Serif" font-size="10.00">PatientController.viewFutureAppointments</text>
</a>
</g>
</g>
<!-- Node15&#45;&gt;Node17 -->
<g id="edge16" class="edge">
<title>Node15&#45;&gt;Node17</title>
<path fill="none" stroke="midnightblue" d="M248.56,-260.5C240.14,-260.5 231.68,-260.5 223.34,-260.5"/>
<polygon fill="midnightblue" stroke="midnightblue" points="248.82,-264 258.82,-260.5 248.82,-257 248.82,-264"/>
</g>
<!-- Node19 -->
<g id="node19" class="node">
<title>Node19</title>
<g id="a_node19"><a xlink:href="classit_1_1unitn_1_1healthcore_1_1controller_1_1DoctorController.html#a6d1a63a3f86734bbe0af66cf4b9cc4f8" target="_top" xlink:title="Retrieves a list of past appointments for the currently authenticated doctor.">
<polygon fill="white" stroke="black" points="6,-196.5 6,-226.5 217,-226.5 217,-196.5 6,-196.5"/>
<text text-anchor="start" x="14" y="-214.5" font-family="Helvetica,sans-Serif" font-size="10.00">it.unitn.healthcore.controller.</text>
<text text-anchor="middle" x="111.5" y="-203.5" font-family="Helvetica,sans-Serif" font-size="10.00">DoctorController.viewPastAppointments</text>
</a>
</g>
</g>
<!-- Node18&#45;&gt;Node19 -->
<g id="edge18" class="edge">
<title>Node18&#45;&gt;Node19</title>
<path fill="none" stroke="midnightblue" d="M253.64,-211.5C241.54,-211.5 229.33,-211.5 217.41,-211.5"/>
<polygon fill="midnightblue" stroke="midnightblue" points="253.77,-215 263.77,-211.5 253.77,-208 253.77,-215"/>
</g>
<!-- Node20 -->
<g id="node20" class="node">
<title>Node20</title>
<g id="a_node20"><a xlink:href="classit_1_1unitn_1_1healthcore_1_1controller_1_1PatientController.html#a8303b97c30b7b5049de75826bafceb4c" target="_top" xlink:title="Retrieves a list of past appointments for the authenticated patient.">
<polygon fill="white" stroke="black" points="5.5,-147.5 5.5,-177.5 217.5,-177.5 217.5,-147.5 5.5,-147.5"/>
<text text-anchor="start" x="13.5" y="-165.5" font-family="Helvetica,sans-Serif" font-size="10.00">it.unitn.healthcore.controller.</text>
<text text-anchor="middle" x="111.5" y="-154.5" font-family="Helvetica,sans-Serif" font-size="10.00">PatientController.viewPastAppointments</text>
</a>
</g>
</g>
<!-- Node18&#45;&gt;Node20 -->
<g id="edge19" class="edge">
<title>Node18&#45;&gt;Node20</title>
<path fill="none" stroke="midnightblue" d="M284.16,-194.61C254.45,-189.05 221.64,-182.91 192.74,-177.51"/>
<polygon fill="midnightblue" stroke="midnightblue" points="283.64,-198.07 294.11,-196.47 284.92,-191.19 283.64,-198.07"/>
</g>
<!-- Node22 -->
<g id="node22" class="node">
<title>Node22</title>
<g id="a_node22"><a xlink:href="classit_1_1unitn_1_1healthcore_1_1controller_1_1PatientController.html#af370cd8f9baad62995675426371b349c" target="_top" xlink:title="Modifies the details of an existing appointment for the authenticated patient.">
<polygon fill="white" stroke="black" points="13,-98.5 13,-128.5 210,-128.5 210,-98.5 13,-98.5"/>
<text text-anchor="start" x="21" y="-116.5" font-family="Helvetica,sans-Serif" font-size="10.00">it.unitn.healthcore.controller.</text>
<text text-anchor="middle" x="111.5" y="-105.5" font-family="Helvetica,sans-Serif" font-size="10.00">PatientController.modifyAppointment</text>
</a>
</g>
</g>
<!-- Node21&#45;&gt;Node22 -->
<g id="edge21" class="edge">
<title>Node21&#45;&gt;Node22</title>
<path fill="none" stroke="midnightblue" d="M284.16,-145.61C254.45,-140.05 221.64,-133.91 192.74,-128.51"/>
<polygon fill="midnightblue" stroke="midnightblue" points="283.64,-149.07 294.11,-147.47 284.92,-142.19 283.64,-149.07"/>
</g>
<!-- Node23&#45;&gt;Node14 -->
<g id="edge23" class="edge">
<title>Node23&#45;&gt;Node14</title>
<path fill="none" stroke="midnightblue" d="M284.16,-326.39C254.45,-331.95 221.64,-338.09 192.74,-343.49"/>
<polygon fill="midnightblue" stroke="midnightblue" points="284.92,-329.81 294.11,-324.53 283.64,-322.93 284.92,-329.81"/>
</g>
<!-- Node25 -->
<g id="node25" class="node">
<title>Node25</title>
<g id="a_node25"><a xlink:href="classit_1_1unitn_1_1healthcore_1_1controller_1_1UserController.html#a546d5ed79a6b2f6f15000d9ddb3b03ab" target="_top" xlink:title="handle the profile update request by updating the user&#39;s profile information and redirecting to the p...">
<polygon fill="white" stroke="black" points="32.5,-49.5 32.5,-79.5 190.5,-79.5 190.5,-49.5 32.5,-49.5"/>
<text text-anchor="start" x="40.5" y="-67.5" font-family="Helvetica,sans-Serif" font-size="10.00">it.unitn.healthcore.controller.</text>
<text text-anchor="middle" x="111.5" y="-56.5" font-family="Helvetica,sans-Serif" font-size="10.00">UserController.updateProfile</text>
</a>
</g>
</g>
<!-- Node24&#45;&gt;Node25 -->
<g id="edge25" class="edge">
<title>Node24&#45;&gt;Node25</title>
<path fill="none" stroke="midnightblue" d="M283.98,-96.57C253.7,-90.91 220.22,-84.65 190.94,-79.17"/>
<polygon fill="midnightblue" stroke="midnightblue" points="283.64,-100.07 294.11,-98.47 284.92,-93.19 283.64,-100.07"/>
</g>
</g>
</svg>
