<?xml version="1.0" encoding="UTF-8" standalone="no"?>
<!DOCTYPE svg PUBLIC "-//W3C//DTD SVG 1.1//EN"
 "http://www.w3.org/Graphics/SVG/1.1/DTD/svg11.dtd">
<!-- Generated by graphviz version 2.43.0 (0)
 -->
<!-- Title: it.unitn.healthcore.controller.PatientController.viewAppointmentDetail Pages: 1 -->
<svg width="879pt" height="333pt"
 viewBox="0.00 0.00 879.00 333.00" xmlns="http://www.w3.org/2000/svg" xmlns:xlink="http://www.w3.org/1999/xlink">
<g id="graph0" class="graph" transform="scale(1 1) rotate(0) translate(4 329)">
<title>it.unitn.healthcore.controller.PatientController.viewAppointmentDetail</title>
<polygon fill="white" stroke="transparent" points="-4,4 -4,-329 875,-329 875,4 -4,4"/>
<!-- Node1 -->
<g id="node1" class="node">
<title>Node1</title>
<g id="a_node1"><a xlink:title=" ">
<polygon fill="#bfbfbf" stroke="black" points="0,-147.5 0,-177.5 216,-177.5 216,-147.5 0,-147.5"/>
<text text-anchor="start" x="8" y="-165.5" font-family="Helvetica,sans-Serif" font-size="10.00">it.unitn.healthcore.controller.</text>
<text text-anchor="middle" x="108" y="-154.5" font-family="Helvetica,sans-Serif" font-size="10.00">PatientController.viewAppointmentDetail</text>
</a>
</g>
</g>
<!-- Node2 -->
<g id="node2" class="node">
<title>Node2</title>
<g id="a_node2"><a xlink:href="classit_1_1unitn_1_1healthcore_1_1business_1_1AppointmentService.html#a6df398766f183e79fe315aea5f1752a4" target="_top" xlink:title=" ">
<polygon fill="white" stroke="black" points="252,-142 252,-183 449,-183 449,-142 252,-142"/>
<text text-anchor="start" x="260" y="-171" font-family="Helvetica,sans-Serif" font-size="10.00">it.unitn.healthcore.business.</text>
<text text-anchor="start" x="260" y="-160" font-family="Helvetica,sans-Serif" font-size="10.00">AppointmentService.getAppointment</text>
<text text-anchor="middle" x="350.5" y="-149" font-family="Helvetica,sans-Serif" font-size="10.00">Details</text>
</a>
</g>
</g>
<!-- Node1&#45;&gt;Node2 -->
<g id="edge1" class="edge">
<title>Node1&#45;&gt;Node2</title>
<path fill="none" stroke="midnightblue" d="M216.24,-162.5C224.7,-162.5 233.24,-162.5 241.71,-162.5"/>
<polygon fill="midnightblue" stroke="midnightblue" points="241.98,-166 251.98,-162.5 241.98,-159 241.98,-166"/>
</g>
<!-- Node3 -->
<g id="node3" class="node">
<title>Node3</title>
<g id="a_node3"><a xlink:href="classit_1_1unitn_1_1healthcore_1_1domain_1_1Appointment.html#ae8a397335e77fdd3ab2a12667c862b30" target="_top" xlink:title="Returns the appointment ID.">
<polygon fill="white" stroke="black" points="485,-294.5 485,-324.5 655,-324.5 655,-294.5 485,-294.5"/>
<text text-anchor="start" x="493" y="-312.5" font-family="Helvetica,sans-Serif" font-size="10.00">it.unitn.healthcore.domain.</text>
<text text-anchor="middle" x="570" y="-301.5" font-family="Helvetica,sans-Serif" font-size="10.00">Appointment.getAppointmentId</text>
</a>
</g>
</g>
<!-- Node2&#45;&gt;Node3 -->
<g id="edge2" class="edge">
<title>Node2&#45;&gt;Node3</title>
<path fill="none" stroke="midnightblue" d="M368.29,-183.08C391.67,-210.4 436.63,-258.36 485,-285.5 488.23,-287.31 491.61,-289 495.08,-290.57"/>
<polygon fill="midnightblue" stroke="midnightblue" points="493.87,-293.85 504.44,-294.44 496.54,-287.38 493.87,-293.85"/>
</g>
<!-- Node4 -->
<g id="node4" class="node">
<title>Node4</title>
<g id="a_node4"><a xlink:href="classit_1_1unitn_1_1healthcore_1_1business_1_1UserService.html#a33213d05bfda4e7384e17b18332d4bb5" target="_top" xlink:title=" ">
<polygon fill="white" stroke="black" points="492.5,-245.5 492.5,-275.5 647.5,-275.5 647.5,-245.5 492.5,-245.5"/>
<text text-anchor="start" x="500.5" y="-263.5" font-family="Helvetica,sans-Serif" font-size="10.00">it.unitn.healthcore.business.</text>
<text text-anchor="middle" x="570" y="-252.5" font-family="Helvetica,sans-Serif" font-size="10.00">UserService.getCurrentUser</text>
</a>
</g>
</g>
<!-- Node2&#45;&gt;Node4 -->
<g id="edge3" class="edge">
<title>Node2&#45;&gt;Node4</title>
<path fill="none" stroke="midnightblue" d="M383.65,-183.06C410.07,-199.27 448.88,-221.56 485,-236.5 489.78,-238.48 494.78,-240.36 499.86,-242.12"/>
<polygon fill="midnightblue" stroke="midnightblue" points="499.08,-245.55 509.67,-245.39 501.29,-238.91 499.08,-245.55"/>
</g>
<!-- Node7 -->
<g id="node7" class="node">
<title>Node7</title>
<g id="a_node7"><a xlink:href="classit_1_1unitn_1_1healthcore_1_1domain_1_1Appointment.html#a5e3d223030b1b23d4a2dfab94d5b4ef2" target="_top" xlink:title="Returns the doctor conducting the appointment.">
<polygon fill="white" stroke="black" points="495.5,-196.5 495.5,-226.5 644.5,-226.5 644.5,-196.5 495.5,-196.5"/>
<text text-anchor="start" x="503.5" y="-214.5" font-family="Helvetica,sans-Serif" font-size="10.00">it.unitn.healthcore.domain.</text>
<text text-anchor="middle" x="570" y="-203.5" font-family="Helvetica,sans-Serif" font-size="10.00">Appointment.getDoctor</text>
</a>
</g>
</g>
<!-- Node2&#45;&gt;Node7 -->
<g id="edge6" class="edge">
<title>Node2&#45;&gt;Node7</title>
<path fill="none" stroke="midnightblue" d="M442.79,-183.07C459.35,-186.8 476.47,-190.65 492.54,-194.28"/>
<polygon fill="midnightblue" stroke="midnightblue" points="491.88,-197.71 502.41,-196.5 493.42,-190.88 491.88,-197.71"/>
</g>
<!-- Node8 -->
<g id="node8" class="node">
<title>Node8</title>
<g id="a_node8"><a xlink:href="classit_1_1unitn_1_1healthcore_1_1domain_1_1Appointment.html#a6adf9242cb006af27dd5ed15fdf82450" target="_top" xlink:title="Returns the end date and time of the appointment.">
<polygon fill="white" stroke="black" points="495.5,-147.5 495.5,-177.5 644.5,-177.5 644.5,-147.5 495.5,-147.5"/>
<text text-anchor="start" x="503.5" y="-165.5" font-family="Helvetica,sans-Serif" font-size="10.00">it.unitn.healthcore.domain.</text>
<text text-anchor="middle" x="570" y="-154.5" font-family="Helvetica,sans-Serif" font-size="10.00">Appointment.getEndTime</text>
</a>
</g>
</g>
<!-- Node2&#45;&gt;Node8 -->
<g id="edge7" class="edge">
<title>Node2&#45;&gt;Node8</title>
<path fill="none" stroke="midnightblue" d="M449.12,-162.5C461.17,-162.5 473.41,-162.5 485.23,-162.5"/>
<polygon fill="midnightblue" stroke="midnightblue" points="485.5,-166 495.5,-162.5 485.5,-159 485.5,-166"/>
</g>
<!-- Node9 -->
<g id="node9" class="node">
<title>Node9</title>
<g id="a_node9"><a xlink:href="classit_1_1unitn_1_1healthcore_1_1domain_1_1User.html#af8206b66c08446d8c3cb7e16b825a794" target="_top" xlink:title="Returns a string representation of the User.">
<polygon fill="white" stroke="black" points="495.5,-98.5 495.5,-128.5 644.5,-128.5 644.5,-98.5 495.5,-98.5"/>
<text text-anchor="start" x="503.5" y="-116.5" font-family="Helvetica,sans-Serif" font-size="10.00">it.unitn.healthcore.domain.</text>
<text text-anchor="middle" x="570" y="-105.5" font-family="Helvetica,sans-Serif" font-size="10.00">User.getId</text>
</a>
</g>
</g>
<!-- Node2&#45;&gt;Node9 -->
<g id="edge8" class="edge">
<title>Node2&#45;&gt;Node9</title>
<path fill="none" stroke="midnightblue" d="M442.79,-141.93C459.35,-138.2 476.47,-134.35 492.54,-130.72"/>
<polygon fill="midnightblue" stroke="midnightblue" points="493.42,-134.12 502.41,-128.5 491.88,-127.29 493.42,-134.12"/>
</g>
<!-- Node10 -->
<g id="node10" class="node">
<title>Node10</title>
<g id="a_node10"><a xlink:href="classit_1_1unitn_1_1healthcore_1_1domain_1_1Appointment.html#a60f84ee45966ebeed37981dffe94c8ad" target="_top" xlink:title="Returns the patient associated with the appointment.">
<polygon fill="white" stroke="black" points="495.5,-49.5 495.5,-79.5 644.5,-79.5 644.5,-49.5 495.5,-49.5"/>
<text text-anchor="start" x="503.5" y="-67.5" font-family="Helvetica,sans-Serif" font-size="10.00">it.unitn.healthcore.domain.</text>
<text text-anchor="middle" x="570" y="-56.5" font-family="Helvetica,sans-Serif" font-size="10.00">Appointment.getPatient</text>
</a>
</g>
</g>
<!-- Node2&#45;&gt;Node10 -->
<g id="edge9" class="edge">
<title>Node2&#45;&gt;Node10</title>
<path fill="none" stroke="midnightblue" d="M384.54,-141.87C410.98,-125.99 449.4,-104.34 485,-89.5 490.71,-87.12 496.73,-84.86 502.82,-82.75"/>
<polygon fill="midnightblue" stroke="midnightblue" points="504.02,-86.04 512.4,-79.56 501.8,-79.4 504.02,-86.04"/>
</g>
<!-- Node11 -->
<g id="node11" class="node">
<title>Node11</title>
<g id="a_node11"><a xlink:href="classit_1_1unitn_1_1healthcore_1_1domain_1_1Appointment.html#a9bd30e2d1b2e4de743b3e83b9cc50eb4" target="_top" xlink:title="Returns the start date and time of the appointment.">
<polygon fill="white" stroke="black" points="495.5,-0.5 495.5,-30.5 644.5,-30.5 644.5,-0.5 495.5,-0.5"/>
<text text-anchor="start" x="503.5" y="-18.5" font-family="Helvetica,sans-Serif" font-size="10.00">it.unitn.healthcore.domain.</text>
<text text-anchor="middle" x="570" y="-7.5" font-family="Helvetica,sans-Serif" font-size="10.00">Appointment.getStartTime</text>
</a>
</g>
</g>
<!-- Node2&#45;&gt;Node11 -->
<g id="edge10" class="edge">
<title>Node2&#45;&gt;Node11</title>
<path fill="none" stroke="midnightblue" d="M368.77,-141.71C392.35,-114.63 437.18,-67.56 485,-40.5 488.9,-38.29 493.02,-36.26 497.26,-34.39"/>
<polygon fill="midnightblue" stroke="midnightblue" points="498.72,-37.58 506.67,-30.57 496.08,-31.09 498.72,-37.58"/>
</g>
<!-- Node5 -->
<g id="node5" class="node">
<title>Node5</title>
<g id="a_node5"><a xlink:href="interfaceit_1_1unitn_1_1healthcore_1_1persistence_1_1UserRepository.html#a6a646ae44d01189ff44c81c03fc92fa8" target="_top" xlink:title=" ">
<polygon fill="white" stroke="black" points="694,-269.5 694,-299.5 868,-299.5 868,-269.5 694,-269.5"/>
<text text-anchor="start" x="702" y="-287.5" font-family="Helvetica,sans-Serif" font-size="10.00">it.unitn.healthcore.persistence.</text>
<text text-anchor="middle" x="781" y="-276.5" font-family="Helvetica,sans-Serif" font-size="10.00">UserRepository.findUserByEmail</text>
</a>
</g>
</g>
<!-- Node4&#45;&gt;Node5 -->
<g id="edge4" class="edge">
<title>Node4&#45;&gt;Node5</title>
<path fill="none" stroke="midnightblue" d="M647.64,-269.3C659.38,-270.65 671.63,-272.06 683.72,-273.44"/>
<polygon fill="midnightblue" stroke="midnightblue" points="683.51,-276.94 693.84,-274.61 684.3,-269.99 683.51,-276.94"/>
</g>
<!-- Node6 -->
<g id="node6" class="node">
<title>Node6</title>
<g id="a_node6"><a xlink:href="classit_1_1unitn_1_1healthcore_1_1business_1_1UserService.html#a703ed9778e3ac6cd9741220089b5f48d" target="_top" xlink:title=" ">
<polygon fill="white" stroke="black" points="691,-220.5 691,-250.5 871,-250.5 871,-220.5 691,-220.5"/>
<text text-anchor="start" x="699" y="-238.5" font-family="Helvetica,sans-Serif" font-size="10.00">it.unitn.healthcore.business.</text>
<text text-anchor="middle" x="781" y="-227.5" font-family="Helvetica,sans-Serif" font-size="10.00">UserService.getCurrentUserEmail</text>
</a>
</g>
</g>
<!-- Node4&#45;&gt;Node6 -->
<g id="edge5" class="edge">
<title>Node4&#45;&gt;Node6</title>
<path fill="none" stroke="midnightblue" d="M647.64,-251.33C658.43,-250.04 669.65,-248.7 680.79,-247.37"/>
<polygon fill="midnightblue" stroke="midnightblue" points="681.47,-250.81 690.98,-246.15 680.64,-243.86 681.47,-250.81"/>
</g>
</g>
</svg>
