<?xml version="1.0" encoding="UTF-8" standalone="no"?>
<!DOCTYPE svg PUBLIC "-//W3C//DTD SVG 1.1//EN"
 "http://www.w3.org/Graphics/SVG/1.1/DTD/svg11.dtd">
<!-- Generated by graphviz version 2.43.0 (0)
 -->
<!-- Title: it.unitn.healthcore.controller.DoctorController.viewMyShifts Pages: 1 -->
<svg width="814pt" height="112pt"
 viewBox="0.00 0.00 814.00 112.00" xmlns="http://www.w3.org/2000/svg" xmlns:xlink="http://www.w3.org/1999/xlink">
<g id="graph0" class="graph" transform="scale(1 1) rotate(0) translate(4 108)">
<title>it.unitn.healthcore.controller.DoctorController.viewMyShifts</title>
<polygon fill="white" stroke="transparent" points="-4,4 -4,-108 810,-108 810,4 -4,4"/>
<!-- Node1 -->
<g id="node1" class="node">
<title>Node1</title>
<g id="a_node1"><a xlink:title="Retrieves the details of a specific appointment by its ID.">
<polygon fill="#bfbfbf" stroke="black" points="0,-24.5 0,-54.5 164,-54.5 164,-24.5 0,-24.5"/>
<text text-anchor="start" x="8" y="-42.5" font-family="Helvetica,sans-Serif" font-size="10.00">it.unitn.healthcore.controller.</text>
<text text-anchor="middle" x="82" y="-31.5" font-family="Helvetica,sans-Serif" font-size="10.00">DoctorController.viewMyShifts</text>
</a>
</g>
</g>
<!-- Node2 -->
<g id="node2" class="node">
<title>Node2</title>
<g id="a_node2"><a xlink:href="classit_1_1unitn_1_1healthcore_1_1business_1_1DoctorService.html#a96292ffc9ef487c31145d1cd00f22b4e" target="_top" xlink:title="Retrieves the shifts of the currently authenticated doctor.">
<polygon fill="white" stroke="black" points="200,-24.5 200,-54.5 399,-54.5 399,-24.5 200,-24.5"/>
<text text-anchor="start" x="208" y="-42.5" font-family="Helvetica,sans-Serif" font-size="10.00">it.unitn.healthcore.business.</text>
<text text-anchor="middle" x="299.5" y="-31.5" font-family="Helvetica,sans-Serif" font-size="10.00">DoctorService.getCurrentDoctorShifts</text>
</a>
</g>
</g>
<!-- Node1&#45;&gt;Node2 -->
<g id="edge1" class="edge">
<title>Node1&#45;&gt;Node2</title>
<path fill="none" stroke="midnightblue" d="M164.16,-39.5C172.57,-39.5 181.2,-39.5 189.84,-39.5"/>
<polygon fill="midnightblue" stroke="midnightblue" points="189.98,-43 199.98,-39.5 189.98,-36 189.98,-43"/>
</g>
<!-- Node3 -->
<g id="node3" class="node">
<title>Node3</title>
<g id="a_node3"><a xlink:href="classit_1_1unitn_1_1healthcore_1_1business_1_1UserService.html#a33213d05bfda4e7384e17b18332d4bb5" target="_top" xlink:title="Retrieves the currently authenticated user from the database.">
<polygon fill="white" stroke="black" points="435,-49.5 435,-79.5 590,-79.5 590,-49.5 435,-49.5"/>
<text text-anchor="start" x="443" y="-67.5" font-family="Helvetica,sans-Serif" font-size="10.00">it.unitn.healthcore.business.</text>
<text text-anchor="middle" x="512.5" y="-56.5" font-family="Helvetica,sans-Serif" font-size="10.00">UserService.getCurrentUser</text>
</a>
</g>
</g>
<!-- Node2&#45;&gt;Node3 -->
<g id="edge2" class="edge">
<title>Node2&#45;&gt;Node3</title>
<path fill="none" stroke="midnightblue" d="M399.2,-51.19C407.74,-52.21 416.34,-53.23 424.78,-54.22"/>
<polygon fill="midnightblue" stroke="midnightblue" points="424.63,-57.73 434.97,-55.43 425.45,-50.78 424.63,-57.73"/>
</g>
<!-- Node6 -->
<g id="node6" class="node">
<title>Node6</title>
<g id="a_node6"><a xlink:href="classit_1_1unitn_1_1healthcore_1_1domain_1_1Doctor.html#a1f74266b5c9953f4c861a1b2e66405a8" target="_top" xlink:title="Shift getter.">
<polygon fill="white" stroke="black" points="438,-0.5 438,-30.5 587,-30.5 587,-0.5 438,-0.5"/>
<text text-anchor="start" x="446" y="-18.5" font-family="Helvetica,sans-Serif" font-size="10.00">it.unitn.healthcore.domain.</text>
<text text-anchor="middle" x="512.5" y="-7.5" font-family="Helvetica,sans-Serif" font-size="10.00">Doctor.getShifts</text>
</a>
</g>
</g>
<!-- Node2&#45;&gt;Node6 -->
<g id="edge5" class="edge">
<title>Node2&#45;&gt;Node6</title>
<path fill="none" stroke="midnightblue" d="M399.2,-28.27C408.74,-27.19 418.34,-26.1 427.71,-25.03"/>
<polygon fill="midnightblue" stroke="midnightblue" points="428.22,-28.5 437.76,-23.89 427.43,-21.54 428.22,-28.5"/>
</g>
<!-- Node4 -->
<g id="node4" class="node">
<title>Node4</title>
<g id="a_node4"><a xlink:href="interfaceit_1_1unitn_1_1healthcore_1_1persistence_1_1UserRepository.html#a6a646ae44d01189ff44c81c03fc92fa8" target="_top" xlink:title=" ">
<polygon fill="white" stroke="black" points="629,-73.5 629,-103.5 803,-103.5 803,-73.5 629,-73.5"/>
<text text-anchor="start" x="637" y="-91.5" font-family="Helvetica,sans-Serif" font-size="10.00">it.unitn.healthcore.persistence.</text>
<text text-anchor="middle" x="716" y="-80.5" font-family="Helvetica,sans-Serif" font-size="10.00">UserRepository.findUserByEmail</text>
</a>
</g>
</g>
<!-- Node3&#45;&gt;Node4 -->
<g id="edge3" class="edge">
<title>Node3&#45;&gt;Node4</title>
<path fill="none" stroke="midnightblue" d="M590.25,-73.64C599.58,-74.75 609.2,-75.9 618.76,-77.04"/>
<polygon fill="midnightblue" stroke="midnightblue" points="618.35,-80.51 628.7,-78.22 619.18,-73.56 618.35,-80.51"/>
</g>
<!-- Node5 -->
<g id="node5" class="node">
<title>Node5</title>
<g id="a_node5"><a xlink:href="classit_1_1unitn_1_1healthcore_1_1business_1_1UserService.html#a703ed9778e3ac6cd9741220089b5f48d" target="_top" xlink:title="Retrieves the email of the currently authenticated user.">
<polygon fill="white" stroke="black" points="626,-24.5 626,-54.5 806,-54.5 806,-24.5 626,-24.5"/>
<text text-anchor="start" x="634" y="-42.5" font-family="Helvetica,sans-Serif" font-size="10.00">it.unitn.healthcore.business.</text>
<text text-anchor="middle" x="716" y="-31.5" font-family="Helvetica,sans-Serif" font-size="10.00">UserService.getCurrentUserEmail</text>
</a>
</g>
</g>
<!-- Node3&#45;&gt;Node5 -->
<g id="edge4" class="edge">
<title>Node3&#45;&gt;Node5</title>
<path fill="none" stroke="midnightblue" d="M590.25,-54.98C598.65,-53.94 607.28,-52.87 615.89,-51.8"/>
<polygon fill="midnightblue" stroke="midnightblue" points="616.49,-55.25 625.98,-50.54 615.62,-48.3 616.49,-55.25"/>
</g>
</g>
</svg>
