<?xml version="1.0" encoding="UTF-8" standalone="no"?>
<!DOCTYPE svg PUBLIC "-//W3C//DTD SVG 1.1//EN"
 "http://www.w3.org/Graphics/SVG/1.1/DTD/svg11.dtd">
<!-- Generated by graphviz version 2.43.0 (0)
 -->
<!-- Title: it.unitn.healthcore.controller.DoctorController.viewAppointmentDetail Pages: 1 -->
<svg width="878pt" height="333pt"
 viewBox="0.00 0.00 878.00 333.00" xmlns="http://www.w3.org/2000/svg" xmlns:xlink="http://www.w3.org/1999/xlink">
<g id="graph0" class="graph" transform="scale(1 1) rotate(0) translate(4 329)">
<title>it.unitn.healthcore.controller.DoctorController.viewAppointmentDetail</title>
<polygon fill="white" stroke="transparent" points="-4,4 -4,-329 874,-329 874,4 -4,4"/>
<!-- Node1 -->
<g id="node1" class="node">
<title>Node1</title>
<g id="a_node1"><a xlink:title="Retrieves the details of a specific appointment by its ID.">
<polygon fill="#bfbfbf" stroke="black" points="0,-147.5 0,-177.5 215,-177.5 215,-147.5 0,-147.5"/>
<text text-anchor="start" x="8" y="-165.5" font-family="Helvetica,sans-Serif" font-size="10.00">it.unitn.healthcore.controller.</text>
<text text-anchor="middle" x="107.5" y="-154.5" font-family="Helvetica,sans-Serif" font-size="10.00">DoctorController.viewAppointmentDetail</text>
</a>
</g>
</g>
<!-- Node2 -->
<g id="node2" class="node">
<title>Node2</title>
<g id="a_node2"><a xlink:href="classit_1_1unitn_1_1healthcore_1_1business_1_1AppointmentService.html#a6df398766f183e79fe315aea5f1752a4" target="_top" xlink:title="Retrieves detailed information about a specific appointment based on the appointment ID.">
<polygon fill="white" stroke="black" points="251,-142 251,-183 448,-183 448,-142 251,-142"/>
<text text-anchor="start" x="259" y="-171" font-family="Helvetica,sans-Serif" font-size="10.00">it.unitn.healthcore.business.</text>
<text text-anchor="start" x="259" y="-160" font-family="Helvetica,sans-Serif" font-size="10.00">AppointmentService.getAppointment</text>
<text text-anchor="middle" x="349.5" y="-149" font-family="Helvetica,sans-Serif" font-size="10.00">Details</text>
</a>
</g>
</g>
<!-- Node1&#45;&gt;Node2 -->
<g id="edge1" class="edge">
<title>Node1&#45;&gt;Node2</title>
<path fill="none" stroke="midnightblue" d="M215.17,-162.5C223.62,-162.5 232.17,-162.5 240.63,-162.5"/>
<polygon fill="midnightblue" stroke="midnightblue" points="240.9,-166 250.9,-162.5 240.9,-159 240.9,-166"/>
</g>
<!-- Node3 -->
<g id="node3" class="node">
<title>Node3</title>
<g id="a_node3"><a xlink:href="classit_1_1unitn_1_1healthcore_1_1domain_1_1Appointment.html#ae8a397335e77fdd3ab2a12667c862b30" target="_top" xlink:title="Returns the appointment ID.">
<polygon fill="white" stroke="black" points="484,-294.5 484,-324.5 654,-324.5 654,-294.5 484,-294.5"/>
<text text-anchor="start" x="492" y="-312.5" font-family="Helvetica,sans-Serif" font-size="10.00">it.unitn.healthcore.domain.</text>
<text text-anchor="middle" x="569" y="-301.5" font-family="Helvetica,sans-Serif" font-size="10.00">Appointment.getAppointmentId</text>
</a>
</g>
</g>
<!-- Node2&#45;&gt;Node3 -->
<g id="edge2" class="edge">
<title>Node2&#45;&gt;Node3</title>
<path fill="none" stroke="midnightblue" d="M367.29,-183.08C390.67,-210.4 435.63,-258.36 484,-285.5 487.23,-287.31 490.61,-289 494.08,-290.57"/>
<polygon fill="midnightblue" stroke="midnightblue" points="492.87,-293.85 503.44,-294.44 495.54,-287.38 492.87,-293.85"/>
</g>
<!-- Node4 -->
<g id="node4" class="node">
<title>Node4</title>
<g id="a_node4"><a xlink:href="classit_1_1unitn_1_1healthcore_1_1business_1_1UserService.html#a33213d05bfda4e7384e17b18332d4bb5" target="_top" xlink:title="Retrieves the currently authenticated user from the database.">
<polygon fill="white" stroke="black" points="491.5,-245.5 491.5,-275.5 646.5,-275.5 646.5,-245.5 491.5,-245.5"/>
<text text-anchor="start" x="499.5" y="-263.5" font-family="Helvetica,sans-Serif" font-size="10.00">it.unitn.healthcore.business.</text>
<text text-anchor="middle" x="569" y="-252.5" font-family="Helvetica,sans-Serif" font-size="10.00">UserService.getCurrentUser</text>
</a>
</g>
</g>
<!-- Node2&#45;&gt;Node4 -->
<g id="edge3" class="edge">
<title>Node2&#45;&gt;Node4</title>
<path fill="none" stroke="midnightblue" d="M382.65,-183.06C409.07,-199.27 447.88,-221.56 484,-236.5 488.78,-238.48 493.78,-240.36 498.86,-242.12"/>
<polygon fill="midnightblue" stroke="midnightblue" points="498.08,-245.55 508.67,-245.39 500.29,-238.91 498.08,-245.55"/>
</g>
<!-- Node7 -->
<g id="node7" class="node">
<title>Node7</title>
<g id="a_node7"><a xlink:href="classit_1_1unitn_1_1healthcore_1_1domain_1_1Appointment.html#a5e3d223030b1b23d4a2dfab94d5b4ef2" target="_top" xlink:title="Returns the doctor conducting the appointment.">
<polygon fill="white" stroke="black" points="494.5,-196.5 494.5,-226.5 643.5,-226.5 643.5,-196.5 494.5,-196.5"/>
<text text-anchor="start" x="502.5" y="-214.5" font-family="Helvetica,sans-Serif" font-size="10.00">it.unitn.healthcore.domain.</text>
<text text-anchor="middle" x="569" y="-203.5" font-family="Helvetica,sans-Serif" font-size="10.00">Appointment.getDoctor</text>
</a>
</g>
</g>
<!-- Node2&#45;&gt;Node7 -->
<g id="edge6" class="edge">
<title>Node2&#45;&gt;Node7</title>
<path fill="none" stroke="midnightblue" d="M441.79,-183.07C458.35,-186.8 475.47,-190.65 491.54,-194.28"/>
<polygon fill="midnightblue" stroke="midnightblue" points="490.88,-197.71 501.41,-196.5 492.42,-190.88 490.88,-197.71"/>
</g>
<!-- Node8 -->
<g id="node8" class="node">
<title>Node8</title>
<g id="a_node8"><a xlink:href="classit_1_1unitn_1_1healthcore_1_1domain_1_1Appointment.html#a6adf9242cb006af27dd5ed15fdf82450" target="_top" xlink:title="Returns the end date and time of the appointment.">
<polygon fill="white" stroke="black" points="494.5,-147.5 494.5,-177.5 643.5,-177.5 643.5,-147.5 494.5,-147.5"/>
<text text-anchor="start" x="502.5" y="-165.5" font-family="Helvetica,sans-Serif" font-size="10.00">it.unitn.healthcore.domain.</text>
<text text-anchor="middle" x="569" y="-154.5" font-family="Helvetica,sans-Serif" font-size="10.00">Appointment.getEndTime</text>
</a>
</g>
</g>
<!-- Node2&#45;&gt;Node8 -->
<g id="edge7" class="edge">
<title>Node2&#45;&gt;Node8</title>
<path fill="none" stroke="midnightblue" d="M448.12,-162.5C460.17,-162.5 472.41,-162.5 484.23,-162.5"/>
<polygon fill="midnightblue" stroke="midnightblue" points="484.5,-166 494.5,-162.5 484.5,-159 484.5,-166"/>
</g>
<!-- Node9 -->
<g id="node9" class="node">
<title>Node9</title>
<g id="a_node9"><a xlink:href="classit_1_1unitn_1_1healthcore_1_1domain_1_1User.html#af8206b66c08446d8c3cb7e16b825a794" target="_top" xlink:title="Returns a string representation of the User.">
<polygon fill="white" stroke="black" points="494.5,-98.5 494.5,-128.5 643.5,-128.5 643.5,-98.5 494.5,-98.5"/>
<text text-anchor="start" x="502.5" y="-116.5" font-family="Helvetica,sans-Serif" font-size="10.00">it.unitn.healthcore.domain.</text>
<text text-anchor="middle" x="569" y="-105.5" font-family="Helvetica,sans-Serif" font-size="10.00">User.getId</text>
</a>
</g>
</g>
<!-- Node2&#45;&gt;Node9 -->
<g id="edge8" class="edge">
<title>Node2&#45;&gt;Node9</title>
<path fill="none" stroke="midnightblue" d="M441.79,-141.93C458.35,-138.2 475.47,-134.35 491.54,-130.72"/>
<polygon fill="midnightblue" stroke="midnightblue" points="492.42,-134.12 501.41,-128.5 490.88,-127.29 492.42,-134.12"/>
</g>
<!-- Node10 -->
<g id="node10" class="node">
<title>Node10</title>
<g id="a_node10"><a xlink:href="classit_1_1unitn_1_1healthcore_1_1domain_1_1Appointment.html#a60f84ee45966ebeed37981dffe94c8ad" target="_top" xlink:title="Returns the patient associated with the appointment.">
<polygon fill="white" stroke="black" points="494.5,-49.5 494.5,-79.5 643.5,-79.5 643.5,-49.5 494.5,-49.5"/>
<text text-anchor="start" x="502.5" y="-67.5" font-family="Helvetica,sans-Serif" font-size="10.00">it.unitn.healthcore.domain.</text>
<text text-anchor="middle" x="569" y="-56.5" font-family="Helvetica,sans-Serif" font-size="10.00">Appointment.getPatient</text>
</a>
</g>
</g>
<!-- Node2&#45;&gt;Node10 -->
<g id="edge9" class="edge">
<title>Node2&#45;&gt;Node10</title>
<path fill="none" stroke="midnightblue" d="M383.54,-141.87C409.98,-125.99 448.4,-104.34 484,-89.5 489.71,-87.12 495.73,-84.86 501.82,-82.75"/>
<polygon fill="midnightblue" stroke="midnightblue" points="503.02,-86.04 511.4,-79.56 500.8,-79.4 503.02,-86.04"/>
</g>
<!-- Node11 -->
<g id="node11" class="node">
<title>Node11</title>
<g id="a_node11"><a xlink:href="classit_1_1unitn_1_1healthcore_1_1domain_1_1Appointment.html#a9bd30e2d1b2e4de743b3e83b9cc50eb4" target="_top" xlink:title="Returns the start date and time of the appointment.">
<polygon fill="white" stroke="black" points="494.5,-0.5 494.5,-30.5 643.5,-30.5 643.5,-0.5 494.5,-0.5"/>
<text text-anchor="start" x="502.5" y="-18.5" font-family="Helvetica,sans-Serif" font-size="10.00">it.unitn.healthcore.domain.</text>
<text text-anchor="middle" x="569" y="-7.5" font-family="Helvetica,sans-Serif" font-size="10.00">Appointment.getStartTime</text>
</a>
</g>
</g>
<!-- Node2&#45;&gt;Node11 -->
<g id="edge10" class="edge">
<title>Node2&#45;&gt;Node11</title>
<path fill="none" stroke="midnightblue" d="M367.77,-141.71C391.35,-114.63 436.18,-67.56 484,-40.5 487.9,-38.29 492.02,-36.26 496.26,-34.39"/>
<polygon fill="midnightblue" stroke="midnightblue" points="497.72,-37.58 505.67,-30.57 495.08,-31.09 497.72,-37.58"/>
</g>
<!-- Node5 -->
<g id="node5" class="node">
<title>Node5</title>
<g id="a_node5"><a xlink:href="interfaceit_1_1unitn_1_1healthcore_1_1persistence_1_1UserRepository.html#a6a646ae44d01189ff44c81c03fc92fa8" target="_top" xlink:title=" ">
<polygon fill="white" stroke="black" points="693,-269.5 693,-299.5 867,-299.5 867,-269.5 693,-269.5"/>
<text text-anchor="start" x="701" y="-287.5" font-family="Helvetica,sans-Serif" font-size="10.00">it.unitn.healthcore.persistence.</text>
<text text-anchor="middle" x="780" y="-276.5" font-family="Helvetica,sans-Serif" font-size="10.00">UserRepository.findUserByEmail</text>
</a>
</g>
</g>
<!-- Node4&#45;&gt;Node5 -->
<g id="edge4" class="edge">
<title>Node4&#45;&gt;Node5</title>
<path fill="none" stroke="midnightblue" d="M646.64,-269.3C658.38,-270.65 670.63,-272.06 682.72,-273.44"/>
<polygon fill="midnightblue" stroke="midnightblue" points="682.51,-276.94 692.84,-274.61 683.3,-269.99 682.51,-276.94"/>
</g>
<!-- Node6 -->
<g id="node6" class="node">
<title>Node6</title>
<g id="a_node6"><a xlink:href="classit_1_1unitn_1_1healthcore_1_1business_1_1UserService.html#a703ed9778e3ac6cd9741220089b5f48d" target="_top" xlink:title="Retrieves the email of the currently authenticated user.">
<polygon fill="white" stroke="black" points="690,-220.5 690,-250.5 870,-250.5 870,-220.5 690,-220.5"/>
<text text-anchor="start" x="698" y="-238.5" font-family="Helvetica,sans-Serif" font-size="10.00">it.unitn.healthcore.business.</text>
<text text-anchor="middle" x="780" y="-227.5" font-family="Helvetica,sans-Serif" font-size="10.00">UserService.getCurrentUserEmail</text>
</a>
</g>
</g>
<!-- Node4&#45;&gt;Node6 -->
<g id="edge5" class="edge">
<title>Node4&#45;&gt;Node6</title>
<path fill="none" stroke="midnightblue" d="M646.64,-251.33C657.43,-250.04 668.65,-248.7 679.79,-247.37"/>
<polygon fill="midnightblue" stroke="midnightblue" points="680.47,-250.81 689.98,-246.15 679.64,-243.86 680.47,-250.81"/>
</g>
</g>
</svg>
