<?xml version="1.0" encoding="UTF-8" standalone="no"?>
<!DOCTYPE svg PUBLIC "-//W3C//DTD SVG 1.1//EN"
 "http://www.w3.org/Graphics/SVG/1.1/DTD/svg11.dtd">
<!-- Generated by graphviz version 2.43.0 (0)
 -->
<!-- Title: it.unitn.healthcore.controller.UserController.addEmployee Pages: 1 -->
<svg width="864pt" height="394pt"
 viewBox="0.00 0.00 864.00 393.50" xmlns="http://www.w3.org/2000/svg" xmlns:xlink="http://www.w3.org/1999/xlink">
<g id="graph0" class="graph" transform="scale(1 1) rotate(0) translate(4 389.5)">
<title>it.unitn.healthcore.controller.UserController.addEmployee</title>
<polygon fill="white" stroke="transparent" points="-4,4 -4,-389.5 860,-389.5 860,4 -4,4"/>
<!-- Node1 -->
<g id="node1" class="node">
<title>Node1</title>
<g id="a_node1"><a xlink:title=" ">
<polygon fill="#bfbfbf" stroke="black" points="0,-266.5 0,-296.5 158,-296.5 158,-266.5 0,-266.5"/>
<text text-anchor="start" x="8" y="-284.5" font-family="Helvetica,sans-Serif" font-size="10.00">it.unitn.healthcore.controller.</text>
<text text-anchor="middle" x="79" y="-273.5" font-family="Helvetica,sans-Serif" font-size="10.00">UserController.addEmployee</text>
</a>
</g>
</g>
<!-- Node2 -->
<g id="node2" class="node">
<title>Node2</title>
<g id="a_node2"><a xlink:href="classit_1_1unitn_1_1healthcore_1_1business_1_1UserService.html#a8bb76a3af453837d334e1f5a9551ff56" target="_top" xlink:title="Registers a new employee (doctor or administrator) in the system.">
<polygon fill="white" stroke="black" points="194,-266.5 194,-296.5 358,-296.5 358,-266.5 194,-266.5"/>
<text text-anchor="start" x="202" y="-284.5" font-family="Helvetica,sans-Serif" font-size="10.00">it.unitn.healthcore.business.</text>
<text text-anchor="middle" x="276" y="-273.5" font-family="Helvetica,sans-Serif" font-size="10.00">UserService.registerEmployee</text>
</a>
</g>
</g>
<!-- Node1&#45;&gt;Node2 -->
<g id="edge1" class="edge">
<title>Node1&#45;&gt;Node2</title>
<path fill="none" stroke="midnightblue" d="M158.19,-281.5C166.64,-281.5 175.3,-281.5 183.89,-281.5"/>
<polygon fill="midnightblue" stroke="midnightblue" points="183.92,-285 193.92,-281.5 183.92,-278 183.92,-285"/>
</g>
<!-- Node3 -->
<g id="node3" class="node">
<title>Node3</title>
<g id="a_node3"><a xlink:href="classit_1_1unitn_1_1healthcore_1_1domain_1_1EmployeeRegistrationForm.html#a2cddb295abb33e4d48081a4b179d0928" target="_top" xlink:title="Role getter.">
<polygon fill="white" stroke="black" points="394,-349.5 394,-379.5 584,-379.5 584,-349.5 394,-349.5"/>
<text text-anchor="start" x="402" y="-367.5" font-family="Helvetica,sans-Serif" font-size="10.00">it.unitn.healthcore.domain.</text>
<text text-anchor="middle" x="489" y="-356.5" font-family="Helvetica,sans-Serif" font-size="10.00">EmployeeRegistrationForm.getRole</text>
</a>
</g>
</g>
<!-- Node2&#45;&gt;Node3 -->
<g id="edge2" class="edge">
<title>Node2&#45;&gt;Node3</title>
<path fill="none" stroke="midnightblue" d="M303.73,-296.68C327.01,-309.43 361.96,-327.44 394,-339.5 400.68,-342.02 407.72,-344.38 414.82,-346.58"/>
<polygon fill="midnightblue" stroke="midnightblue" points="413.92,-349.96 424.5,-349.47 415.92,-343.26 413.92,-349.96"/>
</g>
<!-- Node4 -->
<g id="node4" class="node">
<title>Node4</title>
<g id="a_node4"><a xlink:href="classit_1_1unitn_1_1healthcore_1_1domain_1_1PasswordConfirmationForm.html#a181a1ca7ab3c4d07cb7f3817c1de6974" target="_top" xlink:title="Validates the password confirmation form by checking if the password and confirmation match,...">
<polygon fill="white" stroke="black" points="396.5,-289 396.5,-330 581.5,-330 581.5,-289 396.5,-289"/>
<text text-anchor="start" x="404.5" y="-318" font-family="Helvetica,sans-Serif" font-size="10.00">it.unitn.healthcore.domain.</text>
<text text-anchor="start" x="404.5" y="-307" font-family="Helvetica,sans-Serif" font-size="10.00">PasswordConfirmationForm.isValid</text>
<text text-anchor="middle" x="489" y="-296" font-family="Helvetica,sans-Serif" font-size="10.00">PasswordForm</text>
</a>
</g>
</g>
<!-- Node2&#45;&gt;Node4 -->
<g id="edge3" class="edge">
<title>Node2&#45;&gt;Node4</title>
<path fill="none" stroke="midnightblue" d="M358.28,-292.29C367.4,-293.5 376.78,-294.74 386.12,-295.98"/>
<polygon fill="midnightblue" stroke="midnightblue" points="385.85,-299.48 396.22,-297.32 386.77,-292.54 385.85,-299.48"/>
</g>
<!-- Node7 -->
<g id="node7" class="node">
<title>Node7</title>
<g id="a_node7"><a xlink:href="classit_1_1unitn_1_1healthcore_1_1business_1_1UserService.html#aebfef6bf9480fb24956dba8b10232d2f" target="_top" xlink:title="Registers a new administrator in the system.">
<polygon fill="white" stroke="black" points="398,-239.5 398,-269.5 580,-269.5 580,-239.5 398,-239.5"/>
<text text-anchor="start" x="406" y="-257.5" font-family="Helvetica,sans-Serif" font-size="10.00">it.unitn.healthcore.business.</text>
<text text-anchor="middle" x="489" y="-246.5" font-family="Helvetica,sans-Serif" font-size="10.00">UserService.registerAdministrator</text>
</a>
</g>
</g>
<!-- Node2&#45;&gt;Node7 -->
<g id="edge6" class="edge">
<title>Node2&#45;&gt;Node7</title>
<path fill="none" stroke="midnightblue" d="M358.28,-271.1C368.03,-269.85 378.07,-268.57 388.05,-267.29"/>
<polygon fill="midnightblue" stroke="midnightblue" points="388.52,-270.76 397.99,-266.02 387.63,-263.82 388.52,-270.76"/>
</g>
<!-- Node11 -->
<g id="node11" class="node">
<title>Node11</title>
<g id="a_node11"><a xlink:href="classit_1_1unitn_1_1healthcore_1_1business_1_1UserService.html#af71b0f13c31c938efe9fce54ab3d7f7d" target="_top" xlink:title="Registers a new doctor in the system.">
<polygon fill="white" stroke="black" points="411.5,-169.5 411.5,-199.5 566.5,-199.5 566.5,-169.5 411.5,-169.5"/>
<text text-anchor="start" x="419.5" y="-187.5" font-family="Helvetica,sans-Serif" font-size="10.00">it.unitn.healthcore.business.</text>
<text text-anchor="middle" x="489" y="-176.5" font-family="Helvetica,sans-Serif" font-size="10.00">UserService.registerDoctor</text>
</a>
</g>
</g>
<!-- Node2&#45;&gt;Node11 -->
<g id="edge11" class="edge">
<title>Node2&#45;&gt;Node11</title>
<path fill="none" stroke="midnightblue" d="M309.97,-266.34C346.67,-249.47 406.06,-222.17 446.04,-203.79"/>
<polygon fill="midnightblue" stroke="midnightblue" points="447.64,-206.91 455.26,-199.55 444.71,-200.55 447.64,-206.91"/>
</g>
<!-- Node5 -->
<g id="node5" class="node">
<title>Node5</title>
<g id="a_node5"><a xlink:href="classit_1_1unitn_1_1healthcore_1_1domain_1_1PasswordConfirmationForm.html#aa7de23a583db33eba13ddecad973ceca" target="_top" xlink:title="Password getter.">
<polygon fill="white" stroke="black" points="630.5,-294.5 630.5,-324.5 845.5,-324.5 845.5,-294.5 630.5,-294.5"/>
<text text-anchor="start" x="638.5" y="-312.5" font-family="Helvetica,sans-Serif" font-size="10.00">it.unitn.healthcore.domain.</text>
<text text-anchor="middle" x="738" y="-301.5" font-family="Helvetica,sans-Serif" font-size="10.00">PasswordConfirmationForm.getPassword</text>
</a>
</g>
</g>
<!-- Node4&#45;&gt;Node5 -->
<g id="edge4" class="edge">
<title>Node4&#45;&gt;Node5</title>
<path fill="none" stroke="midnightblue" d="M581.62,-309.5C594.08,-309.5 607,-309.5 619.84,-309.5"/>
<polygon fill="midnightblue" stroke="midnightblue" points="620.1,-313 630.1,-309.5 620.1,-306 620.1,-313"/>
</g>
<!-- Node6 -->
<g id="node6" class="node">
<title>Node6</title>
<g id="a_node6"><a xlink:href="classit_1_1unitn_1_1healthcore_1_1domain_1_1PasswordConfirmationForm.html#add77c52ff85c3a8caefe02af899fe10b" target="_top" xlink:title="Password confirmation getter.">
<polygon fill="white" stroke="black" points="630.5,-344 630.5,-385 845.5,-385 845.5,-344 630.5,-344"/>
<text text-anchor="start" x="638.5" y="-373" font-family="Helvetica,sans-Serif" font-size="10.00">it.unitn.healthcore.domain.</text>
<text text-anchor="start" x="638.5" y="-362" font-family="Helvetica,sans-Serif" font-size="10.00">PasswordConfirmationForm.getPassword</text>
<text text-anchor="middle" x="738" y="-351" font-family="Helvetica,sans-Serif" font-size="10.00">Confirmation</text>
</a>
</g>
</g>
<!-- Node4&#45;&gt;Node6 -->
<g id="edge5" class="edge">
<title>Node4&#45;&gt;Node6</title>
<path fill="none" stroke="midnightblue" d="M581.62,-329.9C598.84,-333.74 616.94,-337.77 634.46,-341.67"/>
<polygon fill="midnightblue" stroke="midnightblue" points="634.18,-345.19 644.7,-343.95 635.7,-338.36 634.18,-345.19"/>
</g>
<!-- Node7&#45;&gt;Node5 -->
<g id="edge9" class="edge">
<title>Node7&#45;&gt;Node5</title>
<path fill="none" stroke="midnightblue" d="M551.41,-269.57C573.05,-274.76 597.57,-280.53 620,-285.5 630.38,-287.8 641.3,-290.15 652.13,-292.42"/>
<polygon fill="midnightblue" stroke="midnightblue" points="651.52,-295.87 662.03,-294.49 652.95,-289.02 651.52,-295.87"/>
</g>
<!-- Node8 -->
<g id="node8" class="node">
<title>Node8</title>
<g id="a_node8"><a xlink:href="classit_1_1unitn_1_1healthcore_1_1domain_1_1PasswordConfirmationForm.html#ad2a321af868704e56c42d5306a8acd91" target="_top" xlink:title="Email getter.">
<polygon fill="white" stroke="black" points="639.5,-245.5 639.5,-275.5 836.5,-275.5 836.5,-245.5 639.5,-245.5"/>
<text text-anchor="start" x="647.5" y="-263.5" font-family="Helvetica,sans-Serif" font-size="10.00">it.unitn.healthcore.domain.</text>
<text text-anchor="middle" x="738" y="-252.5" font-family="Helvetica,sans-Serif" font-size="10.00">PasswordConfirmationForm.getEmail</text>
</a>
</g>
</g>
<!-- Node7&#45;&gt;Node8 -->
<g id="edge7" class="edge">
<title>Node7&#45;&gt;Node8</title>
<path fill="none" stroke="midnightblue" d="M580.22,-256.69C596.08,-257.08 612.74,-257.48 629.03,-257.88"/>
<polygon fill="midnightblue" stroke="midnightblue" points="629.03,-261.38 639.11,-258.12 629.2,-254.38 629.03,-261.38"/>
</g>
<!-- Node9 -->
<g id="node9" class="node">
<title>Node9</title>
<g id="a_node9"><a xlink:href="classit_1_1unitn_1_1healthcore_1_1domain_1_1EmployeeRegistrationForm.html#ae00ab1333401d899f6e010a99e5afec8" target="_top" xlink:title="Name getter.">
<polygon fill="white" stroke="black" points="639.5,-196.5 639.5,-226.5 836.5,-226.5 836.5,-196.5 639.5,-196.5"/>
<text text-anchor="start" x="647.5" y="-214.5" font-family="Helvetica,sans-Serif" font-size="10.00">it.unitn.healthcore.domain.</text>
<text text-anchor="middle" x="738" y="-203.5" font-family="Helvetica,sans-Serif" font-size="10.00">EmployeeRegistrationForm.getName</text>
</a>
</g>
</g>
<!-- Node7&#45;&gt;Node9 -->
<g id="edge8" class="edge">
<title>Node7&#45;&gt;Node9</title>
<path fill="none" stroke="midnightblue" d="M576.39,-239.46C597.17,-235.84 619.49,-231.96 640.68,-228.27"/>
<polygon fill="midnightblue" stroke="midnightblue" points="641.41,-231.69 650.66,-226.53 640.21,-224.8 641.41,-231.69"/>
</g>
<!-- Node10 -->
<g id="node10" class="node">
<title>Node10</title>
<g id="a_node10"><a xlink:href="classit_1_1unitn_1_1healthcore_1_1domain_1_1EmployeeRegistrationForm.html#af1804bfdb0eb5dd711f6344f6c7e420c" target="_top" xlink:title="Surname getter.">
<polygon fill="white" stroke="black" points="632,-147.5 632,-177.5 844,-177.5 844,-147.5 632,-147.5"/>
<text text-anchor="start" x="640" y="-165.5" font-family="Helvetica,sans-Serif" font-size="10.00">it.unitn.healthcore.domain.</text>
<text text-anchor="middle" x="738" y="-154.5" font-family="Helvetica,sans-Serif" font-size="10.00">EmployeeRegistrationForm.getSurname</text>
</a>
</g>
</g>
<!-- Node7&#45;&gt;Node10 -->
<g id="edge10" class="edge">
<title>Node7&#45;&gt;Node10</title>
<path fill="none" stroke="midnightblue" d="M523.48,-239.49C541.61,-231.1 564.28,-220.21 584,-209.5 600.48,-200.55 602.58,-194.45 620,-187.5 626.63,-184.85 633.59,-182.47 640.67,-180.32"/>
<polygon fill="midnightblue" stroke="midnightblue" points="641.74,-183.66 650.39,-177.54 639.81,-176.93 641.74,-183.66"/>
</g>
<!-- Node11&#45;&gt;Node5 -->
<g id="edge16" class="edge">
<title>Node11&#45;&gt;Node5</title>
<path fill="none" stroke="midnightblue" d="M532.7,-199.62C549.91,-207.11 569.15,-217.39 584,-230.5 605.9,-249.83 595.83,-269.08 620,-285.5 622.29,-287.06 624.66,-288.52 627.1,-289.89"/>
<polygon fill="midnightblue" stroke="midnightblue" points="625.68,-293.09 636.19,-294.46 628.82,-286.84 625.68,-293.09"/>
</g>
<!-- Node11&#45;&gt;Node8 -->
<g id="edge14" class="edge">
<title>Node11&#45;&gt;Node8</title>
<path fill="none" stroke="midnightblue" d="M522.82,-199.52C548.76,-210.93 586.12,-226.34 620,-236.5 627.92,-238.88 636.22,-241.1 644.58,-243.15"/>
<polygon fill="midnightblue" stroke="midnightblue" points="643.86,-246.57 654.4,-245.48 645.48,-239.76 643.86,-246.57"/>
</g>
<!-- Node11&#45;&gt;Node9 -->
<g id="edge15" class="edge">
<title>Node11&#45;&gt;Node9</title>
<path fill="none" stroke="midnightblue" d="M566.8,-192.89C586.6,-195.06 608.29,-197.43 629.35,-199.73"/>
<polygon fill="midnightblue" stroke="midnightblue" points="628.97,-203.21 639.3,-200.82 629.74,-196.25 628.97,-203.21"/>
</g>
<!-- Node11&#45;&gt;Node10 -->
<g id="edge17" class="edge">
<title>Node11&#45;&gt;Node10</title>
<path fill="none" stroke="midnightblue" d="M566.8,-177.66C584.2,-176.11 603.06,-174.43 621.67,-172.77"/>
<polygon fill="midnightblue" stroke="midnightblue" points="622.02,-176.26 631.67,-171.88 621.4,-169.28 622.02,-176.26"/>
</g>
<!-- Node12 -->
<g id="node12" class="node">
<title>Node12</title>
<g id="a_node12"><a xlink:href="classit_1_1unitn_1_1healthcore_1_1domain_1_1EmployeeRegistrationForm.html#aacda9ff32f2f6c240f9f1ce7a746839a" target="_top" xlink:title="Department ID getter.">
<polygon fill="white" stroke="black" points="620,-98.5 620,-128.5 856,-128.5 856,-98.5 620,-98.5"/>
<text text-anchor="start" x="628" y="-116.5" font-family="Helvetica,sans-Serif" font-size="10.00">it.unitn.healthcore.domain.</text>
<text text-anchor="middle" x="738" y="-105.5" font-family="Helvetica,sans-Serif" font-size="10.00">EmployeeRegistrationForm.getDepartmentId</text>
</a>
</g>
</g>
<!-- Node11&#45;&gt;Node12 -->
<g id="edge12" class="edge">
<title>Node11&#45;&gt;Node12</title>
<path fill="none" stroke="midnightblue" d="M528.26,-169.49C553.94,-159.78 588.67,-147.35 620,-138.5 629.52,-135.81 639.55,-133.26 649.56,-130.88"/>
<polygon fill="midnightblue" stroke="midnightblue" points="650.6,-134.23 659.56,-128.57 649.02,-127.41 650.6,-134.23"/>
</g>
<!-- Node13 -->
<g id="node13" class="node">
<title>Node13</title>
<g id="a_node13"><a xlink:href="classit_1_1unitn_1_1healthcore_1_1domain_1_1Department.html#ad38ac8809036af86857a94672fd341e0" target="_top" xlink:title=" ">
<polygon fill="white" stroke="black" points="663.5,-49.5 663.5,-79.5 812.5,-79.5 812.5,-49.5 663.5,-49.5"/>
<text text-anchor="start" x="671.5" y="-67.5" font-family="Helvetica,sans-Serif" font-size="10.00">it.unitn.healthcore.domain.</text>
<text text-anchor="middle" x="738" y="-56.5" font-family="Helvetica,sans-Serif" font-size="10.00">Department.getDoctors</text>
</a>
</g>
</g>
<!-- Node11&#45;&gt;Node13 -->
<g id="edge13" class="edge">
<title>Node11&#45;&gt;Node13</title>
<path fill="none" stroke="midnightblue" d="M505.81,-169.43C528.97,-148.24 574.33,-109.94 620,-89.5 630.59,-84.76 642.13,-80.9 653.7,-77.76"/>
<polygon fill="midnightblue" stroke="midnightblue" points="654.58,-81.15 663.41,-75.29 652.85,-74.36 654.58,-81.15"/>
</g>
<!-- Node14 -->
<g id="node14" class="node">
<title>Node14</title>
<g id="a_node14"><a xlink:href="classit_1_1unitn_1_1healthcore_1_1domain_1_1Department.html#adb4a544815968649e801e2182b7069f0" target="_top" xlink:title="Returns the total staff positions within the department.">
<polygon fill="white" stroke="black" points="646,-0.5 646,-30.5 830,-30.5 830,-0.5 646,-0.5"/>
<text text-anchor="start" x="654" y="-18.5" font-family="Helvetica,sans-Serif" font-size="10.00">it.unitn.healthcore.domain.</text>
<text text-anchor="middle" x="738" y="-7.5" font-family="Helvetica,sans-Serif" font-size="10.00">Department.getTotalStaffPositions</text>
</a>
</g>
</g>
<!-- Node11&#45;&gt;Node14 -->
<g id="edge18" class="edge">
<title>Node11&#45;&gt;Node14</title>
<path fill="none" stroke="midnightblue" d="M498.89,-169.32C517.32,-139.27 562.82,-72.32 620,-39.5 625.13,-36.56 630.56,-33.97 636.17,-31.7"/>
<polygon fill="midnightblue" stroke="midnightblue" points="637.59,-34.91 645.76,-28.17 635.17,-28.34 637.59,-34.91"/>
</g>
</g>
</svg>
