<?xml version="1.0" encoding="UTF-8" standalone="no"?>
<!DOCTYPE svg PUBLIC "-//W3C//DTD SVG 1.1//EN"
 "http://www.w3.org/Graphics/SVG/1.1/DTD/svg11.dtd">
<!-- Generated by graphviz version 2.43.0 (0)
 -->
<!-- Title: it.unitn.healthcore.business.AppointmentService.getFutureAppointments Pages: 1 -->
<svg width="500pt" height="88pt"
 viewBox="0.00 0.00 500.00 88.00" xmlns="http://www.w3.org/2000/svg" xmlns:xlink="http://www.w3.org/1999/xlink">
<g id="graph0" class="graph" transform="scale(1 1) rotate(0) translate(4 84)">
<title>it.unitn.healthcore.business.AppointmentService.getFutureAppointments</title>
<polygon fill="white" stroke="transparent" points="-4,4 -4,-84 496,-84 496,4 -4,4"/>
<!-- Node1 -->
<g id="node1" class="node">
<title>Node1</title>
<g id="a_node1"><a xlink:title=" ">
<polygon fill="#bfbfbf" stroke="black" points="259,-24.5 259,-54.5 492,-54.5 492,-24.5 259,-24.5"/>
<text text-anchor="start" x="267" y="-42.5" font-family="Helvetica,sans-Serif" font-size="10.00">it.unitn.healthcore.business.</text>
<text text-anchor="middle" x="375.5" y="-31.5" font-family="Helvetica,sans-Serif" font-size="10.00">AppointmentService.getFutureAppointments</text>
</a>
</g>
</g>
<!-- Node2 -->
<g id="node2" class="node">
<title>Node2</title>
<g id="a_node2"><a xlink:href="classit_1_1unitn_1_1healthcore_1_1controller_1_1DoctorController.html#a422bd25fb5f44b8f763d6a29787c46f0" target="_top" xlink:title="Retrieves a list of future appointments for the currently authenticated doctor.">
<polygon fill="white" stroke="black" points="1,-49.5 1,-79.5 222,-79.5 222,-49.5 1,-49.5"/>
<text text-anchor="start" x="9" y="-67.5" font-family="Helvetica,sans-Serif" font-size="10.00">it.unitn.healthcore.controller.</text>
<text text-anchor="middle" x="111.5" y="-56.5" font-family="Helvetica,sans-Serif" font-size="10.00">DoctorController.viewFutureAppointments</text>
</a>
</g>
</g>
<!-- Node1&#45;&gt;Node2 -->
<g id="edge1" class="edge">
<title>Node1&#45;&gt;Node2</title>
<path fill="none" stroke="midnightblue" d="M248.78,-51.5C239.87,-52.35 230.92,-53.2 222.11,-54.04"/>
<polygon fill="midnightblue" stroke="midnightblue" points="249.2,-54.97 258.82,-50.54 248.53,-48 249.2,-54.97"/>
</g>
<!-- Node3 -->
<g id="node3" class="node">
<title>Node3</title>
<g id="a_node3"><a xlink:href="classit_1_1unitn_1_1healthcore_1_1controller_1_1PatientController.html#a4207a6fab035c5242ecda1abdb49169e" target="_top" xlink:title=" ">
<polygon fill="white" stroke="black" points="0,-0.5 0,-30.5 223,-30.5 223,-0.5 0,-0.5"/>
<text text-anchor="start" x="8" y="-18.5" font-family="Helvetica,sans-Serif" font-size="10.00">it.unitn.healthcore.controller.</text>
<text text-anchor="middle" x="111.5" y="-7.5" font-family="Helvetica,sans-Serif" font-size="10.00">PatientController.viewFutureAppointments</text>
</a>
</g>
</g>
<!-- Node1&#45;&gt;Node3 -->
<g id="edge2" class="edge">
<title>Node1&#45;&gt;Node3</title>
<path fill="none" stroke="midnightblue" d="M248.84,-27.99C240.32,-27.21 231.77,-26.43 223.34,-25.65"/>
<polygon fill="midnightblue" stroke="midnightblue" points="248.54,-31.48 258.82,-28.9 249.18,-24.51 248.54,-31.48"/>
</g>
</g>
</svg>
