<?xml version="1.0" encoding="UTF-8" standalone="no"?>
<!DOCTYPE svg PUBLIC "-//W3C//DTD SVG 1.1//EN"
 "http://www.w3.org/Graphics/SVG/1.1/DTD/svg11.dtd">
<!-- Generated by graphviz version 2.43.0 (0)
 -->
<!-- Title: it.unitn.healthcore.controller.PatientController.updateInsurancePlan Pages: 1 -->
<svg width="863pt" height="186pt"
 viewBox="0.00 0.00 863.00 186.00" xmlns="http://www.w3.org/2000/svg" xmlns:xlink="http://www.w3.org/1999/xlink">
<g id="graph0" class="graph" transform="scale(1 1) rotate(0) translate(4 182)">
<title>it.unitn.healthcore.controller.PatientController.updateInsurancePlan</title>
<polygon fill="white" stroke="transparent" points="-4,4 -4,-182 859,-182 859,4 -4,4"/>
<!-- Node1 -->
<g id="node1" class="node">
<title>Node1</title>
<g id="a_node1"><a xlink:title=" ">
<polygon fill="#bfbfbf" stroke="black" points="0,-73.5 0,-103.5 203,-103.5 203,-73.5 0,-73.5"/>
<text text-anchor="start" x="8" y="-91.5" font-family="Helvetica,sans-Serif" font-size="10.00">it.unitn.healthcore.controller.</text>
<text text-anchor="middle" x="101.5" y="-80.5" font-family="Helvetica,sans-Serif" font-size="10.00">PatientController.updateInsurancePlan</text>
</a>
</g>
</g>
<!-- Node2 -->
<g id="node2" class="node">
<title>Node2</title>
<g id="a_node2"><a xlink:href="classit_1_1unitn_1_1healthcore_1_1business_1_1PatientService.html#a9c5655c1b706c7dba40efb883c900a39" target="_top" xlink:title=" ">
<polygon fill="white" stroke="black" points="239,-98.5 239,-128.5 448,-128.5 448,-98.5 239,-98.5"/>
<text text-anchor="start" x="247" y="-116.5" font-family="Helvetica,sans-Serif" font-size="10.00">it.unitn.healthcore.business.</text>
<text text-anchor="middle" x="343.5" y="-105.5" font-family="Helvetica,sans-Serif" font-size="10.00">PatientService.getCurrentInsurancePlan</text>
</a>
</g>
</g>
<!-- Node1&#45;&gt;Node2 -->
<g id="edge1" class="edge">
<title>Node1&#45;&gt;Node2</title>
<path fill="none" stroke="midnightblue" d="M203.24,-98.99C211.72,-99.88 220.34,-100.77 228.91,-101.67"/>
<polygon fill="midnightblue" stroke="midnightblue" points="228.63,-105.16 238.94,-102.71 229.35,-98.19 228.63,-105.16"/>
</g>
<!-- Node7 -->
<g id="node7" class="node">
<title>Node7</title>
<g id="a_node7"><a xlink:href="classit_1_1unitn_1_1healthcore_1_1business_1_1PatientService.html#a541ee9273fd696797608c005eb4d2f78" target="_top" xlink:title=" ">
<polygon fill="white" stroke="black" points="248,-49.5 248,-79.5 439,-79.5 439,-49.5 248,-49.5"/>
<text text-anchor="start" x="256" y="-67.5" font-family="Helvetica,sans-Serif" font-size="10.00">it.unitn.healthcore.business.</text>
<text text-anchor="middle" x="343.5" y="-56.5" font-family="Helvetica,sans-Serif" font-size="10.00">PatientService.updateInsurancePlan</text>
</a>
</g>
</g>
<!-- Node1&#45;&gt;Node7 -->
<g id="edge6" class="edge">
<title>Node1&#45;&gt;Node7</title>
<path fill="none" stroke="midnightblue" d="M203.24,-78.43C214.65,-77.29 226.3,-76.12 237.76,-74.97"/>
<polygon fill="midnightblue" stroke="midnightblue" points="238.17,-78.45 247.77,-73.97 237.47,-71.49 238.17,-78.45"/>
</g>
<!-- Node3 -->
<g id="node3" class="node">
<title>Node3</title>
<g id="a_node3"><a xlink:href="classit_1_1unitn_1_1healthcore_1_1business_1_1UserService.html#a33213d05bfda4e7384e17b18332d4bb5" target="_top" xlink:title=" ">
<polygon fill="white" stroke="black" points="484,-98.5 484,-128.5 639,-128.5 639,-98.5 484,-98.5"/>
<text text-anchor="start" x="492" y="-116.5" font-family="Helvetica,sans-Serif" font-size="10.00">it.unitn.healthcore.business.</text>
<text text-anchor="middle" x="561.5" y="-105.5" font-family="Helvetica,sans-Serif" font-size="10.00">UserService.getCurrentUser</text>
</a>
</g>
</g>
<!-- Node2&#45;&gt;Node3 -->
<g id="edge2" class="edge">
<title>Node2&#45;&gt;Node3</title>
<path fill="none" stroke="midnightblue" d="M448.07,-113.5C456.62,-113.5 465.2,-113.5 473.6,-113.5"/>
<polygon fill="midnightblue" stroke="midnightblue" points="473.75,-117 483.75,-113.5 473.75,-110 473.75,-117"/>
</g>
<!-- Node6 -->
<g id="node6" class="node">
<title>Node6</title>
<g id="a_node6"><a xlink:href="classit_1_1unitn_1_1healthcore_1_1domain_1_1Patient.html#a48266d60ec0c7b2baebd9aef60e6cbfe" target="_top" xlink:title="Insurance plan getter.">
<polygon fill="white" stroke="black" points="487,-147.5 487,-177.5 636,-177.5 636,-147.5 487,-147.5"/>
<text text-anchor="start" x="495" y="-165.5" font-family="Helvetica,sans-Serif" font-size="10.00">it.unitn.healthcore.domain.</text>
<text text-anchor="middle" x="561.5" y="-154.5" font-family="Helvetica,sans-Serif" font-size="10.00">Patient.getInsurancePlan</text>
</a>
</g>
</g>
<!-- Node2&#45;&gt;Node6 -->
<g id="edge5" class="edge">
<title>Node2&#45;&gt;Node6</title>
<path fill="none" stroke="midnightblue" d="M410.78,-128.53C434.1,-133.83 460.49,-139.81 484.55,-145.27"/>
<polygon fill="midnightblue" stroke="midnightblue" points="483.82,-148.69 494.35,-147.49 485.37,-141.87 483.82,-148.69"/>
</g>
<!-- Node4 -->
<g id="node4" class="node">
<title>Node4</title>
<g id="a_node4"><a xlink:href="interfaceit_1_1unitn_1_1healthcore_1_1persistence_1_1UserRepository.html#a6a646ae44d01189ff44c81c03fc92fa8" target="_top" xlink:title=" ">
<polygon fill="white" stroke="black" points="678,-122.5 678,-152.5 852,-152.5 852,-122.5 678,-122.5"/>
<text text-anchor="start" x="686" y="-140.5" font-family="Helvetica,sans-Serif" font-size="10.00">it.unitn.healthcore.persistence.</text>
<text text-anchor="middle" x="765" y="-129.5" font-family="Helvetica,sans-Serif" font-size="10.00">UserRepository.findUserByEmail</text>
</a>
</g>
</g>
<!-- Node3&#45;&gt;Node4 -->
<g id="edge3" class="edge">
<title>Node3&#45;&gt;Node4</title>
<path fill="none" stroke="midnightblue" d="M639.25,-122.64C648.58,-123.75 658.2,-124.9 667.76,-126.04"/>
<polygon fill="midnightblue" stroke="midnightblue" points="667.35,-129.51 677.7,-127.22 668.18,-122.56 667.35,-129.51"/>
</g>
<!-- Node5 -->
<g id="node5" class="node">
<title>Node5</title>
<g id="a_node5"><a xlink:href="classit_1_1unitn_1_1healthcore_1_1business_1_1UserService.html#a703ed9778e3ac6cd9741220089b5f48d" target="_top" xlink:title=" ">
<polygon fill="white" stroke="black" points="675,-73.5 675,-103.5 855,-103.5 855,-73.5 675,-73.5"/>
<text text-anchor="start" x="683" y="-91.5" font-family="Helvetica,sans-Serif" font-size="10.00">it.unitn.healthcore.business.</text>
<text text-anchor="middle" x="765" y="-80.5" font-family="Helvetica,sans-Serif" font-size="10.00">UserService.getCurrentUserEmail</text>
</a>
</g>
</g>
<!-- Node3&#45;&gt;Node5 -->
<g id="edge4" class="edge">
<title>Node3&#45;&gt;Node5</title>
<path fill="none" stroke="midnightblue" d="M639.25,-103.98C647.65,-102.94 656.28,-101.87 664.89,-100.8"/>
<polygon fill="midnightblue" stroke="midnightblue" points="665.49,-104.25 674.98,-99.54 664.62,-97.3 665.49,-104.25"/>
</g>
<!-- Node7&#45;&gt;Node3 -->
<g id="edge7" class="edge">
<title>Node7&#45;&gt;Node3</title>
<path fill="none" stroke="midnightblue" d="M410.78,-79.53C434.1,-84.83 460.49,-90.81 484.55,-96.27"/>
<polygon fill="midnightblue" stroke="midnightblue" points="483.82,-99.69 494.35,-98.49 485.37,-92.87 483.82,-99.69"/>
</g>
<!-- Node8 -->
<g id="node8" class="node">
<title>Node8</title>
<g id="a_node8"><a xlink:href="classit_1_1unitn_1_1healthcore_1_1domain_1_1User.html#af8206b66c08446d8c3cb7e16b825a794" target="_top" xlink:title="Returns a string representation of the User.">
<polygon fill="white" stroke="black" points="487,-49.5 487,-79.5 636,-79.5 636,-49.5 487,-49.5"/>
<text text-anchor="start" x="495" y="-67.5" font-family="Helvetica,sans-Serif" font-size="10.00">it.unitn.healthcore.domain.</text>
<text text-anchor="middle" x="561.5" y="-56.5" font-family="Helvetica,sans-Serif" font-size="10.00">User.getId</text>
</a>
</g>
</g>
<!-- Node7&#45;&gt;Node8 -->
<g id="edge8" class="edge">
<title>Node7&#45;&gt;Node8</title>
<path fill="none" stroke="midnightblue" d="M439.24,-64.5C451.73,-64.5 464.45,-64.5 476.74,-64.5"/>
<polygon fill="midnightblue" stroke="midnightblue" points="476.94,-68 486.94,-64.5 476.94,-61 476.94,-68"/>
</g>
<!-- Node9 -->
<g id="node9" class="node">
<title>Node9</title>
<g id="a_node9"><a xlink:href="classit_1_1unitn_1_1healthcore_1_1domain_1_1Patient.html#afbff2ff4714363a46b30f1bbb1e76d56" target="_top" xlink:title="Insurance plan setter.">
<polygon fill="white" stroke="black" points="487,-0.5 487,-30.5 636,-30.5 636,-0.5 487,-0.5"/>
<text text-anchor="start" x="495" y="-18.5" font-family="Helvetica,sans-Serif" font-size="10.00">it.unitn.healthcore.domain.</text>
<text text-anchor="middle" x="561.5" y="-7.5" font-family="Helvetica,sans-Serif" font-size="10.00">Patient.setInsurancePlan</text>
</a>
</g>
</g>
<!-- Node7&#45;&gt;Node9 -->
<g id="edge9" class="edge">
<title>Node7&#45;&gt;Node9</title>
<path fill="none" stroke="midnightblue" d="M410.78,-49.47C434.1,-44.17 460.49,-38.19 484.55,-32.73"/>
<polygon fill="midnightblue" stroke="midnightblue" points="485.37,-36.13 494.35,-30.51 483.82,-29.31 485.37,-36.13"/>
</g>
</g>
</svg>
