<?xml version="1.0" encoding="UTF-8" standalone="no"?>
<!DOCTYPE svg PUBLIC "-//W3C//DTD SVG 1.1//EN"
 "http://www.w3.org/Graphics/SVG/1.1/DTD/svg11.dtd">
<!-- Generated by graphviz version 2.43.0 (0)
 -->
<!-- Title: it.unitn.healthcore.business.UserService.registerDoctor Pages: 1 -->
<svg width="435pt" height="333pt"
 viewBox="0.00 0.00 435.00 333.00" xmlns="http://www.w3.org/2000/svg" xmlns:xlink="http://www.w3.org/1999/xlink">
<g id="graph0" class="graph" transform="scale(1 1) rotate(0) translate(4 329)">
<title>it.unitn.healthcore.business.UserService.registerDoctor</title>
<polygon fill="white" stroke="transparent" points="-4,4 -4,-329 431,-329 431,4 -4,4"/>
<!-- Node1 -->
<g id="node1" class="node">
<title>Node1</title>
<g id="a_node1"><a xlink:title="Registers a new doctor in the system.">
<polygon fill="#bfbfbf" stroke="black" points="0,-147.5 0,-177.5 155,-177.5 155,-147.5 0,-147.5"/>
<text text-anchor="start" x="8" y="-165.5" font-family="Helvetica,sans-Serif" font-size="10.00">it.unitn.healthcore.business.</text>
<text text-anchor="middle" x="77.5" y="-154.5" font-family="Helvetica,sans-Serif" font-size="10.00">UserService.registerDoctor</text>
</a>
</g>
</g>
<!-- Node2 -->
<g id="node2" class="node">
<title>Node2</title>
<g id="a_node2"><a xlink:href="classit_1_1unitn_1_1healthcore_1_1domain_1_1EmployeeRegistrationForm.html#aacda9ff32f2f6c240f9f1ce7a746839a" target="_top" xlink:title="Department ID getter.">
<polygon fill="white" stroke="black" points="191,-294.5 191,-324.5 427,-324.5 427,-294.5 191,-294.5"/>
<text text-anchor="start" x="199" y="-312.5" font-family="Helvetica,sans-Serif" font-size="10.00">it.unitn.healthcore.domain.</text>
<text text-anchor="middle" x="309" y="-301.5" font-family="Helvetica,sans-Serif" font-size="10.00">EmployeeRegistrationForm.getDepartmentId</text>
</a>
</g>
</g>
<!-- Node1&#45;&gt;Node2 -->
<g id="edge1" class="edge">
<title>Node1&#45;&gt;Node2</title>
<path fill="none" stroke="midnightblue" d="M87.81,-177.82C104.78,-204.33 143.43,-258.51 191,-285.5 194.12,-287.27 197.34,-288.91 200.65,-290.42"/>
<polygon fill="midnightblue" stroke="midnightblue" points="199.6,-293.78 210.18,-294.39 202.29,-287.32 199.6,-293.78"/>
</g>
<!-- Node3 -->
<g id="node3" class="node">
<title>Node3</title>
<g id="a_node3"><a xlink:href="classit_1_1unitn_1_1healthcore_1_1domain_1_1Department.html#ad38ac8809036af86857a94672fd341e0" target="_top" xlink:title=" ">
<polygon fill="white" stroke="black" points="234.5,-245.5 234.5,-275.5 383.5,-275.5 383.5,-245.5 234.5,-245.5"/>
<text text-anchor="start" x="242.5" y="-263.5" font-family="Helvetica,sans-Serif" font-size="10.00">it.unitn.healthcore.domain.</text>
<text text-anchor="middle" x="309" y="-252.5" font-family="Helvetica,sans-Serif" font-size="10.00">Department.getDoctors</text>
</a>
</g>
</g>
<!-- Node1&#45;&gt;Node3 -->
<g id="edge2" class="edge">
<title>Node1&#45;&gt;Node3</title>
<path fill="none" stroke="midnightblue" d="M96.76,-177.7C118.04,-194.64 154.92,-221.58 191,-236.5 201.52,-240.85 212.91,-244.44 224.32,-247.39"/>
<polygon fill="midnightblue" stroke="midnightblue" points="223.78,-250.86 234.32,-249.83 225.43,-244.06 223.78,-250.86"/>
</g>
<!-- Node4 -->
<g id="node4" class="node">
<title>Node4</title>
<g id="a_node4"><a xlink:href="classit_1_1unitn_1_1healthcore_1_1domain_1_1PasswordConfirmationForm.html#ad2a321af868704e56c42d5306a8acd91" target="_top" xlink:title="Email getter.">
<polygon fill="white" stroke="black" points="210.5,-196.5 210.5,-226.5 407.5,-226.5 407.5,-196.5 210.5,-196.5"/>
<text text-anchor="start" x="218.5" y="-214.5" font-family="Helvetica,sans-Serif" font-size="10.00">it.unitn.healthcore.domain.</text>
<text text-anchor="middle" x="309" y="-203.5" font-family="Helvetica,sans-Serif" font-size="10.00">PasswordConfirmationForm.getEmail</text>
</a>
</g>
</g>
<!-- Node1&#45;&gt;Node4 -->
<g id="edge3" class="edge">
<title>Node1&#45;&gt;Node4</title>
<path fill="none" stroke="midnightblue" d="M145.38,-177.55C160.38,-180.87 176.23,-184.34 191,-187.5 201.56,-189.76 212.66,-192.09 223.65,-194.37"/>
<polygon fill="midnightblue" stroke="midnightblue" points="223.19,-197.85 233.69,-196.45 224.61,-190.99 223.19,-197.85"/>
</g>
<!-- Node5 -->
<g id="node5" class="node">
<title>Node5</title>
<g id="a_node5"><a xlink:href="classit_1_1unitn_1_1healthcore_1_1domain_1_1EmployeeRegistrationForm.html#ae00ab1333401d899f6e010a99e5afec8" target="_top" xlink:title="Name getter.">
<polygon fill="white" stroke="black" points="210.5,-147.5 210.5,-177.5 407.5,-177.5 407.5,-147.5 210.5,-147.5"/>
<text text-anchor="start" x="218.5" y="-165.5" font-family="Helvetica,sans-Serif" font-size="10.00">it.unitn.healthcore.domain.</text>
<text text-anchor="middle" x="309" y="-154.5" font-family="Helvetica,sans-Serif" font-size="10.00">EmployeeRegistrationForm.getName</text>
</a>
</g>
</g>
<!-- Node1&#45;&gt;Node5 -->
<g id="edge4" class="edge">
<title>Node1&#45;&gt;Node5</title>
<path fill="none" stroke="midnightblue" d="M155.24,-162.5C169.53,-162.5 184.71,-162.5 199.74,-162.5"/>
<polygon fill="midnightblue" stroke="midnightblue" points="200.11,-166 210.11,-162.5 200.11,-159 200.11,-166"/>
</g>
<!-- Node6 -->
<g id="node6" class="node">
<title>Node6</title>
<g id="a_node6"><a xlink:href="classit_1_1unitn_1_1healthcore_1_1domain_1_1PasswordConfirmationForm.html#aa7de23a583db33eba13ddecad973ceca" target="_top" xlink:title="Password getter.">
<polygon fill="white" stroke="black" points="201.5,-98.5 201.5,-128.5 416.5,-128.5 416.5,-98.5 201.5,-98.5"/>
<text text-anchor="start" x="209.5" y="-116.5" font-family="Helvetica,sans-Serif" font-size="10.00">it.unitn.healthcore.domain.</text>
<text text-anchor="middle" x="309" y="-105.5" font-family="Helvetica,sans-Serif" font-size="10.00">PasswordConfirmationForm.getPassword</text>
</a>
</g>
</g>
<!-- Node1&#45;&gt;Node6 -->
<g id="edge5" class="edge">
<title>Node1&#45;&gt;Node6</title>
<path fill="none" stroke="midnightblue" d="M148.92,-147.47C173.81,-142.15 201.99,-136.13 227.65,-130.66"/>
<polygon fill="midnightblue" stroke="midnightblue" points="228.67,-134.02 237.72,-128.51 227.21,-127.17 228.67,-134.02"/>
</g>
<!-- Node7 -->
<g id="node7" class="node">
<title>Node7</title>
<g id="a_node7"><a xlink:href="classit_1_1unitn_1_1healthcore_1_1domain_1_1EmployeeRegistrationForm.html#af1804bfdb0eb5dd711f6344f6c7e420c" target="_top" xlink:title="Surname getter.">
<polygon fill="white" stroke="black" points="203,-49.5 203,-79.5 415,-79.5 415,-49.5 203,-49.5"/>
<text text-anchor="start" x="211" y="-67.5" font-family="Helvetica,sans-Serif" font-size="10.00">it.unitn.healthcore.domain.</text>
<text text-anchor="middle" x="309" y="-56.5" font-family="Helvetica,sans-Serif" font-size="10.00">EmployeeRegistrationForm.getSurname</text>
</a>
</g>
</g>
<!-- Node1&#45;&gt;Node7 -->
<g id="edge6" class="edge">
<title>Node1&#45;&gt;Node7</title>
<path fill="none" stroke="midnightblue" d="M97.2,-147.27C118.59,-130.6 155.3,-104.3 191,-89.5 197.25,-86.91 203.81,-84.57 210.49,-82.46"/>
<polygon fill="midnightblue" stroke="midnightblue" points="211.75,-85.74 220.35,-79.54 209.77,-79.03 211.75,-85.74"/>
</g>
<!-- Node8 -->
<g id="node8" class="node">
<title>Node8</title>
<g id="a_node8"><a xlink:href="classit_1_1unitn_1_1healthcore_1_1domain_1_1Department.html#adb4a544815968649e801e2182b7069f0" target="_top" xlink:title="Returns the total staff positions within the department.">
<polygon fill="white" stroke="black" points="217,-0.5 217,-30.5 401,-30.5 401,-0.5 217,-0.5"/>
<text text-anchor="start" x="225" y="-18.5" font-family="Helvetica,sans-Serif" font-size="10.00">it.unitn.healthcore.domain.</text>
<text text-anchor="middle" x="309" y="-7.5" font-family="Helvetica,sans-Serif" font-size="10.00">Department.getTotalStaffPositions</text>
</a>
</g>
</g>
<!-- Node1&#45;&gt;Node8 -->
<g id="edge7" class="edge">
<title>Node1&#45;&gt;Node8</title>
<path fill="none" stroke="midnightblue" d="M87.86,-147.35C104.92,-121.12 143.7,-67.47 191,-40.5 196.14,-37.57 201.59,-34.98 207.22,-32.69"/>
<polygon fill="midnightblue" stroke="midnightblue" points="208.66,-35.89 216.82,-29.12 206.23,-29.32 208.66,-35.89"/>
</g>
</g>
</svg>
