<?xml version="1.0" encoding="UTF-8" standalone="no"?>
<!DOCTYPE svg PUBLIC "-//W3C//DTD SVG 1.1//EN"
 "http://www.w3.org/Graphics/SVG/1.1/DTD/svg11.dtd">
<!-- Generated by graphviz version 2.43.0 (0)
 -->
<!-- Title: it.unitn.healthcore.business.DoctorService.findDoctor Pages: 1 -->
<svg width="641pt" height="88pt"
 viewBox="0.00 0.00 641.00 88.00" xmlns="http://www.w3.org/2000/svg" xmlns:xlink="http://www.w3.org/1999/xlink">
<g id="graph0" class="graph" transform="scale(1 1) rotate(0) translate(4 84)">
<title>it.unitn.healthcore.business.DoctorService.findDoctor</title>
<polygon fill="white" stroke="transparent" points="-4,4 -4,-84 637,-84 637,4 -4,4"/>
<!-- Node1 -->
<g id="node1" class="node">
<title>Node1</title>
<g id="a_node1"><a xlink:title=" ">
<polygon fill="#bfbfbf" stroke="black" points="478,-24.5 478,-54.5 633,-54.5 633,-24.5 478,-24.5"/>
<text text-anchor="start" x="486" y="-42.5" font-family="Helvetica,sans-Serif" font-size="10.00">it.unitn.healthcore.business.</text>
<text text-anchor="middle" x="555.5" y="-31.5" font-family="Helvetica,sans-Serif" font-size="10.00">DoctorService.findDoctor</text>
</a>
</g>
</g>
<!-- Node2 -->
<g id="node2" class="node">
<title>Node2</title>
<g id="a_node2"><a xlink:href="classit_1_1unitn_1_1healthcore_1_1business_1_1DoctorService.html#a8403efefc9eb75820f493a34d727ba00" target="_top" xlink:title=" ">
<polygon fill="white" stroke="black" points="243.5,-49.5 243.5,-79.5 398.5,-79.5 398.5,-49.5 243.5,-49.5"/>
<text text-anchor="start" x="251.5" y="-67.5" font-family="Helvetica,sans-Serif" font-size="10.00">it.unitn.healthcore.business.</text>
<text text-anchor="middle" x="321" y="-56.5" font-family="Helvetica,sans-Serif" font-size="10.00">DoctorService.addShift</text>
</a>
</g>
</g>
<!-- Node1&#45;&gt;Node2 -->
<g id="edge1" class="edge">
<title>Node1&#45;&gt;Node2</title>
<path fill="none" stroke="midnightblue" d="M467.78,-48.83C445.1,-51.26 420.81,-53.88 398.69,-56.25"/>
<polygon fill="midnightblue" stroke="midnightblue" points="468.16,-52.3 477.73,-47.76 467.41,-45.34 468.16,-52.3"/>
</g>
<!-- Node4 -->
<g id="node4" class="node">
<title>Node4</title>
<g id="a_node4"><a xlink:href="classit_1_1unitn_1_1healthcore_1_1controller_1_1DoctorController.html#af584ce0e97c3d1e3c9164228d62cb106" target="_top" xlink:title="Retrieves the details of a specific doctor by their ID.">
<polygon fill="white" stroke="black" points="200,-0.5 200,-30.5 442,-30.5 442,-0.5 200,-0.5"/>
<text text-anchor="start" x="208" y="-18.5" font-family="Helvetica,sans-Serif" font-size="10.00">it.unitn.healthcore.controller.</text>
<text text-anchor="middle" x="321" y="-7.5" font-family="Helvetica,sans-Serif" font-size="10.00">DoctorController.viewDoctorManagementPage</text>
</a>
</g>
</g>
<!-- Node1&#45;&gt;Node4 -->
<g id="edge3" class="edge">
<title>Node1&#45;&gt;Node4</title>
<path fill="none" stroke="midnightblue" d="M467.73,-30.54C459.44,-29.69 450.93,-28.81 442.4,-27.93"/>
<polygon fill="midnightblue" stroke="midnightblue" points="467.42,-34.03 477.73,-31.57 468.14,-27.07 467.42,-34.03"/>
</g>
<!-- Node3 -->
<g id="node3" class="node">
<title>Node3</title>
<g id="a_node3"><a xlink:href="classit_1_1unitn_1_1healthcore_1_1controller_1_1DoctorController.html#a0a872c9d094787a6992ab720f4b226df" target="_top" xlink:title="Adds a new shift for a doctor.">
<polygon fill="white" stroke="black" points="0,-49.5 0,-79.5 164,-79.5 164,-49.5 0,-49.5"/>
<text text-anchor="start" x="8" y="-67.5" font-family="Helvetica,sans-Serif" font-size="10.00">it.unitn.healthcore.controller.</text>
<text text-anchor="middle" x="82" y="-56.5" font-family="Helvetica,sans-Serif" font-size="10.00">DoctorController.addShiftTime</text>
</a>
</g>
</g>
<!-- Node2&#45;&gt;Node3 -->
<g id="edge2" class="edge">
<title>Node2&#45;&gt;Node3</title>
<path fill="none" stroke="midnightblue" d="M233.16,-64.5C210.64,-64.5 186.48,-64.5 164.26,-64.5"/>
<polygon fill="midnightblue" stroke="midnightblue" points="233.38,-68 243.38,-64.5 233.38,-61 233.38,-68"/>
</g>
</g>
</svg>
