<?xml version="1.0" encoding="UTF-8" standalone="no"?>
<!DOCTYPE svg PUBLIC "-//W3C//DTD SVG 1.1//EN"
 "http://www.w3.org/Graphics/SVG/1.1/DTD/svg11.dtd">
<!-- Generated by graphviz version 2.43.0 (0)
 -->
<!-- Title: it.unitn.healthcore.business.DoctorService.modifyShift Pages: 1 -->
<svg width="348pt" height="284pt"
 viewBox="0.00 0.00 348.00 284.00" xmlns="http://www.w3.org/2000/svg" xmlns:xlink="http://www.w3.org/1999/xlink">
<g id="graph0" class="graph" transform="scale(1 1) rotate(0) translate(4 280)">
<title>it.unitn.healthcore.business.DoctorService.modifyShift</title>
<polygon fill="white" stroke="transparent" points="-4,4 -4,-280 344,-280 344,4 -4,4"/>
<!-- Node1 -->
<g id="node1" class="node">
<title>Node1</title>
<g id="a_node1"><a xlink:title="Helper method to retrieve detailed information about a doctor associated with a specific appointment.">
<polygon fill="#bfbfbf" stroke="black" points="0,-122.5 0,-152.5 155,-152.5 155,-122.5 0,-122.5"/>
<text text-anchor="start" x="8" y="-140.5" font-family="Helvetica,sans-Serif" font-size="10.00">it.unitn.healthcore.business.</text>
<text text-anchor="middle" x="77.5" y="-129.5" font-family="Helvetica,sans-Serif" font-size="10.00">DoctorService.modifyShift</text>
</a>
</g>
</g>
<!-- Node2 -->
<g id="node2" class="node">
<title>Node2</title>
<g id="a_node2"><a xlink:href="classit_1_1unitn_1_1healthcore_1_1domain_1_1Shift.html#aeb536b32967f2656409f668ad13f2347" target="_top" xlink:title="Returns the doctor assigned to the shift.">
<polygon fill="white" stroke="black" points="191,-245.5 191,-275.5 340,-275.5 340,-245.5 191,-245.5"/>
<text text-anchor="start" x="199" y="-263.5" font-family="Helvetica,sans-Serif" font-size="10.00">it.unitn.healthcore.domain.</text>
<text text-anchor="middle" x="265.5" y="-252.5" font-family="Helvetica,sans-Serif" font-size="10.00">Shift.getDoctor</text>
</a>
</g>
</g>
<!-- Node1&#45;&gt;Node2 -->
<g id="edge1" class="edge">
<title>Node1&#45;&gt;Node2</title>
<path fill="none" stroke="midnightblue" d="M91.93,-152.72C111.67,-174.21 150.55,-213.42 191,-236.5 194.01,-238.22 197.15,-239.83 200.38,-241.34"/>
<polygon fill="midnightblue" stroke="midnightblue" points="199.07,-244.59 209.64,-245.35 201.85,-238.17 199.07,-244.59"/>
</g>
<!-- Node3 -->
<g id="node3" class="node">
<title>Node3</title>
<g id="a_node3"><a xlink:href="classit_1_1unitn_1_1healthcore_1_1domain_1_1Shift.html#a38638195cd02bc419bd7c15abb1df602" target="_top" xlink:title="Returns the end time of the shift.">
<polygon fill="white" stroke="black" points="191,-196.5 191,-226.5 340,-226.5 340,-196.5 191,-196.5"/>
<text text-anchor="start" x="199" y="-214.5" font-family="Helvetica,sans-Serif" font-size="10.00">it.unitn.healthcore.domain.</text>
<text text-anchor="middle" x="265.5" y="-203.5" font-family="Helvetica,sans-Serif" font-size="10.00">Shift.getEndTime</text>
</a>
</g>
</g>
<!-- Node1&#45;&gt;Node3 -->
<g id="edge2" class="edge">
<title>Node1&#45;&gt;Node3</title>
<path fill="none" stroke="midnightblue" d="M110.14,-152.61C132.48,-163.02 163.27,-176.84 191,-187.5 196.01,-189.43 201.25,-191.34 206.53,-193.19"/>
<polygon fill="midnightblue" stroke="midnightblue" points="205.42,-196.51 216.02,-196.45 207.7,-189.89 205.42,-196.51"/>
</g>
<!-- Node4 -->
<g id="node4" class="node">
<title>Node4</title>
<g id="a_node4"><a xlink:href="classit_1_1unitn_1_1healthcore_1_1domain_1_1Doctor.html#a1f74266b5c9953f4c861a1b2e66405a8" target="_top" xlink:title="Shift getter.">
<polygon fill="white" stroke="black" points="191,-147.5 191,-177.5 340,-177.5 340,-147.5 191,-147.5"/>
<text text-anchor="start" x="199" y="-165.5" font-family="Helvetica,sans-Serif" font-size="10.00">it.unitn.healthcore.domain.</text>
<text text-anchor="middle" x="265.5" y="-154.5" font-family="Helvetica,sans-Serif" font-size="10.00">Doctor.getShifts</text>
</a>
</g>
</g>
<!-- Node1&#45;&gt;Node4 -->
<g id="edge3" class="edge">
<title>Node1&#45;&gt;Node4</title>
<path fill="none" stroke="midnightblue" d="M155.23,-147.81C163.71,-148.95 172.39,-150.12 180.95,-151.27"/>
<polygon fill="midnightblue" stroke="midnightblue" points="180.56,-154.75 190.94,-152.61 181.5,-147.81 180.56,-154.75"/>
</g>
<!-- Node5 -->
<g id="node5" class="node">
<title>Node5</title>
<g id="a_node5"><a xlink:href="classit_1_1unitn_1_1healthcore_1_1domain_1_1Shift.html#a4a652dd9ac0fdf2f23554784776f3940" target="_top" xlink:title="Returns the start time of the shift.">
<polygon fill="white" stroke="black" points="191,-98.5 191,-128.5 340,-128.5 340,-98.5 191,-98.5"/>
<text text-anchor="start" x="199" y="-116.5" font-family="Helvetica,sans-Serif" font-size="10.00">it.unitn.healthcore.domain.</text>
<text text-anchor="middle" x="265.5" y="-105.5" font-family="Helvetica,sans-Serif" font-size="10.00">Shift.getStartTime</text>
</a>
</g>
</g>
<!-- Node1&#45;&gt;Node5 -->
<g id="edge4" class="edge">
<title>Node1&#45;&gt;Node5</title>
<path fill="none" stroke="midnightblue" d="M155.23,-127.6C163.71,-126.5 172.39,-125.39 180.95,-124.28"/>
<polygon fill="midnightblue" stroke="midnightblue" points="181.47,-127.74 190.94,-122.99 180.58,-120.8 181.47,-127.74"/>
</g>
<!-- Node6 -->
<g id="node6" class="node">
<title>Node6</title>
<g id="a_node6"><a xlink:href="classit_1_1unitn_1_1healthcore_1_1domain_1_1Shift.html#aabfc5b98a784efa0595cc0160464ea93" target="_top" xlink:title="Sets the end time of the shift.">
<polygon fill="white" stroke="black" points="191,-49.5 191,-79.5 340,-79.5 340,-49.5 191,-49.5"/>
<text text-anchor="start" x="199" y="-67.5" font-family="Helvetica,sans-Serif" font-size="10.00">it.unitn.healthcore.domain.</text>
<text text-anchor="middle" x="265.5" y="-56.5" font-family="Helvetica,sans-Serif" font-size="10.00">Shift.setEndTime</text>
</a>
</g>
</g>
<!-- Node1&#45;&gt;Node6 -->
<g id="edge5" class="edge">
<title>Node1&#45;&gt;Node6</title>
<path fill="none" stroke="midnightblue" d="M112.2,-122.34C134.41,-112.54 164.23,-99.75 191,-89.5 196.78,-87.29 202.86,-85.06 208.93,-82.9"/>
<polygon fill="midnightblue" stroke="midnightblue" points="210.16,-86.18 218.44,-79.57 207.84,-79.58 210.16,-86.18"/>
</g>
<!-- Node7 -->
<g id="node7" class="node">
<title>Node7</title>
<g id="a_node7"><a xlink:href="classit_1_1unitn_1_1healthcore_1_1domain_1_1Shift.html#afbe30720e4cb23834ba65f653ae597d9" target="_top" xlink:title="Sets the start time of the shift.">
<polygon fill="white" stroke="black" points="191,-0.5 191,-30.5 340,-30.5 340,-0.5 191,-0.5"/>
<text text-anchor="start" x="199" y="-18.5" font-family="Helvetica,sans-Serif" font-size="10.00">it.unitn.healthcore.domain.</text>
<text text-anchor="middle" x="265.5" y="-7.5" font-family="Helvetica,sans-Serif" font-size="10.00">Shift.setStartTime</text>
</a>
</g>
</g>
<!-- Node1&#45;&gt;Node7 -->
<g id="edge6" class="edge">
<title>Node1&#45;&gt;Node7</title>
<path fill="none" stroke="midnightblue" d="M92.37,-122.32C112.33,-101.29 151.16,-63.3 191,-40.5 194.69,-38.39 198.58,-36.42 202.57,-34.59"/>
<polygon fill="midnightblue" stroke="midnightblue" points="204.18,-37.71 212.01,-30.57 201.44,-31.27 204.18,-37.71"/>
</g>
</g>
</svg>
