<?xml version="1.0" encoding="UTF-8" standalone="no"?>
<!DOCTYPE svg PUBLIC "-//W3C//DTD SVG 1.1//EN"
 "http://www.w3.org/Graphics/SVG/1.1/DTD/svg11.dtd">
<!-- Generated by graphviz version 2.43.0 (0)
 -->
<!-- Title: it.unitn.healthcore.domain.Department.getHospital Pages: 1 -->
<svg width="626pt" height="110pt"
 viewBox="0.00 0.00 626.00 110.00" xmlns="http://www.w3.org/2000/svg" xmlns:xlink="http://www.w3.org/1999/xlink">
<g id="graph0" class="graph" transform="scale(1 1) rotate(0) translate(4 106)">
<title>it.unitn.healthcore.domain.Department.getHospital</title>
<polygon fill="white" stroke="transparent" points="-4,4 -4,-106 622,-106 622,4 -4,4"/>
<!-- Node1 -->
<g id="node1" class="node">
<title>Node1</title>
<g id="a_node1"><a xlink:title="Returns the hospital associated with the department.">
<polygon fill="#bfbfbf" stroke="black" points="469,-49.5 469,-79.5 618,-79.5 618,-49.5 469,-49.5"/>
<text text-anchor="start" x="477" y="-67.5" font-family="Helvetica,sans-Serif" font-size="10.00">it.unitn.healthcore.domain.</text>
<text text-anchor="middle" x="543.5" y="-56.5" font-family="Helvetica,sans-Serif" font-size="10.00">Department.getHospital</text>
</a>
</g>
</g>
<!-- Node2 -->
<g id="node2" class="node">
<title>Node2</title>
<g id="a_node2"><a xlink:href="classit_1_1unitn_1_1healthcore_1_1controller_1_1PatientController.html#a6c1b2c866308e0723c5b9157149ab47b" target="_top" xlink:title="Books an appointment with a specified doctor for the authenticated patient.">
<polygon fill="white" stroke="black" points="8,-71.5 8,-101.5 196,-101.5 196,-71.5 8,-71.5"/>
<text text-anchor="start" x="16" y="-89.5" font-family="Helvetica,sans-Serif" font-size="10.00">it.unitn.healthcore.controller.</text>
<text text-anchor="middle" x="102" y="-78.5" font-family="Helvetica,sans-Serif" font-size="10.00">PatientController.bookAppointment</text>
</a>
</g>
</g>
<!-- Node1&#45;&gt;Node2 -->
<g id="edge1" class="edge">
<title>Node1&#45;&gt;Node2</title>
<path fill="none" stroke="midnightblue" d="M477.81,-81.79C463.18,-85 447.64,-87.85 433,-89.5 353.44,-98.47 262.4,-96.75 196.12,-93.34"/>
<polygon fill="midnightblue" stroke="midnightblue" points="478.79,-85.16 487.77,-79.53 477.24,-78.33 478.79,-85.16"/>
</g>
<!-- Node3 -->
<g id="node3" class="node">
<title>Node3</title>
<g id="a_node3"><a xlink:href="classit_1_1unitn_1_1healthcore_1_1business_1_1PatientService.html#ac33e02f57cc7f1ef55dd59cb5673781a" target="_top" xlink:title="Books an appointment with a specified doctor for the currently authenticated patient.">
<polygon fill="white" stroke="black" points="248.5,-49.5 248.5,-79.5 424.5,-79.5 424.5,-49.5 248.5,-49.5"/>
<text text-anchor="start" x="256.5" y="-67.5" font-family="Helvetica,sans-Serif" font-size="10.00">it.unitn.healthcore.business.</text>
<text text-anchor="middle" x="336.5" y="-56.5" font-family="Helvetica,sans-Serif" font-size="10.00">PatientService.bookAppointment</text>
</a>
</g>
</g>
<!-- Node1&#45;&gt;Node3 -->
<g id="edge2" class="edge">
<title>Node1&#45;&gt;Node3</title>
<path fill="none" stroke="midnightblue" d="M458.57,-64.5C447.35,-64.5 435.81,-64.5 424.53,-64.5"/>
<polygon fill="midnightblue" stroke="midnightblue" points="458.78,-68 468.78,-64.5 458.78,-61 458.78,-68"/>
</g>
<!-- Node4 -->
<g id="node4" class="node">
<title>Node4</title>
<g id="a_node4"><a xlink:href="classit_1_1unitn_1_1healthcore_1_1business_1_1PatientService.html#ab163cba2913666d9f4505d4b6e7e1a69" target="_top" xlink:title="Retrieves detailed information about a doctor based on their ID.">
<polygon fill="white" stroke="black" points="240,-0.5 240,-30.5 433,-30.5 433,-0.5 240,-0.5"/>
<text text-anchor="start" x="248" y="-18.5" font-family="Helvetica,sans-Serif" font-size="10.00">it.unitn.healthcore.business.</text>
<text text-anchor="middle" x="336.5" y="-7.5" font-family="Helvetica,sans-Serif" font-size="10.00">PatientService.getDoctorDescription</text>
</a>
</g>
</g>
<!-- Node1&#45;&gt;Node4 -->
<g id="edge4" class="edge">
<title>Node1&#45;&gt;Node4</title>
<path fill="none" stroke="midnightblue" d="M469.69,-47.1C447.01,-41.68 422.21,-35.75 400.28,-30.51"/>
<polygon fill="midnightblue" stroke="midnightblue" points="469.06,-50.54 479.6,-49.47 470.69,-43.74 469.06,-50.54"/>
</g>
<!-- Node3&#45;&gt;Node2 -->
<g id="edge3" class="edge">
<title>Node3&#45;&gt;Node2</title>
<path fill="none" stroke="midnightblue" d="M238.21,-73.71C224.29,-75.02 210,-76.37 196.17,-77.68"/>
<polygon fill="midnightblue" stroke="midnightblue" points="238.64,-77.18 248.26,-72.75 237.98,-70.21 238.64,-77.18"/>
</g>
<!-- Node5 -->
<g id="node5" class="node">
<title>Node5</title>
<g id="a_node5"><a xlink:href="classit_1_1unitn_1_1healthcore_1_1controller_1_1PatientController.html#aaf7a71336886e01fdc45116e44bf67db" target="_top" xlink:title="Retrieves the current insurance plan of the authenticated patient.">
<polygon fill="white" stroke="black" points="0,-0.5 0,-30.5 204,-30.5 204,-0.5 0,-0.5"/>
<text text-anchor="start" x="8" y="-18.5" font-family="Helvetica,sans-Serif" font-size="10.00">it.unitn.healthcore.controller.</text>
<text text-anchor="middle" x="102" y="-7.5" font-family="Helvetica,sans-Serif" font-size="10.00">PatientController.getDoctorDescription</text>
</a>
</g>
</g>
<!-- Node4&#45;&gt;Node5 -->
<g id="edge5" class="edge">
<title>Node4&#45;&gt;Node5</title>
<path fill="none" stroke="midnightblue" d="M229.66,-15.5C221.2,-15.5 212.66,-15.5 204.23,-15.5"/>
<polygon fill="midnightblue" stroke="midnightblue" points="229.93,-19 239.93,-15.5 229.93,-12 229.93,-19"/>
</g>
</g>
</svg>
