<?xml version="1.0" encoding="UTF-8" standalone="no"?>
<!DOCTYPE svg PUBLIC "-//W3C//DTD SVG 1.1//EN"
 "http://www.w3.org/Graphics/SVG/1.1/DTD/svg11.dtd">
<!-- Generated by graphviz version 2.43.0 (0)
 -->
<!-- Title: it.unitn.healthcore.controller.PatientController.modifyAppointment Pages: 1 -->
<svg width="834pt" height="357pt"
 viewBox="0.00 0.00 834.00 357.00" xmlns="http://www.w3.org/2000/svg" xmlns:xlink="http://www.w3.org/1999/xlink">
<g id="graph0" class="graph" transform="scale(1 1) rotate(0) translate(4 353)">
<title>it.unitn.healthcore.controller.PatientController.modifyAppointment</title>
<polygon fill="white" stroke="transparent" points="-4,4 -4,-353 830,-353 830,4 -4,4"/>
<!-- Node1 -->
<g id="node1" class="node">
<title>Node1</title>
<g id="a_node1"><a xlink:title="Modifies the details of an existing appointment for the authenticated patient.">
<polygon fill="#bfbfbf" stroke="black" points="0,-147.5 0,-177.5 197,-177.5 197,-147.5 0,-147.5"/>
<text text-anchor="start" x="8" y="-165.5" font-family="Helvetica,sans-Serif" font-size="10.00">it.unitn.healthcore.controller.</text>
<text text-anchor="middle" x="98.5" y="-154.5" font-family="Helvetica,sans-Serif" font-size="10.00">PatientController.modifyAppointment</text>
</a>
</g>
</g>
<!-- Node2 -->
<g id="node2" class="node">
<title>Node2</title>
<g id="a_node2"><a xlink:href="classit_1_1unitn_1_1healthcore_1_1business_1_1PatientService.html#ab8266c492da03f9b5e38829e698129c6" target="_top" xlink:title="Modifies an existing appointment for the currently authenticated patient.">
<polygon fill="white" stroke="black" points="233,-147.5 233,-177.5 419,-177.5 419,-147.5 233,-147.5"/>
<text text-anchor="start" x="241" y="-165.5" font-family="Helvetica,sans-Serif" font-size="10.00">it.unitn.healthcore.business.</text>
<text text-anchor="middle" x="326" y="-154.5" font-family="Helvetica,sans-Serif" font-size="10.00">PatientService.modifyAppointment</text>
</a>
</g>
</g>
<!-- Node1&#45;&gt;Node2 -->
<g id="edge1" class="edge">
<title>Node1&#45;&gt;Node2</title>
<path fill="none" stroke="midnightblue" d="M197.1,-162.5C205.65,-162.5 214.33,-162.5 222.92,-162.5"/>
<polygon fill="midnightblue" stroke="midnightblue" points="222.95,-166 232.95,-162.5 222.95,-159 222.95,-166"/>
</g>
<!-- Node3 -->
<g id="node3" class="node">
<title>Node3</title>
<g id="a_node3"><a xlink:href="classit_1_1unitn_1_1healthcore_1_1business_1_1UserService.html#a33213d05bfda4e7384e17b18332d4bb5" target="_top" xlink:title="Retrieves the currently authenticated user from the database.">
<polygon fill="white" stroke="black" points="455,-294.5 455,-324.5 610,-324.5 610,-294.5 455,-294.5"/>
<text text-anchor="start" x="463" y="-312.5" font-family="Helvetica,sans-Serif" font-size="10.00">it.unitn.healthcore.business.</text>
<text text-anchor="middle" x="532.5" y="-301.5" font-family="Helvetica,sans-Serif" font-size="10.00">UserService.getCurrentUser</text>
</a>
</g>
</g>
<!-- Node2&#45;&gt;Node3 -->
<g id="edge2" class="edge">
<title>Node2&#45;&gt;Node3</title>
<path fill="none" stroke="midnightblue" d="M338.74,-177.67C359.48,-203.48 405.15,-255.97 455,-285.5 457.96,-287.26 461.07,-288.9 464.26,-290.43"/>
<polygon fill="midnightblue" stroke="midnightblue" points="462.88,-293.64 473.44,-294.46 465.7,-287.23 462.88,-293.64"/>
</g>
<!-- Node6 -->
<g id="node6" class="node">
<title>Node6</title>
<g id="a_node6"><a xlink:href="classit_1_1unitn_1_1healthcore_1_1domain_1_1Appointment.html#a5e3d223030b1b23d4a2dfab94d5b4ef2" target="_top" xlink:title="Returns the doctor conducting the appointment.">
<polygon fill="white" stroke="black" points="458,-245.5 458,-275.5 607,-275.5 607,-245.5 458,-245.5"/>
<text text-anchor="start" x="466" y="-263.5" font-family="Helvetica,sans-Serif" font-size="10.00">it.unitn.healthcore.domain.</text>
<text text-anchor="middle" x="532.5" y="-252.5" font-family="Helvetica,sans-Serif" font-size="10.00">Appointment.getDoctor</text>
</a>
</g>
</g>
<!-- Node2&#45;&gt;Node6 -->
<g id="edge5" class="edge">
<title>Node2&#45;&gt;Node6</title>
<path fill="none" stroke="midnightblue" d="M349.78,-177.74C374.77,-193.96 416.46,-219.56 455,-236.5 459.39,-238.43 463.98,-240.27 468.64,-242.02"/>
<polygon fill="midnightblue" stroke="midnightblue" points="467.67,-245.39 478.27,-245.47 470.03,-238.8 467.67,-245.39"/>
</g>
<!-- Node7 -->
<g id="node7" class="node">
<title>Node7</title>
<g id="a_node7"><a xlink:href="classit_1_1unitn_1_1healthcore_1_1domain_1_1User.html#af8206b66c08446d8c3cb7e16b825a794" target="_top" xlink:title="Returns a string representation of the User.">
<polygon fill="white" stroke="black" points="458,-196.5 458,-226.5 607,-226.5 607,-196.5 458,-196.5"/>
<text text-anchor="start" x="466" y="-214.5" font-family="Helvetica,sans-Serif" font-size="10.00">it.unitn.healthcore.domain.</text>
<text text-anchor="middle" x="532.5" y="-203.5" font-family="Helvetica,sans-Serif" font-size="10.00">User.getId</text>
</a>
</g>
</g>
<!-- Node2&#45;&gt;Node7 -->
<g id="edge6" class="edge">
<title>Node2&#45;&gt;Node7</title>
<path fill="none" stroke="midnightblue" d="M389.75,-177.53C411.63,-182.78 436.37,-188.71 458.99,-194.13"/>
<polygon fill="midnightblue" stroke="midnightblue" points="458.33,-197.57 468.87,-196.49 459.96,-190.76 458.33,-197.57"/>
</g>
<!-- Node8 -->
<g id="node8" class="node">
<title>Node8</title>
<g id="a_node8"><a xlink:href="classit_1_1unitn_1_1healthcore_1_1domain_1_1Appointment.html#a60f84ee45966ebeed37981dffe94c8ad" target="_top" xlink:title="Returns the patient associated with the appointment.">
<polygon fill="white" stroke="black" points="458,-147.5 458,-177.5 607,-177.5 607,-147.5 458,-147.5"/>
<text text-anchor="start" x="466" y="-165.5" font-family="Helvetica,sans-Serif" font-size="10.00">it.unitn.healthcore.domain.</text>
<text text-anchor="middle" x="532.5" y="-154.5" font-family="Helvetica,sans-Serif" font-size="10.00">Appointment.getPatient</text>
</a>
</g>
</g>
<!-- Node2&#45;&gt;Node8 -->
<g id="edge7" class="edge">
<title>Node2&#45;&gt;Node8</title>
<path fill="none" stroke="midnightblue" d="M419.08,-162.5C428.58,-162.5 438.19,-162.5 447.6,-162.5"/>
<polygon fill="midnightblue" stroke="midnightblue" points="447.7,-166 457.7,-162.5 447.7,-159 447.7,-166"/>
</g>
<!-- Node9 -->
<g id="node9" class="node">
<title>Node9</title>
<g id="a_node9"><a xlink:href="classit_1_1unitn_1_1healthcore_1_1domain_1_1Appointment.html#a9bd30e2d1b2e4de743b3e83b9cc50eb4" target="_top" xlink:title="Returns the start date and time of the appointment.">
<polygon fill="white" stroke="black" points="458,-98.5 458,-128.5 607,-128.5 607,-98.5 458,-98.5"/>
<text text-anchor="start" x="466" y="-116.5" font-family="Helvetica,sans-Serif" font-size="10.00">it.unitn.healthcore.domain.</text>
<text text-anchor="middle" x="532.5" y="-105.5" font-family="Helvetica,sans-Serif" font-size="10.00">Appointment.getStartTime</text>
</a>
</g>
</g>
<!-- Node2&#45;&gt;Node9 -->
<g id="edge8" class="edge">
<title>Node2&#45;&gt;Node9</title>
<path fill="none" stroke="midnightblue" d="M389.75,-147.47C411.63,-142.22 436.37,-136.29 458.99,-130.87"/>
<polygon fill="midnightblue" stroke="midnightblue" points="459.96,-134.24 468.87,-128.51 458.33,-127.43 459.96,-134.24"/>
</g>
<!-- Node10 -->
<g id="node10" class="node">
<title>Node10</title>
<g id="a_node10"><a xlink:href="classit_1_1unitn_1_1healthcore_1_1domain_1_1Appointment.html#a6de01451b6306612331a64affe989252" target="_top" xlink:title="Sets the end date and time of the appointment.">
<polygon fill="white" stroke="black" points="458,-49.5 458,-79.5 607,-79.5 607,-49.5 458,-49.5"/>
<text text-anchor="start" x="466" y="-67.5" font-family="Helvetica,sans-Serif" font-size="10.00">it.unitn.healthcore.domain.</text>
<text text-anchor="middle" x="532.5" y="-56.5" font-family="Helvetica,sans-Serif" font-size="10.00">Appointment.setEndTime</text>
</a>
</g>
</g>
<!-- Node2&#45;&gt;Node10 -->
<g id="edge9" class="edge">
<title>Node2&#45;&gt;Node10</title>
<path fill="none" stroke="midnightblue" d="M350.31,-147.29C375.41,-131.37 416.88,-106.39 455,-89.5 460.03,-87.27 465.32,-85.14 470.68,-83.12"/>
<polygon fill="midnightblue" stroke="midnightblue" points="472.13,-86.32 480.34,-79.62 469.75,-79.73 472.13,-86.32"/>
</g>
<!-- Node11 -->
<g id="node11" class="node">
<title>Node11</title>
<g id="a_node11"><a xlink:href="classit_1_1unitn_1_1healthcore_1_1domain_1_1Appointment.html#af0a269963159bb6067469fb75a6fdf3a" target="_top" xlink:title="Sets the start date and time of the appointment.">
<polygon fill="white" stroke="black" points="458,-0.5 458,-30.5 607,-30.5 607,-0.5 458,-0.5"/>
<text text-anchor="start" x="466" y="-18.5" font-family="Helvetica,sans-Serif" font-size="10.00">it.unitn.healthcore.domain.</text>
<text text-anchor="middle" x="532.5" y="-7.5" font-family="Helvetica,sans-Serif" font-size="10.00">Appointment.setStartTime</text>
</a>
</g>
</g>
<!-- Node2&#45;&gt;Node11 -->
<g id="edge10" class="edge">
<title>Node2&#45;&gt;Node11</title>
<path fill="none" stroke="midnightblue" d="M339.14,-147.11C360.14,-121.47 405.72,-69.95 455,-40.5 458.58,-38.36 462.36,-36.39 466.25,-34.56"/>
<polygon fill="midnightblue" stroke="midnightblue" points="467.68,-37.75 475.47,-30.56 464.9,-31.32 467.68,-37.75"/>
</g>
<!-- Node4 -->
<g id="node4" class="node">
<title>Node4</title>
<g id="a_node4"><a xlink:href="interfaceit_1_1unitn_1_1healthcore_1_1persistence_1_1UserRepository.html#a6a646ae44d01189ff44c81c03fc92fa8" target="_top" xlink:title=" ">
<polygon fill="white" stroke="black" points="649,-318.5 649,-348.5 823,-348.5 823,-318.5 649,-318.5"/>
<text text-anchor="start" x="657" y="-336.5" font-family="Helvetica,sans-Serif" font-size="10.00">it.unitn.healthcore.persistence.</text>
<text text-anchor="middle" x="736" y="-325.5" font-family="Helvetica,sans-Serif" font-size="10.00">UserRepository.findUserByEmail</text>
</a>
</g>
</g>
<!-- Node3&#45;&gt;Node4 -->
<g id="edge3" class="edge">
<title>Node3&#45;&gt;Node4</title>
<path fill="none" stroke="midnightblue" d="M610.25,-318.64C619.58,-319.75 629.2,-320.9 638.76,-322.04"/>
<polygon fill="midnightblue" stroke="midnightblue" points="638.35,-325.51 648.7,-323.22 639.18,-318.56 638.35,-325.51"/>
</g>
<!-- Node5 -->
<g id="node5" class="node">
<title>Node5</title>
<g id="a_node5"><a xlink:href="classit_1_1unitn_1_1healthcore_1_1business_1_1UserService.html#a703ed9778e3ac6cd9741220089b5f48d" target="_top" xlink:title="Retrieves the email of the currently authenticated user.">
<polygon fill="white" stroke="black" points="646,-269.5 646,-299.5 826,-299.5 826,-269.5 646,-269.5"/>
<text text-anchor="start" x="654" y="-287.5" font-family="Helvetica,sans-Serif" font-size="10.00">it.unitn.healthcore.business.</text>
<text text-anchor="middle" x="736" y="-276.5" font-family="Helvetica,sans-Serif" font-size="10.00">UserService.getCurrentUserEmail</text>
</a>
</g>
</g>
<!-- Node3&#45;&gt;Node5 -->
<g id="edge4" class="edge">
<title>Node3&#45;&gt;Node5</title>
<path fill="none" stroke="midnightblue" d="M610.25,-299.98C618.65,-298.94 627.28,-297.87 635.89,-296.8"/>
<polygon fill="midnightblue" stroke="midnightblue" points="636.49,-300.25 645.98,-295.54 635.62,-293.3 636.49,-300.25"/>
</g>
</g>
</svg>
