<?xml version="1.0" encoding="UTF-8" standalone="no"?>
<!DOCTYPE svg PUBLIC "-//W3C//DTD SVG 1.1//EN"
 "http://www.w3.org/Graphics/SVG/1.1/DTD/svg11.dtd">
<!-- Generated by graphviz version 2.43.0 (0)
 -->
<!-- Title: it.unitn.healthcore.controller.PatientController.cancelAppointment Pages: 1 -->
<svg width="830pt" height="210pt"
 viewBox="0.00 0.00 830.00 210.00" xmlns="http://www.w3.org/2000/svg" xmlns:xlink="http://www.w3.org/1999/xlink">
<g id="graph0" class="graph" transform="scale(1 1) rotate(0) translate(4 206)">
<title>it.unitn.healthcore.controller.PatientController.cancelAppointment</title>
<polygon fill="white" stroke="transparent" points="-4,4 -4,-206 826,-206 826,4 -4,4"/>
<!-- Node1 -->
<g id="node1" class="node">
<title>Node1</title>
<g id="a_node1"><a xlink:title="Cancels an existing appointment for the authenticated patient.">
<polygon fill="#bfbfbf" stroke="black" points="0,-73.5 0,-103.5 195,-103.5 195,-73.5 0,-73.5"/>
<text text-anchor="start" x="8" y="-91.5" font-family="Helvetica,sans-Serif" font-size="10.00">it.unitn.healthcore.controller.</text>
<text text-anchor="middle" x="97.5" y="-80.5" font-family="Helvetica,sans-Serif" font-size="10.00">PatientController.cancelAppointment</text>
</a>
</g>
</g>
<!-- Node2 -->
<g id="node2" class="node">
<title>Node2</title>
<g id="a_node2"><a xlink:href="classit_1_1unitn_1_1healthcore_1_1business_1_1PatientService.html#a7f10372a6537c0f235e585bdb8b87c30" target="_top" xlink:title="Cancels an existing appointment for the currently authenticated patient.">
<polygon fill="white" stroke="black" points="231,-73.5 231,-103.5 415,-103.5 415,-73.5 231,-73.5"/>
<text text-anchor="start" x="239" y="-91.5" font-family="Helvetica,sans-Serif" font-size="10.00">it.unitn.healthcore.business.</text>
<text text-anchor="middle" x="323" y="-80.5" font-family="Helvetica,sans-Serif" font-size="10.00">PatientService.cancelAppointment</text>
</a>
</g>
</g>
<!-- Node1&#45;&gt;Node2 -->
<g id="edge1" class="edge">
<title>Node1&#45;&gt;Node2</title>
<path fill="none" stroke="midnightblue" d="M195.23,-88.5C203.62,-88.5 212.12,-88.5 220.54,-88.5"/>
<polygon fill="midnightblue" stroke="midnightblue" points="220.77,-92 230.77,-88.5 220.77,-85 220.77,-92"/>
</g>
<!-- Node3 -->
<g id="node3" class="node">
<title>Node3</title>
<g id="a_node3"><a xlink:href="classit_1_1unitn_1_1healthcore_1_1business_1_1UserService.html#a33213d05bfda4e7384e17b18332d4bb5" target="_top" xlink:title="Retrieves the currently authenticated user from the database.">
<polygon fill="white" stroke="black" points="451,-147.5 451,-177.5 606,-177.5 606,-147.5 451,-147.5"/>
<text text-anchor="start" x="459" y="-165.5" font-family="Helvetica,sans-Serif" font-size="10.00">it.unitn.healthcore.business.</text>
<text text-anchor="middle" x="528.5" y="-154.5" font-family="Helvetica,sans-Serif" font-size="10.00">UserService.getCurrentUser</text>
</a>
</g>
</g>
<!-- Node2&#45;&gt;Node3 -->
<g id="edge2" class="edge">
<title>Node2&#45;&gt;Node3</title>
<path fill="none" stroke="midnightblue" d="M360.15,-103.52C385.42,-113.83 420.05,-127.57 451,-138.5 456.47,-140.43 462.18,-142.37 467.91,-144.26"/>
<polygon fill="midnightblue" stroke="midnightblue" points="466.95,-147.63 477.54,-147.39 469.11,-140.97 466.95,-147.63"/>
</g>
<!-- Node6 -->
<g id="node6" class="node">
<title>Node6</title>
<g id="a_node6"><a xlink:href="classit_1_1unitn_1_1healthcore_1_1domain_1_1User.html#af8206b66c08446d8c3cb7e16b825a794" target="_top" xlink:title="Returns a string representation of the User.">
<polygon fill="white" stroke="black" points="454,-98.5 454,-128.5 603,-128.5 603,-98.5 454,-98.5"/>
<text text-anchor="start" x="462" y="-116.5" font-family="Helvetica,sans-Serif" font-size="10.00">it.unitn.healthcore.domain.</text>
<text text-anchor="middle" x="528.5" y="-105.5" font-family="Helvetica,sans-Serif" font-size="10.00">User.getId</text>
</a>
</g>
</g>
<!-- Node2&#45;&gt;Node6 -->
<g id="edge5" class="edge">
<title>Node2&#45;&gt;Node6</title>
<path fill="none" stroke="midnightblue" d="M415.04,-99.68C424.6,-100.86 434.28,-102.05 443.75,-103.21"/>
<polygon fill="midnightblue" stroke="midnightblue" points="443.58,-106.72 453.93,-104.46 444.43,-99.77 443.58,-106.72"/>
</g>
<!-- Node7 -->
<g id="node7" class="node">
<title>Node7</title>
<g id="a_node7"><a xlink:href="classit_1_1unitn_1_1healthcore_1_1domain_1_1Appointment.html#a60f84ee45966ebeed37981dffe94c8ad" target="_top" xlink:title="Returns the patient associated with the appointment.">
<polygon fill="white" stroke="black" points="454,-49.5 454,-79.5 603,-79.5 603,-49.5 454,-49.5"/>
<text text-anchor="start" x="462" y="-67.5" font-family="Helvetica,sans-Serif" font-size="10.00">it.unitn.healthcore.domain.</text>
<text text-anchor="middle" x="528.5" y="-56.5" font-family="Helvetica,sans-Serif" font-size="10.00">Appointment.getPatient</text>
</a>
</g>
</g>
<!-- Node2&#45;&gt;Node7 -->
<g id="edge6" class="edge">
<title>Node2&#45;&gt;Node7</title>
<path fill="none" stroke="midnightblue" d="M415.04,-77.76C424.6,-76.64 434.28,-75.49 443.75,-74.38"/>
<polygon fill="midnightblue" stroke="midnightblue" points="444.41,-77.82 453.93,-73.18 443.59,-70.87 444.41,-77.82"/>
</g>
<!-- Node8 -->
<g id="node8" class="node">
<title>Node8</title>
<g id="a_node8"><a xlink:href="classit_1_1unitn_1_1healthcore_1_1domain_1_1Appointment.html#a9bd30e2d1b2e4de743b3e83b9cc50eb4" target="_top" xlink:title="Returns the start date and time of the appointment.">
<polygon fill="white" stroke="black" points="454,-0.5 454,-30.5 603,-30.5 603,-0.5 454,-0.5"/>
<text text-anchor="start" x="462" y="-18.5" font-family="Helvetica,sans-Serif" font-size="10.00">it.unitn.healthcore.domain.</text>
<text text-anchor="middle" x="528.5" y="-7.5" font-family="Helvetica,sans-Serif" font-size="10.00">Appointment.getStartTime</text>
</a>
</g>
</g>
<!-- Node2&#45;&gt;Node8 -->
<g id="edge7" class="edge">
<title>Node2&#45;&gt;Node8</title>
<path fill="none" stroke="midnightblue" d="M362.46,-73.44C387.56,-63.75 421.1,-51.03 451,-40.5 457.38,-38.25 464.07,-35.97 470.74,-33.73"/>
<polygon fill="midnightblue" stroke="midnightblue" points="472.07,-36.98 480.46,-30.5 469.86,-30.33 472.07,-36.98"/>
</g>
<!-- Node4 -->
<g id="node4" class="node">
<title>Node4</title>
<g id="a_node4"><a xlink:href="interfaceit_1_1unitn_1_1healthcore_1_1persistence_1_1UserRepository.html#a6a646ae44d01189ff44c81c03fc92fa8" target="_top" xlink:title=" ">
<polygon fill="white" stroke="black" points="645,-171.5 645,-201.5 819,-201.5 819,-171.5 645,-171.5"/>
<text text-anchor="start" x="653" y="-189.5" font-family="Helvetica,sans-Serif" font-size="10.00">it.unitn.healthcore.persistence.</text>
<text text-anchor="middle" x="732" y="-178.5" font-family="Helvetica,sans-Serif" font-size="10.00">UserRepository.findUserByEmail</text>
</a>
</g>
</g>
<!-- Node3&#45;&gt;Node4 -->
<g id="edge3" class="edge">
<title>Node3&#45;&gt;Node4</title>
<path fill="none" stroke="midnightblue" d="M606.25,-171.64C615.58,-172.75 625.2,-173.9 634.76,-175.04"/>
<polygon fill="midnightblue" stroke="midnightblue" points="634.35,-178.51 644.7,-176.22 635.18,-171.56 634.35,-178.51"/>
</g>
<!-- Node5 -->
<g id="node5" class="node">
<title>Node5</title>
<g id="a_node5"><a xlink:href="classit_1_1unitn_1_1healthcore_1_1business_1_1UserService.html#a703ed9778e3ac6cd9741220089b5f48d" target="_top" xlink:title="Retrieves the email of the currently authenticated user.">
<polygon fill="white" stroke="black" points="642,-122.5 642,-152.5 822,-152.5 822,-122.5 642,-122.5"/>
<text text-anchor="start" x="650" y="-140.5" font-family="Helvetica,sans-Serif" font-size="10.00">it.unitn.healthcore.business.</text>
<text text-anchor="middle" x="732" y="-129.5" font-family="Helvetica,sans-Serif" font-size="10.00">UserService.getCurrentUserEmail</text>
</a>
</g>
</g>
<!-- Node3&#45;&gt;Node5 -->
<g id="edge4" class="edge">
<title>Node3&#45;&gt;Node5</title>
<path fill="none" stroke="midnightblue" d="M606.25,-152.98C614.65,-151.94 623.28,-150.87 631.89,-149.8"/>
<polygon fill="midnightblue" stroke="midnightblue" points="632.49,-153.25 641.98,-148.54 631.62,-146.3 632.49,-153.25"/>
</g>
</g>
</svg>
