<?xml version="1.0" encoding="UTF-8" standalone="no"?>
<!DOCTYPE svg PUBLIC "-//W3C//DTD SVG 1.1//EN"
 "http://www.w3.org/Graphics/SVG/1.1/DTD/svg11.dtd">
<!-- Generated by graphviz version 2.43.0 (0)
 -->
<!-- Title: it.unitn.healthcore.domain.Shift.getDoctor Pages: 1 -->
<svg width="542pt" height="88pt"
 viewBox="0.00 0.00 542.00 88.00" xmlns="http://www.w3.org/2000/svg" xmlns:xlink="http://www.w3.org/1999/xlink">
<g id="graph0" class="graph" transform="scale(1 1) rotate(0) translate(4 84)">
<title>it.unitn.healthcore.domain.Shift.getDoctor</title>
<polygon fill="white" stroke="transparent" points="-4,4 -4,-84 538,-84 538,4 -4,4"/>
<!-- Node1 -->
<g id="node1" class="node">
<title>Node1</title>
<g id="a_node1"><a xlink:title="Returns the doctor assigned to the shift.">
<polygon fill="#bfbfbf" stroke="black" points="385,-24.5 385,-54.5 534,-54.5 534,-24.5 385,-24.5"/>
<text text-anchor="start" x="393" y="-42.5" font-family="Helvetica,sans-Serif" font-size="10.00">it.unitn.healthcore.domain.</text>
<text text-anchor="middle" x="459.5" y="-31.5" font-family="Helvetica,sans-Serif" font-size="10.00">Shift.getDoctor</text>
</a>
</g>
</g>
<!-- Node2 -->
<g id="node2" class="node">
<title>Node2</title>
<g id="a_node2"><a xlink:href="classit_1_1unitn_1_1healthcore_1_1business_1_1DoctorService.html#a5cafe3c05bbe27da6d3dbd95574d0486" target="_top" xlink:title="Helper method to delete a specific shift based on its ID.">
<polygon fill="white" stroke="black" points="194,-49.5 194,-79.5 349,-79.5 349,-49.5 194,-49.5"/>
<text text-anchor="start" x="202" y="-67.5" font-family="Helvetica,sans-Serif" font-size="10.00">it.unitn.healthcore.business.</text>
<text text-anchor="middle" x="271.5" y="-56.5" font-family="Helvetica,sans-Serif" font-size="10.00">DoctorService.deleteShift</text>
</a>
</g>
</g>
<!-- Node1&#45;&gt;Node2 -->
<g id="edge1" class="edge">
<title>Node1&#45;&gt;Node2</title>
<path fill="none" stroke="midnightblue" d="M374.96,-50.73C366.37,-51.88 357.66,-53.05 349.14,-54.2"/>
<polygon fill="midnightblue" stroke="midnightblue" points="375.54,-54.18 384.99,-49.38 374.61,-47.24 375.54,-54.18"/>
</g>
<!-- Node4 -->
<g id="node4" class="node">
<title>Node4</title>
<g id="a_node4"><a xlink:href="classit_1_1unitn_1_1healthcore_1_1business_1_1DoctorService.html#a0144281b10cf3bd09275e4f2898c3aea" target="_top" xlink:title="Helper method to retrieve detailed information about a doctor associated with a specific appointment.">
<polygon fill="white" stroke="black" points="194,-0.5 194,-30.5 349,-30.5 349,-0.5 194,-0.5"/>
<text text-anchor="start" x="202" y="-18.5" font-family="Helvetica,sans-Serif" font-size="10.00">it.unitn.healthcore.business.</text>
<text text-anchor="middle" x="271.5" y="-7.5" font-family="Helvetica,sans-Serif" font-size="10.00">DoctorService.modifyShift</text>
</a>
</g>
</g>
<!-- Node1&#45;&gt;Node4 -->
<g id="edge3" class="edge">
<title>Node1&#45;&gt;Node4</title>
<path fill="none" stroke="midnightblue" d="M374.96,-28.72C366.37,-27.61 357.66,-26.49 349.14,-25.39"/>
<polygon fill="midnightblue" stroke="midnightblue" points="374.62,-32.21 384.99,-30.01 375.52,-25.26 374.62,-32.21"/>
</g>
<!-- Node3 -->
<g id="node3" class="node">
<title>Node3</title>
<g id="a_node3"><a xlink:href="classit_1_1unitn_1_1healthcore_1_1controller_1_1DoctorController.html#a9918159e8ca76ff0c58aa9c9dd8aeba9" target="_top" xlink:title="Deletes an existing shift for a doctor.">
<polygon fill="white" stroke="black" points="0,-49.5 0,-79.5 158,-79.5 158,-49.5 0,-49.5"/>
<text text-anchor="start" x="8" y="-67.5" font-family="Helvetica,sans-Serif" font-size="10.00">it.unitn.healthcore.controller.</text>
<text text-anchor="middle" x="79" y="-56.5" font-family="Helvetica,sans-Serif" font-size="10.00">DoctorController.deleteShift</text>
</a>
</g>
</g>
<!-- Node2&#45;&gt;Node3 -->
<g id="edge2" class="edge">
<title>Node2&#45;&gt;Node3</title>
<path fill="none" stroke="midnightblue" d="M183.82,-64.5C175.23,-64.5 166.55,-64.5 158.06,-64.5"/>
<polygon fill="midnightblue" stroke="midnightblue" points="183.84,-68 193.84,-64.5 183.84,-61 183.84,-68"/>
</g>
<!-- Node5 -->
<g id="node5" class="node">
<title>Node5</title>
<g id="a_node5"><a xlink:href="classit_1_1unitn_1_1healthcore_1_1controller_1_1DoctorController.html#aa8d0870dac3e5c366755771a799956bb" target="_top" xlink:title="Modifies an existing shift for a doctor.">
<polygon fill="white" stroke="black" points="0,-0.5 0,-30.5 158,-30.5 158,-0.5 0,-0.5"/>
<text text-anchor="start" x="8" y="-18.5" font-family="Helvetica,sans-Serif" font-size="10.00">it.unitn.healthcore.controller.</text>
<text text-anchor="middle" x="79" y="-7.5" font-family="Helvetica,sans-Serif" font-size="10.00">DoctorController.modifyShift</text>
</a>
</g>
</g>
<!-- Node4&#45;&gt;Node5 -->
<g id="edge4" class="edge">
<title>Node4&#45;&gt;Node5</title>
<path fill="none" stroke="midnightblue" d="M183.82,-15.5C175.23,-15.5 166.55,-15.5 158.06,-15.5"/>
<polygon fill="midnightblue" stroke="midnightblue" points="183.84,-19 193.84,-15.5 183.84,-12 183.84,-19"/>
</g>
</g>
</svg>
