<?xml version="1.0" encoding="UTF-8" standalone="no"?>
<!DOCTYPE svg PUBLIC "-//W3C//DTD SVG 1.1//EN"
 "http://www.w3.org/Graphics/SVG/1.1/DTD/svg11.dtd">
<!-- Generated by graphviz version 2.43.0 (0)
 -->
<!-- Title: it.unitn.healthcore.domain.InsurancePlan.isCoveredAtHospital Pages: 1 -->
<svg width="381pt" height="39pt"
 viewBox="0.00 0.00 381.00 39.00" xmlns="http://www.w3.org/2000/svg" xmlns:xlink="http://www.w3.org/1999/xlink">
<g id="graph0" class="graph" transform="scale(1 1) rotate(0) translate(4 35)">
<title>it.unitn.healthcore.domain.InsurancePlan.isCoveredAtHospital</title>
<polygon fill="white" stroke="transparent" points="-4,4 -4,-35 377,-35 377,4 -4,4"/>
<!-- Node1 -->
<g id="node1" class="node">
<title>Node1</title>
<g id="a_node1"><a xlink:title="Checks if this insurance plan covers a specific hospital.">
<polygon fill="#bfbfbf" stroke="black" points="0,-0.5 0,-30.5 188,-30.5 188,-0.5 0,-0.5"/>
<text text-anchor="start" x="8" y="-18.5" font-family="Helvetica,sans-Serif" font-size="10.00">it.unitn.healthcore.domain.</text>
<text text-anchor="middle" x="94" y="-7.5" font-family="Helvetica,sans-Serif" font-size="10.00">InsurancePlan.isCoveredAtHospital</text>
</a>
</g>
</g>
<!-- Node2 -->
<g id="node2" class="node">
<title>Node2</title>
<g id="a_node2"><a xlink:href="classit_1_1unitn_1_1healthcore_1_1domain_1_1Hospital.html#af0b058d14b4d9d957f581a0429fe5971" target="_top" xlink:title="Returns the hospital ID.">
<polygon fill="white" stroke="black" points="224,-0.5 224,-30.5 373,-30.5 373,-0.5 224,-0.5"/>
<text text-anchor="start" x="232" y="-18.5" font-family="Helvetica,sans-Serif" font-size="10.00">it.unitn.healthcore.domain.</text>
<text text-anchor="middle" x="298.5" y="-7.5" font-family="Helvetica,sans-Serif" font-size="10.00">Hospital.getHospitalId</text>
</a>
</g>
</g>
<!-- Node1&#45;&gt;Node2 -->
<g id="edge1" class="edge">
<title>Node1&#45;&gt;Node2</title>
<path fill="none" stroke="midnightblue" d="M188.25,-15.5C196.73,-15.5 205.3,-15.5 213.69,-15.5"/>
<polygon fill="midnightblue" stroke="midnightblue" points="213.84,-19 223.84,-15.5 213.84,-12 213.84,-19"/>
</g>
</g>
</svg>
