<?xml version="1.0" encoding="UTF-8" standalone="no"?>
<!DOCTYPE svg PUBLIC "-//W3C//DTD SVG 1.1//EN"
 "http://www.w3.org/Graphics/SVG/1.1/DTD/svg11.dtd">
<!-- Generated by graphviz version 2.43.0 (0)
 -->
<!-- Title: it.unitn.healthcore.controller.DoctorController.modifyShift Pages: 1 -->
<svg width="542pt" height="284pt"
 viewBox="0.00 0.00 542.00 284.00" xmlns="http://www.w3.org/2000/svg" xmlns:xlink="http://www.w3.org/1999/xlink">
<g id="graph0" class="graph" transform="scale(1 1) rotate(0) translate(4 280)">
<title>it.unitn.healthcore.controller.DoctorController.modifyShift</title>
<polygon fill="white" stroke="transparent" points="-4,4 -4,-280 538,-280 538,4 -4,4"/>
<!-- Node1 -->
<g id="node1" class="node">
<title>Node1</title>
<g id="a_node1"><a xlink:title="Modifies an existing shift for a doctor.">
<polygon fill="#bfbfbf" stroke="black" points="0,-122.5 0,-152.5 158,-152.5 158,-122.5 0,-122.5"/>
<text text-anchor="start" x="8" y="-140.5" font-family="Helvetica,sans-Serif" font-size="10.00">it.unitn.healthcore.controller.</text>
<text text-anchor="middle" x="79" y="-129.5" font-family="Helvetica,sans-Serif" font-size="10.00">DoctorController.modifyShift</text>
</a>
</g>
</g>
<!-- Node2 -->
<g id="node2" class="node">
<title>Node2</title>
<g id="a_node2"><a xlink:href="classit_1_1unitn_1_1healthcore_1_1business_1_1DoctorService.html#a0144281b10cf3bd09275e4f2898c3aea" target="_top" xlink:title=" ">
<polygon fill="white" stroke="black" points="194,-122.5 194,-152.5 349,-152.5 349,-122.5 194,-122.5"/>
<text text-anchor="start" x="202" y="-140.5" font-family="Helvetica,sans-Serif" font-size="10.00">it.unitn.healthcore.business.</text>
<text text-anchor="middle" x="271.5" y="-129.5" font-family="Helvetica,sans-Serif" font-size="10.00">DoctorService.modifyShift</text>
</a>
</g>
</g>
<!-- Node1&#45;&gt;Node2 -->
<g id="edge1" class="edge">
<title>Node1&#45;&gt;Node2</title>
<path fill="none" stroke="midnightblue" d="M158.03,-137.5C166.53,-137.5 175.21,-137.5 183.8,-137.5"/>
<polygon fill="midnightblue" stroke="midnightblue" points="183.82,-141 193.82,-137.5 183.82,-134 183.82,-141"/>
</g>
<!-- Node3 -->
<g id="node3" class="node">
<title>Node3</title>
<g id="a_node3"><a xlink:href="classit_1_1unitn_1_1healthcore_1_1domain_1_1Shift.html#aeb536b32967f2656409f668ad13f2347" target="_top" xlink:title="Returns the doctor assigned to the shift.">
<polygon fill="white" stroke="black" points="385,-245.5 385,-275.5 534,-275.5 534,-245.5 385,-245.5"/>
<text text-anchor="start" x="393" y="-263.5" font-family="Helvetica,sans-Serif" font-size="10.00">it.unitn.healthcore.domain.</text>
<text text-anchor="middle" x="459.5" y="-252.5" font-family="Helvetica,sans-Serif" font-size="10.00">Shift.getDoctor</text>
</a>
</g>
</g>
<!-- Node2&#45;&gt;Node3 -->
<g id="edge2" class="edge">
<title>Node2&#45;&gt;Node3</title>
<path fill="none" stroke="midnightblue" d="M285.93,-152.72C305.67,-174.21 344.55,-213.42 385,-236.5 388.01,-238.22 391.15,-239.83 394.38,-241.34"/>
<polygon fill="midnightblue" stroke="midnightblue" points="393.07,-244.59 403.64,-245.35 395.85,-238.17 393.07,-244.59"/>
</g>
<!-- Node4 -->
<g id="node4" class="node">
<title>Node4</title>
<g id="a_node4"><a xlink:href="classit_1_1unitn_1_1healthcore_1_1domain_1_1Shift.html#a38638195cd02bc419bd7c15abb1df602" target="_top" xlink:title="Returns the end time of the shift.">
<polygon fill="white" stroke="black" points="385,-196.5 385,-226.5 534,-226.5 534,-196.5 385,-196.5"/>
<text text-anchor="start" x="393" y="-214.5" font-family="Helvetica,sans-Serif" font-size="10.00">it.unitn.healthcore.domain.</text>
<text text-anchor="middle" x="459.5" y="-203.5" font-family="Helvetica,sans-Serif" font-size="10.00">Shift.getEndTime</text>
</a>
</g>
</g>
<!-- Node2&#45;&gt;Node4 -->
<g id="edge3" class="edge">
<title>Node2&#45;&gt;Node4</title>
<path fill="none" stroke="midnightblue" d="M304.14,-152.61C326.48,-163.02 357.27,-176.84 385,-187.5 390.01,-189.43 395.25,-191.34 400.53,-193.19"/>
<polygon fill="midnightblue" stroke="midnightblue" points="399.42,-196.51 410.02,-196.45 401.7,-189.89 399.42,-196.51"/>
</g>
<!-- Node5 -->
<g id="node5" class="node">
<title>Node5</title>
<g id="a_node5"><a xlink:href="classit_1_1unitn_1_1healthcore_1_1domain_1_1Doctor.html#a1f74266b5c9953f4c861a1b2e66405a8" target="_top" xlink:title="Shift getter.">
<polygon fill="white" stroke="black" points="385,-147.5 385,-177.5 534,-177.5 534,-147.5 385,-147.5"/>
<text text-anchor="start" x="393" y="-165.5" font-family="Helvetica,sans-Serif" font-size="10.00">it.unitn.healthcore.domain.</text>
<text text-anchor="middle" x="459.5" y="-154.5" font-family="Helvetica,sans-Serif" font-size="10.00">Doctor.getShifts</text>
</a>
</g>
</g>
<!-- Node2&#45;&gt;Node5 -->
<g id="edge4" class="edge">
<title>Node2&#45;&gt;Node5</title>
<path fill="none" stroke="midnightblue" d="M349.23,-147.81C357.71,-148.95 366.39,-150.12 374.95,-151.27"/>
<polygon fill="midnightblue" stroke="midnightblue" points="374.56,-154.75 384.94,-152.61 375.5,-147.81 374.56,-154.75"/>
</g>
<!-- Node6 -->
<g id="node6" class="node">
<title>Node6</title>
<g id="a_node6"><a xlink:href="classit_1_1unitn_1_1healthcore_1_1domain_1_1Shift.html#a4a652dd9ac0fdf2f23554784776f3940" target="_top" xlink:title="Returns the start time of the shift.">
<polygon fill="white" stroke="black" points="385,-98.5 385,-128.5 534,-128.5 534,-98.5 385,-98.5"/>
<text text-anchor="start" x="393" y="-116.5" font-family="Helvetica,sans-Serif" font-size="10.00">it.unitn.healthcore.domain.</text>
<text text-anchor="middle" x="459.5" y="-105.5" font-family="Helvetica,sans-Serif" font-size="10.00">Shift.getStartTime</text>
</a>
</g>
</g>
<!-- Node2&#45;&gt;Node6 -->
<g id="edge5" class="edge">
<title>Node2&#45;&gt;Node6</title>
<path fill="none" stroke="midnightblue" d="M349.23,-127.6C357.71,-126.5 366.39,-125.39 374.95,-124.28"/>
<polygon fill="midnightblue" stroke="midnightblue" points="375.47,-127.74 384.94,-122.99 374.58,-120.8 375.47,-127.74"/>
</g>
<!-- Node7 -->
<g id="node7" class="node">
<title>Node7</title>
<g id="a_node7"><a xlink:href="classit_1_1unitn_1_1healthcore_1_1domain_1_1Shift.html#aabfc5b98a784efa0595cc0160464ea93" target="_top" xlink:title="Sets the end time of the shift.">
<polygon fill="white" stroke="black" points="385,-49.5 385,-79.5 534,-79.5 534,-49.5 385,-49.5"/>
<text text-anchor="start" x="393" y="-67.5" font-family="Helvetica,sans-Serif" font-size="10.00">it.unitn.healthcore.domain.</text>
<text text-anchor="middle" x="459.5" y="-56.5" font-family="Helvetica,sans-Serif" font-size="10.00">Shift.setEndTime</text>
</a>
</g>
</g>
<!-- Node2&#45;&gt;Node7 -->
<g id="edge6" class="edge">
<title>Node2&#45;&gt;Node7</title>
<path fill="none" stroke="midnightblue" d="M306.2,-122.34C328.41,-112.54 358.23,-99.75 385,-89.5 390.78,-87.29 396.86,-85.06 402.93,-82.9"/>
<polygon fill="midnightblue" stroke="midnightblue" points="404.16,-86.18 412.44,-79.57 401.84,-79.58 404.16,-86.18"/>
</g>
<!-- Node8 -->
<g id="node8" class="node">
<title>Node8</title>
<g id="a_node8"><a xlink:href="classit_1_1unitn_1_1healthcore_1_1domain_1_1Shift.html#afbe30720e4cb23834ba65f653ae597d9" target="_top" xlink:title="Sets the start time of the shift.">
<polygon fill="white" stroke="black" points="385,-0.5 385,-30.5 534,-30.5 534,-0.5 385,-0.5"/>
<text text-anchor="start" x="393" y="-18.5" font-family="Helvetica,sans-Serif" font-size="10.00">it.unitn.healthcore.domain.</text>
<text text-anchor="middle" x="459.5" y="-7.5" font-family="Helvetica,sans-Serif" font-size="10.00">Shift.setStartTime</text>
</a>
</g>
</g>
<!-- Node2&#45;&gt;Node8 -->
<g id="edge7" class="edge">
<title>Node2&#45;&gt;Node8</title>
<path fill="none" stroke="midnightblue" d="M286.37,-122.32C306.33,-101.29 345.16,-63.3 385,-40.5 388.69,-38.39 392.58,-36.42 396.57,-34.59"/>
<polygon fill="midnightblue" stroke="midnightblue" points="398.18,-37.71 406.01,-30.57 395.44,-31.27 398.18,-37.71"/>
</g>
</g>
</svg>
