<?xml version="1.0" encoding="UTF-8" standalone="no"?>
<!DOCTYPE svg PUBLIC "-//W3C//DTD SVG 1.1//EN"
 "http://www.w3.org/Graphics/SVG/1.1/DTD/svg11.dtd">
<!-- Generated by graphviz version 2.43.0 (0)
 -->
<!-- Title: it.unitn.healthcore.business.DoctorService.addShift Pages: 1 -->
<svg width="354pt" height="88pt"
 viewBox="0.00 0.00 354.00 88.00" xmlns="http://www.w3.org/2000/svg" xmlns:xlink="http://www.w3.org/1999/xlink">
<g id="graph0" class="graph" transform="scale(1 1) rotate(0) translate(4 84)">
<title>it.unitn.healthcore.business.DoctorService.addShift</title>
<polygon fill="white" stroke="transparent" points="-4,4 -4,-84 350,-84 350,4 -4,4"/>
<!-- Node1 -->
<g id="node1" class="node">
<title>Node1</title>
<g id="a_node1"><a xlink:title="Helper method to retrieve detailed information about a doctor associated with a specific appointment.">
<polygon fill="#bfbfbf" stroke="black" points="0,-24.5 0,-54.5 155,-54.5 155,-24.5 0,-24.5"/>
<text text-anchor="start" x="8" y="-42.5" font-family="Helvetica,sans-Serif" font-size="10.00">it.unitn.healthcore.business.</text>
<text text-anchor="middle" x="77.5" y="-31.5" font-family="Helvetica,sans-Serif" font-size="10.00">DoctorService.addShift</text>
</a>
</g>
</g>
<!-- Node2 -->
<g id="node2" class="node">
<title>Node2</title>
<g id="a_node2"><a xlink:href="classit_1_1unitn_1_1healthcore_1_1business_1_1DoctorService.html#a41e7c24bfb4c4e41f1b3df875368f3c8" target="_top" xlink:title="Retrieves detailed information about a specific doctor based on the doctor ID.">
<polygon fill="white" stroke="black" points="191,-49.5 191,-79.5 346,-79.5 346,-49.5 191,-49.5"/>
<text text-anchor="start" x="199" y="-67.5" font-family="Helvetica,sans-Serif" font-size="10.00">it.unitn.healthcore.business.</text>
<text text-anchor="middle" x="268.5" y="-56.5" font-family="Helvetica,sans-Serif" font-size="10.00">DoctorService.findDoctor</text>
</a>
</g>
</g>
<!-- Node1&#45;&gt;Node2 -->
<g id="edge1" class="edge">
<title>Node1&#45;&gt;Node2</title>
<path fill="none" stroke="midnightblue" d="M155.1,-49.63C163.56,-50.75 172.22,-51.9 180.79,-53.03"/>
<polygon fill="midnightblue" stroke="midnightblue" points="180.42,-56.51 190.79,-54.35 181.34,-49.57 180.42,-56.51"/>
</g>
<!-- Node3 -->
<g id="node3" class="node">
<title>Node3</title>
<g id="a_node3"><a xlink:href="classit_1_1unitn_1_1healthcore_1_1domain_1_1Doctor.html#a1f74266b5c9953f4c861a1b2e66405a8" target="_top" xlink:title="Shift getter.">
<polygon fill="white" stroke="black" points="194,-0.5 194,-30.5 343,-30.5 343,-0.5 194,-0.5"/>
<text text-anchor="start" x="202" y="-18.5" font-family="Helvetica,sans-Serif" font-size="10.00">it.unitn.healthcore.domain.</text>
<text text-anchor="middle" x="268.5" y="-7.5" font-family="Helvetica,sans-Serif" font-size="10.00">Doctor.getShifts</text>
</a>
</g>
</g>
<!-- Node1&#45;&gt;Node3 -->
<g id="edge2" class="edge">
<title>Node1&#45;&gt;Node3</title>
<path fill="none" stroke="midnightblue" d="M155.1,-29.77C164.59,-28.57 174.34,-27.33 183.93,-26.11"/>
<polygon fill="midnightblue" stroke="midnightblue" points="184.37,-29.58 193.85,-24.85 183.49,-22.64 184.37,-29.58"/>
</g>
</g>
</svg>
