<?xml version="1.0" encoding="UTF-8" standalone="no"?>
<!DOCTYPE svg PUBLIC "-//W3C//DTD SVG 1.1//EN"
 "http://www.w3.org/Graphics/SVG/1.1/DTD/svg11.dtd">
<!-- Generated by graphviz version 2.43.0 (0)
 -->
<!-- Title: it.unitn.healthcore.business.PatientService.updateInsurancePlan Pages: 1 -->
<svg width="606pt" height="161pt"
 viewBox="0.00 0.00 606.00 161.00" xmlns="http://www.w3.org/2000/svg" xmlns:xlink="http://www.w3.org/1999/xlink">
<g id="graph0" class="graph" transform="scale(1 1) rotate(0) translate(4 157)">
<title>it.unitn.healthcore.business.PatientService.updateInsurancePlan</title>
<polygon fill="white" stroke="transparent" points="-4,4 -4,-157 602,-157 602,4 -4,4"/>
<!-- Node1 -->
<g id="node1" class="node">
<title>Node1</title>
<g id="a_node1"><a xlink:title="Updates the insurance plan for the currently authenticated patient.">
<polygon fill="#bfbfbf" stroke="black" points="0,-49.5 0,-79.5 191,-79.5 191,-49.5 0,-49.5"/>
<text text-anchor="start" x="8" y="-67.5" font-family="Helvetica,sans-Serif" font-size="10.00">it.unitn.healthcore.business.</text>
<text text-anchor="middle" x="95.5" y="-56.5" font-family="Helvetica,sans-Serif" font-size="10.00">PatientService.updateInsurancePlan</text>
</a>
</g>
</g>
<!-- Node2 -->
<g id="node2" class="node">
<title>Node2</title>
<g id="a_node2"><a xlink:href="classit_1_1unitn_1_1healthcore_1_1business_1_1UserService.html#a33213d05bfda4e7384e17b18332d4bb5" target="_top" xlink:title="Retrieves the currently authenticated user from the database.">
<polygon fill="white" stroke="black" points="227,-98.5 227,-128.5 382,-128.5 382,-98.5 227,-98.5"/>
<text text-anchor="start" x="235" y="-116.5" font-family="Helvetica,sans-Serif" font-size="10.00">it.unitn.healthcore.business.</text>
<text text-anchor="middle" x="304.5" y="-105.5" font-family="Helvetica,sans-Serif" font-size="10.00">UserService.getCurrentUser</text>
</a>
</g>
</g>
<!-- Node1&#45;&gt;Node2 -->
<g id="edge1" class="edge">
<title>Node1&#45;&gt;Node2</title>
<path fill="none" stroke="midnightblue" d="M160.01,-79.53C182.17,-84.78 207.21,-90.71 230.1,-96.13"/>
<polygon fill="midnightblue" stroke="midnightblue" points="229.57,-99.6 240.11,-98.49 231.18,-92.78 229.57,-99.6"/>
</g>
<!-- Node5 -->
<g id="node5" class="node">
<title>Node5</title>
<g id="a_node5"><a xlink:href="classit_1_1unitn_1_1healthcore_1_1domain_1_1User.html#af8206b66c08446d8c3cb7e16b825a794" target="_top" xlink:title="Returns a string representation of the User.">
<polygon fill="white" stroke="black" points="230,-49.5 230,-79.5 379,-79.5 379,-49.5 230,-49.5"/>
<text text-anchor="start" x="238" y="-67.5" font-family="Helvetica,sans-Serif" font-size="10.00">it.unitn.healthcore.domain.</text>
<text text-anchor="middle" x="304.5" y="-56.5" font-family="Helvetica,sans-Serif" font-size="10.00">User.getId</text>
</a>
</g>
</g>
<!-- Node1&#45;&gt;Node5 -->
<g id="edge4" class="edge">
<title>Node1&#45;&gt;Node5</title>
<path fill="none" stroke="midnightblue" d="M191.22,-64.5C200.75,-64.5 210.39,-64.5 219.8,-64.5"/>
<polygon fill="midnightblue" stroke="midnightblue" points="219.91,-68 229.91,-64.5 219.91,-61 219.91,-68"/>
</g>
<!-- Node6 -->
<g id="node6" class="node">
<title>Node6</title>
<g id="a_node6"><a xlink:href="classit_1_1unitn_1_1healthcore_1_1domain_1_1Patient.html#afbff2ff4714363a46b30f1bbb1e76d56" target="_top" xlink:title="Insurance plan setter.">
<polygon fill="white" stroke="black" points="230,-0.5 230,-30.5 379,-30.5 379,-0.5 230,-0.5"/>
<text text-anchor="start" x="238" y="-18.5" font-family="Helvetica,sans-Serif" font-size="10.00">it.unitn.healthcore.domain.</text>
<text text-anchor="middle" x="304.5" y="-7.5" font-family="Helvetica,sans-Serif" font-size="10.00">Patient.setInsurancePlan</text>
</a>
</g>
</g>
<!-- Node1&#45;&gt;Node6 -->
<g id="edge5" class="edge">
<title>Node1&#45;&gt;Node6</title>
<path fill="none" stroke="midnightblue" d="M160.01,-49.47C182.17,-44.22 207.21,-38.29 230.1,-32.87"/>
<polygon fill="midnightblue" stroke="midnightblue" points="231.18,-36.22 240.11,-30.51 229.57,-29.4 231.18,-36.22"/>
</g>
<!-- Node3 -->
<g id="node3" class="node">
<title>Node3</title>
<g id="a_node3"><a xlink:href="interfaceit_1_1unitn_1_1healthcore_1_1persistence_1_1UserRepository.html#a6a646ae44d01189ff44c81c03fc92fa8" target="_top" xlink:title=" ">
<polygon fill="white" stroke="black" points="421,-122.5 421,-152.5 595,-152.5 595,-122.5 421,-122.5"/>
<text text-anchor="start" x="429" y="-140.5" font-family="Helvetica,sans-Serif" font-size="10.00">it.unitn.healthcore.persistence.</text>
<text text-anchor="middle" x="508" y="-129.5" font-family="Helvetica,sans-Serif" font-size="10.00">UserRepository.findUserByEmail</text>
</a>
</g>
</g>
<!-- Node2&#45;&gt;Node3 -->
<g id="edge2" class="edge">
<title>Node2&#45;&gt;Node3</title>
<path fill="none" stroke="midnightblue" d="M382.25,-122.64C391.58,-123.75 401.2,-124.9 410.76,-126.04"/>
<polygon fill="midnightblue" stroke="midnightblue" points="410.35,-129.51 420.7,-127.22 411.18,-122.56 410.35,-129.51"/>
</g>
<!-- Node4 -->
<g id="node4" class="node">
<title>Node4</title>
<g id="a_node4"><a xlink:href="classit_1_1unitn_1_1healthcore_1_1business_1_1UserService.html#a703ed9778e3ac6cd9741220089b5f48d" target="_top" xlink:title="Retrieves the email of the currently authenticated user.">
<polygon fill="white" stroke="black" points="418,-73.5 418,-103.5 598,-103.5 598,-73.5 418,-73.5"/>
<text text-anchor="start" x="426" y="-91.5" font-family="Helvetica,sans-Serif" font-size="10.00">it.unitn.healthcore.business.</text>
<text text-anchor="middle" x="508" y="-80.5" font-family="Helvetica,sans-Serif" font-size="10.00">UserService.getCurrentUserEmail</text>
</a>
</g>
</g>
<!-- Node2&#45;&gt;Node4 -->
<g id="edge3" class="edge">
<title>Node2&#45;&gt;Node4</title>
<path fill="none" stroke="midnightblue" d="M382.25,-103.98C390.65,-102.94 399.28,-101.87 407.89,-100.8"/>
<polygon fill="midnightblue" stroke="midnightblue" points="408.49,-104.25 417.98,-99.54 407.62,-97.3 408.49,-104.25"/>
</g>
</g>
</svg>
