<?xml version="1.0" encoding="UTF-8" standalone="no"?>
<!DOCTYPE svg PUBLIC "-//W3C//DTD SVG 1.1//EN"
 "http://www.w3.org/Graphics/SVG/1.1/DTD/svg11.dtd">
<!-- Generated by graphviz version 2.43.0 (0)
 -->
<!-- Title: it.unitn.healthcore.business.PatientService.bookAppointment Pages: 1 -->
<svg width="624pt" height="259pt"
 viewBox="0.00 0.00 624.00 259.00" xmlns="http://www.w3.org/2000/svg" xmlns:xlink="http://www.w3.org/1999/xlink">
<g id="graph0" class="graph" transform="scale(1 1) rotate(0) translate(4 255)">
<title>it.unitn.healthcore.business.PatientService.bookAppointment</title>
<polygon fill="white" stroke="transparent" points="-4,4 -4,-255 620,-255 620,4 -4,4"/>
<!-- Node1 -->
<g id="node1" class="node">
<title>Node1</title>
<g id="a_node1"><a xlink:title="Books an appointment with a specified doctor for the currently authenticated patient.">
<polygon fill="#bfbfbf" stroke="black" points="0,-98.5 0,-128.5 176,-128.5 176,-98.5 0,-98.5"/>
<text text-anchor="start" x="8" y="-116.5" font-family="Helvetica,sans-Serif" font-size="10.00">it.unitn.healthcore.business.</text>
<text text-anchor="middle" x="88" y="-105.5" font-family="Helvetica,sans-Serif" font-size="10.00">PatientService.bookAppointment</text>
</a>
</g>
</g>
<!-- Node2 -->
<g id="node2" class="node">
<title>Node2</title>
<g id="a_node2"><a xlink:href="classit_1_1unitn_1_1healthcore_1_1business_1_1UserService.html#a33213d05bfda4e7384e17b18332d4bb5" target="_top" xlink:title="Retrieves the currently authenticated user from the database.">
<polygon fill="white" stroke="black" points="228.5,-196.5 228.5,-226.5 383.5,-226.5 383.5,-196.5 228.5,-196.5"/>
<text text-anchor="start" x="236.5" y="-214.5" font-family="Helvetica,sans-Serif" font-size="10.00">it.unitn.healthcore.business.</text>
<text text-anchor="middle" x="306" y="-203.5" font-family="Helvetica,sans-Serif" font-size="10.00">UserService.getCurrentUser</text>
</a>
</g>
</g>
<!-- Node1&#45;&gt;Node2 -->
<g id="edge1" class="edge">
<title>Node1&#45;&gt;Node2</title>
<path fill="none" stroke="midnightblue" d="M109.77,-128.58C133.46,-145.14 173.85,-171.5 212,-187.5 217,-189.6 222.23,-191.55 227.54,-193.35"/>
<polygon fill="midnightblue" stroke="midnightblue" points="226.59,-196.73 237.19,-196.46 228.74,-190.06 226.59,-196.73"/>
</g>
<!-- Node5 -->
<g id="node5" class="node">
<title>Node5</title>
<g id="a_node5"><a xlink:href="classit_1_1unitn_1_1healthcore_1_1domain_1_1Doctor.html#ac03da7697c11c376768602fad6a43886" target="_top" xlink:title="Department getter.">
<polygon fill="white" stroke="black" points="231.5,-147.5 231.5,-177.5 380.5,-177.5 380.5,-147.5 231.5,-147.5"/>
<text text-anchor="start" x="239.5" y="-165.5" font-family="Helvetica,sans-Serif" font-size="10.00">it.unitn.healthcore.domain.</text>
<text text-anchor="middle" x="306" y="-154.5" font-family="Helvetica,sans-Serif" font-size="10.00">Doctor.getDepartment</text>
</a>
</g>
</g>
<!-- Node1&#45;&gt;Node5 -->
<g id="edge4" class="edge">
<title>Node1&#45;&gt;Node5</title>
<path fill="none" stroke="midnightblue" d="M155.28,-128.53C178.6,-133.83 204.99,-139.81 229.05,-145.27"/>
<polygon fill="midnightblue" stroke="midnightblue" points="228.32,-148.69 238.85,-147.49 229.87,-141.87 228.32,-148.69"/>
</g>
<!-- Node6 -->
<g id="node6" class="node">
<title>Node6</title>
<g id="a_node6"><a xlink:href="classit_1_1unitn_1_1healthcore_1_1domain_1_1Department.html#ae10adf6ab4ccadfca9bdbce8d1940c84" target="_top" xlink:title="Returns the hospital associated with the department.">
<polygon fill="white" stroke="black" points="231.5,-98.5 231.5,-128.5 380.5,-128.5 380.5,-98.5 231.5,-98.5"/>
<text text-anchor="start" x="239.5" y="-116.5" font-family="Helvetica,sans-Serif" font-size="10.00">it.unitn.healthcore.domain.</text>
<text text-anchor="middle" x="306" y="-105.5" font-family="Helvetica,sans-Serif" font-size="10.00">Department.getHospital</text>
</a>
</g>
</g>
<!-- Node1&#45;&gt;Node6 -->
<g id="edge5" class="edge">
<title>Node1&#45;&gt;Node6</title>
<path fill="none" stroke="midnightblue" d="M176.23,-113.5C191.07,-113.5 206.46,-113.5 221.21,-113.5"/>
<polygon fill="midnightblue" stroke="midnightblue" points="221.3,-117 231.3,-113.5 221.3,-110 221.3,-117"/>
</g>
<!-- Node7 -->
<g id="node7" class="node">
<title>Node7</title>
<g id="a_node7"><a xlink:href="classit_1_1unitn_1_1healthcore_1_1domain_1_1Patient.html#a48266d60ec0c7b2baebd9aef60e6cbfe" target="_top" xlink:title="Insurance plan getter.">
<polygon fill="white" stroke="black" points="231.5,-49.5 231.5,-79.5 380.5,-79.5 380.5,-49.5 231.5,-49.5"/>
<text text-anchor="start" x="239.5" y="-67.5" font-family="Helvetica,sans-Serif" font-size="10.00">it.unitn.healthcore.domain.</text>
<text text-anchor="middle" x="306" y="-56.5" font-family="Helvetica,sans-Serif" font-size="10.00">Patient.getInsurancePlan</text>
</a>
</g>
</g>
<!-- Node1&#45;&gt;Node7 -->
<g id="edge6" class="edge">
<title>Node1&#45;&gt;Node7</title>
<path fill="none" stroke="midnightblue" d="M155.28,-98.47C178.6,-93.17 204.99,-87.19 229.05,-81.73"/>
<polygon fill="midnightblue" stroke="midnightblue" points="229.87,-85.13 238.85,-79.51 228.32,-78.31 229.87,-85.13"/>
</g>
<!-- Node8 -->
<g id="node8" class="node">
<title>Node8</title>
<g id="a_node8"><a xlink:href="classit_1_1unitn_1_1healthcore_1_1domain_1_1InsurancePlan.html#a56214cc6c390772d6aa0431b140c01b2" target="_top" xlink:title="Checks if this insurance plan covers a specific hospital.">
<polygon fill="white" stroke="black" points="212,-0.5 212,-30.5 400,-30.5 400,-0.5 212,-0.5"/>
<text text-anchor="start" x="220" y="-18.5" font-family="Helvetica,sans-Serif" font-size="10.00">it.unitn.healthcore.domain.</text>
<text text-anchor="middle" x="306" y="-7.5" font-family="Helvetica,sans-Serif" font-size="10.00">InsurancePlan.isCoveredAtHospital</text>
</a>
</g>
</g>
<!-- Node1&#45;&gt;Node8 -->
<g id="edge7" class="edge">
<title>Node1&#45;&gt;Node8</title>
<path fill="none" stroke="midnightblue" d="M110.27,-98.42C134.06,-82.15 174.25,-56.42 212,-40.5 217.76,-38.07 223.83,-35.82 229.98,-33.74"/>
<polygon fill="midnightblue" stroke="midnightblue" points="231.24,-37.01 239.7,-30.62 229.11,-30.34 231.24,-37.01"/>
</g>
<!-- Node3 -->
<g id="node3" class="node">
<title>Node3</title>
<g id="a_node3"><a xlink:href="interfaceit_1_1unitn_1_1healthcore_1_1persistence_1_1UserRepository.html#a6a646ae44d01189ff44c81c03fc92fa8" target="_top" xlink:title=" ">
<polygon fill="white" stroke="black" points="439,-220.5 439,-250.5 613,-250.5 613,-220.5 439,-220.5"/>
<text text-anchor="start" x="447" y="-238.5" font-family="Helvetica,sans-Serif" font-size="10.00">it.unitn.healthcore.persistence.</text>
<text text-anchor="middle" x="526" y="-227.5" font-family="Helvetica,sans-Serif" font-size="10.00">UserRepository.findUserByEmail</text>
</a>
</g>
</g>
<!-- Node2&#45;&gt;Node3 -->
<g id="edge2" class="edge">
<title>Node2&#45;&gt;Node3</title>
<path fill="none" stroke="midnightblue" d="M383.55,-219.93C398.11,-221.53 413.51,-223.23 428.59,-224.89"/>
<polygon fill="midnightblue" stroke="midnightblue" points="428.63,-228.41 438.96,-226.03 429.4,-221.45 428.63,-228.41"/>
</g>
<!-- Node4 -->
<g id="node4" class="node">
<title>Node4</title>
<g id="a_node4"><a xlink:href="classit_1_1unitn_1_1healthcore_1_1business_1_1UserService.html#a703ed9778e3ac6cd9741220089b5f48d" target="_top" xlink:title="Retrieves the email of the currently authenticated user.">
<polygon fill="white" stroke="black" points="436,-171.5 436,-201.5 616,-201.5 616,-171.5 436,-171.5"/>
<text text-anchor="start" x="444" y="-189.5" font-family="Helvetica,sans-Serif" font-size="10.00">it.unitn.healthcore.business.</text>
<text text-anchor="middle" x="526" y="-178.5" font-family="Helvetica,sans-Serif" font-size="10.00">UserService.getCurrentUserEmail</text>
</a>
</g>
</g>
<!-- Node2&#45;&gt;Node4 -->
<g id="edge3" class="edge">
<title>Node2&#45;&gt;Node4</title>
<path fill="none" stroke="midnightblue" d="M383.55,-202.72C397.18,-201.16 411.54,-199.51 425.69,-197.89"/>
<polygon fill="midnightblue" stroke="midnightblue" points="426.41,-201.33 435.94,-196.71 425.61,-194.38 426.41,-201.33"/>
</g>
<!-- Node9 -->
<g id="node9" class="node">
<title>Node9</title>
<g id="a_node9"><a xlink:href="classit_1_1unitn_1_1healthcore_1_1domain_1_1Hospital.html#af0b058d14b4d9d957f581a0429fe5971" target="_top" xlink:title="Returns the hospital ID.">
<polygon fill="white" stroke="black" points="451.5,-0.5 451.5,-30.5 600.5,-30.5 600.5,-0.5 451.5,-0.5"/>
<text text-anchor="start" x="459.5" y="-18.5" font-family="Helvetica,sans-Serif" font-size="10.00">it.unitn.healthcore.domain.</text>
<text text-anchor="middle" x="526" y="-7.5" font-family="Helvetica,sans-Serif" font-size="10.00">Hospital.getHospitalId</text>
</a>
</g>
</g>
<!-- Node8&#45;&gt;Node9 -->
<g id="edge8" class="edge">
<title>Node8&#45;&gt;Node9</title>
<path fill="none" stroke="midnightblue" d="M400.08,-15.5C413.73,-15.5 427.72,-15.5 441.17,-15.5"/>
<polygon fill="midnightblue" stroke="midnightblue" points="441.33,-19 451.33,-15.5 441.33,-12 441.33,-19"/>
</g>
</g>
</svg>
