<?xml version="1.0" encoding="UTF-8" standalone="no"?>
<!DOCTYPE svg PUBLIC "-//W3C//DTD SVG 1.1//EN"
 "http://www.w3.org/Graphics/SVG/1.1/DTD/svg11.dtd">
<!-- Generated by graphviz version 2.43.0 (0)
 -->
<!-- Title: it.unitn.healthcore.domain.Appointment.getStartTime Pages: 1 -->
<svg width="642pt" height="225pt"
 viewBox="0.00 0.00 642.00 225.00" xmlns="http://www.w3.org/2000/svg" xmlns:xlink="http://www.w3.org/1999/xlink">
<g id="graph0" class="graph" transform="scale(1 1) rotate(0) translate(4 221)">
<title>it.unitn.healthcore.domain.Appointment.getStartTime</title>
<polygon fill="white" stroke="transparent" points="-4,4 -4,-221 638,-221 638,4 -4,4"/>
<!-- Node1 -->
<g id="node1" class="node">
<title>Node1</title>
<g id="a_node1"><a xlink:title="Returns the start date and time of the appointment.">
<polygon fill="#bfbfbf" stroke="black" points="485,-109.5 485,-139.5 634,-139.5 634,-109.5 485,-109.5"/>
<text text-anchor="start" x="493" y="-127.5" font-family="Helvetica,sans-Serif" font-size="10.00">it.unitn.healthcore.domain.</text>
<text text-anchor="middle" x="559.5" y="-116.5" font-family="Helvetica,sans-Serif" font-size="10.00">Appointment.getStartTime</text>
</a>
</g>
</g>
<!-- Node2 -->
<g id="node2" class="node">
<title>Node2</title>
<g id="a_node2"><a xlink:href="classit_1_1unitn_1_1healthcore_1_1controller_1_1PatientController.html#a6c1b2c866308e0723c5b9157149ab47b" target="_top" xlink:title="Books an appointment with a specified doctor for the authenticated patient.">
<polygon fill="white" stroke="black" points="256.5,-186.5 256.5,-216.5 444.5,-216.5 444.5,-186.5 256.5,-186.5"/>
<text text-anchor="start" x="264.5" y="-204.5" font-family="Helvetica,sans-Serif" font-size="10.00">it.unitn.healthcore.controller.</text>
<text text-anchor="middle" x="350.5" y="-193.5" font-family="Helvetica,sans-Serif" font-size="10.00">PatientController.bookAppointment</text>
</a>
</g>
</g>
<!-- Node1&#45;&gt;Node2 -->
<g id="edge1" class="edge">
<title>Node1&#45;&gt;Node2</title>
<path fill="none" stroke="midnightblue" d="M522.42,-144.33C501.46,-155.25 474.27,-168.39 449,-177.5 439.9,-180.78 430.16,-183.77 420.49,-186.43"/>
<polygon fill="midnightblue" stroke="midnightblue" points="524.08,-147.42 531.29,-139.65 520.81,-141.22 524.08,-147.42"/>
</g>
<!-- Node3 -->
<g id="node3" class="node">
<title>Node3</title>
<g id="a_node3"><a xlink:href="classit_1_1unitn_1_1healthcore_1_1business_1_1PatientService.html#a7f10372a6537c0f235e585bdb8b87c30" target="_top" xlink:title="Cancels an existing appointment for the currently authenticated patient.">
<polygon fill="white" stroke="black" points="258.5,-137.5 258.5,-167.5 442.5,-167.5 442.5,-137.5 258.5,-137.5"/>
<text text-anchor="start" x="266.5" y="-155.5" font-family="Helvetica,sans-Serif" font-size="10.00">it.unitn.healthcore.business.</text>
<text text-anchor="middle" x="350.5" y="-144.5" font-family="Helvetica,sans-Serif" font-size="10.00">PatientService.cancelAppointment</text>
</a>
</g>
</g>
<!-- Node1&#45;&gt;Node3 -->
<g id="edge2" class="edge">
<title>Node1&#45;&gt;Node3</title>
<path fill="none" stroke="midnightblue" d="M474.85,-135.81C464.23,-137.25 453.31,-138.73 442.58,-140.18"/>
<polygon fill="midnightblue" stroke="midnightblue" points="475.5,-139.26 484.94,-134.45 474.56,-132.32 475.5,-139.26"/>
</g>
<!-- Node5 -->
<g id="node5" class="node">
<title>Node5</title>
<g id="a_node5"><a xlink:href="classit_1_1unitn_1_1healthcore_1_1business_1_1AppointmentService.html#a6df398766f183e79fe315aea5f1752a4" target="_top" xlink:title="Retrieves detailed information about a specific appointment based on the appointment ID.">
<polygon fill="white" stroke="black" points="252,-77 252,-118 449,-118 449,-77 252,-77"/>
<text text-anchor="start" x="260" y="-106" font-family="Helvetica,sans-Serif" font-size="10.00">it.unitn.healthcore.business.</text>
<text text-anchor="start" x="260" y="-95" font-family="Helvetica,sans-Serif" font-size="10.00">AppointmentService.getAppointment</text>
<text text-anchor="middle" x="350.5" y="-84" font-family="Helvetica,sans-Serif" font-size="10.00">Details</text>
</a>
</g>
</g>
<!-- Node1&#45;&gt;Node5 -->
<g id="edge4" class="edge">
<title>Node1&#45;&gt;Node5</title>
<path fill="none" stroke="midnightblue" d="M475.02,-113.61C466.48,-112.5 457.75,-111.36 449.08,-110.23"/>
<polygon fill="midnightblue" stroke="midnightblue" points="474.57,-117.08 484.94,-114.9 475.47,-110.14 474.57,-117.08"/>
</g>
<!-- Node8 -->
<g id="node8" class="node">
<title>Node8</title>
<g id="a_node8"><a xlink:href="classit_1_1unitn_1_1healthcore_1_1business_1_1PatientService.html#ab8266c492da03f9b5e38829e698129c6" target="_top" xlink:title="Modifies an existing appointment for the currently authenticated patient.">
<polygon fill="white" stroke="black" points="257.5,-18.5 257.5,-48.5 443.5,-48.5 443.5,-18.5 257.5,-18.5"/>
<text text-anchor="start" x="265.5" y="-36.5" font-family="Helvetica,sans-Serif" font-size="10.00">it.unitn.healthcore.business.</text>
<text text-anchor="middle" x="350.5" y="-25.5" font-family="Helvetica,sans-Serif" font-size="10.00">PatientService.modifyAppointment</text>
</a>
</g>
</g>
<!-- Node1&#45;&gt;Node8 -->
<g id="edge7" class="edge">
<title>Node1&#45;&gt;Node8</title>
<path fill="none" stroke="midnightblue" d="M523.09,-104.41C501.95,-92.83 474.37,-78.46 449,-67.5 433.04,-60.6 415.17,-54.05 399.14,-48.58"/>
<polygon fill="midnightblue" stroke="midnightblue" points="521.58,-107.57 532.03,-109.34 524.96,-101.44 521.58,-107.57"/>
</g>
<!-- Node4 -->
<g id="node4" class="node">
<title>Node4</title>
<g id="a_node4"><a xlink:href="classit_1_1unitn_1_1healthcore_1_1controller_1_1PatientController.html#a3a3ac977996cfd51ff42b9386dccc075" target="_top" xlink:title="Cancels an existing appointment for the authenticated patient.">
<polygon fill="white" stroke="black" points="10.5,-147.5 10.5,-177.5 205.5,-177.5 205.5,-147.5 10.5,-147.5"/>
<text text-anchor="start" x="18.5" y="-165.5" font-family="Helvetica,sans-Serif" font-size="10.00">it.unitn.healthcore.controller.</text>
<text text-anchor="middle" x="108" y="-154.5" font-family="Helvetica,sans-Serif" font-size="10.00">PatientController.cancelAppointment</text>
</a>
</g>
</g>
<!-- Node3&#45;&gt;Node4 -->
<g id="edge3" class="edge">
<title>Node3&#45;&gt;Node4</title>
<path fill="none" stroke="midnightblue" d="M248.11,-156.72C234.1,-157.3 219.74,-157.9 205.81,-158.47"/>
<polygon fill="midnightblue" stroke="midnightblue" points="248.39,-160.21 258.23,-156.29 248.1,-153.21 248.39,-160.21"/>
</g>
<!-- Node6 -->
<g id="node6" class="node">
<title>Node6</title>
<g id="a_node6"><a xlink:href="classit_1_1unitn_1_1healthcore_1_1controller_1_1DoctorController.html#aaf741f63621b758e3aab2e1af0639398" target="_top" xlink:title="Retrieves the details of a specific appointment by its ID.">
<polygon fill="white" stroke="black" points="0.5,-98.5 0.5,-128.5 215.5,-128.5 215.5,-98.5 0.5,-98.5"/>
<text text-anchor="start" x="8.5" y="-116.5" font-family="Helvetica,sans-Serif" font-size="10.00">it.unitn.healthcore.controller.</text>
<text text-anchor="middle" x="108" y="-105.5" font-family="Helvetica,sans-Serif" font-size="10.00">DoctorController.viewAppointmentDetail</text>
</a>
</g>
</g>
<!-- Node5&#45;&gt;Node6 -->
<g id="edge5" class="edge">
<title>Node5&#45;&gt;Node6</title>
<path fill="none" stroke="midnightblue" d="M241.63,-104.68C233.03,-105.25 224.35,-105.83 215.76,-106.4"/>
<polygon fill="midnightblue" stroke="midnightblue" points="241.93,-108.16 251.68,-104.01 241.47,-101.18 241.93,-108.16"/>
</g>
<!-- Node7 -->
<g id="node7" class="node">
<title>Node7</title>
<g id="a_node7"><a xlink:href="classit_1_1unitn_1_1healthcore_1_1controller_1_1PatientController.html#ac6fe0b7997f8668f80b25419c0d686c6" target="_top" xlink:title="Retrieves the details of a specific appointment by its ID.">
<polygon fill="white" stroke="black" points="0,-49.5 0,-79.5 216,-79.5 216,-49.5 0,-49.5"/>
<text text-anchor="start" x="8" y="-67.5" font-family="Helvetica,sans-Serif" font-size="10.00">it.unitn.healthcore.controller.</text>
<text text-anchor="middle" x="108" y="-56.5" font-family="Helvetica,sans-Serif" font-size="10.00">PatientController.viewAppointmentDetail</text>
</a>
</g>
</g>
<!-- Node5&#45;&gt;Node7 -->
<g id="edge6" class="edge">
<title>Node5&#45;&gt;Node7</title>
<path fill="none" stroke="midnightblue" d="M241.74,-82.71C233.24,-81.55 224.65,-80.37 216.15,-79.2"/>
<polygon fill="midnightblue" stroke="midnightblue" points="241.3,-86.19 251.68,-84.08 242.25,-79.25 241.3,-86.19"/>
</g>
<!-- Node9 -->
<g id="node9" class="node">
<title>Node9</title>
<g id="a_node9"><a xlink:href="classit_1_1unitn_1_1healthcore_1_1controller_1_1PatientController.html#af370cd8f9baad62995675426371b349c" target="_top" xlink:title="Modifies the details of an existing appointment for the authenticated patient.">
<polygon fill="white" stroke="black" points="9.5,-0.5 9.5,-30.5 206.5,-30.5 206.5,-0.5 9.5,-0.5"/>
<text text-anchor="start" x="17.5" y="-18.5" font-family="Helvetica,sans-Serif" font-size="10.00">it.unitn.healthcore.controller.</text>
<text text-anchor="middle" x="108" y="-7.5" font-family="Helvetica,sans-Serif" font-size="10.00">PatientController.modifyAppointment</text>
</a>
</g>
</g>
<!-- Node8&#45;&gt;Node9 -->
<g id="edge8" class="edge">
<title>Node8&#45;&gt;Node9</title>
<path fill="none" stroke="midnightblue" d="M247.03,-25.83C233.64,-24.83 219.95,-23.8 206.64,-22.81"/>
<polygon fill="midnightblue" stroke="midnightblue" points="246.97,-29.34 257.2,-26.59 247.49,-22.36 246.97,-29.34"/>
</g>
</g>
</svg>
