<?xml version="1.0" encoding="UTF-8" standalone="no"?>
<!DOCTYPE svg PUBLIC "-//W3C//DTD SVG 1.1//EN"
 "http://www.w3.org/Graphics/SVG/1.1/DTD/svg11.dtd">
<!-- Generated by graphviz version 2.43.0 (0)
 -->
<!-- Title: it.unitn.healthcore.controller.PatientController.bookAppointment Pages: 1 -->
<svg width="848pt" height="690pt"
 viewBox="0.00 0.00 848.00 690.00" xmlns="http://www.w3.org/2000/svg" xmlns:xlink="http://www.w3.org/1999/xlink">
<g id="graph0" class="graph" transform="scale(1 1) rotate(0) translate(4 686)">
<title>it.unitn.healthcore.controller.PatientController.bookAppointment</title>
<polygon fill="white" stroke="transparent" points="-4,4 -4,-686 844,-686 844,4 -4,4"/>
<!-- Node1 -->
<g id="node1" class="node">
<title>Node1</title>
<g id="a_node1"><a xlink:title=" ">
<polygon fill="#bfbfbf" stroke="black" points="0,-269.5 0,-299.5 188,-299.5 188,-269.5 0,-269.5"/>
<text text-anchor="start" x="8" y="-287.5" font-family="Helvetica,sans-Serif" font-size="10.00">it.unitn.healthcore.controller.</text>
<text text-anchor="middle" x="94" y="-276.5" font-family="Helvetica,sans-Serif" font-size="10.00">PatientController.bookAppointment</text>
</a>
</g>
</g>
<!-- Node2 -->
<g id="node2" class="node">
<title>Node2</title>
<g id="a_node2"><a xlink:href="classit_1_1unitn_1_1healthcore_1_1business_1_1PatientService.html#ac33e02f57cc7f1ef55dd59cb5673781a" target="_top" xlink:title=" ">
<polygon fill="white" stroke="black" points="224,-480.5 224,-510.5 400,-510.5 400,-480.5 224,-480.5"/>
<text text-anchor="start" x="232" y="-498.5" font-family="Helvetica,sans-Serif" font-size="10.00">it.unitn.healthcore.business.</text>
<text text-anchor="middle" x="312" y="-487.5" font-family="Helvetica,sans-Serif" font-size="10.00">PatientService.bookAppointment</text>
</a>
</g>
</g>
<!-- Node1&#45;&gt;Node2 -->
<g id="edge1" class="edge">
<title>Node1&#45;&gt;Node2</title>
<path fill="none" stroke="midnightblue" d="M101.7,-299.54C117.78,-333.97 161.87,-419.07 224,-465.5 229.42,-469.55 235.42,-473.08 241.67,-476.15"/>
<polygon fill="midnightblue" stroke="midnightblue" points="240.41,-479.42 250.96,-480.33 243.28,-473.04 240.41,-479.42"/>
</g>
<!-- Node8 -->
<g id="node8" class="node">
<title>Node8</title>
<g id="a_node8"><a xlink:href="classit_1_1unitn_1_1healthcore_1_1domain_1_1Doctor.html#ac03da7697c11c376768602fad6a43886" target="_top" xlink:title="Department getter.">
<polygon fill="white" stroke="black" points="455.5,-651.5 455.5,-681.5 604.5,-681.5 604.5,-651.5 455.5,-651.5"/>
<text text-anchor="start" x="463.5" y="-669.5" font-family="Helvetica,sans-Serif" font-size="10.00">it.unitn.healthcore.domain.</text>
<text text-anchor="middle" x="530" y="-658.5" font-family="Helvetica,sans-Serif" font-size="10.00">Doctor.getDepartment</text>
</a>
</g>
</g>
<!-- Node1&#45;&gt;Node8 -->
<g id="edge14" class="edge">
<title>Node1&#45;&gt;Node8</title>
<path fill="none" stroke="midnightblue" d="M99.94,-299.53C113.78,-339.75 156.41,-451.41 224,-520.5 300.02,-598.21 335.34,-601.43 436,-642.5 441.11,-644.59 446.46,-646.53 451.9,-648.35"/>
<polygon fill="midnightblue" stroke="midnightblue" points="451.15,-651.78 461.74,-651.46 453.26,-645.11 451.15,-651.78"/>
</g>
<!-- Node9 -->
<g id="node9" class="node">
<title>Node9</title>
<g id="a_node9"><a xlink:href="classit_1_1unitn_1_1healthcore_1_1domain_1_1Department.html#ae10adf6ab4ccadfca9bdbce8d1940c84" target="_top" xlink:title="Returns the hospital associated with the department.">
<polygon fill="white" stroke="black" points="455.5,-308.5 455.5,-338.5 604.5,-338.5 604.5,-308.5 455.5,-308.5"/>
<text text-anchor="start" x="463.5" y="-326.5" font-family="Helvetica,sans-Serif" font-size="10.00">it.unitn.healthcore.domain.</text>
<text text-anchor="middle" x="530" y="-315.5" font-family="Helvetica,sans-Serif" font-size="10.00">Department.getHospital</text>
</a>
</g>
</g>
<!-- Node1&#45;&gt;Node9 -->
<g id="edge18" class="edge">
<title>Node1&#45;&gt;Node9</title>
<path fill="none" stroke="midnightblue" d="M102.4,-299.54C119,-331.3 162.57,-404.55 224,-432.5 295.2,-464.89 334.7,-475.56 400,-432.5 433.91,-410.14 405.31,-375.11 436,-348.5 439.2,-345.73 442.67,-343.26 446.34,-341.06"/>
<polygon fill="midnightblue" stroke="midnightblue" points="447.97,-344.16 455.2,-336.41 444.72,-337.96 447.97,-344.16"/>
</g>
<!-- Node14 -->
<g id="node14" class="node">
<title>Node14</title>
<g id="a_node14"><a xlink:href="classit_1_1unitn_1_1healthcore_1_1domain_1_1Appointment.html#ae8a397335e77fdd3ab2a12667c862b30" target="_top" xlink:title="Returns the appointment ID.">
<polygon fill="white" stroke="black" points="227,-392.5 227,-422.5 397,-422.5 397,-392.5 227,-392.5"/>
<text text-anchor="start" x="235" y="-410.5" font-family="Helvetica,sans-Serif" font-size="10.00">it.unitn.healthcore.domain.</text>
<text text-anchor="middle" x="312" y="-399.5" font-family="Helvetica,sans-Serif" font-size="10.00">Appointment.getAppointmentId</text>
</a>
</g>
</g>
<!-- Node1&#45;&gt;Node14 -->
<g id="edge13" class="edge">
<title>Node1&#45;&gt;Node14</title>
<path fill="none" stroke="midnightblue" d="M110.33,-299.51C133.21,-321.11 178.51,-360.86 224,-383.5 227.79,-385.39 231.74,-387.14 235.79,-388.77"/>
<polygon fill="midnightblue" stroke="midnightblue" points="234.77,-392.13 245.36,-392.35 237.22,-385.57 234.77,-392.13"/>
</g>
<!-- Node15 -->
<g id="node15" class="node">
<title>Node15</title>
<g id="a_node15"><a xlink:href="classit_1_1unitn_1_1healthcore_1_1domain_1_1Appointment.html#a5e3d223030b1b23d4a2dfab94d5b4ef2" target="_top" xlink:title="Returns the doctor conducting the appointment.">
<polygon fill="white" stroke="black" points="237.5,-343.5 237.5,-373.5 386.5,-373.5 386.5,-343.5 237.5,-343.5"/>
<text text-anchor="start" x="245.5" y="-361.5" font-family="Helvetica,sans-Serif" font-size="10.00">it.unitn.healthcore.domain.</text>
<text text-anchor="middle" x="312" y="-350.5" font-family="Helvetica,sans-Serif" font-size="10.00">Appointment.getDoctor</text>
</a>
</g>
</g>
<!-- Node1&#45;&gt;Node15 -->
<g id="edge15" class="edge">
<title>Node1&#45;&gt;Node15</title>
<path fill="none" stroke="midnightblue" d="M132.24,-299.59C157.85,-309.73 192.75,-323.09 224,-333.5 231.15,-335.88 238.68,-338.25 246.19,-340.52"/>
<polygon fill="midnightblue" stroke="midnightblue" points="245.44,-343.95 256.02,-343.45 247.44,-337.24 245.44,-343.95"/>
</g>
<!-- Node16 -->
<g id="node16" class="node">
<title>Node16</title>
<g id="a_node16"><a xlink:href="classit_1_1unitn_1_1healthcore_1_1domain_1_1User.html#a5b48be6dca19b7d4d43ec2e6a3b91502" target="_top" xlink:title="Returns the email address of the user.">
<polygon fill="white" stroke="black" points="237.5,-294.5 237.5,-324.5 386.5,-324.5 386.5,-294.5 237.5,-294.5"/>
<text text-anchor="start" x="245.5" y="-312.5" font-family="Helvetica,sans-Serif" font-size="10.00">it.unitn.healthcore.domain.</text>
<text text-anchor="middle" x="312" y="-301.5" font-family="Helvetica,sans-Serif" font-size="10.00">User.getEmail</text>
</a>
</g>
</g>
<!-- Node1&#45;&gt;Node16 -->
<g id="edge16" class="edge">
<title>Node1&#45;&gt;Node16</title>
<path fill="none" stroke="midnightblue" d="M188.17,-295.28C201.14,-296.79 214.41,-298.32 227.2,-299.8"/>
<polygon fill="midnightblue" stroke="midnightblue" points="227,-303.3 237.34,-300.97 227.8,-296.35 227,-303.3"/>
</g>
<!-- Node17 -->
<g id="node17" class="node">
<title>Node17</title>
<g id="a_node17"><a xlink:href="classit_1_1unitn_1_1healthcore_1_1domain_1_1Appointment.html#a6adf9242cb006af27dd5ed15fdf82450" target="_top" xlink:title="Returns the end date and time of the appointment.">
<polygon fill="white" stroke="black" points="237.5,-245.5 237.5,-275.5 386.5,-275.5 386.5,-245.5 237.5,-245.5"/>
<text text-anchor="start" x="245.5" y="-263.5" font-family="Helvetica,sans-Serif" font-size="10.00">it.unitn.healthcore.domain.</text>
<text text-anchor="middle" x="312" y="-252.5" font-family="Helvetica,sans-Serif" font-size="10.00">Appointment.getEndTime</text>
</a>
</g>
</g>
<!-- Node1&#45;&gt;Node17 -->
<g id="edge17" class="edge">
<title>Node1&#45;&gt;Node17</title>
<path fill="none" stroke="midnightblue" d="M188.17,-274.15C201.14,-272.71 214.41,-271.23 227.2,-269.81"/>
<polygon fill="midnightblue" stroke="midnightblue" points="227.78,-273.27 237.34,-268.68 227.01,-266.31 227.78,-273.27"/>
</g>
<!-- Node18 -->
<g id="node18" class="node">
<title>Node18</title>
<g id="a_node18"><a xlink:href="classit_1_1unitn_1_1healthcore_1_1domain_1_1Department.html#ad3dbd24db0898580a3a7ead8960abad7" target="_top" xlink:title="Returns the list of equipments associated with the department.">
<polygon fill="white" stroke="black" points="237.5,-196.5 237.5,-226.5 386.5,-226.5 386.5,-196.5 237.5,-196.5"/>
<text text-anchor="start" x="245.5" y="-214.5" font-family="Helvetica,sans-Serif" font-size="10.00">it.unitn.healthcore.domain.</text>
<text text-anchor="middle" x="312" y="-203.5" font-family="Helvetica,sans-Serif" font-size="10.00">Department.getName</text>
</a>
</g>
</g>
<!-- Node1&#45;&gt;Node18 -->
<g id="edge19" class="edge">
<title>Node1&#45;&gt;Node18</title>
<path fill="none" stroke="midnightblue" d="M131.93,-269.42C157.55,-259.21 192.58,-245.78 224,-235.5 230.3,-233.44 236.9,-231.4 243.52,-229.44"/>
<polygon fill="midnightblue" stroke="midnightblue" points="244.59,-232.78 253.21,-226.62 242.63,-226.05 244.59,-232.78"/>
</g>
<!-- Node19 -->
<g id="node19" class="node">
<title>Node19</title>
<g id="a_node19"><a xlink:href="classit_1_1unitn_1_1healthcore_1_1domain_1_1Hospital.html#ac8fd4fe7bb42c1db18f0ef42446cf95b" target="_top" xlink:title="Returns the hospital name.">
<polygon fill="white" stroke="black" points="237.5,-147.5 237.5,-177.5 386.5,-177.5 386.5,-147.5 237.5,-147.5"/>
<text text-anchor="start" x="245.5" y="-165.5" font-family="Helvetica,sans-Serif" font-size="10.00">it.unitn.healthcore.domain.</text>
<text text-anchor="middle" x="312" y="-154.5" font-family="Helvetica,sans-Serif" font-size="10.00">Hospital.getName</text>
</a>
</g>
</g>
<!-- Node1&#45;&gt;Node19 -->
<g id="edge20" class="edge">
<title>Node1&#45;&gt;Node19</title>
<path fill="none" stroke="midnightblue" d="M110.74,-269.29C133.79,-247.84 178.88,-208.82 224,-186.5 227.98,-184.53 232.14,-182.71 236.4,-181.01"/>
<polygon fill="midnightblue" stroke="midnightblue" points="237.68,-184.27 245.84,-177.52 235.25,-177.71 237.68,-184.27"/>
</g>
<!-- Node20 -->
<g id="node20" class="node">
<title>Node20</title>
<g id="a_node20"><a xlink:href="classit_1_1unitn_1_1healthcore_1_1domain_1_1User.html#a0c78137c0cf7b414cc88dcc41895d5a7" target="_top" xlink:title="Returns the first name of the user.">
<polygon fill="white" stroke="black" points="237.5,-98.5 237.5,-128.5 386.5,-128.5 386.5,-98.5 237.5,-98.5"/>
<text text-anchor="start" x="245.5" y="-116.5" font-family="Helvetica,sans-Serif" font-size="10.00">it.unitn.healthcore.domain.</text>
<text text-anchor="middle" x="312" y="-105.5" font-family="Helvetica,sans-Serif" font-size="10.00">User.getName</text>
</a>
</g>
</g>
<!-- Node1&#45;&gt;Node20 -->
<g id="edge21" class="edge">
<title>Node1&#45;&gt;Node20</title>
<path fill="none" stroke="midnightblue" d="M103.93,-269.43C122.42,-239.55 167.9,-172.66 224,-137.5 226.64,-135.85 229.39,-134.31 232.22,-132.87"/>
<polygon fill="midnightblue" stroke="midnightblue" points="233.86,-135.97 241.5,-128.63 230.95,-129.6 233.86,-135.97"/>
</g>
<!-- Node21 -->
<g id="node21" class="node">
<title>Node21</title>
<g id="a_node21"><a xlink:href="classit_1_1unitn_1_1healthcore_1_1domain_1_1Appointment.html#a9bd30e2d1b2e4de743b3e83b9cc50eb4" target="_top" xlink:title="Returns the start date and time of the appointment.">
<polygon fill="white" stroke="black" points="237.5,-49.5 237.5,-79.5 386.5,-79.5 386.5,-49.5 237.5,-49.5"/>
<text text-anchor="start" x="245.5" y="-67.5" font-family="Helvetica,sans-Serif" font-size="10.00">it.unitn.healthcore.domain.</text>
<text text-anchor="middle" x="312" y="-56.5" font-family="Helvetica,sans-Serif" font-size="10.00">Appointment.getStartTime</text>
</a>
</g>
</g>
<!-- Node1&#45;&gt;Node21 -->
<g id="edge22" class="edge">
<title>Node1&#45;&gt;Node21</title>
<path fill="none" stroke="midnightblue" d="M100.59,-269.3C114.99,-232.36 156.96,-137.27 224,-88.5 225.9,-87.11 227.89,-85.81 229.93,-84.58"/>
<polygon fill="midnightblue" stroke="midnightblue" points="232.02,-87.43 239.22,-79.65 228.74,-81.24 232.02,-87.43"/>
</g>
<!-- Node22 -->
<g id="node22" class="node">
<title>Node22</title>
<g id="a_node22"><a xlink:href="classit_1_1unitn_1_1healthcore_1_1domain_1_1User.html#a1e52a76c1ad5fb44fe9c312e11203c9e" target="_top" xlink:title="Returns the last name of the user.">
<polygon fill="white" stroke="black" points="237.5,-0.5 237.5,-30.5 386.5,-30.5 386.5,-0.5 237.5,-0.5"/>
<text text-anchor="start" x="245.5" y="-18.5" font-family="Helvetica,sans-Serif" font-size="10.00">it.unitn.healthcore.domain.</text>
<text text-anchor="middle" x="312" y="-7.5" font-family="Helvetica,sans-Serif" font-size="10.00">User.getSurname</text>
</a>
</g>
</g>
<!-- Node1&#45;&gt;Node22 -->
<g id="edge23" class="edge">
<title>Node1&#45;&gt;Node22</title>
<path fill="none" stroke="midnightblue" d="M98.46,-269.44C109.11,-226.52 145.54,-102.64 224,-39.5 225.6,-38.21 227.27,-36.99 228.99,-35.84"/>
<polygon fill="midnightblue" stroke="midnightblue" points="231.11,-38.65 237.99,-30.59 227.58,-32.6 231.11,-38.65"/>
</g>
<!-- Node3 -->
<g id="node3" class="node">
<title>Node3</title>
<g id="a_node3"><a xlink:href="classit_1_1unitn_1_1healthcore_1_1domain_1_1Doctor.html#a548d264288dc218b5a2aa48a85bf3a04" target="_top" xlink:title=" ">
<polygon fill="white" stroke="black" points="455.5,-602.5 455.5,-632.5 604.5,-632.5 604.5,-602.5 455.5,-602.5"/>
<text text-anchor="start" x="463.5" y="-620.5" font-family="Helvetica,sans-Serif" font-size="10.00">it.unitn.healthcore.domain.</text>
<text text-anchor="middle" x="530" y="-609.5" font-family="Helvetica,sans-Serif" font-size="10.00">Doctor.getAppointments</text>
</a>
</g>
</g>
<!-- Node2&#45;&gt;Node3 -->
<g id="edge2" class="edge">
<title>Node2&#45;&gt;Node3</title>
<path fill="none" stroke="midnightblue" d="M327.82,-510.84C349.56,-532.47 392.26,-571.69 436,-593.5 439.97,-595.48 444.12,-597.31 448.36,-598.99"/>
<polygon fill="midnightblue" stroke="midnightblue" points="447.19,-602.29 457.79,-602.46 449.61,-595.72 447.19,-602.29"/>
</g>
<!-- Node4 -->
<g id="node4" class="node">
<title>Node4</title>
<g id="a_node4"><a xlink:href="classit_1_1unitn_1_1healthcore_1_1domain_1_1Department.html#ae32c96f1e79ae08ee368ae8bb82f9337" target="_top" xlink:title="Returns the available bed number within the department.">
<polygon fill="white" stroke="black" points="455.5,-553.5 455.5,-583.5 604.5,-583.5 604.5,-553.5 455.5,-553.5"/>
<text text-anchor="start" x="463.5" y="-571.5" font-family="Helvetica,sans-Serif" font-size="10.00">it.unitn.healthcore.domain.</text>
<text text-anchor="middle" x="530" y="-560.5" font-family="Helvetica,sans-Serif" font-size="10.00">Department.getBeds</text>
</a>
</g>
</g>
<!-- Node2&#45;&gt;Node4 -->
<g id="edge3" class="edge">
<title>Node2&#45;&gt;Node4</title>
<path fill="none" stroke="midnightblue" d="M347.3,-510.52C371.73,-520.88 405.52,-534.54 436,-544.5 442.5,-546.62 449.3,-548.68 456.14,-550.64"/>
<polygon fill="midnightblue" stroke="midnightblue" points="455.58,-554.12 466.15,-553.44 457.46,-547.38 455.58,-554.12"/>
</g>
<!-- Node5 -->
<g id="node5" class="node">
<title>Node5</title>
<g id="a_node5"><a xlink:href="classit_1_1unitn_1_1healthcore_1_1business_1_1UserService.html#a33213d05bfda4e7384e17b18332d4bb5" target="_top" xlink:title=" ">
<polygon fill="white" stroke="black" points="452.5,-504.5 452.5,-534.5 607.5,-534.5 607.5,-504.5 452.5,-504.5"/>
<text text-anchor="start" x="460.5" y="-522.5" font-family="Helvetica,sans-Serif" font-size="10.00">it.unitn.healthcore.business.</text>
<text text-anchor="middle" x="530" y="-511.5" font-family="Helvetica,sans-Serif" font-size="10.00">UserService.getCurrentUser</text>
</a>
</g>
</g>
<!-- Node2&#45;&gt;Node5 -->
<g id="edge4" class="edge">
<title>Node2&#45;&gt;Node5</title>
<path fill="none" stroke="midnightblue" d="M400.23,-505.19C414.08,-506.73 428.41,-508.32 442.25,-509.86"/>
<polygon fill="midnightblue" stroke="midnightblue" points="441.9,-513.34 452.22,-510.97 442.67,-506.39 441.9,-513.34"/>
</g>
<!-- Node2&#45;&gt;Node8 -->
<g id="edge7" class="edge">
<title>Node2&#45;&gt;Node8</title>
<path fill="none" stroke="midnightblue" d="M325.49,-510.68C356.06,-547.78 432.4,-640.23 436,-642.5 439.15,-644.49 442.45,-646.31 445.86,-647.98"/>
<polygon fill="midnightblue" stroke="midnightblue" points="444.54,-651.22 455.1,-652.07 447.37,-644.82 444.54,-651.22"/>
</g>
<!-- Node2&#45;&gt;Node9 -->
<g id="edge8" class="edge">
<title>Node2&#45;&gt;Node9</title>
<path fill="none" stroke="midnightblue" d="M379.25,-480.31C386.94,-476.44 394.11,-471.59 400,-465.5 437.82,-426.39 396.85,-386.27 436,-348.5 439.11,-345.5 442.55,-342.84 446.21,-340.5"/>
<polygon fill="midnightblue" stroke="midnightblue" points="448.04,-343.49 455.1,-335.59 444.66,-337.36 448.04,-343.49"/>
</g>
<!-- Node10 -->
<g id="node10" class="node">
<title>Node10</title>
<g id="a_node10"><a xlink:href="classit_1_1unitn_1_1healthcore_1_1domain_1_1Patient.html#a48266d60ec0c7b2baebd9aef60e6cbfe" target="_top" xlink:title="Insurance plan getter.">
<polygon fill="white" stroke="black" points="455.5,-455.5 455.5,-485.5 604.5,-485.5 604.5,-455.5 455.5,-455.5"/>
<text text-anchor="start" x="463.5" y="-473.5" font-family="Helvetica,sans-Serif" font-size="10.00">it.unitn.healthcore.domain.</text>
<text text-anchor="middle" x="530" y="-462.5" font-family="Helvetica,sans-Serif" font-size="10.00">Patient.getInsurancePlan</text>
</a>
</g>
</g>
<!-- Node2&#45;&gt;Node10 -->
<g id="edge9" class="edge">
<title>Node2&#45;&gt;Node10</title>
<path fill="none" stroke="midnightblue" d="M400.23,-485.4C415.07,-483.69 430.46,-481.91 445.21,-480.2"/>
<polygon fill="midnightblue" stroke="midnightblue" points="445.77,-483.66 455.3,-479.03 444.97,-476.7 445.77,-483.66"/>
</g>
<!-- Node11 -->
<g id="node11" class="node">
<title>Node11</title>
<g id="a_node11"><a xlink:href="classit_1_1unitn_1_1healthcore_1_1domain_1_1Doctor.html#a1f74266b5c9953f4c861a1b2e66405a8" target="_top" xlink:title="Shift getter.">
<polygon fill="white" stroke="black" points="455.5,-406.5 455.5,-436.5 604.5,-436.5 604.5,-406.5 455.5,-406.5"/>
<text text-anchor="start" x="463.5" y="-424.5" font-family="Helvetica,sans-Serif" font-size="10.00">it.unitn.healthcore.domain.</text>
<text text-anchor="middle" x="530" y="-413.5" font-family="Helvetica,sans-Serif" font-size="10.00">Doctor.getShifts</text>
</a>
</g>
</g>
<!-- Node2&#45;&gt;Node11 -->
<g id="edge10" class="edge">
<title>Node2&#45;&gt;Node11</title>
<path fill="none" stroke="midnightblue" d="M360.92,-480.45C373.76,-476.02 387.54,-470.9 400,-465.5 416.6,-458.31 419.16,-453.11 436,-446.5 442.27,-444.04 448.88,-441.73 455.55,-439.59"/>
<polygon fill="midnightblue" stroke="midnightblue" points="456.82,-442.86 465.35,-436.58 454.76,-436.17 456.82,-442.86"/>
</g>
<!-- Node12 -->
<g id="node12" class="node">
<title>Node12</title>
<g id="a_node12"><a xlink:href="classit_1_1unitn_1_1healthcore_1_1domain_1_1InsurancePlan.html#a56214cc6c390772d6aa0431b140c01b2" target="_top" xlink:title="Checks if this insurance plan covers a specific hospital.">
<polygon fill="white" stroke="black" points="436,-357.5 436,-387.5 624,-387.5 624,-357.5 436,-357.5"/>
<text text-anchor="start" x="444" y="-375.5" font-family="Helvetica,sans-Serif" font-size="10.00">it.unitn.healthcore.domain.</text>
<text text-anchor="middle" x="530" y="-364.5" font-family="Helvetica,sans-Serif" font-size="10.00">InsurancePlan.isCoveredAtHospital</text>
</a>
</g>
</g>
<!-- Node2&#45;&gt;Node12 -->
<g id="edge11" class="edge">
<title>Node2&#45;&gt;Node12</title>
<path fill="none" stroke="midnightblue" d="M375.54,-480.44C384.36,-476.53 392.84,-471.63 400,-465.5 425.98,-443.26 409.27,-418.82 436,-397.5 438.27,-395.69 440.65,-394.01 443.13,-392.46"/>
<polygon fill="midnightblue" stroke="midnightblue" points="444.83,-395.52 451.88,-387.62 441.44,-389.39 444.83,-395.52"/>
</g>
<!-- Node6 -->
<g id="node6" class="node">
<title>Node6</title>
<g id="a_node6"><a xlink:href="interfaceit_1_1unitn_1_1healthcore_1_1persistence_1_1UserRepository.html#a6a646ae44d01189ff44c81c03fc92fa8" target="_top" xlink:title=" ">
<polygon fill="white" stroke="black" points="663,-528.5 663,-558.5 837,-558.5 837,-528.5 663,-528.5"/>
<text text-anchor="start" x="671" y="-546.5" font-family="Helvetica,sans-Serif" font-size="10.00">it.unitn.healthcore.persistence.</text>
<text text-anchor="middle" x="750" y="-535.5" font-family="Helvetica,sans-Serif" font-size="10.00">UserRepository.findUserByEmail</text>
</a>
</g>
</g>
<!-- Node5&#45;&gt;Node6 -->
<g id="edge5" class="edge">
<title>Node5&#45;&gt;Node6</title>
<path fill="none" stroke="midnightblue" d="M607.55,-527.93C622.11,-529.53 637.51,-531.23 652.59,-532.89"/>
<polygon fill="midnightblue" stroke="midnightblue" points="652.63,-536.41 662.96,-534.03 653.4,-529.45 652.63,-536.41"/>
</g>
<!-- Node7 -->
<g id="node7" class="node">
<title>Node7</title>
<g id="a_node7"><a xlink:href="classit_1_1unitn_1_1healthcore_1_1business_1_1UserService.html#a703ed9778e3ac6cd9741220089b5f48d" target="_top" xlink:title=" ">
<polygon fill="white" stroke="black" points="660,-479.5 660,-509.5 840,-509.5 840,-479.5 660,-479.5"/>
<text text-anchor="start" x="668" y="-497.5" font-family="Helvetica,sans-Serif" font-size="10.00">it.unitn.healthcore.business.</text>
<text text-anchor="middle" x="750" y="-486.5" font-family="Helvetica,sans-Serif" font-size="10.00">UserService.getCurrentUserEmail</text>
</a>
</g>
</g>
<!-- Node5&#45;&gt;Node7 -->
<g id="edge6" class="edge">
<title>Node5&#45;&gt;Node7</title>
<path fill="none" stroke="midnightblue" d="M607.55,-510.72C621.18,-509.16 635.54,-507.51 649.69,-505.89"/>
<polygon fill="midnightblue" stroke="midnightblue" points="650.41,-509.33 659.94,-504.71 649.61,-502.38 650.41,-509.33"/>
</g>
<!-- Node13 -->
<g id="node13" class="node">
<title>Node13</title>
<g id="a_node13"><a xlink:href="classit_1_1unitn_1_1healthcore_1_1domain_1_1Hospital.html#af0b058d14b4d9d957f581a0429fe5971" target="_top" xlink:title="Returns the hospital ID.">
<polygon fill="white" stroke="black" points="675.5,-357.5 675.5,-387.5 824.5,-387.5 824.5,-357.5 675.5,-357.5"/>
<text text-anchor="start" x="683.5" y="-375.5" font-family="Helvetica,sans-Serif" font-size="10.00">it.unitn.healthcore.domain.</text>
<text text-anchor="middle" x="750" y="-364.5" font-family="Helvetica,sans-Serif" font-size="10.00">Hospital.getHospitalId</text>
</a>
</g>
</g>
<!-- Node12&#45;&gt;Node13 -->
<g id="edge12" class="edge">
<title>Node12&#45;&gt;Node13</title>
<path fill="none" stroke="midnightblue" d="M624.08,-372.5C637.73,-372.5 651.72,-372.5 665.17,-372.5"/>
<polygon fill="midnightblue" stroke="midnightblue" points="665.33,-376 675.33,-372.5 665.33,-369 665.33,-376"/>
</g>
</g>
</svg>
