<?xml version="1.0" encoding="UTF-8" standalone="no"?>
<!DOCTYPE svg PUBLIC "-//W3C//DTD SVG 1.1//EN"
 "http://www.w3.org/Graphics/SVG/1.1/DTD/svg11.dtd">
<!-- Generated by graphviz version 2.43.0 (0)
 -->
<!-- Title: it.unitn.healthcore.business.PatientService.getCurrentInsurancePlan Pages: 1 -->
<svg width="624pt" height="112pt"
 viewBox="0.00 0.00 624.00 112.00" xmlns="http://www.w3.org/2000/svg" xmlns:xlink="http://www.w3.org/1999/xlink">
<g id="graph0" class="graph" transform="scale(1 1) rotate(0) translate(4 108)">
<title>it.unitn.healthcore.business.PatientService.getCurrentInsurancePlan</title>
<polygon fill="white" stroke="transparent" points="-4,4 -4,-108 620,-108 620,4 -4,4"/>
<!-- Node1 -->
<g id="node1" class="node">
<title>Node1</title>
<g id="a_node1"><a xlink:title=" ">
<polygon fill="#bfbfbf" stroke="black" points="0,-24.5 0,-54.5 209,-54.5 209,-24.5 0,-24.5"/>
<text text-anchor="start" x="8" y="-42.5" font-family="Helvetica,sans-Serif" font-size="10.00">it.unitn.healthcore.business.</text>
<text text-anchor="middle" x="104.5" y="-31.5" font-family="Helvetica,sans-Serif" font-size="10.00">PatientService.getCurrentInsurancePlan</text>
</a>
</g>
</g>
<!-- Node2 -->
<g id="node2" class="node">
<title>Node2</title>
<g id="a_node2"><a xlink:href="classit_1_1unitn_1_1healthcore_1_1business_1_1UserService.html#a33213d05bfda4e7384e17b18332d4bb5" target="_top" xlink:title=" ">
<polygon fill="white" stroke="black" points="245,-49.5 245,-79.5 400,-79.5 400,-49.5 245,-49.5"/>
<text text-anchor="start" x="253" y="-67.5" font-family="Helvetica,sans-Serif" font-size="10.00">it.unitn.healthcore.business.</text>
<text text-anchor="middle" x="322.5" y="-56.5" font-family="Helvetica,sans-Serif" font-size="10.00">UserService.getCurrentUser</text>
</a>
</g>
</g>
<!-- Node1&#45;&gt;Node2 -->
<g id="edge1" class="edge">
<title>Node1&#45;&gt;Node2</title>
<path fill="none" stroke="midnightblue" d="M209.07,-51.49C217.62,-52.48 226.2,-53.47 234.6,-54.44"/>
<polygon fill="midnightblue" stroke="midnightblue" points="234.41,-57.94 244.75,-55.62 235.22,-50.99 234.41,-57.94"/>
</g>
<!-- Node5 -->
<g id="node5" class="node">
<title>Node5</title>
<g id="a_node5"><a xlink:href="classit_1_1unitn_1_1healthcore_1_1domain_1_1Patient.html#a48266d60ec0c7b2baebd9aef60e6cbfe" target="_top" xlink:title="Insurance plan getter.">
<polygon fill="white" stroke="black" points="248,-0.5 248,-30.5 397,-30.5 397,-0.5 248,-0.5"/>
<text text-anchor="start" x="256" y="-18.5" font-family="Helvetica,sans-Serif" font-size="10.00">it.unitn.healthcore.domain.</text>
<text text-anchor="middle" x="322.5" y="-7.5" font-family="Helvetica,sans-Serif" font-size="10.00">Patient.getInsurancePlan</text>
</a>
</g>
</g>
<!-- Node1&#45;&gt;Node5 -->
<g id="edge4" class="edge">
<title>Node1&#45;&gt;Node5</title>
<path fill="none" stroke="midnightblue" d="M209.07,-27.99C218.69,-26.92 228.36,-25.85 237.77,-24.8"/>
<polygon fill="midnightblue" stroke="midnightblue" points="238.31,-28.26 247.86,-23.68 237.54,-21.31 238.31,-28.26"/>
</g>
<!-- Node3 -->
<g id="node3" class="node">
<title>Node3</title>
<g id="a_node3"><a xlink:href="interfaceit_1_1unitn_1_1healthcore_1_1persistence_1_1UserRepository.html#a6a646ae44d01189ff44c81c03fc92fa8" target="_top" xlink:title=" ">
<polygon fill="white" stroke="black" points="439,-73.5 439,-103.5 613,-103.5 613,-73.5 439,-73.5"/>
<text text-anchor="start" x="447" y="-91.5" font-family="Helvetica,sans-Serif" font-size="10.00">it.unitn.healthcore.persistence.</text>
<text text-anchor="middle" x="526" y="-80.5" font-family="Helvetica,sans-Serif" font-size="10.00">UserRepository.findUserByEmail</text>
</a>
</g>
</g>
<!-- Node2&#45;&gt;Node3 -->
<g id="edge2" class="edge">
<title>Node2&#45;&gt;Node3</title>
<path fill="none" stroke="midnightblue" d="M400.25,-73.64C409.58,-74.75 419.2,-75.9 428.76,-77.04"/>
<polygon fill="midnightblue" stroke="midnightblue" points="428.35,-80.51 438.7,-78.22 429.18,-73.56 428.35,-80.51"/>
</g>
<!-- Node4 -->
<g id="node4" class="node">
<title>Node4</title>
<g id="a_node4"><a xlink:href="classit_1_1unitn_1_1healthcore_1_1business_1_1UserService.html#a703ed9778e3ac6cd9741220089b5f48d" target="_top" xlink:title=" ">
<polygon fill="white" stroke="black" points="436,-24.5 436,-54.5 616,-54.5 616,-24.5 436,-24.5"/>
<text text-anchor="start" x="444" y="-42.5" font-family="Helvetica,sans-Serif" font-size="10.00">it.unitn.healthcore.business.</text>
<text text-anchor="middle" x="526" y="-31.5" font-family="Helvetica,sans-Serif" font-size="10.00">UserService.getCurrentUserEmail</text>
</a>
</g>
</g>
<!-- Node2&#45;&gt;Node4 -->
<g id="edge3" class="edge">
<title>Node2&#45;&gt;Node4</title>
<path fill="none" stroke="midnightblue" d="M400.25,-54.98C408.65,-53.94 417.28,-52.87 425.89,-51.8"/>
<polygon fill="midnightblue" stroke="midnightblue" points="426.49,-55.25 435.98,-50.54 425.62,-48.3 426.49,-55.25"/>
</g>
</g>
</svg>
