<?xml version="1.0" encoding="UTF-8" standalone="no"?>
<!DOCTYPE svg PUBLIC "-//W3C//DTD SVG 1.1//EN"
 "http://www.w3.org/Graphics/SVG/1.1/DTD/svg11.dtd">
<!-- Generated by graphviz version 2.43.0 (0)
 -->
<!-- Title: it.unitn.healthcore.controller.UserController.updateUser Pages: 1 -->
<svg width="567pt" height="333pt"
 viewBox="0.00 0.00 567.00 333.00" xmlns="http://www.w3.org/2000/svg" xmlns:xlink="http://www.w3.org/1999/xlink">
<g id="graph0" class="graph" transform="scale(1 1) rotate(0) translate(4 329)">
<title>it.unitn.healthcore.controller.UserController.updateUser</title>
<polygon fill="white" stroke="transparent" points="-4,4 -4,-329 563,-329 563,4 -4,4"/>
<!-- Node1 -->
<g id="node1" class="node">
<title>Node1</title>
<g id="a_node1"><a xlink:title=" ">
<polygon fill="#bfbfbf" stroke="black" points="0,-147.5 0,-177.5 158,-177.5 158,-147.5 0,-147.5"/>
<text text-anchor="start" x="8" y="-165.5" font-family="Helvetica,sans-Serif" font-size="10.00">it.unitn.healthcore.controller.</text>
<text text-anchor="middle" x="79" y="-154.5" font-family="Helvetica,sans-Serif" font-size="10.00">UserController.updateUser</text>
</a>
</g>
</g>
<!-- Node2 -->
<g id="node2" class="node">
<title>Node2</title>
<g id="a_node2"><a xlink:href="classit_1_1unitn_1_1healthcore_1_1business_1_1UserService.html#acc8ce128197ab98ad15545286cabeba8" target="_top" xlink:title=" ">
<polygon fill="white" stroke="black" points="194,-147.5 194,-177.5 349,-177.5 349,-147.5 194,-147.5"/>
<text text-anchor="start" x="202" y="-165.5" font-family="Helvetica,sans-Serif" font-size="10.00">it.unitn.healthcore.business.</text>
<text text-anchor="middle" x="271.5" y="-154.5" font-family="Helvetica,sans-Serif" font-size="10.00">UserService.updateUser</text>
</a>
</g>
</g>
<!-- Node1&#45;&gt;Node2 -->
<g id="edge1" class="edge">
<title>Node1&#45;&gt;Node2</title>
<path fill="none" stroke="midnightblue" d="M158.03,-162.5C166.53,-162.5 175.21,-162.5 183.8,-162.5"/>
<polygon fill="midnightblue" stroke="midnightblue" points="183.82,-166 193.82,-162.5 183.82,-159 183.82,-166"/>
</g>
<!-- Node3 -->
<g id="node3" class="node">
<title>Node3</title>
<g id="a_node3"><a xlink:href="interfaceit_1_1unitn_1_1healthcore_1_1persistence_1_1UserRepository.html#a6a646ae44d01189ff44c81c03fc92fa8" target="_top" xlink:title=" ">
<polygon fill="white" stroke="black" points="385,-294.5 385,-324.5 559,-324.5 559,-294.5 385,-294.5"/>
<text text-anchor="start" x="393" y="-312.5" font-family="Helvetica,sans-Serif" font-size="10.00">it.unitn.healthcore.persistence.</text>
<text text-anchor="middle" x="472" y="-301.5" font-family="Helvetica,sans-Serif" font-size="10.00">UserRepository.findUserByEmail</text>
</a>
</g>
</g>
<!-- Node2&#45;&gt;Node3 -->
<g id="edge2" class="edge">
<title>Node2&#45;&gt;Node3</title>
<path fill="none" stroke="midnightblue" d="M282.28,-177.9C299.7,-204.03 338.65,-257.01 385,-285.5 387.77,-287.2 390.67,-288.79 393.65,-290.27"/>
<polygon fill="midnightblue" stroke="midnightblue" points="392.26,-293.48 402.81,-294.37 395.12,-287.09 392.26,-293.48"/>
</g>
<!-- Node4 -->
<g id="node4" class="node">
<title>Node4</title>
<g id="a_node4"><a xlink:href="classit_1_1unitn_1_1healthcore_1_1domain_1_1User.html#a5b48be6dca19b7d4d43ec2e6a3b91502" target="_top" xlink:title=" ">
<polygon fill="white" stroke="black" points="397.5,-245.5 397.5,-275.5 546.5,-275.5 546.5,-245.5 397.5,-245.5"/>
<text text-anchor="start" x="405.5" y="-263.5" font-family="Helvetica,sans-Serif" font-size="10.00">it.unitn.healthcore.domain.</text>
<text text-anchor="middle" x="472" y="-252.5" font-family="Helvetica,sans-Serif" font-size="10.00">User.getEmail</text>
</a>
</g>
</g>
<!-- Node2&#45;&gt;Node4 -->
<g id="edge3" class="edge">
<title>Node2&#45;&gt;Node4</title>
<path fill="none" stroke="midnightblue" d="M291.34,-177.55C312.86,-194.09 349.68,-220.43 385,-236.5 389.36,-238.48 393.91,-240.34 398.56,-242.06"/>
<polygon fill="midnightblue" stroke="midnightblue" points="397.59,-245.43 408.18,-245.43 399.9,-238.82 397.59,-245.43"/>
</g>
<!-- Node5 -->
<g id="node5" class="node">
<title>Node5</title>
<g id="a_node5"><a xlink:href="classit_1_1unitn_1_1healthcore_1_1domain_1_1User.html#a0c78137c0cf7b414cc88dcc41895d5a7" target="_top" xlink:title=" ">
<polygon fill="white" stroke="black" points="397.5,-196.5 397.5,-226.5 546.5,-226.5 546.5,-196.5 397.5,-196.5"/>
<text text-anchor="start" x="405.5" y="-214.5" font-family="Helvetica,sans-Serif" font-size="10.00">it.unitn.healthcore.domain.</text>
<text text-anchor="middle" x="472" y="-203.5" font-family="Helvetica,sans-Serif" font-size="10.00">User.getName</text>
</a>
</g>
</g>
<!-- Node2&#45;&gt;Node5 -->
<g id="edge4" class="edge">
<title>Node2&#45;&gt;Node5</title>
<path fill="none" stroke="midnightblue" d="M333.41,-177.53C354.55,-182.76 378.45,-188.65 400.32,-194.05"/>
<polygon fill="midnightblue" stroke="midnightblue" points="399.66,-197.5 410.21,-196.49 401.34,-190.7 399.66,-197.5"/>
</g>
<!-- Node6 -->
<g id="node6" class="node">
<title>Node6</title>
<g id="a_node6"><a xlink:href="classit_1_1unitn_1_1healthcore_1_1domain_1_1User.html#a1e52a76c1ad5fb44fe9c312e11203c9e" target="_top" xlink:title=" ">
<polygon fill="white" stroke="black" points="397.5,-147.5 397.5,-177.5 546.5,-177.5 546.5,-147.5 397.5,-147.5"/>
<text text-anchor="start" x="405.5" y="-165.5" font-family="Helvetica,sans-Serif" font-size="10.00">it.unitn.healthcore.domain.</text>
<text text-anchor="middle" x="472" y="-154.5" font-family="Helvetica,sans-Serif" font-size="10.00">User.getSurname</text>
</a>
</g>
</g>
<!-- Node2&#45;&gt;Node6 -->
<g id="edge5" class="edge">
<title>Node2&#45;&gt;Node6</title>
<path fill="none" stroke="midnightblue" d="M349.25,-162.5C361.73,-162.5 374.71,-162.5 387.35,-162.5"/>
<polygon fill="midnightblue" stroke="midnightblue" points="387.39,-166 397.39,-162.5 387.39,-159 387.39,-166"/>
</g>
<!-- Node7 -->
<g id="node7" class="node">
<title>Node7</title>
<g id="a_node7"><a xlink:href="classit_1_1unitn_1_1healthcore_1_1domain_1_1User.html#a637da3e206f619ffbd1b1589367b2114" target="_top" xlink:title=" ">
<polygon fill="white" stroke="black" points="397.5,-98.5 397.5,-128.5 546.5,-128.5 546.5,-98.5 397.5,-98.5"/>
<text text-anchor="start" x="405.5" y="-116.5" font-family="Helvetica,sans-Serif" font-size="10.00">it.unitn.healthcore.domain.</text>
<text text-anchor="middle" x="472" y="-105.5" font-family="Helvetica,sans-Serif" font-size="10.00">User.setEmail</text>
</a>
</g>
</g>
<!-- Node2&#45;&gt;Node7 -->
<g id="edge6" class="edge">
<title>Node2&#45;&gt;Node7</title>
<path fill="none" stroke="midnightblue" d="M333.41,-147.47C354.55,-142.24 378.45,-136.35 400.32,-130.95"/>
<polygon fill="midnightblue" stroke="midnightblue" points="401.34,-134.3 410.21,-128.51 399.66,-127.5 401.34,-134.3"/>
</g>
<!-- Node8 -->
<g id="node8" class="node">
<title>Node8</title>
<g id="a_node8"><a xlink:href="classit_1_1unitn_1_1healthcore_1_1domain_1_1User.html#a91c87abb5e6a05b9a218ee0a9537d0fb" target="_top" xlink:title=" ">
<polygon fill="white" stroke="black" points="397.5,-49.5 397.5,-79.5 546.5,-79.5 546.5,-49.5 397.5,-49.5"/>
<text text-anchor="start" x="405.5" y="-67.5" font-family="Helvetica,sans-Serif" font-size="10.00">it.unitn.healthcore.domain.</text>
<text text-anchor="middle" x="472" y="-56.5" font-family="Helvetica,sans-Serif" font-size="10.00">User.setName</text>
</a>
</g>
</g>
<!-- Node2&#45;&gt;Node8 -->
<g id="edge7" class="edge">
<title>Node2&#45;&gt;Node8</title>
<path fill="none" stroke="midnightblue" d="M291.8,-147.45C313.43,-131.19 350.07,-105.49 385,-89.5 390.04,-87.19 395.34,-85.05 400.73,-83.06"/>
<polygon fill="midnightblue" stroke="midnightblue" points="402.21,-86.25 410.5,-79.65 399.91,-79.64 402.21,-86.25"/>
</g>
<!-- Node9 -->
<g id="node9" class="node">
<title>Node9</title>
<g id="a_node9"><a xlink:href="classit_1_1unitn_1_1healthcore_1_1domain_1_1User.html#aafba5fb3c10ba03d2e9121427365ec92" target="_top" xlink:title=" ">
<polygon fill="white" stroke="black" points="397.5,-0.5 397.5,-30.5 546.5,-30.5 546.5,-0.5 397.5,-0.5"/>
<text text-anchor="start" x="405.5" y="-18.5" font-family="Helvetica,sans-Serif" font-size="10.00">it.unitn.healthcore.domain.</text>
<text text-anchor="middle" x="472" y="-7.5" font-family="Helvetica,sans-Serif" font-size="10.00">User.setSurname</text>
</a>
</g>
</g>
<!-- Node2&#45;&gt;Node9 -->
<g id="edge8" class="edge">
<title>Node2&#45;&gt;Node9</title>
<path fill="none" stroke="midnightblue" d="M282.35,-147.28C299.86,-121.44 338.95,-69.01 385,-40.5 388.4,-38.4 391.98,-36.46 395.68,-34.69"/>
<polygon fill="midnightblue" stroke="midnightblue" points="397.29,-37.8 405.06,-30.59 394.49,-31.39 397.29,-37.8"/>
</g>
</g>
</svg>
