<?xml version="1.0" encoding="UTF-8" standalone="no"?>
<!DOCTYPE svg PUBLIC "-//W3C//DTD SVG 1.1//EN"
 "http://www.w3.org/Graphics/SVG/1.1/DTD/svg11.dtd">
<!-- Generated by graphviz version 2.43.0 (0)
 -->
<!-- Title: it.unitn.healthcore.domain.EmployeeRegistrationForm.getSurname Pages: 1 -->
<svg width="832pt" height="88pt"
 viewBox="0.00 0.00 832.00 88.00" xmlns="http://www.w3.org/2000/svg" xmlns:xlink="http://www.w3.org/1999/xlink">
<g id="graph0" class="graph" transform="scale(1 1) rotate(0) translate(4 84)">
<title>it.unitn.healthcore.domain.EmployeeRegistrationForm.getSurname</title>
<polygon fill="white" stroke="transparent" points="-4,4 -4,-84 828,-84 828,4 -4,4"/>
<!-- Node1 -->
<g id="node1" class="node">
<title>Node1</title>
<g id="a_node1"><a xlink:title=" ">
<polygon fill="#bfbfbf" stroke="black" points="612,-24.5 612,-54.5 824,-54.5 824,-24.5 612,-24.5"/>
<text text-anchor="start" x="620" y="-42.5" font-family="Helvetica,sans-Serif" font-size="10.00">it.unitn.healthcore.domain.</text>
<text text-anchor="middle" x="718" y="-31.5" font-family="Helvetica,sans-Serif" font-size="10.00">EmployeeRegistrationForm.getSurname</text>
</a>
</g>
</g>
<!-- Node2 -->
<g id="node2" class="node">
<title>Node2</title>
<g id="a_node2"><a xlink:href="classit_1_1unitn_1_1healthcore_1_1business_1_1UserService.html#aebfef6bf9480fb24956dba8b10232d2f" target="_top" xlink:title=" ">
<polygon fill="white" stroke="black" points="394,-49.5 394,-79.5 576,-79.5 576,-49.5 394,-49.5"/>
<text text-anchor="start" x="402" y="-67.5" font-family="Helvetica,sans-Serif" font-size="10.00">it.unitn.healthcore.business.</text>
<text text-anchor="middle" x="485" y="-56.5" font-family="Helvetica,sans-Serif" font-size="10.00">UserService.registerAdministrator</text>
</a>
</g>
</g>
<!-- Node1&#45;&gt;Node2 -->
<g id="edge1" class="edge">
<title>Node1&#45;&gt;Node2</title>
<path fill="none" stroke="midnightblue" d="M601.9,-51.96C593.3,-52.89 584.7,-53.82 576.28,-54.73"/>
<polygon fill="midnightblue" stroke="midnightblue" points="602.41,-55.42 611.98,-50.87 601.66,-48.46 602.41,-55.42"/>
</g>
<!-- Node5 -->
<g id="node5" class="node">
<title>Node5</title>
<g id="a_node5"><a xlink:href="classit_1_1unitn_1_1healthcore_1_1business_1_1UserService.html#af71b0f13c31c938efe9fce54ab3d7f7d" target="_top" xlink:title=" ">
<polygon fill="white" stroke="black" points="407.5,-0.5 407.5,-30.5 562.5,-30.5 562.5,-0.5 407.5,-0.5"/>
<text text-anchor="start" x="415.5" y="-18.5" font-family="Helvetica,sans-Serif" font-size="10.00">it.unitn.healthcore.business.</text>
<text text-anchor="middle" x="485" y="-7.5" font-family="Helvetica,sans-Serif" font-size="10.00">UserService.registerDoctor</text>
</a>
</g>
</g>
<!-- Node1&#45;&gt;Node5 -->
<g id="edge4" class="edge">
<title>Node1&#45;&gt;Node5</title>
<path fill="none" stroke="midnightblue" d="M601.86,-27.54C588.61,-26.16 575.35,-24.78 562.79,-23.48"/>
<polygon fill="midnightblue" stroke="midnightblue" points="601.67,-31.04 611.98,-28.59 602.39,-24.07 601.67,-31.04"/>
</g>
<!-- Node3 -->
<g id="node3" class="node">
<title>Node3</title>
<g id="a_node3"><a xlink:href="classit_1_1unitn_1_1healthcore_1_1business_1_1UserService.html#a8bb76a3af453837d334e1f5a9551ff56" target="_top" xlink:title=" ">
<polygon fill="white" stroke="black" points="194,-24.5 194,-54.5 358,-54.5 358,-24.5 194,-24.5"/>
<text text-anchor="start" x="202" y="-42.5" font-family="Helvetica,sans-Serif" font-size="10.00">it.unitn.healthcore.business.</text>
<text text-anchor="middle" x="276" y="-31.5" font-family="Helvetica,sans-Serif" font-size="10.00">UserService.registerEmployee</text>
</a>
</g>
</g>
<!-- Node2&#45;&gt;Node3 -->
<g id="edge2" class="edge">
<title>Node2&#45;&gt;Node3</title>
<path fill="none" stroke="midnightblue" d="M383.75,-52.39C375.15,-51.35 366.53,-50.31 358.11,-49.3"/>
<polygon fill="midnightblue" stroke="midnightblue" points="383.46,-55.88 393.81,-53.61 384.3,-48.93 383.46,-55.88"/>
</g>
<!-- Node4 -->
<g id="node4" class="node">
<title>Node4</title>
<g id="a_node4"><a xlink:href="classit_1_1unitn_1_1healthcore_1_1controller_1_1UserController.html#ac9a8c37503c4a708c85863870ee27da7" target="_top" xlink:title=" ">
<polygon fill="white" stroke="black" points="0,-24.5 0,-54.5 158,-54.5 158,-24.5 0,-24.5"/>
<text text-anchor="start" x="8" y="-42.5" font-family="Helvetica,sans-Serif" font-size="10.00">it.unitn.healthcore.controller.</text>
<text text-anchor="middle" x="79" y="-31.5" font-family="Helvetica,sans-Serif" font-size="10.00">UserController.addEmployee</text>
</a>
</g>
</g>
<!-- Node3&#45;&gt;Node4 -->
<g id="edge3" class="edge">
<title>Node3&#45;&gt;Node4</title>
<path fill="none" stroke="midnightblue" d="M183.96,-39.5C175.36,-39.5 166.7,-39.5 158.25,-39.5"/>
<polygon fill="midnightblue" stroke="midnightblue" points="184,-43 194,-39.5 184,-36 184,-43"/>
</g>
<!-- Node5&#45;&gt;Node3 -->
<g id="edge5" class="edge">
<title>Node5&#45;&gt;Node3</title>
<path fill="none" stroke="midnightblue" d="M396.99,-25.59C384.12,-27.08 370.91,-28.61 358.17,-30.09"/>
<polygon fill="midnightblue" stroke="midnightblue" points="397.68,-29.03 407.22,-24.4 396.88,-22.08 397.68,-29.03"/>
</g>
</g>
</svg>
