<?xml version="1.0" encoding="UTF-8" standalone="no"?>
<!DOCTYPE svg PUBLIC "-//W3C//DTD SVG 1.1//EN"
 "http://www.w3.org/Graphics/SVG/1.1/DTD/svg11.dtd">
<!-- Generated by graphviz version 2.43.0 (0)
 -->
<!-- Title: it.unitn.healthcore.business.UserService.registerPatient Pages: 1 -->
<svg width="656pt" height="358pt"
 viewBox="0.00 0.00 656.00 358.00" xmlns="http://www.w3.org/2000/svg" xmlns:xlink="http://www.w3.org/1999/xlink">
<g id="graph0" class="graph" transform="scale(1 1) rotate(0) translate(4 354)">
<title>it.unitn.healthcore.business.UserService.registerPatient</title>
<polygon fill="white" stroke="transparent" points="-4,4 -4,-354 652,-354 652,4 -4,4"/>
<!-- Node1 -->
<g id="node1" class="node">
<title>Node1</title>
<g id="a_node1"><a xlink:title="Registers a new patient in the system.">
<polygon fill="#bfbfbf" stroke="black" points="0,-149 0,-179 155,-179 155,-149 0,-149"/>
<text text-anchor="start" x="8" y="-167" font-family="Helvetica,sans-Serif" font-size="10.00">it.unitn.healthcore.business.</text>
<text text-anchor="middle" x="77.5" y="-156" font-family="Helvetica,sans-Serif" font-size="10.00">UserService.registerPatient</text>
</a>
</g>
</g>
<!-- Node2 -->
<g id="node2" class="node">
<title>Node2</title>
<g id="a_node2"><a xlink:href="interfaceit_1_1unitn_1_1healthcore_1_1persistence_1_1PatientRepository.html#a320387b23f16ee948d66d932faa3991f" target="_top" xlink:title=" ">
<polygon fill="white" stroke="black" points="194,-308.5 194,-349.5 394,-349.5 394,-308.5 194,-308.5"/>
<text text-anchor="start" x="202" y="-337.5" font-family="Helvetica,sans-Serif" font-size="10.00">it.unitn.healthcore.persistence.</text>
<text text-anchor="start" x="202" y="-326.5" font-family="Helvetica,sans-Serif" font-size="10.00">PatientRepository.existsByHealthcare</text>
<text text-anchor="middle" x="294" y="-315.5" font-family="Helvetica,sans-Serif" font-size="10.00">CardNumber</text>
</a>
</g>
</g>
<!-- Node1&#45;&gt;Node2 -->
<g id="edge1" class="edge">
<title>Node1&#45;&gt;Node2</title>
<path fill="none" stroke="midnightblue" d="M86.9,-179.07C103.24,-206.99 142.04,-266.85 191,-299 193.62,-300.72 196.33,-302.34 199.12,-303.87"/>
<polygon fill="midnightblue" stroke="midnightblue" points="197.76,-307.1 208.27,-308.46 200.9,-300.85 197.76,-307.1"/>
</g>
<!-- Node3 -->
<g id="node3" class="node">
<title>Node3</title>
<g id="a_node3"><a xlink:href="classit_1_1unitn_1_1healthcore_1_1domain_1_1PasswordConfirmationForm.html#ad2a321af868704e56c42d5306a8acd91" target="_top" xlink:title="Email getter.">
<polygon fill="white" stroke="black" points="195.5,-259 195.5,-289 392.5,-289 392.5,-259 195.5,-259"/>
<text text-anchor="start" x="203.5" y="-277" font-family="Helvetica,sans-Serif" font-size="10.00">it.unitn.healthcore.domain.</text>
<text text-anchor="middle" x="294" y="-266" font-family="Helvetica,sans-Serif" font-size="10.00">PasswordConfirmationForm.getEmail</text>
</a>
</g>
</g>
<!-- Node1&#45;&gt;Node3 -->
<g id="edge2" class="edge">
<title>Node1&#45;&gt;Node3</title>
<path fill="none" stroke="midnightblue" d="M94.25,-179.28C114.82,-198.39 152.75,-230.82 191,-249 196.04,-251.4 201.34,-253.58 206.76,-255.56"/>
<polygon fill="midnightblue" stroke="midnightblue" points="206.01,-259.01 216.61,-258.92 208.27,-252.38 206.01,-259.01"/>
</g>
<!-- Node4 -->
<g id="node4" class="node">
<title>Node4</title>
<g id="a_node4"><a xlink:href="classit_1_1unitn_1_1healthcore_1_1domain_1_1PatientRegistrationForm.html#abc573cb3f03f7b2d2e0dd970c569df84" target="_top" xlink:title="Healthcare card number getter.">
<polygon fill="white" stroke="black" points="191,-198.5 191,-239.5 397,-239.5 397,-198.5 191,-198.5"/>
<text text-anchor="start" x="199" y="-227.5" font-family="Helvetica,sans-Serif" font-size="10.00">it.unitn.healthcore.domain.</text>
<text text-anchor="start" x="199" y="-216.5" font-family="Helvetica,sans-Serif" font-size="10.00">PatientRegistrationForm.getHealthcare</text>
<text text-anchor="middle" x="294" y="-205.5" font-family="Helvetica,sans-Serif" font-size="10.00">CardNumber</text>
</a>
</g>
</g>
<!-- Node1&#45;&gt;Node4 -->
<g id="edge3" class="edge">
<title>Node1&#45;&gt;Node4</title>
<path fill="none" stroke="midnightblue" d="M137.11,-179.03C157.43,-184.24 180.69,-190.2 202.95,-195.91"/>
<polygon fill="midnightblue" stroke="midnightblue" points="202.19,-199.33 212.75,-198.42 203.93,-192.55 202.19,-199.33"/>
</g>
<!-- Node5 -->
<g id="node5" class="node">
<title>Node5</title>
<g id="a_node5"><a xlink:href="classit_1_1unitn_1_1healthcore_1_1domain_1_1PatientRegistrationForm.html#a47e69a04762a7937f63f729aa52fbe7a" target="_top" xlink:title="Creates a PatientRegistrationForm with the specified details, without healthcare card number.">
<polygon fill="white" stroke="black" points="203,-149 203,-179 385,-179 385,-149 203,-149"/>
<text text-anchor="start" x="211" y="-167" font-family="Helvetica,sans-Serif" font-size="10.00">it.unitn.healthcore.domain.</text>
<text text-anchor="middle" x="294" y="-156" font-family="Helvetica,sans-Serif" font-size="10.00">PatientRegistrationForm.getName</text>
</a>
</g>
</g>
<!-- Node1&#45;&gt;Node5 -->
<g id="edge4" class="edge">
<title>Node1&#45;&gt;Node5</title>
<path fill="none" stroke="midnightblue" d="M155.03,-164C167.28,-164 180.11,-164 192.81,-164"/>
<polygon fill="midnightblue" stroke="midnightblue" points="192.95,-167.5 202.95,-164 192.95,-160.5 192.95,-167.5"/>
</g>
<!-- Node6 -->
<g id="node6" class="node">
<title>Node6</title>
<g id="a_node6"><a xlink:href="classit_1_1unitn_1_1healthcore_1_1domain_1_1PasswordConfirmationForm.html#aa7de23a583db33eba13ddecad973ceca" target="_top" xlink:title="Password getter.">
<polygon fill="white" stroke="black" points="433,-83 433,-113 648,-113 648,-83 433,-83"/>
<text text-anchor="start" x="441" y="-101" font-family="Helvetica,sans-Serif" font-size="10.00">it.unitn.healthcore.domain.</text>
<text text-anchor="middle" x="540.5" y="-90" font-family="Helvetica,sans-Serif" font-size="10.00">PasswordConfirmationForm.getPassword</text>
</a>
</g>
</g>
<!-- Node1&#45;&gt;Node6 -->
<g id="edge5" class="edge">
<title>Node1&#45;&gt;Node6</title>
<path fill="none" stroke="midnightblue" d="M144.04,-148.98C159.4,-145.75 175.73,-142.54 191,-140 267.76,-127.21 354.65,-116.73 422.47,-109.44"/>
<polygon fill="midnightblue" stroke="midnightblue" points="423.19,-112.88 432.76,-108.34 422.45,-105.92 423.19,-112.88"/>
</g>
<!-- Node7 -->
<g id="node7" class="node">
<title>Node7</title>
<g id="a_node7"><a xlink:href="classit_1_1unitn_1_1healthcore_1_1domain_1_1PatientRegistrationForm.html#a28bacda95e68eaf4665de2509652c6fe" target="_top" xlink:title="Surname getter.">
<polygon fill="white" stroke="black" points="195.5,-61 195.5,-91 392.5,-91 392.5,-61 195.5,-61"/>
<text text-anchor="start" x="203.5" y="-79" font-family="Helvetica,sans-Serif" font-size="10.00">it.unitn.healthcore.domain.</text>
<text text-anchor="middle" x="294" y="-68" font-family="Helvetica,sans-Serif" font-size="10.00">PatientRegistrationForm.getSurname</text>
</a>
</g>
</g>
<!-- Node1&#45;&gt;Node7 -->
<g id="edge6" class="edge">
<title>Node1&#45;&gt;Node7</title>
<path fill="none" stroke="midnightblue" d="M104.21,-148.96C126.59,-136.3 160.2,-118.34 191,-106 201.91,-101.63 213.7,-97.58 225.26,-93.96"/>
<polygon fill="midnightblue" stroke="midnightblue" points="226.35,-97.28 234.9,-91.02 224.31,-90.59 226.35,-97.28"/>
</g>
<!-- Node8 -->
<g id="node8" class="node">
<title>Node8</title>
<g id="a_node8"><a xlink:href="classit_1_1unitn_1_1healthcore_1_1domain_1_1PasswordConfirmationForm.html#a181a1ca7ab3c4d07cb7f3817c1de6974" target="_top" xlink:title="Validates the password confirmation form by checking if the password and confirmation match,...">
<polygon fill="white" stroke="black" points="201.5,-0.5 201.5,-41.5 386.5,-41.5 386.5,-0.5 201.5,-0.5"/>
<text text-anchor="start" x="209.5" y="-29.5" font-family="Helvetica,sans-Serif" font-size="10.00">it.unitn.healthcore.domain.</text>
<text text-anchor="start" x="209.5" y="-18.5" font-family="Helvetica,sans-Serif" font-size="10.00">PasswordConfirmationForm.isValid</text>
<text text-anchor="middle" x="294" y="-7.5" font-family="Helvetica,sans-Serif" font-size="10.00">PasswordForm</text>
</a>
</g>
</g>
<!-- Node1&#45;&gt;Node8 -->
<g id="edge7" class="edge">
<title>Node1&#45;&gt;Node8</title>
<path fill="none" stroke="midnightblue" d="M89.5,-148.79C107.84,-124.54 146.99,-77.19 191,-51 194.16,-49.12 197.45,-47.35 200.82,-45.69"/>
<polygon fill="midnightblue" stroke="midnightblue" points="202.29,-48.86 209.92,-41.52 199.37,-42.5 202.29,-48.86"/>
</g>
<!-- Node8&#45;&gt;Node6 -->
<g id="edge8" class="edge">
<title>Node8&#45;&gt;Node6</title>
<path fill="none" stroke="midnightblue" d="M365.87,-41.52C376.33,-44.64 386.96,-47.87 397,-51 426.35,-60.15 458.92,-70.85 485.51,-79.73"/>
<polygon fill="midnightblue" stroke="midnightblue" points="484.42,-83.06 495.01,-82.91 486.64,-76.42 484.42,-83.06"/>
</g>
<!-- Node9 -->
<g id="node9" class="node">
<title>Node9</title>
<g id="a_node9"><a xlink:href="classit_1_1unitn_1_1healthcore_1_1domain_1_1PasswordConfirmationForm.html#add77c52ff85c3a8caefe02af899fe10b" target="_top" xlink:title="Password confirmation getter.">
<polygon fill="white" stroke="black" points="433,-0.5 433,-41.5 648,-41.5 648,-0.5 433,-0.5"/>
<text text-anchor="start" x="441" y="-29.5" font-family="Helvetica,sans-Serif" font-size="10.00">it.unitn.healthcore.domain.</text>
<text text-anchor="start" x="441" y="-18.5" font-family="Helvetica,sans-Serif" font-size="10.00">PasswordConfirmationForm.getPassword</text>
<text text-anchor="middle" x="540.5" y="-7.5" font-family="Helvetica,sans-Serif" font-size="10.00">Confirmation</text>
</a>
</g>
</g>
<!-- Node8&#45;&gt;Node9 -->
<g id="edge9" class="edge">
<title>Node8&#45;&gt;Node9</title>
<path fill="none" stroke="midnightblue" d="M386.74,-21C398.49,-21 410.64,-21 422.72,-21"/>
<polygon fill="midnightblue" stroke="midnightblue" points="422.84,-24.5 432.84,-21 422.84,-17.5 422.84,-24.5"/>
</g>
</g>
</svg>
