<?xml version="1.0" encoding="UTF-8" standalone="no"?>
<!DOCTYPE svg PUBLIC "-//W3C//DTD SVG 1.1//EN"
 "http://www.w3.org/Graphics/SVG/1.1/DTD/svg11.dtd">
<!-- Generated by graphviz version 2.43.0 (0)
 -->
<!-- Title: it.unitn.healthcore.business.UserService.updateUserProfile Pages: 1 -->
<svg width="675pt" height="722pt"
 viewBox="0.00 0.00 675.00 722.00" xmlns="http://www.w3.org/2000/svg" xmlns:xlink="http://www.w3.org/1999/xlink">
<g id="graph0" class="graph" transform="scale(1 1) rotate(0) translate(4 718)">
<title>it.unitn.healthcore.business.UserService.updateUserProfile</title>
<polygon fill="white" stroke="transparent" points="-4,4 -4,-718 671,-718 671,4 -4,4"/>
<!-- Node1 -->
<g id="node1" class="node">
<title>Node1</title>
<g id="a_node1"><a xlink:title=" ">
<polygon fill="#bfbfbf" stroke="black" points="0,-355.5 0,-385.5 165,-385.5 165,-355.5 0,-355.5"/>
<text text-anchor="start" x="8" y="-373.5" font-family="Helvetica,sans-Serif" font-size="10.00">it.unitn.healthcore.business.</text>
<text text-anchor="middle" x="82.5" y="-362.5" font-family="Helvetica,sans-Serif" font-size="10.00">UserService.updateUserProfile</text>
</a>
</g>
</g>
<!-- Node2 -->
<g id="node2" class="node">
<title>Node2</title>
<g id="a_node2"><a xlink:href="interfaceit_1_1unitn_1_1healthcore_1_1persistence_1_1UserRepository.html#a6a646ae44d01189ff44c81c03fc92fa8" target="_top" xlink:title=" ">
<polygon fill="white" stroke="black" points="472.5,-634.5 472.5,-664.5 646.5,-664.5 646.5,-634.5 472.5,-634.5"/>
<text text-anchor="start" x="480.5" y="-652.5" font-family="Helvetica,sans-Serif" font-size="10.00">it.unitn.healthcore.persistence.</text>
<text text-anchor="middle" x="559.5" y="-641.5" font-family="Helvetica,sans-Serif" font-size="10.00">UserRepository.findUserByEmail</text>
</a>
</g>
</g>
<!-- Node1&#45;&gt;Node2 -->
<g id="edge1" class="edge">
<title>Node1&#45;&gt;Node2</title>
<path fill="none" stroke="midnightblue" d="M85.6,-385.58C92.61,-429.65 119.56,-558.68 201,-615.5 241.84,-644 370.94,-650.17 462.23,-650.78"/>
<polygon fill="midnightblue" stroke="midnightblue" points="462.32,-654.28 472.33,-650.83 462.35,-647.28 462.32,-654.28"/>
</g>
<!-- Node3 -->
<g id="node3" class="node">
<title>Node3</title>
<g id="a_node3"><a xlink:href="classit_1_1unitn_1_1healthcore_1_1business_1_1UserService.html#a33213d05bfda4e7384e17b18332d4bb5" target="_top" xlink:title=" ">
<polygon fill="white" stroke="black" points="231,-667.5 231,-697.5 386,-697.5 386,-667.5 231,-667.5"/>
<text text-anchor="start" x="239" y="-685.5" font-family="Helvetica,sans-Serif" font-size="10.00">it.unitn.healthcore.business.</text>
<text text-anchor="middle" x="308.5" y="-674.5" font-family="Helvetica,sans-Serif" font-size="10.00">UserService.getCurrentUser</text>
</a>
</g>
</g>
<!-- Node1&#45;&gt;Node3 -->
<g id="edge2" class="edge">
<title>Node1&#45;&gt;Node3</title>
<path fill="none" stroke="midnightblue" d="M85.22,-385.68C91.38,-432.79 116.66,-577.74 201,-652.5 207.06,-657.88 214.02,-662.29 221.41,-665.93"/>
<polygon fill="midnightblue" stroke="midnightblue" points="220.41,-669.31 230.98,-670.12 223.22,-662.9 220.41,-669.31"/>
</g>
<!-- Node5 -->
<g id="node5" class="node">
<title>Node5</title>
<g id="a_node5"><a xlink:href="classit_1_1unitn_1_1healthcore_1_1domain_1_1PasswordConfirmationForm.html#ad2a321af868704e56c42d5306a8acd91" target="_top" xlink:title="Email getter.">
<polygon fill="white" stroke="black" points="461,-585.5 461,-615.5 658,-615.5 658,-585.5 461,-585.5"/>
<text text-anchor="start" x="469" y="-603.5" font-family="Helvetica,sans-Serif" font-size="10.00">it.unitn.healthcore.domain.</text>
<text text-anchor="middle" x="559.5" y="-592.5" font-family="Helvetica,sans-Serif" font-size="10.00">PasswordConfirmationForm.getEmail</text>
</a>
</g>
</g>
<!-- Node1&#45;&gt;Node5 -->
<g id="edge5" class="edge">
<title>Node1&#45;&gt;Node5</title>
<path fill="none" stroke="midnightblue" d="M86.7,-385.6C96.1,-425.66 127.65,-534.69 201,-580.5 283.75,-632.18 399.42,-628.01 476.53,-617.05"/>
<polygon fill="midnightblue" stroke="midnightblue" points="477.3,-620.47 486.67,-615.53 476.27,-613.55 477.3,-620.47"/>
</g>
<!-- Node6 -->
<g id="node6" class="node">
<title>Node6</title>
<g id="a_node6"><a xlink:href="classit_1_1unitn_1_1healthcore_1_1domain_1_1User.html#a5b48be6dca19b7d4d43ec2e6a3b91502" target="_top" xlink:title="Returns the email address of the user.">
<polygon fill="white" stroke="black" points="234,-453.5 234,-483.5 383,-483.5 383,-453.5 234,-453.5"/>
<text text-anchor="start" x="242" y="-471.5" font-family="Helvetica,sans-Serif" font-size="10.00">it.unitn.healthcore.domain.</text>
<text text-anchor="middle" x="308.5" y="-460.5" font-family="Helvetica,sans-Serif" font-size="10.00">User.getEmail</text>
</a>
</g>
</g>
<!-- Node1&#45;&gt;Node6 -->
<g id="edge6" class="edge">
<title>Node1&#45;&gt;Node6</title>
<path fill="none" stroke="midnightblue" d="M103.2,-385.56C125.7,-402.06 164.18,-428.22 201,-443.5 208.36,-446.55 216.16,-449.28 224.07,-451.7"/>
<polygon fill="midnightblue" stroke="midnightblue" points="223.17,-455.08 233.75,-454.5 225.12,-448.35 223.17,-455.08"/>
</g>
<!-- Node7 -->
<g id="node7" class="node">
<title>Node7</title>
<g id="a_node7"><a xlink:href="classit_1_1unitn_1_1healthcore_1_1domain_1_1ProfileUpdateForm.html#a74ba2df0ee53889299dc64bd16a6c889" target="_top" xlink:title="Name getter.">
<polygon fill="white" stroke="black" points="231,-404.5 231,-434.5 386,-434.5 386,-404.5 231,-404.5"/>
<text text-anchor="start" x="239" y="-422.5" font-family="Helvetica,sans-Serif" font-size="10.00">it.unitn.healthcore.domain.</text>
<text text-anchor="middle" x="308.5" y="-411.5" font-family="Helvetica,sans-Serif" font-size="10.00">ProfileUpdateForm.getName</text>
</a>
</g>
</g>
<!-- Node1&#45;&gt;Node7 -->
<g id="edge7" class="edge">
<title>Node1&#45;&gt;Node7</title>
<path fill="none" stroke="midnightblue" d="M152.23,-385.53C176.53,-390.85 204.03,-396.87 229.07,-402.34"/>
<polygon fill="midnightblue" stroke="midnightblue" points="228.38,-405.78 238.9,-404.49 229.88,-398.94 228.38,-405.78"/>
</g>
<!-- Node8 -->
<g id="node8" class="node">
<title>Node8</title>
<g id="a_node8"><a xlink:href="classit_1_1unitn_1_1healthcore_1_1domain_1_1User.html#a0c78137c0cf7b414cc88dcc41895d5a7" target="_top" xlink:title="Returns the first name of the user.">
<polygon fill="white" stroke="black" points="234,-355.5 234,-385.5 383,-385.5 383,-355.5 234,-355.5"/>
<text text-anchor="start" x="242" y="-373.5" font-family="Helvetica,sans-Serif" font-size="10.00">it.unitn.healthcore.domain.</text>
<text text-anchor="middle" x="308.5" y="-362.5" font-family="Helvetica,sans-Serif" font-size="10.00">User.getName</text>
</a>
</g>
</g>
<!-- Node1&#45;&gt;Node8 -->
<g id="edge8" class="edge">
<title>Node1&#45;&gt;Node8</title>
<path fill="none" stroke="midnightblue" d="M165,-370.5C184.09,-370.5 204.45,-370.5 223.64,-370.5"/>
<polygon fill="midnightblue" stroke="midnightblue" points="223.86,-374 233.86,-370.5 223.86,-367 223.86,-374"/>
</g>
<!-- Node9 -->
<g id="node9" class="node">
<title>Node9</title>
<g id="a_node9"><a xlink:href="classit_1_1unitn_1_1healthcore_1_1domain_1_1PasswordConfirmationForm.html#aa7de23a583db33eba13ddecad973ceca" target="_top" xlink:title="Password getter.">
<polygon fill="white" stroke="black" points="452,-487.5 452,-517.5 667,-517.5 667,-487.5 452,-487.5"/>
<text text-anchor="start" x="460" y="-505.5" font-family="Helvetica,sans-Serif" font-size="10.00">it.unitn.healthcore.domain.</text>
<text text-anchor="middle" x="559.5" y="-494.5" font-family="Helvetica,sans-Serif" font-size="10.00">PasswordConfirmationForm.getPassword</text>
</a>
</g>
</g>
<!-- Node1&#45;&gt;Node9 -->
<g id="edge9" class="edge">
<title>Node1&#45;&gt;Node9</title>
<path fill="none" stroke="midnightblue" d="M92.44,-385.71C109.5,-413.06 149.63,-469.8 201,-492.5 284.26,-529.29 389.4,-527.22 464.06,-518.74"/>
<polygon fill="midnightblue" stroke="midnightblue" points="464.87,-522.16 474.39,-517.5 464.04,-515.21 464.87,-522.16"/>
</g>
<!-- Node10 -->
<g id="node10" class="node">
<title>Node10</title>
<g id="a_node10"><a xlink:href="classit_1_1unitn_1_1healthcore_1_1domain_1_1PasswordConfirmationForm.html#add77c52ff85c3a8caefe02af899fe10b" target="_top" xlink:title="Password confirmation getter.">
<polygon fill="white" stroke="black" points="201,-295 201,-336 416,-336 416,-295 201,-295"/>
<text text-anchor="start" x="209" y="-324" font-family="Helvetica,sans-Serif" font-size="10.00">it.unitn.healthcore.domain.</text>
<text text-anchor="start" x="209" y="-313" font-family="Helvetica,sans-Serif" font-size="10.00">PasswordConfirmationForm.getPassword</text>
<text text-anchor="middle" x="308.5" y="-302" font-family="Helvetica,sans-Serif" font-size="10.00">Confirmation</text>
</a>
</g>
</g>
<!-- Node1&#45;&gt;Node10 -->
<g id="edge10" class="edge">
<title>Node1&#45;&gt;Node10</title>
<path fill="none" stroke="midnightblue" d="M144.71,-355.47C166.02,-350.24 190.44,-344.24 213.77,-338.51"/>
<polygon fill="midnightblue" stroke="midnightblue" points="214.82,-341.86 223.69,-336.08 213.15,-335.06 214.82,-341.86"/>
</g>
<!-- Node11 -->
<g id="node11" class="node">
<title>Node11</title>
<g id="a_node11"><a xlink:href="classit_1_1unitn_1_1healthcore_1_1domain_1_1ProfileUpdateForm.html#a8bd433fb0c7bfbe8eac0149bbfa707f6" target="_top" xlink:title="Specialization getter.">
<polygon fill="white" stroke="black" points="211.5,-245.5 211.5,-275.5 405.5,-275.5 405.5,-245.5 211.5,-245.5"/>
<text text-anchor="start" x="219.5" y="-263.5" font-family="Helvetica,sans-Serif" font-size="10.00">it.unitn.healthcore.domain.</text>
<text text-anchor="middle" x="308.5" y="-252.5" font-family="Helvetica,sans-Serif" font-size="10.00">ProfileUpdateForm.getSpecialization</text>
</a>
</g>
</g>
<!-- Node1&#45;&gt;Node11 -->
<g id="edge11" class="edge">
<title>Node1&#45;&gt;Node11</title>
<path fill="none" stroke="midnightblue" d="M100.05,-355.2C121.65,-336.05 161.38,-303.59 201,-285.5 206.42,-283.02 212.12,-280.78 217.93,-278.74"/>
<polygon fill="midnightblue" stroke="midnightblue" points="219.4,-281.95 227.82,-275.52 217.22,-275.3 219.4,-281.95"/>
</g>
<!-- Node12 -->
<g id="node12" class="node">
<title>Node12</title>
<g id="a_node12"><a xlink:href="classit_1_1unitn_1_1healthcore_1_1domain_1_1ProfileUpdateForm.html#af0bb243e48137fe877431ee1062a7c41" target="_top" xlink:title="Surname getter.">
<polygon fill="white" stroke="black" points="223.5,-196.5 223.5,-226.5 393.5,-226.5 393.5,-196.5 223.5,-196.5"/>
<text text-anchor="start" x="231.5" y="-214.5" font-family="Helvetica,sans-Serif" font-size="10.00">it.unitn.healthcore.domain.</text>
<text text-anchor="middle" x="308.5" y="-203.5" font-family="Helvetica,sans-Serif" font-size="10.00">ProfileUpdateForm.getSurname</text>
</a>
</g>
</g>
<!-- Node1&#45;&gt;Node12 -->
<g id="edge12" class="edge">
<title>Node1&#45;&gt;Node12</title>
<path fill="none" stroke="midnightblue" d="M92.25,-355.14C109.29,-326.73 149.77,-266.08 201,-235.5 205.11,-233.05 209.44,-230.85 213.91,-228.87"/>
<polygon fill="midnightblue" stroke="midnightblue" points="215.28,-232.09 223.26,-225.12 212.68,-225.59 215.28,-232.09"/>
</g>
<!-- Node13 -->
<g id="node13" class="node">
<title>Node13</title>
<g id="a_node13"><a xlink:href="classit_1_1unitn_1_1healthcore_1_1domain_1_1User.html#a1e52a76c1ad5fb44fe9c312e11203c9e" target="_top" xlink:title="Returns the last name of the user.">
<polygon fill="white" stroke="black" points="234,-147.5 234,-177.5 383,-177.5 383,-147.5 234,-147.5"/>
<text text-anchor="start" x="242" y="-165.5" font-family="Helvetica,sans-Serif" font-size="10.00">it.unitn.healthcore.domain.</text>
<text text-anchor="middle" x="308.5" y="-154.5" font-family="Helvetica,sans-Serif" font-size="10.00">User.getSurname</text>
</a>
</g>
</g>
<!-- Node1&#45;&gt;Node13 -->
<g id="edge13" class="edge">
<title>Node1&#45;&gt;Node13</title>
<path fill="none" stroke="midnightblue" d="M88.61,-355.26C101.41,-319.62 138.34,-230.49 201,-186.5 208.1,-181.52 216.07,-177.55 224.36,-174.39"/>
<polygon fill="midnightblue" stroke="midnightblue" points="225.5,-177.7 233.84,-171.16 223.24,-171.07 225.5,-177.7"/>
</g>
<!-- Node14 -->
<g id="node14" class="node">
<title>Node14</title>
<g id="a_node14"><a xlink:href="classit_1_1unitn_1_1healthcore_1_1business_1_1UserService.html#acc1ae5218e790edcc69ad692c84871a2" target="_top" xlink:title=" ">
<polygon fill="white" stroke="black" points="228,-541.5 228,-571.5 389,-571.5 389,-541.5 228,-541.5"/>
<text text-anchor="start" x="236" y="-559.5" font-family="Helvetica,sans-Serif" font-size="10.00">it.unitn.healthcore.business.</text>
<text text-anchor="middle" x="308.5" y="-548.5" font-family="Helvetica,sans-Serif" font-size="10.00">UserService.recoverPassword</text>
</a>
</g>
</g>
<!-- Node1&#45;&gt;Node14 -->
<g id="edge14" class="edge">
<title>Node1&#45;&gt;Node14</title>
<path fill="none" stroke="midnightblue" d="M90.56,-385.53C106.01,-416.74 145.87,-488.79 201,-526.5 207.16,-530.71 213.9,-534.34 220.91,-537.46"/>
<polygon fill="midnightblue" stroke="midnightblue" points="220.01,-540.87 230.59,-541.4 222.65,-534.39 220.01,-540.87"/>
</g>
<!-- Node16 -->
<g id="node16" class="node">
<title>Node16</title>
<g id="a_node16"><a xlink:href="classit_1_1unitn_1_1healthcore_1_1domain_1_1User.html#a637da3e206f619ffbd1b1589367b2114" target="_top" xlink:title="Sets the email address of the user.">
<polygon fill="white" stroke="black" points="234,-98.5 234,-128.5 383,-128.5 383,-98.5 234,-98.5"/>
<text text-anchor="start" x="242" y="-116.5" font-family="Helvetica,sans-Serif" font-size="10.00">it.unitn.healthcore.domain.</text>
<text text-anchor="middle" x="308.5" y="-105.5" font-family="Helvetica,sans-Serif" font-size="10.00">User.setEmail</text>
</a>
</g>
</g>
<!-- Node1&#45;&gt;Node16 -->
<g id="edge19" class="edge">
<title>Node1&#45;&gt;Node16</title>
<path fill="none" stroke="midnightblue" d="M86.44,-355.41C95.42,-313.62 126.53,-195.61 201,-137.5 207.95,-132.08 215.89,-127.83 224.22,-124.52"/>
<polygon fill="midnightblue" stroke="midnightblue" points="225.51,-127.78 233.78,-121.16 223.18,-121.17 225.51,-127.78"/>
</g>
<!-- Node17 -->
<g id="node17" class="node">
<title>Node17</title>
<g id="a_node17"><a xlink:href="classit_1_1unitn_1_1healthcore_1_1domain_1_1User.html#a91c87abb5e6a05b9a218ee0a9537d0fb" target="_top" xlink:title="Sets the first name of the user.">
<polygon fill="white" stroke="black" points="234,-49.5 234,-79.5 383,-79.5 383,-49.5 234,-49.5"/>
<text text-anchor="start" x="242" y="-67.5" font-family="Helvetica,sans-Serif" font-size="10.00">it.unitn.healthcore.domain.</text>
<text text-anchor="middle" x="308.5" y="-56.5" font-family="Helvetica,sans-Serif" font-size="10.00">User.setName</text>
</a>
</g>
</g>
<!-- Node1&#45;&gt;Node17 -->
<g id="edge20" class="edge">
<title>Node1&#45;&gt;Node17</title>
<path fill="none" stroke="midnightblue" d="M85.01,-355.46C90.6,-308.14 114.51,-161.18 201,-88.5 207.85,-82.74 215.8,-78.29 224.21,-74.86"/>
<polygon fill="midnightblue" stroke="midnightblue" points="225.63,-78.07 233.86,-71.41 223.27,-71.48 225.63,-78.07"/>
</g>
<!-- Node18 -->
<g id="node18" class="node">
<title>Node18</title>
<g id="a_node18"><a xlink:href="classit_1_1unitn_1_1healthcore_1_1domain_1_1User.html#aafba5fb3c10ba03d2e9121427365ec92" target="_top" xlink:title="Sets the last name of the user.">
<polygon fill="white" stroke="black" points="234,-0.5 234,-30.5 383,-30.5 383,-0.5 234,-0.5"/>
<text text-anchor="start" x="242" y="-18.5" font-family="Helvetica,sans-Serif" font-size="10.00">it.unitn.healthcore.domain.</text>
<text text-anchor="middle" x="308.5" y="-7.5" font-family="Helvetica,sans-Serif" font-size="10.00">User.setSurname</text>
</a>
</g>
</g>
<!-- Node1&#45;&gt;Node18 -->
<g id="edge21" class="edge">
<title>Node1&#45;&gt;Node18</title>
<path fill="none" stroke="midnightblue" d="M83.99,-355.18C86.56,-302.46 102.47,-126.91 201,-39.5 207.82,-33.45 215.84,-28.83 224.36,-25.31"/>
<polygon fill="midnightblue" stroke="midnightblue" points="225.56,-28.59 233.78,-21.9 223.18,-22.01 225.56,-28.59"/>
</g>
<!-- Node3&#45;&gt;Node2 -->
<g id="edge3" class="edge">
<title>Node3&#45;&gt;Node2</title>
<path fill="none" stroke="midnightblue" d="M386.24,-672.33C410.33,-669.14 437.24,-665.57 462.5,-662.22"/>
<polygon fill="midnightblue" stroke="midnightblue" points="463,-665.69 472.46,-660.9 462.08,-658.75 463,-665.69"/>
</g>
<!-- Node4 -->
<g id="node4" class="node">
<title>Node4</title>
<g id="a_node4"><a xlink:href="classit_1_1unitn_1_1healthcore_1_1business_1_1UserService.html#a703ed9778e3ac6cd9741220089b5f48d" target="_top" xlink:title=" ">
<polygon fill="white" stroke="black" points="469.5,-683.5 469.5,-713.5 649.5,-713.5 649.5,-683.5 469.5,-683.5"/>
<text text-anchor="start" x="477.5" y="-701.5" font-family="Helvetica,sans-Serif" font-size="10.00">it.unitn.healthcore.business.</text>
<text text-anchor="middle" x="559.5" y="-690.5" font-family="Helvetica,sans-Serif" font-size="10.00">UserService.getCurrentUserEmail</text>
</a>
</g>
</g>
<!-- Node3&#45;&gt;Node4 -->
<g id="edge4" class="edge">
<title>Node3&#45;&gt;Node4</title>
<path fill="none" stroke="midnightblue" d="M386.24,-687.43C409.25,-688.91 434.82,-690.55 459.06,-692.11"/>
<polygon fill="midnightblue" stroke="midnightblue" points="459.16,-695.62 469.36,-692.77 459.61,-688.64 459.16,-695.62"/>
</g>
<!-- Node14&#45;&gt;Node2 -->
<g id="edge15" class="edge">
<title>Node14&#45;&gt;Node2</title>
<path fill="none" stroke="midnightblue" d="M336.03,-571.63C364.07,-587.08 409.97,-610.81 452,-625.5 458.43,-627.75 465.16,-629.84 471.97,-631.77"/>
<polygon fill="midnightblue" stroke="midnightblue" points="471.41,-635.25 481.98,-634.49 473.24,-628.49 471.41,-635.25"/>
</g>
<!-- Node14&#45;&gt;Node5 -->
<g id="edge16" class="edge">
<title>Node14&#45;&gt;Node5</title>
<path fill="none" stroke="midnightblue" d="M389.31,-570.6C412.94,-574.78 439.05,-579.39 463.54,-583.72"/>
<polygon fill="midnightblue" stroke="midnightblue" points="463.1,-587.2 473.55,-585.49 464.32,-580.3 463.1,-587.2"/>
</g>
<!-- Node14&#45;&gt;Node9 -->
<g id="edge17" class="edge">
<title>Node14&#45;&gt;Node9</title>
<path fill="none" stroke="midnightblue" d="M378.86,-541.46C410.03,-534.7 446.97,-526.69 479.23,-519.69"/>
<polygon fill="midnightblue" stroke="midnightblue" points="480.05,-523.09 489.08,-517.55 478.57,-516.25 480.05,-523.09"/>
</g>
<!-- Node15 -->
<g id="node15" class="node">
<title>Node15</title>
<g id="a_node15"><a xlink:href="classit_1_1unitn_1_1healthcore_1_1domain_1_1User.html#aae0addd4b63049c29c751a6c03e17f2c" target="_top" xlink:title="Sets the password of the user.">
<polygon fill="white" stroke="black" points="485,-536.5 485,-566.5 634,-566.5 634,-536.5 485,-536.5"/>
<text text-anchor="start" x="493" y="-554.5" font-family="Helvetica,sans-Serif" font-size="10.00">it.unitn.healthcore.domain.</text>
<text text-anchor="middle" x="559.5" y="-543.5" font-family="Helvetica,sans-Serif" font-size="10.00">User.setPassword</text>
</a>
</g>
</g>
<!-- Node14&#45;&gt;Node15 -->
<g id="edge18" class="edge">
<title>Node14&#45;&gt;Node15</title>
<path fill="none" stroke="midnightblue" d="M389.31,-554.9C416.55,-554.35 447.08,-553.74 474.63,-553.18"/>
<polygon fill="midnightblue" stroke="midnightblue" points="474.7,-556.68 484.63,-552.98 474.56,-549.68 474.7,-556.68"/>
</g>
</g>
</svg>
