<?xml version="1.0" encoding="UTF-8" standalone="no"?>
<!DOCTYPE svg PUBLIC "-//W3C//DTD SVG 1.1//EN"
 "http://www.w3.org/Graphics/SVG/1.1/DTD/svg11.dtd">
<!-- Generated by graphviz version 2.43.0 (0)
 -->
<!-- Title: it.unitn.healthcore.domain.Department.getTotalStaffPositions Pages: 1 -->
<svg width="833pt" height="88pt"
 viewBox="0.00 0.00 833.00 88.00" xmlns="http://www.w3.org/2000/svg" xmlns:xlink="http://www.w3.org/1999/xlink">
<g id="graph0" class="graph" transform="scale(1 1) rotate(0) translate(4 84)">
<title>it.unitn.healthcore.domain.Department.getTotalStaffPositions</title>
<polygon fill="white" stroke="transparent" points="-4,4 -4,-84 829,-84 829,4 -4,4"/>
<!-- Node1 -->
<g id="node1" class="node">
<title>Node1</title>
<g id="a_node1"><a xlink:title="Returns the total staff positions within the department.">
<polygon fill="#bfbfbf" stroke="black" points="641,-24.5 641,-54.5 825,-54.5 825,-24.5 641,-24.5"/>
<text text-anchor="start" x="649" y="-42.5" font-family="Helvetica,sans-Serif" font-size="10.00">it.unitn.healthcore.domain.</text>
<text text-anchor="middle" x="733" y="-31.5" font-family="Helvetica,sans-Serif" font-size="10.00">Department.getTotalStaffPositions</text>
</a>
</g>
</g>
<!-- Node2 -->
<g id="node2" class="node">
<title>Node2</title>
<g id="a_node2"><a xlink:href="classit_1_1unitn_1_1healthcore_1_1business_1_1DoctorService.html#ab2c93c48b93c7f003012f699a06841cc" target="_top" xlink:title="Changes the department of a doctor to a new department.">
<polygon fill="white" stroke="black" points="423,-49.5 423,-79.5 605,-79.5 605,-49.5 423,-49.5"/>
<text text-anchor="start" x="431" y="-67.5" font-family="Helvetica,sans-Serif" font-size="10.00">it.unitn.healthcore.business.</text>
<text text-anchor="middle" x="514" y="-56.5" font-family="Helvetica,sans-Serif" font-size="10.00">DoctorService.changeDepartment</text>
</a>
</g>
</g>
<!-- Node1&#45;&gt;Node2 -->
<g id="edge1" class="edge">
<title>Node1&#45;&gt;Node2</title>
<path fill="none" stroke="midnightblue" d="M630.88,-51.15C622.29,-52.14 613.65,-53.14 605.16,-54.11"/>
<polygon fill="midnightblue" stroke="midnightblue" points="631.38,-54.62 640.92,-49.99 630.58,-47.66 631.38,-54.62"/>
</g>
<!-- Node4 -->
<g id="node4" class="node">
<title>Node4</title>
<g id="a_node4"><a xlink:href="classit_1_1unitn_1_1healthcore_1_1business_1_1UserService.html#af71b0f13c31c938efe9fce54ab3d7f7d" target="_top" xlink:title="Registers a new doctor in the system.">
<polygon fill="white" stroke="black" points="436.5,-0.5 436.5,-30.5 591.5,-30.5 591.5,-0.5 436.5,-0.5"/>
<text text-anchor="start" x="444.5" y="-18.5" font-family="Helvetica,sans-Serif" font-size="10.00">it.unitn.healthcore.business.</text>
<text text-anchor="middle" x="514" y="-7.5" font-family="Helvetica,sans-Serif" font-size="10.00">UserService.registerDoctor</text>
</a>
</g>
</g>
<!-- Node1&#45;&gt;Node4 -->
<g id="edge3" class="edge">
<title>Node1&#45;&gt;Node4</title>
<path fill="none" stroke="midnightblue" d="M630.9,-28.32C617.74,-26.86 604.44,-25.39 591.77,-23.99"/>
<polygon fill="midnightblue" stroke="midnightblue" points="630.59,-31.81 640.92,-29.43 631.36,-24.85 630.59,-31.81"/>
</g>
<!-- Node3 -->
<g id="node3" class="node">
<title>Node3</title>
<g id="a_node3"><a xlink:href="classit_1_1unitn_1_1healthcore_1_1controller_1_1DoctorController.html#aae8b5b27a77226e6e5c7a1ce5e177e92" target="_top" xlink:title="Changes the department assignment for a specific doctor.">
<polygon fill="white" stroke="black" points="194,-49.5 194,-79.5 387,-79.5 387,-49.5 194,-49.5"/>
<text text-anchor="start" x="202" y="-67.5" font-family="Helvetica,sans-Serif" font-size="10.00">it.unitn.healthcore.controller.</text>
<text text-anchor="middle" x="290.5" y="-56.5" font-family="Helvetica,sans-Serif" font-size="10.00">DoctorController.changeDepartment</text>
</a>
</g>
</g>
<!-- Node2&#45;&gt;Node3 -->
<g id="edge2" class="edge">
<title>Node2&#45;&gt;Node3</title>
<path fill="none" stroke="midnightblue" d="M412.66,-64.5C404.22,-64.5 395.69,-64.5 387.28,-64.5"/>
<polygon fill="midnightblue" stroke="midnightblue" points="412.91,-68 422.91,-64.5 412.91,-61 412.91,-68"/>
</g>
<!-- Node5 -->
<g id="node5" class="node">
<title>Node5</title>
<g id="a_node5"><a xlink:href="classit_1_1unitn_1_1healthcore_1_1business_1_1UserService.html#a8bb76a3af453837d334e1f5a9551ff56" target="_top" xlink:title="Registers a new employee (doctor or administrator) in the system.">
<polygon fill="white" stroke="black" points="208.5,-0.5 208.5,-30.5 372.5,-30.5 372.5,-0.5 208.5,-0.5"/>
<text text-anchor="start" x="216.5" y="-18.5" font-family="Helvetica,sans-Serif" font-size="10.00">it.unitn.healthcore.business.</text>
<text text-anchor="middle" x="290.5" y="-7.5" font-family="Helvetica,sans-Serif" font-size="10.00">UserService.registerEmployee</text>
</a>
</g>
</g>
<!-- Node4&#45;&gt;Node5 -->
<g id="edge4" class="edge">
<title>Node4&#45;&gt;Node5</title>
<path fill="none" stroke="midnightblue" d="M426.18,-15.5C408.52,-15.5 390.02,-15.5 372.57,-15.5"/>
<polygon fill="midnightblue" stroke="midnightblue" points="426.46,-19 436.46,-15.5 426.46,-12 426.46,-19"/>
</g>
<!-- Node6 -->
<g id="node6" class="node">
<title>Node6</title>
<g id="a_node6"><a xlink:href="classit_1_1unitn_1_1healthcore_1_1controller_1_1UserController.html#ac9a8c37503c4a708c85863870ee27da7" target="_top" xlink:title=" ">
<polygon fill="white" stroke="black" points="0,-0.5 0,-30.5 158,-30.5 158,-0.5 0,-0.5"/>
<text text-anchor="start" x="8" y="-18.5" font-family="Helvetica,sans-Serif" font-size="10.00">it.unitn.healthcore.controller.</text>
<text text-anchor="middle" x="79" y="-7.5" font-family="Helvetica,sans-Serif" font-size="10.00">UserController.addEmployee</text>
</a>
</g>
</g>
<!-- Node5&#45;&gt;Node6 -->
<g id="edge5" class="edge">
<title>Node5&#45;&gt;Node6</title>
<path fill="none" stroke="midnightblue" d="M198.09,-15.5C184.78,-15.5 171.18,-15.5 158.16,-15.5"/>
<polygon fill="midnightblue" stroke="midnightblue" points="198.2,-19 208.2,-15.5 198.2,-12 198.2,-19"/>
</g>
</g>
</svg>
