<?xml version="1.0" encoding="UTF-8" standalone="no"?>
<!DOCTYPE svg PUBLIC "-//W3C//DTD SVG 1.1//EN"
 "http://www.w3.org/Graphics/SVG/1.1/DTD/svg11.dtd">
<!-- Generated by graphviz version 2.43.0 (0)
 -->
<!-- Title: it.unitn.healthcore.business.UserService.registerEmployee Pages: 1 -->
<svg width="670pt" height="235pt"
 viewBox="0.00 0.00 670.00 235.00" xmlns="http://www.w3.org/2000/svg" xmlns:xlink="http://www.w3.org/1999/xlink">
<g id="graph0" class="graph" transform="scale(1 1) rotate(0) translate(4 231)">
<title>it.unitn.healthcore.business.UserService.registerEmployee</title>
<polygon fill="white" stroke="transparent" points="-4,4 -4,-231 666,-231 666,4 -4,4"/>
<!-- Node1 -->
<g id="node1" class="node">
<title>Node1</title>
<g id="a_node1"><a xlink:title=" ">
<polygon fill="#bfbfbf" stroke="black" points="0,-147.5 0,-177.5 164,-177.5 164,-147.5 0,-147.5"/>
<text text-anchor="start" x="8" y="-165.5" font-family="Helvetica,sans-Serif" font-size="10.00">it.unitn.healthcore.business.</text>
<text text-anchor="middle" x="82" y="-154.5" font-family="Helvetica,sans-Serif" font-size="10.00">UserService.registerEmployee</text>
</a>
</g>
</g>
<!-- Node2 -->
<g id="node2" class="node">
<title>Node2</title>
<g id="a_node2"><a xlink:href="classit_1_1unitn_1_1healthcore_1_1domain_1_1EmployeeRegistrationForm.html#a2cddb295abb33e4d48081a4b179d0928" target="_top" xlink:title=" ">
<polygon fill="white" stroke="black" points="200,-196.5 200,-226.5 390,-226.5 390,-196.5 200,-196.5"/>
<text text-anchor="start" x="208" y="-214.5" font-family="Helvetica,sans-Serif" font-size="10.00">it.unitn.healthcore.domain.</text>
<text text-anchor="middle" x="295" y="-203.5" font-family="Helvetica,sans-Serif" font-size="10.00">EmployeeRegistrationForm.getRole</text>
</a>
</g>
</g>
<!-- Node1&#45;&gt;Node2 -->
<g id="edge1" class="edge">
<title>Node1&#45;&gt;Node2</title>
<path fill="none" stroke="midnightblue" d="M147.74,-177.53C170.42,-182.8 196.08,-188.76 219.5,-194.2"/>
<polygon fill="midnightblue" stroke="midnightblue" points="218.85,-197.64 229.38,-196.49 220.43,-190.82 218.85,-197.64"/>
</g>
<!-- Node3 -->
<g id="node3" class="node">
<title>Node3</title>
<g id="a_node3"><a xlink:href="classit_1_1unitn_1_1healthcore_1_1business_1_1UserService.html#aebfef6bf9480fb24956dba8b10232d2f" target="_top" xlink:title=" ">
<polygon fill="white" stroke="black" points="204,-147.5 204,-177.5 386,-177.5 386,-147.5 204,-147.5"/>
<text text-anchor="start" x="212" y="-165.5" font-family="Helvetica,sans-Serif" font-size="10.00">it.unitn.healthcore.business.</text>
<text text-anchor="middle" x="295" y="-154.5" font-family="Helvetica,sans-Serif" font-size="10.00">UserService.registerAdministrator</text>
</a>
</g>
</g>
<!-- Node1&#45;&gt;Node3 -->
<g id="edge2" class="edge">
<title>Node1&#45;&gt;Node3</title>
<path fill="none" stroke="midnightblue" d="M164.28,-162.5C173.93,-162.5 183.86,-162.5 193.74,-162.5"/>
<polygon fill="midnightblue" stroke="midnightblue" points="193.99,-166 203.99,-162.5 193.99,-159 193.99,-166"/>
</g>
<!-- Node8 -->
<g id="node8" class="node">
<title>Node8</title>
<g id="a_node8"><a xlink:href="classit_1_1unitn_1_1healthcore_1_1business_1_1UserService.html#af71b0f13c31c938efe9fce54ab3d7f7d" target="_top" xlink:title=" ">
<polygon fill="white" stroke="black" points="217.5,-98.5 217.5,-128.5 372.5,-128.5 372.5,-98.5 217.5,-98.5"/>
<text text-anchor="start" x="225.5" y="-116.5" font-family="Helvetica,sans-Serif" font-size="10.00">it.unitn.healthcore.business.</text>
<text text-anchor="middle" x="295" y="-105.5" font-family="Helvetica,sans-Serif" font-size="10.00">UserService.registerDoctor</text>
</a>
</g>
</g>
<!-- Node1&#45;&gt;Node8 -->
<g id="edge7" class="edge">
<title>Node1&#45;&gt;Node8</title>
<path fill="none" stroke="midnightblue" d="M147.74,-147.47C170.42,-142.2 196.08,-136.24 219.5,-130.8"/>
<polygon fill="midnightblue" stroke="midnightblue" points="220.43,-134.18 229.38,-128.51 218.85,-127.36 220.43,-134.18"/>
</g>
<!-- Node4 -->
<g id="node4" class="node">
<title>Node4</title>
<g id="a_node4"><a xlink:href="classit_1_1unitn_1_1healthcore_1_1domain_1_1PasswordConfirmationForm.html#ad2a321af868704e56c42d5306a8acd91" target="_top" xlink:title=" ">
<polygon fill="white" stroke="black" points="445.5,-147.5 445.5,-177.5 642.5,-177.5 642.5,-147.5 445.5,-147.5"/>
<text text-anchor="start" x="453.5" y="-165.5" font-family="Helvetica,sans-Serif" font-size="10.00">it.unitn.healthcore.domain.</text>
<text text-anchor="middle" x="544" y="-154.5" font-family="Helvetica,sans-Serif" font-size="10.00">PasswordConfirmationForm.getEmail</text>
</a>
</g>
</g>
<!-- Node3&#45;&gt;Node4 -->
<g id="edge3" class="edge">
<title>Node3&#45;&gt;Node4</title>
<path fill="none" stroke="midnightblue" d="M386.22,-162.5C402.08,-162.5 418.74,-162.5 435.03,-162.5"/>
<polygon fill="midnightblue" stroke="midnightblue" points="435.11,-166 445.11,-162.5 435.11,-159 435.11,-166"/>
</g>
<!-- Node5 -->
<g id="node5" class="node">
<title>Node5</title>
<g id="a_node5"><a xlink:href="classit_1_1unitn_1_1healthcore_1_1domain_1_1EmployeeRegistrationForm.html#ae00ab1333401d899f6e010a99e5afec8" target="_top" xlink:title=" ">
<polygon fill="white" stroke="black" points="445.5,-98.5 445.5,-128.5 642.5,-128.5 642.5,-98.5 445.5,-98.5"/>
<text text-anchor="start" x="453.5" y="-116.5" font-family="Helvetica,sans-Serif" font-size="10.00">it.unitn.healthcore.domain.</text>
<text text-anchor="middle" x="544" y="-105.5" font-family="Helvetica,sans-Serif" font-size="10.00">EmployeeRegistrationForm.getName</text>
</a>
</g>
</g>
<!-- Node3&#45;&gt;Node5 -->
<g id="edge4" class="edge">
<title>Node3&#45;&gt;Node5</title>
<path fill="none" stroke="midnightblue" d="M371.79,-147.47C398.81,-142.1 429.45,-136.03 457.25,-130.51"/>
<polygon fill="midnightblue" stroke="midnightblue" points="458.23,-133.89 467.36,-128.51 456.87,-127.02 458.23,-133.89"/>
</g>
<!-- Node6 -->
<g id="node6" class="node">
<title>Node6</title>
<g id="a_node6"><a xlink:href="classit_1_1unitn_1_1healthcore_1_1domain_1_1PasswordConfirmationForm.html#aa7de23a583db33eba13ddecad973ceca" target="_top" xlink:title=" ">
<polygon fill="white" stroke="black" points="436.5,-49.5 436.5,-79.5 651.5,-79.5 651.5,-49.5 436.5,-49.5"/>
<text text-anchor="start" x="444.5" y="-67.5" font-family="Helvetica,sans-Serif" font-size="10.00">it.unitn.healthcore.domain.</text>
<text text-anchor="middle" x="544" y="-56.5" font-family="Helvetica,sans-Serif" font-size="10.00">PasswordConfirmationForm.getPassword</text>
</a>
</g>
</g>
<!-- Node3&#45;&gt;Node6 -->
<g id="edge5" class="edge">
<title>Node3&#45;&gt;Node6</title>
<path fill="none" stroke="midnightblue" d="M373.81,-147.3C379.5,-144.8 384.97,-141.89 390,-138.5 412.4,-123.39 403.3,-104.17 426,-89.5 429.2,-87.43 432.54,-85.53 435.98,-83.79"/>
<polygon fill="midnightblue" stroke="midnightblue" points="437.68,-86.86 445.32,-79.52 434.77,-80.5 437.68,-86.86"/>
</g>
<!-- Node7 -->
<g id="node7" class="node">
<title>Node7</title>
<g id="a_node7"><a xlink:href="classit_1_1unitn_1_1healthcore_1_1domain_1_1EmployeeRegistrationForm.html#af1804bfdb0eb5dd711f6344f6c7e420c" target="_top" xlink:title=" ">
<polygon fill="white" stroke="black" points="438,-196.5 438,-226.5 650,-226.5 650,-196.5 438,-196.5"/>
<text text-anchor="start" x="446" y="-214.5" font-family="Helvetica,sans-Serif" font-size="10.00">it.unitn.healthcore.domain.</text>
<text text-anchor="middle" x="544" y="-203.5" font-family="Helvetica,sans-Serif" font-size="10.00">EmployeeRegistrationForm.getSurname</text>
</a>
</g>
</g>
<!-- Node3&#45;&gt;Node7 -->
<g id="edge6" class="edge">
<title>Node3&#45;&gt;Node7</title>
<path fill="none" stroke="midnightblue" d="M371.79,-177.53C398.81,-182.9 429.45,-188.97 457.25,-194.49"/>
<polygon fill="midnightblue" stroke="midnightblue" points="456.87,-197.98 467.36,-196.49 458.23,-191.11 456.87,-197.98"/>
</g>
<!-- Node8&#45;&gt;Node4 -->
<g id="edge9" class="edge">
<title>Node8&#45;&gt;Node4</title>
<path fill="none" stroke="midnightblue" d="M371.79,-128.53C398.81,-133.9 429.45,-139.97 457.25,-145.49"/>
<polygon fill="midnightblue" stroke="midnightblue" points="456.87,-148.98 467.36,-147.49 458.23,-142.11 456.87,-148.98"/>
</g>
<!-- Node8&#45;&gt;Node5 -->
<g id="edge10" class="edge">
<title>Node8&#45;&gt;Node5</title>
<path fill="none" stroke="midnightblue" d="M372.8,-113.5C392.51,-113.5 414.09,-113.5 435.06,-113.5"/>
<polygon fill="midnightblue" stroke="midnightblue" points="435.3,-117 445.3,-113.5 435.3,-110 435.3,-117"/>
</g>
<!-- Node8&#45;&gt;Node6 -->
<g id="edge11" class="edge">
<title>Node8&#45;&gt;Node6</title>
<path fill="none" stroke="midnightblue" d="M371.79,-98.47C398.81,-93.1 429.45,-87.03 457.25,-81.51"/>
<polygon fill="midnightblue" stroke="midnightblue" points="458.23,-84.89 467.36,-79.51 456.87,-78.02 458.23,-84.89"/>
</g>
<!-- Node8&#45;&gt;Node7 -->
<g id="edge12" class="edge">
<title>Node8&#45;&gt;Node7</title>
<path fill="none" stroke="midnightblue" d="M371.44,-128.53C377.98,-131.31 384.28,-134.6 390,-138.5 412.33,-153.73 403.25,-172.92 426,-187.5 428.5,-189.1 431.08,-190.59 433.73,-191.99"/>
<polygon fill="midnightblue" stroke="midnightblue" points="432.45,-195.26 442.98,-196.38 435.45,-188.93 432.45,-195.26"/>
</g>
<!-- Node9 -->
<g id="node9" class="node">
<title>Node9</title>
<g id="a_node9"><a xlink:href="classit_1_1unitn_1_1healthcore_1_1domain_1_1EmployeeRegistrationForm.html#aacda9ff32f2f6c240f9f1ce7a746839a" target="_top" xlink:title=" ">
<polygon fill="white" stroke="black" points="426,-0.5 426,-30.5 662,-30.5 662,-0.5 426,-0.5"/>
<text text-anchor="start" x="434" y="-18.5" font-family="Helvetica,sans-Serif" font-size="10.00">it.unitn.healthcore.domain.</text>
<text text-anchor="middle" x="544" y="-7.5" font-family="Helvetica,sans-Serif" font-size="10.00">EmployeeRegistrationForm.getDepartmentId</text>
</a>
</g>
</g>
<!-- Node8&#45;&gt;Node9 -->
<g id="edge8" class="edge">
<title>Node8&#45;&gt;Node9</title>
<path fill="none" stroke="midnightblue" d="M318,-98.41C343.08,-81.87 385.8,-55.68 426,-40.5 433.03,-37.85 440.4,-35.44 447.89,-33.27"/>
<polygon fill="midnightblue" stroke="midnightblue" points="449.06,-36.58 457.77,-30.56 447.2,-29.83 449.06,-36.58"/>
</g>
</g>
</svg>
