<?xml version="1.0" encoding="UTF-8" standalone="no"?>
<!DOCTYPE svg PUBLIC "-//W3C//DTD SVG 1.1//EN"
 "http://www.w3.org/Graphics/SVG/1.1/DTD/svg11.dtd">
<!-- Generated by graphviz version 2.43.0 (0)
 -->
<!-- Title: it.unitn.healthcore.domain.User.getId Pages: 1 -->
<svg width="642pt" height="149pt"
 viewBox="0.00 0.00 642.00 149.00" xmlns="http://www.w3.org/2000/svg" xmlns:xlink="http://www.w3.org/1999/xlink">
<g id="graph0" class="graph" transform="scale(1 1) rotate(0) translate(4 145)">
<title>it.unitn.healthcore.domain.User.getId</title>
<polygon fill="white" stroke="transparent" points="-4,4 -4,-145 638,-145 638,4 -4,4"/>
<!-- Node1 -->
<g id="node1" class="node">
<title>Node1</title>
<g id="a_node1"><a xlink:title="Returns a string representation of the User.">
<polygon fill="#bfbfbf" stroke="black" points="485,-55.5 485,-85.5 634,-85.5 634,-55.5 485,-55.5"/>
<text text-anchor="start" x="493" y="-73.5" font-family="Helvetica,sans-Serif" font-size="10.00">it.unitn.healthcore.domain.</text>
<text text-anchor="middle" x="559.5" y="-62.5" font-family="Helvetica,sans-Serif" font-size="10.00">User.getId</text>
</a>
</g>
</g>
<!-- Node2 -->
<g id="node2" class="node">
<title>Node2</title>
<g id="a_node2"><a xlink:href="classit_1_1unitn_1_1healthcore_1_1controller_1_1UserController.html#aa9d85586ed83e4d9865621769e24fd81" target="_top" xlink:title="delete the current user&#39;s account and redirect to the login page.">
<polygon fill="white" stroke="black" points="271,-110.5 271,-140.5 430,-140.5 430,-110.5 271,-110.5"/>
<text text-anchor="start" x="279" y="-128.5" font-family="Helvetica,sans-Serif" font-size="10.00">it.unitn.healthcore.controller.</text>
<text text-anchor="middle" x="350.5" y="-117.5" font-family="Helvetica,sans-Serif" font-size="10.00">UserController.deleteAccount</text>
</a>
</g>
</g>
<!-- Node1&#45;&gt;Node2 -->
<g id="edge1" class="edge">
<title>Node1&#45;&gt;Node2</title>
<path fill="none" stroke="midnightblue" d="M494.58,-88.2C479.63,-92.29 463.77,-96.58 449,-100.5 436.67,-103.77 423.44,-107.21 410.83,-110.45"/>
<polygon fill="midnightblue" stroke="midnightblue" points="495.52,-91.57 504.24,-85.55 493.67,-84.82 495.52,-91.57"/>
</g>
<!-- Node3 -->
<g id="node3" class="node">
<title>Node3</title>
<g id="a_node3"><a xlink:href="classit_1_1unitn_1_1healthcore_1_1business_1_1AppointmentService.html#a6df398766f183e79fe315aea5f1752a4" target="_top" xlink:title=" ">
<polygon fill="white" stroke="black" points="252,-50 252,-91 449,-91 449,-50 252,-50"/>
<text text-anchor="start" x="260" y="-79" font-family="Helvetica,sans-Serif" font-size="10.00">it.unitn.healthcore.business.</text>
<text text-anchor="start" x="260" y="-68" font-family="Helvetica,sans-Serif" font-size="10.00">AppointmentService.getAppointment</text>
<text text-anchor="middle" x="350.5" y="-57" font-family="Helvetica,sans-Serif" font-size="10.00">Details</text>
</a>
</g>
</g>
<!-- Node1&#45;&gt;Node3 -->
<g id="edge2" class="edge">
<title>Node1&#45;&gt;Node3</title>
<path fill="none" stroke="midnightblue" d="M474.74,-70.5C466.29,-70.5 457.66,-70.5 449.08,-70.5"/>
<polygon fill="midnightblue" stroke="midnightblue" points="474.94,-74 484.94,-70.5 474.94,-67 474.94,-74"/>
</g>
<!-- Node6 -->
<g id="node6" class="node">
<title>Node6</title>
<g id="a_node6"><a xlink:href="classit_1_1unitn_1_1healthcore_1_1business_1_1PatientService.html#a541ee9273fd696797608c005eb4d2f78" target="_top" xlink:title=" ">
<polygon fill="white" stroke="black" points="255,-0.5 255,-30.5 446,-30.5 446,-0.5 255,-0.5"/>
<text text-anchor="start" x="263" y="-18.5" font-family="Helvetica,sans-Serif" font-size="10.00">it.unitn.healthcore.business.</text>
<text text-anchor="middle" x="350.5" y="-7.5" font-family="Helvetica,sans-Serif" font-size="10.00">PatientService.updateInsurancePlan</text>
</a>
</g>
</g>
<!-- Node1&#45;&gt;Node6 -->
<g id="edge5" class="edge">
<title>Node1&#45;&gt;Node6</title>
<path fill="none" stroke="midnightblue" d="M494.58,-52.8C479.63,-48.71 463.77,-44.42 449,-40.5 436.67,-37.23 423.44,-33.79 410.83,-30.55"/>
<polygon fill="midnightblue" stroke="midnightblue" points="493.67,-56.18 504.24,-55.45 495.52,-49.43 493.67,-56.18"/>
</g>
<!-- Node4 -->
<g id="node4" class="node">
<title>Node4</title>
<g id="a_node4"><a xlink:href="classit_1_1unitn_1_1healthcore_1_1controller_1_1DoctorController.html#aaf741f63621b758e3aab2e1af0639398" target="_top" xlink:title="Retrieves the details of a specific appointment by its ID.">
<polygon fill="white" stroke="black" points="0.5,-101.5 0.5,-131.5 215.5,-131.5 215.5,-101.5 0.5,-101.5"/>
<text text-anchor="start" x="8.5" y="-119.5" font-family="Helvetica,sans-Serif" font-size="10.00">it.unitn.healthcore.controller.</text>
<text text-anchor="middle" x="108" y="-108.5" font-family="Helvetica,sans-Serif" font-size="10.00">DoctorController.viewAppointmentDetail</text>
</a>
</g>
</g>
<!-- Node3&#45;&gt;Node4 -->
<g id="edge3" class="edge">
<title>Node3&#45;&gt;Node4</title>
<path fill="none" stroke="midnightblue" d="M241.62,-91.13C223.43,-94.61 204.85,-98.17 187.58,-101.47"/>
<polygon fill="midnightblue" stroke="midnightblue" points="242.52,-94.53 251.68,-89.21 241.2,-87.65 242.52,-94.53"/>
</g>
<!-- Node5 -->
<g id="node5" class="node">
<title>Node5</title>
<g id="a_node5"><a xlink:href="classit_1_1unitn_1_1healthcore_1_1controller_1_1PatientController.html#ac6fe0b7997f8668f80b25419c0d686c6" target="_top" xlink:title=" ">
<polygon fill="white" stroke="black" points="0,-52.5 0,-82.5 216,-82.5 216,-52.5 0,-52.5"/>
<text text-anchor="start" x="8" y="-70.5" font-family="Helvetica,sans-Serif" font-size="10.00">it.unitn.healthcore.controller.</text>
<text text-anchor="middle" x="108" y="-59.5" font-family="Helvetica,sans-Serif" font-size="10.00">PatientController.viewAppointmentDetail</text>
</a>
</g>
</g>
<!-- Node3&#45;&gt;Node5 -->
<g id="edge4" class="edge">
<title>Node3&#45;&gt;Node5</title>
<path fill="none" stroke="midnightblue" d="M241.47,-69.15C233.05,-69.05 224.56,-68.94 216.15,-68.84"/>
<polygon fill="midnightblue" stroke="midnightblue" points="241.64,-72.65 251.68,-69.28 241.72,-65.66 241.64,-72.65"/>
</g>
<!-- Node7 -->
<g id="node7" class="node">
<title>Node7</title>
<g id="a_node7"><a xlink:href="classit_1_1unitn_1_1healthcore_1_1controller_1_1PatientController.html#a7ff985e6a5601dbbef79fd420d2e54b4" target="_top" xlink:title=" ">
<polygon fill="white" stroke="black" points="6.5,-0.5 6.5,-30.5 209.5,-30.5 209.5,-0.5 6.5,-0.5"/>
<text text-anchor="start" x="14.5" y="-18.5" font-family="Helvetica,sans-Serif" font-size="10.00">it.unitn.healthcore.controller.</text>
<text text-anchor="middle" x="108" y="-7.5" font-family="Helvetica,sans-Serif" font-size="10.00">PatientController.updateInsurancePlan</text>
</a>
</g>
</g>
<!-- Node6&#45;&gt;Node7 -->
<g id="edge6" class="edge">
<title>Node6&#45;&gt;Node7</title>
<path fill="none" stroke="midnightblue" d="M244.62,-15.5C232.98,-15.5 221.15,-15.5 209.56,-15.5"/>
<polygon fill="midnightblue" stroke="midnightblue" points="244.79,-19 254.79,-15.5 244.79,-12 244.79,-19"/>
</g>
</g>
</svg>
