<?xml version="1.0" encoding="UTF-8" standalone="no"?>
<!DOCTYPE svg PUBLIC "-//W3C//DTD SVG 1.1//EN"
 "http://www.w3.org/Graphics/SVG/1.1/DTD/svg11.dtd">
<!-- Generated by graphviz version 2.43.0 (0)
 -->
<!-- Title: it.unitn.healthcore.controller.DoctorController.viewFutureAppointments Pages: 1 -->
<svg width="905pt" height="88pt"
 viewBox="0.00 0.00 905.00 88.00" xmlns="http://www.w3.org/2000/svg" xmlns:xlink="http://www.w3.org/1999/xlink">
<g id="graph0" class="graph" transform="scale(1 1) rotate(0) translate(4 84)">
<title>it.unitn.healthcore.controller.DoctorController.viewFutureAppointments</title>
<polygon fill="white" stroke="transparent" points="-4,4 -4,-84 901,-84 901,4 -4,4"/>
<!-- Node1 -->
<g id="node1" class="node">
<title>Node1</title>
<g id="a_node1"><a xlink:title="Retrieves a list of future appointments for the currently authenticated doctor.">
<polygon fill="#bfbfbf" stroke="black" points="0,-24.5 0,-54.5 221,-54.5 221,-24.5 0,-24.5"/>
<text text-anchor="start" x="8" y="-42.5" font-family="Helvetica,sans-Serif" font-size="10.00">it.unitn.healthcore.controller.</text>
<text text-anchor="middle" x="110.5" y="-31.5" font-family="Helvetica,sans-Serif" font-size="10.00">DoctorController.viewFutureAppointments</text>
</a>
</g>
</g>
<!-- Node2 -->
<g id="node2" class="node">
<title>Node2</title>
<g id="a_node2"><a xlink:href="classit_1_1unitn_1_1healthcore_1_1business_1_1AppointmentService.html#aed50e6f0cf3a16af4d8754c66060512d" target="_top" xlink:title=" ">
<polygon fill="white" stroke="black" points="257,-24.5 257,-54.5 490,-54.5 490,-24.5 257,-24.5"/>
<text text-anchor="start" x="265" y="-42.5" font-family="Helvetica,sans-Serif" font-size="10.00">it.unitn.healthcore.business.</text>
<text text-anchor="middle" x="373.5" y="-31.5" font-family="Helvetica,sans-Serif" font-size="10.00">AppointmentService.getFutureAppointments</text>
</a>
</g>
</g>
<!-- Node1&#45;&gt;Node2 -->
<g id="edge1" class="edge">
<title>Node1&#45;&gt;Node2</title>
<path fill="none" stroke="midnightblue" d="M221.05,-39.5C229.58,-39.5 238.22,-39.5 246.84,-39.5"/>
<polygon fill="midnightblue" stroke="midnightblue" points="246.93,-43 256.93,-39.5 246.93,-36 246.93,-43"/>
</g>
<!-- Node3 -->
<g id="node3" class="node">
<title>Node3</title>
<g id="a_node3"><a xlink:href="classit_1_1unitn_1_1healthcore_1_1business_1_1UserService.html#a33213d05bfda4e7384e17b18332d4bb5" target="_top" xlink:title=" ">
<polygon fill="white" stroke="black" points="526,-24.5 526,-54.5 681,-54.5 681,-24.5 526,-24.5"/>
<text text-anchor="start" x="534" y="-42.5" font-family="Helvetica,sans-Serif" font-size="10.00">it.unitn.healthcore.business.</text>
<text text-anchor="middle" x="603.5" y="-31.5" font-family="Helvetica,sans-Serif" font-size="10.00">UserService.getCurrentUser</text>
</a>
</g>
</g>
<!-- Node2&#45;&gt;Node3 -->
<g id="edge2" class="edge">
<title>Node2&#45;&gt;Node3</title>
<path fill="none" stroke="midnightblue" d="M490.17,-39.5C498.79,-39.5 507.4,-39.5 515.8,-39.5"/>
<polygon fill="midnightblue" stroke="midnightblue" points="515.92,-43 525.92,-39.5 515.92,-36 515.92,-43"/>
</g>
<!-- Node4 -->
<g id="node4" class="node">
<title>Node4</title>
<g id="a_node4"><a xlink:href="interfaceit_1_1unitn_1_1healthcore_1_1persistence_1_1UserRepository.html#a6a646ae44d01189ff44c81c03fc92fa8" target="_top" xlink:title=" ">
<polygon fill="white" stroke="black" points="720,-49.5 720,-79.5 894,-79.5 894,-49.5 720,-49.5"/>
<text text-anchor="start" x="728" y="-67.5" font-family="Helvetica,sans-Serif" font-size="10.00">it.unitn.healthcore.persistence.</text>
<text text-anchor="middle" x="807" y="-56.5" font-family="Helvetica,sans-Serif" font-size="10.00">UserRepository.findUserByEmail</text>
</a>
</g>
</g>
<!-- Node3&#45;&gt;Node4 -->
<g id="edge3" class="edge">
<title>Node3&#45;&gt;Node4</title>
<path fill="none" stroke="midnightblue" d="M681.25,-49.02C690.58,-50.18 700.2,-51.37 709.76,-52.56"/>
<polygon fill="midnightblue" stroke="midnightblue" points="709.34,-56.03 719.7,-53.79 710.2,-49.09 709.34,-56.03"/>
</g>
<!-- Node5 -->
<g id="node5" class="node">
<title>Node5</title>
<g id="a_node5"><a xlink:href="classit_1_1unitn_1_1healthcore_1_1business_1_1UserService.html#a703ed9778e3ac6cd9741220089b5f48d" target="_top" xlink:title=" ">
<polygon fill="white" stroke="black" points="717,-0.5 717,-30.5 897,-30.5 897,-0.5 717,-0.5"/>
<text text-anchor="start" x="725" y="-18.5" font-family="Helvetica,sans-Serif" font-size="10.00">it.unitn.healthcore.business.</text>
<text text-anchor="middle" x="807" y="-7.5" font-family="Helvetica,sans-Serif" font-size="10.00">UserService.getCurrentUserEmail</text>
</a>
</g>
</g>
<!-- Node3&#45;&gt;Node5 -->
<g id="edge4" class="edge">
<title>Node3&#45;&gt;Node5</title>
<path fill="none" stroke="midnightblue" d="M681.25,-30.36C689.65,-29.36 698.28,-28.33 706.89,-27.3"/>
<polygon fill="midnightblue" stroke="midnightblue" points="707.46,-30.76 716.98,-26.1 706.63,-23.81 707.46,-30.76"/>
</g>
</g>
</svg>
