<?xml version="1.0" encoding="UTF-8" standalone="no"?>
<!DOCTYPE svg PUBLIC "-//W3C//DTD SVG 1.1//EN"
 "http://www.w3.org/Graphics/SVG/1.1/DTD/svg11.dtd">
<!-- Generated by graphviz version 2.43.0 (0)
 -->
<!-- Title: it.unitn.healthcore.domain.PatientRegistrationForm.getName Pages: 1 -->
<svg width="575pt" height="39pt"
 viewBox="0.00 0.00 575.00 39.00" xmlns="http://www.w3.org/2000/svg" xmlns:xlink="http://www.w3.org/1999/xlink">
<g id="graph0" class="graph" transform="scale(1 1) rotate(0) translate(4 35)">
<title>it.unitn.healthcore.domain.PatientRegistrationForm.getName</title>
<polygon fill="white" stroke="transparent" points="-4,4 -4,-35 571,-35 571,4 -4,4"/>
<!-- Node1 -->
<g id="node1" class="node">
<title>Node1</title>
<g id="a_node1"><a xlink:title="Creates a PatientRegistrationForm with the specified details, without healthcare card number.">
<polygon fill="#bfbfbf" stroke="black" points="385,-0.5 385,-30.5 567,-30.5 567,-0.5 385,-0.5"/>
<text text-anchor="start" x="393" y="-18.5" font-family="Helvetica,sans-Serif" font-size="10.00">it.unitn.healthcore.domain.</text>
<text text-anchor="middle" x="476" y="-7.5" font-family="Helvetica,sans-Serif" font-size="10.00">PatientRegistrationForm.getName</text>
</a>
</g>
</g>
<!-- Node2 -->
<g id="node2" class="node">
<title>Node2</title>
<g id="a_node2"><a xlink:href="classit_1_1unitn_1_1healthcore_1_1business_1_1UserService.html#a32dba226bff5fb3cd0caf79303b71d38" target="_top" xlink:title=" ">
<polygon fill="white" stroke="black" points="194,-0.5 194,-30.5 349,-30.5 349,-0.5 194,-0.5"/>
<text text-anchor="start" x="202" y="-18.5" font-family="Helvetica,sans-Serif" font-size="10.00">it.unitn.healthcore.business.</text>
<text text-anchor="middle" x="271.5" y="-7.5" font-family="Helvetica,sans-Serif" font-size="10.00">UserService.registerPatient</text>
</a>
</g>
</g>
<!-- Node1&#45;&gt;Node2 -->
<g id="edge1" class="edge">
<title>Node1&#45;&gt;Node2</title>
<path fill="none" stroke="midnightblue" d="M374.62,-15.5C366.01,-15.5 357.39,-15.5 349.01,-15.5"/>
<polygon fill="midnightblue" stroke="midnightblue" points="374.71,-19 384.71,-15.5 374.71,-12 374.71,-19"/>
</g>
<!-- Node3 -->
<g id="node3" class="node">
<title>Node3</title>
<g id="a_node3"><a xlink:href="classit_1_1unitn_1_1healthcore_1_1controller_1_1UserController.html#a2afa05c30a08ef688e1e3b89ca1f8774" target="_top" xlink:title=" ">
<polygon fill="white" stroke="black" points="0,-0.5 0,-30.5 158,-30.5 158,-0.5 0,-0.5"/>
<text text-anchor="start" x="8" y="-18.5" font-family="Helvetica,sans-Serif" font-size="10.00">it.unitn.healthcore.controller.</text>
<text text-anchor="middle" x="79" y="-7.5" font-family="Helvetica,sans-Serif" font-size="10.00">UserController.addPatient</text>
</a>
</g>
</g>
<!-- Node2&#45;&gt;Node3 -->
<g id="edge2" class="edge">
<title>Node2&#45;&gt;Node3</title>
<path fill="none" stroke="midnightblue" d="M183.82,-15.5C175.23,-15.5 166.55,-15.5 158.06,-15.5"/>
<polygon fill="midnightblue" stroke="midnightblue" points="183.84,-19 193.84,-15.5 183.84,-12 183.84,-19"/>
</g>
</g>
</svg>
