<?xml version="1.0" encoding="UTF-8" standalone="no"?>
<!DOCTYPE svg PUBLIC "-//W3C//DTD SVG 1.1//EN"
 "http://www.w3.org/Graphics/SVG/1.1/DTD/svg11.dtd">
<!-- Generated by graphviz version 2.43.0 (0)
 -->
<!-- Title: it.unitn.healthcore.domain.User.getId Pages: 1 -->
<svg width="642pt" height="247pt"
 viewBox="0.00 0.00 642.00 247.00" xmlns="http://www.w3.org/2000/svg" xmlns:xlink="http://www.w3.org/1999/xlink">
<g id="graph0" class="graph" transform="scale(1 1) rotate(0) translate(4 243)">
<title>it.unitn.healthcore.domain.User.getId</title>
<polygon fill="white" stroke="transparent" points="-4,4 -4,-243 638,-243 638,4 -4,4"/>
<!-- Node1 -->
<g id="node1" class="node">
<title>Node1</title>
<g id="a_node1"><a xlink:title="Returns a string representation of the User.">
<polygon fill="#bfbfbf" stroke="black" points="485,-104.5 485,-134.5 634,-134.5 634,-104.5 485,-104.5"/>
<text text-anchor="start" x="493" y="-122.5" font-family="Helvetica,sans-Serif" font-size="10.00">it.unitn.healthcore.domain.</text>
<text text-anchor="middle" x="559.5" y="-111.5" font-family="Helvetica,sans-Serif" font-size="10.00">User.getId</text>
</a>
</g>
</g>
<!-- Node2 -->
<g id="node2" class="node">
<title>Node2</title>
<g id="a_node2"><a xlink:href="classit_1_1unitn_1_1healthcore_1_1business_1_1PatientService.html#a7f10372a6537c0f235e585bdb8b87c30" target="_top" xlink:title="Cancels an existing appointment for the currently authenticated patient.">
<polygon fill="white" stroke="black" points="258.5,-208.5 258.5,-238.5 442.5,-238.5 442.5,-208.5 258.5,-208.5"/>
<text text-anchor="start" x="266.5" y="-226.5" font-family="Helvetica,sans-Serif" font-size="10.00">it.unitn.healthcore.business.</text>
<text text-anchor="middle" x="350.5" y="-215.5" font-family="Helvetica,sans-Serif" font-size="10.00">PatientService.cancelAppointment</text>
</a>
</g>
</g>
<!-- Node1&#45;&gt;Node2 -->
<g id="edge1" class="edge">
<title>Node1&#45;&gt;Node2</title>
<path fill="none" stroke="midnightblue" d="M534.22,-141.59C513.13,-159.65 481.03,-184.57 449,-199.5 441.65,-202.92 433.76,-205.9 425.76,-208.47"/>
<polygon fill="midnightblue" stroke="midnightblue" points="536.78,-144 542.01,-134.79 532.18,-138.73 536.78,-144"/>
</g>
<!-- Node4 -->
<g id="node4" class="node">
<title>Node4</title>
<g id="a_node4"><a xlink:href="classit_1_1unitn_1_1healthcore_1_1controller_1_1UserController.html#aa9d85586ed83e4d9865621769e24fd81" target="_top" xlink:title="delete the current user&#39;s account and redirect to the login page.">
<polygon fill="white" stroke="black" points="271,-159.5 271,-189.5 430,-189.5 430,-159.5 271,-159.5"/>
<text text-anchor="start" x="279" y="-177.5" font-family="Helvetica,sans-Serif" font-size="10.00">it.unitn.healthcore.controller.</text>
<text text-anchor="middle" x="350.5" y="-166.5" font-family="Helvetica,sans-Serif" font-size="10.00">UserController.deleteAccount</text>
</a>
</g>
</g>
<!-- Node1&#45;&gt;Node4 -->
<g id="edge3" class="edge">
<title>Node1&#45;&gt;Node4</title>
<path fill="none" stroke="midnightblue" d="M494.58,-137.2C479.63,-141.29 463.77,-145.58 449,-149.5 436.67,-152.77 423.44,-156.21 410.83,-159.45"/>
<polygon fill="midnightblue" stroke="midnightblue" points="495.52,-140.57 504.24,-134.55 493.67,-133.82 495.52,-140.57"/>
</g>
<!-- Node5 -->
<g id="node5" class="node">
<title>Node5</title>
<g id="a_node5"><a xlink:href="classit_1_1unitn_1_1healthcore_1_1business_1_1AppointmentService.html#a6df398766f183e79fe315aea5f1752a4" target="_top" xlink:title="Retrieves detailed information about a specific appointment based on the appointment ID.">
<polygon fill="white" stroke="black" points="252,-99 252,-140 449,-140 449,-99 252,-99"/>
<text text-anchor="start" x="260" y="-128" font-family="Helvetica,sans-Serif" font-size="10.00">it.unitn.healthcore.business.</text>
<text text-anchor="start" x="260" y="-117" font-family="Helvetica,sans-Serif" font-size="10.00">AppointmentService.getAppointment</text>
<text text-anchor="middle" x="350.5" y="-106" font-family="Helvetica,sans-Serif" font-size="10.00">Details</text>
</a>
</g>
</g>
<!-- Node1&#45;&gt;Node5 -->
<g id="edge4" class="edge">
<title>Node1&#45;&gt;Node5</title>
<path fill="none" stroke="midnightblue" d="M474.74,-119.5C466.29,-119.5 457.66,-119.5 449.08,-119.5"/>
<polygon fill="midnightblue" stroke="midnightblue" points="474.94,-123 484.94,-119.5 474.94,-116 474.94,-123"/>
</g>
<!-- Node8 -->
<g id="node8" class="node">
<title>Node8</title>
<g id="a_node8"><a xlink:href="classit_1_1unitn_1_1healthcore_1_1business_1_1PatientService.html#ab8266c492da03f9b5e38829e698129c6" target="_top" xlink:title="Modifies an existing appointment for the currently authenticated patient.">
<polygon fill="white" stroke="black" points="257.5,-49.5 257.5,-79.5 443.5,-79.5 443.5,-49.5 257.5,-49.5"/>
<text text-anchor="start" x="265.5" y="-67.5" font-family="Helvetica,sans-Serif" font-size="10.00">it.unitn.healthcore.business.</text>
<text text-anchor="middle" x="350.5" y="-56.5" font-family="Helvetica,sans-Serif" font-size="10.00">PatientService.modifyAppointment</text>
</a>
</g>
</g>
<!-- Node1&#45;&gt;Node8 -->
<g id="edge7" class="edge">
<title>Node1&#45;&gt;Node8</title>
<path fill="none" stroke="midnightblue" d="M494.58,-101.8C479.63,-97.71 463.77,-93.42 449,-89.5 436.67,-86.23 423.44,-82.79 410.83,-79.55"/>
<polygon fill="midnightblue" stroke="midnightblue" points="493.67,-105.18 504.24,-104.45 495.52,-98.43 493.67,-105.18"/>
</g>
<!-- Node10 -->
<g id="node10" class="node">
<title>Node10</title>
<g id="a_node10"><a xlink:href="classit_1_1unitn_1_1healthcore_1_1business_1_1PatientService.html#a541ee9273fd696797608c005eb4d2f78" target="_top" xlink:title="Updates the insurance plan for the currently authenticated patient.">
<polygon fill="white" stroke="black" points="255,-0.5 255,-30.5 446,-30.5 446,-0.5 255,-0.5"/>
<text text-anchor="start" x="263" y="-18.5" font-family="Helvetica,sans-Serif" font-size="10.00">it.unitn.healthcore.business.</text>
<text text-anchor="middle" x="350.5" y="-7.5" font-family="Helvetica,sans-Serif" font-size="10.00">PatientService.updateInsurancePlan</text>
</a>
</g>
</g>
<!-- Node1&#45;&gt;Node10 -->
<g id="edge9" class="edge">
<title>Node1&#45;&gt;Node10</title>
<path fill="none" stroke="midnightblue" d="M534.22,-97.41C513.13,-79.35 481.03,-54.43 449,-39.5 441.65,-36.08 433.76,-33.1 425.76,-30.53"/>
<polygon fill="midnightblue" stroke="midnightblue" points="532.18,-100.27 542.01,-104.21 536.78,-95 532.18,-100.27"/>
</g>
<!-- Node3 -->
<g id="node3" class="node">
<title>Node3</title>
<g id="a_node3"><a xlink:href="classit_1_1unitn_1_1healthcore_1_1controller_1_1PatientController.html#a3a3ac977996cfd51ff42b9386dccc075" target="_top" xlink:title="Cancels an existing appointment for the authenticated patient.">
<polygon fill="white" stroke="black" points="10.5,-208.5 10.5,-238.5 205.5,-238.5 205.5,-208.5 10.5,-208.5"/>
<text text-anchor="start" x="18.5" y="-226.5" font-family="Helvetica,sans-Serif" font-size="10.00">it.unitn.healthcore.controller.</text>
<text text-anchor="middle" x="108" y="-215.5" font-family="Helvetica,sans-Serif" font-size="10.00">PatientController.cancelAppointment</text>
</a>
</g>
</g>
<!-- Node2&#45;&gt;Node3 -->
<g id="edge2" class="edge">
<title>Node2&#45;&gt;Node3</title>
<path fill="none" stroke="midnightblue" d="M248.11,-223.5C234.1,-223.5 219.74,-223.5 205.81,-223.5"/>
<polygon fill="midnightblue" stroke="midnightblue" points="248.23,-227 258.23,-223.5 248.23,-220 248.23,-227"/>
</g>
<!-- Node6 -->
<g id="node6" class="node">
<title>Node6</title>
<g id="a_node6"><a xlink:href="classit_1_1unitn_1_1healthcore_1_1controller_1_1DoctorController.html#aaf741f63621b758e3aab2e1af0639398" target="_top" xlink:title="Retrieves the details of a specific appointment by its ID.">
<polygon fill="white" stroke="black" points="0.5,-150.5 0.5,-180.5 215.5,-180.5 215.5,-150.5 0.5,-150.5"/>
<text text-anchor="start" x="8.5" y="-168.5" font-family="Helvetica,sans-Serif" font-size="10.00">it.unitn.healthcore.controller.</text>
<text text-anchor="middle" x="108" y="-157.5" font-family="Helvetica,sans-Serif" font-size="10.00">DoctorController.viewAppointmentDetail</text>
</a>
</g>
</g>
<!-- Node5&#45;&gt;Node6 -->
<g id="edge5" class="edge">
<title>Node5&#45;&gt;Node6</title>
<path fill="none" stroke="midnightblue" d="M241.62,-140.13C223.43,-143.61 204.85,-147.17 187.58,-150.47"/>
<polygon fill="midnightblue" stroke="midnightblue" points="242.52,-143.53 251.68,-138.21 241.2,-136.65 242.52,-143.53"/>
</g>
<!-- Node7 -->
<g id="node7" class="node">
<title>Node7</title>
<g id="a_node7"><a xlink:href="classit_1_1unitn_1_1healthcore_1_1controller_1_1PatientController.html#ac6fe0b7997f8668f80b25419c0d686c6" target="_top" xlink:title="Retrieves the details of a specific appointment by its ID.">
<polygon fill="white" stroke="black" points="0,-101.5 0,-131.5 216,-131.5 216,-101.5 0,-101.5"/>
<text text-anchor="start" x="8" y="-119.5" font-family="Helvetica,sans-Serif" font-size="10.00">it.unitn.healthcore.controller.</text>
<text text-anchor="middle" x="108" y="-108.5" font-family="Helvetica,sans-Serif" font-size="10.00">PatientController.viewAppointmentDetail</text>
</a>
</g>
</g>
<!-- Node5&#45;&gt;Node7 -->
<g id="edge6" class="edge">
<title>Node5&#45;&gt;Node7</title>
<path fill="none" stroke="midnightblue" d="M241.47,-118.15C233.05,-118.05 224.56,-117.94 216.15,-117.84"/>
<polygon fill="midnightblue" stroke="midnightblue" points="241.64,-121.65 251.68,-118.28 241.72,-114.66 241.64,-121.65"/>
</g>
<!-- Node9 -->
<g id="node9" class="node">
<title>Node9</title>
<g id="a_node9"><a xlink:href="classit_1_1unitn_1_1healthcore_1_1controller_1_1PatientController.html#af370cd8f9baad62995675426371b349c" target="_top" xlink:title="Modifies the details of an existing appointment for the authenticated patient.">
<polygon fill="white" stroke="black" points="9.5,-49.5 9.5,-79.5 206.5,-79.5 206.5,-49.5 9.5,-49.5"/>
<text text-anchor="start" x="17.5" y="-67.5" font-family="Helvetica,sans-Serif" font-size="10.00">it.unitn.healthcore.controller.</text>
<text text-anchor="middle" x="108" y="-56.5" font-family="Helvetica,sans-Serif" font-size="10.00">PatientController.modifyAppointment</text>
</a>
</g>
</g>
<!-- Node8&#45;&gt;Node9 -->
<g id="edge8" class="edge">
<title>Node8&#45;&gt;Node9</title>
<path fill="none" stroke="midnightblue" d="M247.03,-64.5C233.64,-64.5 219.95,-64.5 206.64,-64.5"/>
<polygon fill="midnightblue" stroke="midnightblue" points="247.2,-68 257.2,-64.5 247.2,-61 247.2,-68"/>
</g>
<!-- Node11 -->
<g id="node11" class="node">
<title>Node11</title>
<g id="a_node11"><a xlink:href="classit_1_1unitn_1_1healthcore_1_1controller_1_1PatientController.html#a7ff985e6a5601dbbef79fd420d2e54b4" target="_top" xlink:title="Retrieves the current insurance plan of the authenticated patient.">
<polygon fill="white" stroke="black" points="6.5,-0.5 6.5,-30.5 209.5,-30.5 209.5,-0.5 6.5,-0.5"/>
<text text-anchor="start" x="14.5" y="-18.5" font-family="Helvetica,sans-Serif" font-size="10.00">it.unitn.healthcore.controller.</text>
<text text-anchor="middle" x="108" y="-7.5" font-family="Helvetica,sans-Serif" font-size="10.00">PatientController.updateInsurancePlan</text>
</a>
</g>
</g>
<!-- Node10&#45;&gt;Node11 -->
<g id="edge10" class="edge">
<title>Node10&#45;&gt;Node11</title>
<path fill="none" stroke="midnightblue" d="M244.62,-15.5C232.98,-15.5 221.15,-15.5 209.56,-15.5"/>
<polygon fill="midnightblue" stroke="midnightblue" points="244.79,-19 254.79,-15.5 244.79,-12 244.79,-19"/>
</g>
</g>
</svg>
