<?xml version="1.0" encoding="UTF-8" standalone="no"?>
<!DOCTYPE svg PUBLIC "-//W3C//DTD SVG 1.1//EN"
 "http://www.w3.org/Graphics/SVG/1.1/DTD/svg11.dtd">
<!-- Generated by graphviz version 2.43.0 (0)
 -->
<!-- Title: it.unitn.healthcore.controller.UserController.recoverPassword Pages: 1 -->
<svg width="628pt" height="186pt"
 viewBox="0.00 0.00 628.00 186.00" xmlns="http://www.w3.org/2000/svg" xmlns:xlink="http://www.w3.org/1999/xlink">
<g id="graph0" class="graph" transform="scale(1 1) rotate(0) translate(4 182)">
<title>it.unitn.healthcore.controller.UserController.recoverPassword</title>
<polygon fill="white" stroke="transparent" points="-4,4 -4,-182 624,-182 624,4 -4,4"/>
<!-- Node1 -->
<g id="node1" class="node">
<title>Node1</title>
<g id="a_node1"><a xlink:title="handle the password recovery request by sending an OTP to the user&#39;s email and redirecting to the OTP...">
<polygon fill="#bfbfbf" stroke="black" points="0,-73.5 0,-103.5 172,-103.5 172,-73.5 0,-73.5"/>
<text text-anchor="start" x="8" y="-91.5" font-family="Helvetica,sans-Serif" font-size="10.00">it.unitn.healthcore.controller.</text>
<text text-anchor="middle" x="86" y="-80.5" font-family="Helvetica,sans-Serif" font-size="10.00">UserController.recoverPassword</text>
</a>
</g>
</g>
<!-- Node2 -->
<g id="node2" class="node">
<title>Node2</title>
<g id="a_node2"><a xlink:href="classit_1_1unitn_1_1healthcore_1_1business_1_1UserService.html#acc1ae5218e790edcc69ad692c84871a2" target="_top" xlink:title=" ">
<polygon fill="white" stroke="black" points="208,-73.5 208,-103.5 369,-103.5 369,-73.5 208,-73.5"/>
<text text-anchor="start" x="216" y="-91.5" font-family="Helvetica,sans-Serif" font-size="10.00">it.unitn.healthcore.business.</text>
<text text-anchor="middle" x="288.5" y="-80.5" font-family="Helvetica,sans-Serif" font-size="10.00">UserService.recoverPassword</text>
</a>
</g>
</g>
<!-- Node1&#45;&gt;Node2 -->
<g id="edge1" class="edge">
<title>Node1&#45;&gt;Node2</title>
<path fill="none" stroke="midnightblue" d="M172.03,-88.5C180.45,-88.5 189.02,-88.5 197.49,-88.5"/>
<polygon fill="midnightblue" stroke="midnightblue" points="197.76,-92 207.76,-88.5 197.76,-85 197.76,-92"/>
</g>
<!-- Node3 -->
<g id="node3" class="node">
<title>Node3</title>
<g id="a_node3"><a xlink:href="interfaceit_1_1unitn_1_1healthcore_1_1persistence_1_1UserRepository.html#a6a646ae44d01189ff44c81c03fc92fa8" target="_top" xlink:title=" ">
<polygon fill="white" stroke="black" points="425.5,-147.5 425.5,-177.5 599.5,-177.5 599.5,-147.5 425.5,-147.5"/>
<text text-anchor="start" x="433.5" y="-165.5" font-family="Helvetica,sans-Serif" font-size="10.00">it.unitn.healthcore.persistence.</text>
<text text-anchor="middle" x="512.5" y="-154.5" font-family="Helvetica,sans-Serif" font-size="10.00">UserRepository.findUserByEmail</text>
</a>
</g>
</g>
<!-- Node2&#45;&gt;Node3 -->
<g id="edge2" class="edge">
<title>Node2&#45;&gt;Node3</title>
<path fill="none" stroke="midnightblue" d="M320.26,-103.69C343.19,-114.55 375.5,-128.88 405,-138.5 411.94,-140.76 419.2,-142.89 426.53,-144.86"/>
<polygon fill="midnightblue" stroke="midnightblue" points="425.98,-148.34 436.54,-147.47 427.74,-141.56 425.98,-148.34"/>
</g>
<!-- Node4 -->
<g id="node4" class="node">
<title>Node4</title>
<g id="a_node4"><a xlink:href="classit_1_1unitn_1_1healthcore_1_1domain_1_1PasswordConfirmationForm.html#ad2a321af868704e56c42d5306a8acd91" target="_top" xlink:title="Email getter.">
<polygon fill="white" stroke="black" points="414,-98.5 414,-128.5 611,-128.5 611,-98.5 414,-98.5"/>
<text text-anchor="start" x="422" y="-116.5" font-family="Helvetica,sans-Serif" font-size="10.00">it.unitn.healthcore.domain.</text>
<text text-anchor="middle" x="512.5" y="-105.5" font-family="Helvetica,sans-Serif" font-size="10.00">PasswordConfirmationForm.getEmail</text>
</a>
</g>
</g>
<!-- Node2&#45;&gt;Node4 -->
<g id="edge3" class="edge">
<title>Node2&#45;&gt;Node4</title>
<path fill="none" stroke="midnightblue" d="M369.02,-97.45C380.28,-98.72 392.01,-100.04 403.69,-101.36"/>
<polygon fill="midnightblue" stroke="midnightblue" points="403.6,-104.87 413.93,-102.51 404.39,-97.92 403.6,-104.87"/>
</g>
<!-- Node5 -->
<g id="node5" class="node">
<title>Node5</title>
<g id="a_node5"><a xlink:href="classit_1_1unitn_1_1healthcore_1_1domain_1_1PasswordConfirmationForm.html#aa7de23a583db33eba13ddecad973ceca" target="_top" xlink:title="Password getter.">
<polygon fill="white" stroke="black" points="405,-49.5 405,-79.5 620,-79.5 620,-49.5 405,-49.5"/>
<text text-anchor="start" x="413" y="-67.5" font-family="Helvetica,sans-Serif" font-size="10.00">it.unitn.healthcore.domain.</text>
<text text-anchor="middle" x="512.5" y="-56.5" font-family="Helvetica,sans-Serif" font-size="10.00">PasswordConfirmationForm.getPassword</text>
</a>
</g>
</g>
<!-- Node2&#45;&gt;Node5 -->
<g id="edge4" class="edge">
<title>Node2&#45;&gt;Node5</title>
<path fill="none" stroke="midnightblue" d="M369.02,-79.9C377.34,-79 385.91,-78.08 394.53,-77.15"/>
<polygon fill="midnightblue" stroke="midnightblue" points="395.1,-80.6 404.66,-76.05 394.34,-73.65 395.1,-80.6"/>
</g>
<!-- Node6 -->
<g id="node6" class="node">
<title>Node6</title>
<g id="a_node6"><a xlink:href="classit_1_1unitn_1_1healthcore_1_1domain_1_1User.html#aae0addd4b63049c29c751a6c03e17f2c" target="_top" xlink:title="Sets the password of the user.">
<polygon fill="white" stroke="black" points="438,-0.5 438,-30.5 587,-30.5 587,-0.5 438,-0.5"/>
<text text-anchor="start" x="446" y="-18.5" font-family="Helvetica,sans-Serif" font-size="10.00">it.unitn.healthcore.domain.</text>
<text text-anchor="middle" x="512.5" y="-7.5" font-family="Helvetica,sans-Serif" font-size="10.00">User.setPassword</text>
</a>
</g>
</g>
<!-- Node2&#45;&gt;Node6 -->
<g id="edge5" class="edge">
<title>Node2&#45;&gt;Node6</title>
<path fill="none" stroke="midnightblue" d="M321.82,-73.4C344.69,-63.13 376.28,-49.77 405,-40.5 413.21,-37.85 421.85,-35.35 430.53,-33.04"/>
<polygon fill="midnightblue" stroke="midnightblue" points="431.5,-36.4 440.31,-30.51 429.75,-29.63 431.5,-36.4"/>
</g>
</g>
</svg>
