<?xml version="1.0" encoding="UTF-8" standalone="no"?>
<!DOCTYPE svg PUBLIC "-//W3C//DTD SVG 1.1//EN"
 "http://www.w3.org/Graphics/SVG/1.1/DTD/svg11.dtd">
<!-- Generated by graphviz version 2.43.0 (0)
 -->
<!-- Title: it.unitn.healthcore.domain.User.getName Pages: 1 -->
<svg width="552pt" height="137pt"
 viewBox="0.00 0.00 552.00 137.00" xmlns="http://www.w3.org/2000/svg" xmlns:xlink="http://www.w3.org/1999/xlink">
<g id="graph0" class="graph" transform="scale(1 1) rotate(0) translate(4 133)">
<title>it.unitn.healthcore.domain.User.getName</title>
<polygon fill="white" stroke="transparent" points="-4,4 -4,-133 548,-133 548,4 -4,4"/>
<!-- Node1 -->
<g id="node1" class="node">
<title>Node1</title>
<g id="a_node1"><a xlink:title=" ">
<polygon fill="#bfbfbf" stroke="black" points="395,-49.5 395,-79.5 544,-79.5 544,-49.5 395,-49.5"/>
<text text-anchor="start" x="403" y="-67.5" font-family="Helvetica,sans-Serif" font-size="10.00">it.unitn.healthcore.domain.</text>
<text text-anchor="middle" x="469.5" y="-56.5" font-family="Helvetica,sans-Serif" font-size="10.00">User.getName</text>
</a>
</g>
</g>
<!-- Node2 -->
<g id="node2" class="node">
<title>Node2</title>
<g id="a_node2"><a xlink:href="classit_1_1unitn_1_1healthcore_1_1business_1_1UserService.html#acc8ce128197ab98ad15545286cabeba8" target="_top" xlink:title=" ">
<polygon fill="white" stroke="black" points="199,-98.5 199,-128.5 354,-128.5 354,-98.5 199,-98.5"/>
<text text-anchor="start" x="207" y="-116.5" font-family="Helvetica,sans-Serif" font-size="10.00">it.unitn.healthcore.business.</text>
<text text-anchor="middle" x="276.5" y="-105.5" font-family="Helvetica,sans-Serif" font-size="10.00">UserService.updateUser</text>
</a>
</g>
</g>
<!-- Node1&#45;&gt;Node2 -->
<g id="edge1" class="edge">
<title>Node1&#45;&gt;Node2</title>
<path fill="none" stroke="midnightblue" d="M400.09,-82.05C379.12,-87.43 356.24,-93.3 335.99,-98.49"/>
<polygon fill="midnightblue" stroke="midnightblue" points="401.08,-85.41 409.9,-79.53 399.34,-78.63 401.08,-85.41"/>
</g>
<!-- Node4 -->
<g id="node4" class="node">
<title>Node4</title>
<g id="a_node4"><a xlink:href="classit_1_1unitn_1_1healthcore_1_1business_1_1UserService.html#a114823fda5c213bb46bc935608bb8953" target="_top" xlink:title=" ">
<polygon fill="white" stroke="black" points="194,-49.5 194,-79.5 359,-79.5 359,-49.5 194,-49.5"/>
<text text-anchor="start" x="202" y="-67.5" font-family="Helvetica,sans-Serif" font-size="10.00">it.unitn.healthcore.business.</text>
<text text-anchor="middle" x="276.5" y="-56.5" font-family="Helvetica,sans-Serif" font-size="10.00">UserService.updateUserProfile</text>
</a>
</g>
</g>
<!-- Node1&#45;&gt;Node4 -->
<g id="edge3" class="edge">
<title>Node1&#45;&gt;Node4</title>
<path fill="none" stroke="midnightblue" d="M384.71,-64.5C376.28,-64.5 367.71,-64.5 359.3,-64.5"/>
<polygon fill="midnightblue" stroke="midnightblue" points="384.93,-68 394.93,-64.5 384.93,-61 384.93,-68"/>
</g>
<!-- Node6 -->
<g id="node6" class="node">
<title>Node6</title>
<g id="a_node6"><a xlink:href="classit_1_1unitn_1_1healthcore_1_1controller_1_1UserController.html#a72a0e87005b1b6a91822302d4888d3cf" target="_top" xlink:title=" ">
<polygon fill="white" stroke="black" points="194.5,-0.5 194.5,-30.5 358.5,-30.5 358.5,-0.5 194.5,-0.5"/>
<text text-anchor="start" x="202.5" y="-18.5" font-family="Helvetica,sans-Serif" font-size="10.00">it.unitn.healthcore.controller.</text>
<text text-anchor="middle" x="276.5" y="-7.5" font-family="Helvetica,sans-Serif" font-size="10.00">UserController.userHomepage</text>
</a>
</g>
</g>
<!-- Node1&#45;&gt;Node6 -->
<g id="edge5" class="edge">
<title>Node1&#45;&gt;Node6</title>
<path fill="none" stroke="midnightblue" d="M400.09,-46.95C379.12,-41.57 356.24,-35.7 335.99,-30.51"/>
<polygon fill="midnightblue" stroke="midnightblue" points="399.34,-50.37 409.9,-49.47 401.08,-43.59 399.34,-50.37"/>
</g>
<!-- Node3 -->
<g id="node3" class="node">
<title>Node3</title>
<g id="a_node3"><a xlink:href="classit_1_1unitn_1_1healthcore_1_1controller_1_1UserController.html#a9ef12b4b42af0b8c47a79e8bc06de976" target="_top" xlink:title=" ">
<polygon fill="white" stroke="black" points="0,-98.5 0,-128.5 158,-128.5 158,-98.5 0,-98.5"/>
<text text-anchor="start" x="8" y="-116.5" font-family="Helvetica,sans-Serif" font-size="10.00">it.unitn.healthcore.controller.</text>
<text text-anchor="middle" x="79" y="-105.5" font-family="Helvetica,sans-Serif" font-size="10.00">UserController.updateUser</text>
</a>
</g>
</g>
<!-- Node2&#45;&gt;Node3 -->
<g id="edge2" class="edge">
<title>Node2&#45;&gt;Node3</title>
<path fill="none" stroke="midnightblue" d="M188.68,-113.5C178.49,-113.5 168.15,-113.5 158.09,-113.5"/>
<polygon fill="midnightblue" stroke="midnightblue" points="188.79,-117 198.79,-113.5 188.79,-110 188.79,-117"/>
</g>
<!-- Node5 -->
<g id="node5" class="node">
<title>Node5</title>
<g id="a_node5"><a xlink:href="classit_1_1unitn_1_1healthcore_1_1controller_1_1UserController.html#acd7b4fd033c7ae0b42644c3932e6867f" target="_top" xlink:title=" ">
<polygon fill="white" stroke="black" points="0,-49.5 0,-79.5 158,-79.5 158,-49.5 0,-49.5"/>
<text text-anchor="start" x="8" y="-67.5" font-family="Helvetica,sans-Serif" font-size="10.00">it.unitn.healthcore.controller.</text>
<text text-anchor="middle" x="79" y="-56.5" font-family="Helvetica,sans-Serif" font-size="10.00">UserController.updateProfile</text>
</a>
</g>
</g>
<!-- Node4&#45;&gt;Node5 -->
<g id="edge4" class="edge">
<title>Node4&#45;&gt;Node5</title>
<path fill="none" stroke="midnightblue" d="M183.69,-64.5C175.1,-64.5 166.45,-64.5 158.01,-64.5"/>
<polygon fill="midnightblue" stroke="midnightblue" points="183.72,-68 193.72,-64.5 183.72,-61 183.72,-68"/>
</g>
</g>
</svg>
