<?xml version="1.0" encoding="UTF-8" standalone="no"?>
<!DOCTYPE svg PUBLIC "-//W3C//DTD SVG 1.1//EN"
 "http://www.w3.org/Graphics/SVG/1.1/DTD/svg11.dtd">
<!-- Generated by graphviz version 2.43.0 (0)
 -->
<!-- Title: it.unitn.healthcore.controller.PatientController.bookAppointment Pages: 1 -->
<svg width="848pt" height="617pt"
 viewBox="0.00 0.00 848.00 617.00" xmlns="http://www.w3.org/2000/svg" xmlns:xlink="http://www.w3.org/1999/xlink">
<g id="graph0" class="graph" transform="scale(1 1) rotate(0) translate(4 613)">
<title>it.unitn.healthcore.controller.PatientController.bookAppointment</title>
<polygon fill="white" stroke="transparent" points="-4,4 -4,-613 844,-613 844,4 -4,4"/>
<!-- Node1 -->
<g id="node1" class="node">
<title>Node1</title>
<g id="a_node1"><a xlink:title="Books an appointment with a specified doctor for the authenticated patient.">
<polygon fill="#bfbfbf" stroke="black" points="0,-269.5 0,-299.5 188,-299.5 188,-269.5 0,-269.5"/>
<text text-anchor="start" x="8" y="-287.5" font-family="Helvetica,sans-Serif" font-size="10.00">it.unitn.healthcore.controller.</text>
<text text-anchor="middle" x="94" y="-276.5" font-family="Helvetica,sans-Serif" font-size="10.00">PatientController.bookAppointment</text>
</a>
</g>
</g>
<!-- Node2 -->
<g id="node2" class="node">
<title>Node2</title>
<g id="a_node2"><a xlink:href="classit_1_1unitn_1_1healthcore_1_1business_1_1PatientService.html#ac33e02f57cc7f1ef55dd59cb5673781a" target="_top" xlink:title="Books an appointment with a specified doctor for the currently authenticated patient.">
<polygon fill="white" stroke="black" points="224,-480.5 224,-510.5 400,-510.5 400,-480.5 224,-480.5"/>
<text text-anchor="start" x="232" y="-498.5" font-family="Helvetica,sans-Serif" font-size="10.00">it.unitn.healthcore.business.</text>
<text text-anchor="middle" x="312" y="-487.5" font-family="Helvetica,sans-Serif" font-size="10.00">PatientService.bookAppointment</text>
</a>
</g>
</g>
<!-- Node1&#45;&gt;Node2 -->
<g id="edge1" class="edge">
<title>Node1&#45;&gt;Node2</title>
<path fill="none" stroke="midnightblue" d="M101.7,-299.54C117.78,-333.97 161.87,-419.07 224,-465.5 229.42,-469.55 235.42,-473.08 241.67,-476.15"/>
<polygon fill="midnightblue" stroke="midnightblue" points="240.41,-479.42 250.96,-480.33 243.28,-473.04 240.41,-479.42"/>
</g>
<!-- Node6 -->
<g id="node6" class="node">
<title>Node6</title>
<g id="a_node6"><a xlink:href="classit_1_1unitn_1_1healthcore_1_1domain_1_1Doctor.html#ac03da7697c11c376768602fad6a43886" target="_top" xlink:title="Department getter.">
<polygon fill="white" stroke="black" points="455.5,-578.5 455.5,-608.5 604.5,-608.5 604.5,-578.5 455.5,-578.5"/>
<text text-anchor="start" x="463.5" y="-596.5" font-family="Helvetica,sans-Serif" font-size="10.00">it.unitn.healthcore.domain.</text>
<text text-anchor="middle" x="530" y="-585.5" font-family="Helvetica,sans-Serif" font-size="10.00">Doctor.getDepartment</text>
</a>
</g>
</g>
<!-- Node1&#45;&gt;Node6 -->
<g id="edge11" class="edge">
<title>Node1&#45;&gt;Node6</title>
<path fill="none" stroke="midnightblue" d="M98.69,-299.75C109.73,-342.01 146.66,-461.37 224,-520.5 287.77,-569.25 379.25,-586.06 445.37,-591.55"/>
<polygon fill="midnightblue" stroke="midnightblue" points="445.11,-595.04 455.34,-592.31 445.64,-588.06 445.11,-595.04"/>
</g>
<!-- Node7 -->
<g id="node7" class="node">
<title>Node7</title>
<g id="a_node7"><a xlink:href="classit_1_1unitn_1_1healthcore_1_1domain_1_1Department.html#ae10adf6ab4ccadfca9bdbce8d1940c84" target="_top" xlink:title="Returns the hospital associated with the department.">
<polygon fill="white" stroke="black" points="455.5,-382.5 455.5,-412.5 604.5,-412.5 604.5,-382.5 455.5,-382.5"/>
<text text-anchor="start" x="463.5" y="-400.5" font-family="Helvetica,sans-Serif" font-size="10.00">it.unitn.healthcore.domain.</text>
<text text-anchor="middle" x="530" y="-389.5" font-family="Helvetica,sans-Serif" font-size="10.00">Department.getHospital</text>
</a>
</g>
</g>
<!-- Node1&#45;&gt;Node7 -->
<g id="edge15" class="edge">
<title>Node1&#45;&gt;Node7</title>
<path fill="none" stroke="midnightblue" d="M102.4,-299.54C119,-331.3 162.57,-404.55 224,-432.5 309.86,-471.56 345.01,-447.37 436,-422.5 444.65,-420.14 453.75,-417.67 462.74,-415.24"/>
<polygon fill="midnightblue" stroke="midnightblue" points="463.68,-418.61 472.42,-412.63 461.86,-411.85 463.68,-418.61"/>
</g>
<!-- Node11 -->
<g id="node11" class="node">
<title>Node11</title>
<g id="a_node11"><a xlink:href="classit_1_1unitn_1_1healthcore_1_1domain_1_1Appointment.html#ae8a397335e77fdd3ab2a12667c862b30" target="_top" xlink:title="Returns the appointment ID.">
<polygon fill="white" stroke="black" points="227,-392.5 227,-422.5 397,-422.5 397,-392.5 227,-392.5"/>
<text text-anchor="start" x="235" y="-410.5" font-family="Helvetica,sans-Serif" font-size="10.00">it.unitn.healthcore.domain.</text>
<text text-anchor="middle" x="312" y="-399.5" font-family="Helvetica,sans-Serif" font-size="10.00">Appointment.getAppointmentId</text>
</a>
</g>
</g>
<!-- Node1&#45;&gt;Node11 -->
<g id="edge10" class="edge">
<title>Node1&#45;&gt;Node11</title>
<path fill="none" stroke="midnightblue" d="M110.78,-299.64C133.86,-321.01 179,-359.94 224,-382.5 228.62,-384.82 233.49,-386.95 238.48,-388.91"/>
<polygon fill="midnightblue" stroke="midnightblue" points="237.56,-392.3 248.15,-392.47 239.97,-385.74 237.56,-392.3"/>
</g>
<!-- Node12 -->
<g id="node12" class="node">
<title>Node12</title>
<g id="a_node12"><a xlink:href="classit_1_1unitn_1_1healthcore_1_1domain_1_1Appointment.html#a5e3d223030b1b23d4a2dfab94d5b4ef2" target="_top" xlink:title="Returns the doctor conducting the appointment.">
<polygon fill="white" stroke="black" points="237.5,-343.5 237.5,-373.5 386.5,-373.5 386.5,-343.5 237.5,-343.5"/>
<text text-anchor="start" x="245.5" y="-361.5" font-family="Helvetica,sans-Serif" font-size="10.00">it.unitn.healthcore.domain.</text>
<text text-anchor="middle" x="312" y="-350.5" font-family="Helvetica,sans-Serif" font-size="10.00">Appointment.getDoctor</text>
</a>
</g>
</g>
<!-- Node1&#45;&gt;Node12 -->
<g id="edge12" class="edge">
<title>Node1&#45;&gt;Node12</title>
<path fill="none" stroke="midnightblue" d="M132.24,-299.59C157.85,-309.73 192.75,-323.09 224,-333.5 231.15,-335.88 238.68,-338.25 246.19,-340.52"/>
<polygon fill="midnightblue" stroke="midnightblue" points="245.44,-343.95 256.02,-343.45 247.44,-337.24 245.44,-343.95"/>
</g>
<!-- Node13 -->
<g id="node13" class="node">
<title>Node13</title>
<g id="a_node13"><a xlink:href="classit_1_1unitn_1_1healthcore_1_1domain_1_1User.html#a5b48be6dca19b7d4d43ec2e6a3b91502" target="_top" xlink:title="Returns the email address of the user.">
<polygon fill="white" stroke="black" points="237.5,-294.5 237.5,-324.5 386.5,-324.5 386.5,-294.5 237.5,-294.5"/>
<text text-anchor="start" x="245.5" y="-312.5" font-family="Helvetica,sans-Serif" font-size="10.00">it.unitn.healthcore.domain.</text>
<text text-anchor="middle" x="312" y="-301.5" font-family="Helvetica,sans-Serif" font-size="10.00">User.getEmail</text>
</a>
</g>
</g>
<!-- Node1&#45;&gt;Node13 -->
<g id="edge13" class="edge">
<title>Node1&#45;&gt;Node13</title>
<path fill="none" stroke="midnightblue" d="M188.17,-295.28C201.14,-296.79 214.41,-298.32 227.2,-299.8"/>
<polygon fill="midnightblue" stroke="midnightblue" points="227,-303.3 237.34,-300.97 227.8,-296.35 227,-303.3"/>
</g>
<!-- Node14 -->
<g id="node14" class="node">
<title>Node14</title>
<g id="a_node14"><a xlink:href="classit_1_1unitn_1_1healthcore_1_1domain_1_1Appointment.html#a6adf9242cb006af27dd5ed15fdf82450" target="_top" xlink:title="Returns the end date and time of the appointment.">
<polygon fill="white" stroke="black" points="237.5,-245.5 237.5,-275.5 386.5,-275.5 386.5,-245.5 237.5,-245.5"/>
<text text-anchor="start" x="245.5" y="-263.5" font-family="Helvetica,sans-Serif" font-size="10.00">it.unitn.healthcore.domain.</text>
<text text-anchor="middle" x="312" y="-252.5" font-family="Helvetica,sans-Serif" font-size="10.00">Appointment.getEndTime</text>
</a>
</g>
</g>
<!-- Node1&#45;&gt;Node14 -->
<g id="edge14" class="edge">
<title>Node1&#45;&gt;Node14</title>
<path fill="none" stroke="midnightblue" d="M188.17,-274.15C201.14,-272.71 214.41,-271.23 227.2,-269.81"/>
<polygon fill="midnightblue" stroke="midnightblue" points="227.78,-273.27 237.34,-268.68 227.01,-266.31 227.78,-273.27"/>
</g>
<!-- Node15 -->
<g id="node15" class="node">
<title>Node15</title>
<g id="a_node15"><a xlink:href="classit_1_1unitn_1_1healthcore_1_1domain_1_1Department.html#ad3dbd24db0898580a3a7ead8960abad7" target="_top" xlink:title="Returns the list of equipments associated with the department.">
<polygon fill="white" stroke="black" points="237.5,-196.5 237.5,-226.5 386.5,-226.5 386.5,-196.5 237.5,-196.5"/>
<text text-anchor="start" x="245.5" y="-214.5" font-family="Helvetica,sans-Serif" font-size="10.00">it.unitn.healthcore.domain.</text>
<text text-anchor="middle" x="312" y="-203.5" font-family="Helvetica,sans-Serif" font-size="10.00">Department.getName</text>
</a>
</g>
</g>
<!-- Node1&#45;&gt;Node15 -->
<g id="edge16" class="edge">
<title>Node1&#45;&gt;Node15</title>
<path fill="none" stroke="midnightblue" d="M131.93,-269.42C157.55,-259.21 192.58,-245.78 224,-235.5 230.3,-233.44 236.9,-231.4 243.52,-229.44"/>
<polygon fill="midnightblue" stroke="midnightblue" points="244.59,-232.78 253.21,-226.62 242.63,-226.05 244.59,-232.78"/>
</g>
<!-- Node16 -->
<g id="node16" class="node">
<title>Node16</title>
<g id="a_node16"><a xlink:href="classit_1_1unitn_1_1healthcore_1_1domain_1_1Hospital.html#ac8fd4fe7bb42c1db18f0ef42446cf95b" target="_top" xlink:title="Returns the hospital name.">
<polygon fill="white" stroke="black" points="237.5,-147.5 237.5,-177.5 386.5,-177.5 386.5,-147.5 237.5,-147.5"/>
<text text-anchor="start" x="245.5" y="-165.5" font-family="Helvetica,sans-Serif" font-size="10.00">it.unitn.healthcore.domain.</text>
<text text-anchor="middle" x="312" y="-154.5" font-family="Helvetica,sans-Serif" font-size="10.00">Hospital.getName</text>
</a>
</g>
</g>
<!-- Node1&#45;&gt;Node16 -->
<g id="edge17" class="edge">
<title>Node1&#45;&gt;Node16</title>
<path fill="none" stroke="midnightblue" d="M110.74,-269.29C133.79,-247.84 178.88,-208.82 224,-186.5 227.98,-184.53 232.14,-182.71 236.4,-181.01"/>
<polygon fill="midnightblue" stroke="midnightblue" points="237.68,-184.27 245.84,-177.52 235.25,-177.71 237.68,-184.27"/>
</g>
<!-- Node17 -->
<g id="node17" class="node">
<title>Node17</title>
<g id="a_node17"><a xlink:href="classit_1_1unitn_1_1healthcore_1_1domain_1_1User.html#a0c78137c0cf7b414cc88dcc41895d5a7" target="_top" xlink:title="Returns the first name of the user.">
<polygon fill="white" stroke="black" points="237.5,-98.5 237.5,-128.5 386.5,-128.5 386.5,-98.5 237.5,-98.5"/>
<text text-anchor="start" x="245.5" y="-116.5" font-family="Helvetica,sans-Serif" font-size="10.00">it.unitn.healthcore.domain.</text>
<text text-anchor="middle" x="312" y="-105.5" font-family="Helvetica,sans-Serif" font-size="10.00">User.getName</text>
</a>
</g>
</g>
<!-- Node1&#45;&gt;Node17 -->
<g id="edge18" class="edge">
<title>Node1&#45;&gt;Node17</title>
<path fill="none" stroke="midnightblue" d="M103.93,-269.43C122.42,-239.55 167.9,-172.66 224,-137.5 226.64,-135.85 229.39,-134.31 232.22,-132.87"/>
<polygon fill="midnightblue" stroke="midnightblue" points="233.86,-135.97 241.5,-128.63 230.95,-129.6 233.86,-135.97"/>
</g>
<!-- Node18 -->
<g id="node18" class="node">
<title>Node18</title>
<g id="a_node18"><a xlink:href="classit_1_1unitn_1_1healthcore_1_1domain_1_1Appointment.html#a9bd30e2d1b2e4de743b3e83b9cc50eb4" target="_top" xlink:title="Returns the start date and time of the appointment.">
<polygon fill="white" stroke="black" points="237.5,-49.5 237.5,-79.5 386.5,-79.5 386.5,-49.5 237.5,-49.5"/>
<text text-anchor="start" x="245.5" y="-67.5" font-family="Helvetica,sans-Serif" font-size="10.00">it.unitn.healthcore.domain.</text>
<text text-anchor="middle" x="312" y="-56.5" font-family="Helvetica,sans-Serif" font-size="10.00">Appointment.getStartTime</text>
</a>
</g>
</g>
<!-- Node1&#45;&gt;Node18 -->
<g id="edge19" class="edge">
<title>Node1&#45;&gt;Node18</title>
<path fill="none" stroke="midnightblue" d="M100.59,-269.3C114.99,-232.36 156.96,-137.27 224,-88.5 225.9,-87.11 227.89,-85.81 229.93,-84.58"/>
<polygon fill="midnightblue" stroke="midnightblue" points="232.02,-87.43 239.22,-79.65 228.74,-81.24 232.02,-87.43"/>
</g>
<!-- Node19 -->
<g id="node19" class="node">
<title>Node19</title>
<g id="a_node19"><a xlink:href="classit_1_1unitn_1_1healthcore_1_1domain_1_1User.html#a1e52a76c1ad5fb44fe9c312e11203c9e" target="_top" xlink:title="Returns the last name of the user.">
<polygon fill="white" stroke="black" points="237.5,-0.5 237.5,-30.5 386.5,-30.5 386.5,-0.5 237.5,-0.5"/>
<text text-anchor="start" x="245.5" y="-18.5" font-family="Helvetica,sans-Serif" font-size="10.00">it.unitn.healthcore.domain.</text>
<text text-anchor="middle" x="312" y="-7.5" font-family="Helvetica,sans-Serif" font-size="10.00">User.getSurname</text>
</a>
</g>
</g>
<!-- Node1&#45;&gt;Node19 -->
<g id="edge20" class="edge">
<title>Node1&#45;&gt;Node19</title>
<path fill="none" stroke="midnightblue" d="M98.46,-269.44C109.11,-226.52 145.54,-102.64 224,-39.5 225.6,-38.21 227.27,-36.99 228.99,-35.84"/>
<polygon fill="midnightblue" stroke="midnightblue" points="231.11,-38.65 237.99,-30.59 227.58,-32.6 231.11,-38.65"/>
</g>
<!-- Node3 -->
<g id="node3" class="node">
<title>Node3</title>
<g id="a_node3"><a xlink:href="classit_1_1unitn_1_1healthcore_1_1business_1_1UserService.html#a33213d05bfda4e7384e17b18332d4bb5" target="_top" xlink:title="Retrieves the currently authenticated user from the database.">
<polygon fill="white" stroke="black" points="452.5,-529.5 452.5,-559.5 607.5,-559.5 607.5,-529.5 452.5,-529.5"/>
<text text-anchor="start" x="460.5" y="-547.5" font-family="Helvetica,sans-Serif" font-size="10.00">it.unitn.healthcore.business.</text>
<text text-anchor="middle" x="530" y="-536.5" font-family="Helvetica,sans-Serif" font-size="10.00">UserService.getCurrentUser</text>
</a>
</g>
</g>
<!-- Node2&#45;&gt;Node3 -->
<g id="edge2" class="edge">
<title>Node2&#45;&gt;Node3</title>
<path fill="none" stroke="midnightblue" d="M379.28,-510.53C402.6,-515.83 428.99,-521.81 453.05,-527.27"/>
<polygon fill="midnightblue" stroke="midnightblue" points="452.32,-530.69 462.85,-529.49 453.87,-523.87 452.32,-530.69"/>
</g>
<!-- Node2&#45;&gt;Node6 -->
<g id="edge5" class="edge">
<title>Node2&#45;&gt;Node6</title>
<path fill="none" stroke="midnightblue" d="M333.77,-510.58C357.46,-527.14 397.85,-553.5 436,-569.5 441,-571.6 446.23,-573.55 451.54,-575.35"/>
<polygon fill="midnightblue" stroke="midnightblue" points="450.59,-578.73 461.19,-578.46 452.74,-572.06 450.59,-578.73"/>
</g>
<!-- Node2&#45;&gt;Node7 -->
<g id="edge6" class="edge">
<title>Node2&#45;&gt;Node7</title>
<path fill="none" stroke="midnightblue" d="M371.28,-480.33C381.32,-476.37 391.31,-471.48 400,-465.5 420.53,-451.37 414.99,-435.91 436,-422.5 439.31,-420.38 442.8,-418.45 446.41,-416.67"/>
<polygon fill="midnightblue" stroke="midnightblue" points="447.87,-419.85 455.57,-412.59 445.02,-413.46 447.87,-419.85"/>
</g>
<!-- Node8 -->
<g id="node8" class="node">
<title>Node8</title>
<g id="a_node8"><a xlink:href="classit_1_1unitn_1_1healthcore_1_1domain_1_1Patient.html#a48266d60ec0c7b2baebd9aef60e6cbfe" target="_top" xlink:title="Insurance plan getter.">
<polygon fill="white" stroke="black" points="455.5,-480.5 455.5,-510.5 604.5,-510.5 604.5,-480.5 455.5,-480.5"/>
<text text-anchor="start" x="463.5" y="-498.5" font-family="Helvetica,sans-Serif" font-size="10.00">it.unitn.healthcore.domain.</text>
<text text-anchor="middle" x="530" y="-487.5" font-family="Helvetica,sans-Serif" font-size="10.00">Patient.getInsurancePlan</text>
</a>
</g>
</g>
<!-- Node2&#45;&gt;Node8 -->
<g id="edge7" class="edge">
<title>Node2&#45;&gt;Node8</title>
<path fill="none" stroke="midnightblue" d="M400.23,-495.5C415.07,-495.5 430.46,-495.5 445.21,-495.5"/>
<polygon fill="midnightblue" stroke="midnightblue" points="445.3,-499 455.3,-495.5 445.3,-492 445.3,-499"/>
</g>
<!-- Node9 -->
<g id="node9" class="node">
<title>Node9</title>
<g id="a_node9"><a xlink:href="classit_1_1unitn_1_1healthcore_1_1domain_1_1InsurancePlan.html#a56214cc6c390772d6aa0431b140c01b2" target="_top" xlink:title="Checks if this insurance plan covers a specific hospital.">
<polygon fill="white" stroke="black" points="436,-431.5 436,-461.5 624,-461.5 624,-431.5 436,-431.5"/>
<text text-anchor="start" x="444" y="-449.5" font-family="Helvetica,sans-Serif" font-size="10.00">it.unitn.healthcore.domain.</text>
<text text-anchor="middle" x="530" y="-438.5" font-family="Helvetica,sans-Serif" font-size="10.00">InsurancePlan.isCoveredAtHospital</text>
</a>
</g>
</g>
<!-- Node2&#45;&gt;Node9 -->
<g id="edge8" class="edge">
<title>Node2&#45;&gt;Node9</title>
<path fill="none" stroke="midnightblue" d="M379.28,-480.47C402.6,-475.17 428.99,-469.19 453.05,-463.73"/>
<polygon fill="midnightblue" stroke="midnightblue" points="453.87,-467.13 462.85,-461.51 452.32,-460.31 453.87,-467.13"/>
</g>
<!-- Node4 -->
<g id="node4" class="node">
<title>Node4</title>
<g id="a_node4"><a xlink:href="interfaceit_1_1unitn_1_1healthcore_1_1persistence_1_1UserRepository.html#a6a646ae44d01189ff44c81c03fc92fa8" target="_top" xlink:title=" ">
<polygon fill="white" stroke="black" points="663,-553.5 663,-583.5 837,-583.5 837,-553.5 663,-553.5"/>
<text text-anchor="start" x="671" y="-571.5" font-family="Helvetica,sans-Serif" font-size="10.00">it.unitn.healthcore.persistence.</text>
<text text-anchor="middle" x="750" y="-560.5" font-family="Helvetica,sans-Serif" font-size="10.00">UserRepository.findUserByEmail</text>
</a>
</g>
</g>
<!-- Node3&#45;&gt;Node4 -->
<g id="edge3" class="edge">
<title>Node3&#45;&gt;Node4</title>
<path fill="none" stroke="midnightblue" d="M607.55,-552.93C622.11,-554.53 637.51,-556.23 652.59,-557.89"/>
<polygon fill="midnightblue" stroke="midnightblue" points="652.63,-561.41 662.96,-559.03 653.4,-554.45 652.63,-561.41"/>
</g>
<!-- Node5 -->
<g id="node5" class="node">
<title>Node5</title>
<g id="a_node5"><a xlink:href="classit_1_1unitn_1_1healthcore_1_1business_1_1UserService.html#a703ed9778e3ac6cd9741220089b5f48d" target="_top" xlink:title="Retrieves the email of the currently authenticated user.">
<polygon fill="white" stroke="black" points="660,-504.5 660,-534.5 840,-534.5 840,-504.5 660,-504.5"/>
<text text-anchor="start" x="668" y="-522.5" font-family="Helvetica,sans-Serif" font-size="10.00">it.unitn.healthcore.business.</text>
<text text-anchor="middle" x="750" y="-511.5" font-family="Helvetica,sans-Serif" font-size="10.00">UserService.getCurrentUserEmail</text>
</a>
</g>
</g>
<!-- Node3&#45;&gt;Node5 -->
<g id="edge4" class="edge">
<title>Node3&#45;&gt;Node5</title>
<path fill="none" stroke="midnightblue" d="M607.55,-535.72C621.18,-534.16 635.54,-532.51 649.69,-530.89"/>
<polygon fill="midnightblue" stroke="midnightblue" points="650.41,-534.33 659.94,-529.71 649.61,-527.38 650.41,-534.33"/>
</g>
<!-- Node10 -->
<g id="node10" class="node">
<title>Node10</title>
<g id="a_node10"><a xlink:href="classit_1_1unitn_1_1healthcore_1_1domain_1_1Hospital.html#af0b058d14b4d9d957f581a0429fe5971" target="_top" xlink:title="Returns the hospital ID.">
<polygon fill="white" stroke="black" points="675.5,-431.5 675.5,-461.5 824.5,-461.5 824.5,-431.5 675.5,-431.5"/>
<text text-anchor="start" x="683.5" y="-449.5" font-family="Helvetica,sans-Serif" font-size="10.00">it.unitn.healthcore.domain.</text>
<text text-anchor="middle" x="750" y="-438.5" font-family="Helvetica,sans-Serif" font-size="10.00">Hospital.getHospitalId</text>
</a>
</g>
</g>
<!-- Node9&#45;&gt;Node10 -->
<g id="edge9" class="edge">
<title>Node9&#45;&gt;Node10</title>
<path fill="none" stroke="midnightblue" d="M624.08,-446.5C637.73,-446.5 651.72,-446.5 665.17,-446.5"/>
<polygon fill="midnightblue" stroke="midnightblue" points="665.33,-450 675.33,-446.5 665.33,-443 665.33,-450"/>
</g>
</g>
</svg>
