<?xml version="1.0" encoding="UTF-8" standalone="no"?>
<!DOCTYPE svg PUBLIC "-//W3C//DTD SVG 1.1//EN"
 "http://www.w3.org/Graphics/SVG/1.1/DTD/svg11.dtd">
<!-- Generated by graphviz version 2.43.0 (0)
 -->
<!-- Title: it.unitn.healthcore.controller.UserController.updateProfile Pages: 1 -->
<svg width="1081pt" height="803pt"
 viewBox="0.00 0.00 1081.00 803.00" xmlns="http://www.w3.org/2000/svg" xmlns:xlink="http://www.w3.org/1999/xlink">
<g id="graph0" class="graph" transform="scale(1 1) rotate(0) translate(4 799)">
<title>it.unitn.healthcore.controller.UserController.updateProfile</title>
<polygon fill="white" stroke="transparent" points="-4,4 -4,-799 1077,-799 1077,4 -4,4"/>
<!-- Node1 -->
<g id="node1" class="node">
<title>Node1</title>
<g id="a_node1"><a xlink:title="handle the profile update request by updating the user&#39;s profile information and redirecting to the p...">
<polygon fill="#bfbfbf" stroke="black" points="0,-343.5 0,-373.5 158,-373.5 158,-343.5 0,-343.5"/>
<text text-anchor="start" x="8" y="-361.5" font-family="Helvetica,sans-Serif" font-size="10.00">it.unitn.healthcore.controller.</text>
<text text-anchor="middle" x="79" y="-350.5" font-family="Helvetica,sans-Serif" font-size="10.00">UserController.updateProfile</text>
</a>
</g>
</g>
<!-- Node2 -->
<g id="node2" class="node">
<title>Node2</title>
<g id="a_node2"><a xlink:href="classit_1_1unitn_1_1healthcore_1_1business_1_1UserService.html#a114823fda5c213bb46bc935608bb8953" target="_top" xlink:title="Updates the profile of the currently authenticated user based on the provided object .">
<polygon fill="white" stroke="black" points="194,-343.5 194,-373.5 359,-373.5 359,-343.5 194,-343.5"/>
<text text-anchor="start" x="202" y="-361.5" font-family="Helvetica,sans-Serif" font-size="10.00">it.unitn.healthcore.business.</text>
<text text-anchor="middle" x="276.5" y="-350.5" font-family="Helvetica,sans-Serif" font-size="10.00">UserService.updateUserProfile</text>
</a>
</g>
</g>
<!-- Node1&#45;&gt;Node2 -->
<g id="edge1" class="edge">
<title>Node1&#45;&gt;Node2</title>
<path fill="none" stroke="midnightblue" d="M158.11,-358.5C166.59,-358.5 175.29,-358.5 183.91,-358.5"/>
<polygon fill="midnightblue" stroke="midnightblue" points="183.99,-362 193.99,-358.5 183.99,-355 183.99,-362"/>
</g>
<!-- Node3 -->
<g id="node3" class="node">
<title>Node3</title>
<g id="a_node3"><a xlink:href="interfaceit_1_1unitn_1_1healthcore_1_1persistence_1_1UserRepository.html#a6a646ae44d01189ff44c81c03fc92fa8" target="_top" xlink:title=" ">
<polygon fill="white" stroke="black" points="636.5,-715.5 636.5,-745.5 810.5,-745.5 810.5,-715.5 636.5,-715.5"/>
<text text-anchor="start" x="644.5" y="-733.5" font-family="Helvetica,sans-Serif" font-size="10.00">it.unitn.healthcore.persistence.</text>
<text text-anchor="middle" x="723.5" y="-722.5" font-family="Helvetica,sans-Serif" font-size="10.00">UserRepository.findUserByEmail</text>
</a>
</g>
</g>
<!-- Node2&#45;&gt;Node3 -->
<g id="edge2" class="edge">
<title>Node2&#45;&gt;Node3</title>
<path fill="none" stroke="midnightblue" d="M278.63,-373.74C283.14,-423.1 304.32,-579.9 395,-657.5 404.3,-665.46 542.64,-694.45 636.51,-713.41"/>
<polygon fill="midnightblue" stroke="midnightblue" points="636.09,-716.9 646.59,-715.45 637.48,-710.04 636.09,-716.9"/>
</g>
<!-- Node4 -->
<g id="node4" class="node">
<title>Node4</title>
<g id="a_node4"><a xlink:href="classit_1_1unitn_1_1healthcore_1_1business_1_1UserService.html#a33213d05bfda4e7384e17b18332d4bb5" target="_top" xlink:title="Retrieves the currently authenticated user from the database.">
<polygon fill="white" stroke="black" points="414.5,-715.5 414.5,-745.5 569.5,-745.5 569.5,-715.5 414.5,-715.5"/>
<text text-anchor="start" x="422.5" y="-733.5" font-family="Helvetica,sans-Serif" font-size="10.00">it.unitn.healthcore.business.</text>
<text text-anchor="middle" x="492" y="-722.5" font-family="Helvetica,sans-Serif" font-size="10.00">UserService.getCurrentUser</text>
</a>
</g>
</g>
<!-- Node2&#45;&gt;Node4 -->
<g id="edge3" class="edge">
<title>Node2&#45;&gt;Node4</title>
<path fill="none" stroke="midnightblue" d="M278.23,-373.78C281.58,-426.47 299.74,-602.48 395,-697.5 400.23,-702.72 406.33,-707.11 412.86,-710.82"/>
<polygon fill="midnightblue" stroke="midnightblue" points="411.5,-714.05 422,-715.44 414.66,-707.8 411.5,-714.05"/>
</g>
<!-- Node6 -->
<g id="node6" class="node">
<title>Node6</title>
<g id="a_node6"><a xlink:href="classit_1_1unitn_1_1healthcore_1_1domain_1_1PasswordConfirmationForm.html#ad2a321af868704e56c42d5306a8acd91" target="_top" xlink:title="Email getter.">
<polygon fill="white" stroke="black" points="625,-666.5 625,-696.5 822,-696.5 822,-666.5 625,-666.5"/>
<text text-anchor="start" x="633" y="-684.5" font-family="Helvetica,sans-Serif" font-size="10.00">it.unitn.healthcore.domain.</text>
<text text-anchor="middle" x="723.5" y="-673.5" font-family="Helvetica,sans-Serif" font-size="10.00">PasswordConfirmationForm.getEmail</text>
</a>
</g>
</g>
<!-- Node2&#45;&gt;Node6 -->
<g id="edge6" class="edge">
<title>Node2&#45;&gt;Node6</title>
<path fill="none" stroke="midnightblue" d="M279.43,-373.52C286.1,-418.74 312.45,-554.45 395,-619.5 428.6,-645.98 532.6,-662.55 614.5,-671.83"/>
<polygon fill="midnightblue" stroke="midnightblue" points="614.3,-675.33 624.62,-672.95 615.07,-668.37 614.3,-675.33"/>
</g>
<!-- Node7 -->
<g id="node7" class="node">
<title>Node7</title>
<g id="a_node7"><a xlink:href="classit_1_1unitn_1_1healthcore_1_1domain_1_1User.html#a5b48be6dca19b7d4d43ec2e6a3b91502" target="_top" xlink:title="Returns the email address of the user.">
<polygon fill="white" stroke="black" points="417.5,-392.5 417.5,-422.5 566.5,-422.5 566.5,-392.5 417.5,-392.5"/>
<text text-anchor="start" x="425.5" y="-410.5" font-family="Helvetica,sans-Serif" font-size="10.00">it.unitn.healthcore.domain.</text>
<text text-anchor="middle" x="492" y="-399.5" font-family="Helvetica,sans-Serif" font-size="10.00">User.getEmail</text>
</a>
</g>
</g>
<!-- Node2&#45;&gt;Node7 -->
<g id="edge7" class="edge">
<title>Node2&#45;&gt;Node7</title>
<path fill="none" stroke="midnightblue" d="M343.01,-373.53C365.96,-378.8 391.92,-384.76 415.61,-390.2"/>
<polygon fill="midnightblue" stroke="midnightblue" points="415.09,-393.67 425.62,-392.49 416.65,-386.85 415.09,-393.67"/>
</g>
<!-- Node8 -->
<g id="node8" class="node">
<title>Node8</title>
<g id="a_node8"><a xlink:href="classit_1_1unitn_1_1healthcore_1_1domain_1_1ProfileUpdateForm.html#a74ba2df0ee53889299dc64bd16a6c889" target="_top" xlink:title="Name getter.">
<polygon fill="white" stroke="black" points="414.5,-343.5 414.5,-373.5 569.5,-373.5 569.5,-343.5 414.5,-343.5"/>
<text text-anchor="start" x="422.5" y="-361.5" font-family="Helvetica,sans-Serif" font-size="10.00">it.unitn.healthcore.domain.</text>
<text text-anchor="middle" x="492" y="-350.5" font-family="Helvetica,sans-Serif" font-size="10.00">ProfileUpdateForm.getName</text>
</a>
</g>
</g>
<!-- Node2&#45;&gt;Node8 -->
<g id="edge8" class="edge">
<title>Node2&#45;&gt;Node8</title>
<path fill="none" stroke="midnightblue" d="M359.13,-358.5C373.86,-358.5 389.26,-358.5 404.14,-358.5"/>
<polygon fill="midnightblue" stroke="midnightblue" points="404.33,-362 414.33,-358.5 404.33,-355 404.33,-362"/>
</g>
<!-- Node9 -->
<g id="node9" class="node">
<title>Node9</title>
<g id="a_node9"><a xlink:href="classit_1_1unitn_1_1healthcore_1_1domain_1_1User.html#a0c78137c0cf7b414cc88dcc41895d5a7" target="_top" xlink:title="Returns the first name of the user.">
<polygon fill="white" stroke="black" points="417.5,-294.5 417.5,-324.5 566.5,-324.5 566.5,-294.5 417.5,-294.5"/>
<text text-anchor="start" x="425.5" y="-312.5" font-family="Helvetica,sans-Serif" font-size="10.00">it.unitn.healthcore.domain.</text>
<text text-anchor="middle" x="492" y="-301.5" font-family="Helvetica,sans-Serif" font-size="10.00">User.getName</text>
</a>
</g>
</g>
<!-- Node2&#45;&gt;Node9 -->
<g id="edge9" class="edge">
<title>Node2&#45;&gt;Node9</title>
<path fill="none" stroke="midnightblue" d="M343.01,-343.47C365.96,-338.2 391.92,-332.24 415.61,-326.8"/>
<polygon fill="midnightblue" stroke="midnightblue" points="416.65,-330.15 425.62,-324.51 415.09,-323.33 416.65,-330.15"/>
</g>
<!-- Node10 -->
<g id="node10" class="node">
<title>Node10</title>
<g id="a_node10"><a xlink:href="classit_1_1unitn_1_1healthcore_1_1domain_1_1PasswordConfirmationForm.html#aa7de23a583db33eba13ddecad973ceca" target="_top" xlink:title="Password getter.">
<polygon fill="white" stroke="black" points="858,-523.5 858,-553.5 1073,-553.5 1073,-523.5 858,-523.5"/>
<text text-anchor="start" x="866" y="-541.5" font-family="Helvetica,sans-Serif" font-size="10.00">it.unitn.healthcore.domain.</text>
<text text-anchor="middle" x="965.5" y="-530.5" font-family="Helvetica,sans-Serif" font-size="10.00">PasswordConfirmationForm.getPassword</text>
</a>
</g>
</g>
<!-- Node2&#45;&gt;Node10 -->
<g id="edge10" class="edge">
<title>Node2&#45;&gt;Node10</title>
<path fill="none" stroke="midnightblue" d="M290.07,-373.86C309.77,-396.7 350.3,-439.03 395,-458.5 570.17,-534.81 633.43,-477.68 822,-508.5 843.96,-512.09 867.67,-516.76 889.32,-521.34"/>
<polygon fill="midnightblue" stroke="midnightblue" points="888.6,-524.76 899.11,-523.43 890.07,-517.92 888.6,-524.76"/>
</g>
<!-- Node11 -->
<g id="node11" class="node">
<title>Node11</title>
<g id="a_node11"><a xlink:href="classit_1_1unitn_1_1healthcore_1_1domain_1_1PasswordConfirmationForm.html#add77c52ff85c3a8caefe02af899fe10b" target="_top" xlink:title="Password confirmation getter.">
<polygon fill="white" stroke="black" points="858,-447 858,-488 1073,-488 1073,-447 858,-447"/>
<text text-anchor="start" x="866" y="-476" font-family="Helvetica,sans-Serif" font-size="10.00">it.unitn.healthcore.domain.</text>
<text text-anchor="start" x="866" y="-465" font-family="Helvetica,sans-Serif" font-size="10.00">PasswordConfirmationForm.getPassword</text>
<text text-anchor="middle" x="965.5" y="-454" font-family="Helvetica,sans-Serif" font-size="10.00">Confirmation</text>
</a>
</g>
</g>
<!-- Node2&#45;&gt;Node11 -->
<g id="edge11" class="edge">
<title>Node2&#45;&gt;Node11</title>
<path fill="none" stroke="midnightblue" d="M295.59,-373.78C317.52,-391.28 356.34,-419.14 395,-431.5 476.32,-457.51 706.31,-464.81 847.9,-466.81"/>
<polygon fill="midnightblue" stroke="midnightblue" points="847.89,-470.31 857.94,-466.95 847.99,-463.31 847.89,-470.31"/>
</g>
<!-- Node12 -->
<g id="node12" class="node">
<title>Node12</title>
<g id="a_node12"><a xlink:href="classit_1_1unitn_1_1healthcore_1_1domain_1_1ProfileUpdateForm.html#a8bd433fb0c7bfbe8eac0149bbfa707f6" target="_top" xlink:title="Specialization getter.">
<polygon fill="white" stroke="black" points="395,-245.5 395,-275.5 589,-275.5 589,-245.5 395,-245.5"/>
<text text-anchor="start" x="403" y="-263.5" font-family="Helvetica,sans-Serif" font-size="10.00">it.unitn.healthcore.domain.</text>
<text text-anchor="middle" x="492" y="-252.5" font-family="Helvetica,sans-Serif" font-size="10.00">ProfileUpdateForm.getSpecialization</text>
</a>
</g>
</g>
<!-- Node2&#45;&gt;Node12 -->
<g id="edge12" class="edge">
<title>Node2&#45;&gt;Node12</title>
<path fill="none" stroke="midnightblue" d="M297.21,-343.32C319.72,-326.66 358.2,-300.21 395,-284.5 399.94,-282.39 405.1,-280.44 410.36,-278.64"/>
<polygon fill="midnightblue" stroke="midnightblue" points="411.46,-281.96 419.9,-275.56 409.31,-275.3 411.46,-281.96"/>
</g>
<!-- Node13 -->
<g id="node13" class="node">
<title>Node13</title>
<g id="a_node13"><a xlink:href="classit_1_1unitn_1_1healthcore_1_1domain_1_1ProfileUpdateForm.html#af0bb243e48137fe877431ee1062a7c41" target="_top" xlink:title="Surname getter.">
<polygon fill="white" stroke="black" points="407,-196.5 407,-226.5 577,-226.5 577,-196.5 407,-196.5"/>
<text text-anchor="start" x="415" y="-214.5" font-family="Helvetica,sans-Serif" font-size="10.00">it.unitn.healthcore.domain.</text>
<text text-anchor="middle" x="492" y="-203.5" font-family="Helvetica,sans-Serif" font-size="10.00">ProfileUpdateForm.getSurname</text>
</a>
</g>
</g>
<!-- Node2&#45;&gt;Node13 -->
<g id="edge13" class="edge">
<title>Node2&#45;&gt;Node13</title>
<path fill="none" stroke="midnightblue" d="M287.52,-343.4C305.7,-317.23 346.75,-263.55 395,-235.5 398.06,-233.72 401.26,-232.07 404.54,-230.54"/>
<polygon fill="midnightblue" stroke="midnightblue" points="406.14,-233.66 413.99,-226.55 403.41,-227.22 406.14,-233.66"/>
</g>
<!-- Node14 -->
<g id="node14" class="node">
<title>Node14</title>
<g id="a_node14"><a xlink:href="classit_1_1unitn_1_1healthcore_1_1domain_1_1User.html#a1e52a76c1ad5fb44fe9c312e11203c9e" target="_top" xlink:title="Returns the last name of the user.">
<polygon fill="white" stroke="black" points="417.5,-147.5 417.5,-177.5 566.5,-177.5 566.5,-147.5 417.5,-147.5"/>
<text text-anchor="start" x="425.5" y="-165.5" font-family="Helvetica,sans-Serif" font-size="10.00">it.unitn.healthcore.domain.</text>
<text text-anchor="middle" x="492" y="-154.5" font-family="Helvetica,sans-Serif" font-size="10.00">User.getSurname</text>
</a>
</g>
</g>
<!-- Node2&#45;&gt;Node14 -->
<g id="edge14" class="edge">
<title>Node2&#45;&gt;Node14</title>
<path fill="none" stroke="midnightblue" d="M283.39,-343.34C297.32,-309.56 335.64,-227.83 395,-186.5 399.02,-183.7 403.33,-181.23 407.82,-179.05"/>
<polygon fill="midnightblue" stroke="midnightblue" points="409.48,-182.14 417.26,-174.95 406.69,-175.72 409.48,-182.14"/>
</g>
<!-- Node15 -->
<g id="node15" class="node">
<title>Node15</title>
<g id="a_node15"><a xlink:href="classit_1_1unitn_1_1healthcore_1_1business_1_1UserService.html#acc1ae5218e790edcc69ad692c84871a2" target="_top" xlink:title="Recovers the password for a user by verifying the OTP and updating the password in the database.">
<polygon fill="white" stroke="black" points="411.5,-579.5 411.5,-609.5 572.5,-609.5 572.5,-579.5 411.5,-579.5"/>
<text text-anchor="start" x="419.5" y="-597.5" font-family="Helvetica,sans-Serif" font-size="10.00">it.unitn.healthcore.business.</text>
<text text-anchor="middle" x="492" y="-586.5" font-family="Helvetica,sans-Serif" font-size="10.00">UserService.recoverPassword</text>
</a>
</g>
</g>
<!-- Node2&#45;&gt;Node15 -->
<g id="edge15" class="edge">
<title>Node2&#45;&gt;Node15</title>
<path fill="none" stroke="midnightblue" d="M288.89,-373.86C309.19,-400.94 353.41,-458.55 395,-503.5 417.89,-528.24 446.09,-554.53 465.99,-572.45"/>
<polygon fill="midnightblue" stroke="midnightblue" points="463.92,-575.3 473.7,-579.36 468.59,-570.08 463.92,-575.3"/>
</g>
<!-- Node18 -->
<g id="node18" class="node">
<title>Node18</title>
<g id="a_node18"><a xlink:href="classit_1_1unitn_1_1healthcore_1_1domain_1_1User.html#a637da3e206f619ffbd1b1589367b2114" target="_top" xlink:title="Sets the email address of the user.">
<polygon fill="white" stroke="black" points="417.5,-98.5 417.5,-128.5 566.5,-128.5 566.5,-98.5 417.5,-98.5"/>
<text text-anchor="start" x="425.5" y="-116.5" font-family="Helvetica,sans-Serif" font-size="10.00">it.unitn.healthcore.domain.</text>
<text text-anchor="middle" x="492" y="-105.5" font-family="Helvetica,sans-Serif" font-size="10.00">User.setEmail</text>
</a>
</g>
</g>
<!-- Node2&#45;&gt;Node18 -->
<g id="edge23" class="edge">
<title>Node2&#45;&gt;Node18</title>
<path fill="none" stroke="midnightblue" d="M280.98,-343.4C291.05,-303.2 324.14,-192.9 395,-137.5 399.04,-134.34 403.45,-131.59 408.07,-129.2"/>
<polygon fill="midnightblue" stroke="midnightblue" points="409.57,-132.37 417.21,-125.03 406.66,-126 409.57,-132.37"/>
</g>
<!-- Node19 -->
<g id="node19" class="node">
<title>Node19</title>
<g id="a_node19"><a xlink:href="classit_1_1unitn_1_1healthcore_1_1domain_1_1User.html#a91c87abb5e6a05b9a218ee0a9537d0fb" target="_top" xlink:title="Sets the first name of the user.">
<polygon fill="white" stroke="black" points="417.5,-49.5 417.5,-79.5 566.5,-79.5 566.5,-49.5 417.5,-49.5"/>
<text text-anchor="start" x="425.5" y="-67.5" font-family="Helvetica,sans-Serif" font-size="10.00">it.unitn.healthcore.domain.</text>
<text text-anchor="middle" x="492" y="-56.5" font-family="Helvetica,sans-Serif" font-size="10.00">User.setName</text>
</a>
</g>
</g>
<!-- Node2&#45;&gt;Node19 -->
<g id="edge24" class="edge">
<title>Node2&#45;&gt;Node19</title>
<path fill="none" stroke="midnightblue" d="M279.44,-343.2C286.11,-297.08 312.49,-158.37 395,-88.5 398.99,-85.12 403.4,-82.2 408.06,-79.68"/>
<polygon fill="midnightblue" stroke="midnightblue" points="409.74,-82.76 417.29,-75.33 406.75,-76.43 409.74,-82.76"/>
</g>
<!-- Node20 -->
<g id="node20" class="node">
<title>Node20</title>
<g id="a_node20"><a xlink:href="classit_1_1unitn_1_1healthcore_1_1domain_1_1User.html#aafba5fb3c10ba03d2e9121427365ec92" target="_top" xlink:title="Sets the last name of the user.">
<polygon fill="white" stroke="black" points="417.5,-0.5 417.5,-30.5 566.5,-30.5 566.5,-0.5 417.5,-0.5"/>
<text text-anchor="start" x="425.5" y="-18.5" font-family="Helvetica,sans-Serif" font-size="10.00">it.unitn.healthcore.domain.</text>
<text text-anchor="middle" x="492" y="-7.5" font-family="Helvetica,sans-Serif" font-size="10.00">User.setSurname</text>
</a>
</g>
</g>
<!-- Node2&#45;&gt;Node20 -->
<g id="edge25" class="edge">
<title>Node2&#45;&gt;Node20</title>
<path fill="none" stroke="midnightblue" d="M278.28,-343.45C281.79,-292.43 300.34,-124.45 395,-39.5 398.97,-35.93 403.4,-32.88 408.1,-30.27"/>
<polygon fill="midnightblue" stroke="midnightblue" points="409.96,-33.25 417.46,-25.76 406.93,-26.95 409.96,-33.25"/>
</g>
<!-- Node4&#45;&gt;Node3 -->
<g id="edge4" class="edge">
<title>Node4&#45;&gt;Node3</title>
<path fill="none" stroke="midnightblue" d="M569.74,-730.5C587.85,-730.5 607.39,-730.5 626.25,-730.5"/>
<polygon fill="midnightblue" stroke="midnightblue" points="626.34,-734 636.34,-730.5 626.34,-727 626.34,-734"/>
</g>
<!-- Node5 -->
<g id="node5" class="node">
<title>Node5</title>
<g id="a_node5"><a xlink:href="classit_1_1unitn_1_1healthcore_1_1business_1_1UserService.html#a703ed9778e3ac6cd9741220089b5f48d" target="_top" xlink:title="Retrieves the email of the currently authenticated user.">
<polygon fill="white" stroke="black" points="633.5,-764.5 633.5,-794.5 813.5,-794.5 813.5,-764.5 633.5,-764.5"/>
<text text-anchor="start" x="641.5" y="-782.5" font-family="Helvetica,sans-Serif" font-size="10.00">it.unitn.healthcore.business.</text>
<text text-anchor="middle" x="723.5" y="-771.5" font-family="Helvetica,sans-Serif" font-size="10.00">UserService.getCurrentUserEmail</text>
</a>
</g>
</g>
<!-- Node4&#45;&gt;Node5 -->
<g id="edge5" class="edge">
<title>Node4&#45;&gt;Node5</title>
<path fill="none" stroke="midnightblue" d="M563.42,-745.53C588.31,-750.85 616.49,-756.87 642.15,-762.34"/>
<polygon fill="midnightblue" stroke="midnightblue" points="641.71,-765.83 652.22,-764.49 643.17,-758.98 641.71,-765.83"/>
</g>
<!-- Node15&#45;&gt;Node3 -->
<g id="edge16" class="edge">
<title>Node15&#45;&gt;Node3</title>
<path fill="none" stroke="midnightblue" d="M513.88,-609.53C533.77,-624.14 564.28,-647.33 589,-669.5 606.08,-684.82 605.09,-695.1 625,-706.5 628.21,-708.34 631.57,-710.04 635.01,-711.61"/>
<polygon fill="midnightblue" stroke="midnightblue" points="633.74,-714.88 644.32,-715.48 636.43,-708.41 633.74,-714.88"/>
</g>
<!-- Node15&#45;&gt;Node6 -->
<g id="edge17" class="edge">
<title>Node15&#45;&gt;Node6</title>
<path fill="none" stroke="midnightblue" d="M547.16,-609.56C561.11,-614.24 575.88,-619.93 589,-626.5 606.42,-635.22 607.48,-642.98 625,-651.5 633.96,-655.86 643.69,-659.75 653.42,-663.17"/>
<polygon fill="midnightblue" stroke="midnightblue" points="652.52,-666.56 663.11,-666.43 654.75,-659.92 652.52,-666.56"/>
</g>
<!-- Node15&#45;&gt;Node10 -->
<g id="edge18" class="edge">
<title>Node15&#45;&gt;Node10</title>
<path fill="none" stroke="midnightblue" d="M549.31,-609.55C615.65,-624.79 728.64,-642.91 822,-618.5 865.34,-607.17 909.44,-579.37 936.86,-559.74"/>
<polygon fill="midnightblue" stroke="midnightblue" points="939.14,-562.41 945.16,-553.69 935.02,-556.76 939.14,-562.41"/>
</g>
<!-- Node16 -->
<g id="node16" class="node">
<title>Node16</title>
<g id="a_node16"><a xlink:href="classit_1_1unitn_1_1healthcore_1_1domain_1_1PasswordConfirmationForm.html#a181a1ca7ab3c4d07cb7f3817c1de6974" target="_top" xlink:title="Validates the password confirmation form by checking if the password and confirmation match,...">
<polygon fill="white" stroke="black" points="631,-518 631,-559 816,-559 816,-518 631,-518"/>
<text text-anchor="start" x="639" y="-547" font-family="Helvetica,sans-Serif" font-size="10.00">it.unitn.healthcore.domain.</text>
<text text-anchor="start" x="639" y="-536" font-family="Helvetica,sans-Serif" font-size="10.00">PasswordConfirmationForm.isValid</text>
<text text-anchor="middle" x="723.5" y="-525" font-family="Helvetica,sans-Serif" font-size="10.00">PasswordForm</text>
</a>
</g>
</g>
<!-- Node15&#45;&gt;Node16 -->
<g id="edge19" class="edge">
<title>Node15&#45;&gt;Node16</title>
<path fill="none" stroke="midnightblue" d="M554.5,-579.49C577.24,-573.94 603.57,-567.52 628.53,-561.43"/>
<polygon fill="midnightblue" stroke="midnightblue" points="629.51,-564.79 638.39,-559.02 627.85,-557.99 629.51,-564.79"/>
</g>
<!-- Node17 -->
<g id="node17" class="node">
<title>Node17</title>
<g id="a_node17"><a xlink:href="classit_1_1unitn_1_1healthcore_1_1domain_1_1User.html#aae0addd4b63049c29c751a6c03e17f2c" target="_top" xlink:title="Sets the password of the user.">
<polygon fill="white" stroke="black" points="649,-578.5 649,-608.5 798,-608.5 798,-578.5 649,-578.5"/>
<text text-anchor="start" x="657" y="-596.5" font-family="Helvetica,sans-Serif" font-size="10.00">it.unitn.healthcore.domain.</text>
<text text-anchor="middle" x="723.5" y="-585.5" font-family="Helvetica,sans-Serif" font-size="10.00">User.setPassword</text>
</a>
</g>
</g>
<!-- Node15&#45;&gt;Node17 -->
<g id="edge22" class="edge">
<title>Node15&#45;&gt;Node17</title>
<path fill="none" stroke="midnightblue" d="M572.62,-594.15C593.97,-594.06 617.11,-593.96 638.68,-593.87"/>
<polygon fill="midnightblue" stroke="midnightblue" points="638.81,-597.36 648.79,-593.82 638.78,-590.36 638.81,-597.36"/>
</g>
<!-- Node16&#45;&gt;Node10 -->
<g id="edge20" class="edge">
<title>Node16&#45;&gt;Node10</title>
<path fill="none" stroke="midnightblue" d="M816.26,-538.5C826.59,-538.5 837.21,-538.5 847.81,-538.5"/>
<polygon fill="midnightblue" stroke="midnightblue" points="847.94,-542 857.94,-538.5 847.94,-535 847.94,-542"/>
</g>
<!-- Node16&#45;&gt;Node11 -->
<g id="edge21" class="edge">
<title>Node16&#45;&gt;Node11</title>
<path fill="none" stroke="midnightblue" d="M793.92,-517.96C822.4,-509.54 855.54,-499.73 884.99,-491.02"/>
<polygon fill="midnightblue" stroke="midnightblue" points="886.23,-494.31 894.82,-488.11 884.24,-487.59 886.23,-494.31"/>
</g>
</g>
</svg>
