<?xml version="1.0" encoding="UTF-8" standalone="no"?>
<!DOCTYPE svg PUBLIC "-//W3C//DTD SVG 1.1//EN"
 "http://www.w3.org/Graphics/SVG/1.1/DTD/svg11.dtd">
<!-- Generated by graphviz version 2.43.0 (0)
 -->
<!-- Title: it.unitn.healthcore.business.UserService.getCurrentUserEmail Pages: 1 -->
<svg width="907pt" height="541pt"
 viewBox="0.00 0.00 907.00 541.00" xmlns="http://www.w3.org/2000/svg" xmlns:xlink="http://www.w3.org/1999/xlink">
<g id="graph0" class="graph" transform="scale(1 1) rotate(0) translate(4 537)">
<title>it.unitn.healthcore.business.UserService.getCurrentUserEmail</title>
<polygon fill="white" stroke="transparent" points="-4,4 -4,-537 903,-537 903,4 -4,4"/>
<!-- Node1 -->
<g id="node1" class="node">
<title>Node1</title>
<g id="a_node1"><a xlink:title=" ">
<polygon fill="#bfbfbf" stroke="black" points="719,-245.5 719,-275.5 899,-275.5 899,-245.5 719,-245.5"/>
<text text-anchor="start" x="727" y="-263.5" font-family="Helvetica,sans-Serif" font-size="10.00">it.unitn.healthcore.business.</text>
<text text-anchor="middle" x="809" y="-252.5" font-family="Helvetica,sans-Serif" font-size="10.00">UserService.getCurrentUserEmail</text>
</a>
</g>
</g>
<!-- Node2 -->
<g id="node2" class="node">
<title>Node2</title>
<g id="a_node2"><a xlink:href="classit_1_1unitn_1_1healthcore_1_1business_1_1UserService.html#a33213d05bfda4e7384e17b18332d4bb5" target="_top" xlink:title=" ">
<polygon fill="white" stroke="black" points="528,-245.5 528,-275.5 683,-275.5 683,-245.5 528,-245.5"/>
<text text-anchor="start" x="536" y="-263.5" font-family="Helvetica,sans-Serif" font-size="10.00">it.unitn.healthcore.business.</text>
<text text-anchor="middle" x="605.5" y="-252.5" font-family="Helvetica,sans-Serif" font-size="10.00">UserService.getCurrentUser</text>
</a>
</g>
</g>
<!-- Node1&#45;&gt;Node2 -->
<g id="edge1" class="edge">
<title>Node1&#45;&gt;Node2</title>
<path fill="none" stroke="midnightblue" d="M708.67,-260.5C700.07,-260.5 691.45,-260.5 683.08,-260.5"/>
<polygon fill="midnightblue" stroke="midnightblue" points="708.74,-264 718.74,-260.5 708.74,-257 708.74,-264"/>
</g>
<!-- Node3 -->
<g id="node3" class="node">
<title>Node3</title>
<g id="a_node3"><a xlink:href="classit_1_1unitn_1_1healthcore_1_1business_1_1PatientService.html#ac33e02f57cc7f1ef55dd59cb5673781a" target="_top" xlink:title=" ">
<polygon fill="white" stroke="black" points="287.5,-502.5 287.5,-532.5 463.5,-532.5 463.5,-502.5 287.5,-502.5"/>
<text text-anchor="start" x="295.5" y="-520.5" font-family="Helvetica,sans-Serif" font-size="10.00">it.unitn.healthcore.business.</text>
<text text-anchor="middle" x="375.5" y="-509.5" font-family="Helvetica,sans-Serif" font-size="10.00">PatientService.bookAppointment</text>
</a>
</g>
</g>
<!-- Node2&#45;&gt;Node3 -->
<g id="edge2" class="edge">
<title>Node2&#45;&gt;Node3</title>
<path fill="none" stroke="midnightblue" d="M599.96,-285.56C589.83,-333.89 560.63,-439.91 492,-493.5 483.61,-500.05 473.86,-504.94 463.65,-508.55"/>
<polygon fill="midnightblue" stroke="midnightblue" points="603.42,-286.13 601.94,-275.63 596.55,-284.76 603.42,-286.13"/>
</g>
<!-- Node5 -->
<g id="node5" class="node">
<title>Node5</title>
<g id="a_node5"><a xlink:href="classit_1_1unitn_1_1healthcore_1_1controller_1_1UserController.html#aa9d85586ed83e4d9865621769e24fd81" target="_top" xlink:title="delete the current user&#39;s account and redirect to the login page.">
<polygon fill="white" stroke="black" points="296,-453.5 296,-483.5 455,-483.5 455,-453.5 296,-453.5"/>
<text text-anchor="start" x="304" y="-471.5" font-family="Helvetica,sans-Serif" font-size="10.00">it.unitn.healthcore.controller.</text>
<text text-anchor="middle" x="375.5" y="-460.5" font-family="Helvetica,sans-Serif" font-size="10.00">UserController.deleteAccount</text>
</a>
</g>
</g>
<!-- Node2&#45;&gt;Node5 -->
<g id="edge4" class="edge">
<title>Node2&#45;&gt;Node5</title>
<path fill="none" stroke="midnightblue" d="M596.52,-285.18C582.28,-325.11 548.55,-403.44 492,-443.5 481.12,-451.21 468.32,-456.62 455.27,-460.39"/>
<polygon fill="midnightblue" stroke="midnightblue" points="599.85,-286.27 599.8,-275.68 593.23,-283.99 599.85,-286.27"/>
</g>
<!-- Node6 -->
<g id="node6" class="node">
<title>Node6</title>
<g id="a_node6"><a xlink:href="classit_1_1unitn_1_1healthcore_1_1business_1_1AppointmentService.html#a6df398766f183e79fe315aea5f1752a4" target="_top" xlink:title=" ">
<polygon fill="white" stroke="black" points="277,-393 277,-434 474,-434 474,-393 277,-393"/>
<text text-anchor="start" x="285" y="-422" font-family="Helvetica,sans-Serif" font-size="10.00">it.unitn.healthcore.business.</text>
<text text-anchor="start" x="285" y="-411" font-family="Helvetica,sans-Serif" font-size="10.00">AppointmentService.getAppointment</text>
<text text-anchor="middle" x="375.5" y="-400" font-family="Helvetica,sans-Serif" font-size="10.00">Details</text>
</a>
</g>
</g>
<!-- Node2&#45;&gt;Node6 -->
<g id="edge5" class="edge">
<title>Node2&#45;&gt;Node6</title>
<path fill="none" stroke="midnightblue" d="M589.39,-283.96C570.15,-311.91 534.28,-358.04 492,-383.5 486.14,-387.03 479.88,-390.14 473.4,-392.9"/>
<polygon fill="midnightblue" stroke="midnightblue" points="592.36,-285.82 595.04,-275.57 586.56,-281.91 592.36,-285.82"/>
</g>
<!-- Node9 -->
<g id="node9" class="node">
<title>Node9</title>
<g id="a_node9"><a xlink:href="classit_1_1unitn_1_1healthcore_1_1business_1_1DoctorService.html#a96292ffc9ef487c31145d1cd00f22b4e" target="_top" xlink:title=" ">
<polygon fill="white" stroke="black" points="276,-343.5 276,-373.5 475,-373.5 475,-343.5 276,-343.5"/>
<text text-anchor="start" x="284" y="-361.5" font-family="Helvetica,sans-Serif" font-size="10.00">it.unitn.healthcore.business.</text>
<text text-anchor="middle" x="375.5" y="-350.5" font-family="Helvetica,sans-Serif" font-size="10.00">DoctorService.getCurrentDoctorShifts</text>
</a>
</g>
</g>
<!-- Node2&#45;&gt;Node9 -->
<g id="edge8" class="edge">
<title>Node2&#45;&gt;Node9</title>
<path fill="none" stroke="midnightblue" d="M578.14,-282.01C556.31,-298.75 523.83,-321.29 492,-334.5 483.68,-337.95 474.8,-340.93 465.81,-343.49"/>
<polygon fill="midnightblue" stroke="midnightblue" points="580.51,-284.6 586.24,-275.69 576.2,-279.08 580.51,-284.6"/>
</g>
<!-- Node11 -->
<g id="node11" class="node">
<title>Node11</title>
<g id="a_node11"><a xlink:href="classit_1_1unitn_1_1healthcore_1_1business_1_1PatientService.html#a9c5655c1b706c7dba40efb883c900a39" target="_top" xlink:title=" ">
<polygon fill="white" stroke="black" points="271,-294.5 271,-324.5 480,-324.5 480,-294.5 271,-294.5"/>
<text text-anchor="start" x="279" y="-312.5" font-family="Helvetica,sans-Serif" font-size="10.00">it.unitn.healthcore.business.</text>
<text text-anchor="middle" x="375.5" y="-301.5" font-family="Helvetica,sans-Serif" font-size="10.00">PatientService.getCurrentInsurancePlan</text>
</a>
</g>
</g>
<!-- Node2&#45;&gt;Node11 -->
<g id="edge10" class="edge">
<title>Node2&#45;&gt;Node11</title>
<path fill="none" stroke="midnightblue" d="M527.67,-277.72C515.73,-280.35 503.54,-283.02 492,-285.5 478.28,-288.45 463.64,-291.54 449.54,-294.48"/>
<polygon fill="midnightblue" stroke="midnightblue" points="528.6,-281.1 537.61,-275.52 527.09,-274.27 528.6,-281.1"/>
</g>
<!-- Node13 -->
<g id="node13" class="node">
<title>Node13</title>
<g id="a_node13"><a xlink:href="classit_1_1unitn_1_1healthcore_1_1business_1_1AppointmentService.html#aed50e6f0cf3a16af4d8754c66060512d" target="_top" xlink:title=" ">
<polygon fill="white" stroke="black" points="259,-196.5 259,-226.5 492,-226.5 492,-196.5 259,-196.5"/>
<text text-anchor="start" x="267" y="-214.5" font-family="Helvetica,sans-Serif" font-size="10.00">it.unitn.healthcore.business.</text>
<text text-anchor="middle" x="375.5" y="-203.5" font-family="Helvetica,sans-Serif" font-size="10.00">AppointmentService.getFutureAppointments</text>
</a>
</g>
</g>
<!-- Node2&#45;&gt;Node13 -->
<g id="edge12" class="edge">
<title>Node2&#45;&gt;Node13</title>
<path fill="none" stroke="midnightblue" d="M524.54,-243.31C499.04,-237.84 471.04,-231.82 446.32,-226.51"/>
<polygon fill="midnightblue" stroke="midnightblue" points="524.03,-246.79 534.54,-245.47 525.5,-239.94 524.03,-246.79"/>
</g>
<!-- Node16 -->
<g id="node16" class="node">
<title>Node16</title>
<g id="a_node16"><a xlink:href="classit_1_1unitn_1_1healthcore_1_1business_1_1AppointmentService.html#aaaacaf474fcb34004e52bafc3ade271d" target="_top" xlink:title=" ">
<polygon fill="white" stroke="black" points="264,-147.5 264,-177.5 487,-177.5 487,-147.5 264,-147.5"/>
<text text-anchor="start" x="272" y="-165.5" font-family="Helvetica,sans-Serif" font-size="10.00">it.unitn.healthcore.business.</text>
<text text-anchor="middle" x="375.5" y="-154.5" font-family="Helvetica,sans-Serif" font-size="10.00">AppointmentService.getPastAppointments</text>
</a>
</g>
</g>
<!-- Node2&#45;&gt;Node16 -->
<g id="edge15" class="edge">
<title>Node2&#45;&gt;Node16</title>
<path fill="none" stroke="midnightblue" d="M577.67,-239.07C555.8,-222.63 523.5,-200.61 492,-187.5 482.72,-183.64 472.76,-180.34 462.72,-177.53"/>
<polygon fill="midnightblue" stroke="midnightblue" points="575.72,-241.99 585.79,-245.28 579.98,-236.43 575.72,-241.99"/>
</g>
<!-- Node19 -->
<g id="node19" class="node">
<title>Node19</title>
<g id="a_node19"><a xlink:href="classit_1_1unitn_1_1healthcore_1_1business_1_1PatientService.html#a541ee9273fd696797608c005eb4d2f78" target="_top" xlink:title=" ">
<polygon fill="white" stroke="black" points="280,-245.5 280,-275.5 471,-275.5 471,-245.5 280,-245.5"/>
<text text-anchor="start" x="288" y="-263.5" font-family="Helvetica,sans-Serif" font-size="10.00">it.unitn.healthcore.business.</text>
<text text-anchor="middle" x="375.5" y="-252.5" font-family="Helvetica,sans-Serif" font-size="10.00">PatientService.updateInsurancePlan</text>
</a>
</g>
</g>
<!-- Node2&#45;&gt;Node19 -->
<g id="edge18" class="edge">
<title>Node2&#45;&gt;Node19</title>
<path fill="none" stroke="midnightblue" d="M517.55,-260.5C502.35,-260.5 486.47,-260.5 471.08,-260.5"/>
<polygon fill="midnightblue" stroke="midnightblue" points="517.95,-264 527.95,-260.5 517.94,-257 517.95,-264"/>
</g>
<!-- Node20 -->
<g id="node20" class="node">
<title>Node20</title>
<g id="a_node20"><a xlink:href="classit_1_1unitn_1_1healthcore_1_1business_1_1UserService.html#a114823fda5c213bb46bc935608bb8953" target="_top" xlink:title=" ">
<polygon fill="white" stroke="black" points="293,-98.5 293,-128.5 458,-128.5 458,-98.5 293,-98.5"/>
<text text-anchor="start" x="301" y="-116.5" font-family="Helvetica,sans-Serif" font-size="10.00">it.unitn.healthcore.business.</text>
<text text-anchor="middle" x="375.5" y="-105.5" font-family="Helvetica,sans-Serif" font-size="10.00">UserService.updateUserProfile</text>
</a>
</g>
</g>
<!-- Node2&#45;&gt;Node20 -->
<g id="edge20" class="edge">
<title>Node2&#45;&gt;Node20</title>
<path fill="none" stroke="midnightblue" d="M589.52,-236.95C570.4,-208.93 534.65,-162.89 492,-138.5 481.58,-132.54 469.89,-128 458.06,-124.54"/>
<polygon fill="midnightblue" stroke="midnightblue" points="586.67,-238.98 595.13,-245.36 592.49,-235.1 586.67,-238.98"/>
</g>
<!-- Node22 -->
<g id="node22" class="node">
<title>Node22</title>
<g id="a_node22"><a xlink:href="classit_1_1unitn_1_1healthcore_1_1controller_1_1UserController.html#a72a0e87005b1b6a91822302d4888d3cf" target="_top" xlink:title="display the user&#39;s homepage after successful login and OTP verification.">
<polygon fill="white" stroke="black" points="293.5,-49.5 293.5,-79.5 457.5,-79.5 457.5,-49.5 293.5,-49.5"/>
<text text-anchor="start" x="301.5" y="-67.5" font-family="Helvetica,sans-Serif" font-size="10.00">it.unitn.healthcore.controller.</text>
<text text-anchor="middle" x="375.5" y="-56.5" font-family="Helvetica,sans-Serif" font-size="10.00">UserController.userHomepage</text>
</a>
</g>
</g>
<!-- Node2&#45;&gt;Node22 -->
<g id="edge22" class="edge">
<title>Node2&#45;&gt;Node22</title>
<path fill="none" stroke="midnightblue" d="M595.5,-235.66C580.36,-197.58 546.04,-125.33 492,-88.5 481.76,-81.52 469.91,-76.5 457.78,-72.9"/>
<polygon fill="midnightblue" stroke="midnightblue" points="592.41,-237.36 599.27,-245.43 598.94,-234.84 592.41,-237.36"/>
</g>
<!-- Node23 -->
<g id="node23" class="node">
<title>Node23</title>
<g id="a_node23"><a xlink:href="classit_1_1unitn_1_1healthcore_1_1controller_1_1UserController.html#a1e63710c7af819cd744147b3a65d3302" target="_top" xlink:title=" ">
<polygon fill="white" stroke="black" points="296.5,-0.5 296.5,-30.5 454.5,-30.5 454.5,-0.5 296.5,-0.5"/>
<text text-anchor="start" x="304.5" y="-18.5" font-family="Helvetica,sans-Serif" font-size="10.00">it.unitn.healthcore.controller.</text>
<text text-anchor="middle" x="375.5" y="-7.5" font-family="Helvetica,sans-Serif" font-size="10.00">UserController.viewProfile</text>
</a>
</g>
</g>
<!-- Node2&#45;&gt;Node23 -->
<g id="edge23" class="edge">
<title>Node2&#45;&gt;Node23</title>
<path fill="none" stroke="midnightblue" d="M599.25,-235.41C588.14,-188.95 557.7,-89.69 492,-39.5 481.1,-31.17 467.99,-25.56 454.58,-21.81"/>
<polygon fill="midnightblue" stroke="midnightblue" points="595.86,-236.29 601.5,-245.26 602.68,-234.73 595.86,-236.29"/>
</g>
<!-- Node4 -->
<g id="node4" class="node">
<title>Node4</title>
<g id="a_node4"><a xlink:href="classit_1_1unitn_1_1healthcore_1_1controller_1_1PatientController.html#a6c1b2c866308e0723c5b9157149ab47b" target="_top" xlink:title=" ">
<polygon fill="white" stroke="black" points="17.5,-502.5 17.5,-532.5 205.5,-532.5 205.5,-502.5 17.5,-502.5"/>
<text text-anchor="start" x="25.5" y="-520.5" font-family="Helvetica,sans-Serif" font-size="10.00">it.unitn.healthcore.controller.</text>
<text text-anchor="middle" x="111.5" y="-509.5" font-family="Helvetica,sans-Serif" font-size="10.00">PatientController.bookAppointment</text>
</a>
</g>
</g>
<!-- Node3&#45;&gt;Node4 -->
<g id="edge3" class="edge">
<title>Node3&#45;&gt;Node4</title>
<path fill="none" stroke="midnightblue" d="M277.01,-517.5C253.66,-517.5 228.8,-517.5 205.66,-517.5"/>
<polygon fill="midnightblue" stroke="midnightblue" points="277.26,-521 287.26,-517.5 277.26,-514 277.26,-521"/>
</g>
<!-- Node7 -->
<g id="node7" class="node">
<title>Node7</title>
<g id="a_node7"><a xlink:href="classit_1_1unitn_1_1healthcore_1_1controller_1_1DoctorController.html#aaf741f63621b758e3aab2e1af0639398" target="_top" xlink:title="Retrieves the details of a specific appointment by its ID.">
<polygon fill="white" stroke="black" points="4,-444.5 4,-474.5 219,-474.5 219,-444.5 4,-444.5"/>
<text text-anchor="start" x="12" y="-462.5" font-family="Helvetica,sans-Serif" font-size="10.00">it.unitn.healthcore.controller.</text>
<text text-anchor="middle" x="111.5" y="-451.5" font-family="Helvetica,sans-Serif" font-size="10.00">DoctorController.viewAppointmentDetail</text>
</a>
</g>
</g>
<!-- Node6&#45;&gt;Node7 -->
<g id="edge6" class="edge">
<title>Node6&#45;&gt;Node7</title>
<path fill="none" stroke="midnightblue" d="M266.84,-432.4C243.93,-436.42 220.03,-440.62 198.07,-444.48"/>
<polygon fill="midnightblue" stroke="midnightblue" points="267.7,-435.81 276.94,-430.63 266.49,-428.91 267.7,-435.81"/>
</g>
<!-- Node8 -->
<g id="node8" class="node">
<title>Node8</title>
<g id="a_node8"><a xlink:href="classit_1_1unitn_1_1healthcore_1_1controller_1_1PatientController.html#ac6fe0b7997f8668f80b25419c0d686c6" target="_top" xlink:title=" ">
<polygon fill="white" stroke="black" points="3.5,-395.5 3.5,-425.5 219.5,-425.5 219.5,-395.5 3.5,-395.5"/>
<text text-anchor="start" x="11.5" y="-413.5" font-family="Helvetica,sans-Serif" font-size="10.00">it.unitn.healthcore.controller.</text>
<text text-anchor="middle" x="111.5" y="-402.5" font-family="Helvetica,sans-Serif" font-size="10.00">PatientController.viewAppointmentDetail</text>
</a>
</g>
</g>
<!-- Node6&#45;&gt;Node8 -->
<g id="edge7" class="edge">
<title>Node6&#45;&gt;Node8</title>
<path fill="none" stroke="midnightblue" d="M266.82,-412.27C251.3,-412.09 235.33,-411.91 219.82,-411.73"/>
<polygon fill="midnightblue" stroke="midnightblue" points="266.9,-415.77 276.94,-412.38 266.98,-408.77 266.9,-415.77"/>
</g>
<!-- Node10 -->
<g id="node10" class="node">
<title>Node10</title>
<g id="a_node10"><a xlink:href="classit_1_1unitn_1_1healthcore_1_1controller_1_1DoctorController.html#a5a876b4fd08f941dc77ffca9e29608a3" target="_top" xlink:title="Retrieves the details of a specific appointment by its ID.">
<polygon fill="white" stroke="black" points="29.5,-343.5 29.5,-373.5 193.5,-373.5 193.5,-343.5 29.5,-343.5"/>
<text text-anchor="start" x="37.5" y="-361.5" font-family="Helvetica,sans-Serif" font-size="10.00">it.unitn.healthcore.controller.</text>
<text text-anchor="middle" x="111.5" y="-350.5" font-family="Helvetica,sans-Serif" font-size="10.00">DoctorController.viewMyShifts</text>
</a>
</g>
</g>
<!-- Node9&#45;&gt;Node10 -->
<g id="edge9" class="edge">
<title>Node9&#45;&gt;Node10</title>
<path fill="none" stroke="midnightblue" d="M265.57,-358.5C241.47,-358.5 216.35,-358.5 193.59,-358.5"/>
<polygon fill="midnightblue" stroke="midnightblue" points="265.82,-362 275.82,-358.5 265.82,-355 265.82,-362"/>
</g>
<!-- Node12 -->
<g id="node12" class="node">
<title>Node12</title>
<g id="a_node12"><a xlink:href="classit_1_1unitn_1_1healthcore_1_1controller_1_1PatientController.html#a7ff985e6a5601dbbef79fd420d2e54b4" target="_top" xlink:title=" ">
<polygon fill="white" stroke="black" points="10,-294.5 10,-324.5 213,-324.5 213,-294.5 10,-294.5"/>
<text text-anchor="start" x="18" y="-312.5" font-family="Helvetica,sans-Serif" font-size="10.00">it.unitn.healthcore.controller.</text>
<text text-anchor="middle" x="111.5" y="-301.5" font-family="Helvetica,sans-Serif" font-size="10.00">PatientController.updateInsurancePlan</text>
</a>
</g>
</g>
<!-- Node11&#45;&gt;Node12 -->
<g id="edge11" class="edge">
<title>Node11&#45;&gt;Node12</title>
<path fill="none" stroke="midnightblue" d="M260.63,-309.5C244.83,-309.5 228.69,-309.5 213.16,-309.5"/>
<polygon fill="midnightblue" stroke="midnightblue" points="260.95,-313 270.95,-309.5 260.95,-306 260.95,-313"/>
</g>
<!-- Node14 -->
<g id="node14" class="node">
<title>Node14</title>
<g id="a_node14"><a xlink:href="classit_1_1unitn_1_1healthcore_1_1controller_1_1DoctorController.html#a422bd25fb5f44b8f763d6a29787c46f0" target="_top" xlink:title="Retrieves a list of future appointments for the currently authenticated doctor.">
<polygon fill="white" stroke="black" points="1,-245.5 1,-275.5 222,-275.5 222,-245.5 1,-245.5"/>
<text text-anchor="start" x="9" y="-263.5" font-family="Helvetica,sans-Serif" font-size="10.00">it.unitn.healthcore.controller.</text>
<text text-anchor="middle" x="111.5" y="-252.5" font-family="Helvetica,sans-Serif" font-size="10.00">DoctorController.viewFutureAppointments</text>
</a>
</g>
</g>
<!-- Node13&#45;&gt;Node14 -->
<g id="edge13" class="edge">
<title>Node13&#45;&gt;Node14</title>
<path fill="none" stroke="midnightblue" d="M284.16,-228.39C254.45,-233.95 221.64,-240.09 192.74,-245.49"/>
<polygon fill="midnightblue" stroke="midnightblue" points="284.92,-231.81 294.11,-226.53 283.64,-224.93 284.92,-231.81"/>
</g>
<!-- Node15 -->
<g id="node15" class="node">
<title>Node15</title>
<g id="a_node15"><a xlink:href="classit_1_1unitn_1_1healthcore_1_1controller_1_1PatientController.html#a4207a6fab035c5242ecda1abdb49169e" target="_top" xlink:title=" ">
<polygon fill="white" stroke="black" points="0,-196.5 0,-226.5 223,-226.5 223,-196.5 0,-196.5"/>
<text text-anchor="start" x="8" y="-214.5" font-family="Helvetica,sans-Serif" font-size="10.00">it.unitn.healthcore.controller.</text>
<text text-anchor="middle" x="111.5" y="-203.5" font-family="Helvetica,sans-Serif" font-size="10.00">PatientController.viewFutureAppointments</text>
</a>
</g>
</g>
<!-- Node13&#45;&gt;Node15 -->
<g id="edge14" class="edge">
<title>Node13&#45;&gt;Node15</title>
<path fill="none" stroke="midnightblue" d="M248.56,-211.5C240.14,-211.5 231.68,-211.5 223.34,-211.5"/>
<polygon fill="midnightblue" stroke="midnightblue" points="248.82,-215 258.82,-211.5 248.82,-208 248.82,-215"/>
</g>
<!-- Node17 -->
<g id="node17" class="node">
<title>Node17</title>
<g id="a_node17"><a xlink:href="classit_1_1unitn_1_1healthcore_1_1controller_1_1DoctorController.html#a6d1a63a3f86734bbe0af66cf4b9cc4f8" target="_top" xlink:title="Retrieves a list of past appointments for the currently authenticated doctor.">
<polygon fill="white" stroke="black" points="6,-147.5 6,-177.5 217,-177.5 217,-147.5 6,-147.5"/>
<text text-anchor="start" x="14" y="-165.5" font-family="Helvetica,sans-Serif" font-size="10.00">it.unitn.healthcore.controller.</text>
<text text-anchor="middle" x="111.5" y="-154.5" font-family="Helvetica,sans-Serif" font-size="10.00">DoctorController.viewPastAppointments</text>
</a>
</g>
</g>
<!-- Node16&#45;&gt;Node17 -->
<g id="edge16" class="edge">
<title>Node16&#45;&gt;Node17</title>
<path fill="none" stroke="midnightblue" d="M253.64,-162.5C241.54,-162.5 229.33,-162.5 217.41,-162.5"/>
<polygon fill="midnightblue" stroke="midnightblue" points="253.77,-166 263.77,-162.5 253.77,-159 253.77,-166"/>
</g>
<!-- Node18 -->
<g id="node18" class="node">
<title>Node18</title>
<g id="a_node18"><a xlink:href="classit_1_1unitn_1_1healthcore_1_1controller_1_1PatientController.html#a8303b97c30b7b5049de75826bafceb4c" target="_top" xlink:title=" ">
<polygon fill="white" stroke="black" points="5.5,-98.5 5.5,-128.5 217.5,-128.5 217.5,-98.5 5.5,-98.5"/>
<text text-anchor="start" x="13.5" y="-116.5" font-family="Helvetica,sans-Serif" font-size="10.00">it.unitn.healthcore.controller.</text>
<text text-anchor="middle" x="111.5" y="-105.5" font-family="Helvetica,sans-Serif" font-size="10.00">PatientController.viewPastAppointments</text>
</a>
</g>
</g>
<!-- Node16&#45;&gt;Node18 -->
<g id="edge17" class="edge">
<title>Node16&#45;&gt;Node18</title>
<path fill="none" stroke="midnightblue" d="M284.16,-145.61C254.45,-140.05 221.64,-133.91 192.74,-128.51"/>
<polygon fill="midnightblue" stroke="midnightblue" points="283.64,-149.07 294.11,-147.47 284.92,-142.19 283.64,-149.07"/>
</g>
<!-- Node19&#45;&gt;Node12 -->
<g id="edge19" class="edge">
<title>Node19&#45;&gt;Node12</title>
<path fill="none" stroke="midnightblue" d="M284.16,-277.39C254.45,-282.95 221.64,-289.09 192.74,-294.49"/>
<polygon fill="midnightblue" stroke="midnightblue" points="284.92,-280.81 294.11,-275.53 283.64,-273.93 284.92,-280.81"/>
</g>
<!-- Node21 -->
<g id="node21" class="node">
<title>Node21</title>
<g id="a_node21"><a xlink:href="classit_1_1unitn_1_1healthcore_1_1controller_1_1UserController.html#a546d5ed79a6b2f6f15000d9ddb3b03ab" target="_top" xlink:title=" ">
<polygon fill="white" stroke="black" points="32.5,-49.5 32.5,-79.5 190.5,-79.5 190.5,-49.5 32.5,-49.5"/>
<text text-anchor="start" x="40.5" y="-67.5" font-family="Helvetica,sans-Serif" font-size="10.00">it.unitn.healthcore.controller.</text>
<text text-anchor="middle" x="111.5" y="-56.5" font-family="Helvetica,sans-Serif" font-size="10.00">UserController.updateProfile</text>
</a>
</g>
</g>
<!-- Node20&#45;&gt;Node21 -->
<g id="edge21" class="edge">
<title>Node20&#45;&gt;Node21</title>
<path fill="none" stroke="midnightblue" d="M283.98,-96.57C253.7,-90.91 220.22,-84.65 190.94,-79.17"/>
<polygon fill="midnightblue" stroke="midnightblue" points="283.64,-100.07 294.11,-98.47 284.92,-93.19 283.64,-100.07"/>
</g>
</g>
</svg>
