<?xml version="1.0" encoding="UTF-8" standalone="no"?>
<!DOCTYPE svg PUBLIC "-//W3C//DTD SVG 1.1//EN"
 "http://www.w3.org/Graphics/SVG/1.1/DTD/svg11.dtd">
<!-- Generated by graphviz version 2.43.0 (0)
 -->
<!-- Title: it.unitn.healthcore.domain.Doctor.setDepartment Pages: 1 -->
<svg width="604pt" height="39pt"
 viewBox="0.00 0.00 604.00 39.00" xmlns="http://www.w3.org/2000/svg" xmlns:xlink="http://www.w3.org/1999/xlink">
<g id="graph0" class="graph" transform="scale(1 1) rotate(0) translate(4 35)">
<title>it.unitn.healthcore.domain.Doctor.setDepartment</title>
<polygon fill="white" stroke="transparent" points="-4,4 -4,-35 600,-35 600,4 -4,4"/>
<!-- Node1 -->
<g id="node1" class="node">
<title>Node1</title>
<g id="a_node1"><a xlink:title="Department setter.">
<polygon fill="#bfbfbf" stroke="black" points="447,-0.5 447,-30.5 596,-30.5 596,-0.5 447,-0.5"/>
<text text-anchor="start" x="455" y="-18.5" font-family="Helvetica,sans-Serif" font-size="10.00">it.unitn.healthcore.domain.</text>
<text text-anchor="middle" x="521.5" y="-7.5" font-family="Helvetica,sans-Serif" font-size="10.00">Doctor.setDepartment</text>
</a>
</g>
</g>
<!-- Node2 -->
<g id="node2" class="node">
<title>Node2</title>
<g id="a_node2"><a xlink:href="classit_1_1unitn_1_1healthcore_1_1business_1_1DoctorService.html#ab2c93c48b93c7f003012f699a06841cc" target="_top" xlink:title="Changes the department of a doctor to a new department.">
<polygon fill="white" stroke="black" points="229,-0.5 229,-30.5 411,-30.5 411,-0.5 229,-0.5"/>
<text text-anchor="start" x="237" y="-18.5" font-family="Helvetica,sans-Serif" font-size="10.00">it.unitn.healthcore.business.</text>
<text text-anchor="middle" x="320" y="-7.5" font-family="Helvetica,sans-Serif" font-size="10.00">DoctorService.changeDepartment</text>
</a>
</g>
</g>
<!-- Node1&#45;&gt;Node2 -->
<g id="edge1" class="edge">
<title>Node1&#45;&gt;Node2</title>
<path fill="none" stroke="midnightblue" d="M436.66,-15.5C428.29,-15.5 419.76,-15.5 411.33,-15.5"/>
<polygon fill="midnightblue" stroke="midnightblue" points="436.78,-19 446.78,-15.5 436.78,-12 436.78,-19"/>
</g>
<!-- Node3 -->
<g id="node3" class="node">
<title>Node3</title>
<g id="a_node3"><a xlink:href="classit_1_1unitn_1_1healthcore_1_1controller_1_1DoctorController.html#aae8b5b27a77226e6e5c7a1ce5e177e92" target="_top" xlink:title="Changes the department assignment for a specific doctor.">
<polygon fill="white" stroke="black" points="0,-0.5 0,-30.5 193,-30.5 193,-0.5 0,-0.5"/>
<text text-anchor="start" x="8" y="-18.5" font-family="Helvetica,sans-Serif" font-size="10.00">it.unitn.healthcore.controller.</text>
<text text-anchor="middle" x="96.5" y="-7.5" font-family="Helvetica,sans-Serif" font-size="10.00">DoctorController.changeDepartment</text>
</a>
</g>
</g>
<!-- Node2&#45;&gt;Node3 -->
<g id="edge2" class="edge">
<title>Node2&#45;&gt;Node3</title>
<path fill="none" stroke="midnightblue" d="M218.66,-15.5C210.22,-15.5 201.69,-15.5 193.28,-15.5"/>
<polygon fill="midnightblue" stroke="midnightblue" points="218.91,-19 228.91,-15.5 218.91,-12 218.91,-19"/>
</g>
</g>
</svg>
