<?xml version="1.0" encoding="UTF-8" standalone="no"?>
<!DOCTYPE svg PUBLIC "-//W3C//DTD SVG 1.1//EN"
 "http://www.w3.org/Graphics/SVG/1.1/DTD/svg11.dtd">
<!-- Generated by graphviz version 2.43.0 (0)
 -->
<!-- Title: it.unitn.healthcore.controller.UserController.addPatient Pages: 1 -->
<svg width="608pt" height="308pt"
 viewBox="0.00 0.00 608.00 307.50" xmlns="http://www.w3.org/2000/svg" xmlns:xlink="http://www.w3.org/1999/xlink">
<g id="graph0" class="graph" transform="scale(1 1) rotate(0) translate(4 303.5)">
<title>it.unitn.healthcore.controller.UserController.addPatient</title>
<polygon fill="white" stroke="transparent" points="-4,4 -4,-303.5 604,-303.5 604,4 -4,4"/>
<!-- Node1 -->
<g id="node1" class="node">
<title>Node1</title>
<g id="a_node1"><a xlink:title=" ">
<polygon fill="#bfbfbf" stroke="black" points="0,-125.5 0,-155.5 158,-155.5 158,-125.5 0,-125.5"/>
<text text-anchor="start" x="8" y="-143.5" font-family="Helvetica,sans-Serif" font-size="10.00">it.unitn.healthcore.controller.</text>
<text text-anchor="middle" x="79" y="-132.5" font-family="Helvetica,sans-Serif" font-size="10.00">UserController.addPatient</text>
</a>
</g>
</g>
<!-- Node2 -->
<g id="node2" class="node">
<title>Node2</title>
<g id="a_node2"><a xlink:href="classit_1_1unitn_1_1healthcore_1_1business_1_1UserService.html#a32dba226bff5fb3cd0caf79303b71d38" target="_top" xlink:title=" ">
<polygon fill="white" stroke="black" points="194,-125.5 194,-155.5 349,-155.5 349,-125.5 194,-125.5"/>
<text text-anchor="start" x="202" y="-143.5" font-family="Helvetica,sans-Serif" font-size="10.00">it.unitn.healthcore.business.</text>
<text text-anchor="middle" x="271.5" y="-132.5" font-family="Helvetica,sans-Serif" font-size="10.00">UserService.registerPatient</text>
</a>
</g>
</g>
<!-- Node1&#45;&gt;Node2 -->
<g id="edge1" class="edge">
<title>Node1&#45;&gt;Node2</title>
<path fill="none" stroke="midnightblue" d="M158.03,-140.5C166.53,-140.5 175.21,-140.5 183.8,-140.5"/>
<polygon fill="midnightblue" stroke="midnightblue" points="183.82,-144 193.82,-140.5 183.82,-137 183.82,-144"/>
</g>
<!-- Node3 -->
<g id="node3" class="node">
<title>Node3</title>
<g id="a_node3"><a xlink:href="interfaceit_1_1unitn_1_1healthcore_1_1persistence_1_1PatientRepository.html#a320387b23f16ee948d66d932faa3991f" target="_top" xlink:title=" ">
<polygon fill="white" stroke="black" points="392.5,-258 392.5,-299 592.5,-299 592.5,-258 392.5,-258"/>
<text text-anchor="start" x="400.5" y="-287" font-family="Helvetica,sans-Serif" font-size="10.00">it.unitn.healthcore.persistence.</text>
<text text-anchor="start" x="400.5" y="-276" font-family="Helvetica,sans-Serif" font-size="10.00">PatientRepository.existsByHealthcare</text>
<text text-anchor="middle" x="492.5" y="-265" font-family="Helvetica,sans-Serif" font-size="10.00">CardNumber</text>
</a>
</g>
</g>
<!-- Node2&#45;&gt;Node3 -->
<g id="edge2" class="edge">
<title>Node2&#45;&gt;Node3</title>
<path fill="none" stroke="midnightblue" d="M284.24,-155.83C302.99,-179.28 342,-223.89 385,-248.5 388.28,-250.38 391.68,-252.14 395.17,-253.8"/>
<polygon fill="midnightblue" stroke="midnightblue" points="394.01,-257.11 404.57,-257.95 396.84,-250.71 394.01,-257.11"/>
</g>
<!-- Node4 -->
<g id="node4" class="node">
<title>Node4</title>
<g id="a_node4"><a xlink:href="classit_1_1unitn_1_1healthcore_1_1domain_1_1PasswordConfirmationForm.html#ad2a321af868704e56c42d5306a8acd91" target="_top" xlink:title="Email getter.">
<polygon fill="white" stroke="black" points="394,-208.5 394,-238.5 591,-238.5 591,-208.5 394,-208.5"/>
<text text-anchor="start" x="402" y="-226.5" font-family="Helvetica,sans-Serif" font-size="10.00">it.unitn.healthcore.domain.</text>
<text text-anchor="middle" x="492.5" y="-215.5" font-family="Helvetica,sans-Serif" font-size="10.00">PasswordConfirmationForm.getEmail</text>
</a>
</g>
</g>
<!-- Node2&#45;&gt;Node4 -->
<g id="edge3" class="edge">
<title>Node2&#45;&gt;Node4</title>
<path fill="none" stroke="midnightblue" d="M297.6,-155.72C319.88,-168.66 353.66,-186.94 385,-198.5 392.14,-201.13 399.66,-203.56 407.26,-205.77"/>
<polygon fill="midnightblue" stroke="midnightblue" points="406.33,-209.14 416.9,-208.46 408.21,-202.4 406.33,-209.14"/>
</g>
<!-- Node5 -->
<g id="node5" class="node">
<title>Node5</title>
<g id="a_node5"><a xlink:href="classit_1_1unitn_1_1healthcore_1_1domain_1_1PatientRegistrationForm.html#abc573cb3f03f7b2d2e0dd970c569df84" target="_top" xlink:title="Healthcare card number getter.">
<polygon fill="white" stroke="black" points="389.5,-148 389.5,-189 595.5,-189 595.5,-148 389.5,-148"/>
<text text-anchor="start" x="397.5" y="-177" font-family="Helvetica,sans-Serif" font-size="10.00">it.unitn.healthcore.domain.</text>
<text text-anchor="start" x="397.5" y="-166" font-family="Helvetica,sans-Serif" font-size="10.00">PatientRegistrationForm.getHealthcare</text>
<text text-anchor="middle" x="492.5" y="-155" font-family="Helvetica,sans-Serif" font-size="10.00">CardNumber</text>
</a>
</g>
</g>
<!-- Node2&#45;&gt;Node5 -->
<g id="edge4" class="edge">
<title>Node2&#45;&gt;Node5</title>
<path fill="none" stroke="midnightblue" d="M349.1,-150.29C358.81,-151.53 368.9,-152.83 379.03,-154.12"/>
<polygon fill="midnightblue" stroke="midnightblue" points="378.8,-157.62 389.16,-155.42 379.68,-150.68 378.8,-157.62"/>
</g>
<!-- Node6 -->
<g id="node6" class="node">
<title>Node6</title>
<g id="a_node6"><a xlink:href="classit_1_1unitn_1_1healthcore_1_1domain_1_1PatientRegistrationForm.html#a47e69a04762a7937f63f729aa52fbe7a" target="_top" xlink:title="Creates a PatientRegistrationForm with the specified details, without healthcare card number.">
<polygon fill="white" stroke="black" points="401.5,-98.5 401.5,-128.5 583.5,-128.5 583.5,-98.5 401.5,-98.5"/>
<text text-anchor="start" x="409.5" y="-116.5" font-family="Helvetica,sans-Serif" font-size="10.00">it.unitn.healthcore.domain.</text>
<text text-anchor="middle" x="492.5" y="-105.5" font-family="Helvetica,sans-Serif" font-size="10.00">PatientRegistrationForm.getName</text>
</a>
</g>
</g>
<!-- Node2&#45;&gt;Node6 -->
<g id="edge5" class="edge">
<title>Node2&#45;&gt;Node6</title>
<path fill="none" stroke="midnightblue" d="M349.1,-131.06C362.69,-129.38 377.04,-127.61 391.18,-125.87"/>
<polygon fill="midnightblue" stroke="midnightblue" points="391.93,-129.3 401.42,-124.61 391.07,-122.36 391.93,-129.3"/>
</g>
<!-- Node7 -->
<g id="node7" class="node">
<title>Node7</title>
<g id="a_node7"><a xlink:href="classit_1_1unitn_1_1healthcore_1_1domain_1_1PasswordConfirmationForm.html#aa7de23a583db33eba13ddecad973ceca" target="_top" xlink:title="Password getter.">
<polygon fill="white" stroke="black" points="385,-49.5 385,-79.5 600,-79.5 600,-49.5 385,-49.5"/>
<text text-anchor="start" x="393" y="-67.5" font-family="Helvetica,sans-Serif" font-size="10.00">it.unitn.healthcore.domain.</text>
<text text-anchor="middle" x="492.5" y="-56.5" font-family="Helvetica,sans-Serif" font-size="10.00">PasswordConfirmationForm.getPassword</text>
</a>
</g>
</g>
<!-- Node2&#45;&gt;Node7 -->
<g id="edge6" class="edge">
<title>Node2&#45;&gt;Node7</title>
<path fill="none" stroke="midnightblue" d="M301.47,-125.47C323.83,-114.34 355.77,-99.45 385,-89.5 392.67,-86.89 400.74,-84.45 408.86,-82.21"/>
<polygon fill="midnightblue" stroke="midnightblue" points="410.02,-85.52 418.78,-79.57 408.21,-78.76 410.02,-85.52"/>
</g>
<!-- Node8 -->
<g id="node8" class="node">
<title>Node8</title>
<g id="a_node8"><a xlink:href="classit_1_1unitn_1_1healthcore_1_1domain_1_1PatientRegistrationForm.html#a28bacda95e68eaf4665de2509652c6fe" target="_top" xlink:title="Surname getter.">
<polygon fill="white" stroke="black" points="394,-0.5 394,-30.5 591,-30.5 591,-0.5 394,-0.5"/>
<text text-anchor="start" x="402" y="-18.5" font-family="Helvetica,sans-Serif" font-size="10.00">it.unitn.healthcore.domain.</text>
<text text-anchor="middle" x="492.5" y="-7.5" font-family="Helvetica,sans-Serif" font-size="10.00">PatientRegistrationForm.getSurname</text>
</a>
</g>
</g>
<!-- Node2&#45;&gt;Node8 -->
<g id="edge7" class="edge">
<title>Node2&#45;&gt;Node8</title>
<path fill="none" stroke="midnightblue" d="M285,-125.39C304.16,-103.25 343.02,-62.28 385,-40.5 389.57,-38.13 394.37,-35.98 399.29,-34.03"/>
<polygon fill="midnightblue" stroke="midnightblue" points="400.7,-37.24 408.9,-30.53 398.3,-30.67 400.7,-37.24"/>
</g>
</g>
</svg>
