<?xml version="1.0" encoding="UTF-8" standalone="no"?>
<!DOCTYPE svg PUBLIC "-//W3C//DTD SVG 1.1//EN"
 "http://www.w3.org/Graphics/SVG/1.1/DTD/svg11.dtd">
<!-- Generated by graphviz version 2.43.0 (0)
 -->
<!-- Title: it.unitn.healthcore.business.UserService.registerDoctor Pages: 1 -->
<svg width="435pt" height="284pt"
 viewBox="0.00 0.00 435.00 284.00" xmlns="http://www.w3.org/2000/svg" xmlns:xlink="http://www.w3.org/1999/xlink">
<g id="graph0" class="graph" transform="scale(1 1) rotate(0) translate(4 280)">
<title>it.unitn.healthcore.business.UserService.registerDoctor</title>
<polygon fill="white" stroke="transparent" points="-4,4 -4,-280 431,-280 431,4 -4,4"/>
<!-- Node1 -->
<g id="node1" class="node">
<title>Node1</title>
<g id="a_node1"><a xlink:title=" ">
<polygon fill="#bfbfbf" stroke="black" points="0,-122.5 0,-152.5 155,-152.5 155,-122.5 0,-122.5"/>
<text text-anchor="start" x="8" y="-140.5" font-family="Helvetica,sans-Serif" font-size="10.00">it.unitn.healthcore.business.</text>
<text text-anchor="middle" x="77.5" y="-129.5" font-family="Helvetica,sans-Serif" font-size="10.00">UserService.registerDoctor</text>
</a>
</g>
</g>
<!-- Node2 -->
<g id="node2" class="node">
<title>Node2</title>
<g id="a_node2"><a xlink:href="classit_1_1unitn_1_1healthcore_1_1domain_1_1EmployeeRegistrationForm.html#aacda9ff32f2f6c240f9f1ce7a746839a" target="_top" xlink:title="Department ID getter.">
<polygon fill="white" stroke="black" points="191,-245.5 191,-275.5 427,-275.5 427,-245.5 191,-245.5"/>
<text text-anchor="start" x="199" y="-263.5" font-family="Helvetica,sans-Serif" font-size="10.00">it.unitn.healthcore.domain.</text>
<text text-anchor="middle" x="309" y="-252.5" font-family="Helvetica,sans-Serif" font-size="10.00">EmployeeRegistrationForm.getDepartmentId</text>
</a>
</g>
</g>
<!-- Node1&#45;&gt;Node2 -->
<g id="edge1" class="edge">
<title>Node1&#45;&gt;Node2</title>
<path fill="none" stroke="midnightblue" d="M90.96,-152.61C110.06,-174.71 148.85,-215.51 191,-236.5 195.02,-238.5 199.21,-240.34 203.49,-242.02"/>
<polygon fill="midnightblue" stroke="midnightblue" points="202.41,-245.36 213.01,-245.47 204.8,-238.77 202.41,-245.36"/>
</g>
<!-- Node3 -->
<g id="node3" class="node">
<title>Node3</title>
<g id="a_node3"><a xlink:href="classit_1_1unitn_1_1healthcore_1_1domain_1_1PasswordConfirmationForm.html#ad2a321af868704e56c42d5306a8acd91" target="_top" xlink:title="Email getter.">
<polygon fill="white" stroke="black" points="210.5,-196.5 210.5,-226.5 407.5,-226.5 407.5,-196.5 210.5,-196.5"/>
<text text-anchor="start" x="218.5" y="-214.5" font-family="Helvetica,sans-Serif" font-size="10.00">it.unitn.healthcore.domain.</text>
<text text-anchor="middle" x="309" y="-203.5" font-family="Helvetica,sans-Serif" font-size="10.00">PasswordConfirmationForm.getEmail</text>
</a>
</g>
</g>
<!-- Node1&#45;&gt;Node3 -->
<g id="edge2" class="edge">
<title>Node1&#45;&gt;Node3</title>
<path fill="none" stroke="midnightblue" d="M107.9,-152.67C130.2,-163.66 161.9,-178.17 191,-187.5 198.36,-189.86 206.05,-192.04 213.83,-194.04"/>
<polygon fill="midnightblue" stroke="midnightblue" points="213.16,-197.48 223.71,-196.49 214.84,-190.69 213.16,-197.48"/>
</g>
<!-- Node4 -->
<g id="node4" class="node">
<title>Node4</title>
<g id="a_node4"><a xlink:href="classit_1_1unitn_1_1healthcore_1_1domain_1_1EmployeeRegistrationForm.html#ae00ab1333401d899f6e010a99e5afec8" target="_top" xlink:title="Name getter.">
<polygon fill="white" stroke="black" points="210.5,-147.5 210.5,-177.5 407.5,-177.5 407.5,-147.5 210.5,-147.5"/>
<text text-anchor="start" x="218.5" y="-165.5" font-family="Helvetica,sans-Serif" font-size="10.00">it.unitn.healthcore.domain.</text>
<text text-anchor="middle" x="309" y="-154.5" font-family="Helvetica,sans-Serif" font-size="10.00">EmployeeRegistrationForm.getName</text>
</a>
</g>
</g>
<!-- Node1&#45;&gt;Node4 -->
<g id="edge3" class="edge">
<title>Node1&#45;&gt;Node4</title>
<path fill="none" stroke="midnightblue" d="M155.24,-145.86C169.53,-147.42 184.71,-149.07 199.74,-150.71"/>
<polygon fill="midnightblue" stroke="midnightblue" points="199.79,-154.23 210.11,-151.84 200.55,-147.27 199.79,-154.23"/>
</g>
<!-- Node5 -->
<g id="node5" class="node">
<title>Node5</title>
<g id="a_node5"><a xlink:href="classit_1_1unitn_1_1healthcore_1_1domain_1_1PasswordConfirmationForm.html#aa7de23a583db33eba13ddecad973ceca" target="_top" xlink:title="Password getter.">
<polygon fill="white" stroke="black" points="201.5,-98.5 201.5,-128.5 416.5,-128.5 416.5,-98.5 201.5,-98.5"/>
<text text-anchor="start" x="209.5" y="-116.5" font-family="Helvetica,sans-Serif" font-size="10.00">it.unitn.healthcore.domain.</text>
<text text-anchor="middle" x="309" y="-105.5" font-family="Helvetica,sans-Serif" font-size="10.00">PasswordConfirmationForm.getPassword</text>
</a>
</g>
</g>
<!-- Node1&#45;&gt;Node5 -->
<g id="edge4" class="edge">
<title>Node1&#45;&gt;Node5</title>
<path fill="none" stroke="midnightblue" d="M155.24,-129.47C166.74,-128.27 178.82,-127.01 190.93,-125.74"/>
<polygon fill="midnightblue" stroke="midnightblue" points="191.52,-129.2 201.1,-124.68 190.79,-122.24 191.52,-129.2"/>
</g>
<!-- Node6 -->
<g id="node6" class="node">
<title>Node6</title>
<g id="a_node6"><a xlink:href="classit_1_1unitn_1_1healthcore_1_1domain_1_1EmployeeRegistrationForm.html#af1804bfdb0eb5dd711f6344f6c7e420c" target="_top" xlink:title="Surname getter.">
<polygon fill="white" stroke="black" points="203,-49.5 203,-79.5 415,-79.5 415,-49.5 203,-49.5"/>
<text text-anchor="start" x="211" y="-67.5" font-family="Helvetica,sans-Serif" font-size="10.00">it.unitn.healthcore.domain.</text>
<text text-anchor="middle" x="309" y="-56.5" font-family="Helvetica,sans-Serif" font-size="10.00">EmployeeRegistrationForm.getSurname</text>
</a>
</g>
</g>
<!-- Node1&#45;&gt;Node6 -->
<g id="edge5" class="edge">
<title>Node1&#45;&gt;Node6</title>
<path fill="none" stroke="midnightblue" d="M109.41,-122.4C131.67,-111.99 162.66,-98.48 191,-89.5 199.58,-86.78 208.61,-84.27 217.68,-81.96"/>
<polygon fill="midnightblue" stroke="midnightblue" points="218.65,-85.33 227.53,-79.55 216.99,-78.53 218.65,-85.33"/>
</g>
<!-- Node7 -->
<g id="node7" class="node">
<title>Node7</title>
<g id="a_node7"><a xlink:href="classit_1_1unitn_1_1healthcore_1_1domain_1_1Department.html#adb4a544815968649e801e2182b7069f0" target="_top" xlink:title="Returns the total staff positions within the department.">
<polygon fill="white" stroke="black" points="217,-0.5 217,-30.5 401,-30.5 401,-0.5 217,-0.5"/>
<text text-anchor="start" x="225" y="-18.5" font-family="Helvetica,sans-Serif" font-size="10.00">it.unitn.healthcore.domain.</text>
<text text-anchor="middle" x="309" y="-7.5" font-family="Helvetica,sans-Serif" font-size="10.00">Department.getTotalStaffPositions</text>
</a>
</g>
</g>
<!-- Node1&#45;&gt;Node7 -->
<g id="edge6" class="edge">
<title>Node1&#45;&gt;Node7</title>
<path fill="none" stroke="midnightblue" d="M91.37,-122.39C110.7,-100.72 149.43,-61.15 191,-40.5 196.18,-37.92 201.63,-35.61 207.21,-33.54"/>
<polygon fill="midnightblue" stroke="midnightblue" points="208.4,-36.83 216.71,-30.27 206.12,-30.21 208.4,-36.83"/>
</g>
</g>
</svg>
