<?xml version="1.0" encoding="UTF-8" standalone="no"?>
<!DOCTYPE svg PUBLIC "-//W3C//DTD SVG 1.1//EN"
 "http://www.w3.org/Graphics/SVG/1.1/DTD/svg11.dtd">
<!-- Generated by graphviz version 2.43.0 (0)
 -->
<!-- Title: it.unitn.healthcore.controller.UserController.userHomepage Pages: 1 -->
<svg width="579pt" height="112pt"
 viewBox="0.00 0.00 579.00 112.00" xmlns="http://www.w3.org/2000/svg" xmlns:xlink="http://www.w3.org/1999/xlink">
<g id="graph0" class="graph" transform="scale(1 1) rotate(0) translate(4 108)">
<title>it.unitn.healthcore.controller.UserController.userHomepage</title>
<polygon fill="white" stroke="transparent" points="-4,4 -4,-108 575,-108 575,4 -4,4"/>
<!-- Node1 -->
<g id="node1" class="node">
<title>Node1</title>
<g id="a_node1"><a xlink:title="display the user&#39;s homepage after successful login and OTP verification.">
<polygon fill="#bfbfbf" stroke="black" points="0,-24.5 0,-54.5 164,-54.5 164,-24.5 0,-24.5"/>
<text text-anchor="start" x="8" y="-42.5" font-family="Helvetica,sans-Serif" font-size="10.00">it.unitn.healthcore.controller.</text>
<text text-anchor="middle" x="82" y="-31.5" font-family="Helvetica,sans-Serif" font-size="10.00">UserController.userHomepage</text>
</a>
</g>
</g>
<!-- Node2 -->
<g id="node2" class="node">
<title>Node2</title>
<g id="a_node2"><a xlink:href="classit_1_1unitn_1_1healthcore_1_1business_1_1UserService.html#a33213d05bfda4e7384e17b18332d4bb5" target="_top" xlink:title="Retrieves the currently authenticated user from the database.">
<polygon fill="white" stroke="black" points="200,-49.5 200,-79.5 355,-79.5 355,-49.5 200,-49.5"/>
<text text-anchor="start" x="208" y="-67.5" font-family="Helvetica,sans-Serif" font-size="10.00">it.unitn.healthcore.business.</text>
<text text-anchor="middle" x="277.5" y="-56.5" font-family="Helvetica,sans-Serif" font-size="10.00">UserService.getCurrentUser</text>
</a>
</g>
</g>
<!-- Node1&#45;&gt;Node2 -->
<g id="edge1" class="edge">
<title>Node1&#45;&gt;Node2</title>
<path fill="none" stroke="midnightblue" d="M164.22,-49.99C172.69,-51.09 181.33,-52.2 189.86,-53.31"/>
<polygon fill="midnightblue" stroke="midnightblue" points="189.45,-56.78 199.81,-54.59 190.35,-49.84 189.45,-56.78"/>
</g>
<!-- Node5 -->
<g id="node5" class="node">
<title>Node5</title>
<g id="a_node5"><a xlink:href="classit_1_1unitn_1_1healthcore_1_1domain_1_1User.html#a0c78137c0cf7b414cc88dcc41895d5a7" target="_top" xlink:title="Returns the first name of the user.">
<polygon fill="white" stroke="black" points="203,-0.5 203,-30.5 352,-30.5 352,-0.5 203,-0.5"/>
<text text-anchor="start" x="211" y="-18.5" font-family="Helvetica,sans-Serif" font-size="10.00">it.unitn.healthcore.domain.</text>
<text text-anchor="middle" x="277.5" y="-7.5" font-family="Helvetica,sans-Serif" font-size="10.00">User.getName</text>
</a>
</g>
</g>
<!-- Node1&#45;&gt;Node5 -->
<g id="edge4" class="edge">
<title>Node1&#45;&gt;Node5</title>
<path fill="none" stroke="midnightblue" d="M164.22,-29.43C173.64,-28.26 183.26,-27.06 192.71,-25.89"/>
<polygon fill="midnightblue" stroke="midnightblue" points="193.39,-29.34 202.88,-24.63 192.53,-22.39 193.39,-29.34"/>
</g>
<!-- Node3 -->
<g id="node3" class="node">
<title>Node3</title>
<g id="a_node3"><a xlink:href="interfaceit_1_1unitn_1_1healthcore_1_1persistence_1_1UserRepository.html#a6a646ae44d01189ff44c81c03fc92fa8" target="_top" xlink:title=" ">
<polygon fill="white" stroke="black" points="394,-73.5 394,-103.5 568,-103.5 568,-73.5 394,-73.5"/>
<text text-anchor="start" x="402" y="-91.5" font-family="Helvetica,sans-Serif" font-size="10.00">it.unitn.healthcore.persistence.</text>
<text text-anchor="middle" x="481" y="-80.5" font-family="Helvetica,sans-Serif" font-size="10.00">UserRepository.findUserByEmail</text>
</a>
</g>
</g>
<!-- Node2&#45;&gt;Node3 -->
<g id="edge2" class="edge">
<title>Node2&#45;&gt;Node3</title>
<path fill="none" stroke="midnightblue" d="M355.25,-73.64C364.58,-74.75 374.2,-75.9 383.76,-77.04"/>
<polygon fill="midnightblue" stroke="midnightblue" points="383.35,-80.51 393.7,-78.22 384.18,-73.56 383.35,-80.51"/>
</g>
<!-- Node4 -->
<g id="node4" class="node">
<title>Node4</title>
<g id="a_node4"><a xlink:href="classit_1_1unitn_1_1healthcore_1_1business_1_1UserService.html#a703ed9778e3ac6cd9741220089b5f48d" target="_top" xlink:title="Retrieves the email of the currently authenticated user.">
<polygon fill="white" stroke="black" points="391,-24.5 391,-54.5 571,-54.5 571,-24.5 391,-24.5"/>
<text text-anchor="start" x="399" y="-42.5" font-family="Helvetica,sans-Serif" font-size="10.00">it.unitn.healthcore.business.</text>
<text text-anchor="middle" x="481" y="-31.5" font-family="Helvetica,sans-Serif" font-size="10.00">UserService.getCurrentUserEmail</text>
</a>
</g>
</g>
<!-- Node2&#45;&gt;Node4 -->
<g id="edge3" class="edge">
<title>Node2&#45;&gt;Node4</title>
<path fill="none" stroke="midnightblue" d="M355.25,-54.98C363.65,-53.94 372.28,-52.87 380.89,-51.8"/>
<polygon fill="midnightblue" stroke="midnightblue" points="381.49,-55.25 390.98,-50.54 380.62,-48.3 381.49,-55.25"/>
</g>
</g>
</svg>
