<?xml version="1.0" encoding="UTF-8" standalone="no"?>
<!DOCTYPE svg PUBLIC "-//W3C//DTD SVG 1.1//EN"
 "http://www.w3.org/Graphics/SVG/1.1/DTD/svg11.dtd">
<!-- Generated by graphviz version 2.43.0 (0)
 -->
<!-- Title: it.unitn.healthcore.business.PatientService.cancelAppointment Pages: 1 -->
<svg width="599pt" height="210pt"
 viewBox="0.00 0.00 599.00 210.00" xmlns="http://www.w3.org/2000/svg" xmlns:xlink="http://www.w3.org/1999/xlink">
<g id="graph0" class="graph" transform="scale(1 1) rotate(0) translate(4 206)">
<title>it.unitn.healthcore.business.PatientService.cancelAppointment</title>
<polygon fill="white" stroke="transparent" points="-4,4 -4,-206 595,-206 595,4 -4,4"/>
<!-- Node1 -->
<g id="node1" class="node">
<title>Node1</title>
<g id="a_node1"><a xlink:title="Cancels an existing appointment for the currently authenticated patient.">
<polygon fill="#bfbfbf" stroke="black" points="0,-73.5 0,-103.5 184,-103.5 184,-73.5 0,-73.5"/>
<text text-anchor="start" x="8" y="-91.5" font-family="Helvetica,sans-Serif" font-size="10.00">it.unitn.healthcore.business.</text>
<text text-anchor="middle" x="92" y="-80.5" font-family="Helvetica,sans-Serif" font-size="10.00">PatientService.cancelAppointment</text>
</a>
</g>
</g>
<!-- Node2 -->
<g id="node2" class="node">
<title>Node2</title>
<g id="a_node2"><a xlink:href="classit_1_1unitn_1_1healthcore_1_1business_1_1UserService.html#a33213d05bfda4e7384e17b18332d4bb5" target="_top" xlink:title="Retrieves the currently authenticated user from the database.">
<polygon fill="white" stroke="black" points="220,-147.5 220,-177.5 375,-177.5 375,-147.5 220,-147.5"/>
<text text-anchor="start" x="228" y="-165.5" font-family="Helvetica,sans-Serif" font-size="10.00">it.unitn.healthcore.business.</text>
<text text-anchor="middle" x="297.5" y="-154.5" font-family="Helvetica,sans-Serif" font-size="10.00">UserService.getCurrentUser</text>
</a>
</g>
</g>
<!-- Node1&#45;&gt;Node2 -->
<g id="edge1" class="edge">
<title>Node1&#45;&gt;Node2</title>
<path fill="none" stroke="midnightblue" d="M129.15,-103.52C154.42,-113.83 189.05,-127.57 220,-138.5 225.47,-140.43 231.18,-142.37 236.91,-144.26"/>
<polygon fill="midnightblue" stroke="midnightblue" points="235.95,-147.63 246.54,-147.39 238.11,-140.97 235.95,-147.63"/>
</g>
<!-- Node5 -->
<g id="node5" class="node">
<title>Node5</title>
<g id="a_node5"><a xlink:href="classit_1_1unitn_1_1healthcore_1_1domain_1_1User.html#af8206b66c08446d8c3cb7e16b825a794" target="_top" xlink:title="Returns a string representation of the User.">
<polygon fill="white" stroke="black" points="223,-98.5 223,-128.5 372,-128.5 372,-98.5 223,-98.5"/>
<text text-anchor="start" x="231" y="-116.5" font-family="Helvetica,sans-Serif" font-size="10.00">it.unitn.healthcore.domain.</text>
<text text-anchor="middle" x="297.5" y="-105.5" font-family="Helvetica,sans-Serif" font-size="10.00">User.getId</text>
</a>
</g>
</g>
<!-- Node1&#45;&gt;Node5 -->
<g id="edge4" class="edge">
<title>Node1&#45;&gt;Node5</title>
<path fill="none" stroke="midnightblue" d="M184.04,-99.68C193.6,-100.86 203.28,-102.05 212.75,-103.21"/>
<polygon fill="midnightblue" stroke="midnightblue" points="212.58,-106.72 222.93,-104.46 213.43,-99.77 212.58,-106.72"/>
</g>
<!-- Node6 -->
<g id="node6" class="node">
<title>Node6</title>
<g id="a_node6"><a xlink:href="classit_1_1unitn_1_1healthcore_1_1domain_1_1Appointment.html#a60f84ee45966ebeed37981dffe94c8ad" target="_top" xlink:title="Returns the patient associated with the appointment.">
<polygon fill="white" stroke="black" points="223,-49.5 223,-79.5 372,-79.5 372,-49.5 223,-49.5"/>
<text text-anchor="start" x="231" y="-67.5" font-family="Helvetica,sans-Serif" font-size="10.00">it.unitn.healthcore.domain.</text>
<text text-anchor="middle" x="297.5" y="-56.5" font-family="Helvetica,sans-Serif" font-size="10.00">Appointment.getPatient</text>
</a>
</g>
</g>
<!-- Node1&#45;&gt;Node6 -->
<g id="edge5" class="edge">
<title>Node1&#45;&gt;Node6</title>
<path fill="none" stroke="midnightblue" d="M184.04,-77.76C193.6,-76.64 203.28,-75.49 212.75,-74.38"/>
<polygon fill="midnightblue" stroke="midnightblue" points="213.41,-77.82 222.93,-73.18 212.59,-70.87 213.41,-77.82"/>
</g>
<!-- Node7 -->
<g id="node7" class="node">
<title>Node7</title>
<g id="a_node7"><a xlink:href="classit_1_1unitn_1_1healthcore_1_1domain_1_1Appointment.html#a9bd30e2d1b2e4de743b3e83b9cc50eb4" target="_top" xlink:title="Returns the start date and time of the appointment.">
<polygon fill="white" stroke="black" points="223,-0.5 223,-30.5 372,-30.5 372,-0.5 223,-0.5"/>
<text text-anchor="start" x="231" y="-18.5" font-family="Helvetica,sans-Serif" font-size="10.00">it.unitn.healthcore.domain.</text>
<text text-anchor="middle" x="297.5" y="-7.5" font-family="Helvetica,sans-Serif" font-size="10.00">Appointment.getStartTime</text>
</a>
</g>
</g>
<!-- Node1&#45;&gt;Node7 -->
<g id="edge6" class="edge">
<title>Node1&#45;&gt;Node7</title>
<path fill="none" stroke="midnightblue" d="M131.46,-73.44C156.56,-63.75 190.1,-51.03 220,-40.5 226.38,-38.25 233.07,-35.97 239.74,-33.73"/>
<polygon fill="midnightblue" stroke="midnightblue" points="241.07,-36.98 249.46,-30.5 238.86,-30.33 241.07,-36.98"/>
</g>
<!-- Node3 -->
<g id="node3" class="node">
<title>Node3</title>
<g id="a_node3"><a xlink:href="interfaceit_1_1unitn_1_1healthcore_1_1persistence_1_1UserRepository.html#a6a646ae44d01189ff44c81c03fc92fa8" target="_top" xlink:title=" ">
<polygon fill="white" stroke="black" points="414,-171.5 414,-201.5 588,-201.5 588,-171.5 414,-171.5"/>
<text text-anchor="start" x="422" y="-189.5" font-family="Helvetica,sans-Serif" font-size="10.00">it.unitn.healthcore.persistence.</text>
<text text-anchor="middle" x="501" y="-178.5" font-family="Helvetica,sans-Serif" font-size="10.00">UserRepository.findUserByEmail</text>
</a>
</g>
</g>
<!-- Node2&#45;&gt;Node3 -->
<g id="edge2" class="edge">
<title>Node2&#45;&gt;Node3</title>
<path fill="none" stroke="midnightblue" d="M375.25,-171.64C384.58,-172.75 394.2,-173.9 403.76,-175.04"/>
<polygon fill="midnightblue" stroke="midnightblue" points="403.35,-178.51 413.7,-176.22 404.18,-171.56 403.35,-178.51"/>
</g>
<!-- Node4 -->
<g id="node4" class="node">
<title>Node4</title>
<g id="a_node4"><a xlink:href="classit_1_1unitn_1_1healthcore_1_1business_1_1UserService.html#a703ed9778e3ac6cd9741220089b5f48d" target="_top" xlink:title="Retrieves the email of the currently authenticated user.">
<polygon fill="white" stroke="black" points="411,-122.5 411,-152.5 591,-152.5 591,-122.5 411,-122.5"/>
<text text-anchor="start" x="419" y="-140.5" font-family="Helvetica,sans-Serif" font-size="10.00">it.unitn.healthcore.business.</text>
<text text-anchor="middle" x="501" y="-129.5" font-family="Helvetica,sans-Serif" font-size="10.00">UserService.getCurrentUserEmail</text>
</a>
</g>
</g>
<!-- Node2&#45;&gt;Node4 -->
<g id="edge3" class="edge">
<title>Node2&#45;&gt;Node4</title>
<path fill="none" stroke="midnightblue" d="M375.25,-152.98C383.65,-151.94 392.28,-150.87 400.89,-149.8"/>
<polygon fill="midnightblue" stroke="midnightblue" points="401.49,-153.25 410.98,-148.54 400.62,-146.3 401.49,-153.25"/>
</g>
</g>
</svg>
