<?xml version="1.0" encoding="UTF-8" standalone="no"?>
<!DOCTYPE svg PUBLIC "-//W3C//DTD SVG 1.1//EN"
 "http://www.w3.org/Graphics/SVG/1.1/DTD/svg11.dtd">
<!-- Generated by graphviz version 2.43.0 (0)
 -->
<!-- Title: it.unitn.healthcore.business.UserService.recoverPassword Pages: 1 -->
<svg width="571pt" height="88pt"
 viewBox="0.00 0.00 571.00 88.00" xmlns="http://www.w3.org/2000/svg" xmlns:xlink="http://www.w3.org/1999/xlink">
<g id="graph0" class="graph" transform="scale(1 1) rotate(0) translate(4 84)">
<title>it.unitn.healthcore.business.UserService.recoverPassword</title>
<polygon fill="white" stroke="transparent" points="-4,4 -4,-84 567,-84 567,4 -4,4"/>
<!-- Node1 -->
<g id="node1" class="node">
<title>Node1</title>
<g id="a_node1"><a xlink:title=" ">
<polygon fill="#bfbfbf" stroke="black" points="402,-24.5 402,-54.5 563,-54.5 563,-24.5 402,-24.5"/>
<text text-anchor="start" x="410" y="-42.5" font-family="Helvetica,sans-Serif" font-size="10.00">it.unitn.healthcore.business.</text>
<text text-anchor="middle" x="482.5" y="-31.5" font-family="Helvetica,sans-Serif" font-size="10.00">UserService.recoverPassword</text>
</a>
</g>
</g>
<!-- Node2 -->
<g id="node2" class="node">
<title>Node2</title>
<g id="a_node2"><a xlink:href="classit_1_1unitn_1_1healthcore_1_1controller_1_1UserController.html#a2405e7122fa835c28ee045e1339e0f7c" target="_top" xlink:title=" ">
<polygon fill="white" stroke="black" points="194,-49.5 194,-79.5 366,-79.5 366,-49.5 194,-49.5"/>
<text text-anchor="start" x="202" y="-67.5" font-family="Helvetica,sans-Serif" font-size="10.00">it.unitn.healthcore.controller.</text>
<text text-anchor="middle" x="280" y="-56.5" font-family="Helvetica,sans-Serif" font-size="10.00">UserController.recoverPassword</text>
</a>
</g>
</g>
<!-- Node1&#45;&gt;Node2 -->
<g id="edge1" class="edge">
<title>Node1&#45;&gt;Node2</title>
<path fill="none" stroke="midnightblue" d="M391.93,-50.67C383.32,-51.74 374.6,-52.83 366.04,-53.9"/>
<polygon fill="midnightblue" stroke="midnightblue" points="392.48,-54.13 401.97,-49.42 391.61,-47.18 392.48,-54.13"/>
</g>
<!-- Node3 -->
<g id="node3" class="node">
<title>Node3</title>
<g id="a_node3"><a xlink:href="classit_1_1unitn_1_1healthcore_1_1business_1_1UserService.html#a114823fda5c213bb46bc935608bb8953" target="_top" xlink:title=" ">
<polygon fill="white" stroke="black" points="197.5,-0.5 197.5,-30.5 362.5,-30.5 362.5,-0.5 197.5,-0.5"/>
<text text-anchor="start" x="205.5" y="-18.5" font-family="Helvetica,sans-Serif" font-size="10.00">it.unitn.healthcore.business.</text>
<text text-anchor="middle" x="280" y="-7.5" font-family="Helvetica,sans-Serif" font-size="10.00">UserService.updateUserProfile</text>
</a>
</g>
</g>
<!-- Node1&#45;&gt;Node3 -->
<g id="edge2" class="edge">
<title>Node1&#45;&gt;Node3</title>
<path fill="none" stroke="midnightblue" d="M391.91,-28.78C382.2,-27.61 372.35,-26.43 362.74,-25.28"/>
<polygon fill="midnightblue" stroke="midnightblue" points="391.62,-32.27 401.97,-29.98 392.46,-25.32 391.62,-32.27"/>
</g>
<!-- Node4 -->
<g id="node4" class="node">
<title>Node4</title>
<g id="a_node4"><a xlink:href="classit_1_1unitn_1_1healthcore_1_1controller_1_1UserController.html#acd7b4fd033c7ae0b42644c3932e6867f" target="_top" xlink:title=" ">
<polygon fill="white" stroke="black" points="0,-0.5 0,-30.5 158,-30.5 158,-0.5 0,-0.5"/>
<text text-anchor="start" x="8" y="-18.5" font-family="Helvetica,sans-Serif" font-size="10.00">it.unitn.healthcore.controller.</text>
<text text-anchor="middle" x="79" y="-7.5" font-family="Helvetica,sans-Serif" font-size="10.00">UserController.updateProfile</text>
</a>
</g>
</g>
<!-- Node3&#45;&gt;Node4 -->
<g id="edge3" class="edge">
<title>Node3&#45;&gt;Node4</title>
<path fill="none" stroke="midnightblue" d="M187.37,-15.5C177.62,-15.5 167.76,-15.5 158.18,-15.5"/>
<polygon fill="midnightblue" stroke="midnightblue" points="187.48,-19 197.48,-15.5 187.48,-12 187.48,-19"/>
</g>
</g>
</svg>
