<?xml version="1.0" encoding="UTF-8" standalone="no"?>
<!DOCTYPE svg PUBLIC "-//W3C//DTD SVG 1.1//EN"
 "http://www.w3.org/Graphics/SVG/1.1/DTD/svg11.dtd">
<!-- Generated by graphviz version 2.43.0 (0)
 -->
<!-- Title: it.unitn.healthcore.business.PatientService.bookAppointment Pages: 1 -->
<svg width="624pt" height="382pt"
 viewBox="0.00 0.00 624.00 382.00" xmlns="http://www.w3.org/2000/svg" xmlns:xlink="http://www.w3.org/1999/xlink">
<g id="graph0" class="graph" transform="scale(1 1) rotate(0) translate(4 378)">
<title>it.unitn.healthcore.business.PatientService.bookAppointment</title>
<polygon fill="white" stroke="transparent" points="-4,4 -4,-378 620,-378 620,4 -4,4"/>
<!-- Node1 -->
<g id="node1" class="node">
<title>Node1</title>
<g id="a_node1"><a xlink:title=" ">
<polygon fill="#bfbfbf" stroke="black" points="0,-171.5 0,-201.5 176,-201.5 176,-171.5 0,-171.5"/>
<text text-anchor="start" x="8" y="-189.5" font-family="Helvetica,sans-Serif" font-size="10.00">it.unitn.healthcore.business.</text>
<text text-anchor="middle" x="88" y="-178.5" font-family="Helvetica,sans-Serif" font-size="10.00">PatientService.bookAppointment</text>
</a>
</g>
</g>
<!-- Node2 -->
<g id="node2" class="node">
<title>Node2</title>
<g id="a_node2"><a xlink:href="classit_1_1unitn_1_1healthcore_1_1domain_1_1Doctor.html#a548d264288dc218b5a2aa48a85bf3a04" target="_top" xlink:title=" ">
<polygon fill="white" stroke="black" points="231.5,-343.5 231.5,-373.5 380.5,-373.5 380.5,-343.5 231.5,-343.5"/>
<text text-anchor="start" x="239.5" y="-361.5" font-family="Helvetica,sans-Serif" font-size="10.00">it.unitn.healthcore.domain.</text>
<text text-anchor="middle" x="306" y="-350.5" font-family="Helvetica,sans-Serif" font-size="10.00">Doctor.getAppointments</text>
</a>
</g>
</g>
<!-- Node1&#45;&gt;Node2 -->
<g id="edge1" class="edge">
<title>Node1&#45;&gt;Node2</title>
<path fill="none" stroke="midnightblue" d="M97.25,-201.76C114.41,-232.01 156.98,-299.62 212,-334.5 215.14,-336.49 218.44,-338.32 221.85,-339.99"/>
<polygon fill="midnightblue" stroke="midnightblue" points="220.53,-343.24 231.09,-344.09 223.36,-336.84 220.53,-343.24"/>
</g>
<!-- Node3 -->
<g id="node3" class="node">
<title>Node3</title>
<g id="a_node3"><a xlink:href="classit_1_1unitn_1_1healthcore_1_1domain_1_1Department.html#ae32c96f1e79ae08ee368ae8bb82f9337" target="_top" xlink:title="Returns the available bed number within the department.">
<polygon fill="white" stroke="black" points="231.5,-294.5 231.5,-324.5 380.5,-324.5 380.5,-294.5 231.5,-294.5"/>
<text text-anchor="start" x="239.5" y="-312.5" font-family="Helvetica,sans-Serif" font-size="10.00">it.unitn.healthcore.domain.</text>
<text text-anchor="middle" x="306" y="-301.5" font-family="Helvetica,sans-Serif" font-size="10.00">Department.getBeds</text>
</a>
</g>
</g>
<!-- Node1&#45;&gt;Node3 -->
<g id="edge2" class="edge">
<title>Node1&#45;&gt;Node3</title>
<path fill="none" stroke="midnightblue" d="M103.43,-201.64C125.01,-223.42 167.9,-263.37 212,-285.5 215.96,-287.49 220.11,-289.32 224.35,-291.01"/>
<polygon fill="midnightblue" stroke="midnightblue" points="223.18,-294.31 233.77,-294.49 225.6,-287.75 223.18,-294.31"/>
</g>
<!-- Node4 -->
<g id="node4" class="node">
<title>Node4</title>
<g id="a_node4"><a xlink:href="classit_1_1unitn_1_1healthcore_1_1business_1_1UserService.html#a33213d05bfda4e7384e17b18332d4bb5" target="_top" xlink:title=" ">
<polygon fill="white" stroke="black" points="228.5,-245.5 228.5,-275.5 383.5,-275.5 383.5,-245.5 228.5,-245.5"/>
<text text-anchor="start" x="236.5" y="-263.5" font-family="Helvetica,sans-Serif" font-size="10.00">it.unitn.healthcore.business.</text>
<text text-anchor="middle" x="306" y="-252.5" font-family="Helvetica,sans-Serif" font-size="10.00">UserService.getCurrentUser</text>
</a>
</g>
</g>
<!-- Node1&#45;&gt;Node4 -->
<g id="edge3" class="edge">
<title>Node1&#45;&gt;Node4</title>
<path fill="none" stroke="midnightblue" d="M122.48,-201.53C146.96,-212.16 181.14,-226.3 212,-236.5 218.49,-238.65 225.28,-240.72 232.12,-242.69"/>
<polygon fill="midnightblue" stroke="midnightblue" points="231.56,-246.17 242.13,-245.5 233.45,-239.43 231.56,-246.17"/>
</g>
<!-- Node7 -->
<g id="node7" class="node">
<title>Node7</title>
<g id="a_node7"><a xlink:href="classit_1_1unitn_1_1healthcore_1_1domain_1_1Doctor.html#ac03da7697c11c376768602fad6a43886" target="_top" xlink:title="Department getter.">
<polygon fill="white" stroke="black" points="231.5,-196.5 231.5,-226.5 380.5,-226.5 380.5,-196.5 231.5,-196.5"/>
<text text-anchor="start" x="239.5" y="-214.5" font-family="Helvetica,sans-Serif" font-size="10.00">it.unitn.healthcore.domain.</text>
<text text-anchor="middle" x="306" y="-203.5" font-family="Helvetica,sans-Serif" font-size="10.00">Doctor.getDepartment</text>
</a>
</g>
</g>
<!-- Node1&#45;&gt;Node7 -->
<g id="edge6" class="edge">
<title>Node1&#45;&gt;Node7</title>
<path fill="none" stroke="midnightblue" d="M176.23,-196.6C191.07,-198.31 206.46,-200.09 221.21,-201.8"/>
<polygon fill="midnightblue" stroke="midnightblue" points="220.97,-205.3 231.3,-202.97 221.77,-198.34 220.97,-205.3"/>
</g>
<!-- Node8 -->
<g id="node8" class="node">
<title>Node8</title>
<g id="a_node8"><a xlink:href="classit_1_1unitn_1_1healthcore_1_1domain_1_1Department.html#ae10adf6ab4ccadfca9bdbce8d1940c84" target="_top" xlink:title="Returns the hospital associated with the department.">
<polygon fill="white" stroke="black" points="231.5,-147.5 231.5,-177.5 380.5,-177.5 380.5,-147.5 231.5,-147.5"/>
<text text-anchor="start" x="239.5" y="-165.5" font-family="Helvetica,sans-Serif" font-size="10.00">it.unitn.healthcore.domain.</text>
<text text-anchor="middle" x="306" y="-154.5" font-family="Helvetica,sans-Serif" font-size="10.00">Department.getHospital</text>
</a>
</g>
</g>
<!-- Node1&#45;&gt;Node8 -->
<g id="edge7" class="edge">
<title>Node1&#45;&gt;Node8</title>
<path fill="none" stroke="midnightblue" d="M176.23,-176.81C191.07,-175.16 206.46,-173.45 221.21,-171.81"/>
<polygon fill="midnightblue" stroke="midnightblue" points="221.75,-175.27 231.3,-170.69 220.98,-168.31 221.75,-175.27"/>
</g>
<!-- Node9 -->
<g id="node9" class="node">
<title>Node9</title>
<g id="a_node9"><a xlink:href="classit_1_1unitn_1_1healthcore_1_1domain_1_1Patient.html#a48266d60ec0c7b2baebd9aef60e6cbfe" target="_top" xlink:title="Insurance plan getter.">
<polygon fill="white" stroke="black" points="231.5,-98.5 231.5,-128.5 380.5,-128.5 380.5,-98.5 231.5,-98.5"/>
<text text-anchor="start" x="239.5" y="-116.5" font-family="Helvetica,sans-Serif" font-size="10.00">it.unitn.healthcore.domain.</text>
<text text-anchor="middle" x="306" y="-105.5" font-family="Helvetica,sans-Serif" font-size="10.00">Patient.getInsurancePlan</text>
</a>
</g>
</g>
<!-- Node1&#45;&gt;Node9 -->
<g id="edge8" class="edge">
<title>Node1&#45;&gt;Node9</title>
<path fill="none" stroke="midnightblue" d="M124.42,-171.49C148.79,-161.45 182.06,-148.34 212,-138.5 219.57,-136.02 227.54,-133.59 235.5,-131.29"/>
<polygon fill="midnightblue" stroke="midnightblue" points="236.51,-134.64 245.18,-128.54 234.6,-127.9 236.51,-134.64"/>
</g>
<!-- Node10 -->
<g id="node10" class="node">
<title>Node10</title>
<g id="a_node10"><a xlink:href="classit_1_1unitn_1_1healthcore_1_1domain_1_1Doctor.html#a1f74266b5c9953f4c861a1b2e66405a8" target="_top" xlink:title="Shift getter.">
<polygon fill="white" stroke="black" points="231.5,-49.5 231.5,-79.5 380.5,-79.5 380.5,-49.5 231.5,-49.5"/>
<text text-anchor="start" x="239.5" y="-67.5" font-family="Helvetica,sans-Serif" font-size="10.00">it.unitn.healthcore.domain.</text>
<text text-anchor="middle" x="306" y="-56.5" font-family="Helvetica,sans-Serif" font-size="10.00">Doctor.getShifts</text>
</a>
</g>
</g>
<!-- Node1&#45;&gt;Node10 -->
<g id="edge9" class="edge">
<title>Node1&#45;&gt;Node10</title>
<path fill="none" stroke="midnightblue" d="M103.88,-171.38C125.69,-150.06 168.49,-111.34 212,-89.5 216.64,-87.17 221.53,-85.04 226.53,-83.09"/>
<polygon fill="midnightblue" stroke="midnightblue" points="228.05,-86.26 236.26,-79.56 225.67,-79.68 228.05,-86.26"/>
</g>
<!-- Node11 -->
<g id="node11" class="node">
<title>Node11</title>
<g id="a_node11"><a xlink:href="classit_1_1unitn_1_1healthcore_1_1domain_1_1InsurancePlan.html#a56214cc6c390772d6aa0431b140c01b2" target="_top" xlink:title="Checks if this insurance plan covers a specific hospital.">
<polygon fill="white" stroke="black" points="212,-0.5 212,-30.5 400,-30.5 400,-0.5 212,-0.5"/>
<text text-anchor="start" x="220" y="-18.5" font-family="Helvetica,sans-Serif" font-size="10.00">it.unitn.healthcore.domain.</text>
<text text-anchor="middle" x="306" y="-7.5" font-family="Helvetica,sans-Serif" font-size="10.00">InsurancePlan.isCoveredAtHospital</text>
</a>
</g>
</g>
<!-- Node1&#45;&gt;Node11 -->
<g id="edge10" class="edge">
<title>Node1&#45;&gt;Node11</title>
<path fill="none" stroke="midnightblue" d="M97.33,-171.49C114.65,-141.75 157.47,-75.19 212,-40.5 215.32,-38.39 218.81,-36.46 222.42,-34.68"/>
<polygon fill="midnightblue" stroke="midnightblue" points="223.87,-37.87 231.59,-30.61 221.03,-31.47 223.87,-37.87"/>
</g>
<!-- Node5 -->
<g id="node5" class="node">
<title>Node5</title>
<g id="a_node5"><a xlink:href="interfaceit_1_1unitn_1_1healthcore_1_1persistence_1_1UserRepository.html#a6a646ae44d01189ff44c81c03fc92fa8" target="_top" xlink:title=" ">
<polygon fill="white" stroke="black" points="439,-269.5 439,-299.5 613,-299.5 613,-269.5 439,-269.5"/>
<text text-anchor="start" x="447" y="-287.5" font-family="Helvetica,sans-Serif" font-size="10.00">it.unitn.healthcore.persistence.</text>
<text text-anchor="middle" x="526" y="-276.5" font-family="Helvetica,sans-Serif" font-size="10.00">UserRepository.findUserByEmail</text>
</a>
</g>
</g>
<!-- Node4&#45;&gt;Node5 -->
<g id="edge4" class="edge">
<title>Node4&#45;&gt;Node5</title>
<path fill="none" stroke="midnightblue" d="M383.55,-268.93C398.11,-270.53 413.51,-272.23 428.59,-273.89"/>
<polygon fill="midnightblue" stroke="midnightblue" points="428.63,-277.41 438.96,-275.03 429.4,-270.45 428.63,-277.41"/>
</g>
<!-- Node6 -->
<g id="node6" class="node">
<title>Node6</title>
<g id="a_node6"><a xlink:href="classit_1_1unitn_1_1healthcore_1_1business_1_1UserService.html#a703ed9778e3ac6cd9741220089b5f48d" target="_top" xlink:title=" ">
<polygon fill="white" stroke="black" points="436,-220.5 436,-250.5 616,-250.5 616,-220.5 436,-220.5"/>
<text text-anchor="start" x="444" y="-238.5" font-family="Helvetica,sans-Serif" font-size="10.00">it.unitn.healthcore.business.</text>
<text text-anchor="middle" x="526" y="-227.5" font-family="Helvetica,sans-Serif" font-size="10.00">UserService.getCurrentUserEmail</text>
</a>
</g>
</g>
<!-- Node4&#45;&gt;Node6 -->
<g id="edge5" class="edge">
<title>Node4&#45;&gt;Node6</title>
<path fill="none" stroke="midnightblue" d="M383.55,-251.72C397.18,-250.16 411.54,-248.51 425.69,-246.89"/>
<polygon fill="midnightblue" stroke="midnightblue" points="426.41,-250.33 435.94,-245.71 425.61,-243.38 426.41,-250.33"/>
</g>
<!-- Node12 -->
<g id="node12" class="node">
<title>Node12</title>
<g id="a_node12"><a xlink:href="classit_1_1unitn_1_1healthcore_1_1domain_1_1Hospital.html#af0b058d14b4d9d957f581a0429fe5971" target="_top" xlink:title="Returns the hospital ID.">
<polygon fill="white" stroke="black" points="451.5,-0.5 451.5,-30.5 600.5,-30.5 600.5,-0.5 451.5,-0.5"/>
<text text-anchor="start" x="459.5" y="-18.5" font-family="Helvetica,sans-Serif" font-size="10.00">it.unitn.healthcore.domain.</text>
<text text-anchor="middle" x="526" y="-7.5" font-family="Helvetica,sans-Serif" font-size="10.00">Hospital.getHospitalId</text>
</a>
</g>
</g>
<!-- Node11&#45;&gt;Node12 -->
<g id="edge11" class="edge">
<title>Node11&#45;&gt;Node12</title>
<path fill="none" stroke="midnightblue" d="M400.08,-15.5C413.73,-15.5 427.72,-15.5 441.17,-15.5"/>
<polygon fill="midnightblue" stroke="midnightblue" points="441.33,-19 451.33,-15.5 441.33,-12 441.33,-19"/>
</g>
</g>
</svg>
