<?xml version="1.0" encoding="UTF-8" standalone="no"?>
<!DOCTYPE svg PUBLIC "-//W3C//DTD SVG 1.1//EN"
 "http://www.w3.org/Graphics/SVG/1.1/DTD/svg11.dtd">
<!-- Generated by graphviz version 2.43.0 (0)
 -->
<!-- Title: it.unitn.healthcore.controller.UserController.addEmployee Pages: 1 -->
<svg width="864pt" height="284pt"
 viewBox="0.00 0.00 864.00 284.00" xmlns="http://www.w3.org/2000/svg" xmlns:xlink="http://www.w3.org/1999/xlink">
<g id="graph0" class="graph" transform="scale(1 1) rotate(0) translate(4 280)">
<title>it.unitn.healthcore.controller.UserController.addEmployee</title>
<polygon fill="white" stroke="transparent" points="-4,4 -4,-280 860,-280 860,4 -4,4"/>
<!-- Node1 -->
<g id="node1" class="node">
<title>Node1</title>
<g id="a_node1"><a xlink:title=" ">
<polygon fill="#bfbfbf" stroke="black" points="0,-171.5 0,-201.5 158,-201.5 158,-171.5 0,-171.5"/>
<text text-anchor="start" x="8" y="-189.5" font-family="Helvetica,sans-Serif" font-size="10.00">it.unitn.healthcore.controller.</text>
<text text-anchor="middle" x="79" y="-178.5" font-family="Helvetica,sans-Serif" font-size="10.00">UserController.addEmployee</text>
</a>
</g>
</g>
<!-- Node2 -->
<g id="node2" class="node">
<title>Node2</title>
<g id="a_node2"><a xlink:href="classit_1_1unitn_1_1healthcore_1_1business_1_1UserService.html#a8bb76a3af453837d334e1f5a9551ff56" target="_top" xlink:title=" ">
<polygon fill="white" stroke="black" points="194,-171.5 194,-201.5 358,-201.5 358,-171.5 194,-171.5"/>
<text text-anchor="start" x="202" y="-189.5" font-family="Helvetica,sans-Serif" font-size="10.00">it.unitn.healthcore.business.</text>
<text text-anchor="middle" x="276" y="-178.5" font-family="Helvetica,sans-Serif" font-size="10.00">UserService.registerEmployee</text>
</a>
</g>
</g>
<!-- Node1&#45;&gt;Node2 -->
<g id="edge1" class="edge">
<title>Node1&#45;&gt;Node2</title>
<path fill="none" stroke="midnightblue" d="M158.19,-186.5C166.64,-186.5 175.3,-186.5 183.89,-186.5"/>
<polygon fill="midnightblue" stroke="midnightblue" points="183.92,-190 193.92,-186.5 183.92,-183 183.92,-190"/>
</g>
<!-- Node3 -->
<g id="node3" class="node">
<title>Node3</title>
<g id="a_node3"><a xlink:href="classit_1_1unitn_1_1healthcore_1_1domain_1_1EmployeeRegistrationForm.html#a2cddb295abb33e4d48081a4b179d0928" target="_top" xlink:title="Role getter.">
<polygon fill="white" stroke="black" points="394,-220.5 394,-250.5 584,-250.5 584,-220.5 394,-220.5"/>
<text text-anchor="start" x="402" y="-238.5" font-family="Helvetica,sans-Serif" font-size="10.00">it.unitn.healthcore.domain.</text>
<text text-anchor="middle" x="489" y="-227.5" font-family="Helvetica,sans-Serif" font-size="10.00">EmployeeRegistrationForm.getRole</text>
</a>
</g>
</g>
<!-- Node2&#45;&gt;Node3 -->
<g id="edge2" class="edge">
<title>Node2&#45;&gt;Node3</title>
<path fill="none" stroke="midnightblue" d="M341.74,-201.53C364.42,-206.8 390.08,-212.76 413.5,-218.2"/>
<polygon fill="midnightblue" stroke="midnightblue" points="412.85,-221.64 423.38,-220.49 414.43,-214.82 412.85,-221.64"/>
</g>
<!-- Node4 -->
<g id="node4" class="node">
<title>Node4</title>
<g id="a_node4"><a xlink:href="classit_1_1unitn_1_1healthcore_1_1business_1_1UserService.html#aebfef6bf9480fb24956dba8b10232d2f" target="_top" xlink:title=" ">
<polygon fill="white" stroke="black" points="398,-171.5 398,-201.5 580,-201.5 580,-171.5 398,-171.5"/>
<text text-anchor="start" x="406" y="-189.5" font-family="Helvetica,sans-Serif" font-size="10.00">it.unitn.healthcore.business.</text>
<text text-anchor="middle" x="489" y="-178.5" font-family="Helvetica,sans-Serif" font-size="10.00">UserService.registerAdministrator</text>
</a>
</g>
</g>
<!-- Node2&#45;&gt;Node4 -->
<g id="edge3" class="edge">
<title>Node2&#45;&gt;Node4</title>
<path fill="none" stroke="midnightblue" d="M358.28,-186.5C367.93,-186.5 377.86,-186.5 387.74,-186.5"/>
<polygon fill="midnightblue" stroke="midnightblue" points="387.99,-190 397.99,-186.5 387.99,-183 387.99,-190"/>
</g>
<!-- Node9 -->
<g id="node9" class="node">
<title>Node9</title>
<g id="a_node9"><a xlink:href="classit_1_1unitn_1_1healthcore_1_1business_1_1UserService.html#af71b0f13c31c938efe9fce54ab3d7f7d" target="_top" xlink:title=" ">
<polygon fill="white" stroke="black" points="411.5,-122.5 411.5,-152.5 566.5,-152.5 566.5,-122.5 411.5,-122.5"/>
<text text-anchor="start" x="419.5" y="-140.5" font-family="Helvetica,sans-Serif" font-size="10.00">it.unitn.healthcore.business.</text>
<text text-anchor="middle" x="489" y="-129.5" font-family="Helvetica,sans-Serif" font-size="10.00">UserService.registerDoctor</text>
</a>
</g>
</g>
<!-- Node2&#45;&gt;Node9 -->
<g id="edge8" class="edge">
<title>Node2&#45;&gt;Node9</title>
<path fill="none" stroke="midnightblue" d="M341.74,-171.47C364.42,-166.2 390.08,-160.24 413.5,-154.8"/>
<polygon fill="midnightblue" stroke="midnightblue" points="414.43,-158.18 423.38,-152.51 412.85,-151.36 414.43,-158.18"/>
</g>
<!-- Node5 -->
<g id="node5" class="node">
<title>Node5</title>
<g id="a_node5"><a xlink:href="classit_1_1unitn_1_1healthcore_1_1domain_1_1PasswordConfirmationForm.html#ad2a321af868704e56c42d5306a8acd91" target="_top" xlink:title="Email getter.">
<polygon fill="white" stroke="black" points="639.5,-245.5 639.5,-275.5 836.5,-275.5 836.5,-245.5 639.5,-245.5"/>
<text text-anchor="start" x="647.5" y="-263.5" font-family="Helvetica,sans-Serif" font-size="10.00">it.unitn.healthcore.domain.</text>
<text text-anchor="middle" x="738" y="-252.5" font-family="Helvetica,sans-Serif" font-size="10.00">PasswordConfirmationForm.getEmail</text>
</a>
</g>
</g>
<!-- Node4&#45;&gt;Node5 -->
<g id="edge4" class="edge">
<title>Node4&#45;&gt;Node5</title>
<path fill="none" stroke="midnightblue" d="M558.26,-201.64C567.09,-204.47 575.88,-207.74 584,-211.5 601.68,-219.68 602.09,-228.83 620,-236.5 625,-238.64 630.21,-240.6 635.53,-242.38"/>
<polygon fill="midnightblue" stroke="midnightblue" points="634.61,-245.76 645.2,-245.41 636.7,-239.08 634.61,-245.76"/>
</g>
<!-- Node6 -->
<g id="node6" class="node">
<title>Node6</title>
<g id="a_node6"><a xlink:href="classit_1_1unitn_1_1healthcore_1_1domain_1_1EmployeeRegistrationForm.html#ae00ab1333401d899f6e010a99e5afec8" target="_top" xlink:title="Name getter.">
<polygon fill="white" stroke="black" points="639.5,-196.5 639.5,-226.5 836.5,-226.5 836.5,-196.5 639.5,-196.5"/>
<text text-anchor="start" x="647.5" y="-214.5" font-family="Helvetica,sans-Serif" font-size="10.00">it.unitn.healthcore.domain.</text>
<text text-anchor="middle" x="738" y="-203.5" font-family="Helvetica,sans-Serif" font-size="10.00">EmployeeRegistrationForm.getName</text>
</a>
</g>
</g>
<!-- Node4&#45;&gt;Node6 -->
<g id="edge5" class="edge">
<title>Node4&#45;&gt;Node6</title>
<path fill="none" stroke="midnightblue" d="M580.22,-195.63C596.08,-197.24 612.74,-198.92 629.03,-200.57"/>
<polygon fill="midnightblue" stroke="midnightblue" points="628.81,-204.07 639.11,-201.59 629.52,-197.1 628.81,-204.07"/>
</g>
<!-- Node7 -->
<g id="node7" class="node">
<title>Node7</title>
<g id="a_node7"><a xlink:href="classit_1_1unitn_1_1healthcore_1_1domain_1_1PasswordConfirmationForm.html#aa7de23a583db33eba13ddecad973ceca" target="_top" xlink:title="Password getter.">
<polygon fill="white" stroke="black" points="630.5,-147.5 630.5,-177.5 845.5,-177.5 845.5,-147.5 630.5,-147.5"/>
<text text-anchor="start" x="638.5" y="-165.5" font-family="Helvetica,sans-Serif" font-size="10.00">it.unitn.healthcore.domain.</text>
<text text-anchor="middle" x="738" y="-154.5" font-family="Helvetica,sans-Serif" font-size="10.00">PasswordConfirmationForm.getPassword</text>
</a>
</g>
</g>
<!-- Node4&#45;&gt;Node7 -->
<g id="edge6" class="edge">
<title>Node4&#45;&gt;Node7</title>
<path fill="none" stroke="midnightblue" d="M580.22,-177.73C593.18,-176.47 606.67,-175.16 620.05,-173.86"/>
<polygon fill="midnightblue" stroke="midnightblue" points="620.64,-177.32 630.25,-172.87 619.96,-170.36 620.64,-177.32"/>
</g>
<!-- Node8 -->
<g id="node8" class="node">
<title>Node8</title>
<g id="a_node8"><a xlink:href="classit_1_1unitn_1_1healthcore_1_1domain_1_1EmployeeRegistrationForm.html#af1804bfdb0eb5dd711f6344f6c7e420c" target="_top" xlink:title="Surname getter.">
<polygon fill="white" stroke="black" points="632,-98.5 632,-128.5 844,-128.5 844,-98.5 632,-98.5"/>
<text text-anchor="start" x="640" y="-116.5" font-family="Helvetica,sans-Serif" font-size="10.00">it.unitn.healthcore.domain.</text>
<text text-anchor="middle" x="738" y="-105.5" font-family="Helvetica,sans-Serif" font-size="10.00">EmployeeRegistrationForm.getSurname</text>
</a>
</g>
</g>
<!-- Node4&#45;&gt;Node8 -->
<g id="edge7" class="edge">
<title>Node4&#45;&gt;Node8</title>
<path fill="none" stroke="midnightblue" d="M560.2,-171.39C568.36,-168.81 576.46,-165.86 584,-162.5 601.57,-154.68 602.28,-145.98 620,-138.5 626.17,-135.9 632.65,-133.55 639.25,-131.44"/>
<polygon fill="midnightblue" stroke="midnightblue" points="640.42,-134.74 648.99,-128.52 638.41,-128.04 640.42,-134.74"/>
</g>
<!-- Node9&#45;&gt;Node5 -->
<g id="edge10" class="edge">
<title>Node9&#45;&gt;Node5</title>
<path fill="none" stroke="midnightblue" d="M566.7,-151.69C572.91,-154.64 578.79,-158.21 584,-162.5 612.23,-185.75 591.11,-214.07 620,-236.5 623.22,-239 626.65,-241.26 630.21,-243.3"/>
<polygon fill="midnightblue" stroke="midnightblue" points="628.85,-246.54 639.35,-247.93 632.01,-240.29 628.85,-246.54"/>
</g>
<!-- Node9&#45;&gt;Node6 -->
<g id="edge11" class="edge">
<title>Node9&#45;&gt;Node6</title>
<path fill="none" stroke="midnightblue" d="M558.26,-152.64C567.09,-155.47 575.88,-158.74 584,-162.5 601.68,-170.68 602.09,-179.83 620,-187.5 625,-189.64 630.21,-191.6 635.53,-193.38"/>
<polygon fill="midnightblue" stroke="midnightblue" points="634.61,-196.76 645.2,-196.41 636.7,-190.08 634.61,-196.76"/>
</g>
<!-- Node9&#45;&gt;Node7 -->
<g id="edge12" class="edge">
<title>Node9&#45;&gt;Node7</title>
<path fill="none" stroke="midnightblue" d="M566.8,-145.27C583.77,-146.99 602.11,-148.85 620.26,-150.68"/>
<polygon fill="midnightblue" stroke="midnightblue" points="620.02,-154.18 630.32,-151.7 620.72,-147.21 620.02,-154.18"/>
</g>
<!-- Node9&#45;&gt;Node8 -->
<g id="edge13" class="edge">
<title>Node9&#45;&gt;Node8</title>
<path fill="none" stroke="midnightblue" d="M566.8,-130.04C584.2,-128.35 603.06,-126.51 621.67,-124.71"/>
<polygon fill="midnightblue" stroke="midnightblue" points="622.06,-128.19 631.67,-123.73 621.38,-121.22 622.06,-128.19"/>
</g>
<!-- Node10 -->
<g id="node10" class="node">
<title>Node10</title>
<g id="a_node10"><a xlink:href="classit_1_1unitn_1_1healthcore_1_1domain_1_1EmployeeRegistrationForm.html#aacda9ff32f2f6c240f9f1ce7a746839a" target="_top" xlink:title="Department ID getter.">
<polygon fill="white" stroke="black" points="620,-49.5 620,-79.5 856,-79.5 856,-49.5 620,-49.5"/>
<text text-anchor="start" x="628" y="-67.5" font-family="Helvetica,sans-Serif" font-size="10.00">it.unitn.healthcore.domain.</text>
<text text-anchor="middle" x="738" y="-56.5" font-family="Helvetica,sans-Serif" font-size="10.00">EmployeeRegistrationForm.getDepartmentId</text>
</a>
</g>
</g>
<!-- Node9&#45;&gt;Node10 -->
<g id="edge9" class="edge">
<title>Node9&#45;&gt;Node10</title>
<path fill="none" stroke="midnightblue" d="M526.51,-122.42C552.31,-112.16 587.88,-98.81 620,-89.5 629.35,-86.79 639.2,-84.23 649.05,-81.87"/>
<polygon fill="midnightblue" stroke="midnightblue" points="649.95,-85.25 658.89,-79.56 648.35,-78.44 649.95,-85.25"/>
</g>
<!-- Node11 -->
<g id="node11" class="node">
<title>Node11</title>
<g id="a_node11"><a xlink:href="classit_1_1unitn_1_1healthcore_1_1domain_1_1Department.html#adb4a544815968649e801e2182b7069f0" target="_top" xlink:title="Returns the total staff positions within the department.">
<polygon fill="white" stroke="black" points="646,-0.5 646,-30.5 830,-30.5 830,-0.5 646,-0.5"/>
<text text-anchor="start" x="654" y="-18.5" font-family="Helvetica,sans-Serif" font-size="10.00">it.unitn.healthcore.domain.</text>
<text text-anchor="middle" x="738" y="-7.5" font-family="Helvetica,sans-Serif" font-size="10.00">Department.getTotalStaffPositions</text>
</a>
</g>
</g>
<!-- Node9&#45;&gt;Node11 -->
<g id="edge14" class="edge">
<title>Node9&#45;&gt;Node11</title>
<path fill="none" stroke="midnightblue" d="M505.36,-122.46C528.32,-100.89 573.84,-61.44 620,-40.5 625.45,-38.03 631.16,-35.79 637,-33.78"/>
<polygon fill="midnightblue" stroke="midnightblue" points="638.47,-36.98 646.92,-30.59 636.33,-30.32 638.47,-36.98"/>
</g>
</g>
</svg>
