<?xml version="1.0" encoding="UTF-8" standalone="no"?>
<!DOCTYPE svg PUBLIC "-//W3C//DTD SVG 1.1//EN"
 "http://www.w3.org/Graphics/SVG/1.1/DTD/svg11.dtd">
<!-- Generated by graphviz version 2.43.0 (0)
 -->
<!-- Title: it.unitn.healthcore.controller.UserController.updateProfile Pages: 1 -->
<svg width="869pt" height="706pt"
 viewBox="0.00 0.00 869.00 706.00" xmlns="http://www.w3.org/2000/svg" xmlns:xlink="http://www.w3.org/1999/xlink">
<g id="graph0" class="graph" transform="scale(1 1) rotate(0) translate(4 702)">
<title>it.unitn.healthcore.controller.UserController.updateProfile</title>
<polygon fill="white" stroke="transparent" points="-4,4 -4,-702 865,-702 865,4 -4,4"/>
<!-- Node1 -->
<g id="node1" class="node">
<title>Node1</title>
<g id="a_node1"><a xlink:title=" ">
<polygon fill="#bfbfbf" stroke="black" points="0,-394.5 0,-424.5 158,-424.5 158,-394.5 0,-394.5"/>
<text text-anchor="start" x="8" y="-412.5" font-family="Helvetica,sans-Serif" font-size="10.00">it.unitn.healthcore.controller.</text>
<text text-anchor="middle" x="79" y="-401.5" font-family="Helvetica,sans-Serif" font-size="10.00">UserController.updateProfile</text>
</a>
</g>
</g>
<!-- Node2 -->
<g id="node2" class="node">
<title>Node2</title>
<g id="a_node2"><a xlink:href="classit_1_1unitn_1_1healthcore_1_1business_1_1UserService.html#a33213d05bfda4e7384e17b18332d4bb5" target="_top" xlink:title=" ">
<polygon fill="white" stroke="black" points="425,-667.5 425,-697.5 580,-697.5 580,-667.5 425,-667.5"/>
<text text-anchor="start" x="433" y="-685.5" font-family="Helvetica,sans-Serif" font-size="10.00">it.unitn.healthcore.business.</text>
<text text-anchor="middle" x="502.5" y="-674.5" font-family="Helvetica,sans-Serif" font-size="10.00">UserService.getCurrentUser</text>
</a>
</g>
</g>
<!-- Node1&#45;&gt;Node2 -->
<g id="edge1" class="edge">
<title>Node1&#45;&gt;Node2</title>
<path fill="none" stroke="midnightblue" d="M94.06,-424.62C135.55,-468.29 262.88,-595.45 395,-658.5 401.41,-661.56 408.22,-664.24 415.19,-666.58"/>
<polygon fill="midnightblue" stroke="midnightblue" points="414.16,-669.93 424.75,-669.57 416.25,-663.24 414.16,-669.93"/>
</g>
<!-- Node5 -->
<g id="node5" class="node">
<title>Node5</title>
<g id="a_node5"><a xlink:href="classit_1_1unitn_1_1healthcore_1_1business_1_1UserService.html#a114823fda5c213bb46bc935608bb8953" target="_top" xlink:title=" ">
<polygon fill="white" stroke="black" points="194,-372.5 194,-402.5 359,-402.5 359,-372.5 194,-372.5"/>
<text text-anchor="start" x="202" y="-390.5" font-family="Helvetica,sans-Serif" font-size="10.00">it.unitn.healthcore.business.</text>
<text text-anchor="middle" x="276.5" y="-379.5" font-family="Helvetica,sans-Serif" font-size="10.00">UserService.updateUserProfile</text>
</a>
</g>
</g>
<!-- Node1&#45;&gt;Node5 -->
<g id="edge4" class="edge">
<title>Node1&#45;&gt;Node5</title>
<path fill="none" stroke="midnightblue" d="M158.11,-400.71C166.59,-399.76 175.29,-398.78 183.91,-397.81"/>
<polygon fill="midnightblue" stroke="midnightblue" points="184.45,-401.27 193.99,-396.67 183.67,-394.31 184.45,-401.27"/>
</g>
<!-- Node3 -->
<g id="node3" class="node">
<title>Node3</title>
<g id="a_node3"><a xlink:href="interfaceit_1_1unitn_1_1healthcore_1_1persistence_1_1UserRepository.html#a6a646ae44d01189ff44c81c03fc92fa8" target="_top" xlink:title=" ">
<polygon fill="white" stroke="black" points="666.5,-489.5 666.5,-519.5 840.5,-519.5 840.5,-489.5 666.5,-489.5"/>
<text text-anchor="start" x="674.5" y="-507.5" font-family="Helvetica,sans-Serif" font-size="10.00">it.unitn.healthcore.persistence.</text>
<text text-anchor="middle" x="753.5" y="-496.5" font-family="Helvetica,sans-Serif" font-size="10.00">UserRepository.findUserByEmail</text>
</a>
</g>
</g>
<!-- Node2&#45;&gt;Node3 -->
<g id="edge2" class="edge">
<title>Node2&#45;&gt;Node3</title>
<path fill="none" stroke="midnightblue" d="M580.1,-671.15C590.54,-667.93 600.8,-663.8 610,-658.5 667.07,-625.6 714.62,-562.34 737.62,-528.02"/>
<polygon fill="midnightblue" stroke="midnightblue" points="740.62,-529.84 743.19,-519.56 734.77,-525.99 740.62,-529.84"/>
</g>
<!-- Node4 -->
<g id="node4" class="node">
<title>Node4</title>
<g id="a_node4"><a xlink:href="classit_1_1unitn_1_1healthcore_1_1business_1_1UserService.html#a703ed9778e3ac6cd9741220089b5f48d" target="_top" xlink:title=" ">
<polygon fill="white" stroke="black" points="663.5,-667.5 663.5,-697.5 843.5,-697.5 843.5,-667.5 663.5,-667.5"/>
<text text-anchor="start" x="671.5" y="-685.5" font-family="Helvetica,sans-Serif" font-size="10.00">it.unitn.healthcore.business.</text>
<text text-anchor="middle" x="753.5" y="-674.5" font-family="Helvetica,sans-Serif" font-size="10.00">UserService.getCurrentUserEmail</text>
</a>
</g>
</g>
<!-- Node2&#45;&gt;Node4 -->
<g id="edge3" class="edge">
<title>Node2&#45;&gt;Node4</title>
<path fill="none" stroke="midnightblue" d="M580.24,-682.5C603.25,-682.5 628.82,-682.5 653.06,-682.5"/>
<polygon fill="midnightblue" stroke="midnightblue" points="653.36,-686 663.36,-682.5 653.36,-679 653.36,-686"/>
</g>
<!-- Node5&#45;&gt;Node2 -->
<g id="edge6" class="edge">
<title>Node5&#45;&gt;Node2</title>
<path fill="none" stroke="midnightblue" d="M286.81,-402.88C303.07,-430.23 337.02,-489.41 359,-542.5 379.65,-592.38 355.35,-621.87 395,-658.5 400.92,-663.97 407.82,-668.29 415.2,-671.68"/>
<polygon fill="midnightblue" stroke="midnightblue" points="414.18,-675.04 424.77,-675.5 416.78,-668.54 414.18,-675.04"/>
</g>
<!-- Node5&#45;&gt;Node3 -->
<g id="edge5" class="edge">
<title>Node5&#45;&gt;Node3</title>
<path fill="none" stroke="midnightblue" d="M296.56,-402.76C318.78,-419.66 357.3,-446.27 395,-459.5 480.13,-489.37 582.8,-499.87 656.23,-503.34"/>
<polygon fill="midnightblue" stroke="midnightblue" points="656.25,-506.84 666.39,-503.78 656.56,-499.85 656.25,-506.84"/>
</g>
<!-- Node6 -->
<g id="node6" class="node">
<title>Node6</title>
<g id="a_node6"><a xlink:href="classit_1_1unitn_1_1healthcore_1_1domain_1_1PasswordConfirmationForm.html#ad2a321af868704e56c42d5306a8acd91" target="_top" xlink:title=" ">
<polygon fill="white" stroke="black" points="655,-440.5 655,-470.5 852,-470.5 852,-440.5 655,-440.5"/>
<text text-anchor="start" x="663" y="-458.5" font-family="Helvetica,sans-Serif" font-size="10.00">it.unitn.healthcore.domain.</text>
<text text-anchor="middle" x="753.5" y="-447.5" font-family="Helvetica,sans-Serif" font-size="10.00">PasswordConfirmationForm.getEmail</text>
</a>
</g>
</g>
<!-- Node5&#45;&gt;Node6 -->
<g id="edge7" class="edge">
<title>Node5&#45;&gt;Node6</title>
<path fill="none" stroke="midnightblue" d="M307.56,-402.66C330.8,-413.6 364.12,-427.61 395,-434.5 477.42,-452.89 573.01,-457.68 644.6,-458.12"/>
<polygon fill="midnightblue" stroke="midnightblue" points="644.97,-461.62 654.98,-458.16 645,-454.62 644.97,-461.62"/>
</g>
<!-- Node7 -->
<g id="node7" class="node">
<title>Node7</title>
<g id="a_node7"><a xlink:href="classit_1_1unitn_1_1healthcore_1_1domain_1_1User.html#a5b48be6dca19b7d4d43ec2e6a3b91502" target="_top" xlink:title=" ">
<polygon fill="white" stroke="black" points="428,-306.5 428,-336.5 577,-336.5 577,-306.5 428,-306.5"/>
<text text-anchor="start" x="436" y="-324.5" font-family="Helvetica,sans-Serif" font-size="10.00">it.unitn.healthcore.domain.</text>
<text text-anchor="middle" x="502.5" y="-313.5" font-family="Helvetica,sans-Serif" font-size="10.00">User.getEmail</text>
</a>
</g>
</g>
<!-- Node5&#45;&gt;Node7 -->
<g id="edge8" class="edge">
<title>Node5&#45;&gt;Node7</title>
<path fill="none" stroke="midnightblue" d="M325.73,-372.45C346.95,-365.9 372.18,-358.21 395,-351.5 408.64,-347.49 423.3,-343.29 437.25,-339.34"/>
<polygon fill="midnightblue" stroke="midnightblue" points="438.58,-342.61 447.25,-336.52 436.68,-335.87 438.58,-342.61"/>
</g>
<!-- Node8 -->
<g id="node8" class="node">
<title>Node8</title>
<g id="a_node8"><a xlink:href="classit_1_1unitn_1_1healthcore_1_1domain_1_1ProfileUpdateForm.html#a74ba2df0ee53889299dc64bd16a6c889" target="_top" xlink:title=" ">
<polygon fill="white" stroke="black" points="425,-257.5 425,-287.5 580,-287.5 580,-257.5 425,-257.5"/>
<text text-anchor="start" x="433" y="-275.5" font-family="Helvetica,sans-Serif" font-size="10.00">it.unitn.healthcore.domain.</text>
<text text-anchor="middle" x="502.5" y="-264.5" font-family="Helvetica,sans-Serif" font-size="10.00">ProfileUpdateForm.getName</text>
</a>
</g>
</g>
<!-- Node5&#45;&gt;Node8 -->
<g id="edge9" class="edge">
<title>Node5&#45;&gt;Node8</title>
<path fill="none" stroke="midnightblue" d="M292.36,-372.41C313.33,-352.02 353.69,-315.97 395,-296.5 401.42,-293.47 408.25,-290.82 415.22,-288.49"/>
<polygon fill="midnightblue" stroke="midnightblue" points="416.28,-291.83 424.79,-285.52 414.2,-285.14 416.28,-291.83"/>
</g>
<!-- Node9 -->
<g id="node9" class="node">
<title>Node9</title>
<g id="a_node9"><a xlink:href="classit_1_1unitn_1_1healthcore_1_1domain_1_1User.html#a0c78137c0cf7b414cc88dcc41895d5a7" target="_top" xlink:title=" ">
<polygon fill="white" stroke="black" points="428,-208.5 428,-238.5 577,-238.5 577,-208.5 428,-208.5"/>
<text text-anchor="start" x="436" y="-226.5" font-family="Helvetica,sans-Serif" font-size="10.00">it.unitn.healthcore.domain.</text>
<text text-anchor="middle" x="502.5" y="-215.5" font-family="Helvetica,sans-Serif" font-size="10.00">User.getName</text>
</a>
</g>
</g>
<!-- Node5&#45;&gt;Node9 -->
<g id="edge10" class="edge">
<title>Node5&#45;&gt;Node9</title>
<path fill="none" stroke="midnightblue" d="M285.59,-372.48C302.06,-343.41 342.43,-279.52 395,-247.5 402.16,-243.14 410.01,-239.57 418.12,-236.65"/>
<polygon fill="midnightblue" stroke="midnightblue" points="419.31,-239.95 427.73,-233.51 417.13,-233.29 419.31,-239.95"/>
</g>
<!-- Node10 -->
<g id="node10" class="node">
<title>Node10</title>
<g id="a_node10"><a xlink:href="classit_1_1unitn_1_1healthcore_1_1domain_1_1PasswordConfirmationForm.html#aa7de23a583db33eba13ddecad973ceca" target="_top" xlink:title=" ">
<polygon fill="white" stroke="black" points="646,-342.5 646,-372.5 861,-372.5 861,-342.5 646,-342.5"/>
<text text-anchor="start" x="654" y="-360.5" font-family="Helvetica,sans-Serif" font-size="10.00">it.unitn.healthcore.domain.</text>
<text text-anchor="middle" x="753.5" y="-349.5" font-family="Helvetica,sans-Serif" font-size="10.00">PasswordConfirmationForm.getPassword</text>
</a>
</g>
</g>
<!-- Node5&#45;&gt;Node10 -->
<g id="edge11" class="edge">
<title>Node5&#45;&gt;Node10</title>
<path fill="none" stroke="midnightblue" d="M359.16,-382.34C435.32,-377.53 549.76,-370.3 635.6,-364.88"/>
<polygon fill="midnightblue" stroke="midnightblue" points="635.9,-368.37 645.66,-364.25 635.46,-361.39 635.9,-368.37"/>
</g>
<!-- Node11 -->
<g id="node11" class="node">
<title>Node11</title>
<g id="a_node11"><a xlink:href="classit_1_1unitn_1_1healthcore_1_1domain_1_1PasswordConfirmationForm.html#add77c52ff85c3a8caefe02af899fe10b" target="_top" xlink:title=" ">
<polygon fill="white" stroke="black" points="395,-148 395,-189 610,-189 610,-148 395,-148"/>
<text text-anchor="start" x="403" y="-177" font-family="Helvetica,sans-Serif" font-size="10.00">it.unitn.healthcore.domain.</text>
<text text-anchor="start" x="403" y="-166" font-family="Helvetica,sans-Serif" font-size="10.00">PasswordConfirmationForm.getPassword</text>
<text text-anchor="middle" x="502.5" y="-155" font-family="Helvetica,sans-Serif" font-size="10.00">Confirmation</text>
</a>
</g>
</g>
<!-- Node5&#45;&gt;Node11 -->
<g id="edge12" class="edge">
<title>Node5&#45;&gt;Node11</title>
<path fill="none" stroke="midnightblue" d="M282.56,-372.35C295.34,-336.41 332.46,-245.51 395,-198.5 397.05,-196.96 399.17,-195.5 401.36,-194.11"/>
<polygon fill="midnightblue" stroke="midnightblue" points="403.13,-197.13 410.08,-189.13 399.66,-191.05 403.13,-197.13"/>
</g>
<!-- Node12 -->
<g id="node12" class="node">
<title>Node12</title>
<g id="a_node12"><a xlink:href="classit_1_1unitn_1_1healthcore_1_1domain_1_1ProfileUpdateForm.html#a8bd433fb0c7bfbe8eac0149bbfa707f6" target="_top" xlink:title=" ">
<polygon fill="white" stroke="black" points="405.5,-98.5 405.5,-128.5 599.5,-128.5 599.5,-98.5 405.5,-98.5"/>
<text text-anchor="start" x="413.5" y="-116.5" font-family="Helvetica,sans-Serif" font-size="10.00">it.unitn.healthcore.domain.</text>
<text text-anchor="middle" x="502.5" y="-105.5" font-family="Helvetica,sans-Serif" font-size="10.00">ProfileUpdateForm.getSpecialization</text>
</a>
</g>
</g>
<!-- Node5&#45;&gt;Node12 -->
<g id="edge13" class="edge">
<title>Node5&#45;&gt;Node12</title>
<path fill="none" stroke="midnightblue" d="M279.96,-372.39C287.89,-328.75 316.96,-201.64 395,-138.5 397.1,-136.8 399.29,-135.21 401.57,-133.73"/>
<polygon fill="midnightblue" stroke="midnightblue" points="403.74,-136.52 410.69,-128.52 400.27,-130.44 403.74,-136.52"/>
</g>
<!-- Node13 -->
<g id="node13" class="node">
<title>Node13</title>
<g id="a_node13"><a xlink:href="classit_1_1unitn_1_1healthcore_1_1domain_1_1ProfileUpdateForm.html#af0bb243e48137fe877431ee1062a7c41" target="_top" xlink:title=" ">
<polygon fill="white" stroke="black" points="417.5,-49.5 417.5,-79.5 587.5,-79.5 587.5,-49.5 417.5,-49.5"/>
<text text-anchor="start" x="425.5" y="-67.5" font-family="Helvetica,sans-Serif" font-size="10.00">it.unitn.healthcore.domain.</text>
<text text-anchor="middle" x="502.5" y="-56.5" font-family="Helvetica,sans-Serif" font-size="10.00">ProfileUpdateForm.getSurname</text>
</a>
</g>
</g>
<!-- Node5&#45;&gt;Node13 -->
<g id="edge14" class="edge">
<title>Node5&#45;&gt;Node13</title>
<path fill="none" stroke="midnightblue" d="M278.63,-372.27C283.17,-322.94 304.41,-166.21 395,-88.5 399.03,-85.04 403.46,-82.05 408.14,-79.47"/>
<polygon fill="midnightblue" stroke="midnightblue" points="409.95,-82.49 417.44,-74.99 406.91,-76.18 409.95,-82.49"/>
</g>
<!-- Node14 -->
<g id="node14" class="node">
<title>Node14</title>
<g id="a_node14"><a xlink:href="classit_1_1unitn_1_1healthcore_1_1domain_1_1User.html#a1e52a76c1ad5fb44fe9c312e11203c9e" target="_top" xlink:title=" ">
<polygon fill="white" stroke="black" points="428,-0.5 428,-30.5 577,-30.5 577,-0.5 428,-0.5"/>
<text text-anchor="start" x="436" y="-18.5" font-family="Helvetica,sans-Serif" font-size="10.00">it.unitn.healthcore.domain.</text>
<text text-anchor="middle" x="502.5" y="-7.5" font-family="Helvetica,sans-Serif" font-size="10.00">User.getSurname</text>
</a>
</g>
</g>
<!-- Node5&#45;&gt;Node14 -->
<g id="edge15" class="edge">
<title>Node5&#45;&gt;Node14</title>
<path fill="none" stroke="midnightblue" d="M277.69,-372.18C279.25,-317.77 292.2,-132.13 395,-39.5 401.82,-33.35 409.88,-28.67 418.46,-25.12"/>
<polygon fill="midnightblue" stroke="midnightblue" points="419.73,-28.39 427.94,-21.7 417.35,-21.8 419.73,-28.39"/>
</g>
<!-- Node15 -->
<g id="node15" class="node">
<title>Node15</title>
<g id="a_node15"><a xlink:href="classit_1_1unitn_1_1healthcore_1_1business_1_1UserService.html#acc1ae5218e790edcc69ad692c84871a2" target="_top" xlink:title=" ">
<polygon fill="white" stroke="black" points="422,-394.5 422,-424.5 583,-424.5 583,-394.5 422,-394.5"/>
<text text-anchor="start" x="430" y="-412.5" font-family="Helvetica,sans-Serif" font-size="10.00">it.unitn.healthcore.business.</text>
<text text-anchor="middle" x="502.5" y="-401.5" font-family="Helvetica,sans-Serif" font-size="10.00">UserService.recoverPassword</text>
</a>
</g>
</g>
<!-- Node5&#45;&gt;Node15 -->
<g id="edge16" class="edge">
<title>Node5&#45;&gt;Node15</title>
<path fill="none" stroke="midnightblue" d="M359,-395.5C376.15,-397.19 394.33,-398.97 411.77,-400.69"/>
<polygon fill="midnightblue" stroke="midnightblue" points="411.64,-404.19 421.93,-401.69 412.32,-397.22 411.64,-404.19"/>
</g>
<!-- Node17 -->
<g id="node17" class="node">
<title>Node17</title>
<g id="a_node17"><a xlink:href="classit_1_1unitn_1_1healthcore_1_1domain_1_1User.html#a637da3e206f619ffbd1b1589367b2114" target="_top" xlink:title=" ">
<polygon fill="white" stroke="black" points="428,-618.5 428,-648.5 577,-648.5 577,-618.5 428,-618.5"/>
<text text-anchor="start" x="436" y="-636.5" font-family="Helvetica,sans-Serif" font-size="10.00">it.unitn.healthcore.domain.</text>
<text text-anchor="middle" x="502.5" y="-625.5" font-family="Helvetica,sans-Serif" font-size="10.00">User.setEmail</text>
</a>
</g>
</g>
<!-- Node5&#45;&gt;Node17 -->
<g id="edge21" class="edge">
<title>Node5&#45;&gt;Node17</title>
<path fill="none" stroke="midnightblue" d="M285.49,-402.69C311.75,-452.63 393.84,-608.61 395,-609.5 402,-614.85 409.97,-619.05 418.33,-622.34"/>
<polygon fill="midnightblue" stroke="midnightblue" points="417.31,-625.69 427.9,-625.68 419.61,-619.08 417.31,-625.69"/>
</g>
<!-- Node18 -->
<g id="node18" class="node">
<title>Node18</title>
<g id="a_node18"><a xlink:href="classit_1_1unitn_1_1healthcore_1_1domain_1_1User.html#a91c87abb5e6a05b9a218ee0a9537d0fb" target="_top" xlink:title=" ">
<polygon fill="white" stroke="black" points="428,-569.5 428,-599.5 577,-599.5 577,-569.5 428,-569.5"/>
<text text-anchor="start" x="436" y="-587.5" font-family="Helvetica,sans-Serif" font-size="10.00">it.unitn.healthcore.domain.</text>
<text text-anchor="middle" x="502.5" y="-576.5" font-family="Helvetica,sans-Serif" font-size="10.00">User.setName</text>
</a>
</g>
</g>
<!-- Node5&#45;&gt;Node18 -->
<g id="edge22" class="edge">
<title>Node5&#45;&gt;Node18</title>
<path fill="none" stroke="midnightblue" d="M283.19,-402.59C296.84,-436.61 334.83,-519.52 395,-560.5 402.04,-565.29 409.88,-569.14 418.04,-572.23"/>
<polygon fill="midnightblue" stroke="midnightblue" points="417.13,-575.62 427.73,-575.52 419.38,-568.99 417.13,-575.62"/>
</g>
<!-- Node19 -->
<g id="node19" class="node">
<title>Node19</title>
<g id="a_node19"><a xlink:href="classit_1_1unitn_1_1healthcore_1_1domain_1_1User.html#aafba5fb3c10ba03d2e9121427365ec92" target="_top" xlink:title=" ">
<polygon fill="white" stroke="black" points="428,-520.5 428,-550.5 577,-550.5 577,-520.5 428,-520.5"/>
<text text-anchor="start" x="436" y="-538.5" font-family="Helvetica,sans-Serif" font-size="10.00">it.unitn.healthcore.domain.</text>
<text text-anchor="middle" x="502.5" y="-527.5" font-family="Helvetica,sans-Serif" font-size="10.00">User.setSurname</text>
</a>
</g>
</g>
<!-- Node5&#45;&gt;Node19 -->
<g id="edge23" class="edge">
<title>Node5&#45;&gt;Node19</title>
<path fill="none" stroke="midnightblue" d="M288.35,-402.63C307.17,-427.78 348.38,-478.12 395,-505.5 402.52,-509.92 410.73,-513.71 419.13,-516.97"/>
<polygon fill="midnightblue" stroke="midnightblue" points="418.09,-520.31 428.69,-520.41 420.47,-513.73 418.09,-520.31"/>
</g>
<!-- Node15&#45;&gt;Node3 -->
<g id="edge17" class="edge">
<title>Node15&#45;&gt;Node3</title>
<path fill="none" stroke="midnightblue" d="M528.94,-424.53C556.82,-440.44 603.29,-465.3 646,-480.5 652.3,-482.74 658.88,-484.82 665.56,-486.74"/>
<polygon fill="midnightblue" stroke="midnightblue" points="664.8,-490.16 675.37,-489.44 666.66,-483.41 664.8,-490.16"/>
</g>
<!-- Node15&#45;&gt;Node6 -->
<g id="edge18" class="edge">
<title>Node15&#45;&gt;Node6</title>
<path fill="none" stroke="midnightblue" d="M583.31,-424.24C608.05,-428.81 635.51,-433.89 660.97,-438.59"/>
<polygon fill="midnightblue" stroke="midnightblue" points="660.53,-442.07 671,-440.44 661.8,-435.19 660.53,-442.07"/>
</g>
<!-- Node15&#45;&gt;Node10 -->
<g id="edge19" class="edge">
<title>Node15&#45;&gt;Node10</title>
<path fill="none" stroke="midnightblue" d="M575.52,-394.46C605.33,-388.23 640.05,-380.98 670.81,-374.56"/>
<polygon fill="midnightblue" stroke="midnightblue" points="671.57,-377.98 680.64,-372.51 670.14,-371.12 671.57,-377.98"/>
</g>
<!-- Node16 -->
<g id="node16" class="node">
<title>Node16</title>
<g id="a_node16"><a xlink:href="classit_1_1unitn_1_1healthcore_1_1domain_1_1User.html#aae0addd4b63049c29c751a6c03e17f2c" target="_top" xlink:title=" ">
<polygon fill="white" stroke="black" points="679,-391.5 679,-421.5 828,-421.5 828,-391.5 679,-391.5"/>
<text text-anchor="start" x="687" y="-409.5" font-family="Helvetica,sans-Serif" font-size="10.00">it.unitn.healthcore.domain.</text>
<text text-anchor="middle" x="753.5" y="-398.5" font-family="Helvetica,sans-Serif" font-size="10.00">User.setPassword</text>
</a>
</g>
</g>
<!-- Node15&#45;&gt;Node16 -->
<g id="edge20" class="edge">
<title>Node15&#45;&gt;Node16</title>
<path fill="none" stroke="midnightblue" d="M583.31,-408.54C610.55,-408.21 641.08,-407.84 668.63,-407.51"/>
<polygon fill="midnightblue" stroke="midnightblue" points="668.67,-411.01 678.63,-407.39 668.59,-404.01 668.67,-411.01"/>
</g>
</g>
</svg>
