<?xml version="1.0" encoding="UTF-8" standalone="no"?>
<!DOCTYPE svg PUBLIC "-//W3C//DTD SVG 1.1//EN"
 "http://www.w3.org/Graphics/SVG/1.1/DTD/svg11.dtd">
<!-- Generated by graphviz version 2.43.0 (0)
 -->
<!-- Title: it.unitn.healthcore.business.UserService.getCurrentUserEmail Pages: 1 -->
<svg width="774pt" height="176pt"
 viewBox="0.00 0.00 774.00 176.00" xmlns="http://www.w3.org/2000/svg" xmlns:xlink="http://www.w3.org/1999/xlink">
<g id="graph0" class="graph" transform="scale(1 1) rotate(0) translate(4 172)">
<title>it.unitn.healthcore.business.UserService.getCurrentUserEmail</title>
<polygon fill="white" stroke="transparent" points="-4,4 -4,-172 770,-172 770,4 -4,4"/>
<!-- Node1 -->
<g id="node1" class="node">
<title>Node1</title>
<g id="a_node1"><a xlink:title=" ">
<polygon fill="#bfbfbf" stroke="black" points="586,-71.5 586,-101.5 766,-101.5 766,-71.5 586,-71.5"/>
<text text-anchor="start" x="594" y="-89.5" font-family="Helvetica,sans-Serif" font-size="10.00">it.unitn.healthcore.business.</text>
<text text-anchor="middle" x="676" y="-78.5" font-family="Helvetica,sans-Serif" font-size="10.00">UserService.getCurrentUserEmail</text>
</a>
</g>
</g>
<!-- Node2 -->
<g id="node2" class="node">
<title>Node2</title>
<g id="a_node2"><a xlink:href="classit_1_1unitn_1_1healthcore_1_1business_1_1UserService.html#a33213d05bfda4e7384e17b18332d4bb5" target="_top" xlink:title=" ">
<polygon fill="white" stroke="black" points="395,-71.5 395,-101.5 550,-101.5 550,-71.5 395,-71.5"/>
<text text-anchor="start" x="403" y="-89.5" font-family="Helvetica,sans-Serif" font-size="10.00">it.unitn.healthcore.business.</text>
<text text-anchor="middle" x="472.5" y="-78.5" font-family="Helvetica,sans-Serif" font-size="10.00">UserService.getCurrentUser</text>
</a>
</g>
</g>
<!-- Node1&#45;&gt;Node2 -->
<g id="edge1" class="edge">
<title>Node1&#45;&gt;Node2</title>
<path fill="none" stroke="midnightblue" d="M575.67,-86.5C567.07,-86.5 558.45,-86.5 550.08,-86.5"/>
<polygon fill="midnightblue" stroke="midnightblue" points="575.74,-90 585.74,-86.5 575.74,-83 575.74,-90"/>
</g>
<!-- Node3 -->
<g id="node3" class="node">
<title>Node3</title>
<g id="a_node3"><a xlink:href="classit_1_1unitn_1_1healthcore_1_1controller_1_1UserController.html#aa9d85586ed83e4d9865621769e24fd81" target="_top" xlink:title=" ">
<polygon fill="white" stroke="black" points="197,-137.5 197,-167.5 356,-167.5 356,-137.5 197,-137.5"/>
<text text-anchor="start" x="205" y="-155.5" font-family="Helvetica,sans-Serif" font-size="10.00">it.unitn.healthcore.controller.</text>
<text text-anchor="middle" x="276.5" y="-144.5" font-family="Helvetica,sans-Serif" font-size="10.00">UserController.deleteAccount</text>
</a>
</g>
</g>
<!-- Node2&#45;&gt;Node3 -->
<g id="edge2" class="edge">
<title>Node2&#45;&gt;Node3</title>
<path fill="none" stroke="midnightblue" d="M417.47,-104.88C387.32,-115.14 350.22,-127.76 321.8,-137.43"/>
<polygon fill="midnightblue" stroke="midnightblue" points="418.65,-108.18 426.99,-101.64 416.4,-101.55 418.65,-108.18"/>
</g>
<!-- Node4 -->
<g id="node4" class="node">
<title>Node4</title>
<g id="a_node4"><a xlink:href="classit_1_1unitn_1_1healthcore_1_1controller_1_1UserController.html#acd7b4fd033c7ae0b42644c3932e6867f" target="_top" xlink:title=" ">
<polygon fill="white" stroke="black" points="0,-71.5 0,-101.5 158,-101.5 158,-71.5 0,-71.5"/>
<text text-anchor="start" x="8" y="-89.5" font-family="Helvetica,sans-Serif" font-size="10.00">it.unitn.healthcore.controller.</text>
<text text-anchor="middle" x="79" y="-78.5" font-family="Helvetica,sans-Serif" font-size="10.00">UserController.updateProfile</text>
</a>
</g>
</g>
<!-- Node2&#45;&gt;Node4 -->
<g id="edge3" class="edge">
<title>Node2&#45;&gt;Node4</title>
<path fill="none" stroke="midnightblue" d="M384.76,-89.04C376.06,-89.23 367.35,-89.39 359,-89.5 285.67,-90.48 267.33,-90.46 194,-89.5 182.42,-89.35 170.18,-89.11 158.18,-88.83"/>
<polygon fill="midnightblue" stroke="midnightblue" points="385.03,-92.54 394.95,-88.82 384.88,-85.54 385.03,-92.54"/>
</g>
<!-- Node5 -->
<g id="node5" class="node">
<title>Node5</title>
<g id="a_node5"><a xlink:href="classit_1_1unitn_1_1healthcore_1_1business_1_1UserService.html#a114823fda5c213bb46bc935608bb8953" target="_top" xlink:title=" ">
<polygon fill="white" stroke="black" points="194,-49.5 194,-79.5 359,-79.5 359,-49.5 194,-49.5"/>
<text text-anchor="start" x="202" y="-67.5" font-family="Helvetica,sans-Serif" font-size="10.00">it.unitn.healthcore.business.</text>
<text text-anchor="middle" x="276.5" y="-56.5" font-family="Helvetica,sans-Serif" font-size="10.00">UserService.updateUserProfile</text>
</a>
</g>
</g>
<!-- Node2&#45;&gt;Node5 -->
<g id="edge4" class="edge">
<title>Node2&#45;&gt;Node5</title>
<path fill="none" stroke="midnightblue" d="M384.82,-76.67C376.25,-75.7 367.56,-74.71 359.04,-73.75"/>
<polygon fill="midnightblue" stroke="midnightblue" points="384.5,-80.16 394.83,-77.81 385.28,-73.2 384.5,-80.16"/>
</g>
<!-- Node6 -->
<g id="node6" class="node">
<title>Node6</title>
<g id="a_node6"><a xlink:href="classit_1_1unitn_1_1healthcore_1_1controller_1_1UserController.html#a72a0e87005b1b6a91822302d4888d3cf" target="_top" xlink:title=" ">
<polygon fill="white" stroke="black" points="194.5,-0.5 194.5,-30.5 358.5,-30.5 358.5,-0.5 194.5,-0.5"/>
<text text-anchor="start" x="202.5" y="-18.5" font-family="Helvetica,sans-Serif" font-size="10.00">it.unitn.healthcore.controller.</text>
<text text-anchor="middle" x="276.5" y="-7.5" font-family="Helvetica,sans-Serif" font-size="10.00">UserController.userHomepage</text>
</a>
</g>
</g>
<!-- Node2&#45;&gt;Node6 -->
<g id="edge6" class="edge">
<title>Node2&#45;&gt;Node6</title>
<path fill="none" stroke="midnightblue" d="M427.41,-67.39C406.8,-58.74 381.82,-48.65 359,-40.5 349.38,-37.07 339.03,-33.67 329.03,-30.53"/>
<polygon fill="midnightblue" stroke="midnightblue" points="426.28,-70.71 436.85,-71.38 429,-64.26 426.28,-70.71"/>
</g>
<!-- Node5&#45;&gt;Node4 -->
<g id="edge5" class="edge">
<title>Node5&#45;&gt;Node4</title>
<path fill="none" stroke="midnightblue" d="M183.69,-74.83C175.1,-75.8 166.45,-76.77 158.01,-77.72"/>
<polygon fill="midnightblue" stroke="midnightblue" points="184.18,-78.3 193.72,-73.7 183.39,-71.34 184.18,-78.3"/>
</g>
</g>
</svg>
