<?xml version="1.0" encoding="UTF-8" standalone="no"?>
<!DOCTYPE svg PUBLIC "-//W3C//DTD SVG 1.1//EN"
 "http://www.w3.org/Graphics/SVG/1.1/DTD/svg11.dtd">
<!-- Generated by graphviz version 2.43.0 (0)
 -->
<!-- Title: it.unitn.healthcore.domain.PasswordConfirmationForm.getPassword Pages: 1 -->
<svg width="1046pt" height="257pt"
 viewBox="0.00 0.00 1046.00 257.12" xmlns="http://www.w3.org/2000/svg" xmlns:xlink="http://www.w3.org/1999/xlink">
<g id="graph0" class="graph" transform="scale(1 1) rotate(0) translate(4 253.12)">
<title>it.unitn.healthcore.domain.PasswordConfirmationForm.getPassword</title>
<polygon fill="white" stroke="transparent" points="-4,4 -4,-253.12 1042,-253.12 1042,4 -4,4"/>
<!-- Node1 -->
<g id="node1" class="node">
<title>Node1</title>
<g id="a_node1"><a xlink:title="Password getter.">
<polygon fill="#bfbfbf" stroke="black" points="823,-103.62 823,-133.62 1038,-133.62 1038,-103.62 823,-103.62"/>
<text text-anchor="start" x="831" y="-121.62" font-family="Helvetica,sans-Serif" font-size="10.00">it.unitn.healthcore.domain.</text>
<text text-anchor="middle" x="930.5" y="-110.62" font-family="Helvetica,sans-Serif" font-size="10.00">PasswordConfirmationForm.getPassword</text>
</a>
</g>
</g>
<!-- Node2 -->
<g id="node2" class="node">
<title>Node2</title>
<g id="a_node2"><a xlink:href="classit_1_1unitn_1_1healthcore_1_1domain_1_1PasswordConfirmationForm.html#a181a1ca7ab3c4d07cb7f3817c1de6974" target="_top" xlink:title="Validates the password confirmation form by checking if the password and confirmation match,...">
<polygon fill="white" stroke="black" points="602,-126.12 602,-167.12 787,-167.12 787,-126.12 602,-126.12"/>
<text text-anchor="start" x="610" y="-155.12" font-family="Helvetica,sans-Serif" font-size="10.00">it.unitn.healthcore.domain.</text>
<text text-anchor="start" x="610" y="-144.12" font-family="Helvetica,sans-Serif" font-size="10.00">PasswordConfirmationForm.isValid</text>
<text text-anchor="middle" x="694.5" y="-133.12" font-family="Helvetica,sans-Serif" font-size="10.00">PasswordForm</text>
</a>
</g>
</g>
<!-- Node1&#45;&gt;Node2 -->
<g id="edge1" class="edge">
<title>Node1&#45;&gt;Node2</title>
<path fill="none" stroke="midnightblue" d="M812.68,-132.6C804.07,-133.63 795.47,-134.66 787.04,-135.67"/>
<polygon fill="midnightblue" stroke="midnightblue" points="813.26,-136.06 822.77,-131.4 812.43,-129.11 813.26,-136.06"/>
</g>
<!-- Node3 -->
<g id="node3" class="node">
<title>Node3</title>
<g id="a_node3"><a xlink:href="classit_1_1unitn_1_1healthcore_1_1business_1_1UserService.html#acc1ae5218e790edcc69ad692c84871a2" target="_top" xlink:title="Recovers the password for a user by verifying the OTP and updating the password in the database.">
<polygon fill="white" stroke="black" points="403.5,-171.62 403.5,-201.62 564.5,-201.62 564.5,-171.62 403.5,-171.62"/>
<text text-anchor="start" x="411.5" y="-189.62" font-family="Helvetica,sans-Serif" font-size="10.00">it.unitn.healthcore.business.</text>
<text text-anchor="middle" x="484" y="-178.62" font-family="Helvetica,sans-Serif" font-size="10.00">UserService.recoverPassword</text>
</a>
</g>
</g>
<!-- Node1&#45;&gt;Node3 -->
<g id="edge10" class="edge">
<title>Node1&#45;&gt;Node3</title>
<path fill="none" stroke="midnightblue" d="M891.93,-138.2C863.86,-151.75 824.08,-168.73 787,-176.62 712.86,-192.41 626.2,-193.56 564.77,-191.57"/>
<polygon fill="midnightblue" stroke="midnightblue" points="893.56,-141.3 900.99,-133.75 890.47,-135.02 893.56,-141.3"/>
</g>
<!-- Node5 -->
<g id="node5" class="node">
<title>Node5</title>
<g id="a_node5"><a xlink:href="classit_1_1unitn_1_1healthcore_1_1business_1_1UserService.html#a114823fda5c213bb46bc935608bb8953" target="_top" xlink:title="Updates the profile of the currently authenticated user based on the provided object .">
<polygon fill="white" stroke="black" points="197.5,-218.62 197.5,-248.62 362.5,-248.62 362.5,-218.62 197.5,-218.62"/>
<text text-anchor="start" x="205.5" y="-236.62" font-family="Helvetica,sans-Serif" font-size="10.00">it.unitn.healthcore.business.</text>
<text text-anchor="middle" x="280" y="-225.62" font-family="Helvetica,sans-Serif" font-size="10.00">UserService.updateUserProfile</text>
</a>
</g>
</g>
<!-- Node1&#45;&gt;Node5 -->
<g id="edge16" class="edge">
<title>Node1&#45;&gt;Node5</title>
<path fill="none" stroke="midnightblue" d="M900.68,-139.58C873.02,-158.44 829.33,-185.06 787,-197.62 642.21,-240.61 464.32,-242.16 362.67,-238.5"/>
<polygon fill="midnightblue" stroke="midnightblue" points="902.85,-142.34 909.07,-133.76 898.86,-136.58 902.85,-142.34"/>
</g>
<!-- Node9 -->
<g id="node9" class="node">
<title>Node9</title>
<g id="a_node9"><a xlink:href="classit_1_1unitn_1_1healthcore_1_1business_1_1UserService.html#a32dba226bff5fb3cd0caf79303b71d38" target="_top" xlink:title="Registers a new patient in the system.">
<polygon fill="white" stroke="black" points="406.5,-5.62 406.5,-35.62 561.5,-35.62 561.5,-5.62 406.5,-5.62"/>
<text text-anchor="start" x="414.5" y="-23.62" font-family="Helvetica,sans-Serif" font-size="10.00">it.unitn.healthcore.business.</text>
<text text-anchor="middle" x="484" y="-12.62" font-family="Helvetica,sans-Serif" font-size="10.00">UserService.registerPatient</text>
</a>
</g>
</g>
<!-- Node1&#45;&gt;Node9 -->
<g id="edge15" class="edge">
<title>Node1&#45;&gt;Node9</title>
<path fill="none" stroke="midnightblue" d="M907.61,-96.35C881.55,-71.59 835.44,-33.05 787,-17.62 713.18,5.88 623.98,1.26 561.73,-6.86"/>
<polygon fill="midnightblue" stroke="midnightblue" points="905.42,-99.1 915.03,-103.56 910.29,-94.08 905.42,-99.1"/>
</g>
<!-- Node11 -->
<g id="node11" class="node">
<title>Node11</title>
<g id="a_node11"><a xlink:href="classit_1_1unitn_1_1healthcore_1_1business_1_1UserService.html#aebfef6bf9480fb24956dba8b10232d2f" target="_top" xlink:title="Registers a new administrator in the system.">
<polygon fill="white" stroke="black" points="603.5,-76.62 603.5,-106.62 785.5,-106.62 785.5,-76.62 603.5,-76.62"/>
<text text-anchor="start" x="611.5" y="-94.62" font-family="Helvetica,sans-Serif" font-size="10.00">it.unitn.healthcore.business.</text>
<text text-anchor="middle" x="694.5" y="-83.62" font-family="Helvetica,sans-Serif" font-size="10.00">UserService.registerAdministrator</text>
</a>
</g>
</g>
<!-- Node1&#45;&gt;Node11 -->
<g id="edge11" class="edge">
<title>Node1&#45;&gt;Node11</title>
<path fill="none" stroke="midnightblue" d="M812.56,-105.13C803.51,-104.09 794.46,-103.04 785.62,-102.02"/>
<polygon fill="midnightblue" stroke="midnightblue" points="812.44,-108.64 822.77,-106.31 813.24,-101.69 812.44,-108.64"/>
</g>
<!-- Node12 -->
<g id="node12" class="node">
<title>Node12</title>
<g id="a_node12"><a xlink:href="classit_1_1unitn_1_1healthcore_1_1business_1_1UserService.html#af71b0f13c31c938efe9fce54ab3d7f7d" target="_top" xlink:title="Registers a new doctor in the system.">
<polygon fill="white" stroke="black" points="617,-27.62 617,-57.62 772,-57.62 772,-27.62 617,-27.62"/>
<text text-anchor="start" x="625" y="-45.62" font-family="Helvetica,sans-Serif" font-size="10.00">it.unitn.healthcore.business.</text>
<text text-anchor="middle" x="694.5" y="-34.62" font-family="Helvetica,sans-Serif" font-size="10.00">UserService.registerDoctor</text>
</a>
</g>
</g>
<!-- Node1&#45;&gt;Node12 -->
<g id="edge13" class="edge">
<title>Node1&#45;&gt;Node12</title>
<path fill="none" stroke="midnightblue" d="M880.44,-100.01C853.11,-89.91 818.36,-77.5 787,-67.62 776.16,-64.21 764.52,-60.82 753.29,-57.69"/>
<polygon fill="midnightblue" stroke="midnightblue" points="879.56,-103.42 890.16,-103.62 882,-96.86 879.56,-103.42"/>
</g>
<!-- Node2&#45;&gt;Node3 -->
<g id="edge2" class="edge">
<title>Node2&#45;&gt;Node3</title>
<path fill="none" stroke="midnightblue" d="M591.82,-166.13C582.28,-167.96 572.7,-169.8 563.42,-171.58"/>
<polygon fill="midnightblue" stroke="midnightblue" points="592.58,-169.55 601.75,-164.23 591.27,-162.67 592.58,-169.55"/>
</g>
<!-- Node7 -->
<g id="node7" class="node">
<title>Node7</title>
<g id="a_node7"><a xlink:href="classit_1_1unitn_1_1healthcore_1_1business_1_1UserService.html#a8bb76a3af453837d334e1f5a9551ff56" target="_top" xlink:title="Registers a new employee (doctor or administrator) in the system.">
<polygon fill="white" stroke="black" points="402,-76.62 402,-106.62 566,-106.62 566,-76.62 402,-76.62"/>
<text text-anchor="start" x="410" y="-94.62" font-family="Helvetica,sans-Serif" font-size="10.00">it.unitn.healthcore.business.</text>
<text text-anchor="middle" x="484" y="-83.62" font-family="Helvetica,sans-Serif" font-size="10.00">UserService.registerEmployee</text>
</a>
</g>
</g>
<!-- Node2&#45;&gt;Node7 -->
<g id="edge6" class="edge">
<title>Node2&#45;&gt;Node7</title>
<path fill="none" stroke="midnightblue" d="M605.75,-123.48C584.2,-117.79 561.68,-111.85 542.01,-106.66"/>
<polygon fill="midnightblue" stroke="midnightblue" points="605,-126.9 615.57,-126.07 606.79,-120.13 605,-126.9"/>
</g>
<!-- Node2&#45;&gt;Node9 -->
<g id="edge8" class="edge">
<title>Node2&#45;&gt;Node9</title>
<path fill="none" stroke="midnightblue" d="M608.63,-121.03C606.35,-119.64 604.13,-118.17 602,-116.62 580.12,-100.77 586.11,-85.68 566,-67.62 551.72,-54.81 533.4,-43.82 517.79,-35.7"/>
<polygon fill="midnightblue" stroke="midnightblue" points="607.27,-124.28 617.72,-126.06 610.66,-118.16 607.27,-124.28"/>
</g>
<!-- Node4 -->
<g id="node4" class="node">
<title>Node4</title>
<g id="a_node4"><a xlink:href="classit_1_1unitn_1_1healthcore_1_1controller_1_1UserController.html#a2405e7122fa835c28ee045e1339e0f7c" target="_top" xlink:title="handle the password recovery request by sending an OTP to the user&#39;s email and redirecting to the OTP...">
<polygon fill="white" stroke="black" points="194,-169.62 194,-199.62 366,-199.62 366,-169.62 194,-169.62"/>
<text text-anchor="start" x="202" y="-187.62" font-family="Helvetica,sans-Serif" font-size="10.00">it.unitn.healthcore.controller.</text>
<text text-anchor="middle" x="280" y="-176.62" font-family="Helvetica,sans-Serif" font-size="10.00">UserController.recoverPassword</text>
</a>
</g>
</g>
<!-- Node3&#45;&gt;Node4 -->
<g id="edge3" class="edge">
<title>Node3&#45;&gt;Node4</title>
<path fill="none" stroke="midnightblue" d="M393.32,-185.74C384.28,-185.65 375.12,-185.56 366.13,-185.47"/>
<polygon fill="midnightblue" stroke="midnightblue" points="393.42,-189.24 403.45,-185.84 393.49,-182.24 393.42,-189.24"/>
</g>
<!-- Node3&#45;&gt;Node5 -->
<g id="edge4" class="edge">
<title>Node3&#45;&gt;Node5</title>
<path fill="none" stroke="midnightblue" d="M408.53,-203.95C387.86,-208.76 365.6,-213.94 345.55,-218.61"/>
<polygon fill="midnightblue" stroke="midnightblue" points="409.58,-207.3 418.53,-201.62 408,-200.48 409.58,-207.3"/>
</g>
<!-- Node6 -->
<g id="node6" class="node">
<title>Node6</title>
<g id="a_node6"><a xlink:href="classit_1_1unitn_1_1healthcore_1_1controller_1_1UserController.html#a546d5ed79a6b2f6f15000d9ddb3b03ab" target="_top" xlink:title="handle the profile update request by updating the user&#39;s profile information and redirecting to the p...">
<polygon fill="white" stroke="black" points="0,-218.62 0,-248.62 158,-248.62 158,-218.62 0,-218.62"/>
<text text-anchor="start" x="8" y="-236.62" font-family="Helvetica,sans-Serif" font-size="10.00">it.unitn.healthcore.controller.</text>
<text text-anchor="middle" x="79" y="-225.62" font-family="Helvetica,sans-Serif" font-size="10.00">UserController.updateProfile</text>
</a>
</g>
</g>
<!-- Node5&#45;&gt;Node6 -->
<g id="edge5" class="edge">
<title>Node5&#45;&gt;Node6</title>
<path fill="none" stroke="midnightblue" d="M187.37,-233.62C177.62,-233.62 167.76,-233.62 158.18,-233.62"/>
<polygon fill="midnightblue" stroke="midnightblue" points="187.48,-237.12 197.48,-233.62 187.48,-230.12 187.48,-237.12"/>
</g>
<!-- Node8 -->
<g id="node8" class="node">
<title>Node8</title>
<g id="a_node8"><a xlink:href="classit_1_1unitn_1_1healthcore_1_1controller_1_1UserController.html#ac9a8c37503c4a708c85863870ee27da7" target="_top" xlink:title=" ">
<polygon fill="white" stroke="black" points="201,-76.62 201,-106.62 359,-106.62 359,-76.62 201,-76.62"/>
<text text-anchor="start" x="209" y="-94.62" font-family="Helvetica,sans-Serif" font-size="10.00">it.unitn.healthcore.controller.</text>
<text text-anchor="middle" x="280" y="-83.62" font-family="Helvetica,sans-Serif" font-size="10.00">UserController.addEmployee</text>
</a>
</g>
</g>
<!-- Node7&#45;&gt;Node8 -->
<g id="edge7" class="edge">
<title>Node7&#45;&gt;Node8</title>
<path fill="none" stroke="midnightblue" d="M391.44,-91.62C380.66,-91.62 369.74,-91.62 359.17,-91.62"/>
<polygon fill="midnightblue" stroke="midnightblue" points="391.71,-95.12 401.71,-91.62 391.71,-88.12 391.71,-95.12"/>
</g>
<!-- Node10 -->
<g id="node10" class="node">
<title>Node10</title>
<g id="a_node10"><a xlink:href="classit_1_1unitn_1_1healthcore_1_1controller_1_1UserController.html#a2afa05c30a08ef688e1e3b89ca1f8774" target="_top" xlink:title=" ">
<polygon fill="white" stroke="black" points="201,-5.62 201,-35.62 359,-35.62 359,-5.62 201,-5.62"/>
<text text-anchor="start" x="209" y="-23.62" font-family="Helvetica,sans-Serif" font-size="10.00">it.unitn.healthcore.controller.</text>
<text text-anchor="middle" x="280" y="-12.62" font-family="Helvetica,sans-Serif" font-size="10.00">UserController.addPatient</text>
</a>
</g>
</g>
<!-- Node9&#45;&gt;Node10 -->
<g id="edge9" class="edge">
<title>Node9&#45;&gt;Node10</title>
<path fill="none" stroke="midnightblue" d="M396.14,-20.62C383.89,-20.62 371.36,-20.62 359.28,-20.62"/>
<polygon fill="midnightblue" stroke="midnightblue" points="396.34,-24.12 406.34,-20.62 396.34,-17.12 396.34,-24.12"/>
</g>
<!-- Node11&#45;&gt;Node7 -->
<g id="edge12" class="edge">
<title>Node11&#45;&gt;Node7</title>
<path fill="none" stroke="midnightblue" d="M593.1,-91.62C584.08,-91.62 575.02,-91.62 566.19,-91.62"/>
<polygon fill="midnightblue" stroke="midnightblue" points="593.26,-95.12 603.26,-91.62 593.26,-88.12 593.26,-95.12"/>
</g>
<!-- Node12&#45;&gt;Node7 -->
<g id="edge14" class="edge">
<title>Node12&#45;&gt;Node7</title>
<path fill="none" stroke="midnightblue" d="M619.76,-59.96C596.61,-65.4 571.26,-71.35 548.85,-76.62"/>
<polygon fill="midnightblue" stroke="midnightblue" points="620.59,-63.35 629.53,-57.66 618.99,-56.54 620.59,-63.35"/>
</g>
</g>
</svg>
