<?xml version="1.0" encoding="UTF-8" standalone="no"?>
<!DOCTYPE svg PUBLIC "-//W3C//DTD SVG 1.1//EN"
 "http://www.w3.org/Graphics/SVG/1.1/DTD/svg11.dtd">
<!-- Generated by graphviz version 2.43.0 (0)
 -->
<!-- Title: it.unitn.healthcore.business.AppointmentService.getPastAppointments Pages: 1 -->
<svg width="479pt" height="88pt"
 viewBox="0.00 0.00 479.00 88.00" xmlns="http://www.w3.org/2000/svg" xmlns:xlink="http://www.w3.org/1999/xlink">
<g id="graph0" class="graph" transform="scale(1 1) rotate(0) translate(4 84)">
<title>it.unitn.healthcore.business.AppointmentService.getPastAppointments</title>
<polygon fill="white" stroke="transparent" points="-4,4 -4,-84 475,-84 475,4 -4,4"/>
<!-- Node1 -->
<g id="node1" class="node">
<title>Node1</title>
<g id="a_node1"><a xlink:title="Retrieves a list of past appointments for the currently authenticated user.">
<polygon fill="#bfbfbf" stroke="black" points="248,-24.5 248,-54.5 471,-54.5 471,-24.5 248,-24.5"/>
<text text-anchor="start" x="256" y="-42.5" font-family="Helvetica,sans-Serif" font-size="10.00">it.unitn.healthcore.business.</text>
<text text-anchor="middle" x="359.5" y="-31.5" font-family="Helvetica,sans-Serif" font-size="10.00">AppointmentService.getPastAppointments</text>
</a>
</g>
</g>
<!-- Node2 -->
<g id="node2" class="node">
<title>Node2</title>
<g id="a_node2"><a xlink:href="classit_1_1unitn_1_1healthcore_1_1controller_1_1DoctorController.html#a6d1a63a3f86734bbe0af66cf4b9cc4f8" target="_top" xlink:title="Retrieves a list of past appointments for the currently authenticated doctor.">
<polygon fill="white" stroke="black" points="0.5,-49.5 0.5,-79.5 211.5,-79.5 211.5,-49.5 0.5,-49.5"/>
<text text-anchor="start" x="8.5" y="-67.5" font-family="Helvetica,sans-Serif" font-size="10.00">it.unitn.healthcore.controller.</text>
<text text-anchor="middle" x="106" y="-56.5" font-family="Helvetica,sans-Serif" font-size="10.00">DoctorController.viewPastAppointments</text>
</a>
</g>
</g>
<!-- Node1&#45;&gt;Node2 -->
<g id="edge1" class="edge">
<title>Node1&#45;&gt;Node2</title>
<path fill="none" stroke="midnightblue" d="M237.67,-51.51C229,-52.37 220.3,-53.24 211.73,-54.09"/>
<polygon fill="midnightblue" stroke="midnightblue" points="238.22,-54.97 247.82,-50.5 237.53,-48.01 238.22,-54.97"/>
</g>
<!-- Node3 -->
<g id="node3" class="node">
<title>Node3</title>
<g id="a_node3"><a xlink:href="classit_1_1unitn_1_1healthcore_1_1controller_1_1PatientController.html#a8303b97c30b7b5049de75826bafceb4c" target="_top" xlink:title="Retrieves a list of past appointments for the authenticated patient.">
<polygon fill="white" stroke="black" points="0,-0.5 0,-30.5 212,-30.5 212,-0.5 0,-0.5"/>
<text text-anchor="start" x="8" y="-18.5" font-family="Helvetica,sans-Serif" font-size="10.00">it.unitn.healthcore.controller.</text>
<text text-anchor="middle" x="106" y="-7.5" font-family="Helvetica,sans-Serif" font-size="10.00">PatientController.viewPastAppointments</text>
</a>
</g>
</g>
<!-- Node1&#45;&gt;Node3 -->
<g id="edge2" class="edge">
<title>Node1&#45;&gt;Node3</title>
<path fill="none" stroke="midnightblue" d="M237.78,-27.98C229.21,-27.16 220.6,-26.34 212.13,-25.53"/>
<polygon fill="midnightblue" stroke="midnightblue" points="237.54,-31.47 247.82,-28.94 238.2,-24.5 237.54,-31.47"/>
</g>
</g>
</svg>
