<?xml version="1.0" encoding="UTF-8" standalone="no"?>
<!DOCTYPE svg PUBLIC "-//W3C//DTD SVG 1.1//EN"
 "http://www.w3.org/Graphics/SVG/1.1/DTD/svg11.dtd">
<!-- Generated by graphviz version 2.43.0 (0)
 -->
<!-- Title: it.unitn.healthcore.business.PatientService.getDoctorDescription Pages: 1 -->
<svg width="391pt" height="480pt"
 viewBox="0.00 0.00 391.00 480.00" xmlns="http://www.w3.org/2000/svg" xmlns:xlink="http://www.w3.org/1999/xlink">
<g id="graph0" class="graph" transform="scale(1 1) rotate(0) translate(4 476)">
<title>it.unitn.healthcore.business.PatientService.getDoctorDescription</title>
<polygon fill="white" stroke="transparent" points="-4,4 -4,-476 387,-476 387,4 -4,4"/>
<!-- Node1 -->
<g id="node1" class="node">
<title>Node1</title>
<g id="a_node1"><a xlink:title="Retrieves detailed information about a doctor based on their ID.">
<polygon fill="#bfbfbf" stroke="black" points="0,-220.5 0,-250.5 193,-250.5 193,-220.5 0,-220.5"/>
<text text-anchor="start" x="8" y="-238.5" font-family="Helvetica,sans-Serif" font-size="10.00">it.unitn.healthcore.business.</text>
<text text-anchor="middle" x="96.5" y="-227.5" font-family="Helvetica,sans-Serif" font-size="10.00">PatientService.getDoctorDescription</text>
</a>
</g>
</g>
<!-- Node2 -->
<g id="node2" class="node">
<title>Node2</title>
<g id="a_node2"><a xlink:href="classit_1_1unitn_1_1healthcore_1_1domain_1_1Doctor.html#ab3cac7f0c22b3f39c4a5743a8422e1a3" target="_top" xlink:title="Appointment price getter.">
<polygon fill="white" stroke="black" points="229,-441.5 229,-471.5 383,-471.5 383,-441.5 229,-441.5"/>
<text text-anchor="start" x="237" y="-459.5" font-family="Helvetica,sans-Serif" font-size="10.00">it.unitn.healthcore.domain.</text>
<text text-anchor="middle" x="306" y="-448.5" font-family="Helvetica,sans-Serif" font-size="10.00">Doctor.getAppointmentPrice</text>
</a>
</g>
</g>
<!-- Node1&#45;&gt;Node2 -->
<g id="edge1" class="edge">
<title>Node1&#45;&gt;Node2</title>
<path fill="none" stroke="midnightblue" d="M103.38,-250.62C118.46,-287.41 162.08,-382.25 229,-432.5 230.84,-433.88 232.77,-435.19 234.76,-436.42"/>
<polygon fill="midnightblue" stroke="midnightblue" points="233.37,-439.65 243.82,-441.36 236.71,-433.5 233.37,-439.65"/>
</g>
<!-- Node3 -->
<g id="node3" class="node">
<title>Node3</title>
<g id="a_node3"><a xlink:href="classit_1_1unitn_1_1healthcore_1_1domain_1_1Doctor.html#ac03da7697c11c376768602fad6a43886" target="_top" xlink:title="Department getter.">
<polygon fill="white" stroke="black" points="231.5,-392.5 231.5,-422.5 380.5,-422.5 380.5,-392.5 231.5,-392.5"/>
<text text-anchor="start" x="239.5" y="-410.5" font-family="Helvetica,sans-Serif" font-size="10.00">it.unitn.healthcore.domain.</text>
<text text-anchor="middle" x="306" y="-399.5" font-family="Helvetica,sans-Serif" font-size="10.00">Doctor.getDepartment</text>
</a>
</g>
</g>
<!-- Node1&#45;&gt;Node3 -->
<g id="edge2" class="edge">
<title>Node1&#45;&gt;Node3</title>
<path fill="none" stroke="midnightblue" d="M107.06,-250.96C126.38,-280.94 173.05,-347.23 229,-383.5 231.45,-385.09 234.01,-386.58 236.65,-387.97"/>
<polygon fill="midnightblue" stroke="midnightblue" points="235.33,-391.22 245.87,-392.37 238.35,-384.9 235.33,-391.22"/>
</g>
<!-- Node4 -->
<g id="node4" class="node">
<title>Node4</title>
<g id="a_node4"><a xlink:href="classit_1_1unitn_1_1healthcore_1_1domain_1_1User.html#a5b48be6dca19b7d4d43ec2e6a3b91502" target="_top" xlink:title="Returns the email address of the user.">
<polygon fill="white" stroke="black" points="231.5,-343.5 231.5,-373.5 380.5,-373.5 380.5,-343.5 231.5,-343.5"/>
<text text-anchor="start" x="239.5" y="-361.5" font-family="Helvetica,sans-Serif" font-size="10.00">it.unitn.healthcore.domain.</text>
<text text-anchor="middle" x="306" y="-350.5" font-family="Helvetica,sans-Serif" font-size="10.00">User.getEmail</text>
</a>
</g>
</g>
<!-- Node1&#45;&gt;Node4 -->
<g id="edge3" class="edge">
<title>Node1&#45;&gt;Node4</title>
<path fill="none" stroke="midnightblue" d="M113.69,-250.62C137.35,-272.01 183.53,-311.08 229,-334.5 232.57,-336.34 236.3,-338.06 240.11,-339.69"/>
<polygon fill="midnightblue" stroke="midnightblue" points="239.14,-343.06 249.72,-343.49 241.72,-336.56 239.14,-343.06"/>
</g>
<!-- Node5 -->
<g id="node5" class="node">
<title>Node5</title>
<g id="a_node5"><a xlink:href="classit_1_1unitn_1_1healthcore_1_1domain_1_1Department.html#ae10adf6ab4ccadfca9bdbce8d1940c84" target="_top" xlink:title="Returns the hospital associated with the department.">
<polygon fill="white" stroke="black" points="231.5,-294.5 231.5,-324.5 380.5,-324.5 380.5,-294.5 231.5,-294.5"/>
<text text-anchor="start" x="239.5" y="-312.5" font-family="Helvetica,sans-Serif" font-size="10.00">it.unitn.healthcore.domain.</text>
<text text-anchor="middle" x="306" y="-301.5" font-family="Helvetica,sans-Serif" font-size="10.00">Department.getHospital</text>
</a>
</g>
</g>
<!-- Node1&#45;&gt;Node5 -->
<g id="edge4" class="edge">
<title>Node1&#45;&gt;Node5</title>
<path fill="none" stroke="midnightblue" d="M135.27,-250.52C161.44,-260.77 197.16,-274.43 229,-285.5 234.53,-287.42 240.3,-289.36 246.09,-291.26"/>
<polygon fill="midnightblue" stroke="midnightblue" points="245.21,-294.66 255.8,-294.42 247.37,-288 245.21,-294.66"/>
</g>
<!-- Node6 -->
<g id="node6" class="node">
<title>Node6</title>
<g id="a_node6"><a xlink:href="classit_1_1unitn_1_1healthcore_1_1domain_1_1Department.html#ad3dbd24db0898580a3a7ead8960abad7" target="_top" xlink:title="Returns the list of equipments associated with the department.">
<polygon fill="white" stroke="black" points="231.5,-245.5 231.5,-275.5 380.5,-275.5 380.5,-245.5 231.5,-245.5"/>
<text text-anchor="start" x="239.5" y="-263.5" font-family="Helvetica,sans-Serif" font-size="10.00">it.unitn.healthcore.domain.</text>
<text text-anchor="middle" x="306" y="-252.5" font-family="Helvetica,sans-Serif" font-size="10.00">Department.getName</text>
</a>
</g>
</g>
<!-- Node1&#45;&gt;Node6 -->
<g id="edge5" class="edge">
<title>Node1&#45;&gt;Node6</title>
<path fill="none" stroke="midnightblue" d="M193.05,-247.01C202.5,-248.15 212.05,-249.3 221.36,-250.42"/>
<polygon fill="midnightblue" stroke="midnightblue" points="221.02,-253.91 231.37,-251.63 221.86,-246.96 221.02,-253.91"/>
</g>
<!-- Node7 -->
<g id="node7" class="node">
<title>Node7</title>
<g id="a_node7"><a xlink:href="classit_1_1unitn_1_1healthcore_1_1domain_1_1Hospital.html#ac8fd4fe7bb42c1db18f0ef42446cf95b" target="_top" xlink:title="Returns the hospital name.">
<polygon fill="white" stroke="black" points="231.5,-196.5 231.5,-226.5 380.5,-226.5 380.5,-196.5 231.5,-196.5"/>
<text text-anchor="start" x="239.5" y="-214.5" font-family="Helvetica,sans-Serif" font-size="10.00">it.unitn.healthcore.domain.</text>
<text text-anchor="middle" x="306" y="-203.5" font-family="Helvetica,sans-Serif" font-size="10.00">Hospital.getName</text>
</a>
</g>
</g>
<!-- Node1&#45;&gt;Node7 -->
<g id="edge6" class="edge">
<title>Node1&#45;&gt;Node7</title>
<path fill="none" stroke="midnightblue" d="M193.05,-224.45C202.5,-223.36 212.05,-222.25 221.36,-221.17"/>
<polygon fill="midnightblue" stroke="midnightblue" points="221.84,-224.64 231.37,-220.02 221.03,-217.69 221.84,-224.64"/>
</g>
<!-- Node8 -->
<g id="node8" class="node">
<title>Node8</title>
<g id="a_node8"><a xlink:href="classit_1_1unitn_1_1healthcore_1_1domain_1_1User.html#a0c78137c0cf7b414cc88dcc41895d5a7" target="_top" xlink:title="Returns the first name of the user.">
<polygon fill="white" stroke="black" points="231.5,-147.5 231.5,-177.5 380.5,-177.5 380.5,-147.5 231.5,-147.5"/>
<text text-anchor="start" x="239.5" y="-165.5" font-family="Helvetica,sans-Serif" font-size="10.00">it.unitn.healthcore.domain.</text>
<text text-anchor="middle" x="306" y="-154.5" font-family="Helvetica,sans-Serif" font-size="10.00">User.getName</text>
</a>
</g>
</g>
<!-- Node1&#45;&gt;Node8 -->
<g id="edge7" class="edge">
<title>Node1&#45;&gt;Node8</title>
<path fill="none" stroke="midnightblue" d="M137.67,-220.46C163.65,-210.82 198.23,-198.17 229,-187.5 235.35,-185.3 242.01,-183.04 248.64,-180.81"/>
<polygon fill="midnightblue" stroke="midnightblue" points="249.91,-184.08 258.3,-177.6 247.7,-177.44 249.91,-184.08"/>
</g>
<!-- Node9 -->
<g id="node9" class="node">
<title>Node9</title>
<g id="a_node9"><a xlink:href="classit_1_1unitn_1_1healthcore_1_1domain_1_1Doctor.html#a1f74266b5c9953f4c861a1b2e66405a8" target="_top" xlink:title="Shift getter.">
<polygon fill="white" stroke="black" points="231.5,-98.5 231.5,-128.5 380.5,-128.5 380.5,-98.5 231.5,-98.5"/>
<text text-anchor="start" x="239.5" y="-116.5" font-family="Helvetica,sans-Serif" font-size="10.00">it.unitn.healthcore.domain.</text>
<text text-anchor="middle" x="306" y="-105.5" font-family="Helvetica,sans-Serif" font-size="10.00">Doctor.getShifts</text>
</a>
</g>
</g>
<!-- Node1&#45;&gt;Node9 -->
<g id="edge8" class="edge">
<title>Node1&#45;&gt;Node9</title>
<path fill="none" stroke="midnightblue" d="M114.19,-220.43C138.08,-199.51 184.13,-161.67 229,-138.5 233.25,-136.31 237.73,-134.25 242.31,-132.33"/>
<polygon fill="midnightblue" stroke="midnightblue" points="243.76,-135.52 251.78,-128.6 241.19,-129.01 243.76,-135.52"/>
</g>
<!-- Node10 -->
<g id="node10" class="node">
<title>Node10</title>
<g id="a_node10"><a xlink:href="classit_1_1unitn_1_1healthcore_1_1domain_1_1Doctor.html#a640b7f957294392023414c8b675304c9" target="_top" xlink:title="Specialization getter.">
<polygon fill="white" stroke="black" points="231.5,-49.5 231.5,-79.5 380.5,-79.5 380.5,-49.5 231.5,-49.5"/>
<text text-anchor="start" x="239.5" y="-67.5" font-family="Helvetica,sans-Serif" font-size="10.00">it.unitn.healthcore.domain.</text>
<text text-anchor="middle" x="306" y="-56.5" font-family="Helvetica,sans-Serif" font-size="10.00">Doctor.getSpecialization</text>
</a>
</g>
</g>
<!-- Node1&#45;&gt;Node10 -->
<g id="edge9" class="edge">
<title>Node1&#45;&gt;Node10</title>
<path fill="none" stroke="midnightblue" d="M107.15,-220.32C126.63,-190.85 173.56,-125.64 229,-89.5 232.09,-87.49 235.36,-85.62 238.73,-83.89"/>
<polygon fill="midnightblue" stroke="midnightblue" points="240.28,-87.04 247.87,-79.64 237.32,-80.69 240.28,-87.04"/>
</g>
<!-- Node11 -->
<g id="node11" class="node">
<title>Node11</title>
<g id="a_node11"><a xlink:href="classit_1_1unitn_1_1healthcore_1_1domain_1_1User.html#a1e52a76c1ad5fb44fe9c312e11203c9e" target="_top" xlink:title="Returns the last name of the user.">
<polygon fill="white" stroke="black" points="231.5,-0.5 231.5,-30.5 380.5,-30.5 380.5,-0.5 231.5,-0.5"/>
<text text-anchor="start" x="239.5" y="-18.5" font-family="Helvetica,sans-Serif" font-size="10.00">it.unitn.healthcore.domain.</text>
<text text-anchor="middle" x="306" y="-7.5" font-family="Helvetica,sans-Serif" font-size="10.00">User.getSurname</text>
</a>
</g>
</g>
<!-- Node1&#45;&gt;Node11 -->
<g id="edge10" class="edge">
<title>Node1&#45;&gt;Node11</title>
<path fill="none" stroke="midnightblue" d="M103.57,-220.32C118.94,-183.82 162.89,-90.51 229,-40.5 231.47,-38.63 234.08,-36.9 236.8,-35.3"/>
<polygon fill="midnightblue" stroke="midnightblue" points="238.54,-38.33 245.77,-30.59 235.29,-32.14 238.54,-38.33"/>
</g>
</g>
</svg>
