<?xml version="1.0" encoding="UTF-8" standalone="no"?>
<!DOCTYPE svg PUBLIC "-//W3C//DTD SVG 1.1//EN"
 "http://www.w3.org/Graphics/SVG/1.1/DTD/svg11.dtd">
<!-- Generated by graphviz version 2.43.0 (0)
 -->
<!-- Title: it.unitn.healthcore.business.UserService.registerEmployee Pages: 1 -->
<svg width="670pt" height="394pt"
 viewBox="0.00 0.00 670.00 393.50" xmlns="http://www.w3.org/2000/svg" xmlns:xlink="http://www.w3.org/1999/xlink">
<g id="graph0" class="graph" transform="scale(1 1) rotate(0) translate(4 389.5)">
<title>it.unitn.healthcore.business.UserService.registerEmployee</title>
<polygon fill="white" stroke="transparent" points="-4,4 -4,-389.5 666,-389.5 666,4 -4,4"/>
<!-- Node1 -->
<g id="node1" class="node">
<title>Node1</title>
<g id="a_node1"><a xlink:title="Registers a new employee (doctor or administrator) in the system.">
<polygon fill="#bfbfbf" stroke="black" points="0,-266.5 0,-296.5 164,-296.5 164,-266.5 0,-266.5"/>
<text text-anchor="start" x="8" y="-284.5" font-family="Helvetica,sans-Serif" font-size="10.00">it.unitn.healthcore.business.</text>
<text text-anchor="middle" x="82" y="-273.5" font-family="Helvetica,sans-Serif" font-size="10.00">UserService.registerEmployee</text>
</a>
</g>
</g>
<!-- Node2 -->
<g id="node2" class="node">
<title>Node2</title>
<g id="a_node2"><a xlink:href="classit_1_1unitn_1_1healthcore_1_1domain_1_1EmployeeRegistrationForm.html#a2cddb295abb33e4d48081a4b179d0928" target="_top" xlink:title="Role getter.">
<polygon fill="white" stroke="black" points="200,-349.5 200,-379.5 390,-379.5 390,-349.5 200,-349.5"/>
<text text-anchor="start" x="208" y="-367.5" font-family="Helvetica,sans-Serif" font-size="10.00">it.unitn.healthcore.domain.</text>
<text text-anchor="middle" x="295" y="-356.5" font-family="Helvetica,sans-Serif" font-size="10.00">EmployeeRegistrationForm.getRole</text>
</a>
</g>
</g>
<!-- Node1&#45;&gt;Node2 -->
<g id="edge1" class="edge">
<title>Node1&#45;&gt;Node2</title>
<path fill="none" stroke="midnightblue" d="M109.73,-296.68C133.01,-309.43 167.96,-327.44 200,-339.5 206.68,-342.02 213.72,-344.38 220.82,-346.58"/>
<polygon fill="midnightblue" stroke="midnightblue" points="219.92,-349.96 230.5,-349.47 221.92,-343.26 219.92,-349.96"/>
</g>
<!-- Node3 -->
<g id="node3" class="node">
<title>Node3</title>
<g id="a_node3"><a xlink:href="classit_1_1unitn_1_1healthcore_1_1domain_1_1PasswordConfirmationForm.html#a181a1ca7ab3c4d07cb7f3817c1de6974" target="_top" xlink:title="Validates the password confirmation form by checking if the password and confirmation match,...">
<polygon fill="white" stroke="black" points="202.5,-289 202.5,-330 387.5,-330 387.5,-289 202.5,-289"/>
<text text-anchor="start" x="210.5" y="-318" font-family="Helvetica,sans-Serif" font-size="10.00">it.unitn.healthcore.domain.</text>
<text text-anchor="start" x="210.5" y="-307" font-family="Helvetica,sans-Serif" font-size="10.00">PasswordConfirmationForm.isValid</text>
<text text-anchor="middle" x="295" y="-296" font-family="Helvetica,sans-Serif" font-size="10.00">PasswordForm</text>
</a>
</g>
</g>
<!-- Node1&#45;&gt;Node3 -->
<g id="edge2" class="edge">
<title>Node1&#45;&gt;Node3</title>
<path fill="none" stroke="midnightblue" d="M164.28,-292.29C173.4,-293.5 182.78,-294.74 192.12,-295.98"/>
<polygon fill="midnightblue" stroke="midnightblue" points="191.85,-299.48 202.22,-297.32 192.77,-292.54 191.85,-299.48"/>
</g>
<!-- Node6 -->
<g id="node6" class="node">
<title>Node6</title>
<g id="a_node6"><a xlink:href="classit_1_1unitn_1_1healthcore_1_1business_1_1UserService.html#aebfef6bf9480fb24956dba8b10232d2f" target="_top" xlink:title="Registers a new administrator in the system.">
<polygon fill="white" stroke="black" points="204,-239.5 204,-269.5 386,-269.5 386,-239.5 204,-239.5"/>
<text text-anchor="start" x="212" y="-257.5" font-family="Helvetica,sans-Serif" font-size="10.00">it.unitn.healthcore.business.</text>
<text text-anchor="middle" x="295" y="-246.5" font-family="Helvetica,sans-Serif" font-size="10.00">UserService.registerAdministrator</text>
</a>
</g>
</g>
<!-- Node1&#45;&gt;Node6 -->
<g id="edge5" class="edge">
<title>Node1&#45;&gt;Node6</title>
<path fill="none" stroke="midnightblue" d="M164.28,-271.1C174.03,-269.85 184.07,-268.57 194.05,-267.29"/>
<polygon fill="midnightblue" stroke="midnightblue" points="194.52,-270.76 203.99,-266.02 193.63,-263.82 194.52,-270.76"/>
</g>
<!-- Node10 -->
<g id="node10" class="node">
<title>Node10</title>
<g id="a_node10"><a xlink:href="classit_1_1unitn_1_1healthcore_1_1business_1_1UserService.html#af71b0f13c31c938efe9fce54ab3d7f7d" target="_top" xlink:title="Registers a new doctor in the system.">
<polygon fill="white" stroke="black" points="217.5,-169.5 217.5,-199.5 372.5,-199.5 372.5,-169.5 217.5,-169.5"/>
<text text-anchor="start" x="225.5" y="-187.5" font-family="Helvetica,sans-Serif" font-size="10.00">it.unitn.healthcore.business.</text>
<text text-anchor="middle" x="295" y="-176.5" font-family="Helvetica,sans-Serif" font-size="10.00">UserService.registerDoctor</text>
</a>
</g>
</g>
<!-- Node1&#45;&gt;Node10 -->
<g id="edge10" class="edge">
<title>Node1&#45;&gt;Node10</title>
<path fill="none" stroke="midnightblue" d="M115.97,-266.34C152.67,-249.47 212.06,-222.17 252.04,-203.79"/>
<polygon fill="midnightblue" stroke="midnightblue" points="253.64,-206.91 261.26,-199.55 250.71,-200.55 253.64,-206.91"/>
</g>
<!-- Node4 -->
<g id="node4" class="node">
<title>Node4</title>
<g id="a_node4"><a xlink:href="classit_1_1unitn_1_1healthcore_1_1domain_1_1PasswordConfirmationForm.html#aa7de23a583db33eba13ddecad973ceca" target="_top" xlink:title="Password getter.">
<polygon fill="white" stroke="black" points="436.5,-294.5 436.5,-324.5 651.5,-324.5 651.5,-294.5 436.5,-294.5"/>
<text text-anchor="start" x="444.5" y="-312.5" font-family="Helvetica,sans-Serif" font-size="10.00">it.unitn.healthcore.domain.</text>
<text text-anchor="middle" x="544" y="-301.5" font-family="Helvetica,sans-Serif" font-size="10.00">PasswordConfirmationForm.getPassword</text>
</a>
</g>
</g>
<!-- Node3&#45;&gt;Node4 -->
<g id="edge3" class="edge">
<title>Node3&#45;&gt;Node4</title>
<path fill="none" stroke="midnightblue" d="M387.62,-309.5C400.08,-309.5 413,-309.5 425.84,-309.5"/>
<polygon fill="midnightblue" stroke="midnightblue" points="426.1,-313 436.1,-309.5 426.1,-306 426.1,-313"/>
</g>
<!-- Node5 -->
<g id="node5" class="node">
<title>Node5</title>
<g id="a_node5"><a xlink:href="classit_1_1unitn_1_1healthcore_1_1domain_1_1PasswordConfirmationForm.html#add77c52ff85c3a8caefe02af899fe10b" target="_top" xlink:title="Password confirmation getter.">
<polygon fill="white" stroke="black" points="436.5,-344 436.5,-385 651.5,-385 651.5,-344 436.5,-344"/>
<text text-anchor="start" x="444.5" y="-373" font-family="Helvetica,sans-Serif" font-size="10.00">it.unitn.healthcore.domain.</text>
<text text-anchor="start" x="444.5" y="-362" font-family="Helvetica,sans-Serif" font-size="10.00">PasswordConfirmationForm.getPassword</text>
<text text-anchor="middle" x="544" y="-351" font-family="Helvetica,sans-Serif" font-size="10.00">Confirmation</text>
</a>
</g>
</g>
<!-- Node3&#45;&gt;Node5 -->
<g id="edge4" class="edge">
<title>Node3&#45;&gt;Node5</title>
<path fill="none" stroke="midnightblue" d="M387.62,-329.9C404.84,-333.74 422.94,-337.77 440.46,-341.67"/>
<polygon fill="midnightblue" stroke="midnightblue" points="440.18,-345.19 450.7,-343.95 441.7,-338.36 440.18,-345.19"/>
</g>
<!-- Node6&#45;&gt;Node4 -->
<g id="edge8" class="edge">
<title>Node6&#45;&gt;Node4</title>
<path fill="none" stroke="midnightblue" d="M357.41,-269.57C379.05,-274.76 403.57,-280.53 426,-285.5 436.38,-287.8 447.3,-290.15 458.13,-292.42"/>
<polygon fill="midnightblue" stroke="midnightblue" points="457.52,-295.87 468.03,-294.49 458.95,-289.02 457.52,-295.87"/>
</g>
<!-- Node7 -->
<g id="node7" class="node">
<title>Node7</title>
<g id="a_node7"><a xlink:href="classit_1_1unitn_1_1healthcore_1_1domain_1_1PasswordConfirmationForm.html#ad2a321af868704e56c42d5306a8acd91" target="_top" xlink:title="Email getter.">
<polygon fill="white" stroke="black" points="445.5,-245.5 445.5,-275.5 642.5,-275.5 642.5,-245.5 445.5,-245.5"/>
<text text-anchor="start" x="453.5" y="-263.5" font-family="Helvetica,sans-Serif" font-size="10.00">it.unitn.healthcore.domain.</text>
<text text-anchor="middle" x="544" y="-252.5" font-family="Helvetica,sans-Serif" font-size="10.00">PasswordConfirmationForm.getEmail</text>
</a>
</g>
</g>
<!-- Node6&#45;&gt;Node7 -->
<g id="edge6" class="edge">
<title>Node6&#45;&gt;Node7</title>
<path fill="none" stroke="midnightblue" d="M386.22,-256.69C402.08,-257.08 418.74,-257.48 435.03,-257.88"/>
<polygon fill="midnightblue" stroke="midnightblue" points="435.03,-261.38 445.11,-258.12 435.2,-254.38 435.03,-261.38"/>
</g>
<!-- Node8 -->
<g id="node8" class="node">
<title>Node8</title>
<g id="a_node8"><a xlink:href="classit_1_1unitn_1_1healthcore_1_1domain_1_1EmployeeRegistrationForm.html#ae00ab1333401d899f6e010a99e5afec8" target="_top" xlink:title="Name getter.">
<polygon fill="white" stroke="black" points="445.5,-196.5 445.5,-226.5 642.5,-226.5 642.5,-196.5 445.5,-196.5"/>
<text text-anchor="start" x="453.5" y="-214.5" font-family="Helvetica,sans-Serif" font-size="10.00">it.unitn.healthcore.domain.</text>
<text text-anchor="middle" x="544" y="-203.5" font-family="Helvetica,sans-Serif" font-size="10.00">EmployeeRegistrationForm.getName</text>
</a>
</g>
</g>
<!-- Node6&#45;&gt;Node8 -->
<g id="edge7" class="edge">
<title>Node6&#45;&gt;Node8</title>
<path fill="none" stroke="midnightblue" d="M382.39,-239.46C403.17,-235.84 425.49,-231.96 446.68,-228.27"/>
<polygon fill="midnightblue" stroke="midnightblue" points="447.41,-231.69 456.66,-226.53 446.21,-224.8 447.41,-231.69"/>
</g>
<!-- Node9 -->
<g id="node9" class="node">
<title>Node9</title>
<g id="a_node9"><a xlink:href="classit_1_1unitn_1_1healthcore_1_1domain_1_1EmployeeRegistrationForm.html#af1804bfdb0eb5dd711f6344f6c7e420c" target="_top" xlink:title="Surname getter.">
<polygon fill="white" stroke="black" points="438,-147.5 438,-177.5 650,-177.5 650,-147.5 438,-147.5"/>
<text text-anchor="start" x="446" y="-165.5" font-family="Helvetica,sans-Serif" font-size="10.00">it.unitn.healthcore.domain.</text>
<text text-anchor="middle" x="544" y="-154.5" font-family="Helvetica,sans-Serif" font-size="10.00">EmployeeRegistrationForm.getSurname</text>
</a>
</g>
</g>
<!-- Node6&#45;&gt;Node9 -->
<g id="edge9" class="edge">
<title>Node6&#45;&gt;Node9</title>
<path fill="none" stroke="midnightblue" d="M329.48,-239.49C347.61,-231.1 370.28,-220.21 390,-209.5 406.48,-200.55 408.58,-194.45 426,-187.5 432.63,-184.85 439.59,-182.47 446.67,-180.32"/>
<polygon fill="midnightblue" stroke="midnightblue" points="447.74,-183.66 456.39,-177.54 445.81,-176.93 447.74,-183.66"/>
</g>
<!-- Node10&#45;&gt;Node4 -->
<g id="edge15" class="edge">
<title>Node10&#45;&gt;Node4</title>
<path fill="none" stroke="midnightblue" d="M338.7,-199.62C355.91,-207.11 375.15,-217.39 390,-230.5 411.9,-249.83 401.83,-269.08 426,-285.5 428.29,-287.06 430.66,-288.52 433.1,-289.89"/>
<polygon fill="midnightblue" stroke="midnightblue" points="431.68,-293.09 442.19,-294.46 434.82,-286.84 431.68,-293.09"/>
</g>
<!-- Node10&#45;&gt;Node7 -->
<g id="edge13" class="edge">
<title>Node10&#45;&gt;Node7</title>
<path fill="none" stroke="midnightblue" d="M328.82,-199.52C354.76,-210.93 392.12,-226.34 426,-236.5 433.92,-238.88 442.22,-241.1 450.58,-243.15"/>
<polygon fill="midnightblue" stroke="midnightblue" points="449.86,-246.57 460.4,-245.48 451.48,-239.76 449.86,-246.57"/>
</g>
<!-- Node10&#45;&gt;Node8 -->
<g id="edge14" class="edge">
<title>Node10&#45;&gt;Node8</title>
<path fill="none" stroke="midnightblue" d="M372.8,-192.89C392.6,-195.06 414.29,-197.43 435.35,-199.73"/>
<polygon fill="midnightblue" stroke="midnightblue" points="434.97,-203.21 445.3,-200.82 435.74,-196.25 434.97,-203.21"/>
</g>
<!-- Node10&#45;&gt;Node9 -->
<g id="edge16" class="edge">
<title>Node10&#45;&gt;Node9</title>
<path fill="none" stroke="midnightblue" d="M372.8,-177.66C390.2,-176.11 409.06,-174.43 427.67,-172.77"/>
<polygon fill="midnightblue" stroke="midnightblue" points="428.02,-176.26 437.67,-171.88 427.4,-169.28 428.02,-176.26"/>
</g>
<!-- Node11 -->
<g id="node11" class="node">
<title>Node11</title>
<g id="a_node11"><a xlink:href="classit_1_1unitn_1_1healthcore_1_1domain_1_1EmployeeRegistrationForm.html#aacda9ff32f2f6c240f9f1ce7a746839a" target="_top" xlink:title="Department ID getter.">
<polygon fill="white" stroke="black" points="426,-98.5 426,-128.5 662,-128.5 662,-98.5 426,-98.5"/>
<text text-anchor="start" x="434" y="-116.5" font-family="Helvetica,sans-Serif" font-size="10.00">it.unitn.healthcore.domain.</text>
<text text-anchor="middle" x="544" y="-105.5" font-family="Helvetica,sans-Serif" font-size="10.00">EmployeeRegistrationForm.getDepartmentId</text>
</a>
</g>
</g>
<!-- Node10&#45;&gt;Node11 -->
<g id="edge11" class="edge">
<title>Node10&#45;&gt;Node11</title>
<path fill="none" stroke="midnightblue" d="M334.26,-169.49C359.94,-159.78 394.67,-147.35 426,-138.5 435.52,-135.81 445.55,-133.26 455.56,-130.88"/>
<polygon fill="midnightblue" stroke="midnightblue" points="456.6,-134.23 465.56,-128.57 455.02,-127.41 456.6,-134.23"/>
</g>
<!-- Node12 -->
<g id="node12" class="node">
<title>Node12</title>
<g id="a_node12"><a xlink:href="classit_1_1unitn_1_1healthcore_1_1domain_1_1Department.html#ad38ac8809036af86857a94672fd341e0" target="_top" xlink:title=" ">
<polygon fill="white" stroke="black" points="469.5,-49.5 469.5,-79.5 618.5,-79.5 618.5,-49.5 469.5,-49.5"/>
<text text-anchor="start" x="477.5" y="-67.5" font-family="Helvetica,sans-Serif" font-size="10.00">it.unitn.healthcore.domain.</text>
<text text-anchor="middle" x="544" y="-56.5" font-family="Helvetica,sans-Serif" font-size="10.00">Department.getDoctors</text>
</a>
</g>
</g>
<!-- Node10&#45;&gt;Node12 -->
<g id="edge12" class="edge">
<title>Node10&#45;&gt;Node12</title>
<path fill="none" stroke="midnightblue" d="M311.81,-169.43C334.97,-148.24 380.33,-109.94 426,-89.5 436.59,-84.76 448.13,-80.9 459.7,-77.76"/>
<polygon fill="midnightblue" stroke="midnightblue" points="460.58,-81.15 469.41,-75.29 458.85,-74.36 460.58,-81.15"/>
</g>
<!-- Node13 -->
<g id="node13" class="node">
<title>Node13</title>
<g id="a_node13"><a xlink:href="classit_1_1unitn_1_1healthcore_1_1domain_1_1Department.html#adb4a544815968649e801e2182b7069f0" target="_top" xlink:title="Returns the total staff positions within the department.">
<polygon fill="white" stroke="black" points="452,-0.5 452,-30.5 636,-30.5 636,-0.5 452,-0.5"/>
<text text-anchor="start" x="460" y="-18.5" font-family="Helvetica,sans-Serif" font-size="10.00">it.unitn.healthcore.domain.</text>
<text text-anchor="middle" x="544" y="-7.5" font-family="Helvetica,sans-Serif" font-size="10.00">Department.getTotalStaffPositions</text>
</a>
</g>
</g>
<!-- Node10&#45;&gt;Node13 -->
<g id="edge17" class="edge">
<title>Node10&#45;&gt;Node13</title>
<path fill="none" stroke="midnightblue" d="M304.89,-169.32C323.32,-139.27 368.82,-72.32 426,-39.5 431.13,-36.56 436.56,-33.97 442.17,-31.7"/>
<polygon fill="midnightblue" stroke="midnightblue" points="443.59,-34.91 451.76,-28.17 441.17,-28.34 443.59,-34.91"/>
</g>
</g>
</svg>
