<?xml version="1.0" encoding="UTF-8" standalone="no"?>
<!DOCTYPE svg PUBLIC "-//W3C//DTD SVG 1.1//EN"
 "http://www.w3.org/Graphics/SVG/1.1/DTD/svg11.dtd">
<!-- Generated by graphviz version 2.43.0 (0)
 -->
<!-- Title: it.unitn.healthcore.business.AppointmentService.getAppointmentDetails Pages: 1 -->
<svg width="627pt" height="333pt"
 viewBox="0.00 0.00 627.00 333.00" xmlns="http://www.w3.org/2000/svg" xmlns:xlink="http://www.w3.org/1999/xlink">
<g id="graph0" class="graph" transform="scale(1 1) rotate(0) translate(4 329)">
<title>it.unitn.healthcore.business.AppointmentService.getAppointmentDetails</title>
<polygon fill="white" stroke="transparent" points="-4,4 -4,-329 623,-329 623,4 -4,4"/>
<!-- Node1 -->
<g id="node1" class="node">
<title>Node1</title>
<g id="a_node1"><a xlink:title="Retrieves detailed information about a specific appointment based on the appointment ID.">
<polygon fill="#bfbfbf" stroke="black" points="0,-142 0,-183 197,-183 197,-142 0,-142"/>
<text text-anchor="start" x="8" y="-171" font-family="Helvetica,sans-Serif" font-size="10.00">it.unitn.healthcore.business.</text>
<text text-anchor="start" x="8" y="-160" font-family="Helvetica,sans-Serif" font-size="10.00">AppointmentService.getAppointment</text>
<text text-anchor="middle" x="98.5" y="-149" font-family="Helvetica,sans-Serif" font-size="10.00">Details</text>
</a>
</g>
</g>
<!-- Node2 -->
<g id="node2" class="node">
<title>Node2</title>
<g id="a_node2"><a xlink:href="classit_1_1unitn_1_1healthcore_1_1domain_1_1Appointment.html#ae8a397335e77fdd3ab2a12667c862b30" target="_top" xlink:title="Returns the appointment ID.">
<polygon fill="white" stroke="black" points="233,-294.5 233,-324.5 403,-324.5 403,-294.5 233,-294.5"/>
<text text-anchor="start" x="241" y="-312.5" font-family="Helvetica,sans-Serif" font-size="10.00">it.unitn.healthcore.domain.</text>
<text text-anchor="middle" x="318" y="-301.5" font-family="Helvetica,sans-Serif" font-size="10.00">Appointment.getAppointmentId</text>
</a>
</g>
</g>
<!-- Node1&#45;&gt;Node2 -->
<g id="edge1" class="edge">
<title>Node1&#45;&gt;Node2</title>
<path fill="none" stroke="midnightblue" d="M116.29,-183.08C139.67,-210.4 184.63,-258.36 233,-285.5 236.23,-287.31 239.61,-289 243.08,-290.57"/>
<polygon fill="midnightblue" stroke="midnightblue" points="241.87,-293.85 252.44,-294.44 244.54,-287.38 241.87,-293.85"/>
</g>
<!-- Node3 -->
<g id="node3" class="node">
<title>Node3</title>
<g id="a_node3"><a xlink:href="classit_1_1unitn_1_1healthcore_1_1business_1_1UserService.html#a33213d05bfda4e7384e17b18332d4bb5" target="_top" xlink:title="Retrieves the currently authenticated user from the database.">
<polygon fill="white" stroke="black" points="240.5,-245.5 240.5,-275.5 395.5,-275.5 395.5,-245.5 240.5,-245.5"/>
<text text-anchor="start" x="248.5" y="-263.5" font-family="Helvetica,sans-Serif" font-size="10.00">it.unitn.healthcore.business.</text>
<text text-anchor="middle" x="318" y="-252.5" font-family="Helvetica,sans-Serif" font-size="10.00">UserService.getCurrentUser</text>
</a>
</g>
</g>
<!-- Node1&#45;&gt;Node3 -->
<g id="edge2" class="edge">
<title>Node1&#45;&gt;Node3</title>
<path fill="none" stroke="midnightblue" d="M131.65,-183.06C158.07,-199.27 196.88,-221.56 233,-236.5 237.78,-238.48 242.78,-240.36 247.86,-242.12"/>
<polygon fill="midnightblue" stroke="midnightblue" points="247.08,-245.55 257.67,-245.39 249.29,-238.91 247.08,-245.55"/>
</g>
<!-- Node6 -->
<g id="node6" class="node">
<title>Node6</title>
<g id="a_node6"><a xlink:href="classit_1_1unitn_1_1healthcore_1_1domain_1_1Appointment.html#a5e3d223030b1b23d4a2dfab94d5b4ef2" target="_top" xlink:title="Returns the doctor conducting the appointment.">
<polygon fill="white" stroke="black" points="243.5,-196.5 243.5,-226.5 392.5,-226.5 392.5,-196.5 243.5,-196.5"/>
<text text-anchor="start" x="251.5" y="-214.5" font-family="Helvetica,sans-Serif" font-size="10.00">it.unitn.healthcore.domain.</text>
<text text-anchor="middle" x="318" y="-203.5" font-family="Helvetica,sans-Serif" font-size="10.00">Appointment.getDoctor</text>
</a>
</g>
</g>
<!-- Node1&#45;&gt;Node6 -->
<g id="edge5" class="edge">
<title>Node1&#45;&gt;Node6</title>
<path fill="none" stroke="midnightblue" d="M190.79,-183.07C207.35,-186.8 224.47,-190.65 240.54,-194.28"/>
<polygon fill="midnightblue" stroke="midnightblue" points="239.88,-197.71 250.41,-196.5 241.42,-190.88 239.88,-197.71"/>
</g>
<!-- Node7 -->
<g id="node7" class="node">
<title>Node7</title>
<g id="a_node7"><a xlink:href="classit_1_1unitn_1_1healthcore_1_1domain_1_1Appointment.html#a6adf9242cb006af27dd5ed15fdf82450" target="_top" xlink:title="Returns the end date and time of the appointment.">
<polygon fill="white" stroke="black" points="243.5,-147.5 243.5,-177.5 392.5,-177.5 392.5,-147.5 243.5,-147.5"/>
<text text-anchor="start" x="251.5" y="-165.5" font-family="Helvetica,sans-Serif" font-size="10.00">it.unitn.healthcore.domain.</text>
<text text-anchor="middle" x="318" y="-154.5" font-family="Helvetica,sans-Serif" font-size="10.00">Appointment.getEndTime</text>
</a>
</g>
</g>
<!-- Node1&#45;&gt;Node7 -->
<g id="edge6" class="edge">
<title>Node1&#45;&gt;Node7</title>
<path fill="none" stroke="midnightblue" d="M197.12,-162.5C209.17,-162.5 221.41,-162.5 233.23,-162.5"/>
<polygon fill="midnightblue" stroke="midnightblue" points="233.5,-166 243.5,-162.5 233.5,-159 233.5,-166"/>
</g>
<!-- Node8 -->
<g id="node8" class="node">
<title>Node8</title>
<g id="a_node8"><a xlink:href="classit_1_1unitn_1_1healthcore_1_1domain_1_1User.html#af8206b66c08446d8c3cb7e16b825a794" target="_top" xlink:title="Returns a string representation of the User.">
<polygon fill="white" stroke="black" points="243.5,-98.5 243.5,-128.5 392.5,-128.5 392.5,-98.5 243.5,-98.5"/>
<text text-anchor="start" x="251.5" y="-116.5" font-family="Helvetica,sans-Serif" font-size="10.00">it.unitn.healthcore.domain.</text>
<text text-anchor="middle" x="318" y="-105.5" font-family="Helvetica,sans-Serif" font-size="10.00">User.getId</text>
</a>
</g>
</g>
<!-- Node1&#45;&gt;Node8 -->
<g id="edge7" class="edge">
<title>Node1&#45;&gt;Node8</title>
<path fill="none" stroke="midnightblue" d="M190.79,-141.93C207.35,-138.2 224.47,-134.35 240.54,-130.72"/>
<polygon fill="midnightblue" stroke="midnightblue" points="241.42,-134.12 250.41,-128.5 239.88,-127.29 241.42,-134.12"/>
</g>
<!-- Node9 -->
<g id="node9" class="node">
<title>Node9</title>
<g id="a_node9"><a xlink:href="classit_1_1unitn_1_1healthcore_1_1domain_1_1Appointment.html#a60f84ee45966ebeed37981dffe94c8ad" target="_top" xlink:title="Returns the patient associated with the appointment.">
<polygon fill="white" stroke="black" points="243.5,-49.5 243.5,-79.5 392.5,-79.5 392.5,-49.5 243.5,-49.5"/>
<text text-anchor="start" x="251.5" y="-67.5" font-family="Helvetica,sans-Serif" font-size="10.00">it.unitn.healthcore.domain.</text>
<text text-anchor="middle" x="318" y="-56.5" font-family="Helvetica,sans-Serif" font-size="10.00">Appointment.getPatient</text>
</a>
</g>
</g>
<!-- Node1&#45;&gt;Node9 -->
<g id="edge8" class="edge">
<title>Node1&#45;&gt;Node9</title>
<path fill="none" stroke="midnightblue" d="M132.54,-141.87C158.98,-125.99 197.4,-104.34 233,-89.5 238.71,-87.12 244.73,-84.86 250.82,-82.75"/>
<polygon fill="midnightblue" stroke="midnightblue" points="252.02,-86.04 260.4,-79.56 249.8,-79.4 252.02,-86.04"/>
</g>
<!-- Node10 -->
<g id="node10" class="node">
<title>Node10</title>
<g id="a_node10"><a xlink:href="classit_1_1unitn_1_1healthcore_1_1domain_1_1Appointment.html#a9bd30e2d1b2e4de743b3e83b9cc50eb4" target="_top" xlink:title="Returns the start date and time of the appointment.">
<polygon fill="white" stroke="black" points="243.5,-0.5 243.5,-30.5 392.5,-30.5 392.5,-0.5 243.5,-0.5"/>
<text text-anchor="start" x="251.5" y="-18.5" font-family="Helvetica,sans-Serif" font-size="10.00">it.unitn.healthcore.domain.</text>
<text text-anchor="middle" x="318" y="-7.5" font-family="Helvetica,sans-Serif" font-size="10.00">Appointment.getStartTime</text>
</a>
</g>
</g>
<!-- Node1&#45;&gt;Node10 -->
<g id="edge9" class="edge">
<title>Node1&#45;&gt;Node10</title>
<path fill="none" stroke="midnightblue" d="M116.77,-141.71C140.35,-114.63 185.18,-67.56 233,-40.5 236.9,-38.29 241.02,-36.26 245.26,-34.39"/>
<polygon fill="midnightblue" stroke="midnightblue" points="246.72,-37.58 254.67,-30.57 244.08,-31.09 246.72,-37.58"/>
</g>
<!-- Node4 -->
<g id="node4" class="node">
<title>Node4</title>
<g id="a_node4"><a xlink:href="interfaceit_1_1unitn_1_1healthcore_1_1persistence_1_1UserRepository.html#a6a646ae44d01189ff44c81c03fc92fa8" target="_top" xlink:title=" ">
<polygon fill="white" stroke="black" points="442,-269.5 442,-299.5 616,-299.5 616,-269.5 442,-269.5"/>
<text text-anchor="start" x="450" y="-287.5" font-family="Helvetica,sans-Serif" font-size="10.00">it.unitn.healthcore.persistence.</text>
<text text-anchor="middle" x="529" y="-276.5" font-family="Helvetica,sans-Serif" font-size="10.00">UserRepository.findUserByEmail</text>
</a>
</g>
</g>
<!-- Node3&#45;&gt;Node4 -->
<g id="edge3" class="edge">
<title>Node3&#45;&gt;Node4</title>
<path fill="none" stroke="midnightblue" d="M395.64,-269.3C407.38,-270.65 419.63,-272.06 431.72,-273.44"/>
<polygon fill="midnightblue" stroke="midnightblue" points="431.51,-276.94 441.84,-274.61 432.3,-269.99 431.51,-276.94"/>
</g>
<!-- Node5 -->
<g id="node5" class="node">
<title>Node5</title>
<g id="a_node5"><a xlink:href="classit_1_1unitn_1_1healthcore_1_1business_1_1UserService.html#a703ed9778e3ac6cd9741220089b5f48d" target="_top" xlink:title="Retrieves the email of the currently authenticated user.">
<polygon fill="white" stroke="black" points="439,-220.5 439,-250.5 619,-250.5 619,-220.5 439,-220.5"/>
<text text-anchor="start" x="447" y="-238.5" font-family="Helvetica,sans-Serif" font-size="10.00">it.unitn.healthcore.business.</text>
<text text-anchor="middle" x="529" y="-227.5" font-family="Helvetica,sans-Serif" font-size="10.00">UserService.getCurrentUserEmail</text>
</a>
</g>
</g>
<!-- Node3&#45;&gt;Node5 -->
<g id="edge4" class="edge">
<title>Node3&#45;&gt;Node5</title>
<path fill="none" stroke="midnightblue" d="M395.64,-251.33C406.43,-250.04 417.65,-248.7 428.79,-247.37"/>
<polygon fill="midnightblue" stroke="midnightblue" points="429.47,-250.81 438.98,-246.15 428.64,-243.86 429.47,-250.81"/>
</g>
</g>
</svg>
