<?xml version="1.0" encoding="UTF-8" standalone="no"?>
<!DOCTYPE svg PUBLIC "-//W3C//DTD SVG 1.1//EN"
 "http://www.w3.org/Graphics/SVG/1.1/DTD/svg11.dtd">
<!-- Generated by graphviz version 2.43.0 (0)
 -->
<!-- Title: it.unitn.healthcore.domain.Doctor.getAppointmentPrice Pages: 1 -->
<svg width="631pt" height="39pt"
 viewBox="0.00 0.00 631.00 39.00" xmlns="http://www.w3.org/2000/svg" xmlns:xlink="http://www.w3.org/1999/xlink">
<g id="graph0" class="graph" transform="scale(1 1) rotate(0) translate(4 35)">
<title>it.unitn.healthcore.domain.Doctor.getAppointmentPrice</title>
<polygon fill="white" stroke="transparent" points="-4,4 -4,-35 627,-35 627,4 -4,4"/>
<!-- Node1 -->
<g id="node1" class="node">
<title>Node1</title>
<g id="a_node1"><a xlink:title="Appointment price getter.">
<polygon fill="#bfbfbf" stroke="black" points="469,-0.5 469,-30.5 623,-30.5 623,-0.5 469,-0.5"/>
<text text-anchor="start" x="477" y="-18.5" font-family="Helvetica,sans-Serif" font-size="10.00">it.unitn.healthcore.domain.</text>
<text text-anchor="middle" x="546" y="-7.5" font-family="Helvetica,sans-Serif" font-size="10.00">Doctor.getAppointmentPrice</text>
</a>
</g>
</g>
<!-- Node2 -->
<g id="node2" class="node">
<title>Node2</title>
<g id="a_node2"><a xlink:href="classit_1_1unitn_1_1healthcore_1_1business_1_1PatientService.html#ab163cba2913666d9f4505d4b6e7e1a69" target="_top" xlink:title=" ">
<polygon fill="white" stroke="black" points="240,-0.5 240,-30.5 433,-30.5 433,-0.5 240,-0.5"/>
<text text-anchor="start" x="248" y="-18.5" font-family="Helvetica,sans-Serif" font-size="10.00">it.unitn.healthcore.business.</text>
<text text-anchor="middle" x="336.5" y="-7.5" font-family="Helvetica,sans-Serif" font-size="10.00">PatientService.getDoctorDescription</text>
</a>
</g>
</g>
<!-- Node1&#45;&gt;Node2 -->
<g id="edge1" class="edge">
<title>Node1&#45;&gt;Node2</title>
<path fill="none" stroke="midnightblue" d="M458.67,-15.5C450.2,-15.5 441.56,-15.5 433.01,-15.5"/>
<polygon fill="midnightblue" stroke="midnightblue" points="458.91,-19 468.91,-15.5 458.91,-12 458.91,-19"/>
</g>
<!-- Node3 -->
<g id="node3" class="node">
<title>Node3</title>
<g id="a_node3"><a xlink:href="classit_1_1unitn_1_1healthcore_1_1controller_1_1PatientController.html#aaf7a71336886e01fdc45116e44bf67db" target="_top" xlink:title=" ">
<polygon fill="white" stroke="black" points="0,-0.5 0,-30.5 204,-30.5 204,-0.5 0,-0.5"/>
<text text-anchor="start" x="8" y="-18.5" font-family="Helvetica,sans-Serif" font-size="10.00">it.unitn.healthcore.controller.</text>
<text text-anchor="middle" x="102" y="-7.5" font-family="Helvetica,sans-Serif" font-size="10.00">PatientController.getDoctorDescription</text>
</a>
</g>
</g>
<!-- Node2&#45;&gt;Node3 -->
<g id="edge2" class="edge">
<title>Node2&#45;&gt;Node3</title>
<path fill="none" stroke="midnightblue" d="M229.66,-15.5C221.2,-15.5 212.66,-15.5 204.23,-15.5"/>
<polygon fill="midnightblue" stroke="midnightblue" points="229.93,-19 239.93,-15.5 229.93,-12 229.93,-19"/>
</g>
</g>
</svg>
