<?xml version="1.0" encoding="UTF-8" standalone="no"?>
<!DOCTYPE svg PUBLIC "-//W3C//DTD SVG 1.1//EN"
 "http://www.w3.org/Graphics/SVG/1.1/DTD/svg11.dtd">
<!-- Generated by graphviz version 2.43.0 (0)
 -->
<!-- Title: it.unitn.healthcore.controller.UserController.addPatient Pages: 1 -->
<svg width="850pt" height="358pt"
 viewBox="0.00 0.00 850.00 358.00" xmlns="http://www.w3.org/2000/svg" xmlns:xlink="http://www.w3.org/1999/xlink">
<g id="graph0" class="graph" transform="scale(1 1) rotate(0) translate(4 354)">
<title>it.unitn.healthcore.controller.UserController.addPatient</title>
<polygon fill="white" stroke="transparent" points="-4,4 -4,-354 846,-354 846,4 -4,4"/>
<!-- Node1 -->
<g id="node1" class="node">
<title>Node1</title>
<g id="a_node1"><a xlink:title=" ">
<polygon fill="#bfbfbf" stroke="black" points="0,-149 0,-179 158,-179 158,-149 0,-149"/>
<text text-anchor="start" x="8" y="-167" font-family="Helvetica,sans-Serif" font-size="10.00">it.unitn.healthcore.controller.</text>
<text text-anchor="middle" x="79" y="-156" font-family="Helvetica,sans-Serif" font-size="10.00">UserController.addPatient</text>
</a>
</g>
</g>
<!-- Node2 -->
<g id="node2" class="node">
<title>Node2</title>
<g id="a_node2"><a xlink:href="classit_1_1unitn_1_1healthcore_1_1business_1_1UserService.html#a32dba226bff5fb3cd0caf79303b71d38" target="_top" xlink:title="Registers a new patient in the system.">
<polygon fill="white" stroke="black" points="194,-149 194,-179 349,-179 349,-149 194,-149"/>
<text text-anchor="start" x="202" y="-167" font-family="Helvetica,sans-Serif" font-size="10.00">it.unitn.healthcore.business.</text>
<text text-anchor="middle" x="271.5" y="-156" font-family="Helvetica,sans-Serif" font-size="10.00">UserService.registerPatient</text>
</a>
</g>
</g>
<!-- Node1&#45;&gt;Node2 -->
<g id="edge1" class="edge">
<title>Node1&#45;&gt;Node2</title>
<path fill="none" stroke="midnightblue" d="M158.03,-164C166.53,-164 175.21,-164 183.8,-164"/>
<polygon fill="midnightblue" stroke="midnightblue" points="183.82,-167.5 193.82,-164 183.82,-160.5 183.82,-167.5"/>
</g>
<!-- Node3 -->
<g id="node3" class="node">
<title>Node3</title>
<g id="a_node3"><a xlink:href="interfaceit_1_1unitn_1_1healthcore_1_1persistence_1_1PatientRepository.html#a320387b23f16ee948d66d932faa3991f" target="_top" xlink:title=" ">
<polygon fill="white" stroke="black" points="388,-308.5 388,-349.5 588,-349.5 588,-308.5 388,-308.5"/>
<text text-anchor="start" x="396" y="-337.5" font-family="Helvetica,sans-Serif" font-size="10.00">it.unitn.healthcore.persistence.</text>
<text text-anchor="start" x="396" y="-326.5" font-family="Helvetica,sans-Serif" font-size="10.00">PatientRepository.existsByHealthcare</text>
<text text-anchor="middle" x="488" y="-315.5" font-family="Helvetica,sans-Serif" font-size="10.00">CardNumber</text>
</a>
</g>
</g>
<!-- Node2&#45;&gt;Node3 -->
<g id="edge2" class="edge">
<title>Node2&#45;&gt;Node3</title>
<path fill="none" stroke="midnightblue" d="M280.9,-179.07C297.24,-206.99 336.04,-266.85 385,-299 387.62,-300.72 390.33,-302.34 393.12,-303.87"/>
<polygon fill="midnightblue" stroke="midnightblue" points="391.76,-307.1 402.27,-308.46 394.9,-300.85 391.76,-307.1"/>
</g>
<!-- Node4 -->
<g id="node4" class="node">
<title>Node4</title>
<g id="a_node4"><a xlink:href="classit_1_1unitn_1_1healthcore_1_1domain_1_1PasswordConfirmationForm.html#ad2a321af868704e56c42d5306a8acd91" target="_top" xlink:title="Email getter.">
<polygon fill="white" stroke="black" points="389.5,-259 389.5,-289 586.5,-289 586.5,-259 389.5,-259"/>
<text text-anchor="start" x="397.5" y="-277" font-family="Helvetica,sans-Serif" font-size="10.00">it.unitn.healthcore.domain.</text>
<text text-anchor="middle" x="488" y="-266" font-family="Helvetica,sans-Serif" font-size="10.00">PasswordConfirmationForm.getEmail</text>
</a>
</g>
</g>
<!-- Node2&#45;&gt;Node4 -->
<g id="edge3" class="edge">
<title>Node2&#45;&gt;Node4</title>
<path fill="none" stroke="midnightblue" d="M288.25,-179.28C308.82,-198.39 346.75,-230.82 385,-249 390.04,-251.4 395.34,-253.58 400.76,-255.56"/>
<polygon fill="midnightblue" stroke="midnightblue" points="400.01,-259.01 410.61,-258.92 402.27,-252.38 400.01,-259.01"/>
</g>
<!-- Node5 -->
<g id="node5" class="node">
<title>Node5</title>
<g id="a_node5"><a xlink:href="classit_1_1unitn_1_1healthcore_1_1domain_1_1PatientRegistrationForm.html#abc573cb3f03f7b2d2e0dd970c569df84" target="_top" xlink:title="Healthcare card number getter.">
<polygon fill="white" stroke="black" points="385,-198.5 385,-239.5 591,-239.5 591,-198.5 385,-198.5"/>
<text text-anchor="start" x="393" y="-227.5" font-family="Helvetica,sans-Serif" font-size="10.00">it.unitn.healthcore.domain.</text>
<text text-anchor="start" x="393" y="-216.5" font-family="Helvetica,sans-Serif" font-size="10.00">PatientRegistrationForm.getHealthcare</text>
<text text-anchor="middle" x="488" y="-205.5" font-family="Helvetica,sans-Serif" font-size="10.00">CardNumber</text>
</a>
</g>
</g>
<!-- Node2&#45;&gt;Node5 -->
<g id="edge4" class="edge">
<title>Node2&#45;&gt;Node5</title>
<path fill="none" stroke="midnightblue" d="M331.11,-179.03C351.43,-184.24 374.69,-190.2 396.95,-195.91"/>
<polygon fill="midnightblue" stroke="midnightblue" points="396.19,-199.33 406.75,-198.42 397.93,-192.55 396.19,-199.33"/>
</g>
<!-- Node6 -->
<g id="node6" class="node">
<title>Node6</title>
<g id="a_node6"><a xlink:href="classit_1_1unitn_1_1healthcore_1_1domain_1_1PatientRegistrationForm.html#a47e69a04762a7937f63f729aa52fbe7a" target="_top" xlink:title="Creates a PatientRegistrationForm with the specified details, without healthcare card number.">
<polygon fill="white" stroke="black" points="397,-149 397,-179 579,-179 579,-149 397,-149"/>
<text text-anchor="start" x="405" y="-167" font-family="Helvetica,sans-Serif" font-size="10.00">it.unitn.healthcore.domain.</text>
<text text-anchor="middle" x="488" y="-156" font-family="Helvetica,sans-Serif" font-size="10.00">PatientRegistrationForm.getName</text>
</a>
</g>
</g>
<!-- Node2&#45;&gt;Node6 -->
<g id="edge5" class="edge">
<title>Node2&#45;&gt;Node6</title>
<path fill="none" stroke="midnightblue" d="M349.03,-164C361.28,-164 374.11,-164 386.81,-164"/>
<polygon fill="midnightblue" stroke="midnightblue" points="386.95,-167.5 396.95,-164 386.95,-160.5 386.95,-167.5"/>
</g>
<!-- Node7 -->
<g id="node7" class="node">
<title>Node7</title>
<g id="a_node7"><a xlink:href="classit_1_1unitn_1_1healthcore_1_1domain_1_1PasswordConfirmationForm.html#aa7de23a583db33eba13ddecad973ceca" target="_top" xlink:title="Password getter.">
<polygon fill="white" stroke="black" points="627,-83 627,-113 842,-113 842,-83 627,-83"/>
<text text-anchor="start" x="635" y="-101" font-family="Helvetica,sans-Serif" font-size="10.00">it.unitn.healthcore.domain.</text>
<text text-anchor="middle" x="734.5" y="-90" font-family="Helvetica,sans-Serif" font-size="10.00">PasswordConfirmationForm.getPassword</text>
</a>
</g>
</g>
<!-- Node2&#45;&gt;Node7 -->
<g id="edge6" class="edge">
<title>Node2&#45;&gt;Node7</title>
<path fill="none" stroke="midnightblue" d="M338.04,-148.98C353.4,-145.75 369.73,-142.54 385,-140 461.76,-127.21 548.65,-116.73 616.47,-109.44"/>
<polygon fill="midnightblue" stroke="midnightblue" points="617.19,-112.88 626.76,-108.34 616.45,-105.92 617.19,-112.88"/>
</g>
<!-- Node8 -->
<g id="node8" class="node">
<title>Node8</title>
<g id="a_node8"><a xlink:href="classit_1_1unitn_1_1healthcore_1_1domain_1_1PatientRegistrationForm.html#a28bacda95e68eaf4665de2509652c6fe" target="_top" xlink:title="Surname getter.">
<polygon fill="white" stroke="black" points="389.5,-61 389.5,-91 586.5,-91 586.5,-61 389.5,-61"/>
<text text-anchor="start" x="397.5" y="-79" font-family="Helvetica,sans-Serif" font-size="10.00">it.unitn.healthcore.domain.</text>
<text text-anchor="middle" x="488" y="-68" font-family="Helvetica,sans-Serif" font-size="10.00">PatientRegistrationForm.getSurname</text>
</a>
</g>
</g>
<!-- Node2&#45;&gt;Node8 -->
<g id="edge7" class="edge">
<title>Node2&#45;&gt;Node8</title>
<path fill="none" stroke="midnightblue" d="M298.21,-148.96C320.59,-136.3 354.2,-118.34 385,-106 395.91,-101.63 407.7,-97.58 419.26,-93.96"/>
<polygon fill="midnightblue" stroke="midnightblue" points="420.35,-97.28 428.9,-91.02 418.31,-90.59 420.35,-97.28"/>
</g>
<!-- Node9 -->
<g id="node9" class="node">
<title>Node9</title>
<g id="a_node9"><a xlink:href="classit_1_1unitn_1_1healthcore_1_1domain_1_1PasswordConfirmationForm.html#a181a1ca7ab3c4d07cb7f3817c1de6974" target="_top" xlink:title="Validates the password confirmation form by checking if the password and confirmation match,...">
<polygon fill="white" stroke="black" points="395.5,-0.5 395.5,-41.5 580.5,-41.5 580.5,-0.5 395.5,-0.5"/>
<text text-anchor="start" x="403.5" y="-29.5" font-family="Helvetica,sans-Serif" font-size="10.00">it.unitn.healthcore.domain.</text>
<text text-anchor="start" x="403.5" y="-18.5" font-family="Helvetica,sans-Serif" font-size="10.00">PasswordConfirmationForm.isValid</text>
<text text-anchor="middle" x="488" y="-7.5" font-family="Helvetica,sans-Serif" font-size="10.00">PasswordForm</text>
</a>
</g>
</g>
<!-- Node2&#45;&gt;Node9 -->
<g id="edge8" class="edge">
<title>Node2&#45;&gt;Node9</title>
<path fill="none" stroke="midnightblue" d="M283.5,-148.79C301.84,-124.54 340.99,-77.19 385,-51 388.16,-49.12 391.45,-47.35 394.82,-45.69"/>
<polygon fill="midnightblue" stroke="midnightblue" points="396.29,-48.86 403.92,-41.52 393.37,-42.5 396.29,-48.86"/>
</g>
<!-- Node9&#45;&gt;Node7 -->
<g id="edge9" class="edge">
<title>Node9&#45;&gt;Node7</title>
<path fill="none" stroke="midnightblue" d="M559.87,-41.52C570.33,-44.64 580.96,-47.87 591,-51 620.35,-60.15 652.92,-70.85 679.51,-79.73"/>
<polygon fill="midnightblue" stroke="midnightblue" points="678.42,-83.06 689.01,-82.91 680.64,-76.42 678.42,-83.06"/>
</g>
<!-- Node10 -->
<g id="node10" class="node">
<title>Node10</title>
<g id="a_node10"><a xlink:href="classit_1_1unitn_1_1healthcore_1_1domain_1_1PasswordConfirmationForm.html#add77c52ff85c3a8caefe02af899fe10b" target="_top" xlink:title="Password confirmation getter.">
<polygon fill="white" stroke="black" points="627,-0.5 627,-41.5 842,-41.5 842,-0.5 627,-0.5"/>
<text text-anchor="start" x="635" y="-29.5" font-family="Helvetica,sans-Serif" font-size="10.00">it.unitn.healthcore.domain.</text>
<text text-anchor="start" x="635" y="-18.5" font-family="Helvetica,sans-Serif" font-size="10.00">PasswordConfirmationForm.getPassword</text>
<text text-anchor="middle" x="734.5" y="-7.5" font-family="Helvetica,sans-Serif" font-size="10.00">Confirmation</text>
</a>
</g>
</g>
<!-- Node9&#45;&gt;Node10 -->
<g id="edge10" class="edge">
<title>Node9&#45;&gt;Node10</title>
<path fill="none" stroke="midnightblue" d="M580.74,-21C592.49,-21 604.64,-21 616.72,-21"/>
<polygon fill="midnightblue" stroke="midnightblue" points="616.84,-24.5 626.84,-21 616.84,-17.5 616.84,-24.5"/>
</g>
</g>
</svg>
