<?xml version="1.0" encoding="UTF-8" standalone="no"?>
<!DOCTYPE svg PUBLIC "-//W3C//DTD SVG 1.1//EN"
 "http://www.w3.org/Graphics/SVG/1.1/DTD/svg11.dtd">
<!-- Generated by graphviz version 2.43.0 (0)
 -->
<!-- Title: it.unitn.healthcore.controller.UserController.addEmployee Pages: 1 -->
<svg width="864pt" height="235pt"
 viewBox="0.00 0.00 864.00 235.00" xmlns="http://www.w3.org/2000/svg" xmlns:xlink="http://www.w3.org/1999/xlink">
<g id="graph0" class="graph" transform="scale(1 1) rotate(0) translate(4 231)">
<title>it.unitn.healthcore.controller.UserController.addEmployee</title>
<polygon fill="white" stroke="transparent" points="-4,4 -4,-231 860,-231 860,4 -4,4"/>
<!-- Node1 -->
<g id="node1" class="node">
<title>Node1</title>
<g id="a_node1"><a xlink:title=" ">
<polygon fill="#bfbfbf" stroke="black" points="0,-147.5 0,-177.5 158,-177.5 158,-147.5 0,-147.5"/>
<text text-anchor="start" x="8" y="-165.5" font-family="Helvetica,sans-Serif" font-size="10.00">it.unitn.healthcore.controller.</text>
<text text-anchor="middle" x="79" y="-154.5" font-family="Helvetica,sans-Serif" font-size="10.00">UserController.addEmployee</text>
</a>
</g>
</g>
<!-- Node2 -->
<g id="node2" class="node">
<title>Node2</title>
<g id="a_node2"><a xlink:href="classit_1_1unitn_1_1healthcore_1_1business_1_1UserService.html#a8bb76a3af453837d334e1f5a9551ff56" target="_top" xlink:title=" ">
<polygon fill="white" stroke="black" points="194,-147.5 194,-177.5 358,-177.5 358,-147.5 194,-147.5"/>
<text text-anchor="start" x="202" y="-165.5" font-family="Helvetica,sans-Serif" font-size="10.00">it.unitn.healthcore.business.</text>
<text text-anchor="middle" x="276" y="-154.5" font-family="Helvetica,sans-Serif" font-size="10.00">UserService.registerEmployee</text>
</a>
</g>
</g>
<!-- Node1&#45;&gt;Node2 -->
<g id="edge1" class="edge">
<title>Node1&#45;&gt;Node2</title>
<path fill="none" stroke="midnightblue" d="M158.19,-162.5C166.64,-162.5 175.3,-162.5 183.89,-162.5"/>
<polygon fill="midnightblue" stroke="midnightblue" points="183.92,-166 193.92,-162.5 183.92,-159 183.92,-166"/>
</g>
<!-- Node3 -->
<g id="node3" class="node">
<title>Node3</title>
<g id="a_node3"><a xlink:href="classit_1_1unitn_1_1healthcore_1_1domain_1_1EmployeeRegistrationForm.html#a2cddb295abb33e4d48081a4b179d0928" target="_top" xlink:title=" ">
<polygon fill="white" stroke="black" points="394,-196.5 394,-226.5 584,-226.5 584,-196.5 394,-196.5"/>
<text text-anchor="start" x="402" y="-214.5" font-family="Helvetica,sans-Serif" font-size="10.00">it.unitn.healthcore.domain.</text>
<text text-anchor="middle" x="489" y="-203.5" font-family="Helvetica,sans-Serif" font-size="10.00">EmployeeRegistrationForm.getRole</text>
</a>
</g>
</g>
<!-- Node2&#45;&gt;Node3 -->
<g id="edge2" class="edge">
<title>Node2&#45;&gt;Node3</title>
<path fill="none" stroke="midnightblue" d="M341.74,-177.53C364.42,-182.8 390.08,-188.76 413.5,-194.2"/>
<polygon fill="midnightblue" stroke="midnightblue" points="412.85,-197.64 423.38,-196.49 414.43,-190.82 412.85,-197.64"/>
</g>
<!-- Node4 -->
<g id="node4" class="node">
<title>Node4</title>
<g id="a_node4"><a xlink:href="classit_1_1unitn_1_1healthcore_1_1business_1_1UserService.html#aebfef6bf9480fb24956dba8b10232d2f" target="_top" xlink:title=" ">
<polygon fill="white" stroke="black" points="398,-147.5 398,-177.5 580,-177.5 580,-147.5 398,-147.5"/>
<text text-anchor="start" x="406" y="-165.5" font-family="Helvetica,sans-Serif" font-size="10.00">it.unitn.healthcore.business.</text>
<text text-anchor="middle" x="489" y="-154.5" font-family="Helvetica,sans-Serif" font-size="10.00">UserService.registerAdministrator</text>
</a>
</g>
</g>
<!-- Node2&#45;&gt;Node4 -->
<g id="edge3" class="edge">
<title>Node2&#45;&gt;Node4</title>
<path fill="none" stroke="midnightblue" d="M358.28,-162.5C367.93,-162.5 377.86,-162.5 387.74,-162.5"/>
<polygon fill="midnightblue" stroke="midnightblue" points="387.99,-166 397.99,-162.5 387.99,-159 387.99,-166"/>
</g>
<!-- Node9 -->
<g id="node9" class="node">
<title>Node9</title>
<g id="a_node9"><a xlink:href="classit_1_1unitn_1_1healthcore_1_1business_1_1UserService.html#af71b0f13c31c938efe9fce54ab3d7f7d" target="_top" xlink:title=" ">
<polygon fill="white" stroke="black" points="411.5,-98.5 411.5,-128.5 566.5,-128.5 566.5,-98.5 411.5,-98.5"/>
<text text-anchor="start" x="419.5" y="-116.5" font-family="Helvetica,sans-Serif" font-size="10.00">it.unitn.healthcore.business.</text>
<text text-anchor="middle" x="489" y="-105.5" font-family="Helvetica,sans-Serif" font-size="10.00">UserService.registerDoctor</text>
</a>
</g>
</g>
<!-- Node2&#45;&gt;Node9 -->
<g id="edge8" class="edge">
<title>Node2&#45;&gt;Node9</title>
<path fill="none" stroke="midnightblue" d="M341.74,-147.47C364.42,-142.2 390.08,-136.24 413.5,-130.8"/>
<polygon fill="midnightblue" stroke="midnightblue" points="414.43,-134.18 423.38,-128.51 412.85,-127.36 414.43,-134.18"/>
</g>
<!-- Node5 -->
<g id="node5" class="node">
<title>Node5</title>
<g id="a_node5"><a xlink:href="classit_1_1unitn_1_1healthcore_1_1domain_1_1PasswordConfirmationForm.html#ad2a321af868704e56c42d5306a8acd91" target="_top" xlink:title=" ">
<polygon fill="white" stroke="black" points="639.5,-147.5 639.5,-177.5 836.5,-177.5 836.5,-147.5 639.5,-147.5"/>
<text text-anchor="start" x="647.5" y="-165.5" font-family="Helvetica,sans-Serif" font-size="10.00">it.unitn.healthcore.domain.</text>
<text text-anchor="middle" x="738" y="-154.5" font-family="Helvetica,sans-Serif" font-size="10.00">PasswordConfirmationForm.getEmail</text>
</a>
</g>
</g>
<!-- Node4&#45;&gt;Node5 -->
<g id="edge4" class="edge">
<title>Node4&#45;&gt;Node5</title>
<path fill="none" stroke="midnightblue" d="M580.22,-162.5C596.08,-162.5 612.74,-162.5 629.03,-162.5"/>
<polygon fill="midnightblue" stroke="midnightblue" points="629.11,-166 639.11,-162.5 629.11,-159 629.11,-166"/>
</g>
<!-- Node6 -->
<g id="node6" class="node">
<title>Node6</title>
<g id="a_node6"><a xlink:href="classit_1_1unitn_1_1healthcore_1_1domain_1_1EmployeeRegistrationForm.html#ae00ab1333401d899f6e010a99e5afec8" target="_top" xlink:title=" ">
<polygon fill="white" stroke="black" points="639.5,-98.5 639.5,-128.5 836.5,-128.5 836.5,-98.5 639.5,-98.5"/>
<text text-anchor="start" x="647.5" y="-116.5" font-family="Helvetica,sans-Serif" font-size="10.00">it.unitn.healthcore.domain.</text>
<text text-anchor="middle" x="738" y="-105.5" font-family="Helvetica,sans-Serif" font-size="10.00">EmployeeRegistrationForm.getName</text>
</a>
</g>
</g>
<!-- Node4&#45;&gt;Node6 -->
<g id="edge5" class="edge">
<title>Node4&#45;&gt;Node6</title>
<path fill="none" stroke="midnightblue" d="M565.79,-147.47C592.81,-142.1 623.45,-136.03 651.25,-130.51"/>
<polygon fill="midnightblue" stroke="midnightblue" points="652.23,-133.89 661.36,-128.51 650.87,-127.02 652.23,-133.89"/>
</g>
<!-- Node7 -->
<g id="node7" class="node">
<title>Node7</title>
<g id="a_node7"><a xlink:href="classit_1_1unitn_1_1healthcore_1_1domain_1_1PasswordConfirmationForm.html#aa7de23a583db33eba13ddecad973ceca" target="_top" xlink:title=" ">
<polygon fill="white" stroke="black" points="630.5,-49.5 630.5,-79.5 845.5,-79.5 845.5,-49.5 630.5,-49.5"/>
<text text-anchor="start" x="638.5" y="-67.5" font-family="Helvetica,sans-Serif" font-size="10.00">it.unitn.healthcore.domain.</text>
<text text-anchor="middle" x="738" y="-56.5" font-family="Helvetica,sans-Serif" font-size="10.00">PasswordConfirmationForm.getPassword</text>
</a>
</g>
</g>
<!-- Node4&#45;&gt;Node7 -->
<g id="edge6" class="edge">
<title>Node4&#45;&gt;Node7</title>
<path fill="none" stroke="midnightblue" d="M567.81,-147.3C573.5,-144.8 578.97,-141.89 584,-138.5 606.4,-123.39 597.3,-104.17 620,-89.5 623.2,-87.43 626.54,-85.53 629.98,-83.79"/>
<polygon fill="midnightblue" stroke="midnightblue" points="631.68,-86.86 639.32,-79.52 628.77,-80.5 631.68,-86.86"/>
</g>
<!-- Node8 -->
<g id="node8" class="node">
<title>Node8</title>
<g id="a_node8"><a xlink:href="classit_1_1unitn_1_1healthcore_1_1domain_1_1EmployeeRegistrationForm.html#af1804bfdb0eb5dd711f6344f6c7e420c" target="_top" xlink:title=" ">
<polygon fill="white" stroke="black" points="632,-196.5 632,-226.5 844,-226.5 844,-196.5 632,-196.5"/>
<text text-anchor="start" x="640" y="-214.5" font-family="Helvetica,sans-Serif" font-size="10.00">it.unitn.healthcore.domain.</text>
<text text-anchor="middle" x="738" y="-203.5" font-family="Helvetica,sans-Serif" font-size="10.00">EmployeeRegistrationForm.getSurname</text>
</a>
</g>
</g>
<!-- Node4&#45;&gt;Node8 -->
<g id="edge7" class="edge">
<title>Node4&#45;&gt;Node8</title>
<path fill="none" stroke="midnightblue" d="M565.79,-177.53C592.81,-182.9 623.45,-188.97 651.25,-194.49"/>
<polygon fill="midnightblue" stroke="midnightblue" points="650.87,-197.98 661.36,-196.49 652.23,-191.11 650.87,-197.98"/>
</g>
<!-- Node9&#45;&gt;Node5 -->
<g id="edge10" class="edge">
<title>Node9&#45;&gt;Node5</title>
<path fill="none" stroke="midnightblue" d="M565.79,-128.53C592.81,-133.9 623.45,-139.97 651.25,-145.49"/>
<polygon fill="midnightblue" stroke="midnightblue" points="650.87,-148.98 661.36,-147.49 652.23,-142.11 650.87,-148.98"/>
</g>
<!-- Node9&#45;&gt;Node6 -->
<g id="edge11" class="edge">
<title>Node9&#45;&gt;Node6</title>
<path fill="none" stroke="midnightblue" d="M566.8,-113.5C586.51,-113.5 608.09,-113.5 629.06,-113.5"/>
<polygon fill="midnightblue" stroke="midnightblue" points="629.3,-117 639.3,-113.5 629.3,-110 629.3,-117"/>
</g>
<!-- Node9&#45;&gt;Node7 -->
<g id="edge12" class="edge">
<title>Node9&#45;&gt;Node7</title>
<path fill="none" stroke="midnightblue" d="M565.79,-98.47C592.81,-93.1 623.45,-87.03 651.25,-81.51"/>
<polygon fill="midnightblue" stroke="midnightblue" points="652.23,-84.89 661.36,-79.51 650.87,-78.02 652.23,-84.89"/>
</g>
<!-- Node9&#45;&gt;Node8 -->
<g id="edge13" class="edge">
<title>Node9&#45;&gt;Node8</title>
<path fill="none" stroke="midnightblue" d="M565.44,-128.53C571.98,-131.31 578.28,-134.6 584,-138.5 606.33,-153.73 597.25,-172.92 620,-187.5 622.5,-189.1 625.08,-190.59 627.73,-191.99"/>
<polygon fill="midnightblue" stroke="midnightblue" points="626.45,-195.26 636.98,-196.38 629.45,-188.93 626.45,-195.26"/>
</g>
<!-- Node10 -->
<g id="node10" class="node">
<title>Node10</title>
<g id="a_node10"><a xlink:href="classit_1_1unitn_1_1healthcore_1_1domain_1_1EmployeeRegistrationForm.html#aacda9ff32f2f6c240f9f1ce7a746839a" target="_top" xlink:title=" ">
<polygon fill="white" stroke="black" points="620,-0.5 620,-30.5 856,-30.5 856,-0.5 620,-0.5"/>
<text text-anchor="start" x="628" y="-18.5" font-family="Helvetica,sans-Serif" font-size="10.00">it.unitn.healthcore.domain.</text>
<text text-anchor="middle" x="738" y="-7.5" font-family="Helvetica,sans-Serif" font-size="10.00">EmployeeRegistrationForm.getDepartmentId</text>
</a>
</g>
</g>
<!-- Node9&#45;&gt;Node10 -->
<g id="edge9" class="edge">
<title>Node9&#45;&gt;Node10</title>
<path fill="none" stroke="midnightblue" d="M512,-98.41C537.08,-81.87 579.8,-55.68 620,-40.5 627.03,-37.85 634.4,-35.44 641.89,-33.27"/>
<polygon fill="midnightblue" stroke="midnightblue" points="643.06,-36.58 651.77,-30.56 641.2,-29.83 643.06,-36.58"/>
</g>
</g>
</svg>
