<?xml version="1.0" encoding="UTF-8" standalone="no"?>
<!DOCTYPE svg PUBLIC "-//W3C//DTD SVG 1.1//EN"
 "http://www.w3.org/Graphics/SVG/1.1/DTD/svg11.dtd">
<!-- Generated by graphviz version 2.43.0 (0)
 -->
<!-- Title: it.unitn.healthcore.business.UserService.recoverPassword Pages: 1 -->
<svg width="420pt" height="186pt"
 viewBox="0.00 0.00 420.00 186.00" xmlns="http://www.w3.org/2000/svg" xmlns:xlink="http://www.w3.org/1999/xlink">
<g id="graph0" class="graph" transform="scale(1 1) rotate(0) translate(4 182)">
<title>it.unitn.healthcore.business.UserService.recoverPassword</title>
<polygon fill="white" stroke="transparent" points="-4,4 -4,-182 416,-182 416,4 -4,4"/>
<!-- Node1 -->
<g id="node1" class="node">
<title>Node1</title>
<g id="a_node1"><a xlink:title=" ">
<polygon fill="#bfbfbf" stroke="black" points="0,-73.5 0,-103.5 161,-103.5 161,-73.5 0,-73.5"/>
<text text-anchor="start" x="8" y="-91.5" font-family="Helvetica,sans-Serif" font-size="10.00">it.unitn.healthcore.business.</text>
<text text-anchor="middle" x="80.5" y="-80.5" font-family="Helvetica,sans-Serif" font-size="10.00">UserService.recoverPassword</text>
</a>
</g>
</g>
<!-- Node2 -->
<g id="node2" class="node">
<title>Node2</title>
<g id="a_node2"><a xlink:href="interfaceit_1_1unitn_1_1healthcore_1_1persistence_1_1UserRepository.html#a6a646ae44d01189ff44c81c03fc92fa8" target="_top" xlink:title=" ">
<polygon fill="white" stroke="black" points="217.5,-147.5 217.5,-177.5 391.5,-177.5 391.5,-147.5 217.5,-147.5"/>
<text text-anchor="start" x="225.5" y="-165.5" font-family="Helvetica,sans-Serif" font-size="10.00">it.unitn.healthcore.persistence.</text>
<text text-anchor="middle" x="304.5" y="-154.5" font-family="Helvetica,sans-Serif" font-size="10.00">UserRepository.findUserByEmail</text>
</a>
</g>
</g>
<!-- Node1&#45;&gt;Node2 -->
<g id="edge1" class="edge">
<title>Node1&#45;&gt;Node2</title>
<path fill="none" stroke="midnightblue" d="M112.26,-103.69C135.19,-114.55 167.5,-128.88 197,-138.5 203.94,-140.76 211.2,-142.89 218.53,-144.86"/>
<polygon fill="midnightblue" stroke="midnightblue" points="217.98,-148.34 228.54,-147.47 219.74,-141.56 217.98,-148.34"/>
</g>
<!-- Node3 -->
<g id="node3" class="node">
<title>Node3</title>
<g id="a_node3"><a xlink:href="classit_1_1unitn_1_1healthcore_1_1domain_1_1PasswordConfirmationForm.html#ad2a321af868704e56c42d5306a8acd91" target="_top" xlink:title=" ">
<polygon fill="white" stroke="black" points="206,-98.5 206,-128.5 403,-128.5 403,-98.5 206,-98.5"/>
<text text-anchor="start" x="214" y="-116.5" font-family="Helvetica,sans-Serif" font-size="10.00">it.unitn.healthcore.domain.</text>
<text text-anchor="middle" x="304.5" y="-105.5" font-family="Helvetica,sans-Serif" font-size="10.00">PasswordConfirmationForm.getEmail</text>
</a>
</g>
</g>
<!-- Node1&#45;&gt;Node3 -->
<g id="edge2" class="edge">
<title>Node1&#45;&gt;Node3</title>
<path fill="none" stroke="midnightblue" d="M161.02,-97.45C172.28,-98.72 184.01,-100.04 195.69,-101.36"/>
<polygon fill="midnightblue" stroke="midnightblue" points="195.6,-104.87 205.93,-102.51 196.39,-97.92 195.6,-104.87"/>
</g>
<!-- Node4 -->
<g id="node4" class="node">
<title>Node4</title>
<g id="a_node4"><a xlink:href="classit_1_1unitn_1_1healthcore_1_1domain_1_1PasswordConfirmationForm.html#aa7de23a583db33eba13ddecad973ceca" target="_top" xlink:title=" ">
<polygon fill="white" stroke="black" points="197,-49.5 197,-79.5 412,-79.5 412,-49.5 197,-49.5"/>
<text text-anchor="start" x="205" y="-67.5" font-family="Helvetica,sans-Serif" font-size="10.00">it.unitn.healthcore.domain.</text>
<text text-anchor="middle" x="304.5" y="-56.5" font-family="Helvetica,sans-Serif" font-size="10.00">PasswordConfirmationForm.getPassword</text>
</a>
</g>
</g>
<!-- Node1&#45;&gt;Node4 -->
<g id="edge3" class="edge">
<title>Node1&#45;&gt;Node4</title>
<path fill="none" stroke="midnightblue" d="M161.02,-79.9C169.34,-79 177.91,-78.08 186.53,-77.15"/>
<polygon fill="midnightblue" stroke="midnightblue" points="187.1,-80.6 196.66,-76.05 186.34,-73.65 187.1,-80.6"/>
</g>
<!-- Node5 -->
<g id="node5" class="node">
<title>Node5</title>
<g id="a_node5"><a xlink:href="classit_1_1unitn_1_1healthcore_1_1domain_1_1User.html#aae0addd4b63049c29c751a6c03e17f2c" target="_top" xlink:title=" ">
<polygon fill="white" stroke="black" points="230,-0.5 230,-30.5 379,-30.5 379,-0.5 230,-0.5"/>
<text text-anchor="start" x="238" y="-18.5" font-family="Helvetica,sans-Serif" font-size="10.00">it.unitn.healthcore.domain.</text>
<text text-anchor="middle" x="304.5" y="-7.5" font-family="Helvetica,sans-Serif" font-size="10.00">User.setPassword</text>
</a>
</g>
</g>
<!-- Node1&#45;&gt;Node5 -->
<g id="edge4" class="edge">
<title>Node1&#45;&gt;Node5</title>
<path fill="none" stroke="midnightblue" d="M113.82,-73.4C136.69,-63.13 168.28,-49.77 197,-40.5 205.21,-37.85 213.85,-35.35 222.53,-33.04"/>
<polygon fill="midnightblue" stroke="midnightblue" points="223.5,-36.4 232.31,-30.51 221.75,-29.63 223.5,-36.4"/>
</g>
</g>
</svg>
