<?xml version="1.0" encoding="UTF-8" standalone="no"?>
<!DOCTYPE svg PUBLIC "-//W3C//DTD SVG 1.1//EN"
 "http://www.w3.org/Graphics/SVG/1.1/DTD/svg11.dtd">
<!-- Generated by graphviz version 2.43.0 (0)
 -->
<!-- Title: it.unitn.healthcore.business.UserService.registerEmployee Pages: 1 -->
<svg width="670pt" height="284pt"
 viewBox="0.00 0.00 670.00 284.00" xmlns="http://www.w3.org/2000/svg" xmlns:xlink="http://www.w3.org/1999/xlink">
<g id="graph0" class="graph" transform="scale(1 1) rotate(0) translate(4 280)">
<title>it.unitn.healthcore.business.UserService.registerEmployee</title>
<polygon fill="white" stroke="transparent" points="-4,4 -4,-280 666,-280 666,4 -4,4"/>
<!-- Node1 -->
<g id="node1" class="node">
<title>Node1</title>
<g id="a_node1"><a xlink:title=" ">
<polygon fill="#bfbfbf" stroke="black" points="0,-171.5 0,-201.5 164,-201.5 164,-171.5 0,-171.5"/>
<text text-anchor="start" x="8" y="-189.5" font-family="Helvetica,sans-Serif" font-size="10.00">it.unitn.healthcore.business.</text>
<text text-anchor="middle" x="82" y="-178.5" font-family="Helvetica,sans-Serif" font-size="10.00">UserService.registerEmployee</text>
</a>
</g>
</g>
<!-- Node2 -->
<g id="node2" class="node">
<title>Node2</title>
<g id="a_node2"><a xlink:href="classit_1_1unitn_1_1healthcore_1_1domain_1_1EmployeeRegistrationForm.html#a2cddb295abb33e4d48081a4b179d0928" target="_top" xlink:title="Role getter.">
<polygon fill="white" stroke="black" points="200,-220.5 200,-250.5 390,-250.5 390,-220.5 200,-220.5"/>
<text text-anchor="start" x="208" y="-238.5" font-family="Helvetica,sans-Serif" font-size="10.00">it.unitn.healthcore.domain.</text>
<text text-anchor="middle" x="295" y="-227.5" font-family="Helvetica,sans-Serif" font-size="10.00">EmployeeRegistrationForm.getRole</text>
</a>
</g>
</g>
<!-- Node1&#45;&gt;Node2 -->
<g id="edge1" class="edge">
<title>Node1&#45;&gt;Node2</title>
<path fill="none" stroke="midnightblue" d="M147.74,-201.53C170.42,-206.8 196.08,-212.76 219.5,-218.2"/>
<polygon fill="midnightblue" stroke="midnightblue" points="218.85,-221.64 229.38,-220.49 220.43,-214.82 218.85,-221.64"/>
</g>
<!-- Node3 -->
<g id="node3" class="node">
<title>Node3</title>
<g id="a_node3"><a xlink:href="classit_1_1unitn_1_1healthcore_1_1business_1_1UserService.html#aebfef6bf9480fb24956dba8b10232d2f" target="_top" xlink:title=" ">
<polygon fill="white" stroke="black" points="204,-171.5 204,-201.5 386,-201.5 386,-171.5 204,-171.5"/>
<text text-anchor="start" x="212" y="-189.5" font-family="Helvetica,sans-Serif" font-size="10.00">it.unitn.healthcore.business.</text>
<text text-anchor="middle" x="295" y="-178.5" font-family="Helvetica,sans-Serif" font-size="10.00">UserService.registerAdministrator</text>
</a>
</g>
</g>
<!-- Node1&#45;&gt;Node3 -->
<g id="edge2" class="edge">
<title>Node1&#45;&gt;Node3</title>
<path fill="none" stroke="midnightblue" d="M164.28,-186.5C173.93,-186.5 183.86,-186.5 193.74,-186.5"/>
<polygon fill="midnightblue" stroke="midnightblue" points="193.99,-190 203.99,-186.5 193.99,-183 193.99,-190"/>
</g>
<!-- Node8 -->
<g id="node8" class="node">
<title>Node8</title>
<g id="a_node8"><a xlink:href="classit_1_1unitn_1_1healthcore_1_1business_1_1UserService.html#af71b0f13c31c938efe9fce54ab3d7f7d" target="_top" xlink:title=" ">
<polygon fill="white" stroke="black" points="217.5,-122.5 217.5,-152.5 372.5,-152.5 372.5,-122.5 217.5,-122.5"/>
<text text-anchor="start" x="225.5" y="-140.5" font-family="Helvetica,sans-Serif" font-size="10.00">it.unitn.healthcore.business.</text>
<text text-anchor="middle" x="295" y="-129.5" font-family="Helvetica,sans-Serif" font-size="10.00">UserService.registerDoctor</text>
</a>
</g>
</g>
<!-- Node1&#45;&gt;Node8 -->
<g id="edge7" class="edge">
<title>Node1&#45;&gt;Node8</title>
<path fill="none" stroke="midnightblue" d="M147.74,-171.47C170.42,-166.2 196.08,-160.24 219.5,-154.8"/>
<polygon fill="midnightblue" stroke="midnightblue" points="220.43,-158.18 229.38,-152.51 218.85,-151.36 220.43,-158.18"/>
</g>
<!-- Node4 -->
<g id="node4" class="node">
<title>Node4</title>
<g id="a_node4"><a xlink:href="classit_1_1unitn_1_1healthcore_1_1domain_1_1PasswordConfirmationForm.html#ad2a321af868704e56c42d5306a8acd91" target="_top" xlink:title="Email getter.">
<polygon fill="white" stroke="black" points="445.5,-245.5 445.5,-275.5 642.5,-275.5 642.5,-245.5 445.5,-245.5"/>
<text text-anchor="start" x="453.5" y="-263.5" font-family="Helvetica,sans-Serif" font-size="10.00">it.unitn.healthcore.domain.</text>
<text text-anchor="middle" x="544" y="-252.5" font-family="Helvetica,sans-Serif" font-size="10.00">PasswordConfirmationForm.getEmail</text>
</a>
</g>
</g>
<!-- Node3&#45;&gt;Node4 -->
<g id="edge3" class="edge">
<title>Node3&#45;&gt;Node4</title>
<path fill="none" stroke="midnightblue" d="M364.26,-201.64C373.09,-204.47 381.88,-207.74 390,-211.5 407.68,-219.68 408.09,-228.83 426,-236.5 431,-238.64 436.21,-240.6 441.53,-242.38"/>
<polygon fill="midnightblue" stroke="midnightblue" points="440.61,-245.76 451.2,-245.41 442.7,-239.08 440.61,-245.76"/>
</g>
<!-- Node5 -->
<g id="node5" class="node">
<title>Node5</title>
<g id="a_node5"><a xlink:href="classit_1_1unitn_1_1healthcore_1_1domain_1_1EmployeeRegistrationForm.html#ae00ab1333401d899f6e010a99e5afec8" target="_top" xlink:title="Name getter.">
<polygon fill="white" stroke="black" points="445.5,-196.5 445.5,-226.5 642.5,-226.5 642.5,-196.5 445.5,-196.5"/>
<text text-anchor="start" x="453.5" y="-214.5" font-family="Helvetica,sans-Serif" font-size="10.00">it.unitn.healthcore.domain.</text>
<text text-anchor="middle" x="544" y="-203.5" font-family="Helvetica,sans-Serif" font-size="10.00">EmployeeRegistrationForm.getName</text>
</a>
</g>
</g>
<!-- Node3&#45;&gt;Node5 -->
<g id="edge4" class="edge">
<title>Node3&#45;&gt;Node5</title>
<path fill="none" stroke="midnightblue" d="M386.22,-195.63C402.08,-197.24 418.74,-198.92 435.03,-200.57"/>
<polygon fill="midnightblue" stroke="midnightblue" points="434.81,-204.07 445.11,-201.59 435.52,-197.1 434.81,-204.07"/>
</g>
<!-- Node6 -->
<g id="node6" class="node">
<title>Node6</title>
<g id="a_node6"><a xlink:href="classit_1_1unitn_1_1healthcore_1_1domain_1_1PasswordConfirmationForm.html#aa7de23a583db33eba13ddecad973ceca" target="_top" xlink:title="Password getter.">
<polygon fill="white" stroke="black" points="436.5,-147.5 436.5,-177.5 651.5,-177.5 651.5,-147.5 436.5,-147.5"/>
<text text-anchor="start" x="444.5" y="-165.5" font-family="Helvetica,sans-Serif" font-size="10.00">it.unitn.healthcore.domain.</text>
<text text-anchor="middle" x="544" y="-154.5" font-family="Helvetica,sans-Serif" font-size="10.00">PasswordConfirmationForm.getPassword</text>
</a>
</g>
</g>
<!-- Node3&#45;&gt;Node6 -->
<g id="edge5" class="edge">
<title>Node3&#45;&gt;Node6</title>
<path fill="none" stroke="midnightblue" d="M386.22,-177.73C399.18,-176.47 412.67,-175.16 426.05,-173.86"/>
<polygon fill="midnightblue" stroke="midnightblue" points="426.64,-177.32 436.25,-172.87 425.96,-170.36 426.64,-177.32"/>
</g>
<!-- Node7 -->
<g id="node7" class="node">
<title>Node7</title>
<g id="a_node7"><a xlink:href="classit_1_1unitn_1_1healthcore_1_1domain_1_1EmployeeRegistrationForm.html#af1804bfdb0eb5dd711f6344f6c7e420c" target="_top" xlink:title="Surname getter.">
<polygon fill="white" stroke="black" points="438,-98.5 438,-128.5 650,-128.5 650,-98.5 438,-98.5"/>
<text text-anchor="start" x="446" y="-116.5" font-family="Helvetica,sans-Serif" font-size="10.00">it.unitn.healthcore.domain.</text>
<text text-anchor="middle" x="544" y="-105.5" font-family="Helvetica,sans-Serif" font-size="10.00">EmployeeRegistrationForm.getSurname</text>
</a>
</g>
</g>
<!-- Node3&#45;&gt;Node7 -->
<g id="edge6" class="edge">
<title>Node3&#45;&gt;Node7</title>
<path fill="none" stroke="midnightblue" d="M366.2,-171.39C374.36,-168.81 382.46,-165.86 390,-162.5 407.57,-154.68 408.28,-145.98 426,-138.5 432.17,-135.9 438.65,-133.55 445.25,-131.44"/>
<polygon fill="midnightblue" stroke="midnightblue" points="446.42,-134.74 454.99,-128.52 444.41,-128.04 446.42,-134.74"/>
</g>
<!-- Node8&#45;&gt;Node4 -->
<g id="edge9" class="edge">
<title>Node8&#45;&gt;Node4</title>
<path fill="none" stroke="midnightblue" d="M372.7,-151.69C378.91,-154.64 384.79,-158.21 390,-162.5 418.23,-185.75 397.11,-214.07 426,-236.5 429.22,-239 432.65,-241.26 436.21,-243.3"/>
<polygon fill="midnightblue" stroke="midnightblue" points="434.85,-246.54 445.35,-247.93 438.01,-240.29 434.85,-246.54"/>
</g>
<!-- Node8&#45;&gt;Node5 -->
<g id="edge10" class="edge">
<title>Node8&#45;&gt;Node5</title>
<path fill="none" stroke="midnightblue" d="M364.26,-152.64C373.09,-155.47 381.88,-158.74 390,-162.5 407.68,-170.68 408.09,-179.83 426,-187.5 431,-189.64 436.21,-191.6 441.53,-193.38"/>
<polygon fill="midnightblue" stroke="midnightblue" points="440.61,-196.76 451.2,-196.41 442.7,-190.08 440.61,-196.76"/>
</g>
<!-- Node8&#45;&gt;Node6 -->
<g id="edge11" class="edge">
<title>Node8&#45;&gt;Node6</title>
<path fill="none" stroke="midnightblue" d="M372.8,-145.27C389.77,-146.99 408.11,-148.85 426.26,-150.68"/>
<polygon fill="midnightblue" stroke="midnightblue" points="426.02,-154.18 436.32,-151.7 426.72,-147.21 426.02,-154.18"/>
</g>
<!-- Node8&#45;&gt;Node7 -->
<g id="edge12" class="edge">
<title>Node8&#45;&gt;Node7</title>
<path fill="none" stroke="midnightblue" d="M372.8,-130.04C390.2,-128.35 409.06,-126.51 427.67,-124.71"/>
<polygon fill="midnightblue" stroke="midnightblue" points="428.06,-128.19 437.67,-123.73 427.38,-121.22 428.06,-128.19"/>
</g>
<!-- Node9 -->
<g id="node9" class="node">
<title>Node9</title>
<g id="a_node9"><a xlink:href="classit_1_1unitn_1_1healthcore_1_1domain_1_1EmployeeRegistrationForm.html#aacda9ff32f2f6c240f9f1ce7a746839a" target="_top" xlink:title="Department ID getter.">
<polygon fill="white" stroke="black" points="426,-49.5 426,-79.5 662,-79.5 662,-49.5 426,-49.5"/>
<text text-anchor="start" x="434" y="-67.5" font-family="Helvetica,sans-Serif" font-size="10.00">it.unitn.healthcore.domain.</text>
<text text-anchor="middle" x="544" y="-56.5" font-family="Helvetica,sans-Serif" font-size="10.00">EmployeeRegistrationForm.getDepartmentId</text>
</a>
</g>
</g>
<!-- Node8&#45;&gt;Node9 -->
<g id="edge8" class="edge">
<title>Node8&#45;&gt;Node9</title>
<path fill="none" stroke="midnightblue" d="M332.51,-122.42C358.31,-112.16 393.88,-98.81 426,-89.5 435.35,-86.79 445.2,-84.23 455.05,-81.87"/>
<polygon fill="midnightblue" stroke="midnightblue" points="455.95,-85.25 464.89,-79.56 454.35,-78.44 455.95,-85.25"/>
</g>
<!-- Node10 -->
<g id="node10" class="node">
<title>Node10</title>
<g id="a_node10"><a xlink:href="classit_1_1unitn_1_1healthcore_1_1domain_1_1Department.html#adb4a544815968649e801e2182b7069f0" target="_top" xlink:title="Returns the total staff positions within the department.">
<polygon fill="white" stroke="black" points="452,-0.5 452,-30.5 636,-30.5 636,-0.5 452,-0.5"/>
<text text-anchor="start" x="460" y="-18.5" font-family="Helvetica,sans-Serif" font-size="10.00">it.unitn.healthcore.domain.</text>
<text text-anchor="middle" x="544" y="-7.5" font-family="Helvetica,sans-Serif" font-size="10.00">Department.getTotalStaffPositions</text>
</a>
</g>
</g>
<!-- Node8&#45;&gt;Node10 -->
<g id="edge13" class="edge">
<title>Node8&#45;&gt;Node10</title>
<path fill="none" stroke="midnightblue" d="M311.36,-122.46C334.32,-100.89 379.84,-61.44 426,-40.5 431.45,-38.03 437.16,-35.79 443,-33.78"/>
<polygon fill="midnightblue" stroke="midnightblue" points="444.47,-36.98 452.92,-30.59 442.33,-30.32 444.47,-36.98"/>
</g>
</g>
</svg>
