<?xml version="1.0" encoding="UTF-8" standalone="no"?>
<!DOCTYPE svg PUBLIC "-//W3C//DTD SVG 1.1//EN"
 "http://www.w3.org/Graphics/SVG/1.1/DTD/svg11.dtd">
<!-- Generated by graphviz version 2.43.0 (0)
 -->
<!-- Title: it.unitn.healthcore.business.PatientService.modifyAppointment Pages: 1 -->
<svg width="601pt" height="357pt"
 viewBox="0.00 0.00 601.00 357.00" xmlns="http://www.w3.org/2000/svg" xmlns:xlink="http://www.w3.org/1999/xlink">
<g id="graph0" class="graph" transform="scale(1 1) rotate(0) translate(4 353)">
<title>it.unitn.healthcore.business.PatientService.modifyAppointment</title>
<polygon fill="white" stroke="transparent" points="-4,4 -4,-353 597,-353 597,4 -4,4"/>
<!-- Node1 -->
<g id="node1" class="node">
<title>Node1</title>
<g id="a_node1"><a xlink:title="Modifies an existing appointment for the currently authenticated patient.">
<polygon fill="#bfbfbf" stroke="black" points="0,-147.5 0,-177.5 186,-177.5 186,-147.5 0,-147.5"/>
<text text-anchor="start" x="8" y="-165.5" font-family="Helvetica,sans-Serif" font-size="10.00">it.unitn.healthcore.business.</text>
<text text-anchor="middle" x="93" y="-154.5" font-family="Helvetica,sans-Serif" font-size="10.00">PatientService.modifyAppointment</text>
</a>
</g>
</g>
<!-- Node2 -->
<g id="node2" class="node">
<title>Node2</title>
<g id="a_node2"><a xlink:href="classit_1_1unitn_1_1healthcore_1_1business_1_1UserService.html#a33213d05bfda4e7384e17b18332d4bb5" target="_top" xlink:title="Retrieves the currently authenticated user from the database.">
<polygon fill="white" stroke="black" points="222,-294.5 222,-324.5 377,-324.5 377,-294.5 222,-294.5"/>
<text text-anchor="start" x="230" y="-312.5" font-family="Helvetica,sans-Serif" font-size="10.00">it.unitn.healthcore.business.</text>
<text text-anchor="middle" x="299.5" y="-301.5" font-family="Helvetica,sans-Serif" font-size="10.00">UserService.getCurrentUser</text>
</a>
</g>
</g>
<!-- Node1&#45;&gt;Node2 -->
<g id="edge1" class="edge">
<title>Node1&#45;&gt;Node2</title>
<path fill="none" stroke="midnightblue" d="M105.74,-177.67C126.48,-203.48 172.15,-255.97 222,-285.5 224.96,-287.26 228.07,-288.9 231.26,-290.43"/>
<polygon fill="midnightblue" stroke="midnightblue" points="229.88,-293.64 240.44,-294.46 232.7,-287.23 229.88,-293.64"/>
</g>
<!-- Node5 -->
<g id="node5" class="node">
<title>Node5</title>
<g id="a_node5"><a xlink:href="classit_1_1unitn_1_1healthcore_1_1domain_1_1Appointment.html#a5e3d223030b1b23d4a2dfab94d5b4ef2" target="_top" xlink:title="Returns the doctor conducting the appointment.">
<polygon fill="white" stroke="black" points="225,-245.5 225,-275.5 374,-275.5 374,-245.5 225,-245.5"/>
<text text-anchor="start" x="233" y="-263.5" font-family="Helvetica,sans-Serif" font-size="10.00">it.unitn.healthcore.domain.</text>
<text text-anchor="middle" x="299.5" y="-252.5" font-family="Helvetica,sans-Serif" font-size="10.00">Appointment.getDoctor</text>
</a>
</g>
</g>
<!-- Node1&#45;&gt;Node5 -->
<g id="edge4" class="edge">
<title>Node1&#45;&gt;Node5</title>
<path fill="none" stroke="midnightblue" d="M116.78,-177.74C141.77,-193.96 183.46,-219.56 222,-236.5 226.39,-238.43 230.98,-240.27 235.64,-242.02"/>
<polygon fill="midnightblue" stroke="midnightblue" points="234.67,-245.39 245.27,-245.47 237.03,-238.8 234.67,-245.39"/>
</g>
<!-- Node6 -->
<g id="node6" class="node">
<title>Node6</title>
<g id="a_node6"><a xlink:href="classit_1_1unitn_1_1healthcore_1_1domain_1_1User.html#af8206b66c08446d8c3cb7e16b825a794" target="_top" xlink:title="Returns a string representation of the User.">
<polygon fill="white" stroke="black" points="225,-196.5 225,-226.5 374,-226.5 374,-196.5 225,-196.5"/>
<text text-anchor="start" x="233" y="-214.5" font-family="Helvetica,sans-Serif" font-size="10.00">it.unitn.healthcore.domain.</text>
<text text-anchor="middle" x="299.5" y="-203.5" font-family="Helvetica,sans-Serif" font-size="10.00">User.getId</text>
</a>
</g>
</g>
<!-- Node1&#45;&gt;Node6 -->
<g id="edge5" class="edge">
<title>Node1&#45;&gt;Node6</title>
<path fill="none" stroke="midnightblue" d="M156.75,-177.53C178.63,-182.78 203.37,-188.71 225.99,-194.13"/>
<polygon fill="midnightblue" stroke="midnightblue" points="225.33,-197.57 235.87,-196.49 226.96,-190.76 225.33,-197.57"/>
</g>
<!-- Node7 -->
<g id="node7" class="node">
<title>Node7</title>
<g id="a_node7"><a xlink:href="classit_1_1unitn_1_1healthcore_1_1domain_1_1Appointment.html#a60f84ee45966ebeed37981dffe94c8ad" target="_top" xlink:title="Returns the patient associated with the appointment.">
<polygon fill="white" stroke="black" points="225,-147.5 225,-177.5 374,-177.5 374,-147.5 225,-147.5"/>
<text text-anchor="start" x="233" y="-165.5" font-family="Helvetica,sans-Serif" font-size="10.00">it.unitn.healthcore.domain.</text>
<text text-anchor="middle" x="299.5" y="-154.5" font-family="Helvetica,sans-Serif" font-size="10.00">Appointment.getPatient</text>
</a>
</g>
</g>
<!-- Node1&#45;&gt;Node7 -->
<g id="edge6" class="edge">
<title>Node1&#45;&gt;Node7</title>
<path fill="none" stroke="midnightblue" d="M186.08,-162.5C195.58,-162.5 205.19,-162.5 214.6,-162.5"/>
<polygon fill="midnightblue" stroke="midnightblue" points="214.7,-166 224.7,-162.5 214.7,-159 214.7,-166"/>
</g>
<!-- Node8 -->
<g id="node8" class="node">
<title>Node8</title>
<g id="a_node8"><a xlink:href="classit_1_1unitn_1_1healthcore_1_1domain_1_1Appointment.html#a9bd30e2d1b2e4de743b3e83b9cc50eb4" target="_top" xlink:title="Returns the start date and time of the appointment.">
<polygon fill="white" stroke="black" points="225,-98.5 225,-128.5 374,-128.5 374,-98.5 225,-98.5"/>
<text text-anchor="start" x="233" y="-116.5" font-family="Helvetica,sans-Serif" font-size="10.00">it.unitn.healthcore.domain.</text>
<text text-anchor="middle" x="299.5" y="-105.5" font-family="Helvetica,sans-Serif" font-size="10.00">Appointment.getStartTime</text>
</a>
</g>
</g>
<!-- Node1&#45;&gt;Node8 -->
<g id="edge7" class="edge">
<title>Node1&#45;&gt;Node8</title>
<path fill="none" stroke="midnightblue" d="M156.75,-147.47C178.63,-142.22 203.37,-136.29 225.99,-130.87"/>
<polygon fill="midnightblue" stroke="midnightblue" points="226.96,-134.24 235.87,-128.51 225.33,-127.43 226.96,-134.24"/>
</g>
<!-- Node9 -->
<g id="node9" class="node">
<title>Node9</title>
<g id="a_node9"><a xlink:href="classit_1_1unitn_1_1healthcore_1_1domain_1_1Appointment.html#a6de01451b6306612331a64affe989252" target="_top" xlink:title="Sets the end date and time of the appointment.">
<polygon fill="white" stroke="black" points="225,-49.5 225,-79.5 374,-79.5 374,-49.5 225,-49.5"/>
<text text-anchor="start" x="233" y="-67.5" font-family="Helvetica,sans-Serif" font-size="10.00">it.unitn.healthcore.domain.</text>
<text text-anchor="middle" x="299.5" y="-56.5" font-family="Helvetica,sans-Serif" font-size="10.00">Appointment.setEndTime</text>
</a>
</g>
</g>
<!-- Node1&#45;&gt;Node9 -->
<g id="edge8" class="edge">
<title>Node1&#45;&gt;Node9</title>
<path fill="none" stroke="midnightblue" d="M117.31,-147.29C142.41,-131.37 183.88,-106.39 222,-89.5 227.03,-87.27 232.32,-85.14 237.68,-83.12"/>
<polygon fill="midnightblue" stroke="midnightblue" points="239.13,-86.32 247.34,-79.62 236.75,-79.73 239.13,-86.32"/>
</g>
<!-- Node10 -->
<g id="node10" class="node">
<title>Node10</title>
<g id="a_node10"><a xlink:href="classit_1_1unitn_1_1healthcore_1_1domain_1_1Appointment.html#af0a269963159bb6067469fb75a6fdf3a" target="_top" xlink:title="Sets the start date and time of the appointment.">
<polygon fill="white" stroke="black" points="225,-0.5 225,-30.5 374,-30.5 374,-0.5 225,-0.5"/>
<text text-anchor="start" x="233" y="-18.5" font-family="Helvetica,sans-Serif" font-size="10.00">it.unitn.healthcore.domain.</text>
<text text-anchor="middle" x="299.5" y="-7.5" font-family="Helvetica,sans-Serif" font-size="10.00">Appointment.setStartTime</text>
</a>
</g>
</g>
<!-- Node1&#45;&gt;Node10 -->
<g id="edge9" class="edge">
<title>Node1&#45;&gt;Node10</title>
<path fill="none" stroke="midnightblue" d="M106.14,-147.11C127.14,-121.47 172.72,-69.95 222,-40.5 225.58,-38.36 229.36,-36.39 233.25,-34.56"/>
<polygon fill="midnightblue" stroke="midnightblue" points="234.68,-37.75 242.47,-30.56 231.9,-31.32 234.68,-37.75"/>
</g>
<!-- Node3 -->
<g id="node3" class="node">
<title>Node3</title>
<g id="a_node3"><a xlink:href="interfaceit_1_1unitn_1_1healthcore_1_1persistence_1_1UserRepository.html#a6a646ae44d01189ff44c81c03fc92fa8" target="_top" xlink:title=" ">
<polygon fill="white" stroke="black" points="416,-318.5 416,-348.5 590,-348.5 590,-318.5 416,-318.5"/>
<text text-anchor="start" x="424" y="-336.5" font-family="Helvetica,sans-Serif" font-size="10.00">it.unitn.healthcore.persistence.</text>
<text text-anchor="middle" x="503" y="-325.5" font-family="Helvetica,sans-Serif" font-size="10.00">UserRepository.findUserByEmail</text>
</a>
</g>
</g>
<!-- Node2&#45;&gt;Node3 -->
<g id="edge2" class="edge">
<title>Node2&#45;&gt;Node3</title>
<path fill="none" stroke="midnightblue" d="M377.25,-318.64C386.58,-319.75 396.2,-320.9 405.76,-322.04"/>
<polygon fill="midnightblue" stroke="midnightblue" points="405.35,-325.51 415.7,-323.22 406.18,-318.56 405.35,-325.51"/>
</g>
<!-- Node4 -->
<g id="node4" class="node">
<title>Node4</title>
<g id="a_node4"><a xlink:href="classit_1_1unitn_1_1healthcore_1_1business_1_1UserService.html#a703ed9778e3ac6cd9741220089b5f48d" target="_top" xlink:title="Retrieves the email of the currently authenticated user.">
<polygon fill="white" stroke="black" points="413,-269.5 413,-299.5 593,-299.5 593,-269.5 413,-269.5"/>
<text text-anchor="start" x="421" y="-287.5" font-family="Helvetica,sans-Serif" font-size="10.00">it.unitn.healthcore.business.</text>
<text text-anchor="middle" x="503" y="-276.5" font-family="Helvetica,sans-Serif" font-size="10.00">UserService.getCurrentUserEmail</text>
</a>
</g>
</g>
<!-- Node2&#45;&gt;Node4 -->
<g id="edge3" class="edge">
<title>Node2&#45;&gt;Node4</title>
<path fill="none" stroke="midnightblue" d="M377.25,-299.98C385.65,-298.94 394.28,-297.87 402.89,-296.8"/>
<polygon fill="midnightblue" stroke="midnightblue" points="403.49,-300.25 412.98,-295.54 402.62,-293.3 403.49,-300.25"/>
</g>
</g>
</svg>
