<?xml version="1.0" encoding="UTF-8" standalone="no"?>
<!DOCTYPE svg PUBLIC "-//W3C//DTD SVG 1.1//EN"
 "http://www.w3.org/Graphics/SVG/1.1/DTD/svg11.dtd">
<!-- Generated by graphviz version 2.43.0 (0)
 -->
<!-- Title: it.unitn.healthcore.domain.PasswordConfirmationForm Pages: 1 -->
<svg width="343pt" height="137pt"
 viewBox="0.00 0.00 343.00 137.00" xmlns="http://www.w3.org/2000/svg" xmlns:xlink="http://www.w3.org/1999/xlink">
<g id="graph0" class="graph" transform="scale(1 1) rotate(0) translate(4 133)">
<title>it.unitn.healthcore.domain.PasswordConfirmationForm</title>
<polygon fill="white" stroke="transparent" points="-4,4 -4,-133 339,-133 339,4 -4,4"/>
<!-- Node1 -->
<g id="node1" class="node">
<title>Node1</title>
<g id="a_node1"><a xlink:title="This class serves as a base form for user registration processes that require password confirmation.">
<polygon fill="#bfbfbf" stroke="black" points="0,-49.5 0,-79.5 150,-79.5 150,-49.5 0,-49.5"/>
<text text-anchor="start" x="8" y="-67.5" font-family="Helvetica,sans-Serif" font-size="10.00">it.unitn.healthcore.domain.</text>
<text text-anchor="middle" x="75" y="-56.5" font-family="Helvetica,sans-Serif" font-size="10.00">PasswordConfirmationForm</text>
</a>
</g>
</g>
<!-- Node2 -->
<g id="node2" class="node">
<title>Node2</title>
<g id="a_node2"><a xlink:href="classit_1_1unitn_1_1healthcore_1_1domain_1_1EmployeeRegistrationForm.html" target="_top" xlink:title="This class represents the form used for registering a new employee in the system.">
<polygon fill="white" stroke="black" points="186,-98.5 186,-128.5 335,-128.5 335,-98.5 186,-98.5"/>
<text text-anchor="start" x="194" y="-116.5" font-family="Helvetica,sans-Serif" font-size="10.00">it.unitn.healthcore.domain.</text>
<text text-anchor="middle" x="260.5" y="-105.5" font-family="Helvetica,sans-Serif" font-size="10.00">EmployeeRegistrationForm</text>
</a>
</g>
</g>
<!-- Node1&#45;&gt;Node2 -->
<g id="edge1" class="edge">
<title>Node1&#45;&gt;Node2</title>
<path fill="none" stroke="midnightblue" d="M142,-82.12C162.07,-87.48 183.94,-93.32 203.3,-98.49"/>
<polygon fill="midnightblue" stroke="midnightblue" points="142.87,-78.73 132.3,-79.53 141.06,-85.5 142.87,-78.73"/>
</g>
<!-- Node3 -->
<g id="node3" class="node">
<title>Node3</title>
<g id="a_node3"><a xlink:href="classit_1_1unitn_1_1healthcore_1_1domain_1_1PatientRegistrationForm.html" target="_top" xlink:title="This class represents the form used for patient registration, extending the PasswordConfirmationForm ...">
<polygon fill="white" stroke="black" points="186,-49.5 186,-79.5 335,-79.5 335,-49.5 186,-49.5"/>
<text text-anchor="start" x="194" y="-67.5" font-family="Helvetica,sans-Serif" font-size="10.00">it.unitn.healthcore.domain.</text>
<text text-anchor="middle" x="260.5" y="-56.5" font-family="Helvetica,sans-Serif" font-size="10.00">PatientRegistrationForm</text>
</a>
</g>
</g>
<!-- Node1&#45;&gt;Node3 -->
<g id="edge2" class="edge">
<title>Node1&#45;&gt;Node3</title>
<path fill="none" stroke="midnightblue" d="M160.37,-64.5C168.83,-64.5 177.37,-64.5 185.71,-64.5"/>
<polygon fill="midnightblue" stroke="midnightblue" points="160.11,-61 150.11,-64.5 160.11,-68 160.11,-61"/>
</g>
<!-- Node4 -->
<g id="node4" class="node">
<title>Node4</title>
<g id="a_node4"><a xlink:href="classit_1_1unitn_1_1healthcore_1_1domain_1_1ProfileUpdateForm.html" target="_top" xlink:title="This class represents the form used for updating user profiles, extending the PasswordConfirmationFor...">
<polygon fill="white" stroke="black" points="186,-0.5 186,-30.5 335,-30.5 335,-0.5 186,-0.5"/>
<text text-anchor="start" x="194" y="-18.5" font-family="Helvetica,sans-Serif" font-size="10.00">it.unitn.healthcore.domain.</text>
<text text-anchor="middle" x="260.5" y="-7.5" font-family="Helvetica,sans-Serif" font-size="10.00">ProfileUpdateForm</text>
</a>
</g>
</g>
<!-- Node1&#45;&gt;Node4 -->
<g id="edge3" class="edge">
<title>Node1&#45;&gt;Node4</title>
<path fill="none" stroke="midnightblue" d="M142,-46.88C162.07,-41.52 183.94,-35.68 203.3,-30.51"/>
<polygon fill="midnightblue" stroke="midnightblue" points="141.06,-43.5 132.3,-49.47 142.87,-50.27 141.06,-43.5"/>
</g>
</g>
</svg>
