<?xml version="1.0" encoding="UTF-8" standalone="no"?>
<!DOCTYPE svg PUBLIC "-//W3C//DTD SVG 1.1//EN"
 "http://www.w3.org/Graphics/SVG/1.1/DTD/svg11.dtd">
<!-- Generated by graphviz version 2.43.0 (0)
 -->
<!-- Title: it.unitn.healthcore.business.UserService.registerPatient Pages: 1 -->
<svg width="414pt" height="308pt"
 viewBox="0.00 0.00 414.00 307.50" xmlns="http://www.w3.org/2000/svg" xmlns:xlink="http://www.w3.org/1999/xlink">
<g id="graph0" class="graph" transform="scale(1 1) rotate(0) translate(4 303.5)">
<title>it.unitn.healthcore.business.UserService.registerPatient</title>
<polygon fill="white" stroke="transparent" points="-4,4 -4,-303.5 410,-303.5 410,4 -4,4"/>
<!-- Node1 -->
<g id="node1" class="node">
<title>Node1</title>
<g id="a_node1"><a xlink:title=" ">
<polygon fill="#bfbfbf" stroke="black" points="0,-125.5 0,-155.5 155,-155.5 155,-125.5 0,-125.5"/>
<text text-anchor="start" x="8" y="-143.5" font-family="Helvetica,sans-Serif" font-size="10.00">it.unitn.healthcore.business.</text>
<text text-anchor="middle" x="77.5" y="-132.5" font-family="Helvetica,sans-Serif" font-size="10.00">UserService.registerPatient</text>
</a>
</g>
</g>
<!-- Node2 -->
<g id="node2" class="node">
<title>Node2</title>
<g id="a_node2"><a xlink:href="interfaceit_1_1unitn_1_1healthcore_1_1persistence_1_1PatientRepository.html#a320387b23f16ee948d66d932faa3991f" target="_top" xlink:title=" ">
<polygon fill="white" stroke="black" points="198.5,-258 198.5,-299 398.5,-299 398.5,-258 198.5,-258"/>
<text text-anchor="start" x="206.5" y="-287" font-family="Helvetica,sans-Serif" font-size="10.00">it.unitn.healthcore.persistence.</text>
<text text-anchor="start" x="206.5" y="-276" font-family="Helvetica,sans-Serif" font-size="10.00">PatientRepository.existsByHealthcare</text>
<text text-anchor="middle" x="298.5" y="-265" font-family="Helvetica,sans-Serif" font-size="10.00">CardNumber</text>
</a>
</g>
</g>
<!-- Node1&#45;&gt;Node2 -->
<g id="edge1" class="edge">
<title>Node1&#45;&gt;Node2</title>
<path fill="none" stroke="midnightblue" d="M90.24,-155.83C108.99,-179.28 148,-223.89 191,-248.5 194.28,-250.38 197.68,-252.14 201.17,-253.8"/>
<polygon fill="midnightblue" stroke="midnightblue" points="200.01,-257.11 210.57,-257.95 202.84,-250.71 200.01,-257.11"/>
</g>
<!-- Node3 -->
<g id="node3" class="node">
<title>Node3</title>
<g id="a_node3"><a xlink:href="classit_1_1unitn_1_1healthcore_1_1domain_1_1PasswordConfirmationForm.html#ad2a321af868704e56c42d5306a8acd91" target="_top" xlink:title="Email getter.">
<polygon fill="white" stroke="black" points="200,-208.5 200,-238.5 397,-238.5 397,-208.5 200,-208.5"/>
<text text-anchor="start" x="208" y="-226.5" font-family="Helvetica,sans-Serif" font-size="10.00">it.unitn.healthcore.domain.</text>
<text text-anchor="middle" x="298.5" y="-215.5" font-family="Helvetica,sans-Serif" font-size="10.00">PasswordConfirmationForm.getEmail</text>
</a>
</g>
</g>
<!-- Node1&#45;&gt;Node3 -->
<g id="edge2" class="edge">
<title>Node1&#45;&gt;Node3</title>
<path fill="none" stroke="midnightblue" d="M103.6,-155.72C125.88,-168.66 159.66,-186.94 191,-198.5 198.14,-201.13 205.66,-203.56 213.26,-205.77"/>
<polygon fill="midnightblue" stroke="midnightblue" points="212.33,-209.14 222.9,-208.46 214.21,-202.4 212.33,-209.14"/>
</g>
<!-- Node4 -->
<g id="node4" class="node">
<title>Node4</title>
<g id="a_node4"><a xlink:href="classit_1_1unitn_1_1healthcore_1_1domain_1_1PatientRegistrationForm.html#abc573cb3f03f7b2d2e0dd970c569df84" target="_top" xlink:title="Healthcare card number getter.">
<polygon fill="white" stroke="black" points="195.5,-148 195.5,-189 401.5,-189 401.5,-148 195.5,-148"/>
<text text-anchor="start" x="203.5" y="-177" font-family="Helvetica,sans-Serif" font-size="10.00">it.unitn.healthcore.domain.</text>
<text text-anchor="start" x="203.5" y="-166" font-family="Helvetica,sans-Serif" font-size="10.00">PatientRegistrationForm.getHealthcare</text>
<text text-anchor="middle" x="298.5" y="-155" font-family="Helvetica,sans-Serif" font-size="10.00">CardNumber</text>
</a>
</g>
</g>
<!-- Node1&#45;&gt;Node4 -->
<g id="edge3" class="edge">
<title>Node1&#45;&gt;Node4</title>
<path fill="none" stroke="midnightblue" d="M155.1,-150.29C164.81,-151.53 174.9,-152.83 185.03,-154.12"/>
<polygon fill="midnightblue" stroke="midnightblue" points="184.8,-157.62 195.16,-155.42 185.68,-150.68 184.8,-157.62"/>
</g>
<!-- Node5 -->
<g id="node5" class="node">
<title>Node5</title>
<g id="a_node5"><a xlink:href="classit_1_1unitn_1_1healthcore_1_1domain_1_1PatientRegistrationForm.html#a47e69a04762a7937f63f729aa52fbe7a" target="_top" xlink:title="Creates a PatientRegistrationForm with the specified details, without healthcare card number.">
<polygon fill="white" stroke="black" points="207.5,-98.5 207.5,-128.5 389.5,-128.5 389.5,-98.5 207.5,-98.5"/>
<text text-anchor="start" x="215.5" y="-116.5" font-family="Helvetica,sans-Serif" font-size="10.00">it.unitn.healthcore.domain.</text>
<text text-anchor="middle" x="298.5" y="-105.5" font-family="Helvetica,sans-Serif" font-size="10.00">PatientRegistrationForm.getName</text>
</a>
</g>
</g>
<!-- Node1&#45;&gt;Node5 -->
<g id="edge4" class="edge">
<title>Node1&#45;&gt;Node5</title>
<path fill="none" stroke="midnightblue" d="M155.1,-131.06C168.69,-129.38 183.04,-127.61 197.18,-125.87"/>
<polygon fill="midnightblue" stroke="midnightblue" points="197.93,-129.3 207.42,-124.61 197.07,-122.36 197.93,-129.3"/>
</g>
<!-- Node6 -->
<g id="node6" class="node">
<title>Node6</title>
<g id="a_node6"><a xlink:href="classit_1_1unitn_1_1healthcore_1_1domain_1_1PasswordConfirmationForm.html#aa7de23a583db33eba13ddecad973ceca" target="_top" xlink:title="Password getter.">
<polygon fill="white" stroke="black" points="191,-49.5 191,-79.5 406,-79.5 406,-49.5 191,-49.5"/>
<text text-anchor="start" x="199" y="-67.5" font-family="Helvetica,sans-Serif" font-size="10.00">it.unitn.healthcore.domain.</text>
<text text-anchor="middle" x="298.5" y="-56.5" font-family="Helvetica,sans-Serif" font-size="10.00">PasswordConfirmationForm.getPassword</text>
</a>
</g>
</g>
<!-- Node1&#45;&gt;Node6 -->
<g id="edge5" class="edge">
<title>Node1&#45;&gt;Node6</title>
<path fill="none" stroke="midnightblue" d="M107.47,-125.47C129.83,-114.34 161.77,-99.45 191,-89.5 198.67,-86.89 206.74,-84.45 214.86,-82.21"/>
<polygon fill="midnightblue" stroke="midnightblue" points="216.02,-85.52 224.78,-79.57 214.21,-78.76 216.02,-85.52"/>
</g>
<!-- Node7 -->
<g id="node7" class="node">
<title>Node7</title>
<g id="a_node7"><a xlink:href="classit_1_1unitn_1_1healthcore_1_1domain_1_1PatientRegistrationForm.html#a28bacda95e68eaf4665de2509652c6fe" target="_top" xlink:title="Surname getter.">
<polygon fill="white" stroke="black" points="200,-0.5 200,-30.5 397,-30.5 397,-0.5 200,-0.5"/>
<text text-anchor="start" x="208" y="-18.5" font-family="Helvetica,sans-Serif" font-size="10.00">it.unitn.healthcore.domain.</text>
<text text-anchor="middle" x="298.5" y="-7.5" font-family="Helvetica,sans-Serif" font-size="10.00">PatientRegistrationForm.getSurname</text>
</a>
</g>
</g>
<!-- Node1&#45;&gt;Node7 -->
<g id="edge6" class="edge">
<title>Node1&#45;&gt;Node7</title>
<path fill="none" stroke="midnightblue" d="M91,-125.39C110.16,-103.25 149.02,-62.28 191,-40.5 195.57,-38.13 200.37,-35.98 205.29,-34.03"/>
<polygon fill="midnightblue" stroke="midnightblue" points="206.7,-37.24 214.9,-30.53 204.3,-30.67 206.7,-37.24"/>
</g>
</g>
</svg>
