<?xml version="1.0" encoding="UTF-8" standalone="no"?>
<!DOCTYPE svg PUBLIC "-//W3C//DTD SVG 1.1//EN"
 "http://www.w3.org/Graphics/SVG/1.1/DTD/svg11.dtd">
<!-- Generated by graphviz version 2.43.0 (0)
 -->
<!-- Title: it.unitn.healthcore.domain.Appointment.getAppointmentId Pages: 1 -->
<svg width="663pt" height="118pt"
 viewBox="0.00 0.00 663.00 118.00" xmlns="http://www.w3.org/2000/svg" xmlns:xlink="http://www.w3.org/1999/xlink">
<g id="graph0" class="graph" transform="scale(1 1) rotate(0) translate(4 114)">
<title>it.unitn.healthcore.domain.Appointment.getAppointmentId</title>
<polygon fill="white" stroke="transparent" points="-4,4 -4,-114 659,-114 659,4 -4,4"/>
<!-- Node1 -->
<g id="node1" class="node">
<title>Node1</title>
<g id="a_node1"><a xlink:title="Returns the appointment ID.">
<polygon fill="#bfbfbf" stroke="black" points="485,-51.5 485,-81.5 655,-81.5 655,-51.5 485,-51.5"/>
<text text-anchor="start" x="493" y="-69.5" font-family="Helvetica,sans-Serif" font-size="10.00">it.unitn.healthcore.domain.</text>
<text text-anchor="middle" x="570" y="-58.5" font-family="Helvetica,sans-Serif" font-size="10.00">Appointment.getAppointmentId</text>
</a>
</g>
</g>
<!-- Node2 -->
<g id="node2" class="node">
<title>Node2</title>
<g id="a_node2"><a xlink:href="classit_1_1unitn_1_1healthcore_1_1controller_1_1PatientController.html#a6c1b2c866308e0723c5b9157149ab47b" target="_top" xlink:title=" ">
<polygon fill="white" stroke="black" points="256.5,-79.5 256.5,-109.5 444.5,-109.5 444.5,-79.5 256.5,-79.5"/>
<text text-anchor="start" x="264.5" y="-97.5" font-family="Helvetica,sans-Serif" font-size="10.00">it.unitn.healthcore.controller.</text>
<text text-anchor="middle" x="350.5" y="-86.5" font-family="Helvetica,sans-Serif" font-size="10.00">PatientController.bookAppointment</text>
</a>
</g>
</g>
<!-- Node1&#45;&gt;Node2 -->
<g id="edge1" class="edge">
<title>Node1&#45;&gt;Node2</title>
<path fill="none" stroke="midnightblue" d="M474.96,-78.61C464.95,-79.89 454.77,-81.21 444.76,-82.49"/>
<polygon fill="midnightblue" stroke="midnightblue" points="475.44,-82.07 484.91,-77.33 474.54,-75.13 475.44,-82.07"/>
</g>
<!-- Node3 -->
<g id="node3" class="node">
<title>Node3</title>
<g id="a_node3"><a xlink:href="classit_1_1unitn_1_1healthcore_1_1business_1_1AppointmentService.html#a6df398766f183e79fe315aea5f1752a4" target="_top" xlink:title=" ">
<polygon fill="white" stroke="black" points="252,-19 252,-60 449,-60 449,-19 252,-19"/>
<text text-anchor="start" x="260" y="-48" font-family="Helvetica,sans-Serif" font-size="10.00">it.unitn.healthcore.business.</text>
<text text-anchor="start" x="260" y="-37" font-family="Helvetica,sans-Serif" font-size="10.00">AppointmentService.getAppointment</text>
<text text-anchor="middle" x="350.5" y="-26" font-family="Helvetica,sans-Serif" font-size="10.00">Details</text>
</a>
</g>
</g>
<!-- Node1&#45;&gt;Node3 -->
<g id="edge2" class="edge">
<title>Node1&#45;&gt;Node3</title>
<path fill="none" stroke="midnightblue" d="M474.94,-54.82C466.39,-53.76 457.72,-52.69 449.14,-51.62"/>
<polygon fill="midnightblue" stroke="midnightblue" points="474.55,-58.3 484.91,-56.06 475.42,-51.36 474.55,-58.3"/>
</g>
<!-- Node4 -->
<g id="node4" class="node">
<title>Node4</title>
<g id="a_node4"><a xlink:href="classit_1_1unitn_1_1healthcore_1_1controller_1_1DoctorController.html#aaf741f63621b758e3aab2e1af0639398" target="_top" xlink:title="Retrieves the details of a specific appointment by its ID.">
<polygon fill="white" stroke="black" points="0.5,-49.5 0.5,-79.5 215.5,-79.5 215.5,-49.5 0.5,-49.5"/>
<text text-anchor="start" x="8.5" y="-67.5" font-family="Helvetica,sans-Serif" font-size="10.00">it.unitn.healthcore.controller.</text>
<text text-anchor="middle" x="108" y="-56.5" font-family="Helvetica,sans-Serif" font-size="10.00">DoctorController.viewAppointmentDetail</text>
</a>
</g>
</g>
<!-- Node3&#45;&gt;Node4 -->
<g id="edge3" class="edge">
<title>Node3&#45;&gt;Node4</title>
<path fill="none" stroke="midnightblue" d="M241.63,-50.71C233.03,-51.61 224.35,-52.51 215.76,-53.4"/>
<polygon fill="midnightblue" stroke="midnightblue" points="242.09,-54.18 251.68,-49.67 241.37,-47.22 242.09,-54.18"/>
</g>
<!-- Node5 -->
<g id="node5" class="node">
<title>Node5</title>
<g id="a_node5"><a xlink:href="classit_1_1unitn_1_1healthcore_1_1controller_1_1PatientController.html#ac6fe0b7997f8668f80b25419c0d686c6" target="_top" xlink:title=" ">
<polygon fill="white" stroke="black" points="0,-0.5 0,-30.5 216,-30.5 216,-0.5 0,-0.5"/>
<text text-anchor="start" x="8" y="-18.5" font-family="Helvetica,sans-Serif" font-size="10.00">it.unitn.healthcore.controller.</text>
<text text-anchor="middle" x="108" y="-7.5" font-family="Helvetica,sans-Serif" font-size="10.00">PatientController.viewAppointmentDetail</text>
</a>
</g>
</g>
<!-- Node3&#45;&gt;Node5 -->
<g id="edge4" class="edge">
<title>Node3&#45;&gt;Node5</title>
<path fill="none" stroke="midnightblue" d="M241.47,-28.72C233.05,-27.88 224.56,-27.03 216.15,-26.19"/>
<polygon fill="midnightblue" stroke="midnightblue" points="241.38,-32.23 251.68,-29.74 242.08,-25.26 241.38,-32.23"/>
</g>
</g>
</svg>
