<?xml version="1.0" encoding="UTF-8" standalone="no"?>
<!DOCTYPE svg PUBLIC "-//W3C//DTD SVG 1.1//EN"
 "http://www.w3.org/Graphics/SVG/1.1/DTD/svg11.dtd">
<!-- Generated by graphviz version 2.43.0 (0)
 -->
<!-- Title: it.unitn.healthcore.business.AppointmentService.getFutureAppointments Pages: 1 -->
<svg width="648pt" height="88pt"
 viewBox="0.00 0.00 648.00 88.00" xmlns="http://www.w3.org/2000/svg" xmlns:xlink="http://www.w3.org/1999/xlink">
<g id="graph0" class="graph" transform="scale(1 1) rotate(0) translate(4 84)">
<title>it.unitn.healthcore.business.AppointmentService.getFutureAppointments</title>
<polygon fill="white" stroke="transparent" points="-4,4 -4,-84 644,-84 644,4 -4,4"/>
<!-- Node1 -->
<g id="node1" class="node">
<title>Node1</title>
<g id="a_node1"><a xlink:title="Retrieves a list of future appointments for the currently authenticated user.">
<polygon fill="#bfbfbf" stroke="black" points="0,-24.5 0,-54.5 233,-54.5 233,-24.5 0,-24.5"/>
<text text-anchor="start" x="8" y="-42.5" font-family="Helvetica,sans-Serif" font-size="10.00">it.unitn.healthcore.business.</text>
<text text-anchor="middle" x="116.5" y="-31.5" font-family="Helvetica,sans-Serif" font-size="10.00">AppointmentService.getFutureAppointments</text>
</a>
</g>
</g>
<!-- Node2 -->
<g id="node2" class="node">
<title>Node2</title>
<g id="a_node2"><a xlink:href="classit_1_1unitn_1_1healthcore_1_1business_1_1UserService.html#a33213d05bfda4e7384e17b18332d4bb5" target="_top" xlink:title="Retrieves the currently authenticated user from the database.">
<polygon fill="white" stroke="black" points="269,-24.5 269,-54.5 424,-54.5 424,-24.5 269,-24.5"/>
<text text-anchor="start" x="277" y="-42.5" font-family="Helvetica,sans-Serif" font-size="10.00">it.unitn.healthcore.business.</text>
<text text-anchor="middle" x="346.5" y="-31.5" font-family="Helvetica,sans-Serif" font-size="10.00">UserService.getCurrentUser</text>
</a>
</g>
</g>
<!-- Node1&#45;&gt;Node2 -->
<g id="edge1" class="edge">
<title>Node1&#45;&gt;Node2</title>
<path fill="none" stroke="midnightblue" d="M233.17,-39.5C241.79,-39.5 250.4,-39.5 258.8,-39.5"/>
<polygon fill="midnightblue" stroke="midnightblue" points="258.92,-43 268.92,-39.5 258.92,-36 258.92,-43"/>
</g>
<!-- Node3 -->
<g id="node3" class="node">
<title>Node3</title>
<g id="a_node3"><a xlink:href="interfaceit_1_1unitn_1_1healthcore_1_1persistence_1_1UserRepository.html#a6a646ae44d01189ff44c81c03fc92fa8" target="_top" xlink:title=" ">
<polygon fill="white" stroke="black" points="463,-49.5 463,-79.5 637,-79.5 637,-49.5 463,-49.5"/>
<text text-anchor="start" x="471" y="-67.5" font-family="Helvetica,sans-Serif" font-size="10.00">it.unitn.healthcore.persistence.</text>
<text text-anchor="middle" x="550" y="-56.5" font-family="Helvetica,sans-Serif" font-size="10.00">UserRepository.findUserByEmail</text>
</a>
</g>
</g>
<!-- Node2&#45;&gt;Node3 -->
<g id="edge2" class="edge">
<title>Node2&#45;&gt;Node3</title>
<path fill="none" stroke="midnightblue" d="M424.25,-49.02C433.58,-50.18 443.2,-51.37 452.76,-52.56"/>
<polygon fill="midnightblue" stroke="midnightblue" points="452.34,-56.03 462.7,-53.79 453.2,-49.09 452.34,-56.03"/>
</g>
<!-- Node4 -->
<g id="node4" class="node">
<title>Node4</title>
<g id="a_node4"><a xlink:href="classit_1_1unitn_1_1healthcore_1_1business_1_1UserService.html#a703ed9778e3ac6cd9741220089b5f48d" target="_top" xlink:title="Retrieves the email of the currently authenticated user.">
<polygon fill="white" stroke="black" points="460,-0.5 460,-30.5 640,-30.5 640,-0.5 460,-0.5"/>
<text text-anchor="start" x="468" y="-18.5" font-family="Helvetica,sans-Serif" font-size="10.00">it.unitn.healthcore.business.</text>
<text text-anchor="middle" x="550" y="-7.5" font-family="Helvetica,sans-Serif" font-size="10.00">UserService.getCurrentUserEmail</text>
</a>
</g>
</g>
<!-- Node2&#45;&gt;Node4 -->
<g id="edge3" class="edge">
<title>Node2&#45;&gt;Node4</title>
<path fill="none" stroke="midnightblue" d="M424.25,-30.36C432.65,-29.36 441.28,-28.33 449.89,-27.3"/>
<polygon fill="midnightblue" stroke="midnightblue" points="450.46,-30.76 459.98,-26.1 449.63,-23.81 450.46,-30.76"/>
</g>
</g>
</svg>
