<?xml version="1.0" encoding="UTF-8" standalone="no"?>
<!DOCTYPE svg PUBLIC "-//W3C//DTD SVG 1.1//EN"
 "http://www.w3.org/Graphics/SVG/1.1/DTD/svg11.dtd">
<!-- Generated by graphviz version 2.43.0 (0)
 -->
<!-- Title: it.unitn.healthcore.controller.UserController.updateProfile Pages: 1 -->
<svg width="869pt" height="722pt"
 viewBox="0.00 0.00 869.00 722.00" xmlns="http://www.w3.org/2000/svg" xmlns:xlink="http://www.w3.org/1999/xlink">
<g id="graph0" class="graph" transform="scale(1 1) rotate(0) translate(4 718)">
<title>it.unitn.healthcore.controller.UserController.updateProfile</title>
<polygon fill="white" stroke="transparent" points="-4,4 -4,-718 865,-718 865,4 -4,4"/>
<!-- Node1 -->
<g id="node1" class="node">
<title>Node1</title>
<g id="a_node1"><a xlink:title=" ">
<polygon fill="#bfbfbf" stroke="black" points="0,-355.5 0,-385.5 158,-385.5 158,-355.5 0,-355.5"/>
<text text-anchor="start" x="8" y="-373.5" font-family="Helvetica,sans-Serif" font-size="10.00">it.unitn.healthcore.controller.</text>
<text text-anchor="middle" x="79" y="-362.5" font-family="Helvetica,sans-Serif" font-size="10.00">UserController.updateProfile</text>
</a>
</g>
</g>
<!-- Node2 -->
<g id="node2" class="node">
<title>Node2</title>
<g id="a_node2"><a xlink:href="classit_1_1unitn_1_1healthcore_1_1business_1_1UserService.html#a114823fda5c213bb46bc935608bb8953" target="_top" xlink:title=" ">
<polygon fill="white" stroke="black" points="194,-355.5 194,-385.5 359,-385.5 359,-355.5 194,-355.5"/>
<text text-anchor="start" x="202" y="-373.5" font-family="Helvetica,sans-Serif" font-size="10.00">it.unitn.healthcore.business.</text>
<text text-anchor="middle" x="276.5" y="-362.5" font-family="Helvetica,sans-Serif" font-size="10.00">UserService.updateUserProfile</text>
</a>
</g>
</g>
<!-- Node1&#45;&gt;Node2 -->
<g id="edge1" class="edge">
<title>Node1&#45;&gt;Node2</title>
<path fill="none" stroke="midnightblue" d="M158.11,-370.5C166.59,-370.5 175.29,-370.5 183.91,-370.5"/>
<polygon fill="midnightblue" stroke="midnightblue" points="183.99,-374 193.99,-370.5 183.99,-367 183.99,-374"/>
</g>
<!-- Node3 -->
<g id="node3" class="node">
<title>Node3</title>
<g id="a_node3"><a xlink:href="interfaceit_1_1unitn_1_1healthcore_1_1persistence_1_1UserRepository.html#a6a646ae44d01189ff44c81c03fc92fa8" target="_top" xlink:title=" ">
<polygon fill="white" stroke="black" points="666.5,-634.5 666.5,-664.5 840.5,-664.5 840.5,-634.5 666.5,-634.5"/>
<text text-anchor="start" x="674.5" y="-652.5" font-family="Helvetica,sans-Serif" font-size="10.00">it.unitn.healthcore.persistence.</text>
<text text-anchor="middle" x="753.5" y="-641.5" font-family="Helvetica,sans-Serif" font-size="10.00">UserRepository.findUserByEmail</text>
</a>
</g>
</g>
<!-- Node2&#45;&gt;Node3 -->
<g id="edge2" class="edge">
<title>Node2&#45;&gt;Node3</title>
<path fill="none" stroke="midnightblue" d="M279.6,-385.58C286.61,-429.65 313.56,-558.68 395,-615.5 435.84,-644 564.94,-650.17 656.23,-650.78"/>
<polygon fill="midnightblue" stroke="midnightblue" points="656.32,-654.28 666.33,-650.83 656.35,-647.28 656.32,-654.28"/>
</g>
<!-- Node4 -->
<g id="node4" class="node">
<title>Node4</title>
<g id="a_node4"><a xlink:href="classit_1_1unitn_1_1healthcore_1_1business_1_1UserService.html#a33213d05bfda4e7384e17b18332d4bb5" target="_top" xlink:title=" ">
<polygon fill="white" stroke="black" points="425,-667.5 425,-697.5 580,-697.5 580,-667.5 425,-667.5"/>
<text text-anchor="start" x="433" y="-685.5" font-family="Helvetica,sans-Serif" font-size="10.00">it.unitn.healthcore.business.</text>
<text text-anchor="middle" x="502.5" y="-674.5" font-family="Helvetica,sans-Serif" font-size="10.00">UserService.getCurrentUser</text>
</a>
</g>
</g>
<!-- Node2&#45;&gt;Node4 -->
<g id="edge3" class="edge">
<title>Node2&#45;&gt;Node4</title>
<path fill="none" stroke="midnightblue" d="M279.22,-385.68C285.38,-432.79 310.66,-577.74 395,-652.5 401.06,-657.88 408.02,-662.29 415.41,-665.93"/>
<polygon fill="midnightblue" stroke="midnightblue" points="414.41,-669.31 424.98,-670.12 417.22,-662.9 414.41,-669.31"/>
</g>
<!-- Node6 -->
<g id="node6" class="node">
<title>Node6</title>
<g id="a_node6"><a xlink:href="classit_1_1unitn_1_1healthcore_1_1domain_1_1PasswordConfirmationForm.html#ad2a321af868704e56c42d5306a8acd91" target="_top" xlink:title="Email getter.">
<polygon fill="white" stroke="black" points="655,-585.5 655,-615.5 852,-615.5 852,-585.5 655,-585.5"/>
<text text-anchor="start" x="663" y="-603.5" font-family="Helvetica,sans-Serif" font-size="10.00">it.unitn.healthcore.domain.</text>
<text text-anchor="middle" x="753.5" y="-592.5" font-family="Helvetica,sans-Serif" font-size="10.00">PasswordConfirmationForm.getEmail</text>
</a>
</g>
</g>
<!-- Node2&#45;&gt;Node6 -->
<g id="edge6" class="edge">
<title>Node2&#45;&gt;Node6</title>
<path fill="none" stroke="midnightblue" d="M280.7,-385.6C290.1,-425.66 321.65,-534.69 395,-580.5 477.75,-632.18 593.42,-628.01 670.53,-617.05"/>
<polygon fill="midnightblue" stroke="midnightblue" points="671.3,-620.47 680.67,-615.53 670.27,-613.55 671.3,-620.47"/>
</g>
<!-- Node7 -->
<g id="node7" class="node">
<title>Node7</title>
<g id="a_node7"><a xlink:href="classit_1_1unitn_1_1healthcore_1_1domain_1_1User.html#a5b48be6dca19b7d4d43ec2e6a3b91502" target="_top" xlink:title="Returns the email address of the user.">
<polygon fill="white" stroke="black" points="428,-453.5 428,-483.5 577,-483.5 577,-453.5 428,-453.5"/>
<text text-anchor="start" x="436" y="-471.5" font-family="Helvetica,sans-Serif" font-size="10.00">it.unitn.healthcore.domain.</text>
<text text-anchor="middle" x="502.5" y="-460.5" font-family="Helvetica,sans-Serif" font-size="10.00">User.getEmail</text>
</a>
</g>
</g>
<!-- Node2&#45;&gt;Node7 -->
<g id="edge7" class="edge">
<title>Node2&#45;&gt;Node7</title>
<path fill="none" stroke="midnightblue" d="M297.2,-385.56C319.7,-402.06 358.18,-428.22 395,-443.5 402.36,-446.55 410.16,-449.28 418.07,-451.7"/>
<polygon fill="midnightblue" stroke="midnightblue" points="417.17,-455.08 427.75,-454.5 419.12,-448.35 417.17,-455.08"/>
</g>
<!-- Node8 -->
<g id="node8" class="node">
<title>Node8</title>
<g id="a_node8"><a xlink:href="classit_1_1unitn_1_1healthcore_1_1domain_1_1ProfileUpdateForm.html#a74ba2df0ee53889299dc64bd16a6c889" target="_top" xlink:title="Name getter.">
<polygon fill="white" stroke="black" points="425,-404.5 425,-434.5 580,-434.5 580,-404.5 425,-404.5"/>
<text text-anchor="start" x="433" y="-422.5" font-family="Helvetica,sans-Serif" font-size="10.00">it.unitn.healthcore.domain.</text>
<text text-anchor="middle" x="502.5" y="-411.5" font-family="Helvetica,sans-Serif" font-size="10.00">ProfileUpdateForm.getName</text>
</a>
</g>
</g>
<!-- Node2&#45;&gt;Node8 -->
<g id="edge8" class="edge">
<title>Node2&#45;&gt;Node8</title>
<path fill="none" stroke="midnightblue" d="M346.23,-385.53C370.53,-390.85 398.03,-396.87 423.07,-402.34"/>
<polygon fill="midnightblue" stroke="midnightblue" points="422.38,-405.78 432.9,-404.49 423.88,-398.94 422.38,-405.78"/>
</g>
<!-- Node9 -->
<g id="node9" class="node">
<title>Node9</title>
<g id="a_node9"><a xlink:href="classit_1_1unitn_1_1healthcore_1_1domain_1_1User.html#a0c78137c0cf7b414cc88dcc41895d5a7" target="_top" xlink:title="Returns the first name of the user.">
<polygon fill="white" stroke="black" points="428,-355.5 428,-385.5 577,-385.5 577,-355.5 428,-355.5"/>
<text text-anchor="start" x="436" y="-373.5" font-family="Helvetica,sans-Serif" font-size="10.00">it.unitn.healthcore.domain.</text>
<text text-anchor="middle" x="502.5" y="-362.5" font-family="Helvetica,sans-Serif" font-size="10.00">User.getName</text>
</a>
</g>
</g>
<!-- Node2&#45;&gt;Node9 -->
<g id="edge9" class="edge">
<title>Node2&#45;&gt;Node9</title>
<path fill="none" stroke="midnightblue" d="M359,-370.5C378.09,-370.5 398.45,-370.5 417.64,-370.5"/>
<polygon fill="midnightblue" stroke="midnightblue" points="417.86,-374 427.86,-370.5 417.86,-367 417.86,-374"/>
</g>
<!-- Node10 -->
<g id="node10" class="node">
<title>Node10</title>
<g id="a_node10"><a xlink:href="classit_1_1unitn_1_1healthcore_1_1domain_1_1PasswordConfirmationForm.html#aa7de23a583db33eba13ddecad973ceca" target="_top" xlink:title="Password getter.">
<polygon fill="white" stroke="black" points="646,-487.5 646,-517.5 861,-517.5 861,-487.5 646,-487.5"/>
<text text-anchor="start" x="654" y="-505.5" font-family="Helvetica,sans-Serif" font-size="10.00">it.unitn.healthcore.domain.</text>
<text text-anchor="middle" x="753.5" y="-494.5" font-family="Helvetica,sans-Serif" font-size="10.00">PasswordConfirmationForm.getPassword</text>
</a>
</g>
</g>
<!-- Node2&#45;&gt;Node10 -->
<g id="edge10" class="edge">
<title>Node2&#45;&gt;Node10</title>
<path fill="none" stroke="midnightblue" d="M286.44,-385.71C303.5,-413.06 343.63,-469.8 395,-492.5 478.26,-529.29 583.4,-527.22 658.06,-518.74"/>
<polygon fill="midnightblue" stroke="midnightblue" points="658.87,-522.16 668.39,-517.5 658.04,-515.21 658.87,-522.16"/>
</g>
<!-- Node11 -->
<g id="node11" class="node">
<title>Node11</title>
<g id="a_node11"><a xlink:href="classit_1_1unitn_1_1healthcore_1_1domain_1_1PasswordConfirmationForm.html#add77c52ff85c3a8caefe02af899fe10b" target="_top" xlink:title="Password confirmation getter.">
<polygon fill="white" stroke="black" points="395,-295 395,-336 610,-336 610,-295 395,-295"/>
<text text-anchor="start" x="403" y="-324" font-family="Helvetica,sans-Serif" font-size="10.00">it.unitn.healthcore.domain.</text>
<text text-anchor="start" x="403" y="-313" font-family="Helvetica,sans-Serif" font-size="10.00">PasswordConfirmationForm.getPassword</text>
<text text-anchor="middle" x="502.5" y="-302" font-family="Helvetica,sans-Serif" font-size="10.00">Confirmation</text>
</a>
</g>
</g>
<!-- Node2&#45;&gt;Node11 -->
<g id="edge11" class="edge">
<title>Node2&#45;&gt;Node11</title>
<path fill="none" stroke="midnightblue" d="M338.71,-355.47C360.02,-350.24 384.44,-344.24 407.77,-338.51"/>
<polygon fill="midnightblue" stroke="midnightblue" points="408.82,-341.86 417.69,-336.08 407.15,-335.06 408.82,-341.86"/>
</g>
<!-- Node12 -->
<g id="node12" class="node">
<title>Node12</title>
<g id="a_node12"><a xlink:href="classit_1_1unitn_1_1healthcore_1_1domain_1_1ProfileUpdateForm.html#a8bd433fb0c7bfbe8eac0149bbfa707f6" target="_top" xlink:title="Specialization getter.">
<polygon fill="white" stroke="black" points="405.5,-245.5 405.5,-275.5 599.5,-275.5 599.5,-245.5 405.5,-245.5"/>
<text text-anchor="start" x="413.5" y="-263.5" font-family="Helvetica,sans-Serif" font-size="10.00">it.unitn.healthcore.domain.</text>
<text text-anchor="middle" x="502.5" y="-252.5" font-family="Helvetica,sans-Serif" font-size="10.00">ProfileUpdateForm.getSpecialization</text>
</a>
</g>
</g>
<!-- Node2&#45;&gt;Node12 -->
<g id="edge12" class="edge">
<title>Node2&#45;&gt;Node12</title>
<path fill="none" stroke="midnightblue" d="M294.05,-355.2C315.65,-336.05 355.38,-303.59 395,-285.5 400.42,-283.02 406.12,-280.78 411.93,-278.74"/>
<polygon fill="midnightblue" stroke="midnightblue" points="413.4,-281.95 421.82,-275.52 411.22,-275.3 413.4,-281.95"/>
</g>
<!-- Node13 -->
<g id="node13" class="node">
<title>Node13</title>
<g id="a_node13"><a xlink:href="classit_1_1unitn_1_1healthcore_1_1domain_1_1ProfileUpdateForm.html#af0bb243e48137fe877431ee1062a7c41" target="_top" xlink:title="Surname getter.">
<polygon fill="white" stroke="black" points="417.5,-196.5 417.5,-226.5 587.5,-226.5 587.5,-196.5 417.5,-196.5"/>
<text text-anchor="start" x="425.5" y="-214.5" font-family="Helvetica,sans-Serif" font-size="10.00">it.unitn.healthcore.domain.</text>
<text text-anchor="middle" x="502.5" y="-203.5" font-family="Helvetica,sans-Serif" font-size="10.00">ProfileUpdateForm.getSurname</text>
</a>
</g>
</g>
<!-- Node2&#45;&gt;Node13 -->
<g id="edge13" class="edge">
<title>Node2&#45;&gt;Node13</title>
<path fill="none" stroke="midnightblue" d="M286.25,-355.14C303.29,-326.73 343.77,-266.08 395,-235.5 399.11,-233.05 403.44,-230.85 407.91,-228.87"/>
<polygon fill="midnightblue" stroke="midnightblue" points="409.28,-232.09 417.26,-225.12 406.68,-225.59 409.28,-232.09"/>
</g>
<!-- Node14 -->
<g id="node14" class="node">
<title>Node14</title>
<g id="a_node14"><a xlink:href="classit_1_1unitn_1_1healthcore_1_1domain_1_1User.html#a1e52a76c1ad5fb44fe9c312e11203c9e" target="_top" xlink:title="Returns the last name of the user.">
<polygon fill="white" stroke="black" points="428,-147.5 428,-177.5 577,-177.5 577,-147.5 428,-147.5"/>
<text text-anchor="start" x="436" y="-165.5" font-family="Helvetica,sans-Serif" font-size="10.00">it.unitn.healthcore.domain.</text>
<text text-anchor="middle" x="502.5" y="-154.5" font-family="Helvetica,sans-Serif" font-size="10.00">User.getSurname</text>
</a>
</g>
</g>
<!-- Node2&#45;&gt;Node14 -->
<g id="edge14" class="edge">
<title>Node2&#45;&gt;Node14</title>
<path fill="none" stroke="midnightblue" d="M282.61,-355.26C295.41,-319.62 332.34,-230.49 395,-186.5 402.1,-181.52 410.07,-177.55 418.36,-174.39"/>
<polygon fill="midnightblue" stroke="midnightblue" points="419.5,-177.7 427.84,-171.16 417.24,-171.07 419.5,-177.7"/>
</g>
<!-- Node15 -->
<g id="node15" class="node">
<title>Node15</title>
<g id="a_node15"><a xlink:href="classit_1_1unitn_1_1healthcore_1_1business_1_1UserService.html#acc1ae5218e790edcc69ad692c84871a2" target="_top" xlink:title=" ">
<polygon fill="white" stroke="black" points="422,-541.5 422,-571.5 583,-571.5 583,-541.5 422,-541.5"/>
<text text-anchor="start" x="430" y="-559.5" font-family="Helvetica,sans-Serif" font-size="10.00">it.unitn.healthcore.business.</text>
<text text-anchor="middle" x="502.5" y="-548.5" font-family="Helvetica,sans-Serif" font-size="10.00">UserService.recoverPassword</text>
</a>
</g>
</g>
<!-- Node2&#45;&gt;Node15 -->
<g id="edge15" class="edge">
<title>Node2&#45;&gt;Node15</title>
<path fill="none" stroke="midnightblue" d="M284.56,-385.53C300.01,-416.74 339.87,-488.79 395,-526.5 401.16,-530.71 407.9,-534.34 414.91,-537.46"/>
<polygon fill="midnightblue" stroke="midnightblue" points="414.01,-540.87 424.59,-541.4 416.65,-534.39 414.01,-540.87"/>
</g>
<!-- Node17 -->
<g id="node17" class="node">
<title>Node17</title>
<g id="a_node17"><a xlink:href="classit_1_1unitn_1_1healthcore_1_1domain_1_1User.html#a637da3e206f619ffbd1b1589367b2114" target="_top" xlink:title="Sets the email address of the user.">
<polygon fill="white" stroke="black" points="428,-98.5 428,-128.5 577,-128.5 577,-98.5 428,-98.5"/>
<text text-anchor="start" x="436" y="-116.5" font-family="Helvetica,sans-Serif" font-size="10.00">it.unitn.healthcore.domain.</text>
<text text-anchor="middle" x="502.5" y="-105.5" font-family="Helvetica,sans-Serif" font-size="10.00">User.setEmail</text>
</a>
</g>
</g>
<!-- Node2&#45;&gt;Node17 -->
<g id="edge20" class="edge">
<title>Node2&#45;&gt;Node17</title>
<path fill="none" stroke="midnightblue" d="M280.44,-355.41C289.42,-313.62 320.53,-195.61 395,-137.5 401.95,-132.08 409.89,-127.83 418.22,-124.52"/>
<polygon fill="midnightblue" stroke="midnightblue" points="419.51,-127.78 427.78,-121.16 417.18,-121.17 419.51,-127.78"/>
</g>
<!-- Node18 -->
<g id="node18" class="node">
<title>Node18</title>
<g id="a_node18"><a xlink:href="classit_1_1unitn_1_1healthcore_1_1domain_1_1User.html#a91c87abb5e6a05b9a218ee0a9537d0fb" target="_top" xlink:title="Sets the first name of the user.">
<polygon fill="white" stroke="black" points="428,-49.5 428,-79.5 577,-79.5 577,-49.5 428,-49.5"/>
<text text-anchor="start" x="436" y="-67.5" font-family="Helvetica,sans-Serif" font-size="10.00">it.unitn.healthcore.domain.</text>
<text text-anchor="middle" x="502.5" y="-56.5" font-family="Helvetica,sans-Serif" font-size="10.00">User.setName</text>
</a>
</g>
</g>
<!-- Node2&#45;&gt;Node18 -->
<g id="edge21" class="edge">
<title>Node2&#45;&gt;Node18</title>
<path fill="none" stroke="midnightblue" d="M279.01,-355.46C284.6,-308.14 308.51,-161.18 395,-88.5 401.85,-82.74 409.8,-78.29 418.21,-74.86"/>
<polygon fill="midnightblue" stroke="midnightblue" points="419.63,-78.07 427.86,-71.41 417.27,-71.48 419.63,-78.07"/>
</g>
<!-- Node19 -->
<g id="node19" class="node">
<title>Node19</title>
<g id="a_node19"><a xlink:href="classit_1_1unitn_1_1healthcore_1_1domain_1_1User.html#aafba5fb3c10ba03d2e9121427365ec92" target="_top" xlink:title="Sets the last name of the user.">
<polygon fill="white" stroke="black" points="428,-0.5 428,-30.5 577,-30.5 577,-0.5 428,-0.5"/>
<text text-anchor="start" x="436" y="-18.5" font-family="Helvetica,sans-Serif" font-size="10.00">it.unitn.healthcore.domain.</text>
<text text-anchor="middle" x="502.5" y="-7.5" font-family="Helvetica,sans-Serif" font-size="10.00">User.setSurname</text>
</a>
</g>
</g>
<!-- Node2&#45;&gt;Node19 -->
<g id="edge22" class="edge">
<title>Node2&#45;&gt;Node19</title>
<path fill="none" stroke="midnightblue" d="M277.99,-355.18C280.56,-302.46 296.47,-126.91 395,-39.5 401.82,-33.45 409.84,-28.83 418.36,-25.31"/>
<polygon fill="midnightblue" stroke="midnightblue" points="419.56,-28.59 427.78,-21.9 417.18,-22.01 419.56,-28.59"/>
</g>
<!-- Node4&#45;&gt;Node3 -->
<g id="edge4" class="edge">
<title>Node4&#45;&gt;Node3</title>
<path fill="none" stroke="midnightblue" d="M580.24,-672.33C604.33,-669.14 631.24,-665.57 656.5,-662.22"/>
<polygon fill="midnightblue" stroke="midnightblue" points="657,-665.69 666.46,-660.9 656.08,-658.75 657,-665.69"/>
</g>
<!-- Node5 -->
<g id="node5" class="node">
<title>Node5</title>
<g id="a_node5"><a xlink:href="classit_1_1unitn_1_1healthcore_1_1business_1_1UserService.html#a703ed9778e3ac6cd9741220089b5f48d" target="_top" xlink:title=" ">
<polygon fill="white" stroke="black" points="663.5,-683.5 663.5,-713.5 843.5,-713.5 843.5,-683.5 663.5,-683.5"/>
<text text-anchor="start" x="671.5" y="-701.5" font-family="Helvetica,sans-Serif" font-size="10.00">it.unitn.healthcore.business.</text>
<text text-anchor="middle" x="753.5" y="-690.5" font-family="Helvetica,sans-Serif" font-size="10.00">UserService.getCurrentUserEmail</text>
</a>
</g>
</g>
<!-- Node4&#45;&gt;Node5 -->
<g id="edge5" class="edge">
<title>Node4&#45;&gt;Node5</title>
<path fill="none" stroke="midnightblue" d="M580.24,-687.43C603.25,-688.91 628.82,-690.55 653.06,-692.11"/>
<polygon fill="midnightblue" stroke="midnightblue" points="653.16,-695.62 663.36,-692.77 653.61,-688.64 653.16,-695.62"/>
</g>
<!-- Node15&#45;&gt;Node3 -->
<g id="edge16" class="edge">
<title>Node15&#45;&gt;Node3</title>
<path fill="none" stroke="midnightblue" d="M530.03,-571.63C558.07,-587.08 603.97,-610.81 646,-625.5 652.43,-627.75 659.16,-629.84 665.97,-631.77"/>
<polygon fill="midnightblue" stroke="midnightblue" points="665.41,-635.25 675.98,-634.49 667.24,-628.49 665.41,-635.25"/>
</g>
<!-- Node15&#45;&gt;Node6 -->
<g id="edge17" class="edge">
<title>Node15&#45;&gt;Node6</title>
<path fill="none" stroke="midnightblue" d="M583.31,-570.6C606.94,-574.78 633.05,-579.39 657.54,-583.72"/>
<polygon fill="midnightblue" stroke="midnightblue" points="657.1,-587.2 667.55,-585.49 658.32,-580.3 657.1,-587.2"/>
</g>
<!-- Node15&#45;&gt;Node10 -->
<g id="edge18" class="edge">
<title>Node15&#45;&gt;Node10</title>
<path fill="none" stroke="midnightblue" d="M572.86,-541.46C604.03,-534.7 640.97,-526.69 673.23,-519.69"/>
<polygon fill="midnightblue" stroke="midnightblue" points="674.05,-523.09 683.08,-517.55 672.57,-516.25 674.05,-523.09"/>
</g>
<!-- Node16 -->
<g id="node16" class="node">
<title>Node16</title>
<g id="a_node16"><a xlink:href="classit_1_1unitn_1_1healthcore_1_1domain_1_1User.html#aae0addd4b63049c29c751a6c03e17f2c" target="_top" xlink:title="Sets the password of the user.">
<polygon fill="white" stroke="black" points="679,-536.5 679,-566.5 828,-566.5 828,-536.5 679,-536.5"/>
<text text-anchor="start" x="687" y="-554.5" font-family="Helvetica,sans-Serif" font-size="10.00">it.unitn.healthcore.domain.</text>
<text text-anchor="middle" x="753.5" y="-543.5" font-family="Helvetica,sans-Serif" font-size="10.00">User.setPassword</text>
</a>
</g>
</g>
<!-- Node15&#45;&gt;Node16 -->
<g id="edge19" class="edge">
<title>Node15&#45;&gt;Node16</title>
<path fill="none" stroke="midnightblue" d="M583.31,-554.9C610.55,-554.35 641.08,-553.74 668.63,-553.18"/>
<polygon fill="midnightblue" stroke="midnightblue" points="668.7,-556.68 678.63,-552.98 668.56,-549.68 668.7,-556.68"/>
</g>
</g>
</svg>
