<?xml version="1.0" encoding="UTF-8" standalone="no"?>
<!DOCTYPE svg PUBLIC "-//W3C//DTD SVG 1.1//EN"
 "http://www.w3.org/Graphics/SVG/1.1/DTD/svg11.dtd">
<!-- Generated by graphviz version 2.43.0 (0)
 -->
<!-- Title: it.unitn.healthcore.business.UserService.recoverPassword Pages: 1 -->
<svg width="653pt" height="236pt"
 viewBox="0.00 0.00 653.00 236.00" xmlns="http://www.w3.org/2000/svg" xmlns:xlink="http://www.w3.org/1999/xlink">
<g id="graph0" class="graph" transform="scale(1 1) rotate(0) translate(4 232)">
<title>it.unitn.healthcore.business.UserService.recoverPassword</title>
<polygon fill="white" stroke="transparent" points="-4,4 -4,-232 649,-232 649,4 -4,4"/>
<!-- Node1 -->
<g id="node1" class="node">
<title>Node1</title>
<g id="a_node1"><a xlink:title="Recovers the password for a user by verifying the OTP and updating the password in the database.">
<polygon fill="#bfbfbf" stroke="black" points="0,-104.5 0,-134.5 161,-134.5 161,-104.5 0,-104.5"/>
<text text-anchor="start" x="8" y="-122.5" font-family="Helvetica,sans-Serif" font-size="10.00">it.unitn.healthcore.business.</text>
<text text-anchor="middle" x="80.5" y="-111.5" font-family="Helvetica,sans-Serif" font-size="10.00">UserService.recoverPassword</text>
</a>
</g>
</g>
<!-- Node2 -->
<g id="node2" class="node">
<title>Node2</title>
<g id="a_node2"><a xlink:href="interfaceit_1_1unitn_1_1healthcore_1_1persistence_1_1UserRepository.html#a6a646ae44d01189ff44c81c03fc92fa8" target="_top" xlink:title=" ">
<polygon fill="white" stroke="black" points="208.5,-197.5 208.5,-227.5 382.5,-227.5 382.5,-197.5 208.5,-197.5"/>
<text text-anchor="start" x="216.5" y="-215.5" font-family="Helvetica,sans-Serif" font-size="10.00">it.unitn.healthcore.persistence.</text>
<text text-anchor="middle" x="295.5" y="-204.5" font-family="Helvetica,sans-Serif" font-size="10.00">UserRepository.findUserByEmail</text>
</a>
</g>
</g>
<!-- Node1&#45;&gt;Node2 -->
<g id="edge1" class="edge">
<title>Node1&#45;&gt;Node2</title>
<path fill="none" stroke="midnightblue" d="M102.62,-134.76C125.05,-150.31 162,-174.12 197,-188.5 202.14,-190.61 207.51,-192.57 212.98,-194.38"/>
<polygon fill="midnightblue" stroke="midnightblue" points="212.3,-197.84 222.89,-197.48 214.39,-191.15 212.3,-197.84"/>
</g>
<!-- Node3 -->
<g id="node3" class="node">
<title>Node3</title>
<g id="a_node3"><a xlink:href="classit_1_1unitn_1_1healthcore_1_1domain_1_1PasswordConfirmationForm.html#ad2a321af868704e56c42d5306a8acd91" target="_top" xlink:title="Email getter.">
<polygon fill="white" stroke="black" points="197,-148.5 197,-178.5 394,-178.5 394,-148.5 197,-148.5"/>
<text text-anchor="start" x="205" y="-166.5" font-family="Helvetica,sans-Serif" font-size="10.00">it.unitn.healthcore.domain.</text>
<text text-anchor="middle" x="295.5" y="-155.5" font-family="Helvetica,sans-Serif" font-size="10.00">PasswordConfirmationForm.getEmail</text>
</a>
</g>
</g>
<!-- Node1&#45;&gt;Node3 -->
<g id="edge2" class="edge">
<title>Node1&#45;&gt;Node3</title>
<path fill="none" stroke="midnightblue" d="M154.21,-134.52C172.78,-138.36 192.89,-142.51 211.92,-146.44"/>
<polygon fill="midnightblue" stroke="midnightblue" points="211.26,-149.88 221.76,-148.47 212.67,-143.02 211.26,-149.88"/>
</g>
<!-- Node4 -->
<g id="node4" class="node">
<title>Node4</title>
<g id="a_node4"><a xlink:href="classit_1_1unitn_1_1healthcore_1_1domain_1_1PasswordConfirmationForm.html#aa7de23a583db33eba13ddecad973ceca" target="_top" xlink:title="Password getter.">
<polygon fill="white" stroke="black" points="430,-104.5 430,-134.5 645,-134.5 645,-104.5 430,-104.5"/>
<text text-anchor="start" x="438" y="-122.5" font-family="Helvetica,sans-Serif" font-size="10.00">it.unitn.healthcore.domain.</text>
<text text-anchor="middle" x="537.5" y="-111.5" font-family="Helvetica,sans-Serif" font-size="10.00">PasswordConfirmationForm.getPassword</text>
</a>
</g>
</g>
<!-- Node1&#45;&gt;Node4 -->
<g id="edge3" class="edge">
<title>Node1&#45;&gt;Node4</title>
<path fill="none" stroke="midnightblue" d="M161.02,-119.5C232.47,-119.5 338.33,-119.5 419.45,-119.5"/>
<polygon fill="midnightblue" stroke="midnightblue" points="419.72,-123 429.72,-119.5 419.72,-116 419.72,-123"/>
</g>
<!-- Node5 -->
<g id="node5" class="node">
<title>Node5</title>
<g id="a_node5"><a xlink:href="classit_1_1unitn_1_1healthcore_1_1domain_1_1PasswordConfirmationForm.html#a181a1ca7ab3c4d07cb7f3817c1de6974" target="_top" xlink:title="Validates the password confirmation form by checking if the password and confirmation match,...">
<polygon fill="white" stroke="black" points="203,-50 203,-91 388,-91 388,-50 203,-50"/>
<text text-anchor="start" x="211" y="-79" font-family="Helvetica,sans-Serif" font-size="10.00">it.unitn.healthcore.domain.</text>
<text text-anchor="start" x="211" y="-68" font-family="Helvetica,sans-Serif" font-size="10.00">PasswordConfirmationForm.isValid</text>
<text text-anchor="middle" x="295.5" y="-57" font-family="Helvetica,sans-Serif" font-size="10.00">PasswordForm</text>
</a>
</g>
</g>
<!-- Node1&#45;&gt;Node5 -->
<g id="edge4" class="edge">
<title>Node1&#45;&gt;Node5</title>
<path fill="none" stroke="midnightblue" d="M146.85,-104.47C162.15,-100.95 178.78,-97.12 195.18,-93.35"/>
<polygon fill="midnightblue" stroke="midnightblue" points="196.39,-96.66 205.35,-91.01 194.82,-89.84 196.39,-96.66"/>
</g>
<!-- Node7 -->
<g id="node7" class="node">
<title>Node7</title>
<g id="a_node7"><a xlink:href="classit_1_1unitn_1_1healthcore_1_1domain_1_1User.html#aae0addd4b63049c29c751a6c03e17f2c" target="_top" xlink:title="Sets the password of the user.">
<polygon fill="white" stroke="black" points="221,-0.5 221,-30.5 370,-30.5 370,-0.5 221,-0.5"/>
<text text-anchor="start" x="229" y="-18.5" font-family="Helvetica,sans-Serif" font-size="10.00">it.unitn.healthcore.domain.</text>
<text text-anchor="middle" x="295.5" y="-7.5" font-family="Helvetica,sans-Serif" font-size="10.00">User.setPassword</text>
</a>
</g>
</g>
<!-- Node1&#45;&gt;Node7 -->
<g id="edge7" class="edge">
<title>Node1&#45;&gt;Node7</title>
<path fill="none" stroke="midnightblue" d="M99.49,-104.2C121.25,-86.45 159.6,-57.45 197,-40.5 202.4,-38.05 208.09,-35.81 213.89,-33.77"/>
<polygon fill="midnightblue" stroke="midnightblue" points="215.33,-36.98 223.72,-30.52 213.13,-30.34 215.33,-36.98"/>
</g>
<!-- Node5&#45;&gt;Node4 -->
<g id="edge5" class="edge">
<title>Node5&#45;&gt;Node4</title>
<path fill="none" stroke="midnightblue" d="M388.26,-89.23C409.41,-93.55 431.81,-98.13 452.6,-102.37"/>
<polygon fill="midnightblue" stroke="midnightblue" points="452.18,-105.86 462.67,-104.43 453.58,-99 452.18,-105.86"/>
</g>
<!-- Node6 -->
<g id="node6" class="node">
<title>Node6</title>
<g id="a_node6"><a xlink:href="classit_1_1unitn_1_1healthcore_1_1domain_1_1PasswordConfirmationForm.html#add77c52ff85c3a8caefe02af899fe10b" target="_top" xlink:title="Password confirmation getter.">
<polygon fill="white" stroke="black" points="430,-44 430,-85 645,-85 645,-44 430,-44"/>
<text text-anchor="start" x="438" y="-73" font-family="Helvetica,sans-Serif" font-size="10.00">it.unitn.healthcore.domain.</text>
<text text-anchor="start" x="438" y="-62" font-family="Helvetica,sans-Serif" font-size="10.00">PasswordConfirmationForm.getPassword</text>
<text text-anchor="middle" x="537.5" y="-51" font-family="Helvetica,sans-Serif" font-size="10.00">Confirmation</text>
</a>
</g>
</g>
<!-- Node5&#45;&gt;Node6 -->
<g id="edge6" class="edge">
<title>Node5&#45;&gt;Node6</title>
<path fill="none" stroke="midnightblue" d="M388.26,-68.21C398.59,-67.95 409.21,-67.68 419.81,-67.42"/>
<polygon fill="midnightblue" stroke="midnightblue" points="420.03,-70.91 429.94,-67.16 419.85,-63.92 420.03,-70.91"/>
</g>
</g>
</svg>
