<?xml version="1.0" encoding="UTF-8" standalone="no"?>
<!DOCTYPE svg PUBLIC "-//W3C//DTD SVG 1.1//EN"
 "http://www.w3.org/Graphics/SVG/1.1/DTD/svg11.dtd">
<!-- Generated by graphviz version 2.43.0 (0)
 -->
<!-- Title: it.unitn.healthcore.controller.UserController.verifyRecoveryOtp Pages: 1 -->
<svg width="379pt" height="39pt"
 viewBox="0.00 0.00 379.00 39.00" xmlns="http://www.w3.org/2000/svg" xmlns:xlink="http://www.w3.org/1999/xlink">
<g id="graph0" class="graph" transform="scale(1 1) rotate(0) translate(4 35)">
<title>it.unitn.healthcore.controller.UserController.verifyRecoveryOtp</title>
<polygon fill="white" stroke="transparent" points="-4,4 -4,-35 375,-35 375,4 -4,4"/>
<!-- Node1 -->
<g id="node1" class="node">
<title>Node1</title>
<g id="a_node1"><a xlink:title="handle the password recovery request by sending an OTP to the user&#39;s email and redirecting to the OTP...">
<polygon fill="#bfbfbf" stroke="black" points="0,-0.5 0,-30.5 180,-30.5 180,-0.5 0,-0.5"/>
<text text-anchor="start" x="8" y="-18.5" font-family="Helvetica,sans-Serif" font-size="10.00">it.unitn.healthcore.controller.</text>
<text text-anchor="middle" x="90" y="-7.5" font-family="Helvetica,sans-Serif" font-size="10.00">UserController.verifyRecoveryOtp</text>
</a>
</g>
</g>
<!-- Node2 -->
<g id="node2" class="node">
<title>Node2</title>
<g id="a_node2"><a xlink:href="classit_1_1unitn_1_1healthcore_1_1business_1_1UserService.html#ab525154f58a13b4824b1dbf05e86e7b9" target="_top" xlink:title="Verifies the provided OTP (One&#45;Time Password) for user authentication or password recovery.">
<polygon fill="white" stroke="black" points="216,-0.5 216,-30.5 371,-30.5 371,-0.5 216,-0.5"/>
<text text-anchor="start" x="224" y="-18.5" font-family="Helvetica,sans-Serif" font-size="10.00">it.unitn.healthcore.business.</text>
<text text-anchor="middle" x="293.5" y="-7.5" font-family="Helvetica,sans-Serif" font-size="10.00">UserService.verifyOtp</text>
</a>
</g>
</g>
<!-- Node1&#45;&gt;Node2 -->
<g id="edge1" class="edge">
<title>Node1&#45;&gt;Node2</title>
<path fill="none" stroke="midnightblue" d="M180.26,-15.5C188.72,-15.5 197.28,-15.5 205.72,-15.5"/>
<polygon fill="midnightblue" stroke="midnightblue" points="205.92,-19 215.92,-15.5 205.92,-12 205.92,-19"/>
</g>
</g>
</svg>
