<?xml version="1.0" encoding="UTF-8" standalone="no"?>
<!DOCTYPE svg PUBLIC "-//W3C//DTD SVG 1.1//EN"
 "http://www.w3.org/Graphics/SVG/1.1/DTD/svg11.dtd">
<!-- Generated by graphviz version 2.43.0 (0)
 -->
<!-- Title: Graphical Class Hierarchy Pages: 1 -->
<svg width="296pt" height="382pt"
 viewBox="0.00 0.00 296.00 382.00" xmlns="http://www.w3.org/2000/svg" xmlns:xlink="http://www.w3.org/1999/xlink">
<g id="graph0" class="graph" transform="scale(1 1) rotate(0) translate(4 378)">
<title>Graphical Class Hierarchy</title>
<polygon fill="white" stroke="transparent" points="-4,4 -4,-378 292,-378 292,4 -4,4"/>
<!-- Node29 -->
<g id="node1" class="node">
<title>Node29</title>
<g id="a_node1"><a xlink:title=" ">
<polygon fill="white" stroke="#bfbfbf" points="0,-177 0,-196 84,-196 84,-177 0,-177"/>
<text text-anchor="middle" x="42" y="-184" font-family="Helvetica,sans-Serif" font-size="10.00">JpaRepository</text>
</a>
</g>
</g>
<!-- Node0 -->
<g id="node2" class="node">
<title>Node0</title>
<g id="a_node2"><a xlink:href="interfaceit_1_1unitn_1_1healthcore_1_1persistence_1_1AppointmentRepository.html" target="_top" xlink:title="Repository interface for managing Appointment entities in the database.">
<polygon fill="white" stroke="black" points="120,-343.5 120,-373.5 288,-373.5 288,-343.5 120,-343.5"/>
<text text-anchor="start" x="128" y="-361.5" font-family="Helvetica,sans-Serif" font-size="10.00">it.unitn.healthcore.persistence.</text>
<text text-anchor="middle" x="204" y="-350.5" font-family="Helvetica,sans-Serif" font-size="10.00">AppointmentRepository</text>
</a>
</g>
</g>
<!-- Node29&#45;&gt;Node0 -->
<g id="edge1" class="edge">
<title>Node29&#45;&gt;Node0</title>
<path fill="none" stroke="midnightblue" d="M47.77,-205.96C56.55,-237.66 78.31,-300.35 120,-334.5 124.18,-337.92 128.82,-340.86 133.72,-343.37"/>
<polygon fill="midnightblue" stroke="midnightblue" points="51.11,-204.92 45.19,-196.13 44.34,-206.69 51.11,-204.92"/>
</g>
<!-- Node31 -->
<g id="node3" class="node">
<title>Node31</title>
<g id="a_node3"><a xlink:href="interfaceit_1_1unitn_1_1healthcore_1_1persistence_1_1DepartmentRepository.html" target="_top" xlink:title="Repository interface for managing Department entities in the database.">
<polygon fill="white" stroke="black" points="120,-294.5 120,-324.5 288,-324.5 288,-294.5 120,-294.5"/>
<text text-anchor="start" x="128" y="-312.5" font-family="Helvetica,sans-Serif" font-size="10.00">it.unitn.healthcore.persistence.</text>
<text text-anchor="middle" x="204" y="-301.5" font-family="Helvetica,sans-Serif" font-size="10.00">DepartmentRepository</text>
</a>
</g>
</g>
<!-- Node29&#45;&gt;Node31 -->
<g id="edge2" class="edge">
<title>Node29&#45;&gt;Node31</title>
<path fill="none" stroke="midnightblue" d="M52.5,-204.85C65.01,-227.19 89.07,-264.54 120,-285.5 125.09,-288.95 130.68,-291.91 136.48,-294.45"/>
<polygon fill="midnightblue" stroke="midnightblue" points="55.56,-203.15 47.73,-196.02 49.4,-206.48 55.56,-203.15"/>
</g>
<!-- Node32 -->
<g id="node4" class="node">
<title>Node32</title>
<g id="a_node4"><a xlink:href="interfaceit_1_1unitn_1_1healthcore_1_1persistence_1_1DoctorRepository.html" target="_top" xlink:title="Repository interface for managing Doctor entities in the database.">
<polygon fill="white" stroke="black" points="120,-245.5 120,-275.5 288,-275.5 288,-245.5 120,-245.5"/>
<text text-anchor="start" x="128" y="-263.5" font-family="Helvetica,sans-Serif" font-size="10.00">it.unitn.healthcore.persistence.</text>
<text text-anchor="middle" x="204" y="-252.5" font-family="Helvetica,sans-Serif" font-size="10.00">DoctorRepository</text>
</a>
</g>
</g>
<!-- Node29&#45;&gt;Node32 -->
<g id="edge3" class="edge">
<title>Node29&#45;&gt;Node32</title>
<path fill="none" stroke="midnightblue" d="M63.19,-201.99C78.19,-212.88 99.52,-227.14 120,-236.5 127.23,-239.8 135.02,-242.77 142.84,-245.39"/>
<polygon fill="midnightblue" stroke="midnightblue" points="65.26,-199.16 55.15,-196.02 61.09,-204.79 65.26,-199.16"/>
</g>
<!-- Node33 -->
<g id="node5" class="node">
<title>Node33</title>
<g id="a_node5"><a xlink:href="interfaceit_1_1unitn_1_1healthcore_1_1persistence_1_1HospitalRepository.html" target="_top" xlink:title="Repository interface for managing Hospital entities in the database.">
<polygon fill="white" stroke="black" points="120,-196.5 120,-226.5 288,-226.5 288,-196.5 120,-196.5"/>
<text text-anchor="start" x="128" y="-214.5" font-family="Helvetica,sans-Serif" font-size="10.00">it.unitn.healthcore.persistence.</text>
<text text-anchor="middle" x="204" y="-203.5" font-family="Helvetica,sans-Serif" font-size="10.00">HospitalRepository</text>
</a>
</g>
</g>
<!-- Node29&#45;&gt;Node33 -->
<g id="edge4" class="edge">
<title>Node29&#45;&gt;Node33</title>
<path fill="none" stroke="midnightblue" d="M94.33,-194.52C102.54,-195.8 111.22,-197.16 119.95,-198.52"/>
<polygon fill="midnightblue" stroke="midnightblue" points="94.62,-191.02 84.2,-192.94 93.54,-197.94 94.62,-191.02"/>
</g>
<!-- Node34 -->
<g id="node6" class="node">
<title>Node34</title>
<g id="a_node6"><a xlink:href="interfaceit_1_1unitn_1_1healthcore_1_1persistence_1_1InsurancePlanRepository.html" target="_top" xlink:title="Repository interface for managing InsurancePlan entities in the database.">
<polygon fill="white" stroke="black" points="120,-147.5 120,-177.5 288,-177.5 288,-147.5 120,-147.5"/>
<text text-anchor="start" x="128" y="-165.5" font-family="Helvetica,sans-Serif" font-size="10.00">it.unitn.healthcore.persistence.</text>
<text text-anchor="middle" x="204" y="-154.5" font-family="Helvetica,sans-Serif" font-size="10.00">InsurancePlanRepository</text>
</a>
</g>
</g>
<!-- Node29&#45;&gt;Node34 -->
<g id="edge5" class="edge">
<title>Node29&#45;&gt;Node34</title>
<path fill="none" stroke="midnightblue" d="M94.33,-178.8C102.54,-177.57 111.22,-176.27 119.95,-174.96"/>
<polygon fill="midnightblue" stroke="midnightblue" points="93.57,-175.37 84.2,-180.32 94.61,-182.3 93.57,-175.37"/>
</g>
<!-- Node35 -->
<g id="node7" class="node">
<title>Node35</title>
<g id="a_node7"><a xlink:href="interfaceit_1_1unitn_1_1healthcore_1_1persistence_1_1PatientRepository.html" target="_top" xlink:title="Repository interface for managing Patient entities in the database.">
<polygon fill="white" stroke="black" points="120,-98.5 120,-128.5 288,-128.5 288,-98.5 120,-98.5"/>
<text text-anchor="start" x="128" y="-116.5" font-family="Helvetica,sans-Serif" font-size="10.00">it.unitn.healthcore.persistence.</text>
<text text-anchor="middle" x="204" y="-105.5" font-family="Helvetica,sans-Serif" font-size="10.00">PatientRepository</text>
</a>
</g>
</g>
<!-- Node29&#45;&gt;Node35 -->
<g id="edge6" class="edge">
<title>Node29&#45;&gt;Node35</title>
<path fill="none" stroke="midnightblue" d="M64.55,-170.9C79.53,-160.61 100.27,-147.43 120,-138.5 128.09,-134.84 136.86,-131.54 145.56,-128.62"/>
<polygon fill="midnightblue" stroke="midnightblue" points="62.21,-168.27 56.03,-176.87 66.22,-174 62.21,-168.27"/>
</g>
<!-- Node36 -->
<g id="node8" class="node">
<title>Node36</title>
<g id="a_node8"><a xlink:href="interfaceit_1_1unitn_1_1healthcore_1_1persistence_1_1ShiftRepository.html" target="_top" xlink:title="Repository interface for managing Shift entities in the database.">
<polygon fill="white" stroke="black" points="120,-49.5 120,-79.5 288,-79.5 288,-49.5 120,-49.5"/>
<text text-anchor="start" x="128" y="-67.5" font-family="Helvetica,sans-Serif" font-size="10.00">it.unitn.healthcore.persistence.</text>
<text text-anchor="middle" x="204" y="-56.5" font-family="Helvetica,sans-Serif" font-size="10.00">ShiftRepository</text>
</a>
</g>
</g>
<!-- Node29&#45;&gt;Node36 -->
<g id="edge7" class="edge">
<title>Node29&#45;&gt;Node36</title>
<path fill="none" stroke="midnightblue" d="M53,-167.95C65.73,-146.05 89.76,-110.02 120,-89.5 125.73,-85.61 132.08,-82.32 138.64,-79.52"/>
<polygon fill="midnightblue" stroke="midnightblue" points="49.81,-166.48 47.96,-176.91 55.91,-169.91 49.81,-166.48"/>
</g>
<!-- Node37 -->
<g id="node9" class="node">
<title>Node37</title>
<g id="a_node9"><a xlink:href="interfaceit_1_1unitn_1_1healthcore_1_1persistence_1_1UserRepository.html" target="_top" xlink:title="Repository interface for managing User entities in the database.">
<polygon fill="white" stroke="black" points="120,-0.5 120,-30.5 288,-30.5 288,-0.5 120,-0.5"/>
<text text-anchor="start" x="128" y="-18.5" font-family="Helvetica,sans-Serif" font-size="10.00">it.unitn.healthcore.persistence.</text>
<text text-anchor="middle" x="204" y="-7.5" font-family="Helvetica,sans-Serif" font-size="10.00">UserRepository</text>
</a>
</g>
</g>
<!-- Node29&#45;&gt;Node37 -->
<g id="edge8" class="edge">
<title>Node29&#45;&gt;Node37</title>
<path fill="none" stroke="midnightblue" d="M48.02,-166.9C57.05,-135.55 79.04,-74.24 120,-40.5 124.65,-36.67 129.87,-33.43 135.37,-30.69"/>
<polygon fill="midnightblue" stroke="midnightblue" points="44.61,-166.08 45.35,-176.65 51.36,-167.92 44.61,-166.08"/>
</g>
</g>
</svg>
