<?xml version="1.0" encoding="UTF-8" standalone="no"?>
<!DOCTYPE svg PUBLIC "-//W3C//DTD SVG 1.1//EN"
 "http://www.w3.org/Graphics/SVG/1.1/DTD/svg11.dtd">
<!-- Generated by graphviz version 2.43.0 (0)
 -->
<!-- Title: Graphical Class Hierarchy Pages: 1 -->
<svg width="364pt" height="137pt"
 viewBox="0.00 0.00 364.00 137.00" xmlns="http://www.w3.org/2000/svg" xmlns:xlink="http://www.w3.org/1999/xlink">
<g id="graph0" class="graph" transform="scale(1 1) rotate(0) translate(4 133)">
<title>Graphical Class Hierarchy</title>
<polygon fill="white" stroke="transparent" points="-4,4 -4,-133 360,-133 360,4 -4,4"/>
<!-- Node0 -->
<g id="node1" class="node">
<title>Node0</title>
<g id="a_node1"><a xlink:href="classit_1_1unitn_1_1healthcore_1_1domain_1_1User.html" target="_top" xlink:title="Represents a general user in our system.">
<polygon fill="white" stroke="black" points="0,-55 0,-74 171,-74 171,-55 0,-55"/>
<text text-anchor="middle" x="85.5" y="-62" font-family="Helvetica,sans-Serif" font-size="10.00">it.unitn.healthcore.domain.User</text>
</a>
</g>
</g>
<!-- Node1 -->
<g id="node2" class="node">
<title>Node1</title>
<g id="a_node2"><a xlink:href="classit_1_1unitn_1_1healthcore_1_1domain_1_1Administrator.html" target="_top" xlink:title="Administrator entity mapped to the &quot;administrators&quot; table, extends User.">
<polygon fill="white" stroke="black" points="207,-98.5 207,-128.5 356,-128.5 356,-98.5 207,-98.5"/>
<text text-anchor="start" x="215" y="-116.5" font-family="Helvetica,sans-Serif" font-size="10.00">it.unitn.healthcore.domain.</text>
<text text-anchor="middle" x="281.5" y="-105.5" font-family="Helvetica,sans-Serif" font-size="10.00">Administrator</text>
</a>
</g>
</g>
<!-- Node0&#45;&gt;Node1 -->
<g id="edge1" class="edge">
<title>Node0&#45;&gt;Node1</title>
<path fill="none" stroke="midnightblue" d="M134.07,-76.51C160.28,-83.14 193.07,-91.42 220.97,-98.46"/>
<polygon fill="midnightblue" stroke="midnightblue" points="134.92,-73.12 124.37,-74.06 133.2,-79.91 134.92,-73.12"/>
</g>
<!-- Node2 -->
<g id="node3" class="node">
<title>Node2</title>
<g id="a_node3"><a xlink:href="classit_1_1unitn_1_1healthcore_1_1domain_1_1Doctor.html" target="_top" xlink:title="Represents a doctor in our system, extending the general User class.">
<polygon fill="white" stroke="black" points="207,-49.5 207,-79.5 356,-79.5 356,-49.5 207,-49.5"/>
<text text-anchor="start" x="215" y="-67.5" font-family="Helvetica,sans-Serif" font-size="10.00">it.unitn.healthcore.domain.</text>
<text text-anchor="middle" x="281.5" y="-56.5" font-family="Helvetica,sans-Serif" font-size="10.00">Doctor</text>
</a>
</g>
</g>
<!-- Node0&#45;&gt;Node2 -->
<g id="edge2" class="edge">
<title>Node0&#45;&gt;Node2</title>
<path fill="none" stroke="midnightblue" d="M181.15,-64.5C189.8,-64.5 198.47,-64.5 206.9,-64.5"/>
<polygon fill="midnightblue" stroke="midnightblue" points="181.03,-61 171.03,-64.5 181.03,-68 181.03,-61"/>
</g>
<!-- Node3 -->
<g id="node4" class="node">
<title>Node3</title>
<g id="a_node4"><a xlink:href="classit_1_1unitn_1_1healthcore_1_1domain_1_1Patient.html" target="_top" xlink:title="Represents a patient in our system, extending the User class.">
<polygon fill="white" stroke="black" points="207,-0.5 207,-30.5 356,-30.5 356,-0.5 207,-0.5"/>
<text text-anchor="start" x="215" y="-18.5" font-family="Helvetica,sans-Serif" font-size="10.00">it.unitn.healthcore.domain.</text>
<text text-anchor="middle" x="281.5" y="-7.5" font-family="Helvetica,sans-Serif" font-size="10.00">Patient</text>
</a>
</g>
</g>
<!-- Node0&#45;&gt;Node3 -->
<g id="edge3" class="edge">
<title>Node0&#45;&gt;Node3</title>
<path fill="none" stroke="midnightblue" d="M134.07,-52.49C160.28,-45.86 193.07,-37.58 220.97,-30.54"/>
<polygon fill="midnightblue" stroke="midnightblue" points="133.2,-49.09 124.37,-54.94 134.92,-55.88 133.2,-49.09"/>
</g>
</g>
</svg>
