<?xml version="1.0" encoding="UTF-8" standalone="no"?>
<!DOCTYPE svg PUBLIC "-//W3C//DTD SVG 1.1//EN"
 "http://www.w3.org/Graphics/SVG/1.1/DTD/svg11.dtd">
<!-- Generated by graphviz version 2.43.0 (0)
 -->
<!-- Title: it.unitn.healthcore.persistence.UserRepository.findUserByEmail Pages: 1 -->
<svg width="931pt" height="737pt"
 viewBox="0.00 0.00 931.00 737.00" xmlns="http://www.w3.org/2000/svg" xmlns:xlink="http://www.w3.org/1999/xlink">
<g id="graph0" class="graph" transform="scale(1 1) rotate(0) translate(4 733)">
<title>it.unitn.healthcore.persistence.UserRepository.findUserByEmail</title>
<polygon fill="white" stroke="transparent" points="-4,4 -4,-733 927,-733 927,4 -4,4"/>
<!-- Node1 -->
<g id="node1" class="node">
<title>Node1</title>
<g id="a_node1"><a xlink:title=" ">
<polygon fill="#bfbfbf" stroke="black" points="749,-98.5 749,-128.5 923,-128.5 923,-98.5 749,-98.5"/>
<text text-anchor="start" x="757" y="-116.5" font-family="Helvetica,sans-Serif" font-size="10.00">it.unitn.healthcore.persistence.</text>
<text text-anchor="middle" x="836" y="-105.5" font-family="Helvetica,sans-Serif" font-size="10.00">UserRepository.findUserByEmail</text>
</a>
</g>
</g>
<!-- Node2 -->
<g id="node2" class="node">
<title>Node2</title>
<g id="a_node2"><a xlink:href="classit_1_1unitn_1_1healthcore_1_1business_1_1UserService.html#a33213d05bfda4e7384e17b18332d4bb5" target="_top" xlink:title="Retrieves the currently authenticated user from the database.">
<polygon fill="white" stroke="black" points="543,-367.5 543,-397.5 698,-397.5 698,-367.5 543,-367.5"/>
<text text-anchor="start" x="551" y="-385.5" font-family="Helvetica,sans-Serif" font-size="10.00">it.unitn.healthcore.business.</text>
<text text-anchor="middle" x="620.5" y="-374.5" font-family="Helvetica,sans-Serif" font-size="10.00">UserService.getCurrentUser</text>
</a>
</g>
</g>
<!-- Node1&#45;&gt;Node2 -->
<g id="edge1" class="edge">
<title>Node1&#45;&gt;Node2</title>
<path fill="none" stroke="midnightblue" d="M816.61,-136.67C773.9,-190.48 668.96,-322.71 633.46,-367.43"/>
<polygon fill="midnightblue" stroke="midnightblue" points="819.43,-138.74 822.91,-128.73 813.95,-134.39 819.43,-138.74"/>
</g>
<!-- Node24 -->
<g id="node24" class="node">
<title>Node24</title>
<g id="a_node24"><a xlink:href="classit_1_1unitn_1_1healthcore_1_1business_1_1UserService.html#a114823fda5c213bb46bc935608bb8953" target="_top" xlink:title="Updates the profile of the currently authenticated user based on the provided object .">
<polygon fill="white" stroke="black" points="293,-98.5 293,-128.5 458,-128.5 458,-98.5 293,-98.5"/>
<text text-anchor="start" x="301" y="-116.5" font-family="Helvetica,sans-Serif" font-size="10.00">it.unitn.healthcore.business.</text>
<text text-anchor="middle" x="375.5" y="-105.5" font-family="Helvetica,sans-Serif" font-size="10.00">UserService.updateUserProfile</text>
</a>
</g>
</g>
<!-- Node1&#45;&gt;Node24 -->
<g id="edge34" class="edge">
<title>Node1&#45;&gt;Node24</title>
<path fill="none" stroke="midnightblue" d="M763.78,-130.61C747.21,-133.89 729.57,-136.82 713,-138.5 631.2,-146.8 609.95,-145.22 528,-138.5 503.29,-136.48 476.54,-132.62 452.49,-128.54"/>
<polygon fill="midnightblue" stroke="midnightblue" points="764.84,-133.97 773.93,-128.53 763.44,-127.11 764.84,-133.97"/>
</g>
<!-- Node28 -->
<g id="node28" class="node">
<title>Node28</title>
<g id="a_node28"><a xlink:href="classit_1_1unitn_1_1healthcore_1_1business_1_1UserService.html#a88e927ad954f21615b6f2ffa4fe90de2" target="_top" xlink:title="Loads a user by their username (email) for authentication purposes.">
<polygon fill="white" stroke="black" points="528,-98.5 528,-128.5 713,-128.5 713,-98.5 528,-98.5"/>
<text text-anchor="start" x="536" y="-116.5" font-family="Helvetica,sans-Serif" font-size="10.00">it.unitn.healthcore.business.</text>
<text text-anchor="middle" x="620.5" y="-105.5" font-family="Helvetica,sans-Serif" font-size="10.00">UserService.loadUserByUsername</text>
</a>
</g>
</g>
<!-- Node1&#45;&gt;Node28 -->
<g id="edge28" class="edge">
<title>Node1&#45;&gt;Node28</title>
<path fill="none" stroke="midnightblue" d="M738.57,-113.5C730.15,-113.5 721.65,-113.5 713.28,-113.5"/>
<polygon fill="midnightblue" stroke="midnightblue" points="738.78,-117 748.78,-113.5 738.78,-110 738.78,-117"/>
</g>
<!-- Node29 -->
<g id="node29" class="node">
<title>Node29</title>
<g id="a_node29"><a xlink:href="classit_1_1unitn_1_1healthcore_1_1business_1_1UserService.html#acc1ae5218e790edcc69ad692c84871a2" target="_top" xlink:title="Recovers the password for a user by verifying the OTP and updating the password in the database.">
<polygon fill="white" stroke="black" points="540,-49.5 540,-79.5 701,-79.5 701,-49.5 540,-49.5"/>
<text text-anchor="start" x="548" y="-67.5" font-family="Helvetica,sans-Serif" font-size="10.00">it.unitn.healthcore.business.</text>
<text text-anchor="middle" x="620.5" y="-56.5" font-family="Helvetica,sans-Serif" font-size="10.00">UserService.recoverPassword</text>
</a>
</g>
</g>
<!-- Node1&#45;&gt;Node29 -->
<g id="edge29" class="edge">
<title>Node1&#45;&gt;Node29</title>
<path fill="none" stroke="midnightblue" d="M759.49,-96.17C735.78,-90.73 709.83,-84.77 686.88,-79.51"/>
<polygon fill="midnightblue" stroke="midnightblue" points="758.96,-99.64 769.49,-98.47 760.53,-92.82 758.96,-99.64"/>
</g>
<!-- Node31 -->
<g id="node31" class="node">
<title>Node31</title>
<g id="a_node31"><a xlink:href="classit_1_1unitn_1_1healthcore_1_1business_1_1UserService.html#a262646caddacb1ce9c3a009beecdd52d" target="_top" xlink:title="Sends an OTP (One&#45;Time Password) to the specified email address for user authentication or password r...">
<polygon fill="white" stroke="black" points="543,-0.5 543,-30.5 698,-30.5 698,-0.5 543,-0.5"/>
<text text-anchor="start" x="551" y="-18.5" font-family="Helvetica,sans-Serif" font-size="10.00">it.unitn.healthcore.business.</text>
<text text-anchor="middle" x="620.5" y="-7.5" font-family="Helvetica,sans-Serif" font-size="10.00">UserService.sendOtp</text>
</a>
</g>
</g>
<!-- Node1&#45;&gt;Node31 -->
<g id="edge32" class="edge">
<title>Node1&#45;&gt;Node31</title>
<path fill="none" stroke="midnightblue" d="M806.13,-92.69C782.18,-76.26 746.72,-53.79 713,-39.5 705.14,-36.17 696.69,-33.2 688.23,-30.58"/>
<polygon fill="midnightblue" stroke="midnightblue" points="804.2,-95.61 814.4,-98.44 808.19,-89.86 804.2,-95.61"/>
</g>
<!-- Node3 -->
<g id="node3" class="node">
<title>Node3</title>
<g id="a_node3"><a xlink:href="classit_1_1unitn_1_1healthcore_1_1business_1_1PatientService.html#ac33e02f57cc7f1ef55dd59cb5673781a" target="_top" xlink:title="Books an appointment with a specified doctor for the currently authenticated patient.">
<polygon fill="white" stroke="black" points="287.5,-698.5 287.5,-728.5 463.5,-728.5 463.5,-698.5 287.5,-698.5"/>
<text text-anchor="start" x="295.5" y="-716.5" font-family="Helvetica,sans-Serif" font-size="10.00">it.unitn.healthcore.business.</text>
<text text-anchor="middle" x="375.5" y="-705.5" font-family="Helvetica,sans-Serif" font-size="10.00">PatientService.bookAppointment</text>
</a>
</g>
</g>
<!-- Node2&#45;&gt;Node3 -->
<g id="edge2" class="edge">
<title>Node2&#45;&gt;Node3</title>
<path fill="none" stroke="midnightblue" d="M616.91,-407.45C609.39,-466.42 582.01,-615.05 492,-689.5 483.71,-696.35 473.97,-701.4 463.71,-705.1"/>
<polygon fill="midnightblue" stroke="midnightblue" points="620.39,-407.86 618.09,-397.52 613.44,-407.03 620.39,-407.86"/>
</g>
<!-- Node5 -->
<g id="node5" class="node">
<title>Node5</title>
<g id="a_node5"><a xlink:href="classit_1_1unitn_1_1healthcore_1_1business_1_1PatientService.html#a7f10372a6537c0f235e585bdb8b87c30" target="_top" xlink:title="Cancels an existing appointment for the currently authenticated patient.">
<polygon fill="white" stroke="black" points="283.5,-649.5 283.5,-679.5 467.5,-679.5 467.5,-649.5 283.5,-649.5"/>
<text text-anchor="start" x="291.5" y="-667.5" font-family="Helvetica,sans-Serif" font-size="10.00">it.unitn.healthcore.business.</text>
<text text-anchor="middle" x="375.5" y="-656.5" font-family="Helvetica,sans-Serif" font-size="10.00">PatientService.cancelAppointment</text>
</a>
</g>
</g>
<!-- Node2&#45;&gt;Node5 -->
<g id="edge4" class="edge">
<title>Node2&#45;&gt;Node5</title>
<path fill="none" stroke="midnightblue" d="M614.71,-407.71C603.39,-459.98 569.85,-580.29 492,-640.5 484.71,-646.14 476.41,-650.54 467.69,-653.96"/>
<polygon fill="midnightblue" stroke="midnightblue" points="618.19,-408.14 616.8,-397.63 611.34,-406.72 618.19,-408.14"/>
</g>
<!-- Node7 -->
<g id="node7" class="node">
<title>Node7</title>
<g id="a_node7"><a xlink:href="classit_1_1unitn_1_1healthcore_1_1controller_1_1UserController.html#aa9d85586ed83e4d9865621769e24fd81" target="_top" xlink:title="delete the current user&#39;s account and redirect to the login page.">
<polygon fill="white" stroke="black" points="296,-600.5 296,-630.5 455,-630.5 455,-600.5 296,-600.5"/>
<text text-anchor="start" x="304" y="-618.5" font-family="Helvetica,sans-Serif" font-size="10.00">it.unitn.healthcore.controller.</text>
<text text-anchor="middle" x="375.5" y="-607.5" font-family="Helvetica,sans-Serif" font-size="10.00">UserController.deleteAccount</text>
</a>
</g>
</g>
<!-- Node2&#45;&gt;Node7 -->
<g id="edge6" class="edge">
<title>Node2&#45;&gt;Node7</title>
<path fill="none" stroke="midnightblue" d="M611.59,-407.39C596.18,-451.67 557.72,-543.88 492,-590.5 481.12,-598.22 468.32,-603.63 455.28,-607.4"/>
<polygon fill="midnightblue" stroke="midnightblue" points="614.98,-408.3 614.86,-397.71 608.35,-406.07 614.98,-408.3"/>
</g>
<!-- Node8 -->
<g id="node8" class="node">
<title>Node8</title>
<g id="a_node8"><a xlink:href="classit_1_1unitn_1_1healthcore_1_1business_1_1AppointmentService.html#a6df398766f183e79fe315aea5f1752a4" target="_top" xlink:title="Retrieves detailed information about a specific appointment based on the appointment ID.">
<polygon fill="white" stroke="black" points="277,-540 277,-581 474,-581 474,-540 277,-540"/>
<text text-anchor="start" x="285" y="-569" font-family="Helvetica,sans-Serif" font-size="10.00">it.unitn.healthcore.business.</text>
<text text-anchor="start" x="285" y="-558" font-family="Helvetica,sans-Serif" font-size="10.00">AppointmentService.getAppointment</text>
<text text-anchor="middle" x="375.5" y="-547" font-family="Helvetica,sans-Serif" font-size="10.00">Details</text>
</a>
</g>
</g>
<!-- Node2&#45;&gt;Node8 -->
<g id="edge7" class="edge">
<title>Node2&#45;&gt;Node8</title>
<path fill="none" stroke="midnightblue" d="M605.56,-406.32C584.98,-439.34 543.32,-498.55 492,-530.5 486.28,-534.06 480.16,-537.2 473.82,-539.97"/>
<polygon fill="midnightblue" stroke="midnightblue" points="608.57,-408.11 610.79,-397.75 602.6,-404.46 608.57,-408.11"/>
</g>
<!-- Node11 -->
<g id="node11" class="node">
<title>Node11</title>
<g id="a_node11"><a xlink:href="classit_1_1unitn_1_1healthcore_1_1business_1_1DoctorService.html#a96292ffc9ef487c31145d1cd00f22b4e" target="_top" xlink:title="Retrieves the shifts of the currently authenticated doctor.">
<polygon fill="white" stroke="black" points="276,-490.5 276,-520.5 475,-520.5 475,-490.5 276,-490.5"/>
<text text-anchor="start" x="284" y="-508.5" font-family="Helvetica,sans-Serif" font-size="10.00">it.unitn.healthcore.business.</text>
<text text-anchor="middle" x="375.5" y="-497.5" font-family="Helvetica,sans-Serif" font-size="10.00">DoctorService.getCurrentDoctorShifts</text>
</a>
</g>
</g>
<!-- Node2&#45;&gt;Node11 -->
<g id="edge10" class="edge">
<title>Node2&#45;&gt;Node11</title>
<path fill="none" stroke="midnightblue" d="M597.5,-404.78C573.63,-427.62 533.38,-462.4 492,-481.5 484.56,-484.93 476.63,-487.88 468.54,-490.41"/>
<polygon fill="midnightblue" stroke="midnightblue" points="600.22,-407.02 604.94,-397.54 595.33,-402.01 600.22,-407.02"/>
</g>
<!-- Node13 -->
<g id="node13" class="node">
<title>Node13</title>
<g id="a_node13"><a xlink:href="classit_1_1unitn_1_1healthcore_1_1business_1_1PatientService.html#a9c5655c1b706c7dba40efb883c900a39" target="_top" xlink:title="Retrieves the current insurance plan for the authenticated patient.">
<polygon fill="white" stroke="black" points="271,-441.5 271,-471.5 480,-471.5 480,-441.5 271,-441.5"/>
<text text-anchor="start" x="279" y="-459.5" font-family="Helvetica,sans-Serif" font-size="10.00">it.unitn.healthcore.business.</text>
<text text-anchor="middle" x="375.5" y="-448.5" font-family="Helvetica,sans-Serif" font-size="10.00">PatientService.getCurrentInsurancePlan</text>
</a>
</g>
</g>
<!-- Node2&#45;&gt;Node13 -->
<g id="edge12" class="edge">
<title>Node2&#45;&gt;Node13</title>
<path fill="none" stroke="midnightblue" d="M576.35,-401.52C551.95,-411.75 520.67,-423.97 492,-432.5 481.01,-435.77 469.3,-438.76 457.71,-441.43"/>
<polygon fill="midnightblue" stroke="midnightblue" points="577.84,-404.69 585.69,-397.57 575.11,-398.25 577.84,-404.69"/>
</g>
<!-- Node15 -->
<g id="node15" class="node">
<title>Node15</title>
<g id="a_node15"><a xlink:href="classit_1_1unitn_1_1healthcore_1_1business_1_1AppointmentService.html#aed50e6f0cf3a16af4d8754c66060512d" target="_top" xlink:title="Retrieves a list of future appointments for the currently authenticated user.">
<polygon fill="white" stroke="black" points="259,-343.5 259,-373.5 492,-373.5 492,-343.5 259,-343.5"/>
<text text-anchor="start" x="267" y="-361.5" font-family="Helvetica,sans-Serif" font-size="10.00">it.unitn.healthcore.business.</text>
<text text-anchor="middle" x="375.5" y="-350.5" font-family="Helvetica,sans-Serif" font-size="10.00">AppointmentService.getFutureAppointments</text>
</a>
</g>
</g>
<!-- Node2&#45;&gt;Node15 -->
<g id="edge14" class="edge">
<title>Node2&#45;&gt;Node15</title>
<path fill="none" stroke="midnightblue" d="M532.97,-373.95C519.76,-372.65 505.94,-371.28 492.23,-369.93"/>
<polygon fill="midnightblue" stroke="midnightblue" points="532.65,-377.44 542.95,-374.94 533.34,-370.47 532.65,-377.44"/>
</g>
<!-- Node18 -->
<g id="node18" class="node">
<title>Node18</title>
<g id="a_node18"><a xlink:href="classit_1_1unitn_1_1healthcore_1_1business_1_1AppointmentService.html#aaaacaf474fcb34004e52bafc3ade271d" target="_top" xlink:title="Retrieves a list of past appointments for the currently authenticated user.">
<polygon fill="white" stroke="black" points="264,-294.5 264,-324.5 487,-324.5 487,-294.5 264,-294.5"/>
<text text-anchor="start" x="272" y="-312.5" font-family="Helvetica,sans-Serif" font-size="10.00">it.unitn.healthcore.business.</text>
<text text-anchor="middle" x="375.5" y="-301.5" font-family="Helvetica,sans-Serif" font-size="10.00">AppointmentService.getPastAppointments</text>
</a>
</g>
</g>
<!-- Node2&#45;&gt;Node18 -->
<g id="edge17" class="edge">
<title>Node2&#45;&gt;Node18</title>
<path fill="none" stroke="midnightblue" d="M574.12,-363.56C550.02,-353.97 519.72,-342.67 492,-334.5 479.7,-330.87 466.52,-327.53 453.63,-324.54"/>
<polygon fill="midnightblue" stroke="midnightblue" points="573.12,-366.93 583.71,-367.41 575.73,-360.43 573.12,-366.93"/>
</g>
<!-- Node21 -->
<g id="node21" class="node">
<title>Node21</title>
<g id="a_node21"><a xlink:href="classit_1_1unitn_1_1healthcore_1_1business_1_1PatientService.html#ab8266c492da03f9b5e38829e698129c6" target="_top" xlink:title="Modifies an existing appointment for the currently authenticated patient.">
<polygon fill="white" stroke="black" points="282.5,-245.5 282.5,-275.5 468.5,-275.5 468.5,-245.5 282.5,-245.5"/>
<text text-anchor="start" x="290.5" y="-263.5" font-family="Helvetica,sans-Serif" font-size="10.00">it.unitn.healthcore.business.</text>
<text text-anchor="middle" x="375.5" y="-252.5" font-family="Helvetica,sans-Serif" font-size="10.00">PatientService.modifyAppointment</text>
</a>
</g>
</g>
<!-- Node2&#45;&gt;Node21 -->
<g id="edge20" class="edge">
<title>Node2&#45;&gt;Node21</title>
<path fill="none" stroke="midnightblue" d="M596.98,-360.38C572.97,-338.07 532.85,-304.32 492,-285.5 483.61,-281.64 474.61,-278.36 465.46,-275.58"/>
<polygon fill="midnightblue" stroke="midnightblue" points="594.81,-363.14 604.48,-367.47 599.62,-358.06 594.81,-363.14"/>
</g>
<!-- Node23 -->
<g id="node23" class="node">
<title>Node23</title>
<g id="a_node23"><a xlink:href="classit_1_1unitn_1_1healthcore_1_1business_1_1PatientService.html#a541ee9273fd696797608c005eb4d2f78" target="_top" xlink:title="Updates the insurance plan for the currently authenticated patient.">
<polygon fill="white" stroke="black" points="280,-392.5 280,-422.5 471,-422.5 471,-392.5 280,-392.5"/>
<text text-anchor="start" x="288" y="-410.5" font-family="Helvetica,sans-Serif" font-size="10.00">it.unitn.healthcore.business.</text>
<text text-anchor="middle" x="375.5" y="-399.5" font-family="Helvetica,sans-Serif" font-size="10.00">PatientService.updateInsurancePlan</text>
</a>
</g>
</g>
<!-- Node2&#45;&gt;Node23 -->
<g id="edge22" class="edge">
<title>Node2&#45;&gt;Node23</title>
<path fill="none" stroke="midnightblue" d="M532.91,-391.41C512.86,-393.47 491.41,-395.68 471.03,-397.77"/>
<polygon fill="midnightblue" stroke="midnightblue" points="533.36,-394.88 542.95,-390.38 532.64,-387.92 533.36,-394.88"/>
</g>
<!-- Node2&#45;&gt;Node24 -->
<g id="edge24" class="edge">
<title>Node2&#45;&gt;Node24</title>
<path fill="none" stroke="midnightblue" d="M613.89,-357.3C601.37,-307.2 566.2,-195.05 492,-138.5 482.05,-130.91 470.28,-125.52 458.13,-121.71"/>
<polygon fill="midnightblue" stroke="midnightblue" points="610.55,-358.38 616.29,-367.28 617.36,-356.74 610.55,-358.38"/>
</g>
<!-- Node26 -->
<g id="node26" class="node">
<title>Node26</title>
<g id="a_node26"><a xlink:href="classit_1_1unitn_1_1healthcore_1_1controller_1_1UserController.html#a72a0e87005b1b6a91822302d4888d3cf" target="_top" xlink:title="display the user&#39;s homepage after successful login and OTP verification.">
<polygon fill="white" stroke="black" points="293.5,-196.5 293.5,-226.5 457.5,-226.5 457.5,-196.5 293.5,-196.5"/>
<text text-anchor="start" x="301.5" y="-214.5" font-family="Helvetica,sans-Serif" font-size="10.00">it.unitn.healthcore.controller.</text>
<text text-anchor="middle" x="375.5" y="-203.5" font-family="Helvetica,sans-Serif" font-size="10.00">UserController.userHomepage</text>
</a>
</g>
</g>
<!-- Node2&#45;&gt;Node26 -->
<g id="edge26" class="edge">
<title>Node2&#45;&gt;Node26</title>
<path fill="none" stroke="midnightblue" d="M605.66,-358.71C585.19,-325.79 543.66,-266.98 492,-236.5 481.49,-230.3 469.62,-225.63 457.6,-222.11"/>
<polygon fill="midnightblue" stroke="midnightblue" points="602.67,-360.54 610.86,-367.26 608.65,-356.9 602.67,-360.54"/>
</g>
<!-- Node27 -->
<g id="node27" class="node">
<title>Node27</title>
<g id="a_node27"><a xlink:href="classit_1_1unitn_1_1healthcore_1_1controller_1_1UserController.html#a1e63710c7af819cd744147b3a65d3302" target="_top" xlink:title="Retrieves the profile information of the currently authenticated user.">
<polygon fill="white" stroke="black" points="296.5,-147.5 296.5,-177.5 454.5,-177.5 454.5,-147.5 296.5,-147.5"/>
<text text-anchor="start" x="304.5" y="-165.5" font-family="Helvetica,sans-Serif" font-size="10.00">it.unitn.healthcore.controller.</text>
<text text-anchor="middle" x="375.5" y="-154.5" font-family="Helvetica,sans-Serif" font-size="10.00">UserController.viewProfile</text>
</a>
</g>
</g>
<!-- Node2&#45;&gt;Node27 -->
<g id="edge27" class="edge">
<title>Node2&#45;&gt;Node27</title>
<path fill="none" stroke="midnightblue" d="M610.67,-357.96C594.24,-315.97 554.81,-230.7 492,-187.5 480.93,-179.89 467.96,-174.53 454.79,-170.78"/>
<polygon fill="midnightblue" stroke="midnightblue" points="607.44,-359.32 614.27,-367.42 613.99,-356.83 607.44,-359.32"/>
</g>
<!-- Node4 -->
<g id="node4" class="node">
<title>Node4</title>
<g id="a_node4"><a xlink:href="classit_1_1unitn_1_1healthcore_1_1controller_1_1PatientController.html#a6c1b2c866308e0723c5b9157149ab47b" target="_top" xlink:title="Books an appointment with a specified doctor for the authenticated patient.">
<polygon fill="white" stroke="black" points="17.5,-698.5 17.5,-728.5 205.5,-728.5 205.5,-698.5 17.5,-698.5"/>
<text text-anchor="start" x="25.5" y="-716.5" font-family="Helvetica,sans-Serif" font-size="10.00">it.unitn.healthcore.controller.</text>
<text text-anchor="middle" x="111.5" y="-705.5" font-family="Helvetica,sans-Serif" font-size="10.00">PatientController.bookAppointment</text>
</a>
</g>
</g>
<!-- Node3&#45;&gt;Node4 -->
<g id="edge3" class="edge">
<title>Node3&#45;&gt;Node4</title>
<path fill="none" stroke="midnightblue" d="M277.01,-713.5C253.66,-713.5 228.8,-713.5 205.66,-713.5"/>
<polygon fill="midnightblue" stroke="midnightblue" points="277.26,-717 287.26,-713.5 277.26,-710 277.26,-717"/>
</g>
<!-- Node6 -->
<g id="node6" class="node">
<title>Node6</title>
<g id="a_node6"><a xlink:href="classit_1_1unitn_1_1healthcore_1_1controller_1_1PatientController.html#a3a3ac977996cfd51ff42b9386dccc075" target="_top" xlink:title="Cancels an existing appointment for the authenticated patient.">
<polygon fill="white" stroke="black" points="14,-649.5 14,-679.5 209,-679.5 209,-649.5 14,-649.5"/>
<text text-anchor="start" x="22" y="-667.5" font-family="Helvetica,sans-Serif" font-size="10.00">it.unitn.healthcore.controller.</text>
<text text-anchor="middle" x="111.5" y="-656.5" font-family="Helvetica,sans-Serif" font-size="10.00">PatientController.cancelAppointment</text>
</a>
</g>
</g>
<!-- Node5&#45;&gt;Node6 -->
<g id="edge5" class="edge">
<title>Node5&#45;&gt;Node6</title>
<path fill="none" stroke="midnightblue" d="M273.03,-664.5C252.06,-664.5 230.03,-664.5 209.23,-664.5"/>
<polygon fill="midnightblue" stroke="midnightblue" points="273.23,-668 283.23,-664.5 273.23,-661 273.23,-668"/>
</g>
<!-- Node9 -->
<g id="node9" class="node">
<title>Node9</title>
<g id="a_node9"><a xlink:href="classit_1_1unitn_1_1healthcore_1_1controller_1_1DoctorController.html#aaf741f63621b758e3aab2e1af0639398" target="_top" xlink:title="Retrieves the details of a specific appointment by its ID.">
<polygon fill="white" stroke="black" points="4,-591.5 4,-621.5 219,-621.5 219,-591.5 4,-591.5"/>
<text text-anchor="start" x="12" y="-609.5" font-family="Helvetica,sans-Serif" font-size="10.00">it.unitn.healthcore.controller.</text>
<text text-anchor="middle" x="111.5" y="-598.5" font-family="Helvetica,sans-Serif" font-size="10.00">DoctorController.viewAppointmentDetail</text>
</a>
</g>
</g>
<!-- Node8&#45;&gt;Node9 -->
<g id="edge8" class="edge">
<title>Node8&#45;&gt;Node9</title>
<path fill="none" stroke="midnightblue" d="M266.84,-579.4C243.93,-583.42 220.03,-587.62 198.07,-591.48"/>
<polygon fill="midnightblue" stroke="midnightblue" points="267.7,-582.81 276.94,-577.63 266.49,-575.91 267.7,-582.81"/>
</g>
<!-- Node10 -->
<g id="node10" class="node">
<title>Node10</title>
<g id="a_node10"><a xlink:href="classit_1_1unitn_1_1healthcore_1_1controller_1_1PatientController.html#ac6fe0b7997f8668f80b25419c0d686c6" target="_top" xlink:title="Retrieves the details of a specific appointment by its ID.">
<polygon fill="white" stroke="black" points="3.5,-542.5 3.5,-572.5 219.5,-572.5 219.5,-542.5 3.5,-542.5"/>
<text text-anchor="start" x="11.5" y="-560.5" font-family="Helvetica,sans-Serif" font-size="10.00">it.unitn.healthcore.controller.</text>
<text text-anchor="middle" x="111.5" y="-549.5" font-family="Helvetica,sans-Serif" font-size="10.00">PatientController.viewAppointmentDetail</text>
</a>
</g>
</g>
<!-- Node8&#45;&gt;Node10 -->
<g id="edge9" class="edge">
<title>Node8&#45;&gt;Node10</title>
<path fill="none" stroke="midnightblue" d="M266.82,-559.27C251.3,-559.09 235.33,-558.91 219.82,-558.73"/>
<polygon fill="midnightblue" stroke="midnightblue" points="266.9,-562.77 276.94,-559.38 266.98,-555.77 266.9,-562.77"/>
</g>
<!-- Node12 -->
<g id="node12" class="node">
<title>Node12</title>
<g id="a_node12"><a xlink:href="classit_1_1unitn_1_1healthcore_1_1controller_1_1DoctorController.html#a5a876b4fd08f941dc77ffca9e29608a3" target="_top" xlink:title="Retrieves the details of a specific appointment by its ID.">
<polygon fill="white" stroke="black" points="29.5,-490.5 29.5,-520.5 193.5,-520.5 193.5,-490.5 29.5,-490.5"/>
<text text-anchor="start" x="37.5" y="-508.5" font-family="Helvetica,sans-Serif" font-size="10.00">it.unitn.healthcore.controller.</text>
<text text-anchor="middle" x="111.5" y="-497.5" font-family="Helvetica,sans-Serif" font-size="10.00">DoctorController.viewMyShifts</text>
</a>
</g>
</g>
<!-- Node11&#45;&gt;Node12 -->
<g id="edge11" class="edge">
<title>Node11&#45;&gt;Node12</title>
<path fill="none" stroke="midnightblue" d="M265.57,-505.5C241.47,-505.5 216.35,-505.5 193.59,-505.5"/>
<polygon fill="midnightblue" stroke="midnightblue" points="265.82,-509 275.82,-505.5 265.82,-502 265.82,-509"/>
</g>
<!-- Node14 -->
<g id="node14" class="node">
<title>Node14</title>
<g id="a_node14"><a xlink:href="classit_1_1unitn_1_1healthcore_1_1controller_1_1PatientController.html#a7ff985e6a5601dbbef79fd420d2e54b4" target="_top" xlink:title="Retrieves the current insurance plan of the authenticated patient.">
<polygon fill="white" stroke="black" points="10,-441.5 10,-471.5 213,-471.5 213,-441.5 10,-441.5"/>
<text text-anchor="start" x="18" y="-459.5" font-family="Helvetica,sans-Serif" font-size="10.00">it.unitn.healthcore.controller.</text>
<text text-anchor="middle" x="111.5" y="-448.5" font-family="Helvetica,sans-Serif" font-size="10.00">PatientController.updateInsurancePlan</text>
</a>
</g>
</g>
<!-- Node13&#45;&gt;Node14 -->
<g id="edge13" class="edge">
<title>Node13&#45;&gt;Node14</title>
<path fill="none" stroke="midnightblue" d="M260.63,-456.5C244.83,-456.5 228.69,-456.5 213.16,-456.5"/>
<polygon fill="midnightblue" stroke="midnightblue" points="260.95,-460 270.95,-456.5 260.95,-453 260.95,-460"/>
</g>
<!-- Node16 -->
<g id="node16" class="node">
<title>Node16</title>
<g id="a_node16"><a xlink:href="classit_1_1unitn_1_1healthcore_1_1controller_1_1DoctorController.html#a422bd25fb5f44b8f763d6a29787c46f0" target="_top" xlink:title="Retrieves a list of future appointments for the currently authenticated doctor.">
<polygon fill="white" stroke="black" points="1,-392.5 1,-422.5 222,-422.5 222,-392.5 1,-392.5"/>
<text text-anchor="start" x="9" y="-410.5" font-family="Helvetica,sans-Serif" font-size="10.00">it.unitn.healthcore.controller.</text>
<text text-anchor="middle" x="111.5" y="-399.5" font-family="Helvetica,sans-Serif" font-size="10.00">DoctorController.viewFutureAppointments</text>
</a>
</g>
</g>
<!-- Node15&#45;&gt;Node16 -->
<g id="edge15" class="edge">
<title>Node15&#45;&gt;Node16</title>
<path fill="none" stroke="midnightblue" d="M284.16,-375.39C254.45,-380.95 221.64,-387.09 192.74,-392.49"/>
<polygon fill="midnightblue" stroke="midnightblue" points="284.92,-378.81 294.11,-373.53 283.64,-371.93 284.92,-378.81"/>
</g>
<!-- Node17 -->
<g id="node17" class="node">
<title>Node17</title>
<g id="a_node17"><a xlink:href="classit_1_1unitn_1_1healthcore_1_1controller_1_1PatientController.html#a4207a6fab035c5242ecda1abdb49169e" target="_top" xlink:title="Retrieves a list of future appointments for the authenticated patient.">
<polygon fill="white" stroke="black" points="0,-343.5 0,-373.5 223,-373.5 223,-343.5 0,-343.5"/>
<text text-anchor="start" x="8" y="-361.5" font-family="Helvetica,sans-Serif" font-size="10.00">it.unitn.healthcore.controller.</text>
<text text-anchor="middle" x="111.5" y="-350.5" font-family="Helvetica,sans-Serif" font-size="10.00">PatientController.viewFutureAppointments</text>
</a>
</g>
</g>
<!-- Node15&#45;&gt;Node17 -->
<g id="edge16" class="edge">
<title>Node15&#45;&gt;Node17</title>
<path fill="none" stroke="midnightblue" d="M248.56,-358.5C240.14,-358.5 231.68,-358.5 223.34,-358.5"/>
<polygon fill="midnightblue" stroke="midnightblue" points="248.82,-362 258.82,-358.5 248.82,-355 248.82,-362"/>
</g>
<!-- Node19 -->
<g id="node19" class="node">
<title>Node19</title>
<g id="a_node19"><a xlink:href="classit_1_1unitn_1_1healthcore_1_1controller_1_1DoctorController.html#a6d1a63a3f86734bbe0af66cf4b9cc4f8" target="_top" xlink:title="Retrieves a list of past appointments for the currently authenticated doctor.">
<polygon fill="white" stroke="black" points="6,-294.5 6,-324.5 217,-324.5 217,-294.5 6,-294.5"/>
<text text-anchor="start" x="14" y="-312.5" font-family="Helvetica,sans-Serif" font-size="10.00">it.unitn.healthcore.controller.</text>
<text text-anchor="middle" x="111.5" y="-301.5" font-family="Helvetica,sans-Serif" font-size="10.00">DoctorController.viewPastAppointments</text>
</a>
</g>
</g>
<!-- Node18&#45;&gt;Node19 -->
<g id="edge18" class="edge">
<title>Node18&#45;&gt;Node19</title>
<path fill="none" stroke="midnightblue" d="M253.64,-309.5C241.54,-309.5 229.33,-309.5 217.41,-309.5"/>
<polygon fill="midnightblue" stroke="midnightblue" points="253.77,-313 263.77,-309.5 253.77,-306 253.77,-313"/>
</g>
<!-- Node20 -->
<g id="node20" class="node">
<title>Node20</title>
<g id="a_node20"><a xlink:href="classit_1_1unitn_1_1healthcore_1_1controller_1_1PatientController.html#a8303b97c30b7b5049de75826bafceb4c" target="_top" xlink:title="Retrieves a list of past appointments for the authenticated patient.">
<polygon fill="white" stroke="black" points="5.5,-245.5 5.5,-275.5 217.5,-275.5 217.5,-245.5 5.5,-245.5"/>
<text text-anchor="start" x="13.5" y="-263.5" font-family="Helvetica,sans-Serif" font-size="10.00">it.unitn.healthcore.controller.</text>
<text text-anchor="middle" x="111.5" y="-252.5" font-family="Helvetica,sans-Serif" font-size="10.00">PatientController.viewPastAppointments</text>
</a>
</g>
</g>
<!-- Node18&#45;&gt;Node20 -->
<g id="edge19" class="edge">
<title>Node18&#45;&gt;Node20</title>
<path fill="none" stroke="midnightblue" d="M284.16,-292.61C254.45,-287.05 221.64,-280.91 192.74,-275.51"/>
<polygon fill="midnightblue" stroke="midnightblue" points="283.64,-296.07 294.11,-294.47 284.92,-289.19 283.64,-296.07"/>
</g>
<!-- Node22 -->
<g id="node22" class="node">
<title>Node22</title>
<g id="a_node22"><a xlink:href="classit_1_1unitn_1_1healthcore_1_1controller_1_1PatientController.html#af370cd8f9baad62995675426371b349c" target="_top" xlink:title="Modifies the details of an existing appointment for the authenticated patient.">
<polygon fill="white" stroke="black" points="13,-196.5 13,-226.5 210,-226.5 210,-196.5 13,-196.5"/>
<text text-anchor="start" x="21" y="-214.5" font-family="Helvetica,sans-Serif" font-size="10.00">it.unitn.healthcore.controller.</text>
<text text-anchor="middle" x="111.5" y="-203.5" font-family="Helvetica,sans-Serif" font-size="10.00">PatientController.modifyAppointment</text>
</a>
</g>
</g>
<!-- Node21&#45;&gt;Node22 -->
<g id="edge21" class="edge">
<title>Node21&#45;&gt;Node22</title>
<path fill="none" stroke="midnightblue" d="M284.16,-243.61C254.45,-238.05 221.64,-231.91 192.74,-226.51"/>
<polygon fill="midnightblue" stroke="midnightblue" points="283.64,-247.07 294.11,-245.47 284.92,-240.19 283.64,-247.07"/>
</g>
<!-- Node23&#45;&gt;Node14 -->
<g id="edge23" class="edge">
<title>Node23&#45;&gt;Node14</title>
<path fill="none" stroke="midnightblue" d="M284.16,-424.39C254.45,-429.95 221.64,-436.09 192.74,-441.49"/>
<polygon fill="midnightblue" stroke="midnightblue" points="284.92,-427.81 294.11,-422.53 283.64,-420.93 284.92,-427.81"/>
</g>
<!-- Node25 -->
<g id="node25" class="node">
<title>Node25</title>
<g id="a_node25"><a xlink:href="classit_1_1unitn_1_1healthcore_1_1controller_1_1UserController.html#a546d5ed79a6b2f6f15000d9ddb3b03ab" target="_top" xlink:title="handle the profile update request by updating the user&#39;s profile information and redirecting to the p...">
<polygon fill="white" stroke="black" points="32.5,-98.5 32.5,-128.5 190.5,-128.5 190.5,-98.5 32.5,-98.5"/>
<text text-anchor="start" x="40.5" y="-116.5" font-family="Helvetica,sans-Serif" font-size="10.00">it.unitn.healthcore.controller.</text>
<text text-anchor="middle" x="111.5" y="-105.5" font-family="Helvetica,sans-Serif" font-size="10.00">UserController.updateProfile</text>
</a>
</g>
</g>
<!-- Node24&#45;&gt;Node25 -->
<g id="edge25" class="edge">
<title>Node24&#45;&gt;Node25</title>
<path fill="none" stroke="midnightblue" d="M282.62,-113.5C252.57,-113.5 219.5,-113.5 190.57,-113.5"/>
<polygon fill="midnightblue" stroke="midnightblue" points="282.68,-117 292.68,-113.5 282.68,-110 282.68,-117"/>
</g>
<!-- Node29&#45;&gt;Node24 -->
<g id="edge31" class="edge">
<title>Node29&#45;&gt;Node24</title>
<path fill="none" stroke="midnightblue" d="M535,-81.54C507.63,-87.06 477.5,-93.13 450.92,-98.49"/>
<polygon fill="midnightblue" stroke="midnightblue" points="535.83,-84.94 544.94,-79.53 534.45,-78.08 535.83,-84.94"/>
</g>
<!-- Node30 -->
<g id="node30" class="node">
<title>Node30</title>
<g id="a_node30"><a xlink:href="classit_1_1unitn_1_1healthcore_1_1controller_1_1UserController.html#a2405e7122fa835c28ee045e1339e0f7c" target="_top" xlink:title="handle the password recovery request by sending an OTP to the user&#39;s email and redirecting to the OTP...">
<polygon fill="white" stroke="black" points="289.5,-49.5 289.5,-79.5 461.5,-79.5 461.5,-49.5 289.5,-49.5"/>
<text text-anchor="start" x="297.5" y="-67.5" font-family="Helvetica,sans-Serif" font-size="10.00">it.unitn.healthcore.controller.</text>
<text text-anchor="middle" x="375.5" y="-56.5" font-family="Helvetica,sans-Serif" font-size="10.00">UserController.recoverPassword</text>
</a>
</g>
</g>
<!-- Node29&#45;&gt;Node30 -->
<g id="edge30" class="edge">
<title>Node29&#45;&gt;Node30</title>
<path fill="none" stroke="midnightblue" d="M529.82,-64.5C507.55,-64.5 483.74,-64.5 461.69,-64.5"/>
<polygon fill="midnightblue" stroke="midnightblue" points="529.93,-68 539.93,-64.5 529.93,-61 529.93,-68"/>
</g>
<!-- Node32 -->
<g id="node32" class="node">
<title>Node32</title>
<g id="a_node32"><a xlink:href="classit_1_1unitn_1_1healthcore_1_1controller_1_1UserController.html#adf57285765525b14ad6ec4e68e4ab3bf" target="_top" xlink:title="handle the password recovery request by sending an OTP to the user&#39;s email and redirecting to the OTP...">
<polygon fill="white" stroke="black" points="266.5,-0.5 266.5,-30.5 484.5,-30.5 484.5,-0.5 266.5,-0.5"/>
<text text-anchor="start" x="274.5" y="-18.5" font-family="Helvetica,sans-Serif" font-size="10.00">it.unitn.healthcore.controller.</text>
<text text-anchor="middle" x="375.5" y="-7.5" font-family="Helvetica,sans-Serif" font-size="10.00">UserController.requestPasswordRecovery</text>
</a>
</g>
</g>
<!-- Node31&#45;&gt;Node32 -->
<g id="edge33" class="edge">
<title>Node31&#45;&gt;Node32</title>
<path fill="none" stroke="midnightblue" d="M532.83,-15.5C517.23,-15.5 500.79,-15.5 484.67,-15.5"/>
<polygon fill="midnightblue" stroke="midnightblue" points="532.95,-19 542.95,-15.5 532.95,-12 532.95,-19"/>
</g>
</g>
</svg>
