<?xml version="1.0" encoding="UTF-8" standalone="no"?>
<!DOCTYPE svg PUBLIC "-//W3C//DTD SVG 1.1//EN"
 "http://www.w3.org/Graphics/SVG/1.1/DTD/svg11.dtd">
<!-- Generated by graphviz version 2.43.0 (0)
 -->
<!-- Title: it.unitn.healthcore.persistence.PatientRepository.existsByHealthcareCardNumber Pages: 1 -->
<svg width="593pt" height="50pt"
 viewBox="0.00 0.00 593.00 50.00" xmlns="http://www.w3.org/2000/svg" xmlns:xlink="http://www.w3.org/1999/xlink">
<g id="graph0" class="graph" transform="scale(1 1) rotate(0) translate(4 46)">
<title>it.unitn.healthcore.persistence.PatientRepository.existsByHealthcareCardNumber</title>
<polygon fill="white" stroke="transparent" points="-4,4 -4,-46 589,-46 589,4 -4,4"/>
<!-- Node1 -->
<g id="node1" class="node">
<title>Node1</title>
<g id="a_node1"><a xlink:title=" ">
<polygon fill="#bfbfbf" stroke="black" points="385,-0.5 385,-41.5 585,-41.5 585,-0.5 385,-0.5"/>
<text text-anchor="start" x="393" y="-29.5" font-family="Helvetica,sans-Serif" font-size="10.00">it.unitn.healthcore.persistence.</text>
<text text-anchor="start" x="393" y="-18.5" font-family="Helvetica,sans-Serif" font-size="10.00">PatientRepository.existsByHealthcare</text>
<text text-anchor="middle" x="485" y="-7.5" font-family="Helvetica,sans-Serif" font-size="10.00">CardNumber</text>
</a>
</g>
</g>
<!-- Node2 -->
<g id="node2" class="node">
<title>Node2</title>
<g id="a_node2"><a xlink:href="classit_1_1unitn_1_1healthcore_1_1business_1_1UserService.html#a32dba226bff5fb3cd0caf79303b71d38" target="_top" xlink:title="Registers a new patient in the system.">
<polygon fill="white" stroke="black" points="194,-6 194,-36 349,-36 349,-6 194,-6"/>
<text text-anchor="start" x="202" y="-24" font-family="Helvetica,sans-Serif" font-size="10.00">it.unitn.healthcore.business.</text>
<text text-anchor="middle" x="271.5" y="-13" font-family="Helvetica,sans-Serif" font-size="10.00">UserService.registerPatient</text>
</a>
</g>
</g>
<!-- Node1&#45;&gt;Node2 -->
<g id="edge1" class="edge">
<title>Node1&#45;&gt;Node2</title>
<path fill="none" stroke="midnightblue" d="M374.69,-21C366.12,-21 357.57,-21 349.29,-21"/>
<polygon fill="midnightblue" stroke="midnightblue" points="374.75,-24.5 384.75,-21 374.75,-17.5 374.75,-24.5"/>
</g>
<!-- Node3 -->
<g id="node3" class="node">
<title>Node3</title>
<g id="a_node3"><a xlink:href="classit_1_1unitn_1_1healthcore_1_1controller_1_1UserController.html#a2afa05c30a08ef688e1e3b89ca1f8774" target="_top" xlink:title=" ">
<polygon fill="white" stroke="black" points="0,-6 0,-36 158,-36 158,-6 0,-6"/>
<text text-anchor="start" x="8" y="-24" font-family="Helvetica,sans-Serif" font-size="10.00">it.unitn.healthcore.controller.</text>
<text text-anchor="middle" x="79" y="-13" font-family="Helvetica,sans-Serif" font-size="10.00">UserController.addPatient</text>
</a>
</g>
</g>
<!-- Node2&#45;&gt;Node3 -->
<g id="edge2" class="edge">
<title>Node2&#45;&gt;Node3</title>
<path fill="none" stroke="midnightblue" d="M183.82,-21C175.23,-21 166.55,-21 158.06,-21"/>
<polygon fill="midnightblue" stroke="midnightblue" points="183.84,-24.5 193.84,-21 183.84,-17.5 183.84,-24.5"/>
</g>
</g>
</svg>
