<?xml version="1.0" encoding="UTF-8" standalone="no"?>
<!DOCTYPE svg PUBLIC "-//W3C//DTD SVG 1.1//EN"
 "http://www.w3.org/Graphics/SVG/1.1/DTD/svg11.dtd">
<!-- Generated by graphviz version 2.43.0 (0)
 -->
<!-- Title: it.unitn.healthcore.persistence.UserRepository.findUserByEmail Pages: 1 -->
<svg width="805pt" height="293pt"
 viewBox="0.00 0.00 805.00 293.00" xmlns="http://www.w3.org/2000/svg" xmlns:xlink="http://www.w3.org/1999/xlink">
<g id="graph0" class="graph" transform="scale(1 1) rotate(0) translate(4 289)">
<title>it.unitn.healthcore.persistence.UserRepository.findUserByEmail</title>
<polygon fill="white" stroke="transparent" points="-4,4 -4,-289 801,-289 801,4 -4,4"/>
<!-- Node1 -->
<g id="node1" class="node">
<title>Node1</title>
<g id="a_node1"><a xlink:title=" ">
<polygon fill="#bfbfbf" stroke="black" points="623,-98.5 623,-128.5 797,-128.5 797,-98.5 623,-98.5"/>
<text text-anchor="start" x="631" y="-116.5" font-family="Helvetica,sans-Serif" font-size="10.00">it.unitn.healthcore.persistence.</text>
<text text-anchor="middle" x="710" y="-105.5" font-family="Helvetica,sans-Serif" font-size="10.00">UserRepository.findUserByEmail</text>
</a>
</g>
</g>
<!-- Node2 -->
<g id="node2" class="node">
<title>Node2</title>
<g id="a_node2"><a xlink:href="classit_1_1unitn_1_1healthcore_1_1business_1_1UserService.html#a33213d05bfda4e7384e17b18332d4bb5" target="_top" xlink:title=" ">
<polygon fill="white" stroke="black" points="417,-186.5 417,-216.5 572,-216.5 572,-186.5 417,-186.5"/>
<text text-anchor="start" x="425" y="-204.5" font-family="Helvetica,sans-Serif" font-size="10.00">it.unitn.healthcore.business.</text>
<text text-anchor="middle" x="494.5" y="-193.5" font-family="Helvetica,sans-Serif" font-size="10.00">UserService.getCurrentUser</text>
</a>
</g>
</g>
<!-- Node1&#45;&gt;Node2 -->
<g id="edge1" class="edge">
<title>Node1&#45;&gt;Node2</title>
<path fill="none" stroke="midnightblue" d="M670.84,-133.18C647.06,-145.05 615.64,-160.05 587,-171.5 573.65,-176.84 558.94,-181.97 545.3,-186.44"/>
<polygon fill="midnightblue" stroke="midnightblue" points="672.52,-136.25 679.88,-128.63 669.38,-130 672.52,-136.25"/>
</g>
<!-- Node5 -->
<g id="node5" class="node">
<title>Node5</title>
<g id="a_node5"><a xlink:href="classit_1_1unitn_1_1healthcore_1_1business_1_1UserService.html#a114823fda5c213bb46bc935608bb8953" target="_top" xlink:title=" ">
<polygon fill="white" stroke="black" points="197.5,-117.5 197.5,-147.5 362.5,-147.5 362.5,-117.5 197.5,-117.5"/>
<text text-anchor="start" x="205.5" y="-135.5" font-family="Helvetica,sans-Serif" font-size="10.00">it.unitn.healthcore.business.</text>
<text text-anchor="middle" x="280" y="-124.5" font-family="Helvetica,sans-Serif" font-size="10.00">UserService.updateUserProfile</text>
</a>
</g>
</g>
<!-- Node1&#45;&gt;Node5 -->
<g id="edge13" class="edge">
<title>Node1&#45;&gt;Node5</title>
<path fill="none" stroke="midnightblue" d="M637.78,-130.61C621.21,-133.89 603.57,-136.82 587,-138.5 511.27,-146.18 424.48,-143.39 362.72,-139.44"/>
<polygon fill="midnightblue" stroke="midnightblue" points="638.84,-133.97 647.93,-128.53 637.44,-127.11 638.84,-133.97"/>
</g>
<!-- Node7 -->
<g id="node7" class="node">
<title>Node7</title>
<g id="a_node7"><a xlink:href="classit_1_1unitn_1_1healthcore_1_1business_1_1UserService.html#a88e927ad954f21615b6f2ffa4fe90de2" target="_top" xlink:title=" ">
<polygon fill="white" stroke="black" points="402,-98.5 402,-128.5 587,-128.5 587,-98.5 402,-98.5"/>
<text text-anchor="start" x="410" y="-116.5" font-family="Helvetica,sans-Serif" font-size="10.00">it.unitn.healthcore.business.</text>
<text text-anchor="middle" x="494.5" y="-105.5" font-family="Helvetica,sans-Serif" font-size="10.00">UserService.loadUserByUsername</text>
</a>
</g>
</g>
<!-- Node1&#45;&gt;Node7 -->
<g id="edge7" class="edge">
<title>Node1&#45;&gt;Node7</title>
<path fill="none" stroke="midnightblue" d="M612.57,-113.5C604.15,-113.5 595.65,-113.5 587.28,-113.5"/>
<polygon fill="midnightblue" stroke="midnightblue" points="612.78,-117 622.78,-113.5 612.78,-110 612.78,-117"/>
</g>
<!-- Node8 -->
<g id="node8" class="node">
<title>Node8</title>
<g id="a_node8"><a xlink:href="classit_1_1unitn_1_1healthcore_1_1business_1_1UserService.html#acc1ae5218e790edcc69ad692c84871a2" target="_top" xlink:title=" ">
<polygon fill="white" stroke="black" points="414,-49.5 414,-79.5 575,-79.5 575,-49.5 414,-49.5"/>
<text text-anchor="start" x="422" y="-67.5" font-family="Helvetica,sans-Serif" font-size="10.00">it.unitn.healthcore.business.</text>
<text text-anchor="middle" x="494.5" y="-56.5" font-family="Helvetica,sans-Serif" font-size="10.00">UserService.recoverPassword</text>
</a>
</g>
</g>
<!-- Node1&#45;&gt;Node8 -->
<g id="edge8" class="edge">
<title>Node1&#45;&gt;Node8</title>
<path fill="none" stroke="midnightblue" d="M633.49,-96.17C609.78,-90.73 583.83,-84.77 560.88,-79.51"/>
<polygon fill="midnightblue" stroke="midnightblue" points="632.96,-99.64 643.49,-98.47 634.53,-92.82 632.96,-99.64"/>
</g>
<!-- Node10 -->
<g id="node10" class="node">
<title>Node10</title>
<g id="a_node10"><a xlink:href="classit_1_1unitn_1_1healthcore_1_1business_1_1UserService.html#acc8ce128197ab98ad15545286cabeba8" target="_top" xlink:title=" ">
<polygon fill="white" stroke="black" points="417,-0.5 417,-30.5 572,-30.5 572,-0.5 417,-0.5"/>
<text text-anchor="start" x="425" y="-18.5" font-family="Helvetica,sans-Serif" font-size="10.00">it.unitn.healthcore.business.</text>
<text text-anchor="middle" x="494.5" y="-7.5" font-family="Helvetica,sans-Serif" font-size="10.00">UserService.updateUser</text>
</a>
</g>
</g>
<!-- Node1&#45;&gt;Node10 -->
<g id="edge11" class="edge">
<title>Node1&#45;&gt;Node10</title>
<path fill="none" stroke="midnightblue" d="M680.13,-92.69C656.18,-76.26 620.72,-53.79 587,-39.5 579.14,-36.17 570.69,-33.2 562.23,-30.58"/>
<polygon fill="midnightblue" stroke="midnightblue" points="678.2,-95.61 688.4,-98.44 682.19,-89.86 678.2,-95.61"/>
</g>
<!-- Node3 -->
<g id="node3" class="node">
<title>Node3</title>
<g id="a_node3"><a xlink:href="classit_1_1unitn_1_1healthcore_1_1controller_1_1UserController.html#aa9d85586ed83e4d9865621769e24fd81" target="_top" xlink:title=" ">
<polygon fill="white" stroke="black" points="200.5,-254.5 200.5,-284.5 359.5,-284.5 359.5,-254.5 200.5,-254.5"/>
<text text-anchor="start" x="208.5" y="-272.5" font-family="Helvetica,sans-Serif" font-size="10.00">it.unitn.healthcore.controller.</text>
<text text-anchor="middle" x="280" y="-261.5" font-family="Helvetica,sans-Serif" font-size="10.00">UserController.deleteAccount</text>
</a>
</g>
</g>
<!-- Node2&#45;&gt;Node3 -->
<g id="edge2" class="edge">
<title>Node2&#45;&gt;Node3</title>
<path fill="none" stroke="midnightblue" d="M436.82,-219.64C402.88,-230.5 360.24,-244.14 328.14,-254.41"/>
<polygon fill="midnightblue" stroke="midnightblue" points="438.15,-222.89 446.6,-216.51 436.01,-216.22 438.15,-222.89"/>
</g>
<!-- Node4 -->
<g id="node4" class="node">
<title>Node4</title>
<g id="a_node4"><a xlink:href="classit_1_1unitn_1_1healthcore_1_1controller_1_1UserController.html#acd7b4fd033c7ae0b42644c3932e6867f" target="_top" xlink:title=" ">
<polygon fill="white" stroke="black" points="0,-163.5 0,-193.5 158,-193.5 158,-163.5 0,-163.5"/>
<text text-anchor="start" x="8" y="-181.5" font-family="Helvetica,sans-Serif" font-size="10.00">it.unitn.healthcore.controller.</text>
<text text-anchor="middle" x="79" y="-170.5" font-family="Helvetica,sans-Serif" font-size="10.00">UserController.updateProfile</text>
</a>
</g>
</g>
<!-- Node2&#45;&gt;Node4 -->
<g id="edge3" class="edge">
<title>Node2&#45;&gt;Node4</title>
<path fill="none" stroke="midnightblue" d="M406.69,-209.2C346.73,-212.99 265.25,-215.12 194,-206.5 172.76,-203.93 149.76,-198.76 130.02,-193.55"/>
<polygon fill="midnightblue" stroke="midnightblue" points="407.13,-212.68 416.88,-208.53 406.67,-205.7 407.13,-212.68"/>
</g>
<!-- Node2&#45;&gt;Node5 -->
<g id="edge4" class="edge">
<title>Node2&#45;&gt;Node5</title>
<path fill="none" stroke="midnightblue" d="M436.04,-183.19C424.72,-179.43 412.96,-175.42 402,-171.5 385.84,-165.71 382.25,-163.04 366,-157.5 355.95,-154.08 345.15,-150.68 334.72,-147.55"/>
<polygon fill="midnightblue" stroke="midnightblue" points="435.25,-186.61 445.84,-186.41 437.44,-179.96 435.25,-186.61"/>
</g>
<!-- Node6 -->
<g id="node6" class="node">
<title>Node6</title>
<g id="a_node6"><a xlink:href="classit_1_1unitn_1_1healthcore_1_1controller_1_1UserController.html#a72a0e87005b1b6a91822302d4888d3cf" target="_top" xlink:title=" ">
<polygon fill="white" stroke="black" points="198,-166.5 198,-196.5 362,-196.5 362,-166.5 198,-166.5"/>
<text text-anchor="start" x="206" y="-184.5" font-family="Helvetica,sans-Serif" font-size="10.00">it.unitn.healthcore.controller.</text>
<text text-anchor="middle" x="280" y="-173.5" font-family="Helvetica,sans-Serif" font-size="10.00">UserController.userHomepage</text>
</a>
</g>
</g>
<!-- Node2&#45;&gt;Node6 -->
<g id="edge6" class="edge">
<title>Node2&#45;&gt;Node6</title>
<path fill="none" stroke="midnightblue" d="M406.71,-193.33C392.02,-191.95 376.81,-190.52 362.27,-189.15"/>
<polygon fill="midnightblue" stroke="midnightblue" points="406.5,-196.83 416.78,-194.28 407.15,-189.86 406.5,-196.83"/>
</g>
<!-- Node5&#45;&gt;Node4 -->
<g id="edge5" class="edge">
<title>Node5&#45;&gt;Node4</title>
<path fill="none" stroke="midnightblue" d="M203.84,-149.87C184.47,-154.35 163.78,-159.13 144.97,-163.48"/>
<polygon fill="midnightblue" stroke="midnightblue" points="204.89,-153.22 213.84,-147.56 203.31,-146.4 204.89,-153.22"/>
</g>
<!-- Node8&#45;&gt;Node5 -->
<g id="edge10" class="edge">
<title>Node8&#45;&gt;Node5</title>
<path fill="none" stroke="midnightblue" d="M425.9,-82.36C417.82,-84.67 409.71,-87.08 402,-89.5 374.77,-98.04 344.52,-108.79 321.08,-117.41"/>
<polygon fill="midnightblue" stroke="midnightblue" points="427.04,-85.67 435.71,-79.58 425.14,-78.93 427.04,-85.67"/>
</g>
<!-- Node9 -->
<g id="node9" class="node">
<title>Node9</title>
<g id="a_node9"><a xlink:href="classit_1_1unitn_1_1healthcore_1_1controller_1_1UserController.html#a2405e7122fa835c28ee045e1339e0f7c" target="_top" xlink:title=" ">
<polygon fill="white" stroke="black" points="194,-49.5 194,-79.5 366,-79.5 366,-49.5 194,-49.5"/>
<text text-anchor="start" x="202" y="-67.5" font-family="Helvetica,sans-Serif" font-size="10.00">it.unitn.healthcore.controller.</text>
<text text-anchor="middle" x="280" y="-56.5" font-family="Helvetica,sans-Serif" font-size="10.00">UserController.recoverPassword</text>
</a>
</g>
</g>
<!-- Node8&#45;&gt;Node9 -->
<g id="edge9" class="edge">
<title>Node8&#45;&gt;Node9</title>
<path fill="none" stroke="midnightblue" d="M403.47,-64.5C391.1,-64.5 378.43,-64.5 366.15,-64.5"/>
<polygon fill="midnightblue" stroke="midnightblue" points="403.77,-68 413.77,-64.5 403.77,-61 403.77,-68"/>
</g>
<!-- Node11 -->
<g id="node11" class="node">
<title>Node11</title>
<g id="a_node11"><a xlink:href="classit_1_1unitn_1_1healthcore_1_1controller_1_1UserController.html#a9ef12b4b42af0b8c47a79e8bc06de976" target="_top" xlink:title=" ">
<polygon fill="white" stroke="black" points="201,-0.5 201,-30.5 359,-30.5 359,-0.5 201,-0.5"/>
<text text-anchor="start" x="209" y="-18.5" font-family="Helvetica,sans-Serif" font-size="10.00">it.unitn.healthcore.controller.</text>
<text text-anchor="middle" x="280" y="-7.5" font-family="Helvetica,sans-Serif" font-size="10.00">UserController.updateUser</text>
</a>
</g>
</g>
<!-- Node10&#45;&gt;Node11 -->
<g id="edge12" class="edge">
<title>Node10&#45;&gt;Node11</title>
<path fill="none" stroke="midnightblue" d="M406.54,-15.5C390.81,-15.5 374.49,-15.5 359.03,-15.5"/>
<polygon fill="midnightblue" stroke="midnightblue" points="406.78,-19 416.78,-15.5 406.78,-12 406.78,-19"/>
</g>
</g>
</svg>
