<?xml version="1.0" encoding="UTF-8" standalone="no"?>
<!DOCTYPE svg PUBLIC "-//W3C//DTD SVG 1.1//EN"
 "http://www.w3.org/Graphics/SVG/1.1/DTD/svg11.dtd">
<!-- Generated by graphviz version 2.43.0 (0)
 -->
<!-- Title: it.unitn.healthcore.persistence.UserRepository.findUserByEmail Pages: 1 -->
<svg width="851pt" height="293pt"
 viewBox="0.00 0.00 851.00 293.00" xmlns="http://www.w3.org/2000/svg" xmlns:xlink="http://www.w3.org/1999/xlink">
<g id="graph0" class="graph" transform="scale(1 1) rotate(0) translate(4 289)">
<title>it.unitn.healthcore.persistence.UserRepository.findUserByEmail</title>
<polygon fill="white" stroke="transparent" points="-4,4 -4,-289 847,-289 847,4 -4,4"/>
<!-- Node1 -->
<g id="node1" class="node">
<title>Node1</title>
<g id="a_node1"><a xlink:title=" ">
<polygon fill="#bfbfbf" stroke="black" points="669,-98.5 669,-128.5 843,-128.5 843,-98.5 669,-98.5"/>
<text text-anchor="start" x="677" y="-116.5" font-family="Helvetica,sans-Serif" font-size="10.00">it.unitn.healthcore.persistence.</text>
<text text-anchor="middle" x="756" y="-105.5" font-family="Helvetica,sans-Serif" font-size="10.00">UserRepository.findUserByEmail</text>
</a>
</g>
</g>
<!-- Node2 -->
<g id="node2" class="node">
<title>Node2</title>
<g id="a_node2"><a xlink:href="classit_1_1unitn_1_1healthcore_1_1business_1_1UserService.html#a33213d05bfda4e7384e17b18332d4bb5" target="_top" xlink:title=" ">
<polygon fill="white" stroke="black" points="463,-186.5 463,-216.5 618,-216.5 618,-186.5 463,-186.5"/>
<text text-anchor="start" x="471" y="-204.5" font-family="Helvetica,sans-Serif" font-size="10.00">it.unitn.healthcore.business.</text>
<text text-anchor="middle" x="540.5" y="-193.5" font-family="Helvetica,sans-Serif" font-size="10.00">UserService.getCurrentUser</text>
</a>
</g>
</g>
<!-- Node1&#45;&gt;Node2 -->
<g id="edge1" class="edge">
<title>Node1&#45;&gt;Node2</title>
<path fill="none" stroke="midnightblue" d="M716.84,-133.18C693.06,-145.05 661.64,-160.05 633,-171.5 619.65,-176.84 604.94,-181.97 591.3,-186.44"/>
<polygon fill="midnightblue" stroke="midnightblue" points="718.52,-136.25 725.88,-128.63 715.38,-130 718.52,-136.25"/>
</g>
<!-- Node5 -->
<g id="node5" class="node">
<title>Node5</title>
<g id="a_node5"><a xlink:href="classit_1_1unitn_1_1healthcore_1_1business_1_1UserService.html#a114823fda5c213bb46bc935608bb8953" target="_top" xlink:title=" ">
<polygon fill="white" stroke="black" points="220.5,-117.5 220.5,-147.5 385.5,-147.5 385.5,-117.5 220.5,-117.5"/>
<text text-anchor="start" x="228.5" y="-135.5" font-family="Helvetica,sans-Serif" font-size="10.00">it.unitn.healthcore.business.</text>
<text text-anchor="middle" x="303" y="-124.5" font-family="Helvetica,sans-Serif" font-size="10.00">UserService.updateUserProfile</text>
</a>
</g>
</g>
<!-- Node1&#45;&gt;Node5 -->
<g id="edge13" class="edge">
<title>Node1&#45;&gt;Node5</title>
<path fill="none" stroke="midnightblue" d="M683.78,-130.61C667.21,-133.89 649.57,-136.82 633,-138.5 549.02,-147.02 452.39,-143.7 385.68,-139.38"/>
<polygon fill="midnightblue" stroke="midnightblue" points="684.84,-133.97 693.93,-128.53 683.44,-127.11 684.84,-133.97"/>
</g>
<!-- Node7 -->
<g id="node7" class="node">
<title>Node7</title>
<g id="a_node7"><a xlink:href="classit_1_1unitn_1_1healthcore_1_1business_1_1UserService.html#a88e927ad954f21615b6f2ffa4fe90de2" target="_top" xlink:title=" ">
<polygon fill="white" stroke="black" points="448,-98.5 448,-128.5 633,-128.5 633,-98.5 448,-98.5"/>
<text text-anchor="start" x="456" y="-116.5" font-family="Helvetica,sans-Serif" font-size="10.00">it.unitn.healthcore.business.</text>
<text text-anchor="middle" x="540.5" y="-105.5" font-family="Helvetica,sans-Serif" font-size="10.00">UserService.loadUserByUsername</text>
</a>
</g>
</g>
<!-- Node1&#45;&gt;Node7 -->
<g id="edge7" class="edge">
<title>Node1&#45;&gt;Node7</title>
<path fill="none" stroke="midnightblue" d="M658.57,-113.5C650.15,-113.5 641.65,-113.5 633.28,-113.5"/>
<polygon fill="midnightblue" stroke="midnightblue" points="658.78,-117 668.78,-113.5 658.78,-110 658.78,-117"/>
</g>
<!-- Node8 -->
<g id="node8" class="node">
<title>Node8</title>
<g id="a_node8"><a xlink:href="classit_1_1unitn_1_1healthcore_1_1business_1_1UserService.html#acc1ae5218e790edcc69ad692c84871a2" target="_top" xlink:title=" ">
<polygon fill="white" stroke="black" points="460,-49.5 460,-79.5 621,-79.5 621,-49.5 460,-49.5"/>
<text text-anchor="start" x="468" y="-67.5" font-family="Helvetica,sans-Serif" font-size="10.00">it.unitn.healthcore.business.</text>
<text text-anchor="middle" x="540.5" y="-56.5" font-family="Helvetica,sans-Serif" font-size="10.00">UserService.recoverPassword</text>
</a>
</g>
</g>
<!-- Node1&#45;&gt;Node8 -->
<g id="edge8" class="edge">
<title>Node1&#45;&gt;Node8</title>
<path fill="none" stroke="midnightblue" d="M679.49,-96.17C655.78,-90.73 629.83,-84.77 606.88,-79.51"/>
<polygon fill="midnightblue" stroke="midnightblue" points="678.96,-99.64 689.49,-98.47 680.53,-92.82 678.96,-99.64"/>
</g>
<!-- Node10 -->
<g id="node10" class="node">
<title>Node10</title>
<g id="a_node10"><a xlink:href="classit_1_1unitn_1_1healthcore_1_1business_1_1UserService.html#a262646caddacb1ce9c3a009beecdd52d" target="_top" xlink:title=" ">
<polygon fill="white" stroke="black" points="463,-0.5 463,-30.5 618,-30.5 618,-0.5 463,-0.5"/>
<text text-anchor="start" x="471" y="-18.5" font-family="Helvetica,sans-Serif" font-size="10.00">it.unitn.healthcore.business.</text>
<text text-anchor="middle" x="540.5" y="-7.5" font-family="Helvetica,sans-Serif" font-size="10.00">UserService.sendOtp</text>
</a>
</g>
</g>
<!-- Node1&#45;&gt;Node10 -->
<g id="edge11" class="edge">
<title>Node1&#45;&gt;Node10</title>
<path fill="none" stroke="midnightblue" d="M726.13,-92.69C702.18,-76.26 666.72,-53.79 633,-39.5 625.14,-36.17 616.69,-33.2 608.23,-30.58"/>
<polygon fill="midnightblue" stroke="midnightblue" points="724.2,-95.61 734.4,-98.44 728.19,-89.86 724.2,-95.61"/>
</g>
<!-- Node3 -->
<g id="node3" class="node">
<title>Node3</title>
<g id="a_node3"><a xlink:href="classit_1_1unitn_1_1healthcore_1_1controller_1_1UserController.html#aa9d85586ed83e4d9865621769e24fd81" target="_top" xlink:title="delete the current user&#39;s account and redirect to the login page.">
<polygon fill="white" stroke="black" points="223.5,-254.5 223.5,-284.5 382.5,-284.5 382.5,-254.5 223.5,-254.5"/>
<text text-anchor="start" x="231.5" y="-272.5" font-family="Helvetica,sans-Serif" font-size="10.00">it.unitn.healthcore.controller.</text>
<text text-anchor="middle" x="303" y="-261.5" font-family="Helvetica,sans-Serif" font-size="10.00">UserController.deleteAccount</text>
</a>
</g>
</g>
<!-- Node2&#45;&gt;Node3 -->
<g id="edge2" class="edge">
<title>Node2&#45;&gt;Node3</title>
<path fill="none" stroke="midnightblue" d="M480.27,-219.4C458.8,-225.83 434.33,-233.07 412,-239.5 394.8,-244.45 376.01,-249.72 359,-254.44"/>
<polygon fill="midnightblue" stroke="midnightblue" points="481.34,-222.74 489.91,-216.51 479.33,-216.03 481.34,-222.74"/>
</g>
<!-- Node4 -->
<g id="node4" class="node">
<title>Node4</title>
<g id="a_node4"><a xlink:href="classit_1_1unitn_1_1healthcore_1_1controller_1_1UserController.html#acd7b4fd033c7ae0b42644c3932e6867f" target="_top" xlink:title=" ">
<polygon fill="white" stroke="black" points="0,-163.5 0,-193.5 158,-193.5 158,-163.5 0,-163.5"/>
<text text-anchor="start" x="8" y="-181.5" font-family="Helvetica,sans-Serif" font-size="10.00">it.unitn.healthcore.controller.</text>
<text text-anchor="middle" x="79" y="-170.5" font-family="Helvetica,sans-Serif" font-size="10.00">UserController.updateProfile</text>
</a>
</g>
</g>
<!-- Node2&#45;&gt;Node4 -->
<g id="edge3" class="edge">
<title>Node2&#45;&gt;Node4</title>
<path fill="none" stroke="midnightblue" d="M452.57,-209.21C382.5,-213.87 281.56,-217.1 194,-206.5 172.76,-203.93 149.76,-198.76 130.02,-193.55"/>
<polygon fill="midnightblue" stroke="midnightblue" points="452.95,-212.69 462.68,-208.51 452.46,-205.71 452.95,-212.69"/>
</g>
<!-- Node2&#45;&gt;Node5 -->
<g id="edge4" class="edge">
<title>Node2&#45;&gt;Node5</title>
<path fill="none" stroke="midnightblue" d="M482.04,-183.19C470.72,-179.43 458.96,-175.42 448,-171.5 431.84,-165.71 428.4,-162.56 412,-157.5 400.32,-153.9 387.79,-150.54 375.55,-147.54"/>
<polygon fill="midnightblue" stroke="midnightblue" points="481.25,-186.61 491.84,-186.41 483.44,-179.96 481.25,-186.61"/>
</g>
<!-- Node6 -->
<g id="node6" class="node">
<title>Node6</title>
<g id="a_node6"><a xlink:href="classit_1_1unitn_1_1healthcore_1_1controller_1_1UserController.html#a72a0e87005b1b6a91822302d4888d3cf" target="_top" xlink:title="display the user&#39;s homepage after successful login and OTP verification.">
<polygon fill="white" stroke="black" points="221,-166.5 221,-196.5 385,-196.5 385,-166.5 221,-166.5"/>
<text text-anchor="start" x="229" y="-184.5" font-family="Helvetica,sans-Serif" font-size="10.00">it.unitn.healthcore.controller.</text>
<text text-anchor="middle" x="303" y="-173.5" font-family="Helvetica,sans-Serif" font-size="10.00">UserController.userHomepage</text>
</a>
</g>
</g>
<!-- Node2&#45;&gt;Node6 -->
<g id="edge6" class="edge">
<title>Node2&#45;&gt;Node6</title>
<path fill="none" stroke="midnightblue" d="M452.69,-194.13C430.59,-192.25 406.94,-190.24 385.14,-188.39"/>
<polygon fill="midnightblue" stroke="midnightblue" points="452.45,-197.62 462.71,-194.98 453.05,-190.65 452.45,-197.62"/>
</g>
<!-- Node5&#45;&gt;Node4 -->
<g id="edge5" class="edge">
<title>Node5&#45;&gt;Node4</title>
<path fill="none" stroke="midnightblue" d="M219.35,-149.63C197.39,-154.18 173.84,-159.05 152.48,-163.48"/>
<polygon fill="midnightblue" stroke="midnightblue" points="220.23,-153.02 229.31,-147.56 218.81,-146.16 220.23,-153.02"/>
</g>
<!-- Node8&#45;&gt;Node5 -->
<g id="edge10" class="edge">
<title>Node8&#45;&gt;Node5</title>
<path fill="none" stroke="midnightblue" d="M473.63,-82.3C465,-84.69 456.28,-87.13 448,-89.5 416.39,-98.54 381.01,-109.09 353.23,-117.49"/>
<polygon fill="midnightblue" stroke="midnightblue" points="474.6,-85.66 483.31,-79.63 472.74,-78.91 474.6,-85.66"/>
</g>
<!-- Node9 -->
<g id="node9" class="node">
<title>Node9</title>
<g id="a_node9"><a xlink:href="classit_1_1unitn_1_1healthcore_1_1controller_1_1UserController.html#a2405e7122fa835c28ee045e1339e0f7c" target="_top" xlink:title="handle the password recovery request by sending an OTP to the user&#39;s email and redirecting to the OTP...">
<polygon fill="white" stroke="black" points="217,-49.5 217,-79.5 389,-79.5 389,-49.5 217,-49.5"/>
<text text-anchor="start" x="225" y="-67.5" font-family="Helvetica,sans-Serif" font-size="10.00">it.unitn.healthcore.controller.</text>
<text text-anchor="middle" x="303" y="-56.5" font-family="Helvetica,sans-Serif" font-size="10.00">UserController.recoverPassword</text>
</a>
</g>
</g>
<!-- Node8&#45;&gt;Node9 -->
<g id="edge9" class="edge">
<title>Node8&#45;&gt;Node9</title>
<path fill="none" stroke="midnightblue" d="M449.54,-64.5C429.76,-64.5 408.88,-64.5 389.29,-64.5"/>
<polygon fill="midnightblue" stroke="midnightblue" points="449.77,-68 459.77,-64.5 449.77,-61 449.77,-68"/>
</g>
<!-- Node11 -->
<g id="node11" class="node">
<title>Node11</title>
<g id="a_node11"><a xlink:href="classit_1_1unitn_1_1healthcore_1_1controller_1_1UserController.html#adf57285765525b14ad6ec4e68e4ab3bf" target="_top" xlink:title="handle the password recovery request by sending an OTP to the user&#39;s email and redirecting to the OTP...">
<polygon fill="white" stroke="black" points="194,-0.5 194,-30.5 412,-30.5 412,-0.5 194,-0.5"/>
<text text-anchor="start" x="202" y="-18.5" font-family="Helvetica,sans-Serif" font-size="10.00">it.unitn.healthcore.controller.</text>
<text text-anchor="middle" x="303" y="-7.5" font-family="Helvetica,sans-Serif" font-size="10.00">UserController.requestPasswordRecovery</text>
</a>
</g>
</g>
<!-- Node10&#45;&gt;Node11 -->
<g id="edge12" class="edge">
<title>Node10&#45;&gt;Node11</title>
<path fill="none" stroke="midnightblue" d="M452.38,-15.5C439.33,-15.5 425.74,-15.5 412.32,-15.5"/>
<polygon fill="midnightblue" stroke="midnightblue" points="452.71,-19 462.71,-15.5 452.71,-12 452.71,-19"/>
</g>
</g>
</svg>
